<?xml version="1.0" encoding="UTF-8"?><svg xmlns="http://www.w3.org/2000/svg" id="Layer_2" data-name="Layer 2" viewBox="-81.525 0 633.25 633.25"><path d="M377.8082,625.0223c-95.1294,11.0081,-190.2587,11.0081,-285.4164,0c-86.8165,-10.0435,-155.6456,-78.8725,-165.6891,-165.6891c-11.0081,-95.1294,-11.0081,-190.2587,0,-285.4164C-63.2538,87.1002,5.5752,18.2712,92.3918,8.2561c95.1294,-11.0081,190.2587,-11.0081,285.4164,0c86.8165,10.0435,155.6456,78.8725,165.6891,165.6891c11.0081,95.1294,11.0081,190.2587,0,285.4164c-10.0435,86.8165,-78.8725,155.6456,-165.6891,165.6891Z" fill="#eb5e00" class="svg-squircle-bg"/>
  <defs>
    <style>
      .cls-1 {
        fill: #fff;
      }
    </style>
  </defs>
  
<g transform="translate(235.1, 316.625) scale(0.75) translate(-235.1, -316.625)"><g id="Layer_1-2" data-name="Layer 1">
    <g>
      <path class="cls-1" d="M420.75,633.22h-44.66s0-118.69,0-118.69l-35.8-35.08-105.26-103.83-140.92,138.79-.05,118.77-44.66.07v-202.34S0,351.48,0,351.48c46.89-43.51,88.25-92.64,123.14-146.49C163.86,141.93,197.83,73.08,216.29.17l9.3.24.03,251.2c-17.78,5.24-28.56,22.96-24.55,40.68s21.28,29.91,40.04,26.59c15.82-2.84,27.66-16.27,28.63-31.68.99-15.78-9.01-30.65-25.18-35.57V.39s9.49-.39,9.49-.39l7.59,27.58c18.26,56.72,43.86,110.51,75.52,161.24,36.95,60.02,81.66,114.71,133.04,162.72l-49.46,80.3.02,201.38Z"/>
      <polygon class="cls-1" points="284.1 623.78 244.32 623.84 244.31 583.5 284.09 583.5 284.1 623.78"/>
      <polygon class="cls-1" points="225.83 623.72 186.11 623.86 186.12 583.53 225.77 583.51 225.83 623.72"/>
      <polygon class="cls-1" points="225.82 566.35 186.1 566.32 186.16 526.25 225.8 526.23 225.82 566.35"/>
      <polygon class="cls-1" points="284.11 566.29 244.29 566.33 244.34 526.24 284.06 526.21 284.11 566.29"/>
    </g>
  </g></g></svg>