<?xml version="1.0" encoding="UTF-8"?>
<svg id="Layer_2" data-name="Layer 2" xmlns="http://www.w3.org/2000/svg" viewBox="0 0 205.66 178.38">
  <g id="People">
    <path d="M205.66,178.38c-1.31-5.03-2.42-9.36-2.97-10.84-5.22-12.28-9.35-23.8-13.37-30.21-.98-3.15-2.39-5.33-3.48-7.5-1.09-2.17-1.63-3.15-6.09-5.22-19.78-6.85-43.36-15.54-43.36-15.54,0,0-2.28-2.93-8.48-5.87-4.69-2.94-7.04-5.8-9.5-6.87.05-.63.12-1.28.21-1.98,1.11-9.13,1.74-16.15,1.91-18.06.62-.17,3.75-.43,5.3-.85,4.24-1.14,6.74-8.34,6.74-8.34h0c0-1.18-.59-2.7-.23-4.7.1-2.85,2.85-5.07,2.79-6.85,0-.23,2.95-.45,2.95-.65v-.12c0-.74-3.99.51-3.85-.09.49-2.12-3.77-3.95-3.77-3.95h-.12c-.11,0-.48-5.13-1.23-6.97.33-.81,2.25-4.22-.03-13.02-1.14-2.61-4.58-10.91-15.17-18.41C102.51.28,95.01,2,93.05,1.67c-1.96-.33-4.24-2.08-7.99-1.59-3.75.49.51,2.87-.47,3.2-.98.33,1.13-2.67-4.38,3.36v.49c-13.78.16-12.82,2.44-16.73,6.85-2.12,4.89-3.56,9.94-3.56,9.94,0,0-5.52,1.79-5.19,16.14-4.08,5.38-2.8,11.25-.5,17.93.1.3.01.59.2.86.82,1.17,2.24,2.08,3.8,3.16-.4,2.23.26,6.08.43,6.74.21.81,1.98,3.42,2.63,5.71,1.3-.65,1.94-1.94,2.1-.48.16,1.47,4.22,12.59,7.81,18.11h.67c-6.54,8.27-7.35,9.61-7.68,10.59-7.17,4.56-7.99,7.16-8.64,7.98-.65.82-2.28,3.17-2.28,3.17,0,0-7.82,3.14-18.75,7.21-20.38,8.97-22.5,10.45-24.13,11.92-1.63,1.47-4.07,9.22-5.71,17.37-2.95,14.61-4.02,22-4.69,28.05h205.66Z"/>
  </g>
</svg>