<?xml version="1.0" encoding="UTF-8"?>
<svg id="Layer_2" data-name="Layer 2" xmlns="http://www.w3.org/2000/svg" viewBox="0 0 59.02 169.17">
  <g id="People">
    <path d="M21.87,21.34s-.44.44-1.35-.63-.83-1.62-1.19-2.14c-.36-.51-.63-.55-.99-1.78s-1.54-4.79-1.35-6.1c.2-1.31.44-1.66.51-2.1.08-.44-.24-.99.28-1.62s1.78-2.1,2.38-2.65c.59-.55,1.94-1.15,2.77-1.7.83-.55,2.49-1.58,3.25-1.82.75-.24,1.43-.44,1.94-.32.51.12,1.31-.52,1.98-.36.67.16,1.19.63,1.9.4.71-.24,1.07-.24,1.11-.51,0,0-.16,1.03-.59,1.07-.44.04,1.54.79,2.02-.16,0,0-.08.99-.99,1.07s1.19.12,1.58-.24c0,0-1.35,1.43-2.02,1.35,0,0,2.26.99,3.09,2.85.83,1.86.99,2.69,1.54,3.33l.2.55s.83,0,1.23.55.79,1.58.55,1.98-.71.63-.71.63c0,0,.52.44.44,1.07-.08.63-.63.79-.95.91-.32.12-.75.16-.67.63.08.48.16,1.27.2,1.58.04.32-.51.48-.71,1.03s-.4.83-.16,1.31c.24.48.48.99.2,1.15-.28.16-.36.59,0,1.23.36.63.12,1.23-.32,1.5-.44.28-1.98.04-2.85.51-.87.48-.95.36-.87.48.08.12,1.94,1.27,3.37,1.66,1.43.4,4.51,1.19,5.15,1.5.63.32,3.92,1.03,4.43,1.19.51.16,1.94.55,2.34.83.4.28.79,1.11,1.19,1.66.4.55.67,2.02,1.27,3.33s1.74,4.2,1.94,4.95c.2.75.2,1.27.59,2.14.4.87.4,1.27.55,1.9.16.63.32,1.35.67,1.9.36.55.36,1.11.79,1.74.44.63.63,1.03,1.11,1.46.48.44.59.79.87,1.5.28.71.12,1.35.2,1.82.08.48.36.95.59,1.27.24.32.59,1.27.63,2.57s-.48,3.09-.63,3.76c-.16.67-.71.95-1.19,1.39-.48.44-1.94,1.9-3.72,1.9s-2.89-1.03-3.37-1.15c-.48-.12-1.31-1.35-1.58-1.66s-.44-.75-.51-.48c-.08.28.04,1.23.32,2.22.28.99,1.23,3.33,1.43,4.24s.2.99.4,1.5c.2.51.71.59.91.79s.36,1.78.63,3.09c.28,1.31.63,4.24.87,4.95.24.71.44,2.1.71,3.05.28.95.4,1.82.51,2.49.12.67.51,1.19.55,1.62.04.44.08,2.3.08,2.61s.4,2.26.55,2.77c.16.51.32.71.08.79-.24.08-1.39.32-1.39.32v.63s-3.09.48-3.4.44c0,0-.24,1.35-.12,2.61s-.48,5.15-.48,6.81-.28,5.98-.51,7.28c-.24,1.31-.59,3.37-.59,4.67s-.24,4.24-.44,4.87-.87,2.34-.99,3.09-.04,2.77.12,3.13,1.19,2.06,1.39,2.89c.2.83,0,3.92-.32,4.59-.32.67-.99,1.43-.79,2.3s.4,1.78.48,2.69c.08.91-.12,3.68-.24,4.71-.12,1.03-.08,1.82.16,2.85.24,1.03-.28,3.13-.12,4.04s1.31,2.77,2.3,4.24c.99,1.47-.04,4.43,0,5.27.04.83-.95,1.82-1.39,1.9-.44.08-.59.2-.48.36.12.16.59,1.07.83,1.58.24.51.16,1.66.24,1.82.08.16,1.31-.12,1.82.32l.08.79s-2.26-.75-1.23.08c0,0,1.94,1.19,2.85,1.62s1.98.79,2.14,1.07c.16.28.16,1.66.16,1.66,0,0-.08.08-.08.2s.12.4.08.55-15.16,0-15.16,0c0,0-.2-1.46-.24-1.74-.04-.28-.36-1.7-.36-1.94s-.28-1.54-.28-1.98-1.39-.44-1.86-1.27c-.48-.83-.91-4.43-1.19-5.19-.28-.75-.87-1.9-.75-2.49.12-.59.87-5.03.91-6.93.04-1.9-.08-7.8-.24-9.78s.24-5.42.12-6.57c-.12-1.15-.4-2.57-.4-3.37s.2-1.7-.04-2.26c-.24-.55-.51-1.74-.79-3.05-.28-1.31-.55-8.2-.51-9.58.04-1.39,0-7.13-.16-7.56-.16-.44-.44-4.12-.55-5.62-.12-1.5-.95-4.87-.95-5.11s-.24,1.86-.91,5.54-1.39,3.44-1.54,4.08c-.16.63-.24,2.69-.52,3.92-.28,1.23-.71,4.36-1.19,6.69-.48,2.34-1.07,6.45-1.07,7.25s.2,2.81,0,3.48c-.2.67-.83,4.91-.91,6.45-.08,1.54-.4,4.71-.51,7.17-.12,2.45-.4,3.96-.44,5.07s-.44,5.19-.4,6.49c.04,1.31.04,4.75-.04,5.5-.08.75-.67,4.12-1.27,5.46-.59,1.35-1.27,2.18-1.35,2.61-.08.44-.36.99-.44,1.5-.08.51-.28.91-.28.91,0,0-.4,1.19-.44,1.58l-.04.4s-13.7-.2-13.58-.24-.2-.55-.08-.79c.12-.24.04-1.5.44-1.9.4-.4,1.31-.87,1.54-.95.24-.08-.2-.63.32-.87.51-.24,1.39-1.11,1.74-1.07.36.04.51.04.59-.16.08-.2.2-6.41.24-6.69.04-.28-1.35-.95-.95-2.38.4-1.43,1.07-4.24,1.11-5.98.04-1.74.63-8.2.87-9.03.24-.83,1.03-4.16,1.07-4.95.04-.79-.48-4.83-.2-5.54.28-.71,1.5-3.05,1.62-3.64.12-.59.32-4.36.51-4.95s.36-3.72,0-4.51c-.36-.79-1.27-3.88-1.31-5.42-.04-1.54.04-5.82.04-6.81s-.36-3.52-.2-4.36c.16-.83-.16-4.36-.2-4.47-.04-.12-4.2-.08-4.75-.91,0,0,.24-3.37.28-3.68.04-.32,1.03-7.17,1.07-8.12.04-.95.32-6.65.44-7.52s.32-2.77.36-3.13.28-.59.28-.59l.28-6.41s-2.3,1.5-3.09,2.14c-.79.63-3.21.87-4.55.75-1.35-.12-3.52-1.35-4-1.86-.48-.51-1.39-4.47-1.23-5.23s.87-2.77,1.03-3.17c.16-.4-.08-4.75,0-5.66.08-.91,1.31-4.87,1.9-5.38,0,0,.55-5.19,1.23-7.01s1.54-5.03,2.1-5.9,3.92-2.18,5.98-2.97c2.06-.79,5.23-2.26,5.54-2.34.32-.08,3.6-3.44,3.96-3.48,0,0,.28-1.39.12-2.26Z"/>
  </g>
</svg>