<?xml version="1.0" encoding="UTF-8"?>
<svg id="Layer_2" data-name="Layer 2" xmlns="http://www.w3.org/2000/svg" viewBox="0 0 52.79 180.75">
  <g id="People">
    <path d="M28.58.08s-.66.48-.98.92c-.33.45-.54.3-.48.21.06-.09-.03-.42-.03-.42,0,0-.3.72-1.31,1.16-1.01.45-.36.45-.92.81s-.57-.63-.27-.75c0,0-.42.27-.54.92,0,0-.18.48-.66.89-.48.42-.33.42-.54.72-.21.3-.36.24-.6.48-.24.24-.63.48-.72.72s-.18.15-.27.63c-.09.48-.54.66-.69,1.28s-.27.45-.3,1.16.03,1.16-.03,1.85-.36.75-.24,1.28c.12.54,0,.45.09,1.07.09.63.45,1.22.45,1.22,0,0-.51-.06-.92.21-.42.27-.63,1.1-.51,1.85.12.75.36,2.24,1.01,3.1s.69,1.07.89,1.16c.21.09.6.12.6.12,0,0,.45,2.3,1.04,3.13l.24,2.54h-11.87s-1.37.09-1.37,1.88v6.68s-2.06,1.49-3.22,3.73c-1.16,2.24-2.12,3.7-2.48,5.4-.36,1.7-1.52,4.98-1.79,5.99s-1.1,3.49-1.07,4.06c.03.57.36.86.45.98s-.21.48-.3.81c-.09.33-.27,1.49-.27,1.49l.21.27S.1,60.89.01,63.03s.3,3.07.54,4.06c.24.98.33,1.52,1.37,2.33,1.04.81,1.31.95,1.73.89s2.77-.57,3.46-.57,1.13-.18,1.4-.21c.27-.03-.06.24-.21.48-.15.24-.57,1.04-.57,2.21s.09,1.52.03,1.76-1.25,2.21-1.55,2.98c-.3.78-.45,1.91-.09,3.13s.81,1.76.84,2.03-.39.78-.57.98c-.18.21-.45.45-.39.98.06.54.12,1.16.12,1.16,0,0-.03.54-.42.95-.39.42-.66,1.22-.84,1.97s-.42,1.07-.33,1.34c.09.27.21.33.24.48s-.21.87-.42,1.34c-.21.48-.03,1.49-.09,2.71s0,4.32-.03,5.13c-.03.81-.18,3.88-.15,4.29.03.42.27,1.82.36,2.06.09.24.54.95.69,1.43.15.48.57,4,.45,6.2-.12,2.21.03,4.35.18,6.23s.15,3.67.15,4.83-.3,1.91-.15,2.36c.15.45.54,1.31.39,2.33-.15,1.01-.33,2.27-.42,2.95-.09.69.06,1.19.09,1.46s-.81.45-.95.75c-.15.3-.33,1.22-.45,2.48-.12,1.25-.48,5.22-.51,6.02-.03.81-.27,3.43-.45,4.41-.18.98-.48,2.15-.63,2.77-.15.63-.57,3.04-.81,4.09-.24,1.04-.69,5.37-.6,6.59s.24,2.03,1.19,2.92c.95.89,1.19.81,1.13,1.01-.06.21-.18.03-.27.36-.09.33-.39.57.12,1.25s.06.12.06.12c0,0-.6.3-.66.57s-.03,1.19.12,1.76c.15.57.12.89.12,1.34v.78s.03,1.28,0,1.7c-.03.42-.69,1.97-1.1,2.39-.42.42-1.43,1.37-1.7,1.91-.27.54-.42.98-.3,1.37.12.39.33,1.73.72,1.79s4.77.89,9.81.3c0,0,.66-.78.54-1.67-.12-.89.15-.86.36-1.28.21-.42.33-.36.66-1.13.33-.78.36-.81.48-1.49.12-.69-.06-.89.18-1.25.24-.36.36-.33.48-.45.12-.12,1.52-2.51,1.76-3.7s.03-2.39.18-2.42c.15-.03,1.31-.27,1.4-.48.09-.21.06-3.52-.18-4.29-.24-.78-1.4-1.16-1.73-2.45s-.36-1.28.15-1.88c.51-.6,1.07-1.25,1.34-1.94.27-.69.45-6.38.66-8.02.21-1.64.3-6.71.63-7.25s.42-1.13.66-1.97c.24-.84.48-2.86.57-3.7.09-.83-.15-1.01.09-2,.24-.98.78-3.31.92-4.06.15-.75.06-.84.3-1.31.24-.48.36-.89.57-1.49s.18-.98.3-2c.12-1.01-.21-1.64.12-2.15.33-.51.72-1.49.69-2.33s-.3-.86-.03-1.97c.27-1.1.45-1.61.51-1.97.06-.36.09-1.58.15-1.85s.18-2.03.3-2.21c.12-.18.36.66.39.98.03.33-.12,5.73.21,6.62.33.89.27.27.3,1.49s-.18,2-.18,2.45-.12.95,0,1.58c.12.63.21,2.09.18,2.33-.03.24-.18.83-.18.83,0,0-.24-.12-.09.6.15.72.63,1.82.84,2.42.21.6.27,1.61.24,2.42-.03.81-.33,1.19.15,1.85s.78,1.37.84,1.91c.06.54-.24.69-.18,1.7s.3,2.92.24,3.61-.24.15-.39,1.07c-.15.92.09,1.19.12,2.09.03.89.15.78-.06,1.7s-.39,1.1-.36,1.64c.03.54.21.42.12,1.61s-.21,1.97-.18,2.62c.03.66.03.95.06,1.4s0,.33-.24,1.22c0,0-.52.49-.29,2.15.23,1.66-.11,3.31-.46,4.28-.34.97-1.2,1.77-1.2,4.22s1.08,4.62,1.26,5.42c.17.8.46,1.08.46,1.08,0,0,.51,1.65.74,2.74.23,1.08.17,2.91.68,3.54.51.63.63.29,1.2.46.57.17.86.63,1.37.8.51.17,5.82.74,8.39.57,2.57-.17,2.28-1.37,2.28-1.77s-1.71-2.63-2.05-3.02c-.34-.4-.74-1.43-1.03-1.83-.29-.4-.29-.57-.68-1.14s-.8-.63-.68-1.2.17-3.71,0-4.17c-.17-.46-.63-.4-.51-.8.11-.4.11-.51.4-.8s.46-1.08.68-1.43c.23-.34.74-.51.8-1.03.06-.51-.46-1.03-.23-1.54.23-.51.68-.74,1.14-1.31.46-.57,1.54-1.03,1.14-3.14-.4-2.11-.46-8.85-.46-10.22s.63-6.62.74-7.76c.11-1.14.17-3.94.06-4.45-.11-.51-.8-.97-.91-1.66-.11-.68-.4-.51.06-1.71.46-1.2.46-1.31.46-2.74s-.4-1.37-.11-2.28c.29-.91.74-3.54,1.03-5.25.29-1.71.57-2,.86-4.05s1.26-5.48,1.43-6.68c.17-1.2.68-2.4.8-3.82s.17-7.31.11-8.56c-.06-1.26-.34-1.83-.11-2.51s.57-.86.63-1.26c.06-.4.4-2.23.17-2.8s-.57-1.43-.57-1.94.74-1.66.63-2.11-.46-.34-.34-1.08c.11-.74.91-1.6,1.26-2.57s.57-1.37.29-2.51c-.29-1.14-1.14-2.17-.97-2.68.17-.51.69-1.54.8-2.68.11-1.14.46-3.08.51-3.88.06-.8-.11-1.83.17-2.05.29-.23,1.6-1.77,1.94-2.63.34-.86,2.51-6.96,2.74-7.13.23-.17,1.66-.86,2-1.83.34-.97-.11-1.83.46-3.14.57-1.31,1.31-6.11,1.2-8.05s-1.43-7.53-1.94-9.08v-10.73s-.23-1.14-1.54-1.2c-1.31-.06-14.84.06-14.84.06,0,0,.23-2.23.34-2.63.11-.4.74-2.91.91-3.14.17-.23.51.29.97.11.46-.17,1.43-1.77,1.66-2.8.23-1.03.23-1.66.23-2s-.17-1.26-.69-1.2c-.51.06-.51-.06-.46-.4.06-.34.23-3.65.46-4,.23-.34.34-.51.17-1.14-.17-.63-.51-1.2-.4-1.54.11-.34,0-.91-.06-1.2-.06-.29-.51-.97-.91-1.37-.4-.4-1.71-1.14-1.66-1.43.06-.29-.23-.8-.74-1.08-.51-.29-.69-.68-1.08-.86-.4-.17-.51-.68-1.08-.8l-.57-.11s.91.74.4.74-.91-.17-.97-.4c-.06-.23.06-.74-.06-.97s-.4.57-.57.86c-.17.29-.17.4-.46.4s-.63-.29-.51-.51.23-1.26.11-1.08-.51,1.54-.51,1.54c0,0-.57-.57-.34-.86s-.05-.63-.05-.63Z"/>
  </g>
</svg>