<?xml version="1.0" encoding="UTF-8"?>
<svg id="Layer_2" data-name="Layer 2" xmlns="http://www.w3.org/2000/svg" viewBox="0 0 49.08 167.17">
  <g id="People">
    <path d="M26.1,1.92s-1.43-.6-3.22.3c0,0-1.07-.12-1.67.3-.6.42-1.49.48-1.97.72-.48.24-1.73,1.49-1.91,1.91-.18.42-.3.48-.83,1.01s-.84.48-1.31.89c-.48.42-1.01.84-.89,1.07,0,0,1.07-1.07,1.55-1.01.48.06-.78.95-.84,1.25-.06.3-.95.3-.95.84s-.66.24-1.01.72c-.36.48-.95.66-1.13,1.37-.18.72-.3.83-.42,1.19-.12.36-.24.12-.24.12,0,0,.2.41.85-.23.66-.64,1.28-1.45,1.66-1.55s-.41,1.11-1.27,1.65c-.86.54-1.95,1.03-2.25,2.12-.31,1.09.05,1.52-.11,1.97s-1.23,1.36-1.98,1.49c-.75.14-.86.17-.86.17,0,0,.69.2,1.7-.35s1.04-.48,1.17-.33-1.12,1.6-1.38,2.18-.45.98-.45,1.31c0,0,.54-1.24,1.05-1.66,0,0,.55-.28-.05.9-.6,1.19-.61,1.26-.61,1.26,0,0-1.41.31-2.12-.26,0,0,.31.72,1.56.55,0,0,.59.16.61.34.02.18-1.05.14-1.33.08-.28-.06-.5-.1-.63.11-.14.21-.11.72.07.75,0,0-.15-.81.34-.69.49.12.38.2.48.32.09.11.11.14-.01.44-.12.31-.29.55-.29.85s.22.28.22.28c0,0-.16-.8.38-1.01.54-.2-.23.8-.19,1.22.03.42.18.4-.2.6-.38.2-.81.38-1.03.8-.22.42-.41.96-.2,1.35s.4.48.4.48c0,0-.49-1.03.05-1.63.53-.6.88-.79,1.2-.79s.61.02.78-.07c0,0-.9,1.94-.98,3.12s-.16,3.85-.08,4.51c0,0,.34,2.77.43,6.44.09,3.67-.09,7.69-.22,9.66-.13,1.97-.89,9.31-.63,11.18.27,1.88.76,3.53.63,4.29s-1.7,7.43-2.19,9.17c-.49,1.74-1.12,8.19-1.83,11.59-.72,3.4-.98,6.8-.63,9.44s.72,3.53.72,4.25.18,2.06.18,2.06c0,0,3.4,0,5.06.22,0,0,.45,1.97.45,2.95s-.04,1.12-.04,1.3-.63,1.79.13,3.4l.76,1.61s-1.34,1.74-1.39,2.82c-.04,1.07.54,1.57.54,1.57,0,0-1.43,1.97-2.1,3.09-.67,1.12-.04.94-.04,1.48s-.4,1.25-.49,1.79-.36.94-.54,1.43c-.18.49-.81,2.19-1.07,3.09s-1.66,4.34-1.97,5.86c-.31,1.52-2.15,7.02-2.19,8.54-.04,1.52-1.21,6.8-1.25,8.14-.04,1.34.58,4.21.81,5.46s.31,3.67.13,4.65.36,1.61.45,1.88c.09.27,0,1.07.13,1.52.13.45.13.76.27.94s.22.36.22.36v2.51s3.58,1.66,7.38,1.61c3.8-.04,6.22.18,6.93-.58.72-.76.58-2.46.58-2.46,0,0,1.25,1.48,3.49,2.06l.22.09.09.27s6.31.27,8.14,0c1.83-.27,1.57-.94,1.7-1.34s.4-.72.27-.94c-.13-.22-.76-1.34-2.28-1.48s-2.06.18-2.55-.22-1.25-.76-1.21-1.12c.04-.36-.04-1.03-.09-1.43s-.04-.4.04-.81c.09-.4.13-3.8-.13-4.52s-.67-1.03-1.21-1.66-2.19-2.68-1.83-4.34c.36-1.66,1.25-6.84,1.39-7.16.13-.31-.13-.22.13-.54.27-.31.49-2.06.58-2.24.09-.18,1.03-4.21,1.21-4.79.18-.58-.09-2.06.36-2.42.45-.36.94-.45.98-.85s.89-3.22.76-3.94-.76-.76-.4-1.25.54-.27.72-1.12c.18-.85.36-3.44.58-3.85s.36-.31.72-.98c.36-.67,1.79-2.77,1.83-3.67.04-.89-.22-1.52.31-2.64.54-1.12,2.06-6.84,2.37-7.52.31-.67.36-1.07.36-1.07,0,0,1.12.72,1.43.98.31.27.72.36,1.16.45.45.09.81.27.89.4.09.13-.13.54.27.76.4.22.81.04,1.43.36.63.31,2.19.85,2.82,1.07s1.07.36,1.34.36.51-.28.58-.4c.22-.36.04-1.03.04-1.16s.18-.72.13-1.25c-.04-.54.13-1.03.31-1.57.18-.54.49-4.97.63-8.54s.04-9.39-.27-13.29c-.31-3.89-1.7-14.63-1.57-15.66,0,0,1.39-2.15,1.92-2.82.54-.67,1.03-2.42,1.48-3.09.45-.67.45-.94.85-1.39.4-.45.49-.85.98-1.61s1.03-1.88,1.16-2.73c.13-.85-3.13-8.45-3.71-9.04-.58-.58-1.43-3.94-1.74-4.43-.31-.49-.72-1.52-.85-2.06s-2.77-5.23-2.77-5.59.13-1.3-.4-1.61c-.54-.31-.94-.67-1.39-.85-.45-.18-1.48-.76-1.79-.76s-.98-.72-1.25-.81c-.27-.09-.81-.76-.81-.76,0,0,.27-.04.54.09.27.13.49.49,1.03.36.54-.13.54-.31.94-.22s1.07.13,1.21.04c.13-.09-1.07-.22-.94-.76,0,0,.56-.63.46-1.23-.1-.6-.66-1.07-.59-1.25.07-.17.97.25,1.14.28.17.03,1.64.79,1.72,1.25.08.46.54,1.77-1.34,2.37,0,0,1.4.02,1.78-1.54s-1.09-2.8-2.04-3.11c0,0,.65-.79.84-.82.19-.03,1.03.44,1.51.5,0,0-1.51-1.02-1.55-1.73-.04-.71.42-1.18.77-1.17.35.01,1,.22,1.3.31.29.09.51.22.84.3s.51.13.44.44c-.07.3.02.19-.32.58-.34.38-.39.31-.73.65-.34.33-.65.38-.45.96,0,0,.2-.38.95-.61.75-.22,1.1-.96,1.18-1.2.08-.24.12-.56.07-.73-.05-.17.78.31,1.32.19,0,0-1.72-.68-1.35-.76.05-.01.53.34,1.15.21,0,0-1.28-.69-1.07-1.11.2-.43-.05-.52-.26-.78-.21-.26-.1-.55,0-.7.1-.15.08-.25.24-.47.16-.21.05-.32.24-.36.19-.04,1.59.33,1.66.33s-1.73-.62-1.81-1.04c-.08-.43.34-1.21.24-1.43-.1-.21-.24-.49-.21-.65s.75.11.9.17c.15.06,1.06.27,1.26.19,0,0-1.65-.91-1.59-1.31.06-.39.29-1.34.23-1.87-.06-.54-.62-1.37-.98-1.76-.36-.39-1.48-1.02-1.63-1.26-.15-.23-.39-.82-.47-.83-.07-.01,1.62.68,2.14,1.3.52.62.82.96.82.96,0,0-.85-1.67-2.77-2.59,0,0,.05-.86-.31-1.27-.36-.4-.17-1.26-.19-1.35-.02-.09-.26-.11-.48-.57-.21-.46-.69-1.18-1.14-1.37-.46-.18-.64-.31-.92-.6-.28-.28-.51-.39-.63-.62-.12-.22-.15-.57-.34-.68-.19-.11.36.02.38.14.02.12.49-.02.63.26.14.28.35.47.35.47,0,0-.05-.55-.78-.85-.73-.3-.6-.3-.84-.51-.24-.2-.11-.22-.5-.6-.38-.37-.29-.5-.64-.72s-.35-.41-.69-.32c-.33.09-.72-.18-.94-.35-.22-.17-.14-.44-.59-.55s-.5-.25-1.07-.25-.8-.28-1.27-.03-1.53.56-1.91.74c-.38.18-.43.26-1.08.28-.66.02-.66-.09-1.11.02s-.58-.07-.71.26c-.13.33-.3.51-.3.51Z"/>
  </g>
</svg>