<?xml version="1.0" encoding="UTF-8"?>
<svg id="Layer_2" data-name="Layer 2" xmlns="http://www.w3.org/2000/svg" viewBox="0 0 106.81 355.85">
  <g id="People">
    <path d="M100.72,65.89c-5.97-4.56-9.13-4.85-9.88-5.23-.75-.38-1.68.57-1.68.57,0,0-.04-.02-.11-.04-.05.04-.11.07-.16.11l-2.11-.72c-1.84-.69-4.03-1.53-6.21-2.51-.04.03-.09.06-.13.09,1.43-1.02,2.41-3.1,2.65-5.09.06-.01.11-.05.13-.12,1.09-3.39.41-7.12-1.81-9.89-.99-1.24-2.25-2.22-3.36-3.35-.94-2.28-1.89-5.28-2.75-9.62-2.49-11.53-2.73-10.01-7.58-19.39-1.09-2.11-2.14-3.85-3.17-5.27-.54-1.74-1.65-3.27-3.2-4.29-2.39-1.58-5.63-1.47-8.03.02-.14-.03-.28-.06-.42-.08-2.8-1.87-6.38-.56-8.97,1.21-.11.07-.21.15-.31.22-2.9,1.51-5.72,4.13-8.28,8.13-2.73,5.77-3.73,11.67-4.35,18.98-.37,4.39-.73,9.44-1.2,14.2-.08-.03-.2.02-.2.14-.14,4.03-2.18,7.66-2.61,11.64-.2,1.83.08,3.76.95,5.35.12,1.19.39,2.32.87,3.39h0c.04.08.08.16.12.24-.17.04-.33.08-.41.12,0,0-.73.02-.73.02-.95.45-2.53,1.05-4.34,1.75h0c-.91,1.24-2.73,3.23-3.47,5.21-.66,1.78-2.05,7.46-3.3,12.87-1.72,5.6-2.85,9.03-2.84,18.93,0,9.9,0,13.2-.27,17.5-.13,2.06-1.62,5.41-3.32,10.64.42-.96.77-1.49.97-1.48-.2.03-.56.55-.97,1.48-.33.76-.7,1.77-1.06,3-.52,1.81-1.11,4.34-1.68,7.14-.3,1.39-.58,2.86-.85,4.42-.99,5.51-1.77,11.19-1.83,14.24,0,.05-.05.15,0,.15.11.01-.24,2.61-.35,2.59-.43,3.6-.32,3.87-.35,4.3-.04.63-.74,2.11-.9,2.61-.16.5.56,1.05.56,1.05-.13-.16-1.44.96-1.31,1.12.6.73.87,1.01.84,1.48-.03.45-.2,1.83-.43,2.85.07.05.16.09.24.12-1.03,2.32-1.95,5.26-2.37,6.24-.44,1.02-1.41.53-.1,5.14.68,5.04,1.07,6.97,1.02,7.87-.06.9.64.9,2.87,3.42,2.23,2.52,3.59,4.56,4.84,3.31.4-1.26-.63-2.66-1.55-3.62,2.32,1.05,3.27,1.3,3.58,1.36.53,2,2.09,6.82,5.65,18.31,1.62,5.25,2.72,8.92,3.59,11.88h0c.69,2.33,1.25,4.21,1.82,6.06.78,2.49.82,3.4.9,4.98,4.67,21.08,1.78,24.39,2.8,30.96.63,4.01,2.16,14.87,3.77,20.71,1.79,6.53,4.74,17.79,6.24,22.9,1.52,5.97,3.07,10.44,3.99,13.65.05.29.12.69.22,1.21.21,1.16.58,1.33.83,1.38.2.04.32,0,.19.34-.28.76.19,1.72,0,3.24-.19,1.52-1.62,4.29-3.59,6.67-1.96,2.38-1.83,3.33-2.39,4.86-.56,1.52-1.22,3.72-.28,5.81.93,2.1,5.23,1.81,8.79,2.19,0,0,4.58.51,7.85.1,2.49-.31,4.21-.76,4.21-3.34,0-1.53-.47-3.53-.47-3.53,0,0,.19-.67.28-3.05.09-2.38.65-6.19.47-10.2,0,0-.21-1.88-.45-2.98,0,0-.11-.45.31-1.18.36-6.78-1.97-11.82-3.46-22.14-.06-.84-.17-1.79-.33-2.87-.06-.42-.12-.79-.17-1.12h0c-.67-4.53-.06-1.79-.58-5.16-.07-.47-.15-1.04-.21-1.67-.02-.27-.03-.53,0-.75.04-.33-.11-1-.23-1.68-.04-.48-.08-.97-.12-1.46-.09-2.73-.25-4.96-.44-6.83-.01-.19-.02-.29-.02-.29.56,1.62,2.53,9.51,5,15.6,0,0,.6,1.96,1.2,4.06s.95,4.61,1.28,6.35c.22,1.14,0,1.62.65,3.43.65,1.81.28,2.95.93,6.29.65,3.34.19,4.24.75,5.48.06.13.11.23.17.32.45.77.67.25.67.25,0,0,.79.95.05,2.86-.75,1.91-.56,2.86-.56,4.48s-.05,3.57.89,4.53c.93.95,1.92,2.14,2.1,3.29.19,1.14-.33,3-.42,5.19-.09,2.19.84,5.55,4.06,5.67,5.12.19,7.8.55,12.4.33,4.15-.2,4.35-3.05,4.44-5.15.09-2.1-.23-2.67-.42-2.9-.64-.78-.38-1.11-1.22-2.92-.84-1.81-4.21-8.29-5.61-11.63-1.4-3.34-1.4-3.05-1.4-4.29,0-.52-.02-.7-.06-.78-.04-.09-.11-.06-.21-.19.54-.36.61-.64,1.1-1.64-.45-1.36-.57-4.31-2.02-19.83h0c.05-1.74.09-3.74.08-6.05-.05-8.93-.63-17.29-1.25-23.29-.45-4.85-3.34-15.57-3.64-19.95-.04-.65-.07-1.19-.06-1.7-.31-.57-.16-.37.01-.47.06-1.14.3-2.22.84-4.16.13-.62.29-1.34.46-2.27.39-2.14,1.53-5.94,3.66-12.23,0,0,0,0,0,0h0c.9-2.66,1.98-5.76,3.25-9.39,0,0,5.18-17.27,5.7-19.65,1.23-5.57,1.96-9.66,2.57-14.37.03-.25.21-.5.24-.76.03-.26.09-.53.15-.8-.06.27-.12.54-.15.8-.03.26-.14.5-.17.76,0,1.71-.07,3.57-.15,4.45-.4,2.28.14,2,.42,2.79.28.79.15,1.27.15,2.03s.12.76.96,1.55c2.21-.22,2.05-3.1,2.2-6.05.37-.83.03-3.8.03-3.8,0,0,.47.38.96,1.39-.12.73-.19,2,.62,3.64-.47.86-.5,1.68-.22,4.85-.43.44-.4.73-1.37,3.26-.47.67-1.37,2.41-.68,3.2.99.7,2.52-1.11,4.44-3.36,2.55-1.46,3.48-1.65,4.72-2.98,3.08-1.93,2.27-1.55,2.42-3.74,0,0,1.12-.29,2.06-2.19-.36-3.33-.1-6.08-.01-6.46.09-.36-.32-2.76-1.32-5.97-.06-.2-.13-.53-.2-.89.17-.05.34-.11.51-.19-.19-.57-.38-1.89.18-3.7.75-.86,1.49-2.09.93-2.56-.56-.47-.84-.47-.37-1.61.47-1.14-.37-1.33-.56-1.99-.19-.67.56-2.19.65-2.85.09-.67-.37-3.23-.28-5.42.75-.76.75-2.19.65-3.8-.09-1.62.19-7.22.09-9.79-.09-2.57.47-9.69.56-11.4.09-1.71.37-3.8,0-4.37-.37-.57-.19-1.9.09-2.95.28-1.05-.56-1.52-.09-3.52.47-2,0-3.14-.28-4.28-.28-1.14.28-3.14.28-4.09s-.16-3.17,2.08-23.73c2.73-23.35,1.18-27.78-4.78-32.34ZM28.64,52.65c-.43,2.4-.84,4.89-.77,7.24-.69-1.84-.64-4-.27-5.95.45-2.35,1.32-4.58,1.85-6.89-.24,1.99-.5,3.88-.81,5.6ZM33.58,63.34h0c-.37.17-.77.3-1.19.41-.35-1.44-.38-2.72-.27-4.14.4,1.21.97,2.35,1.68,3.4-.1.14-.16.25-.22.33ZM34.62,63.33c-.05.01-.1.03-.16.04-.03-.04-.06-.09-.09-.13-.09-.18-.18-.41-.27-.71h0c-.04.06-.07.11-.11.17-.8-1.18-1.43-2.47-1.81-3.85.07-.68.16-1.41.25-2.2.57,2.77,1.3,4.96,2.19,6.69h0ZM46.01,1.52c1.93-.94,4.09-1.39,6-.57-1.98-.23-4-.07-6,.57ZM54.24.95c2.14-.94,4.61-.86,6.69.3,1.29.72,2.28,1.88,2.9,3.23-3.1-3.83-6.11-4.73-9.58-3.53ZM79.47,41.59c1.45,1.36,2.64,2.81,3.33,4.73.64,1.78.71,3.76.29,5.6-.57-5.14-2.53-6.56-4.64-11.29.34.33.68.65,1.02.96ZM78.58,57.14c-.28-.14-.56-.28-.84-.42-.01.02-.03.03-.04.05.16-.21.32-.46.46-.78.12-4.18.87-5.64-.81-9.57,2.63,5.02,2.5,8.71,1.22,10.71Z"/>
  </g>
</svg>