<?xml version="1.0" encoding="UTF-8"?>
<svg id="Layer_2" data-name="Layer 2" xmlns="http://www.w3.org/2000/svg" viewBox="0 0 100.61 358.82">
  <g id="People">
    <path d="M83.47,228.49c5.74-.44,11.46-1.16,17.14-2.27-.06-21.74-7.71-50.03-14.43-70.72,1.94-3.2,6.5-10.66,9.17-17.2.87-1.92,1.91-4.17,3.05-6.61,1-4-2.27-26.93-2.4-32.44.58-.42,1.08-.87,1.45-1.36-4.04-19.68-1.43-24.81-12.93-30.94-2.23-.97-4.6-2.14-7.12-3.39.5-2.6,2.64-16.01-2.34-35.84-.34-1.36-.69-2.65-1.06-3.88-.46-3.07-1.09-6.11-2.03-9.09-1.28-4.08-3.67-8.55-7.92-9.59-.08-.08-.17-.14-.26-.22C62,2,58.36.37,54.34.05c-3.94-.31-7.72.79-11.18,2.33-2.24.59-3.02,1.12-3.02,1.12-7.42,3.6-12.11,10.8-11.79,30.34.55,12.77.13,22.08.34,22.88.01.06.19.17.48.34-4.05,1.02-8.03,2.2-10.95,3.19-6.45,6.12-5.41.82-12.91,28.11-.11.29.34.91,1.15,1.71-1.12,6.11-3.17,16.72-5.02,23.44-1.44,5.57,2.27,11.14,4.45,15.51,3.04,7.27,5.46,14.1,8.63,20.28-6.15,13.51-12.7,29.41-14.53,69.51,5.63,2.64,8.66,4.01,10.26,4.72h0s1.79,1.52,1.79,1.52c-.07,1.04-.14,1.84-.21,2.32,2.89.49,6.24.92,9.75,1.32,2.8,8.6,4.69,18.02,3.99,22.91-1.12,6.72-4.19,10.11-3.38,19.81.48,5.71,3.73,17.64,6.66,29.01.19.82.39,1.65.59,2.48,0,0,.42,1.68,1.03,3.91,1.83,7.36,3.24,13.86,3.29,17.44-.05.52-.11,1.03-.16,1.55,0,0-.84,3.11-.13,4.45.71,1.33.9,2.71.5,4.59-.41,1.88-2.66,4.08-2.78,8.71-.13,4.63.19,6.27-.23,7.97-.41,1.69.46,4.03,1.89,5.13,0,0,1.04,1.59,9.96.93,3.67-.27,5.86-.78,7.17-1.28.08.12.14.24.23.35,1.32,1.49,1.87,2.18,3.84,2.18h17.24s.33-1.58.22-2.78c-.11-1.19-2.2-5.26-2.97-7.35-.77-2.09-3.95-8.95-4.83-10.64-.88-1.69,1.21-5.77.99-8.35-.22-2.58-1.65-7.66-.66-11.33.68-2.53,3.54-13.34,5.8-24.86,6.11-24.72,5.51-27.34,2.88-43.22-.5-4.16.08-10.53,1.03-16.9,2.48-.1,4.49-.3,5.66-.61-.08-.89-.16-1.86-.25-2.91,0,0,1.64-1.18,4.28-1.35h0ZM76.2,127.68s3.4-17.17,3.08-23.9c0,0,.1,0,.28-.02.54,6.8,2.15,20.22,3.13,27.45-.96,1.74-1.95,3.66-2.95,5.7-2.13-5.77-3.54-9.23-3.54-9.23ZM69.31,10.5c-1.11-1.57-2.49-2.97-4.06-4.15-.09-.1-.18-.19-.27-.29,1.88.92,3.27,2.54,4.34,4.44ZM51.79.73c3.1-.26,6.37.41,8.73,1.99-2.78-1.42-5.71-1.83-8.71-1.62-1.86.13-3.43.31-4.77.51,1.53-.42,3.1-.74,4.74-.88ZM21.02,123.49c-.02-.05-.05-.11-.08-.17,0-.01,0-.02-.02-.03-.12-.26-.26-.55-.41-.88-.04-.14-.09-.29-.14-.43-.08-.18-.27-.37-.33-.55h0c-.36-.74-.79-1.59-1.26-2.49-1.04-1.97.8-7.18,2.63-12.24.63,5.24,1.72,11.41,3.12,13.67-.41,2.28-.88,4.4-1.38,6.4-.71-1.27-1.42-2.38-2.13-3.28ZM51.55,325.82c-1.43,2.58-1.32,4.57-1.32,7.56,0,.18-2.27,3.71-2.15,6.99-.09-.86-.14-1.61-.12-2.13.08-1.95.03-2.78-.38-4.32-.41-1.54-.77-3.92-.45-5.42.32-1.5-.87-3.82-1.22-4.44-.35-.62-2.61-6.65-1.99-10.03.62-3.37,1.78-24.54,2.13-33.72.36-9.18-.9-17.5-.51-19.56.39-2.06,2.64-7.68,2.87-12.32.02-.43.02-1,0-1.67.89,3.05,1.66,5.87,2.03,7.98.44,2.48,0,7.06-.11,13.12-.11,6.06-.11,9.05-.22,13.72-.11,4.67,2.52,32.71,2.53,39.57,0,.3.33,2.09-1.1,4.67ZM79.1,228.77c.05,0,.1,0,.15,0l-.06,1.09c-.03-.35-.06-.71-.09-1.08Z"/>
  </g>
</svg>