<?xml version="1.0" encoding="UTF-8"?>
<svg id="Layer_2" data-name="Layer 2" xmlns="http://www.w3.org/2000/svg" viewBox="0 0 50.55 171.76">
  <g id="People">
    <path d="M49.24,42.18s-1.41-2.8-2.68-4.54c-1.28-1.74-2.08-3.02-2.51-3.82-.22-.42-.85-1.23-1.5-1.97.13-.1.24-.22.34-.35,0,0-.32-.04-.77-.13-.44-.47-.84-.86-1.08-1.01,0,0-.27.2-.35.61-.77-.29-1.48-.72-1.62-1.35-.31-1.48-.31-2.44.87-3.62,1.19-1.19,2.48-4.18,2.35-6.4s.13-3.56.18-4.65c.04-1.1-.38-2.97-.38-4.29s-.11-2.35-.13-3.11c-.02-.76-.25-1.16-.49-1.66-.25-.49-.78-.81-1.01-1.3-.22-.49-2.71-2.62-4.67-2.91-1.97-.29-1.59-.07-2.08-.54C33.2.66,31.36-.03,28.67,0c-4.47.06-6.16,2.16-8.28,6.3-2.12,4.14-4.14,6.16-5.31,9.59,0,0-.23.8-.8,1.03-.56.23-1.13.8-1.36,1.13,0,0,1.13-.8,1.79-.61,0,0,.05.38-1.03,1.03,0,0-2.45,2.21-1.41,4.09,0,0-3.71.42-5.08,1.97-1.36,1.55-1.41,3.71-2.68,5.92-1.27,2.21-.24,4.75-.89,7.1-.66,2.35-.42,5.13-.94,6.82-.52,1.69-.66,1.69,0,2.82,0,0-1.88,2.45-1.18,3.57s2.12,1.41,2.54,2.87,1.83,3.39,2.54,3.62c.71.24,1.03.05,1.03.05,0,0,.47,12.04.94,15.52.47,3.48.71,3.9.61,4.89-.09.99-.56,1.65-.09,3.86.47,2.21.99,4.09.56,5.69-.42,1.6-.28,6.39-.23,8.98.05,2.59-.49,3.08-.23,3.86.09.28.66.75,1.22,1.41,0,0,1.08,5.5.52,13.12-.56,7.62-1.83,10.34-2.73,12.84-.89,2.49-2.3,7.01-2.68,18.34-.38,11.33-.47,12.84-.75,13.73-.28.89.07,2.35-.38,3.24-.09.19-.56.89-1.08,2.26l-.52,1.36s-1.41.28-1.5,1.36c0,0-.19.56-.42.71s-.66.85-.52,1.22c.14.38.19.52.19.52l-.42.09s-.23,1.03.09,1.08,9.78.66,11.14.19l.05-1.18-1.32-.38s.71-1.22.85-2.26-.38-1.46-.52-2.02c-.14-.56.09-3.01.33-3.62.23-.61.28-2.07.28-3.06s.61-4.33,1.6-6.02c.99-1.69,4.23-8.37,4.84-12.46.61-4.09.89-11.57,1.98-13.45,1.08-1.88,2.26-4.66,2.54-5.03,0,0,.33,3.67,0,5.55-.33,1.88-2.45,7.95-2.96,11.24-.52,3.29-.19,7.52-.09,12.79.09,5.27.19,7.1-.47,9.87s-1.74,5.83-.71,8.46h-1.79s-.61,1.13-.19,1.22c.42.09,13.92.47,19.51.47s5.31-.24,5.31-.24l.09-.75-1.41-.14s.24-.38.14-.71c-.09-.33,0-.89-.89-.94-.89-.05-2.3-.56-2.3-.71s-.05-.33-.05-.33c0,0-1.13-.94-3.71-1.22,0,0-4.61-2.4-6.4-4.09,0,0-.38-4.09.47-6.86s2.68-12.46,3.9-16.55c1.22-4.09,1.65-10.86,2.12-12.46.47-1.6.52-2.68.56-3.48.05-.8,1.41-4.14,2.4-5.74.99-1.6,4-11.24,4.75-13.31,0,0,3.71-.23,4.37-.71,0,0-.05-2.59.19-3.24s1.32-6.72,1.22-9.4c-.09-2.68-.85-8.89-1.36-10.02s-.94-1.13-.89-1.41c.05-.28-.71-4.8-1.13-5.55,0,0,.71-1.22.47-2.07s-2.02-2.3-1.6-3.01c.42-.71.66-.24.89-.33.23-.09,1.74-.42,4.37-7.85,1.79-5.69,1.78-14.78,2.53-17.04,0,0,1.01.18,1.15-.09,0,0,.62-.44-1.21-1.31ZM40.07,34.53s.07-1.45-.04-2.17c0,0,.45.06,1.01,0,.25.51.54.96.74,1.32.29.54.78,1.12.78,1.3s-.38.89,0,1.43c0,0-.36.07-.51-.11-.16-.18-1.34-1.14-1.97-1.77ZM43.96,50.05c-.07.31-.54,1.52-.65,1.74-.11.22-.47.87-.56,1.05-.09.18-.29-.09-.45-.43-.16-.34-.18-.58-.36-1.21-.18-.63.18-.67.16-1.01-.02-.34-.54-.6-.69-.94-.16-.34.49-.85.49-.85,1.19.85,2.12,1.32,2.06,1.63ZM44.68,47.77c-.02.29-.27.78-.27.78,0,0-.92-.69-1.05-.87-.13-.18-1.05-.83-1.25-1.05-.2-.22-.6-.76-.02-.69,0,0,1.99.6,2.37.98.38.38.25.56.22.85Z"/>
  </g>
</svg>