<?xml version="1.0" encoding="UTF-8"?>
<svg id="Layer_2" data-name="Layer 2" xmlns="http://www.w3.org/2000/svg" viewBox="0 0 190.04 229.11">
  <g id="People">
    <path d="M189.91,229.11H0s.32-18.29.32-18.29c.24-13.91,1.65-27.36,4.25-40.9,2.19-11.42,9.42-19.76,20.6-23.5,12-4.02,23.81-7.76,35.6-12.52,10.09-4.07,10.99-14.55,9.53-23.55-3.47-6.34-6.51-11.41-8.99-18.22l-5.12-2.14c-3.22-5.74-11.6-22.27-4.07-27.24-1.82-11.14-3.27-23.17,1.11-34.29,4.19-10.64,12.28-19.86,22.65-24.77,11.71-5.54,24.47-4.22,36.36-.27,5.35,1.77,9.67,4.87,11.66,10.37,22.74,7.39,16.97,29.32,14.66,48.35l2.88,4.34c-.53,8.16-3.32,16.36-7.87,23.23l-4.26,1.9c-5.63,16.69-12.1,15-8.82,30.49,1.16,5.48,5.06,9.81,10.2,12.07,10.77,4.72,21.73,8.08,32.93,11.6,12.59,3.38,20.66,12.71,22.67,25.64,3.73,18.49,3.97,37.05,3.61,57.67Z"/>
  </g>
</svg>