<?xml version="1.0" encoding="UTF-8"?>
<svg id="Layer_2" data-name="Layer 2" xmlns="http://www.w3.org/2000/svg" viewBox="0 0 174.59 197.47">
  <g id="People">
    <path d="M.54,162.23c-.02,2.69.77,2.47,2.99,5.29,2.22,2.82,1,1.46.98,3.82-.02,2.35-1.25,2.46-1.72,5.7-.47,3.25,2.43,4.84,2.43,4.84-2.12-.91-1.64-5.28.06-7.96,1.7-2.68,1.04-3.91,2.85-7.49.43-.85.79-1.47,1.1-1.98-.88,5.65-2.07,13.26-3.13,20-.8,5.1-1.47,9.21-2.05,13.02h30.58c.94-4.62,2.24-9.92,2.96-13.13.14-.63.34-1.28.57-1.96,2.96,2.6,4.66,5.65,5.6,7.99.44,1.99.82,4.44,1.36,7.1h129.46c-.12-.59-.25-1.16-.36-1.76-1.3-6.73-2.77-19.97-3.28-27.25l-.26-9.29c1.1-.91,1.68-1.54,1.68-1.63,0-.34-1.14-4.71-2.94-11.95-.72-2.9-1.81-6.85-3-10.84-.09-1.55.05-3.48-.14-5.55-.31-3.36.47-2.46-1.3-6.62-1.76-4.16-4.45-4.96-4.45-4.96,0,0,3.25.58,6.59,3.07,3.34,2.49.99,2.92.06,6.84-.62,2.62,1.36,5.37,2.75,6.91-.94-1.71-1.17-4.65-1.4-6.9-.31-3.03.81-4.36,1.95-7.05,1.14-2.68-3.67-3.84-8.25-6.67-4.57-2.83-2.74-9.43-1.59-13.12,1.15-3.69-.41-4.93-2.65-6.07-2.23-1.14-1-1.8-.98-4.15.02-2.35-1.2-4.27-1.17-9.08.03-4.82-2.65-5.85-6.65-9.88s-.63-6.75.3-11c.93-4.25-.87-3.48-3.87-7.2-3-3.72-.42-4.04-1.52-7.63-1.1-3.59-2.56-2.82-4.99-6.98-2.44-4.16-2.97-7.86-3.96-10.78-.99-2.92-1.33-2.81-2.55-4.5-1.22-1.69-1.55-2.36-2.55-4.5-.99-2.14-1.54-4.04-3.55-5.18-2.01-1.13-4.22-4.85-7.01-7.33-2.78-2.48-9.49-4.55-11.74-4-2.25.54-4.26.31-5.71-.82-1.45-1.13-5.25-2.05-8.62-1.29s-4.15,1.2-8.08,1.51c-3.92.31-10.66,2.73-12.25,4.51-1.58,1.78-2.02.88-4.49,1.59-2.47.71-2.71,2.39-4.86,5.63-2.15,3.23-3.83,2.77-8.68,8.01-4.85,5.23-1.71,4.02-6.46,10.15-4.75,6.13-4.29,5.01-5.77,8.25-1.48,3.24-.02,2.91-1.73,7.16-1.71,4.25-.58,3.02-.72,7.05-.14,4.03-3.4,5.02-7.68,8.8-4.28,3.78-4.29,4.12-7.02,10.71-2.74,6.59-.39,7.51-4.46,12.3-4.07,4.79-3.96,5.58-4.45,11.4-.49,5.82-1.84,7.05-7.27,13.4-5.42,6.35-2.3,9.06-2.68,14.44-.37,5.38-2.71,2.33-4.87,7.36-2.16,5.03.87,4.38-1.3,9.4-2.16,5.03,1.42,5.61,2.62,10.55,1.2,4.94-2.74,7.04-2.76,9.73Z"/>
  </g>
</svg>