<?xml version="1.0" encoding="UTF-8"?>
<svg id="Layer_2" data-name="Layer 2" xmlns="http://www.w3.org/2000/svg" viewBox="0 0 40.12 170.86">
  <g id="People">
    <path d="M39.86,90.07c-.12-.69-1.04-4.21-1.28-5.01-.24-.81-.72-3.58-.75-3.94-.03-.36-.15-.33-.12-.66.03-.33-.27-.66-.33-.75s-.03-.27.18-.63-.09-.98-.18-1.31c-.09-.33-.66-1.46-.75-1.91-.09-.45-.3-1.25-.36-1.73-.06-.48-.48-3.1-.54-3.61-.06-.51-.15-1.88-.24-2.57-.09-.69-.48-3.91-.54-4.35-.06-.45-.24-2.45-.33-2.74-.09-.3-.24-2.92-.33-3.43-.09-.51-.42-2.24-.42-2.68s.09-1.16-.09-1.94c-.18-.78-.15-1.46-.21-1.97-.06-.51.03-1.04.12-2.18.09-1.13-.63-3.4-1.04-4.35-.42-.95-.15-1.16-.15-1.16l.69-.69s-.12.18.39,2.3c.51,2.12,4.09,2.27,4.09,2.27-2.06-.33-3.16-1.88-3.16-1.88,1.7,1.58,4.53,1.43,4.53,1.43,0,0-1.73-.03-3.22-.81-1.49-.78-2.03-2.27-1.97-3.07.06-.81-.09-2.15-.09-2.15.01-.4-.14-.9-.31-1.38.12-.04,1.01-.41,1.9-1.61.95-1.28.78-1.4.27-2.42-.51-1.01-2.36-2.45-2.8-3.55-.45-1.1-.42-1.61-.42-1.61.78.3,2.45,2.92,2.45,2.92-.03-.84-.89-2.12-1.49-3.37s-.6-1.43-.27-2.68c.33-1.25.92-2.33,1.37-3.1.45-.78.98-3.31,1.19-4.35.21-1.04.66-2.74.63-3.34-.03-.6,0-1.1.12-1.85.12-.75.12-2.65.21-3.22.09-.57-.27-.84.33-1.7.6-.86.36-1.49.36-1.49-.24-.48-2.03-2.92-2.51-3.4-.48-.48-.89-.33-1.28-.42-.39-.09-.42-.6-1.04-1.19s-1.49-.63-2.18-.69-2.09-1.31-2.09-1.31c-3.7-1.67-6.65-.45-8.98.89-2.33,1.34-4.77,5.37-5.82,6.71-1.04,1.34-1.91,2.51-2.86,3.07-.95.57-1.04,1.49-1.34,2.24s-.95,2.62-1.76,5.28c-.81,2.65-1.15,4.89-2.12,5.13-.6.15-1.07,1.31-1.73,1.61-.66.3-.89.69-1.19,1.46-.3.78-.54,1.49-.78,1.91-.24.42-1.34,2.77-1.52,3.34-.18.57,0,.95-.03,1.7-.03.75-.18,2.59.06,3.34.24.75.48.86.45,1.22-.03.36.21,1.64.48,2.48.27.84-.06,1.58-.24,2.36-.18.78.51,1.25.63,1.64.12.39-.21,1.43-.33,2.27-.12.84.75,1.4.78,1.73s-.45.98-.6,1.64c-.15.66.89,1.55,1.07,1.7.18.15.15.83,0,1.07-.15.24-.51.75-.18,1.19.33.45.45,1.28.39,3.55-.06,2.27,1.88,13.27,2.24,14.4.36,1.13,1.97,2.59,1.97,2.59,0,0,.03.24-.51.92s.54,2.77.54,2.77c-.09.33.51,9.78.75,11.57s1.04,6.44,1.19,7.4c.15.95-.75,2.74-.66,3.31.09.57,2.45,1.61,2.51,1.7.06.09,1.16,7.87,1.22,9.99s.21,5.46-.12,6.92c-.33,1.46-2.39,6.41-3.76,10.35-1.37,3.94-1.7,13.24-1.52,14.85.18,1.61.03,11.57,0,12.26s-.89,2.59-1.04,3.4c-.15.81.33,1.76.33,2.12s-.54,2.98-.63,3.22c-.09.24-.09,1.46-.33,1.64-.24.18-.27,1.55-.27,1.55,0,0-2.18-.39-2.51-.24-.33.15-.09,1.67-.09,1.67,0,0,17.3.18,17.27.09-.03-.09,15.66-.12,15.81-.18.15-.06-.03-.78-.03-.78l-1.04-.09s.09-.36.21-.84c.12-.48-.03-.86-.21-.86s-.98.12-1.4,0c-.42-.12-1.76-.78-1.76-.78l.27-.42c.18-.98-3.67-.89-3.67-.89-3.91-1.4-6.98-4.06-6.98-4.06-.51-1.49.75-8.44.92-9.57.18-1.13,2.39-10.14,2.74-11.27.36-1.13,1.49-6.17,1.79-7.55.3-1.37.45-4.44.87-5.93.42-1.49.98-2.71,1.01-3.16.03-.45-.12-1.1.03-2,.15-.89.83-2.36.83-2.36,1.58-2.15,4.03-9.72,4.32-10.65s1.79-5.34,1.79-5.34l4.68-.42v-2.56c0-.66.06-1.34.54-3.7.48-2.36.09-6.68-.03-7.37ZM12.42,160.84c-.08,1-.16,1.28-.16,1.28,0,0,.16-1.79-.16-2.79-.32-1,.16-3.23.64-4.1,0,0-.24,4.62-.32,5.62ZM33.3,35.26c0-1.16.78-.6.78-.6,2.88,1.61-.39,4.34-.61,4.52-.25-.66-.55-1.27-.55-1.48,0-.36.39-1.28.39-2.45ZM30.99,32.17c2.13,2.1.95,5.15.95,5.15l-.48-.86c-.54-1.21-.48-4.3-.48-4.3ZM30.93,40.89c-.54-.76-.25-2.29-.25-2.29.03.6,2.07,1.72,2.23,2.29.16.57-1.08,1.27-1.18,1.24s-.25-.48-.8-1.24Z"/>
  </g>
</svg>