<?xml version="1.0" encoding="UTF-8"?>
<svg id="Layer_2" data-name="Layer 2" xmlns="http://www.w3.org/2000/svg" viewBox="0 0 185.74 176.34">
  <g id="People">
    <path d="M185.74,176.34c-2.06-7.36-4.42-15.31-7.1-23.6-4.78-11.35-6.26-18.19-26.57-27.15,0,0-6.86-2.13-14.19-3.12-6.44-.87-10.13-2.62-11.72-2.57-.96.03-1.55.22-1.86.37-2.08-.28-4.62-.64-7.49-1.37-3.65-.92-6.24-2.36-6.49-5.98-.43-6.27-.68-14.11.46-17.18,1.04-2.81,2.27-6.13,3.26-11.79,0,0,0,0,.01-.03.11-.64,1.17-1.72,3.56-3.66,2.39-1.93,3.3-4.1,5.62-9.22,2.32-5.12,1.55-3.53,3.83-13.09,2.28-9.56,1.02-10.24,0-17.52-1.02-7.28-2.28-8.65-4.89-15.13-2.62-6.49-7.17-11.15-11.72-15.36-4.55-4.21-11.38-7.4-14.22-7.97-2.84-.57-1.59-1.14-1.59-1.14-.68-1.02-2.5-.91-4.32-.68-1.82.23-3.3-.23-5.12,0-1.82.23-2.39.57-3.41,1.14-1.02.57-2.62,1.59-6.6,3.53-3.98,1.93-2.62,2.05-6.71,5.69-4.1,3.64-5.58,4.89-11.72,12.74-6.14,7.85-8.31,13.77-9.79,22.07-1.48,8.31-1.37,10.24-.91,14.56.46,4.32,0,4.89.91,8.99.91,4.1,2.16,5.23,2.84,8.99.68,3.75,3.64,5.35,6.03,8.19,1.32,1.58,3.66,4.56,5.04,6.36.05.08.11.17.16.26,0,0,0,.01.01.02.08.12.15.24.23.35,0,.01.02.03.03.04.03.04.05.06.08.1,1.35,1.86,2.82,3.13,3.1,4.02.46,1.48,1.78,16.15.91,19.34-1.35,4.98-9.95,7.09-15,9.27-.15-.42-.3-.84-.41-1.23,0-.03-.22-.06-.22-.09-.12.05-.33.11-.45.16-1.22.57-2.37,1.07-3.24,1.48-5.18,2.39-7.19,2.39-9.98,3.98-2.79,1.59-6.4.68-16.49,6.37-7.62,4.3-15.33,12.86-18.15,31.46-.33,2.18-.83,5.08-1.45,8.38h185.74Z"/>
  </g>
</svg>