<?xml version="1.0" encoding="UTF-8"?>
<svg id="Layer_2" data-name="Layer 2" xmlns="http://www.w3.org/2000/svg" viewBox="0 0 210.33 235.56">
  <g id="People">
    <path d="M210.33,235.54l-210.33.02c1.3-19.43,2.84-37.12,5.23-55.41.94-7.2,3.03-13.95,5.48-20.6,3.63-6.47,9.18-10.31,16.15-12.65,13.79-4.62,36.53-10.86,45.41-21.27l6.57-7.7c1.47-1.72,1.07-7.36.58-9.68-3.5-5.88-6.84-13.11-9.01-19.55-.95-.5-4.1-1.59-4.74-2.63-2.7-4.37-10.71-23.39-1.74-26.05-2-8.4-1.7-17.5-1.38-25.62.45-11.29,5.72-17.66,13.98-23.92,5.64-4.27,9.97-7.87,17.81-9.43,12.86-2.57,27.67-.75,37.5,9.1,1.75,1.75,3.7,3.34,5.31,4.25.3.59,1.23,2.11,1.84,2.49l2.03,1.24c.4.24-.18.98-.46,1.74,9.21,10.34,6.63,27.41,6.07,39.88,8.23,3.52.41,21.07-2.14,26.74l-4.59,2.56c-2.08,6.88-4.98,12.34-8.48,18.59-5.4,9.64,11.86,25.06,22.15,28.64l28.85,10.05c6.24,2.17,11.52,5.38,15.92,10.23,3.13,6.57,5.42,13.13,6.48,20.5,2.8,19.39,4.21,38.55,5.5,58.48Z"/>
  </g>
</svg>