<?xml version="1.0" encoding="UTF-8"?>
<svg id="Layer_2" data-name="Layer 2" xmlns="http://www.w3.org/2000/svg" viewBox="0 0 56.72 166.61">
  <g id="People">
    <path d="M54.6,35.98c-.76-2.15-1.79-5.68-3.09-6.89-1.3-1.21-5.06-2.55-5.06-2.55,0,0-.36-.54-.89-.54s-.63.13-1.39-.4-1.97-.67-2.1-.89-1.48-1.39-1.61-1.43c-.13-.04-1.07.18-1.25.13-.18-.04-1.21-2.55-1.07-3.04s.45-2.82,1.57-3.22c1.12-.4,2.19-.89,2.95-2.1.76-1.21,1.21-5.55.72-6.13-.49-.58-.67-.67-.76-1.12-.09-.45-1.3-1.57-1.74-1.66,0,0-.04-1.48-.58-1.48,0,0-.45-.98-.94-1.52s-.31-1.34-.67-1.52c-.36-.18-3.22-1.97-8.14-1.57s-4.92,2.1-6.13,4.12c0,0-1.7,3.85-1.88,5.1-.18,1.25,0,1.88-.4,2.46-.4.58-.54,1.12-.36,1.43.18.31.58.45.58.72s-.45,1.39-.09,2.1c.36.72,1.21,1.57,1.43,2.51.22.94-.31.98.58,1.61s1.79,1.12,2.64,1.88c.85.76,1.6,1.26,1.6,1.26,0,0,.27,3.23.05,3.56-.22.32-1.13.43-2.53,1.29-1.4.86-3.34,2.53-3.61,2.96-.27.43-2.16,1.83-2.53,2.21s-1.08,1.19-1.08,1.19l-3.45-7.27s-.48-.54-1.67-.59c-1.19-.05-11.15.65-11.15.65,0,0-.54.48.11,1.56s5.55,11.58,5.55,11.58l-.75.22s-.16-1.94-.75-2.69c-.59-.75-1.89-2.64-2.69-1.72l-.38.22s1.56,1.29,1.51,2.42.05,2.48.11,2.86c.05.38-.48,2.75-.75,3.61-.27.86-.92,2.91-.81,3.56.11.65,1.08,3.93,1.08,3.93,0,0-.22,1.02.11,1.89.32.86,1.67,4.63,2.96,6.36,1.29,1.72,1.56,2.91,1.99,3.72.43.81,1.94.38,2.69-.16.75-.54.97-.59.97-.59,0,0-.81,5.39-.81,8.03s-1.67,8.94-1.99,9.59l.59.86.32.97s-.81,2.91-.65,5.87c.16,2.96.27,9.38-.05,11.85-.32,2.48-1.4,9.7-1.4,10.35s.92,1.72,4.15,2.05c0,0,.43,2.96.7,3.99.27,1.02-.32,2.16-.11,4.36,0,0-.32,2.48-.54,4.36-.22,1.89-.32,7.92.43,12.12.75,4.2,1.89,12.39,1.83,14.93,0,0,.48,3.69-2.47,5.12s-5.73,3.22-5.73,3.22c0,0-2.1.45-2.19,1.16,0,0-.63.49-.85.45s-.89-.45-1.25-.31c-.36.13-.58.58-.58.98l-.85.22s-.36.72-.04.81l-1.74-.13s-.45.67-.13.85c.31.18,3.09.31,9.44.31s13.47-.04,13.47-.04c0,0,.22-.54.04-.63-.18-.09-.67-.13-.67-.13,0,0,.89-.27,1.3-.72.4-.45.18-3.31,0-5.99-.18-2.68-.45-5.55-.22-8.1.22-2.55.72-10.33.94-12.3.22-1.97.85-4.52.58-7.83-.27-3.31-1.48-5.01-.98-7.34.49-2.33.85-3.53.76-5.91-.09-2.37-.4-5.95-.13-6.93s.67-3.36,1.39-4.74c.72-1.39,1.21-4.83,1.48-5.01.27-.18.49.54.45,1.48-.04.94.45,6.62-.49,8.5l-.09.4,1.92,1.07s-.98,3.98-.85,7.34c.13,3.36,1.12,6.4,1.07,7.87-.04,1.48-1.48,5.19-1.48,8.5s-.27,11.32-.04,14.85,0,4.61-.27,5.37-.63,2.28-.63,3.49.31,2.15.49,3.76c.18,1.61-.13,1.83.27,2.59,0,0-.13.27.13.63s11.32.54,12.39.4c0,0,.22-.58.13-.72-.09-.13-.76-.31-.76-.31,0,0,.18-.63-.18-1.12-.36-.49-2.59-1.57-2.59-1.57,0,0-.36-.58-.81-.63,0,0-1.83-1.12-1.97-1.57-.13-.45-.13-1.97-.18-3.27-.04-1.3-.04-3,.4-4.43.45-1.43,1.66-5.01,2.33-6.67.67-1.66,1.7-5.77,2.15-8.05.45-2.28,1.74-6.49,1.3-8.28-.45-1.79-.85-5.73-.85-7.96s.36-7.47.76-8.1c0,0,2.1-.18,2.55-1.12.45-.94.13-2.82.81-5.14s2.24-9.08,2.37-12.48.27-8.77.4-9.35c.13-.58.31-1.12.31-1.48l.67.04.4.45.4-.45s1.74-.54,2.1-1.16c.36-.63,0-1.52-.45-4.56s-.89-7.52-.89-9.89.18-6.35.18-6.35c0,0,.72.49,1.34.54s.89.13,1.34-.49c.45-.63.94-1.88,1.61-3.89.67-2.01.94-3.85.98-5.99s-.4-7.38-.49-8.05c0,0,.94-.98,1.07-1.92.13-.94-.09-1.25.36-1.61.45-.36,1.34-.94,1.52-1.43.18-.49-1.34-1.43-2.1-3.58ZM12.55,52.82c-.48.93-1.28,2.24-1.41,2.26s-.61-.93-.72-1.2c-.11-.27-.03-.29-.19-.96s-.69-.82-.85-1.09c-.16-.27-.61-1.49-.77-1.86-.16-.37.27-.82.27-.82,1.04-.4,3.09-2.05,3.09-2.05.59.05,2.85.08,2.85.08-.21.61-1.78,4.71-2.26,5.64Z"/>
  </g>
</svg>