<?xml version="1.0" encoding="UTF-8"?>
<svg id="Layer_2" data-name="Layer 2" xmlns="http://www.w3.org/2000/svg" viewBox="0 0 170.34 180.36">
  <g id="People">
    <path d="M167.93,180.36c0-.06.01-.11.02-.17,5.02-42.83,2.17-50.96-8.78-59.33-10.94-8.37-16.76-8.89-18.12-9.59-1.37-.7-3.08,1.05-3.08,1.05,0,0-.07-.03-.21-.08-.1.07-.2.14-.3.2l-3.87-1.33c-3.38-1.27-7.39-2.81-11.39-4.6-.08.06-.16.11-.24.17,2.62-1.87,4.41-5.69,4.86-9.33.1-.02.2-.09.24-.22,2-6.22.76-13.07-3.31-18.14-1.82-2.27-4.12-4.08-6.16-6.14-1.72-4.18-3.46-9.69-5.04-17.65-4.56-21.15-5.02-18.36-13.91-35.56-2-3.86-3.93-7.06-5.82-9.67-.99-3.19-3.02-5.99-5.87-7.88-4.39-2.91-10.33-2.69-14.72.03-.26-.05-.51-.11-.77-.15-5.13-3.43-11.71-1.02-16.45,2.22-.2.13-.39.27-.58.41-5.32,2.78-10.49,7.57-15.18,14.92-5.01,10.58-6.84,21.41-7.98,34.82-.68,8.06-1.33,17.32-2.21,26.05-.15-.05-.37.04-.37.26-.26,7.4-3.99,14.05-4.79,21.36-.36,3.36.15,6.9,1.75,9.81.22,2.17.72,4.26,1.6,6.22h0c.07.15.15.29.22.43-.32.08-.61.15-.76.22,0,0-1.35.04-1.34.04-1.74.83-4.64,1.92-7.96,3.21h0c-1.66,2.28-5.02,5.92-6.37,9.55-1.22,3.27-3.76,13.68-6.06,23.61-2.53,8.25-4.37,13.94-4.99,25.25h167.93ZM120.18,76.3c2.66,2.5,4.84,5.16,6.11,8.67,1.18,3.27,1.31,6.89.54,10.27-1.05-9.43-4.65-12.04-8.52-20.71.62.6,1.26,1.18,1.87,1.77ZM118.56,104.83c-.51-.25-1.03-.51-1.53-.77-.03.04-.05.06-.08.1.29-.39.58-.85.85-1.42.23-7.67,1.6-10.34-1.48-17.55,4.82,9.2,4.58,15.98,2.25,19.64ZM86.16,2.3c2.37,1.32,4.18,3.45,5.32,5.92-5.7-7.02-11.2-8.67-17.58-6.48,3.93-1.73,8.45-1.57,12.26.56ZM69.81,1.74c-3.63-.42-7.33-.13-11.01,1.05,3.54-1.73,7.5-2.56,11.01-1.05ZM33.9,103.9c1.04,5.07,2.39,9.09,4.02,12.28-.1.03-.19.05-.29.08-.06-.08-.11-.16-.17-.24-.17-.34-.33-.75-.49-1.31h0c-.08.11-.14.2-.2.3-1.47-2.17-2.62-4.54-3.33-7.07.13-1.25.29-2.58.46-4.04ZM33.3,109.34c.73,2.22,1.78,4.31,3.08,6.23-.18.27-.3.45-.4.61-.68.31-1.41.55-2.19.74-.65-2.64-.71-4.98-.5-7.59ZM26.94,96.58c-.79,4.41-1.54,8.97-1.41,13.28-1.27-3.37-1.18-7.33-.49-10.91.82-4.31,2.42-8.4,3.39-12.65-.43,3.65-.92,7.12-1.48,10.27Z"/>
  </g>
</svg>