<?xml version="1.0" encoding="UTF-8"?>
<svg id="Layer_2" data-name="Layer 2" xmlns="http://www.w3.org/2000/svg" viewBox="0 0 61.65 177.16">
  <g id="People">
    <path d="M41,2.82c-.19-.56-2.18-3.31-5.34-2.75-3.16.56-3.68.86-4.81,1.81s-1.65,1.69-1.92,2.33c-.26.64-.45.9-.6,1.05l.34-.15s-.34,1.05-.6,1.35c-.26.3-.94,1.73-.94,3.2s.34,3.72.49,4.14c.15.41-.26,1.17.08,2.41s.19,2.37,1.09,2.71,1.47.3,1.65.3.41,1.77.71,3.53c.3,1.77.64,2.89.11,3.31-.53.41-2.11,1.35-3.2,2.37-1.09,1.02-3.35,1.84-4.78,2.26-1.43.41-5.72,1.62-7.63,2.44-1.92.83-2.71,3.5-3.61,4.89l-.19.23s-1.17-.75-1.58,0c0,0-.86-.34-1.47.75,0,0-.75.41-.49.94.26.53.83,1.58.86,2.14.04.56,0,2.67.15,3.16.15.49.38,1.02.38,1.02,0,0-.71,1.09-1.13,1.62-.41.53-.34,1.54-.26,2.71,0,0-1.47,1.26-2.36,2.29-.89,1.03-1.48,3.36-1.52,4.03-.04.67-1.16,2.24-.4,4.03s1.25,2.06,1.34,2.24c.09.18,1.83,1.7,2.91,1.79,1.07.09,2.91.13,4.12-.76,1.21-.89,2.06-1.61,2.51-1.79.45-.18.58.22.27,1.03-.31.81-2.06,7.52-2.28,7.78s-2.42,6.22-2.77,7.38c-.36,1.16-1.34,8.05-1.83,10.02-.49,1.97-1.39,5.23-1.34,5.68.04.45,4.88,2.01,4.88,2.01,0,0,.63,3.49.4,6.04s-.09,5.91.36,7.6c.45,1.7.45,4.12,1.07,5.77s.58,2.24.49,3.22-.04,4.61-.09,5.14c-.04.54-2.42,3.04-2.64,5.23-.22,2.19.81,6.4.72,7.25-.09.85-2.15,4.52-2.28,11.5s.04,11.05-.27,11.77c-.31.72-1.07,4.29-.81,5.59s.72,1.97.45,2.46-.76,1.16-.98,1.52c-.22.36-.89,0-1.12.13s-.18-.27-1.43.49c-1.25.76-2.37,1.07-2.37,1.43s.4.13.63.27c.22.13.04.27-.18.4-.22.13-2.68.45-3.18.49-.49.04-.45,1.07-.4,1.34s-.4.85-.04,1.3c.36.45,6.87.67,9.04.67.13,0,1.48-.45,1.52.09,0,0,8.1.36,8.63.27,0,0,.22-1.57.22-1.7s.31-.36.36-.89c.04-.54.22-2.55.4-3.04.18-.49,1.07-1.43,1.3-2.64.22-1.21.54-4.12.63-5.77s.72-9.08.85-10.47c.13-1.39.81-8.68,1.48-11.81.67-3.13.04-8.68.49-9.17s1.21-2.15,1.3-3.36c.09-1.21.67-8.1.81-9.57.13-1.48-.13-2.24.13-3s2.06-5.91,2.1-7.02c.04-1.12-.27-7.11.09-7.96.36-.85.54-1.61.94-1.74s.72-.13.89.49c.18.63.22,10.6.31,11.9.09,1.3.98,15.08,1.16,16.42.18,1.34.49,2.64.13,3.67s-.36,5.95-.31,8.1c.04,2.15-.09,12.26.13,13.24.22.98.36.98,0,2.01-.36,1.03-.27,3.27-.58,4.29-.31,1.03-.36,3.8.22,5.28.58,1.48,1.16,4.56.94,5.19s.98,1.07,1.3,1.66c.31.58.18,1.25.4,1.66.22.4.49.31.67.31s-.18,1.21.04,2.28c.22,1.07.09,2.24.09,2.24,0,0,4.25.04,4.61.09.36.04,7.29.36,7.69.09.4-.27-.04-.36-.04-.54s.22-1.34-.22-2.01c-.45-.67-1.16-1.25-1.43-1.61-.27-.36-.98-.94-.94-1.34s.31-.45.22-.72c-.09-.27-.31-.89-.31-1.12s.04-.76-.18-1.12-.63-.63-.4-1.16c.22-.54,1.83-1.57,1.97-2.86s.58-4.43-.13-5.5c-.72-1.07-1.52-1.16-1.34-2.77.18-1.61.13-8.99.22-10.11.09-1.12-.31-7.61-.13-8.28.18-.67.63-2.33.63-3.18s-.81-2.51-1.03-3.8-.27-6.22,0-7.47.49-2.46.49-3.27-.54-1.97-.13-3.18c.4-1.21,1.57-2.73,1.74-5.5.18-2.77.98-12.44,1.07-13.11s.04-1.12.18-1.12,3.67-1.39,4.12-1.57,1.66-.09,1.97-.31c.31-.22-.58-5.14-.4-6.62.18-1.48-.58-7.43-.89-8.72-.31-1.3-.27-6.26-.36-7.07-.09-.81-.94-1.83-.98-2.1-.04-.27-.89-4.79-.98-5.59-.09-.81-.31-2.33-.18-2.28.13.04,3.27.09,4.03-.45s2.15-2.59,2.95-3.22c.81-.63,2.28-2.24,2.42-2.95.13-.72.18-2.33.36-3.18.18-.85-.18-2.15.13-2.59.31-.45,1.07-1.16,1.12-1.97.04-.81-.72-4.88-.67-6.22.04-1.34-.58-6.53-.94-7.61-.36-1.07-1.12-2.73-1.43-3.18-.31-.45-2.42-1.48-3.94-1.74s-4.29-1.07-5.28-1.43c-.98-.36-1.7-.49-2.01-.72-.31-.22-3.4-2.51-3.8-2.59-.4-.09-.85-.13-.94-.27-.09-.13-.31-1.25-.18-1.43s1.34-.85,1.57-1.57c.22-.72.4-3.27.63-4.25.22-.98.4-2.33.36-3-.04-.67-.54-1.61-.54-1.61,0,0,.22-.4.4-.94.18-.54.02-1.35.02-1.58,0-.56-.89-.66-.89-.79s.65-1.57.6-1.97-.36-2.42-1.21-3.18c-.85-.76-1.92-1.25-2.28-1.25s-.12-.52-.12-.52Z"/>
  </g>
</svg>