<?xml version="1.0" encoding="UTF-8"?>
<svg id="Layer_2" data-name="Layer 2" xmlns="http://www.w3.org/2000/svg" viewBox="0 0 71.88 190.13">
  <g id="People">
    <path d="M1.78,14.1S-.55,11.86.12,9.58c0,0,.09.72.67.27.58-.45.76-1.97.98-2.55,0,0,.04,1.43.4.94s1.3-2.37,2.1-3.49c.81-1.12,1.21-2.01,2.91-2.77,1.7-.76,2.33-1.34,4.16-1.57,1.83-.22,2.37-.27,3-.36.63-.09,1.83-.13,2.33.49s5.46,4.97,6.31,6.31c.85,1.34,1.3,2.55,1.39,3.13.09.58.94,1.52.89,2.37-.04.85-.13,1.39.09,1.92.22.54,1.03,2.46,1.12,2.95.09.49.27.76.13.85-.13.09,1.43,3.04,3.8,3.67,2.37.63,4.12.89,4.7.72.58-.18,2.91-.45,4.03-.36s6.75.22,8.59,1.21c1.83.98,3.13,1.83,3.49,2.28.36.45,2.55,3.71,3.04,4.7.49.98,1.03,4.03,1.74,6.49.72,2.46,1.3,5.82,1.48,6.71.18.89.49,3.76.36,4.38s-.94,1.39-1.07,1.7c-.13.31-.36,3.27-.45,5.28-.09,2.01.36,4.12.31,4.88-.04.76-1.12,2.46-1.43,3.44-.31.98-.81,1.92-.67,2.86s.22,4.92.27,7.83c.04,2.91-.04,12.12.31,14.81,0,0,.31,1.61,0,1.92-.31.31-.89.45-1.03.94s-.72,1.16-.89,1.57c-.18.4.04,2.24.04,3.18s-.13,3.8-.31,6.84c-.18,3.04-.76,7.16-1.03,11.23s0,7.11,0,7.96-.27,1.16-.13,1.52.49,1.39.67,2.46c.18,1.07.63,3.98.67,4.34s.22,1.39,1.66,3.89c1.43,2.51,4.43,7.43,5.1,9.31s1.74,7.56,2.33,11.32c.58,3.76,1.57,13.69,1.79,15.25,0,0,.63.09.63,1.25s-.09,1.52.13,2.24c.22.72.76,1.61.94,2.19.18.58.49.58.81.85.31.27.89.98,1.21,1.48.31.49,1.34,2.73,1.83,4.52s1.3,2.19,1.61,2.51c.31.31.49.89.54,1.7.04.81-.04,1.48-.04,1.48,0,0,.81,1.43-.36,1.43s-12.39.04-12.39.04c0,0-.45-1.16-.31-2.37.13-1.21.27-1.92-.04-2.37-.31-.45-.89-1.83-.89-1.83-.09-.85-.58-1.74-.67-2.37s-.22-1.12-.22-1.97-.04-1.97,0-2.59c.04-.63.4-1.97.31-2.28-.09-.31.04-.98.04-1.3s-.67-1.74-.54-1.97l.27-.45s-5.41-12.53-7.2-15.48c-1.79-2.95-2.55-8.54-3.8-11.9-1.25-3.36-2.1-3.62-3.4-5.99-1.3-2.37-1.57-3-1.74-3.09-.18-.09-2.06-.89-2.06-.89,0,0-.4,3.18-.67,4.47-.27,1.3.85,4.79,1.79,8.45.94,3.67,1.34,7.74.36,13.02-.98,5.28-.22,11.41-.13,11.72.09.31.36.54.36.54,0,0,.98,5.77,1.07,6.67.09.89-.09,1.03.09.89.18-.13.67-.22.98-.13.31.09.94,3.31.98,5.37.04,2.06.04,2.77.13,3.27.09.49.72,2.33.13,2.64h-25.36s-3.94-1.52-4.21-3.53c-.27-2.01.72-3.09,1.83-3.09s3,.49,4.12.22,1.57-.89,2.95-1.43,1.88-.76,2.73-1.16c.85-.4,1.21-.49,2.1-1.3.89-.81.85-.81,1.3-1.7.45-.89.18-1.07.67-1.52s.67-1.07,1.07-1.21c.4-.13,1.16-.22,1.25-.4.09-.18-.4-.45-.4-.98s.13-1.57,0-1.79c-.13-.22-.63-.54-.4-.67.22-.13.18.04.22-.13.04-.18-4.47-20.49-4.56-24.2-.09-3.71.04-5.32-.18-6.13-.22-.81-1.3-1.34-1.39-3.22s-.27-2.82-.54-3.27c-.27-.45-.49-1.16-.49-1.16l-6.08.09s-1.25-13.06-1.25-13.2-1.25-.54-1.57-.67c-.31-.13-.72.31-1.03,0s-3.53-2.33-3.85-3.18c-.31-.85-.09-2.86-.27-3.18-.18-.31-.58-1.07-.49-1.57.09-.49,1.03-2.68,1.3-3.53.27-.85,1.39-2.91,1.48-3.27.09-.36.45-4.21.45-5.14s.45-3.22.58-3.49c.13-.27.49-3.44.31-5.73-.18-2.28-.54-7.83,1.16-12.7,1.7-4.88,1.03-6.71.89-8.37l-2.1-.27s.4-4.92.58-6.31c.18-1.39-.27-4.29-.18-5.73,0,0-1.39-4.43-1.21-6.71.18-2.28.72-5.19,1.07-5.91.36-.72,1.83-3,2.42-4.47.58-1.48,2.73-4.79,3.04-5.32.31-.54.36-.85.58-1.07s.4-.36.45-.49c.04-.13-1.21-3.58-3.94-4.7,0,0-1.16-1.03-3.94.67,0,0-2.46,1.74-3.58.18,0,0-.23-.57-.19-1.16.05-.58-.85-.84-1.12-1.1s-.13-.85-.03-.99c0,0,.31-.51-.37-.35,0,0-.47.1-.72-.49-.26-.59-.45-1.07-.94-.92-.49.15-1.06.5-1.71.19s-.57-1.68-.33-2.43c.24-.75.58-1.73.33-1.9-.26-.17-1.24-.62-1.39-1.27-.15-.65-.4-2.93-.52-3.38-.13-.45-.52-1.38-.46-1.5Z"/>
  </g>
</svg>