<?xml version="1.0" encoding="UTF-8"?>
<svg id="Layer_2" data-name="Layer 2" xmlns="http://www.w3.org/2000/svg" viewBox="0 0 85.16 183.08">
  <g id="People">
    <g>
      <path d="M10.4,179.09c.07.07.1.01,0,0h0Z"/>
      <path d="M85.04,181.17c-.12-.18-.54-1.01-.66-1.19-.12-.18-.78-.6-.78-.6,0,0-.89-.84-1.01-1.01-.12-.18-.3-.72-.42-.95-.12-.24-.78-1.01-.95-1.01s-.24-.95-.24-.95c0,0,.12-.54.48-.95.36-.42.78-1.13.42-2.39-.36-1.25-2.09-3.28-2.09-3.28,0,0,.3-.72.36-1.43s.36-1.43.78-2.8c.42-1.37.36-4.59.12-6.62s-.6-3.04-1.37-4.83c-.78-1.79-.24-2.56-.42-4.06-.18-1.49,0-3.34-.06-5.43-.06-2.09.12-2.45-.6-4.12-.72-1.67-.06-2.98-.12-3.7-.06-.72-.6-1.55-1.01-2.15s-.12-1.19-.36-2.21c-.24-1.01-2.21-3.04-2.39-3.64-.18-.6,1.19-2.21,1.73-3.82.54-1.61.06-4.35-.06-5.96-.12-1.61-.36-7.16-.48-9.54-.12-2.39-.6-9.84-.66-10.74-.06-.89-.3-1.97-.06-2.68.24-.72,0-1.61-.36-3.22-.36-1.61-.95-2.03-.6-2.33.36-.3.6-.6.78-1.43s-.06-1.49-.18-1.91c-.12-.42-.6-1.01-.95-1.61s.18-.72.12-1.73c-.06-1.01.06-1.79-.12-2.68-.18-.89-.24-1.55-.78-2.8-.54-1.25-.24-1.01-.6-3.16-.36-2.15-.84-3.04-.95-5.67-.12-2.62.3-2.98.6-4.47.3-1.49.12-3.28.12-3.28,0,0,.24-.06.89.06.66.12,1.97.95,3.7,1.13,1.73.18,1.91-.3,2.92-2.74,1.01-2.45.84-3.94.78-5.49s0-5.43,0-5.43c0,0,.3-.48.48-1.31.18-.84.18-1.43.12-2.09s-.89-3.16-1.31-4.77-1.01-4.29-1.37-5.49-1.67-3.94-2.27-5.43-4.29-2.98-5.79-3.34-5.14-1.19-5.14-1.19c0,0-.22-.09-.37-.15-.15-.06-.58-.34-.99-.48-.41-.15-.82-.7-1.23-1.23-.41-.53-1.11-.63-1.3-.63s-1.17.35-1.23.35-.07-.22-.07-.64.13-.31.28-.72c.15-.41.07-.64.29-1.29.22-.64.78-2.34.85-2.41.07-.07.28-.13.47-.31s.32-.35.66-.76c.34-.41.44-.76.64-1.3.2-.54.34-1.13.42-1.83.09-.7.18-1.37,0-1.51-.18-.13-.48-.06-.88.09-.39.15-.19-.13-.19-.13,0-.41,1.02-4.07.68-5.9-.34-1.83-1.97-5.29-7.6-5.84-5.63-.54-8.42,4.14-8.89,6.58-.47,2.44-.07,4.34-.07,4.34,0,0-.34-.14-.88,0-.54.14-.34,2.92.2,4.34.54,1.43,1.29,1.43,1.29,1.43-.07.54.81,3.8.81,3.8l.27,3.6s-.41.34-.81.75c-.41.41-.95,1.22-1.36,1.83-.41.61-.61.48-1.22.75-.61.27-1.56.88-2.17,1.43s-2.85.88-3.53.54c-.68-.34-.14-1.7,0-3.26.14-1.56-.07-2.31-.81-3.6-.75-1.29-.27-2.1-.68-4.41-.41-2.31.34-2.99-.14-5.23-.48-2.24-5.16-5.29-6.11-5.57-.95-.27-1.49-.54-4.14-1.09-2.65-.54-4.34.41-6.31,1.49-1.97,1.09-3.05,4.14-3.6,4.75-.54.61-2.1,1.63-2.44,3.19-.34,1.56-1,4.67-1.9,5.02-.35.14-.13.4-.79.88-.66.48-1.43,2.33-1.67,3.76-.24,1.43-.54,1.37-2.03,2.03s-1.49.84-2.86,1.43c-1.37.6-1.43,1.37-2.03,2.27s-1.25,4.89-1.85,6.26c-.6,1.37-1.37,2.56-1.79,3.94-.42,1.37-.18,6.32.12,9.36.3,3.04,1.73,9.72,2.74,10.56,1.01.84,2.39.78,2.56.95s.36,1.91.3,2.09c-.06.18-3.94,12.59-4,13.66-.06,1.07,2.27,2.92,2.33,3.1.06.18-.06.83-.06.83l.18.66s.24,1.31.18,2.74c-.06,1.43.84,3.28,1.07,4.41.24,1.13.48,2.15.95,3.58.48,1.43,2.15,5.96,2.56,7.16.42,1.19,4.18,6.86,4.18,7.04s-.06.89-.24,1.43c-.18.54-.54,4.29-.72,5.37-.18,1.07-.42,5.49-.48,6.74-.06,1.25.06,4.06.06,4.77s-.24,1.55-.48,2.27c-.24.72-.84,5.01-1.07,7.4-.24,2.39-.54,4.35-.48,6.8s-.42,12.35-.54,13.72c-.12,1.37-.48,5.31-.66,6.5-.18,1.19-.54,4.83-.54,4.83,0,0,.72.3.89.54.18.24.48,1.61.48,1.61.12,3.82-.6,9.3-.6,9.3,0,0,1.13.36,1.37.36.01,0,.02,0,.03,0-.06-.06-.14-.19-.21-.48-.18-.72.66-7.04,1.37-6.32s1.07,6.86,1.13,7.16c.06.3.95.6,1.01.54.06-.06,0,0-.12-.54s-.06-4.06.12-4.35c.18-.3.3,1.61.48,3.22.18,1.61,2.33,1.37,7.46,2.15,5.13.78,9.66-.06,9.9-.12s1.79-3.88,1.79-3.88c1.37-.54.78-1.25.78-1.25-2.15-.6-5.67-2.62-6.08-3.04s-.3-.48-.48-.95c-.18-.48-1.43-2.62-1.61-2.98s-.42-1.01-.72-1.67c-.3-.66-.78-1.73-.78-2.51s.48-.18,1.25-1.31c.78-1.13.42-1.13.78-2.62s-.06-2.86.06-4.18c.12-1.31.06-1.07-.36-2.21-.42-1.13-1.01-2.27-1.07-3.52-.06-1.25.36-1.37.72-2.74.36-1.37.6-1.67.83-2.8.24-1.13.6-1.85.6-2.98s.95-6.14,1.01-6.5c.06-.36.48-1.07.18-1.49-.3-.42.06-.72.3-1.25.24-.54.48-.6.6-1.31.12-.72.24-1.97.42-2.86.18-.89.24-.48.42-.84.18-.36.3-.66.12-1.01-.18-.36.24-.42.24-1.25s.3-.36.42-.84c.12-.48.42-.95.42-1.43s-.36-1.01.18-1.07c.54-.06.78-.54.18-1.73.72-2.09.54-5.25.3-8.11-.24-2.86-.72-4.71-.36-5.61.36-.89,4.18-10.92,4.18-10.92,0,0,.48,2.45.48,3.64s.12,2.39.24,4.41c.12,2.03-.06,1.55.18,2.98.24,1.43,1.61,12.65,1.97,14.49s.54,2.62.95,4.53,0,5.25.24,6.56c.24,1.31-.06,1.31-.24,1.91-.18.6-.48,1.19-.95,1.73-.48.54.42,1.01.66,1.73.24.72.36,1.49.18,2.45-.18.95.18.84.3,1.49.12.66.78,7.28,1.01,10.68.24,3.4-.24,4.18.36,9.31s2.8,8.77,3.1,9.25c.3.48.6.66.78.72.18.06.12.66.12,1.01s.12.42-.12.72-.6.6-.95.89-1.25.84-1.79,1.07c-.54.24-1.79.72-2.21.84-.42.12-1.91.72-2.45,2.09-.54,1.37-.95,1.67,2.03,2.45,2.98.78,17.48.12,17.48.12,0,0,.18-.72.3-1.67.12-.95-.24-1.07-.54-1.73s-.42-1.19-.48-1.79.42-1.97.78-3.04c.36-1.07-.06-2.09-.18-2.62-.12-.54-.6-1.49-1.07-2.68s-.83-2.86-1.37-4.77c-.54-1.91.18-1.49.24-3.1.06-1.61-.18-2.09-.42-3.16-.24-1.07-.66-8.95-.72-11.15-.06-2.21,0-1.85-.18-3.16-.18-1.31-.42-1.73-.42-2.09s.18-.78.12-1.31c-.06-.54-.54-.95-.54-1.55s.18-.42.18-1.73-.06-.66-.06-1.61.24-.84,0-1.55c-.24-.72-.18-.95-.12-2.15s.12-1.01.12-2.27.72-7.28.6-9.01c-.12-1.73.36-6.26.66-7.1.3-.83.54-.6.54-1.13s-.3-.6-.3-1.13.6-.78.89-1.67c.3-.89.24-3.22.3-3.94.06-.72.3-.3.78-.24s1.13,3.22,2.03,6.02,1.55,10.56,2.21,13.54,1.13,4.77,1.07,5.43c-.06.66.72,1.31.89,1.85.18.54.06.78,0,1.91-.06,1.13.6,1.49.83,2.27.24.78.24,2.68.36,3.7.12,1.01.18,1.55.12,2.56-.06,1.01.84,4.65,1.13,7.34s1.97,7.81,2.39,10.38c.42,2.56,0,2.27.3,3.52.3,1.25.12,2.51.12,3.22s.24,3.58.3,4.53.24,1.07.18,1.73c-.06.66-.12,1.25,0,1.97.12.72.18.36.3,1.55.12,1.19.42,1.13.78,1.79s.36.48.66.6.3.48.54.89.06.36.06.89.18.66.24,1.25,0,1.01.6,1.61,1.67.48,1.67.48l.54.54c1.91.48,10.44.42,11.09.12s.48-1.49.36-1.67ZM37.77,55.41c0-1.83.72-2.86.72-2.86.22.63.49.94.49,1.61s-.04,2.24-.09,3.04c-.04.81-.36,3.44-.36,3.44,0,0-.22-.72-.58-1.7-.36-.98-.18-1.7-.18-3.53ZM39.11,72.77c-.22-.04-.63.04-.98.13-.36.09-.67.63-.94.81-.27.18-.98-.09-.98-.09l-.31-1.74s.76-.09,1.34-.45c.58-.36,1.7-.67,1.7-.67-.58.76.4,2.06.18,2.01Z"/>
    </g>
  </g>
</svg>