<?xml version="1.0" encoding="UTF-8"?>
<svg id="Layer_2" data-name="Layer 2" xmlns="http://www.w3.org/2000/svg" viewBox="0 0 139.61 386.1">
  <g id="People">
    <path d="M137.35,195.04c.25-2.9-1.14-10.82-2.15-23.62-.5-15.7-5.45-35.11-7.85-44.21-2.32-6.99-2.77-16.34-2.66-23.62.51-17.42-.96-20.78-3.18-28.54-.33-1.15-.77-2.14-3.24-3.63-.9-.45-1.55-.83-1.55-1.15h0c0-1.83-10.03-4.56-14.24-4.62-.1.54-.64,1.02-.78,1.46-2.05-.92-6.25-1.75-6.92-4.19-.36-1.32-.44-4.07-.33-6.41.01.01-.03.03-.02.04.86.99.8,1.09,1.1,1.62.3.53.05.76.81,1.22.76.46,1.28.63.92,1.59-.36.96.53,1.36.53,1.36,0,0,1.42.43,1.39-.2-.03-.63-.13-1.41,0-1.43.11-.02.53-.14.64-.05-.07-.23-.29-1.13-.4-1.99.15-.24.3-.53.46-.76.02,0,.03,0,.04,0-.08.02,1.61.06,2.02.1.84.1,2.76-.2,2.76-.2v.5s0,1.04.19,1.29c.2.25-.58,1.09-.24,1.44.35.35,1.93.94,1.93.94,0,0,.3-.95.3-1.32s-.36-.42-1.01-.77c-.64-.35-.61-1.55-.66-2.2,0-.02-.03-.04-.03-.06.24-.22.56-.38.56-.51,0-.2-.2-.25-.65-.6-.45-.35-.05-.55-.25-1.03-.2-.49-1.1.2-1.47,0,.32-.43.48-.92.48-.92,0,0-2.71.1-.9-.89.74.05.42.07.78.04,1.15.39,1.87.95,2.2.31.15-.28.17-.44.18-.6.38-.07.63-.13.63-.13,0,0,.33-.82.58-1.17.25.05.48.14.63.19.4.13.53.03.8-.21.26-.25.27-.38.66-.31.4.07.46.23.73-.02.26-.25.85.19.27-.25.21.11.3-.27.59-.75.23-.13.35-.37.46-.6.14-.27.25-.53.49-.55.5-.05.94-.64,1.59-.74.64-.1,1.64-1.39,1.64-1.39,0,0-.22-.32-.39-.56.02-.07.05-.15.08-.24.06-.09.11-.19.12-.28,0-.04,0-.08,0-.12.1-.35.2-.76.27-1.13,1.38-.69,2.13.58.86-1.18-.68-.95-.81-1.42-.93-1.7l1.02-1.88-.16-.71c.04-.26.06-.52.08-.77.03-.02.05-.04.08-.07.17-.15.27-.36.33-.57.14-.04.27-.2.2-.35-.04-.1-.09-.2-.13-.3,0-.17-.02-.3-.04-.37-.06-.17-.31-.61-.38-.73,0-.09-.02-.17-.03-.26.14-.12.29-.22.39-.3.24-.2.34-.45.37-.75.03-.29-.08-.54-.25-.74.1-.11.07.08.1-.16.03-.26.29-.33-.17-.4,0,0-.01,0-.02,0-.05-.08-.1-.16-.16-.24.07-.06.14-.15.19-.25.03-.07.06-.13.09-.2.19-.23.37-.46.56-.68.11-.05.22-.1.33-.15.08.04.16.07.24.09.06.1.2.14.32.07.02-.01.04-.03.06-.04.03,0,.05,0,.08,0,.05,0,.1-.02.15-.04.02.06.07.12.15.13.04,0,.08.01.12.01,0,.05-.02.1-.03.15-.08.04-.16.09-.24.17-.13.12-.05.33.11.38.13.04.24.05.34.05.12.11.24.23.36.34-.17.24.24.46.4.22.33-.5.15-.97-.21-1.16,0-.07,0-.14-.03-.21.53-.17.89-.61.54-1.27-.05-.09-.14-.16-.25-.22.05-.08.1-.15.14-.23.06-.12-.02-.32-.17-.33-.31-.02-.59.02-.84.11,0,0-.01-.01-.02-.02-.15-.14-.3-.28-.45-.42-.05-.06-.1-.11-.17-.16-.05-.04-.09-.09-.14-.13-.06-.07-.13-.13-.19-.2.02-.02.03-.04.05-.06.3-.1.54-.28.67-.63.21-.6,0-1.03-.38-1.31.43-.96.33-2.1-.34-2.99-.06-.08-.16-.12-.25-.11,0-.01-.01-.02-.02-.04.05-.06.09-.12.13-.19.28-.49.01-1.26-.47-1.58.01-.48-.06-1.06-.41-1.25-.04-.08-.08-.16-.14-.24-.07-.1-.22-.14-.33-.11-.02,0-.05-.02-.08-.02-.08-.12-.18-.22-.31-.3.05-.09.1-.17.15-.25.08-.14.1-.27.07-.4.03-.04.06-.08.08-.14.2-.59.04-1.06-.28-1.52.04-.29,0-.58-.11-.9-.1-.25-.32-.46-.58-.6-.04-.04-.08-.08-.12-.11-.04-.33-.17-.64-.43-.8-.22-.13-.45-.18-.66-.18,0-.02.02-.04.03-.07.05-.14-.09-.29-.23-.28-.1,0-.19.02-.27.03,0-.01-.02-.02-.03-.03.08-.3.06-.59-.03-.87.04-.27.06-.55.07-.83,0-.2-.19-.26-.33-.19.02-.09.04-.17.06-.26.04-.16-.09-.23-.21-.22-.03-.39-.13-.78-.32-1.21-.16-.38-.36-.72-.61-1.05-.05-.06-.16-.13-.3-.2-.02-.12-.06-.24-.15-.34-.19-.22-.73-.32-1.14-.47-.15-.11-.3-.22-.45-.34-.02-.01-.04-.02-.06-.04,0-.01,0-.03-.01-.04-.01-.15-.2-.25-.32-.15,0,0-.01,0-.02.01-.31-.11-.63-.12-.94-.04-.31-.2-.59-.43-.84-.7-.54-.58-1.27-.3-1.84.07-.22-.11-.27.1-.35.26-.01.02-.02.03-.03.05-.05.09-.12.15-.26.08-.51-.27-.45-.24-.48-.64-.03-.4-.66-.66-.66-.66,0,0-.53-.56-.86-.73-.33-.17-1.72-1.26-3.08-2.38-.43-.35-.66-.37-.79-.23-.01-.07-.03-.13-.07-.19.15-.35-.05-.83-.52-.72-.15.03-.31.05-.46.08-.05.01-.09.03-.13.05-.38.08-.75.15-1.13.23-.07.02-.13.05-.18.09-.17-.04-.35-.09-.52-.13-.06-.01-.12-.02-.18-.03-.42-.11-.81-.07-1.21-.2-.03-.01-.06-.01-.09-.02-.07-.11-.14-.22-.23-.35-1.26-1.82-5.56-2.32-8.44-1.47-1.36-.17-3.13-.26-4.96,0-.5.07-.93.12-1.3.15-.31-.04-.65-.07-1-.1-.12-.31-.34-.59-.66-.73-.51-.23-1.01-.45-1.53-.63-.61-.21-1.17-.04-1.54.34-.07,0-.13.03-.2.07-.02-.04-.04-.09-.07-.13-.13-.19-.26-.37-.4-.55-.1-.14-.31-.25-.48-.2-.35.09-.71.35-.96.64-.04.05-.08.1-.11.15-.04-.03-.1-.05-.16-.06-.36-.07-.72-.17-1.09-.19-.22-.01-.41.16-.46.37-.03.01-.05.04-.07.06-.01,0-.02-.38-.03-.39-.35-.17-.79-.49-1.15-.49h0c-.06,0-.12.6-.19.62-1.49.44-2.58.87-4.53,1.25-1.37.27-2.49.92-3.08,1.23-.08-.06-.15-.1-.22-.17-.1-.11-.27-.06-.32.06-.4.11-.79.21-1.19.32-.1-.08-.27-.02-.28.11-.32.2-.65.4-.97.6-.12-.05-.26.05-.24.18-.05.06-.1.12-.15.19l-.48.37c-.31-.33-.7.05-.66.37-.07.02-.14.03-.21.04-.05,0-.12.04-.14.1-.02.05-.03.1-.05.15-.01,0-.03.02-.04.02-.14-.04-.28-.07-.41-.11-.07-.02-.14.03-.18.09-.19.28-.41.35-.67.2-.18-.09-.32.16-.18.29.04.19.06.35.06.48l-.56.24s-.4-1.49-1.69,0c-1.29,1.49.1-.6-1.89,1.59-1.98,2.18.1,0-1.98,2.18-1.92,2.01-2.32,1-2.14,1.91h0c-.44.23-.89.65-.98,1.32-.09.66-.79.94-1.14,1.04-.35.1-.66,2.09-.81,2.2-.15.11-.2,1.49-.51,1.49h0c-.68,0-1.17-.11-1.26.39-.2,1.09-.79,2.03-.79,2.03l-.34.96c-.48-.21-1.08-.05-1.28.4-.19.42-.06.75.22,1.04-.03.09-.04.15-.03.24-.24.26-.58.52-.48.82.26,1-.96,1.16-1.25,1.75-.3.6.1,2.41-.4,3.09-.06.03-.09.09-.1.15-.42.8-.56,2.62-.67,2.9-.07.16.43-.02.84-.06-.07.12-.12.25-.15.4-.06.24.02.53.11.78-.09.43-.19.86-.28,1.3-.05.08-.09.15-.11.21-.03.14-.04.28-.03.43-.03.15-.07.31-.1.46-.01.07-.02.13-.03.2-.3.88-.34,1.02-.08,1.55.16.32.41.76.66,1.19-.01.03-.02.07-.04.1-.08.16.11.28.23.22.03.04.05.09.08.13.16.43.01.74-.24,1,.11.18.19.4.25.65.14.01.28.01.42,0-.11.17-.24.29-.34.42.03.22.05.44.06.67.04.11.06.23.09.34.07.02.14.03.21.04.01.02.02.03.04.05-.05.09-.1.17-.16.26.04.18.07.36.09.54.06-.09.12-.18.18-.27.09.11.18.23.06.51-.13.3.11.65.38.93-.05.14-.12.28-.2.41-.09.14.07.34.23.28.12-.05.25-.09.37-.13-.03.36.32.6.69.84.41.69.94,1.48,1.05,1.25.03-.07.06-.15.08-.25.09-.01.19-.02.28-.03.02.33.06.62.02.66-.05.07-.05.2.02.26.32.3.67.34.94.13.05.47.06.81.06.81,0,0,.5-1.29,0,.79-.5,2.08.5,2.58.5,2.58l-.1,1.19c-.99.4.99,1.59.99,1.59l.5.79s1.69,2.28,2.18,2.48l1.1,1.49s.21.05.21.13v1.46l-.56.4-.55.46c.69.59,1.09.46,1.09.46,0,0,.86-.79,1.26-.53.4.26.73.33.86.13.02-.03.06-.05.13-.09.18.14.34.3.49.48.27-.02.55.07.84.37,1.09,1.09,2.08,1.63,2.08,1.63l.99,2.22h.89s.02-.93.1-.82c-.22.11-.45-.3-.68-.18-7.74,3.05-10.14,3.14-10.77,4.56-1.05.37-2.86,1.01-5.69,2.55-.47.3-.88.52-1.27.79-1.16.81-1.94,1.46-2.36,2.13-6.49,6.48-12.57,16.81-20.58,27.43-4.24,4.3-9.1,9.61-10.94,13.09-3.31,6.26-5.47,8.63-3.88,12.96,1.59,4.32,8.63,13.37,10.37,15.97,1.73,2.6,11.91,13.18,14.42,16.21.18.22.37.44.56.67,2.49,2.97,5.92,6.82,7.36,7.77,1.16.77,2.95,2.03,5.28,2.2.24.02.48.01.73,0-1.11,2.18-2.13,4.22-2.28,5.26-.24,1.68-.59,5.82-.45,10.24-.52,2.6-.28,5,1.14,10.65.69,5.58,1.64,13,4.03,23.54,3.24,14.26,11.59,32.57,11.59,32.57l.34,4.29s.33,1.72.33,2.14-1.9,2.25-1.01,4.5c.89,2.25,1.23,2.79.67,4.83-.56,2.04-.34,3.54.33,5.15.67,1.61-.11,7.83,0,12.33.09,3.72,1.48,18.16,3.4,28.82,2.33,16.64,4.86,37.13,5.32,43.1.45.15.91.28,1.36.4,0,.32-.01.6-.03.81,0,0,.32.05.87.12-.64,2.29-2.37,8.76-2.94,13.27-.7,5.56-5.93,9.39,6.18,9.26,12.1-.13,9.08-4.17,8.83-6.65-.25-2.48,1.26-2.79,1.26-2.79l.28-12.8c.24-.03.48-.06.71-.1,0,0,2-4.95,2.94-13.59.13-4.41-1.26-23.95-.42-35.82.21-1.25.36-2.22.38-2.7.1-2.08-.05-6.63-.06-7.31.06.15.12.31.12.46h0c0,2.21,3.63,10.5,5.46,13.28,2.12,3.22,2.6,8.58,2.82,10.94.22,2.36-.21,4.61.24,7.61.45,3,.45,4.72,1.01,8.15.56,3.43.9,12.55,1.46,14.48.56,1.93.67,5.15.67,5.15.63.46,1.33.81,2.08,1.08-.72,5.89-3.49,10.8-3.51,15.13-.03,5.01-4.06,9.62,8.34,8.16,12.4-1.46,10.1-5.23,9.92-6-.18-.77.99-.38,1.77-4.16,0-1.49-1.67-9.29-2.44-13.6l.11-.17c.88-.22,1.73-.45,2.54-.68.85-24.57-.57-48.65-3.47-67.12-.27-2.99-.63-5.41-1.15-6.64-2.12-5.04-.78-8.04-2.01-9.65-1.23-1.61-3.69-4.72-3.46-9.54.22-4.83,3.02-21.23,5.92-30.35,2.9-9.12,9.27-26.92,10.05-36.89.51-6.57.59-14.76.2-22.41,1.46-.2,2-.31,2-.31,0,0,.46-1.3-2.99-10.89-1.34-9.84-2.9-16.15-2.9-16.15,0,0-.39,0-1.12,0-.4-2.52-.63-4.87-.73-7.1.47,1.72,1.46,4.52,2.62,9.31,3.04,7.52,6.56,17.22,9.22,25.93,2.66,8.71,3.71,12.57,2.94,15.24-2.28,6.43-2.09,7.42-1.81,10.49.28,3.07-.1,4.95-.38,9.3-.48,4.75.57,5.44,1.23,5.84.67.4.95.4,1.81-.69,1.9-2.67,1.39-9.4,1.39-9.4l.8-.99.95,1.39s-.1,1.29.28,4.35c-.48,2.18.28,4.65.28,4.65,0,0-1.24,1.98-3.71,5.34-1.33,1.98-1.9,3.46-.48,3.86-1.14,1.88-.1,2.08,1.11,4.12,1.27-1.19,1.27-1.72,2.54-3.03,1.27-1.32,1.39-.79,2.03-1.45.63-.66,3.3-6.07,3.68-6.33.38-.26.89-5.41,1.78-12.14.89-6.73.13-4.49-1.9-14.91ZM40.76,156.75c-1.53.58-2.9.65-4.17-.46-.06-.05-.11-.09-.17-.14-1.01-1.87-2.44-4.27-4.24-6.67-3.84-5.12-12.72-16.34-14.5-23.87.11-.29.25-.55.47-.75h0c3.43-2.87,10.36-8.77,15.43-13.61.97-.93,1.88-1.82,2.67-2.64,2.71-2.16,5.52-4.29,7.52-5.96,1.03-.84,1.99-1.11,2.98-.78.06.07.12.13.18.2.1,8.49.26,17.61,1.26,25.97,1.01,8.41-3.27,18.48-7.44,28.72ZM62.56,63.79c1.04-.45,5.54-2.74,6.39-3.94.27-.38.38-1,.4-1.75-.02.75-.13,1.38-.4,1.76-.84,1.19-5.35,3.5-6.39,3.94-.69.3-1.74.63-2.6.95,0,0-.01-.01-.02-.02.87-.32,1.93-.65,2.62-.95ZM64.89,360.62c.19.03.41.05.65.08-.26.05-.49.03-.65-.08Z"/>
  </g>
</svg>