<?xml version="1.0" encoding="UTF-8"?>
<svg id="Layer_2" data-name="Layer 2" xmlns="http://www.w3.org/2000/svg" viewBox="0 0 44.05 192.07">
  <g id="People">
    <path d="M18.14.1s-4.92-1.17-9.61,4.33c0,0-1.17,1.53-1.94,2.03-.77.5-1.13,2.66-1.85,3.84-.72,1.17-.5,2.39.32,3.25,0,0,.05.32.68.59,0,0-1.08-1.53-.32-2.39l.68-.41s-.63,1.44-.05,2.08c0,0,.32-2.21.68-2.3v2.57c0,.81-.23,1.67.05,2.26s1.13,1.8,1.22,2.39c.09.59-.59,3.52-.86,4.38-.27.86-.5,1.4-.09,1.62.41.23.77.14,1.49-.09,0,0,.41-.5.41,1.26,0,.9.77,1.49.95,1.35,0,0-.27.18.18.77.45.59,1.04,1.35,1.13,2.39.09,1.04.41,1.31.63,1.53s.77.36.77.36l-.5.77s0,.77.09,1.26c.09.5-.23.72-.14,1.04.09.32.23.86.5,1.49.27.63.23,1.13.18,1.53s-.27,1.17-.36,1.62c-.09.45-.9,2.03-1.22,2.75-.32.72-.23,1.13-.5,1.44-.27.32-1.31,1.8-1.44,2.12s-1.85,3.93-2.44,5.19c-.59,1.26-2.03,3.25-2.03,3.52v.27s-1.99,3.47-2.44,6.27c-.45,2.8-.23,2.93-.23,2.93,0,0-2.17,2.62-2.08,3.2s.18,1.4.14,1.85c-.05.45-.18.63,0,1.04s.05.54.27.77c.23.23.81.68.95.9.14.23.14,1.22.36,1.53.23.32.45.9.68,1.08.23.18,1.99,1.58,2.35,1.49.36-.09,1.04-.23,1.04-.23,0,0-1.04,3.11-.99,4.47.05,1.35.41,2.44,1.35,2.57l.95.14s-.27.95-.09,1.08c.18.14.36.05.45.23.09.18-.5.86.23,2.53.72,1.67,1.13,1.76,1.58,1.76s0,1.76,0,4.65.18,4.83.68,6.81.23,2.48.36,3.56c.14,1.08-.41,3.07-.27,5.55.14,2.48,1.76,17.1,2.35,20.17.59,3.07,1.58,8.08,3.29,11.82,0,0,2.39,5.28,2.75,6.09.36.81.68,3.61.81,5.82.14,2.21-.27,6.09-.99,8.66-.72,2.57-2.57,11.1-2.3,12.36s1.08,3.02,1.58,3.2c.5.18.77.09.77.23s-1.35,1.44-1.58,1.8c-.23.36-1.8,2.44-1.71,2.75.09.32.23.18.09.32-.14.14-4.56,4.33-7.99,5.1s-5.41-.05-5.55.14c-.14.18-1.04,1.44-.45,2.21,0,0-.23.72.14.86.36.14.81.54,3.16.77s25.49.86,27.34.59c1.85-.27,1.76-.27,1.85-.27s5.46-.18,6-.45c.54-.27-.41-3.52-.32-3.7.09-.18.36-.09.36-.09,0,0-.05-10.06-.27-11.73-.23-1.67-.14-10.65-.18-13.31s.41-12.09-.18-14.26c-.59-2.17-1.35-11.19-2.12-12.9-.77-1.71-1.76-2.62-1.71-4.06.05-1.44,1.8-9.07,1.71-10.06-.09-.99-.99-2.53-.14-4.02.86-1.49,1.89-1.31,1.94-3.61.05-2.3,1.35-6.59,1.99-7.9.63-1.31,3.16-8.62,2.75-11.69s-3.16-11.6-2.93-11.87,1.49-.81,1.67-1.08c.18-.27.27-2.98.68-3.7.41-.72.81-5.28.99-7.99.18-2.71.36-12.86.14-16.97-.23-4.11-.95-10.24-3.43-14.75s-8.93-10.92-8.98-11.23c-.05-.32-.05-.59-.18-.86-.14-.27-.63-2.93-.81-3.07-.18-.14-1.4-.72-2.08-.63,0,0-.27-.77-.14-.9.14-.14,1.71-3.07,1.81-3.75.09-.68-.18-1.49.05-1.71s.14-2.17.23-1.94c.09.23-.54-1.08-.54-1.49s.05-1.71-.09-2.08c-.14-.36-1.17-2.93-1.35-3.38-.18-.45-1.44-2.89-1.99-3.29-.54-.41-2.17-.95-2.21-1.08-.05-.14-.23-.36-.59-.59s-.54-.41-1.17-.59c-.63-.18-1.49-.59-2.03-.59s-1.58-.36-2.3-.31Z"/>
  </g>
</svg>