<?xml version="1.0" encoding="UTF-8"?>
<svg id="Layer_2" data-name="Layer 2" xmlns="http://www.w3.org/2000/svg" viewBox="0 0 181.17 221.43">
  <g id="People">
    <path d="M150.34,203.89l-4.07,17.5H34.97s-4.56-18.14-4.56-18.14l-2,18.17-28.41-.37,5.66-56.69c1.96-19.67,10.08-17.34,24.8-24.45,4.51-6.14,8.4-14.79,9.95-22.66,3.76-18.98-7.66-44.97,5.96-85.09C54.07,9.5,76.71-5.01,100.3,1.61l11.04,3.1c7.68,2.16,13.46,8.37,17.64,15.17,12.27,19.99,12.3,45.39,13.31,68.57,1.2,27.58,11.09,30.61,14.94,53.7,8.44,4.66,15.46,5.48,17.21,17.71,2.96,20.67,4.95,40.52,6.73,61.44l-28.26-.04-2.58-17.37Z"/>
  </g>
</svg>