<?xml version="1.0" encoding="UTF-8"?>
<svg id="Layer_2" data-name="Layer 2" xmlns="http://www.w3.org/2000/svg" viewBox="0 0 196.05 230.15">
  <g id="People">
    <path d="M196.05,230.13l-196.05.02c.35-21.65,1.41-42.9,6.21-63.58,2.63-11.34,9.59-19.12,20.14-23.12l20.24-7.67c8.37-3.17,14.7-8.47,20.48-15.32l4.9-5.81c1.72-2.04,1.57-8.11,1.4-10.99-3.53-6.06-6.62-12.28-8.63-19.17l-4.61-2.49c-2.83-5.14-10.09-24.24-1.5-27.02l-1.02-21.51c-.83-17.53,26.67-42.04,57.66-30.49,24.16,9,25.12,31.22,22.99,52.77,8.54,1.68.61,21.39-1.91,25.97l-4.36,2.75c-2.2,6.64-5.31,12.97-8.78,19.02-.65,2.72-.35,8.96,1.38,11.04l4.56,5.48c6.05,7.27,12.37,12.65,21.14,16.02l22.29,8.55c7.9,3.03,12.82,9.35,16.04,17.11,6.27,22.16,6.45,43.47,7.43,68.44Z"/>
  </g>
</svg>