<?xml version="1.0" encoding="UTF-8"?>
<svg id="Layer_2" data-name="Layer 2" xmlns="http://www.w3.org/2000/svg" viewBox="0 0 134.69 379.84">
  <g id="People">
    <g>
      <path d="M29.38,251.51c-.04-1.48-.08-3.05-.12-4.68.02,1.52.06,3.08.12,4.68Z"/>
      <path d="M97.41,357.27s0-.01,0-.02c-.01,0-.02,0-.04,0,0,0,.02.01.03.02Z"/>
      <path d="M134.66,203.67c.4-3.46-3.11-14.62-3.42-15.46-.36-.95-.65-4.42-.81-6.62-.08-1.16-.16-.9-.27-1.86,1.2-.41,2.25-.78,3.08-1.04-1.88-7.18-.66-6.79-1.66-11.5-1.32-5.37,1.16-29.74-1.99-45.04-2.4-11.66-6.47-30.28-10.21-43.22.31-2.64-.14-5.98-1.71-10.35-2.78-5.47-20.18-7.8-30.51-11.13-.78-.33-1.63-.62-2.5-.88-.04-.02-.08-.03-.12-.05,0,0,.02.01.02.02-.14-.04-.27-.08-.41-.12-1.54-1.92-2.49-4.59-1.61-10.03,1.27-1.83,1.55-2.39,1.67-2.89,1.5-.16,1.27-1.75,1.72-3.79.28-1.27.96-1.66,1.56-3.56.31-.51.6-1.02.86-1.56.24-.83.41-1.67.5-2.53.2-.33.42-.67.64-1.02.05-.02.11-.05.16-.09,2.2-1.7,1.7-5.94,1.21-8.67-.49-2.7-2.09-3.31-2.79-5.92-.01-.41-.06-.85-.13-1.32-.44-2.96-1.96-6.94-4.02-9.67-.65-.86-1.35-1.6-2.1-2.14-4.24-2.81-8.84-3.43-13.05-2.89-.65-.02-1.3-.01-1.94.04-.83-.16-1.68-.21-2.54-.15-1.48.11-3.2.74-4.66,1.74.73-.6,1.54-1.09,2.44-1.46.3-.12.12-.59-.18-.47-2.39,1.01-4.25,2.86-5.2,5.25-.14.15-.27.29-.4.45-3.11.87-4.58,2.76-6.09,5.55-.27.38-.74,1.29-.86,1.73-.89,2.24-1.09,4.74-1.09,7.19-.47.81-.83,1.64-.54,2.6.16.51.38.95.66,1.34,0,.02,0,.05-.01.07-1.97,2.99-2.12,6.95.25,9.64.27.3.71-.14.44-.44-.67-.76-.5-1.56-.82-2.4.59.94.85,1.74,1.61,2.51.25,1.06.77,2.37,1.09,3.35.56,1.69,1.72,4.42,2.85,4.98,1.43,3.74,4.9,9.42,5.8,11.13.5,1.27-.13,2.15-.13,2.15l-1.88.88c-.33.14-.64.27-.93.41-.26.11-.5.23-.71.35,0,0-.01,0-.02,0h0c-2.11,1.1-3.36,2.23-5.43,2.91-4.63,1.51-8.54,2.58-13.57,4.15-6.72,2.1-6.88,1.35-8.64,7.57-.22.78-.26,1.52-.15,2.25-4.41,13.85-2.09,43.88-4.27,52.28-2.58,9.92-15.15,38.04-15.15,38.04.69,1.69,2.6,3.21,4.91,4.52-1.15,2.89-2.06,5.15-2.54,6.22-1.49,3.31-4.92,6.23-7.97,12.24-3.06,6.01-3.5,9.7-2.8,13.51.7,3.81,1.13,4.26,1.8,5.69.67,1.43.55,2.57,2.48,2.97,1.93.4,1-1.12,1.93.4.93,1.52,2.03,3.4,3.74,1.95,1.71-1.46,0-3.27-.63-6.45-.63-3.19-.85-5.05.62-7.48,1.47-2.43,3.08-2.39,3.08-2.39,0,0-1.38,6.26-.88,7.33.5,1.07,1.46,2.67,2.21.8,1.89-4.7,2.65-7.29,3.33-11.02.51-2.8-2.02-4.8,1.84-11.41,1.21-2.06,2.94-4.54,4.89-7.22.18-.04.34-.12.46-.26h0c-.56,8.24-.36,16.06.57,13.54.4-1.07,1.63-2.3,3.21-3.6.23,3.86.72,8.81,1.01,16.37.46,11.92,1.08,32.25,1.47,47.19,0,.24.05.52.1.8-.01,1.14-.03,2.24.06,3.87-.02,0-.03.01-.05.01-.05,0,.13,1.79.48,4.89.05.43.1.89.16,1.37h0c2.59,22.4,12.07,97.25,12.4,97.21.42-.49.84-.89,1.26-1.23-1.28,2.56-3.08,5.18-4.98,7.46h0c-7.7,9.29-9.06,10.87-9.02,13.97-.31.21-.38.28-.39.63,0,.36.05,1.23.66,1.51.61.28,3.31.17,5.36.05,2.04-.11,5.66-1.09,8.36-2.14,2.69-1.05,9.09-3.98,10.43-5.42.32-.34.56-.67.76-.98,2.01-2.47,3.98-3.97,6.26-5.11.25-.11.57-.26.94-.44,0,0,0,0,.01,0h0c.98-.47,2.27-1.11,3.38-1.74,3.38-1.74,5.07-3.43,5.07-3.43,0,0-1.47-4.46-3.33-9.03.22-.36.42-.71.63-1.03-.01-.27-.03-.54-.05-.82.02-.02.03-.04.05-.06-.2-3-.42-5.9-.65-8.72-.01-.15-.02-.23-.02-.23h0c-2.49-30.17-6.39-49.42-8.44-62.95-.01-10.95,3.74-43.2,8.47-57.83.27-.47.52-.89.75-1.26,2.27,9.36,4.55,26.65,4.86,31.94.45,7.62,1.66,32.29,1.21,47.02-.45,14.74-2.57,42.22-1.81,46.69.76,4.47,2.57,12.25,2.57,12.25,0,0,.02,0,.05,0-.3,1.91-.7,3.94-1.23,5.02-.86,1.75-4.79,5.29-6.37,10.24-.32,1.44-.9,4.97-.87,5.94.03,1.03-.12,1.91.37,2.65.49.73.99,1.21,3.65,1.58s8.59.4,10.57,0c1.98-.4,7.35-3.2,8.56-4.52.84-.92.96-2.14.95-3.17.18-5.11.66-4.22,3.1-6.66.09-.08.17-.16.22-.23.59-.7.49-1.51.53-2.06.03-.55.15-6.61.15-7.97,0-.23-.02-.42-.04-.6,1.44-5.96,4.36-20.57,6.64-39.55.13-1.08.26-2.17.37-3.27h0c2.9-26.78-3.5-32.87,2.44-70.26.11-1.23.25-2.31.41-3.2,1.61-8.78,5.38-35.76,4.63-42.88-.23-2.16-.61-5.17-1.07-8.45.36-.28.76-.61,1.17-.99h0s.01,0,.01,0c1-.91,2.11-2.07,3.24-3.36,1.46.35,3.16.35,4.94.15,0,.15.01.3.03.42.35,3.39.6,5.77.17,9.29-.44,3.52,1.38,4.7.83,7.56-.06.32-.07.59-.07.82-.33,1.01-.74,2.39-.85,2.92-.17.78-.27,2.07-.35,3.06-.08.99-.18,2.17-.66,3.13-.48.96-1.44,4.16-1.33,5.27.11,1.1.7,1.15,1.48,1.42.78.26,2.12-.32,2.12-.32l1.15.49c-.47.86-3.95.77-4.37,1.03-.42.27-.12,1.48.45,1.73.58.25,3.47.19,3.47.19,0,0-1.19,2.39-1.4,3.67-.2,1.28.78,1.46,1.56,1.63.78.16,1.59-1.16,2.47-2.19.88-1.02,2.16-3.21,3.1-3.83.95-.62,2.08-1.12,3.32-2.81,1.24-1.69,3.46-6.88,4.02-8.83.23-.79.24-2.15.18-3.48Z"/>
    </g>
  </g>
</svg>