<?xml version="1.0" encoding="UTF-8"?>
<svg id="Layer_2" data-name="Layer 2" xmlns="http://www.w3.org/2000/svg" viewBox="0 0 194.77 225.17">
  <g id="People">
    <path d="M194.74,225.15l-194.64.02c-.4-17.16.31-34.42,4.16-51.36,2.79-12.26,11.13-20.93,23.11-23.98,9.23-3.07,40.94-9.22,43.95-18.85,1.49-4.79,3.8-13.31,1.37-17.97l-9.84-18.88c-2.14-1.05-5.51-2.57-6.71-4.96-3.65-7.24-7.96-16.27-5.52-23.93-2.2-13.72-1.86-28.35,4.83-41.04,1.87-3.55,5.87-7.07,8.59-10.22l6.52-2.48c2.17-5.8,7-7.18,12.35-8.89,11.1-3.54,22.43-4.06,32.68,2.46,9.22-.61,17.11,5.29,19.62,13.89,5.52,3.59,7.41,8.66,8.45,14.76l2.17,12.81c1.13,6.67-.37,12.78-1.13,19.19-.46,3.88.21,8.38-1.3,12.36-1.95,5.12-4.07,9.8-6.9,14.16l-4.91,1.75c-6.74,18.46-14.08,14.67-8.33,35.99,3.01,11.15,33.96,16.06,44.11,19.63,12.61,3.35,20.96,12.5,23.7,25.33,3.44,16.15,3.85,32.25,3.69,50.23Z"/>
  </g>
</svg>