<?xml version="1.0" encoding="UTF-8"?>
<svg id="Layer_2" data-name="Layer 2" xmlns="http://www.w3.org/2000/svg" viewBox="0 0 123.95 399.49">
  <g id="People">
    <path d="M123.86,394.78c-.09-.4-.18-.46-.58-.61-.75-3.7-2.63-5.03-15.69-15.33-.73-1.1-.81-1.11-1.33-1.61-.6-.77-1.17-1.53-1.66-2.23-.02-.06-.04-.14-.08-.23-.27-.64-.3-.79-.85-1.49-.08-.1-.15-.19-.22-.28.08-.08.16-.15.23-.24.03-.01.06-.03.1-.04.42-.19.51-.45.46-.78-.12-.82-.23-1.83-.33-3,0,0,0,0,0-.02.17-1.04.02-1.29-.15-1.91-.7-10.19-.82-28.96-.74-44.38.16-4.52.29-8.73.25-10.78-.09-4.74-.32-4.61,0-6.16.32-1.55.55-1.28.55-2.24s-.05-1.19.32-2.69c.36-1.51.36-1.37.59-3.33.23-1.96.41-1.73.41-3.56s-.36-1.37-.91-4.43c-.55-3.06-.73-5.84-.78-7.57-.05-1.73-.41-1.92-.27-5.79s-.5-4.33-.27-10.04c.23-5.7,1.19-10.13,1.51-14.28.32-4.15,1.41-5.47,1.87-11.31.17-2.24.55-4.82.98-7.47,1.5-3.45,5.33-10.87,5.55-11.92.28-1.33-.09-10.8-1.2-15.27h0c.71-.27,1.12-.46,1.12-.46,0,0,7.55-43.93,6.04-61.62-1.51-17.62-1.15-45.34-6-65.44.2-2.56-.34-3.82-1.95-7.1-5.18-3.79-19.58-10.38-25.01-11.77-.13-.5.12-3.98-6.16-7.12.18-2.75.51-5.94,1.15-8.7,1.03-1.99,2.45-3.69,2.16-7.96,3.03,1.52,3.69-.38,3.79-3.03.28-3.41.76-6.35.66-7.77-.09-1.42-.95-.95-1.61-1.04.28-3.41.85-19.61-14.97-23.31-9.66-2.08-14.78,3.13-16.77,4.36-1.99,1.23-6.16,6.16-5.4,16.77,1.04,2.75.85,3.6.85,3.6-3.13-2.65-2.65.76-2.08,3.22.76,4.74.95,8.05,3.41,8.34.85,0,1.23-.95,1.23-.95l.95,4.55s.14,3.5-.21,6.9c-.2,0-.41,0-.61.02-3.16-.25-5.05.13-6.57,2.15-1.52,2.02-4.18,3.54-4.3,4.93-4.42,1.26-5.49.34-12.56,2.61-7.07,2.27-14.72,5.24-16.11,6.63-3.22,8.53-2.46,12.48-3.98,17.79-.01.12,0,.26.02.42-2.68,14.4-7.61,56.48-7.78,57.56-.19,1.14-3.22,13.64,2.84,54.38.57,5.31.81,13.45.81,13.45,0,0,.32.05.86.12-.73,5.17.99,10.14,1.28,11.99.32,2.03,3.2,5.01,4.58,6.71,1.39,1.71,3.3,2.98,4.05,3.52,1.07.21,1.71,0,1.71,0,0,0,.64,1.92,2.24,1.81.22-.04.39-.09.53-.16.07,2.01.17,3.88.1,4.96-.14,2.24-.36,9.4-.32,13.5.05,4.11,1.09,10.49,1.55,13.5.46,3.01.27,7.39.32,11.95.05,4.56-.87,14.23-1,16.24-.13,1.84-.14,2.95-.87,4.98-.53,4.1-.8,7.3-.93,9.83-.12,4.77-.14,13.5-.07,20.46,0,.91.02,1.83.02,2.74-.18,1.12-.3,2.18-.32,3.16-.19,7.25-.12,18.43-.06,28.68.03,4.29.05,8.42.06,12.02h0c.05.25.1.55.12.94.09,1.6.78,1.55.73.96-.01-.15.02-.33.15-.51-.05.42-.07.86-.15,1.27-.02.12-.09.32-.18.57-.31,1.91-.79,4.66-1.51,5.9-.84,1.45-4.72,4.38-6.27,8.47-.32,1.19-.89,4.11-.86,4.91.03.85-.12,1.58.36,2.19.49.61.97,1,3.59,1.31,2.62.3,8.46.33,10.4,0,1.95-.33,7.24-2.65,8.42-3.74.83-.77.94-1.77.94-2.62.18-4.23,2.28-3.5,4.68-5.52.09-.07.16-.13.22-.19.58-.58.49-1.25.52-1.7.03-.46.15-5.47.15-6.6,0-.41-.06-.71-.15-.93.04,0,.08-.02.12-.03,1.09-.27.68-1.19,1.23-2.87,0,0,1.6-10.53,5.26-29.63h0c.36-3.9.62-7.67.82-11.38.55-8.67.4-9.87.58-14.64.18-4.79.09-5.84-.05-9.76-.05-1.4-.11-2.73-.16-4-.02-1.46-.05-2.93-.08-4.42,0-.62.02-1.22.06-1.8.18-2.92-.09-4.38-.27-7.85-.18-3.47,0-2.92,0-2.92l.36-1.6c.36-1.6.59-2.6.82-3.88.23-1.28,1.05-6.71,1.82-9.67.78-2.97,1.96-6.75,2.6-9.81.64-3.06.87-3.7,2.28-7.66,1.41-3.97,3.97-12.87,4.97-15.28,1-2.42,2.37-9.35,2.69-10.99s.73-1.55,1.19-3.51c.46-1.96.46-3.01.55-4.84.09-1.82.09-1.51.64-2.33s.55-.09.5.82c-.05.91.09,1.96.55,4.47.46,2.51,1.64,8.17,2.1,10.58.46,2.42.78,2.19,1.6,4.52.82,2.33.86,7.71.86,7.71,0,0,.1,2.74,0,4.24-.09,1.51.78,1.69,1.28,3.88.5,2.19.14,4.52.46,7.8.32,3.28.82,11.36.82,11.36l.45,3.19s.24,2.19.51,3.74c.27,1.55.78,1.41.96,3.47.18,2.05-.46,7.71-.23,9.58.23,1.87.09,2.37.05,4.74-.05,2.37.05,3.06-.78,5.11-.82,2.05-.46,2.87-.23,6.89.23,4.01.55,10.08.82,15.92.27,5.84-.87,6.93-.82,18.16.05,11.22.59,13.41.87,14.32s.5.96.82,2.69c.32,1.73.64.78.78,3.19.14,2.42-.32,2.24-.5,5.98-.18,3.74.59,2.28,1,3.65.41,1.37-.09,1.73.5,1.92.11.03.22.03.33.01-.17.37-.33.85-.46,1.43-.24,1.16-.24,5.93-.18,7.06.06,1.13.97,1.34,3.59,2.16,1.38.43,2.96.83,4.15,1.11h0s0,0,.01,0c.45.11.84.19,1.14.26,2.79.71,5.33,1.9,8.13,4.14.29.29.65.6,1.08.9,1.82,1.28,9.58,2.98,12.8,3.5,3.22.52,7.45.73,9.73.37,2.28-.37,5.29-.88,5.9-1.34.61-.46.46-1.43.36-1.82ZM19.68,161.55s4.54-33.34,4.69-35.26c-.96,11.66-2.88,33.28-4.66,46.16-.06-6.31-.04-10.9-.04-10.9ZM19.75,228.39c-.13-.48-.28-1.04-.46-1.71-.96-3.09-1.49-5.01-1.49-5.01,0,0,.21-2.34.96-.11.39,1.18.67,2.93,1.05,4.32-.05.78-.06,1.63-.05,2.5ZM21.43,206.7c-.01.8-.1,1.83-.21,2.92-.51-1.17-1.11-2.38-1.67-3.45.77-.46,1.38-1.05,1.72-1.79h0c.1.07.21.14.31.22-.08.66-.14,1.35-.15,2.1Z"/>
  </g>
</svg>