<?xml version="1.0" encoding="UTF-8"?>
<svg id="Layer_2" data-name="Layer 2" xmlns="http://www.w3.org/2000/svg" viewBox="0 0 48.09 166">
  <g id="People">
    <path d="M46.35,51.78c-1.7-5.19-2.15-11-2.15-11.45,0-8.8-4.53-9.75-4.53-9.75-.92-.61-1.9-.7-1.9-.7,0,0-.05-.19-.22-.19s-5.52-2.04-5.64-2.16c-.12-.12-.27,0-.27,0l-2.48-1.41c-.46-.22-.68-1.8-.7-2.89-.02-1.09.12-2.46.41-3.06.29-.61.95-2.41,1.02-2.63.07-.22.22-.49.41-.56.19-.07,1.05.22,1.31-.1.27-.32.39-1.53.97-2.31.58-.78.7-1.8.7-2.41s-.49-.85-.56-.9c-.07-.05-.27-.44-.12-1.24.15-.8.15-2.36-.02-3.6S31.7.92,26.55.12s-7.1,2.53-7.97,4.16c-.88,1.63-1.22,4.79-1.22,4.79,0,0-.05.46-.11.55s-.2,0-.4-.02c-.2-.02-.29.58-.4,1.23-.11.65-.02,1.25.2,1.81s.45,2.59.65,3.04c.2.45.65.29.65.29.09.85,1.03,2.66,1.07,2.8.04.13.2.98.2,3.44s-.38,3.6-.94,4.32c-.56.72-2.33,1.7-2.44,1.72-.11.02-.18-.07-.34-.07s-.29.27-.56.43c-.27.16-.42.22-.63.38-.2.16-.67.25-1.03.22-.36-.02-1.3.87-1.59.96-.29.09-.98.2-1.16.22-.18.02-.98.29-1.34.29s-1.86,1.1-3.2,2.28-2.51,5.06-2.71,7.45-1.43,10.83-1.57,11.79-.76,4.12-1.27,4.99c-.51.87-.67,4.07-.02,5.32.65,1.25,1.77,2.97,2.42,2.8.65-.18,4.12-2.17,5.26-2.93,1.14-.76,2.24-2.91,2.24-2.91,0,0,.04.47.09.6s.09,1.03.2,1.34.51.83.6,1.1c.09.27.16,1.39.2,1.63.04.25-.49,1.14-.63,1.5s-.42.87-.74,1.45c-.31.58-1.16,4.52-1.45,5.55-.29,1.03-1.14,3.11-1.39,4-.25.89-.07,4.36-.31,5.39-.25,1.03.31,11.09.29,12.77-.02,1.68.42,6.58.54,8.7.11,2.12.49,8.23.49,8.23,1.05.11,6.93.98,6.93.98,0,0,.6,1.61,1.1,3.58.49,1.97,1.27,4.21,1.27,4.21-.18,1.68.16,2.15.27,3.18.11,1.03-.2,5.12.49,9.57.69,4.45,3.06,13.89,3.47,15.59s1.05,3.56,1.1,4c.04.45-.45,1.39-.76,2.33-.31.94-.79,3.7-.79,3.7-.18.12-1.92,1.1-2.65,1.5s-2.25,1.16-2.44,1.24-.17-.12-.27-.21c-.1-.09-.55.09-1.23.54s-.39.64-.62.77-.94-.4-1.42-.37-.48.94-.52.95-.78.09-1.2.2-.09.79-.11.82c-.02.03-1.06.02-1.19.06-.12.03-.06.79-.06.79,1.32.49,11.74.27,11.74.27,0,0-.04.04.13.16.18.11,1.63.1,1.63.1,0,0-.07.08.27.2s9.32.1,9.32.1c0,0,.08-.59.09-.63.01-.04-.45-.22-.6-.24-.14-.02-.39-.17-.39-.17.79-.03.6-.62.6-.62-.11-.81-1.9-1.7-1.9-1.7.18-.81-.36-3.67-.63-5.55s-.72-4.83-.27-6.26c.45-1.43,3.4-9.84,4.83-14.49,1.43-4.65.98-8.86.45-13.6-.54-4.74.72-10.74.72-10.74,0,0,6.17-.98,7.16-1.07.98-.09,2.68-1.16,2.68-1.16,0,0-2.33-21.2-2.59-22.64s-.98-6.17-1.43-8.23c-.45-2.06-1.7-6.8-2.68-8.59-.98-1.79-1.88-5.19-2.24-5.99-.36-.81-.89-.63-.63-1.34.27-.72,0-1.07.18-1.43.18-.36.72-.27.72-.27,0,0,1.79,1.25,3.49,1.88s3.85,1.61,4.92,1.88c1.07.27,2.06-1.16,2.06-1.16,2.33-3.49-.89-12.08-.89-12.08ZM9.84,52.19s-.63.52-.78.63c-.15.11-.45.34-.54.26-.09-.07-.58-.09-.52-.26.06-.17,1.12-5.03,1.12-5.03,0,0,.35,1.03.61,1.85s.11,2.55.11,2.55ZM40.52,55.66c-.13.06-.88-.3-.88-.3-.15-.6-1.25-1.36-1.83-1.51-.58-.15-1.01.15-1.01.15,0,0,.17-1.1.26-2.5s.82-3.65.82-3.65c.41.45,2.11,5.7,2.37,6.35.26.65.39,1.4.26,1.45Z"/>
  </g>
</svg>