<?xml version="1.0" encoding="UTF-8"?>
<svg id="Layer_2" data-name="Layer 2" xmlns="http://www.w3.org/2000/svg" viewBox="0 0 166.13 163.39">
  <g id="People">
    <path d="M166.13,163.39c-3.63-23.15-3.3-31.23-20.82-40.56-4.09-1.77-8.44-3.93-13.05-6.21.92-4.76,4.85-29.37-4.29-65.75-.63-2.49-1.27-4.86-1.94-7.12-.85-5.63-2-11.21-3.72-16.68-2.36-7.49-6.72-15.68-14.53-17.59-.16-.14-.31-.27-.47-.4C104,3.67,97.33.69,89.96.1c-7.23-.58-14.17,1.45-20.51,4.27-4.11,1.08-5.54,2.06-5.54,2.06-13.61,6.61-22.22,19.82-21.62,55.65,1,23.42.24,40.51.62,41.98.03.1.35.32.88.62-7.42,1.88-14.73,4.03-20.08,5.85-11.82,11.22-9.93,1.5-23.68,51.56-.11.28.08.74.49,1.31h165.62ZM117.42,19.26c-2.04-2.89-4.56-5.45-7.45-7.61-.17-.18-.33-.36-.5-.53,3.45,1.68,6,4.65,7.95,8.14ZM85.28,1.34c5.69-.48,11.69.76,16.02,3.65-5.1-2.6-10.47-3.36-15.97-2.96-3.4.24-6.28.57-8.75.93,2.8-.78,5.68-1.36,8.7-1.61Z"/>
  </g>
</svg>