<?xml version="1.0" encoding="UTF-8"?>
<svg id="Layer_2" data-name="Layer 2" xmlns="http://www.w3.org/2000/svg" viewBox="0 0 64 186.87">
  <g id="People">
    <path d="M14.61,28.11s2.05-1.13,2.35-3.49.52-4.27-.22-5.97c-.74-1.7-3.27-5.8-2.66-8.02.61-2.22,1.44-5.93,2.92-6.62,1.48-.7,1.83-1.05,1.96-1.26s.57-.61.87-.7,1.09-.39,1.22-.52.78-.74,1.17-.91c.39-.17,2.13-.66,2.48-.61.35.04,2.71.61,3.23.79.52.17,3.4.61,4.05.96.65.35,1.87.78,2.48,1.96s.74,1.74.87,2.44c.13.7.78,1.92,1,3.27s.57,3.09.13,3.83c-.44.74-.04,2.14.7,3.27s1.18,2.35.57,2.7c-.61.35-1.53-.04-1.61.52s-.04,1.31-.17,1.74-.61.26-.65.48c-.04.22.17.65.17.96s-.74.48-.74,1.48.09,1.74-.7,2.27c-.78.52-3.75.09-5.19,1.26-1.44,1.18-1.96,3.49-1.79,4.84.17,1.35.04,1.26.35,1.18.31-.09.61-.65.87-1.66.26-1,.26-2.83,1.61-2.57,1.35.26,33.34,7.19,33.34,7.19,0,0,1,.39.7,1.61s-5.36,23.62-5.36,23.62c0,0-.87,1.22-1.96,1.44l-.65.35s-.13.44-.44.61-1.09.13-1.09.13c0,0-6.62,3.14-7.19,3.31-.57.17-4.71-.74-4.71-.74,0,0-1.31,3.44-2.53,5.01-1.22,1.57-2.09,2.22-2.14,2.66-.04.44.09,6.23.22,6.58s1.57.78,1.48,1.57-1.83,1.35-1.13,3.36c.7,2,1.26-.04,1.26,2.27,0,0-.04.39.52,1.48s.65,1.39.39,2.18c-.26.78-.31,2.31-.39,3.27-.09.96.22,4.36.44,6.01.22,1.66-.09,3.18,0,3.92s-.96,4.97-1.44,7.06-.31,5.97-1.09,8.5c-.78,2.53-2.79,9.54-2.48,10.85.31,1.31,1.53,4.31,1,6.01s-1.87,3.36-1.92,5.45-.26,5.23-.74,6.32c-.48,1.09-.35,3.05-.26,5.19.09,2.14.65,5.8.78,7.5s1.48,6.8,1.44,7.63c-.04.83-.92,5.14-1.61,5.58-.7.44-1.48.44-1.74.61s.13.7.26.83c.13.13,2.05,1.44,2.44,1.74.39.3.57.65.87.96s1.74.92,2.05,1.22c.31.3.44.65.78.74.35.09,1.05.39,1.66.39s2.83-.48,3.88.26c1.05.74,1.18,1.87.39,2.83-.78.96-1.7,1.39-4.31,1.39s-19.04-.31-19.04-.31c0,0-.7-.39-.65-1.92.04-1.53.22-1.79.04-1.96s-.39-.52-.31-.92.22-.78-.09-1.13c-.31-.35-1.61-1.13-1.48-1.87.13-.74,1.05-1.18,1.13-2.22.09-1.05,0-1.53.09-2.27.09-.74.04-5.45,0-6.45s-1.53-9.98-1.22-12.33.7-7.36.61-8.5c-.09-1.13-.17-3.05-.04-3.66.13-.61.13-2.31.13-2.31,0,0-.78,5.19-1.87,6.8-1.09,1.61-2.79,4.05-2.7,5.71.09,1.66.52,6.32.39,8.67-.13,2.35.13,8.93-.3,9.67-.44.74-1.18.96-1.22,2.14-.04,1.18.35,3.44.09,4.1-.26.65-.22.48-.22.48,0,0,2.4,1.92,2.53,2.96,0,0,.04.52.7.74.65.22,2.27.26,2.48.91.22.65.91,1.79-.04,2.83-.96,1.05-1.53,1.09-1.87,1.05-.35-.04-13.6.13-14.21,0-.61-.13-3.36-.13-3.36-1s0-1.74.13-1.96c.13-.22.44-1.44.57-1.79.13-.35-.57-.44-.57-.44,0,0,.61-1.53.74-2.18.13-.65-1.22-.44-1.05-3.05.17-2.61,1.13-3.4,1.44-3.75.31-.35.61-4.18.48-5.27s-.7-4.14-.87-6.71c-.17-2.57-.44-10.15-.09-13.68.35-3.53,1.48-12.77,1.61-14.86.13-2.09,2.61-12.07,2.83-13.47.22-1.39-.65-5.71-.39-7.32s-.39-5.4-.31-7.02-.22-1.96-.35-3.05c-.13-1.09.44-6.32.52-7.45.09-1.13.13-1.83.48-2.83.35-1,.78-2.88.92-3.57.13-.7.48-1.83.52-2.22.04-.39,1.05-4.66,1.05-4.66,0,0-.57-.44-.04-1,.52-.57,1.05-2.14,1-3.01-.04-.87-1.53-4.62-.52-6.06,0,0-.87.04-1.61-.83-.74-.87-2-3.7-2.48-6.97-.48-3.27-.65-9.76-.65-9.76l-.31-.04s.35-2.44.22-3.05c-.13-.61-1.31-5.53-.87-7.1s4.09-8.72,4.58-9.54c.7-1.18,3.14-2.88,3.92-3.18.78-.31,3.27-1.7,3.53-1.87Z"/>
  </g>
</svg>