<?xml version="1.0" encoding="UTF-8"?>
<svg id="Layer_2" data-name="Layer 2" xmlns="http://www.w3.org/2000/svg" viewBox="0 0 197 163.87">
  <g id="People">
    <path d="M0,163.87h197c-1.04-7.06-2.29-13.87-3.83-20.25.38-4.7-.62-7-3.57-13.02-9.5-6.95-35.92-19.05-45.88-21.59-.23-.92.22-7.3-11.29-13.06.32-5.04.94-10.9,2.11-15.97,1.88-3.65,4.49-6.78,3.97-14.6,5.56,2.78,6.78-.7,6.95-5.56.52-6.26,1.39-11.64,1.22-14.25-.17-2.61-1.74-1.74-2.95-1.91.52-6.26,1.56-35.98-27.46-42.75-17.73-3.82-27.11,5.74-30.76,7.99-3.65,2.26-11.3,11.3-9.91,30.76,1.91,5.04,1.56,6.6,1.56,6.6-5.74-4.87-4.87,1.39-3.82,5.91,1.39,8.69,1.74,14.77,6.26,15.29,1.56,0,2.26-1.74,2.26-1.74l1.74,8.34s.26,6.41-.39,12.65c-.37.01-.75.02-1.12.03-5.79-.46-9.27.23-12.05,3.94-2.78,3.71-7.66,6.49-7.89,9.04-8.1,2.32-10.07.62-23.05,4.79-12.98,4.17-27,9.62-29.55,12.17-5.91,15.64-4.52,22.9-7.3,32.63-.02.22-.01.48.03.78-.69,3.71-1.46,8.41-2.28,13.77Z"/>
  </g>
</svg>