<?xml version="1.0" encoding="UTF-8"?>
<svg id="Layer_2" data-name="Layer 2" xmlns="http://www.w3.org/2000/svg" viewBox="0 0 179.15 181.19">
  <g id="People">
    <path d="M179.12,181.19c.03-1.44.04-2.82,0-4.11-.41-17.9-6.76-38.65-7.79-40.91-1.03-2.26-6.76-12.68-11.49-14.94s-9.77-5.28-16.14-7.54c-6.38-2.26-11.24-2.42-13.56-3.27-1.69-.62-2.55-.62-3.05-.26-9.79-3.49-15.37-4.73-18.54-7.67-1.66-1.69-5.63-6.22-5.44-8.54,1.74-3.15,9.38-13.93,10.47-19.58,2.05-1.77,3.35-2.5,4.27-3.21-.78,6.7-3.62,13.5-.62,19.84-.38,1.23-.85,2.35-1.46,3.29-2.14,3.3-2.5,4.41-2.43,4.74-.12.42-.18.85-.16,1.28,0,0,0,.01,0,.02,0,.05,0,.09.02.13.03.41.14.83.33,1.24.28.24.58.46.88.67.08-.11.1-.27,0-.4-.33-.44-.51-.87-.59-1.3.09,0,.17-.06.21-.16.05-.12.09-.25.14-.37.19.18.51.21.66-.09,2.36-4.55,7.94-5.55,11.5-8.89-1.47,1.75-3.16,3.31-5.01,4.64-.21.15.06.46.27.3,4.82-3.49,8.33-8.41,10.07-14.1,1.58-5.17,1.55-11.65-.69-16.74-.26-7.07-2.18-11.65-3.3-13.51-1.62-2.71.17-3.1-3.86-23.63-.03-.15-.07-.28-.1-.42-.35-1.85-.83-3.67-1.45-5.44-2.1-10.43-10.71-18.56-21.43-19.85-.46-.12-.93-.23-1.39-.32-5.77-1.99-11.36-2.65-14.95-1.52-15.64,4.57-18.24,9.6-22.09,14.17-3.85,4.57-7.2,14.91-10.32,20.2-2.37,4.01-3.07,7.19-3.9,11.41-2.98,6.11-7.25,12.01-6.11,18.91-.05.78,0,1.57.16,2.39.13.64.34,1.34.6,2.08,0,.02,0,.05.01.07.02.06.05.12.07.18.18.5.38,1.02.61,1.56,3.75,9.23,9.39,17.58,17.05,23.98.04.03-.05-.15,0-.14,0-.05,0-.14,0-.25.13,4.66.22,7.64.22,7.64-.44,3.91.62,4.49-2.1,7.39-1.01,1.08-2.4,2.16-3.74,3.1-.42-.52-.88-.82-1.77-1.02-1.34-.31-8.87,1.08-15.46,3.03-6.58,1.95-13.11,3.58-17.98,7.39-7.71,6.02-7.84,10.52-11.75,19.16-3.49,7.71-6.15,25.18-8,39.38h179.12ZM118.26,70.82s.02-.02.04-.03c.3,5.79.65,13.41-.72,19.03-2.42-5.96.1-12.58.69-18.99ZM117.44,95.86c.34-.46.66-.93.94-1.42.84-.19,1.65-.43,2.41-.76.03.04.07.07.11.09-1.19.66-2.38,1.31-3.46,2.08ZM129.52,84.5c.69-1.95,1.03-4.04.88-6.1.02-.8.05-1.59.09-2.39.09-.05.12-.19.06-.27,0-.04-.01-.08-.04-.11.16-2.78.41-5.54.74-8.31.45,1.56.82,3.14.99,4.81.34,3.27-.04,6.6-.93,9.76-.69,2.44-1.77,4.74-3.16,6.84.59-1.15.97-2.41,1.25-3.66.04-.19.07-.38.11-.57ZM128.48,83.51c.29-1.25.41-2.53.38-3.81.09-.21.18-.41.27-.62.07.85.07,1.69,0,2.52-.07.6-.16,1.19-.26,1.78-.18.82-.43,1.63-.75,2.4.21-.61.39-1.24.51-1.89.03-.17-.04-.3-.14-.38ZM128.09,81.32c-.07,1.14-.24,2.28-.49,3.45-.94,3.47-3.2,6.28-6.23,7.93,2.87-2.47,4.77-5.73,5.59-9.36.4-.67.79-1.33,1.14-2.01ZM126.09,84.71c-1.28,3.52-3.72,6.62-6.86,8.69-.11.07-.15.17-.15.26-.06.02-.12.04-.18.06,2.31-2.49,4.99-5.65,7.2-9.01ZM119.11,15.74c-.98-1.51-2.11-2.95-3.42-4.28-3.11-3.33-6.48-5.7-9.88-7.28,5.74,2.09,10.47,6.25,13.3,11.57ZM47.29,50.8c-.96,4.49-3.41,7.91-4.58,11.4.21-4.72,2.77-9.06,5.01-13.45-.13.66-.27,1.34-.42,2.05ZM56.53,59.22c-.05,1.12-.09,2.16-.12,3.15-.08-1.02-.03-2.07.12-3.15ZM54.74,59.97c.09-.13.03-.28.13-.42-.07.21.1.42.03.63-.48,1.45-.87,2.91-1.24,4.37-.17-.01-.51-.03-.51-.04.64-1.52.96-3.03,1.6-4.55ZM53.63,64.64c-.35,1.4-.69,2.8-1.08,4.2.06-1.56-2.05-2.73,1.08-4.2ZM56.84,75.28c-1.59,3.1-1.83,5.53-1.77,6.31.03.45-1.19-1.45-2.16-3.99-.56-2.55-.66-5.13-.48-7.78.82-2.91,1.63-5.83,2.31-8.77.05.63.25,1.14.53,1.54.32.45.72.72,1.12.87-.34,11.87.65,13.86,3.91,19.82-1.88-3.08-2.91-5.64-3.45-7.99ZM58.33,92.18c1.27.62,1.83.64,2.19.94-.07-.95-.08-2.24-.1-3.93.04,1.8.09,3.49.13,5.01-.88-.76-1.38-1.22-2.22-2.02Z"/>
  </g>
</svg>