<?xml version="1.0" encoding="UTF-8"?>
<svg id="Layer_2" data-name="Layer 2" xmlns="http://www.w3.org/2000/svg" viewBox="0 0 34.81 180.19">
  <g id="People">
    <path d="M17.54.16c-2.36-.6-6.65.33-8.86,4.95-2.21,4.62-2.06,4.95-2.51,6.74-.45,1.79-1.52,6.59-2.15,8.35s-2.06,7.31-2.27,9.51c-.21,2.21-.27,4.32-.48,6.05,0,0-.51,2.45-.81,2.98,0,0,1.04-3.07,1.25-3.76,0,0-.95,4.65-.54,7.25.42,2.59,2,3.4,2.21,4.41,0,0-.98-2.62-.63-4.65,0,0,.39,3.07,2.42,5.43,0,0,1.4,2.51,1.76,3.22.36.72.69,2.68.98,3.49.3.81.72,3.37.95,4s-.03,1.1-.15,1.55c-.12.45-.33.81-.27,1.31.06.51.06,1.43-.03,1.7-.09.27-.45,1.01-.33,1.52.12.51.36.98.24,1.34-.12.36-.95.95-1.1,1.58-.15.63-.75,1.16-.95,1.64-.21.48-1.13,2.18-1.28,2.74s-.6,1.91-.75,2.42c-.15.51-.51,2.36-.75,2.89s-.6,1.16-.57,1.76c.03.6-.12.63-.21,1.13-.09.51-.45,3.4-.15,5.37.3,1.97,1.46,6.17,1.94,7.13.48.95,1.04,1.73.92,2.45-.12.72.18,1.13.54,1.37,0,0-.39.95-.18,1.79.21.84.92,1.97.95,2.59s-.78,1.16-.54,2.42.78,4.32.89,4.95-.98,2.03-1.07,3.19c-.09,1.16-.27,3.94.48,4.95.75,1.01.98.92.6,1.58-.39.66-1.19,2.95-1.37,4-.18,1.04-.54,2.09-.18,2.95.36.86.33.81.18,1.04-.15.24-.72.78-.66,1.28s-.36.95-.51,1.46c-.15.51-.33.89-.3,1.16.03.27.09.86-.06,1.1-.15.24-.63,1.76-.81,3.07-.18,1.31-.83,7.1-1.13,8.59s-1.31,8.86-1.4,10.65c-.09,1.79.36,7.31.57,8.14.21.84.45,1.16.12,1.58s-.66,2.03-.84,2.8c-.18.78-.36,1.16-.33,1.37.03.21-.42,1.64-.42,1.85s.72,1.28.92,2.53c.21,1.25,1.07,5.61,1.13,8.02,0,0,.51.24.89.24,0,0-.09.78.98.78,0,0,.83.24.72-1.55-.12-1.79-.18-5.4.24-5.88.42-.48.75-.63,1.1-.42.36.21,3.46,2.65,4.06,3.7.6,1.04.75,2.21,1.25,2.56.51.36.95.69,1.22.75,0,0,.42.66,1.4.78.98.12,8.32.15,9.22.03s2.39-.54,2.36-.63-.03-.81-.03-.81l-.36-.12s-.21-.69-.24-.84c-.03-.15-.24-.39-.24-.39l-.09-.36s-3.67-1.4-4.06-1.79h-.6s-1.13-1.43-1.91-3.01c-.78-1.58-.75-1.7-.81-2s-1.04-1.76-1.1-2.15c-.06-.39.09-2.89-.03-3.58-.12-.69-.24-1.43-.54-1.82s-1.16-.78-.89-1.1,1.31-.98,1.31-1.82-.21-4.12-.3-5.43c-.09-1.31-.03-4.74.03-5.46.06-.72.6-3.88,1.01-5.99.42-2.12,1.37-9.78,1.52-10.89.15-1.1.57-2.24.42-2.68-.15-.45-.81-.18-.3-.69.51-.51,1.7-1.58,2.06-2.18.36-.6.42-1.58.57-1.73.15-.15.3-.81.45-1.37.15-.57.03-1.43.24-1.73.21-.3.66-1.55.69-3.31s.42-5.97.75-7.19c.33-1.22,1.49-5.76,1.7-8.47s1.43-10.59,1.52-11.78-.09-6.35.15-7.1c.24-.75,1.13-3.55,1.4-4.44s.27-2.8.45-3.01c.18-.21.36-.36.42-.63s.48-2.53.21-2.95-.6-.81-.63-1.13c-.03-.33.12-2.36.18-2.57.06-.21-.03-4.53-.12-5.61-.09-1.07-.42-2.42-.21-2.36.21.06.89.63,1.4.51.51-.12,1.28-.6,1.52-.78.24-.18.84-.95,1.13-1.07s1.1-.42,1.43-.81c.33-.39.81-.57.89-2.06.09-1.49.33-1.64.3-1.82-.03-.18-.95-2.65-1.34-3.22s-.86-1.94-1.07-3.01c-.21-1.07-.51-1.94-.69-2.62-.18-.69-.75-1.79-.86-2.21-.12-.42-.81-1.7-1.01-2.24-.21-.54-.72-1.73-.66-2.27.06-.54-1.16-4.32-1.97-5.19-.81-.86-1.61-4.62-2.3-6.23-.69-1.61-2.56-2.8-2.68-3.22,0,0-.15-1.4-.06-1.4s2.21.98,3.46.81,2-1.07,2.06-1.94c.06-.86,0-1.07.06-1.22s.3-.6.3-.89-.63-1.88-.42-2.36c.21-.48.39-.54.45-.92s.45-1.73-.03-2.71c-.48-.98-.42-1.22-.39-1.46.03-.24-.12-.42-.09-.57.03-.15.42-.15.6-.3,0,0-.69.03-.54-.54,0,0-.12-.69-.09-.86.03-.18-.21-.86-.27-.95-.06-.09-.42-1.07-.69-2.03s-.57-.98-.36-1.31.48-1.34.3-1.55c-.18-.21-1.49-.78-2.56-1.55-1.07-.78-1.97-1.73-6.41-2.86Z"/>
  </g>
</svg>