<?xml version="1.0" encoding="UTF-8"?>
<svg id="Layer_2" data-name="Layer 2" xmlns="http://www.w3.org/2000/svg" viewBox="0 0 63.01 170.8">
  <g id="People">
    <path d="M36.58.06c-2.11.35-6.42,2.02-8.62,7.52s-4.46,9.3-5.2,11.38l-1.22.92s.12.67.31,1.35c0,0-2.08,1.77-2.51,3.73,0,0-.24.86-.18,1.22,0,0,1.53-3,2.32-3.18,0,0-1.41,2.75-2.08,3.12-.67.37-2.26.79-2.39,1.71-.12.92-1.1.49-1.96,1.59-.86,1.1-1.1,2.94-1.28,4.53-.18,1.59-.43,4.22-.67,5.81-.24,1.59-.73,4.34-.73,5.32s-.49,3-.98,3.91c-.49.92-.61,2.45-.61,3.24s-.49,1.35-.24,2.02c.24.67.18,1.9.31,2.63.12.73.37,1.16.55,1.71.18.55.12.98.43,1.47s.86,1.47,1.35,1.71c.49.24,1.96,0,3.55-.55,1.59-.55,1.83-.86,2.26-.73.43.12.49.06.55.37.06.31.24,3.85.43,5.26.18,1.41.24,3.67.55,5.2.31,1.53.18,2.81.37,3.67.18.86.55,1.22.73,1.53.18.31.12.86,0,1.41-.12.55-.37,1.22-.06,2.02.31.8-.92,2.75-1.47,4.46-.55,1.71.31,2.39-.06,3.43-.37,1.04-.73,2.32-.73,3.12s-.12,2.63-.37,3.42c-.24.8-.49,2.2-.73,3-.24.8-.49,2.69-.37,3.12,0,0,.31.8,1.04,1.16,0,0-.73,5.99-1.59,8.81-.86,2.81-2.14,9.66-4.22,13.09-2.08,3.43-5.44,11.56-5.99,17.74-.55,6.18-.92,11.8-1.59,14.31-.67,2.51-1.65,4.83-1.65,6.3s-.8,2.94-1.16,4.04c-.37,1.1-1.03,1.85-.8,2.57.06.18-1.53-.06-1.71.55-.18.61-.12,1.35-.12,1.35,0,0,4.46.86,15.72.06,0,0,.67-1.1-.8-1.28,0,0,0-1.28-.43-2.02-.43-.73-1.16-.98-1.1-1.22.06-.24-.06-.86-.8-1.04-.73-.18-.86.24-.86.24,0,0-1.77-1.83-1.59-2.51.18-.67.18-5.02,1.1-6.54.92-1.53,5.63-10.28,7.34-15.17,1.71-4.89,2.39-10.83,3.73-12.54s2.08-2.94,3.3-5.2c1.22-2.26,4.83-11.13,5.75-13.88.92-2.75,2.69-6.42,2.69-6.42l4.95.31s.61.55.55.98c-.06.43-.06,7.4-.24,9.36-.18,1.96-.43,7.16-.18,9.48.24,2.32.37,4.83-.86,10.15s-1.16,10.58-.49,15.47c.67,4.89,1.28,11.38.8,14.5-.49,3.12-.43,4.34.43,5.75l-1.96-.06s-.49,1.22-.06,1.35c.43.12,22.51,0,22.51,0l.06-.73-.86-.18s.24-.49,0-1.04-.98-.8-1.41-1.04c-.43-.24-1.1-.67-1.35-.61-.24.06-.06-.37-.06-.37,0,0-.06-1.04-3-.92,0,0-5.99-3.06-6.79-3.73,0,0-.49-5.2.31-9.42.8-4.22,2.51-14.74,2.75-16.64.24-1.9,0-8.01.43-9.54.43-1.53.31-2.87.49-4.65s1.65-4.71,2.39-8.62c.73-3.91,1.65-8.32,2.08-10.34,0,0,3.24-.18,4.53-.98,1.28-.8,1.28-1.35,1.28-1.35,0,0-1.1-3.36-1.1-3.98s.06-1.71-.12-3.3-.92-2.45-.92-3.91-.12-3.67-.37-4.53c-.24-.86-.86-2.51-1.16-3.36-.31-.86-.55-1.1-.49-1.53.06-.43-.67-1.47-.67-1.96s-.12-1.9-.31-2.87c-.18-.98-.43-2.26-.73-3-.31-.73-.8-1.28-.98-2.2-.18-.92-.86-3.61-.61-4.16.24-.55.49-1.04.8-1.47.31-.43.8-1.59,1.53-4.4.73-2.81,1.04-5.63,1.71-6.36.67-.73,1.71-1.28,2.26-1.96.55-.67,1.35-1.22,1.71-1.35.37-.12.61-1.16.73-1.41.12-.24.73-.31.98-.98.24-.67.49-2.81.31-2.81s-.92.37-1.22,1.28c0,0-.23.74-.57.78-.34.04-.54-.16-.39-.33.15-.16.79-1.13.98-1.49.19-.36.39-1.1.45-1.29.06-.19.26-.81.3-.98.04-.16-.04-.56-.49-.34-.45.23-1.5,2.03-1.73,2.27-.23.24-1.2,1.26-1.75,1.49-.55.23-1.49.26-2.25-.18-.76-.44-1.05-1.29-1.42-1.95-.36-.66-.96-2.03-1.59-1.9-.63.13-.68.65-.31,1.58.36.93,1.09,2.09.93,2.65-.16.56-.3,1.67-.15,2.62.15.95.45,1.06.15,1.9-.3.84-.5,1.57-.68,1.84s-.36.35-.48.33c-.11-.02-.23-.41-.24-.6-.01-.19-.4-1.95-.38-2.63.02-.68-.14-4.67.1-5.28.24-.61.2-1.11.24-1.58.04-.46.04-.81,0-1.14s.05-2.78-.03-3.46c-.08-.68-.14-1.65-.35-2.08-.21-.43-.44-.73-.5-.9-.06-.18-.78-1.87-1.3-2.18s-1.4-.9-1.39-1.19c.01-.29.11-.71.11-1.16s-.45-1.26-.45-1.63c0,0-.03-3.56,2.18-6.39,2.21-2.83.63-6.86.33-10.47-.3-3.61-.18-4.09-.18-4.65s-.69-1.28-1.19-1.85c-.51-.57-.33-.78-.69-1.25-.36-.48-2.03-1.4-2.68-1.73s-.57-.6-1.07-.84c-.51-.24-2.54-.54-2.8-.63-.27-.09-1.01-.75-1.97-.92-.95-.18-3.11-.26-3.88-.13Z"/>
  </g>
</svg>