<?xml version="1.0" encoding="UTF-8"?>
<svg id="Layer_2" data-name="Layer 2" xmlns="http://www.w3.org/2000/svg" viewBox="0 0 160.59 177.42">
  <g id="People">
    <path d="M160.45,177.42c.43-16.88.31-33.67-6.8-50.65,0,0,0,0,0,0h0c-.19-.45-.4-.91-.6-1.38-.3-5.87-7.66-7.46-21.76-9.74.74-1.21,1.27-2.56,1.56-4.02,1.33-6.66-3.54-11.42-8.86-14.46,1.55.7,3.14,1.34,4.55,2.29,1.47,1,2.72,2.28,3.73,3.73.39.34.76.69,1.13,1.06.07-.09.19-.16.33-.21-1.57-2.72-3.87-4.95-6.79-6.49-3.35-1.77-6.98-2.32-8.21-6.48-.37-1.24-.36-2.49-.11-3.71.81-1.16,1.93-2.46,3.37-3.97l-.03-.05c1.67-2.05,2.2-4.46,1.28-10.3-1.38-8.77-4.23-6.86-5.13-13.28.02,0,.03.01.05.02.15.19.31.39.46.58.22.34.44.68.66,1.01.09.13.21.18.32.18.53.63,1.07,1.25,1.65,1.85.09.1.2.15.31.17.04.04.07.09.1.13-.1-.14-.2-.29-.29-.43-.09-.13-.18-.26-.26-.39-.08-.12-.15-.24-.22-.36-.08-.14-.17-.27-.25-.41-.05-.09-.1-.19-.15-.28-.17-.3-.33-.6-.48-.91-.19-.4-.38-.8-.54-1.21-.02-.06-.05-.13-.07-.19-.07-.2-.14-.39-.21-.59-.03-.1-.06-.2-.09-.31-.05-.16-.09-.32-.14-.48-.03-.11-.06-.23-.08-.34-.03-.15-.06-.3-.09-.45-.17-.89-.24-1.79-.18-2.69-.27-1.47-.49-3.07-.89-4.91.57-5.91-1.26-11.92-5.08-16.7-2.65-3.31-6.02-5.98-9.32-8.63-.2-.23-.4-.46-.6-.69C78.08.55,76.28,1.09,69.62.19c-6.66-.9-8.64,1.44-16.73,7.56-12.16,7.26-12.68,6.08-16.15,16.26-4.78,10.3-8.99,21.51-9.52,32.78-.4,3.08-.64,6.09-.89,9.35-1.14,2.95-2.43,5.84-3.75,8.73-1.75,3.81-2.89,7.93-.75,11.83,1.38,2.51,3.91,4.05,6.64,4.43,5.63,11.89-3.9,18.73-7.81,17.19,4.04,1.76,7.2.6,9.52-1.45-.22.33-.44.67-.64,1.01-.83,1.41-1.19,2.81-1.21,4.18-3.26,1.05-6.71,2.01-7.06,6.74.96-2.76,2.07-3.67,3.27-3.91l1.38-.06c.92.06,1.87.23,2.82.04.16.56.38,1.11.63,1.65-8.09,3.13-13.14,5.42-15.25,6.69-2.68,1.61-6.98,4-9.16,7.98-2.89,3.74-3.79,25.17-4.95,46.26h160.45ZM131.06,104.13c2.1,3.5,1.72,8.03-.38,11.42-.52-.28-1.02-.56-1.52-.85,2.18-3.78,2.22-8.29-.12-12.18-.87-1.44-2.59-2.9-4.43-4.44,2.5,1.63,4.86,3.38,6.45,6.04ZM111.07,32.06c4,4.36,6.14,9.9,6.13,15.54-1.37-4.85-4.3-11.28-12.07-20.72-.17-.26-.34-.52-.52-.78,2.26,1.86,4.48,3.79,6.46,5.95ZM21.27,83.93c-1.08-4.46,1.84-8.99,3.56-12.9.48-1.1.94-2.21,1.38-3.32-.02.25-.04.49-.06.75-.97,11.97-6.3,7.74,1.34,20.79.27.46.51.91.73,1.35-3.35-.63-6.1-3.14-6.95-6.66ZM32.15,104.95c.79-1.04,1.47-2.11,2.05-3.22-.07,2.14-.34,4.54-.66,7.07-.95,1.68-2.75,2.43-4.68,3.07.2-2.54,1.65-4.76,3.29-6.92ZM29.2,114.87s-.02-.06-.03-.09c.93.07,1.86.11,2.71-.06.31-.07.62-.16.93-.26-.03.25-.05.51-.08.76-1.03.39-2.02.77-2.97,1.13-.21-.48-.4-.97-.56-1.48Z"/>
  </g>
</svg>