<?xml version="1.0" encoding="UTF-8"?>
<svg id="Layer_2" data-name="Layer 2" xmlns="http://www.w3.org/2000/svg" viewBox="0 0 203.68 232.09">
  <g id="People">
    <path d="M178.46,158.3c13.47,5.43,17.78,18.74,20.38,32.64,2.54,13.6,3.92,27.08,4.84,41.14H0c1.18-18.6,3.54-37.09,8.96-54.78,3.14-10.26,10.22-17.79,20.32-20.61,15.07-6.87,37.54-14.14,46.27-28.79,1.2-2.02,1.81-7.53.84-9.67-2.92-6.42-5.75-12.89-8.08-19.48l-4.59-2.74c-2.46-5.25-11.28-23.76-2.99-26.88l-2.65-10.16c-.81-3.12-.52-7-.93-10.61-.75-6.54,2.98-18.09,3.44-18.02l-2.6-.42,9.8-7.69-2.9.12c-.08-4.15,6.44-6.03,7.05-9.06,2.12-10.54,17.75-3.85,13.01-8.69,5.47-2.5,11.08-1.81,17.02.02l-2.48-4.63,9.54,4.36-.31-3.87,11.36,7.83-.37-3.94c5.71,2.21,9.43,6.66,10.72,12.35l3.33-2.58c.72,2.31,1.03,3.78,1.84,3.7l4.6-.45-2.66,4.67,7.56,3.96-2.58,1.35c2.54,2.58,4.53,4.84,6.16,7.58l-5.28.12c9.39,12.43,2.36,21.15,1.68,33.56-.18,3.28,6.74,3.79-4.55,27.35l-4.39,2.72c-2.12,6.71-4.95,13.15-8.24,19.28-2.7,11.37,9,20.27,17.88,25.07,10.82,5.85,21.34,10.7,32.69,15.28Z"/>
  </g>
</svg>