<?xml version="1.0" encoding="UTF-8"?>
<svg id="Layer_2" data-name="Layer 2" xmlns="http://www.w3.org/2000/svg" viewBox="0 0 102.81 393.39">
  <g id="People">
    <g>
      <path d="M50.78,261.15c.01-.17.03-.34.04-.51-.01.17-.03.34-.04.51h0Z"/>
      <path d="M52.44,299.13c.02.11.04.21.06.32-.02-.11-.04-.21-.06-.32h0Z"/>
      <path d="M96.06,112.79c-.94-14.69,2.45-29.07-3.68-43.69,0,0,0,0,0,0h0c-.11-.25-.22-.5-.33-.75-.17-3.2-4.17-4.07-11.86-5.31.4-.66.69-1.4.85-2.19.73-3.63-1.93-6.23-4.83-7.88.84.38,1.71.73,2.48,1.25.8.54,1.48,1.24,2.03,2.03.21.18.41.38.62.58.04-.05.1-.09.18-.11-.86-1.48-2.11-2.7-3.7-3.54-1.83-.96-3.8-1.26-4.47-3.53-.2-.68-.19-1.36-.06-2.02.44-.63,1.05-1.34,1.84-2.16l-.02-.03c.91-1.12,1.2-2.43.7-5.61-.75-4.78-2.31-3.74-2.79-7.24,0,0,.02,0,.03.01.08.11.17.21.25.32.12.18.24.37.36.55.05.07.11.1.17.1.29.34.59.68.9,1.01.05.05.11.08.17.09.02.02.04.05.06.07-.06-.08-.11-.16-.16-.24-.05-.07-.1-.14-.14-.21-.04-.06-.08-.13-.12-.2-.05-.07-.09-.15-.14-.22-.03-.05-.06-.1-.08-.15-.09-.16-.18-.33-.26-.5-.11-.22-.21-.44-.29-.66-.01-.03-.02-.07-.04-.1-.04-.11-.08-.21-.11-.32-.02-.06-.03-.11-.05-.17-.03-.09-.05-.17-.07-.26-.02-.06-.03-.13-.05-.19-.02-.08-.04-.16-.05-.24-.09-.49-.13-.98-.1-1.47-.15-.8-.27-1.68-.48-2.68.31-3.22-.69-6.5-2.77-9.1-1.45-1.81-3.28-3.26-5.08-4.7-.11-.13-.22-.25-.33-.38C51.19.3,50.21.59,46.58.1c-3.63-.49-4.71.78-9.12,4.12-6.63,3.96-6.91,3.31-8.8,8.86-2.61,5.62-4.9,11.72-5.19,17.87-.22,1.68-.35,3.32-.49,5.1-.62,1.61-1.32,3.18-2.05,4.76-.96,2.08-1.57,4.32-.41,6.45.75,1.37,2.13,2.21,3.62,2.42,3.07,6.48-2.12,10.21-4.26,9.37,2.2.96,3.92.33,5.19-.79-.12.18-.24.36-.35.55-.45.77-.65,1.53-.66,2.28-1.78.57-3.66,1.1-3.85,3.68.52-1.51,1.13-2,1.78-2.13l.75-.03c.5.03,1.02.13,1.54.02.09.3.21.6.34.9-4.41,1.7-7.16,2.95-8.31,3.65-1.46.88-3.8,2.18-4.99,4.35-2.7,3.5-2.22,35.32-4.71,45.96C3.18,132.17.61,159.35,0,169.24c.52.53,1.11.99,1.76,1.4-.23,3.26-1.09,2.97-.31,6.01.83,3.26-.7,9.33-.81,11.88-.1,2.55-1.36,2.75-.04,5.6,1.32,2.85,1.99,5.6,2.81,6.45.82.84,4.21,2.29,6.65,2.65,2.44.36,4.36.5,4.36.5,0,0,1.38-.34,1.34-.97,0,0,.04-.01.11-.03,1.65,20.9,9.26,36.93,11.51,72.22h0c.47,9.87.46,20.88.46,20.88.32,4.39.78,15.44,1.58,20.99.52,3.66,1.48,7.38,2.47,11.28,2.65,11.67,5.65,28.51,5.61,41.48,0,.33,0,.65,0,.97h0c-.03.56-.04.92-.02.96.47.33,1.03.65,1.64.95.03.44.05.81.07,1.09.12,1.98-.66,8.22-.51,8.9.14.68,1.81,1.05,2.18,1.05,0,2.47-1.36,9.89,10.51,9.89,10.41,0,9.18-1.22,5.61-11.12,9.65-.77,6.74-7.79,9.2-11.42.37,0,2.04-.37,2.18-1.05.08-.38-.13-2.48-.3-4.61.61-.52.88-.92.88-.92h0c.08-1.52.19-3.07.32-4.65.06-.08.09-.12.09-.12h0c.04-.78.09-1.58.14-2.38,1.03-10.14,3.06-20.85,4.92-29.03h0c.99-3.89,1.95-7.61,2.47-11.28.28-1.94.51-4.55.72-7.31.61-5.9,1-14.65,1.27-18.45,0,0-.01-11.68.5-21.76,0-.15.02-.3.02-.45.06-.98.23-3.55.46-6.61,0,0,0,0,0,0,0,0,0,0,0-.01.03-.34.05-.68.08-1.03.23-2.46.49-4.83.76-6.63.34-2.24,1.06-6.69,1.89-11.91,2.46-9.53,5.3-21.96,6.91-35.34,1.75-.65,5.35-2.18,6.25-2.56,1.11-.48,2.06-1.43,2.54-2.54.48-1.11,1.59-.32,2.54-3.81.95-3.49,1.74-6.5,1.74-9.99s-1.9-7.77-1.74-9.83c.16-2.06-.16-3.33.16-4.76.15-.69.05-1.34-.14-2.12.47-.33,1.03-.7,1.72-1.13,1.57-6.71-4.71-29.69-6.5-57.77ZM20.22,45.75c-.59-2.43,1-4.9,1.94-7.03.26-.6.51-1.2.75-1.81-.01.13-.02.27-.03.41-.53,6.53-3.43,4.22.73,11.33.15.25.28.49.4.73-1.83-.34-3.32-1.71-3.79-3.63ZM92.84,175.78c-.46,1.68-1.12,3.18-1.67,4.38-.02-1.27-.06-2.55-.11-3.82.52-.18,1.11-.37,1.79-.57ZM80.07,56.76c1.15,1.91.94,4.38-.21,6.23-.28-.15-.56-.31-.83-.46,1.19-2.06,1.21-4.52-.07-6.64-.47-.79-1.41-1.58-2.42-2.42,1.36.89,2.65,1.84,3.52,3.29ZM69.18,17.48c2.18,2.37,3.35,5.4,3.34,8.47-.74-2.65-2.34-6.15-6.58-11.29-.09-.14-.18-.28-.28-.42,1.23,1.02,2.44,2.07,3.52,3.24ZM55.99,290.71s-.07.03-.11.04c-.57.19-.06,1.69-.15,2.51,0,.01,0,.02,0,.04,0,.07-.02.18-.03.31-.03.27-.06.55-.09.82-.04.33-.09.72-.14,1.15-.05.37-.09.73-.14,1.1h0c-.03.23-.06.46-.09.69-.18,1.37-.39,2.9-.61,4.32-.12.75-.29,1.7-.47,2.72-.08.39-.15.74-.23,1.04-.07.29-.13.69-.18,1.19-.49,2.63-.97,5.07-.97,5.07-.03-1.79-.09-3.38-.19-4.58h0s0-.04,0-.04c-.01-.13-.02-.26-.04-.38v-.04h0c-.05-.5-.11-.91-.19-1.21-.11-.43-.22-.96-.33-1.56-.25-4.02-.53-8.42-.8-12.59-.5-7.57-.9-16.41-.86-25.39.27-3.5.56-6.86.68-10.4.05-1.34.07-2.71.06-4.12.18-6.02.79-23.3,2.04-32.84,1.26,9.53,1.86,26.82,2.04,32.84-.01,1.41.01,2.14.06,4.12.01.64,1.33,35.18.76,35.19ZM26.15,57.21c.43-.57.8-1.15,1.12-1.75-.04,1.17-.18,2.48-.36,3.85-.52.92-1.5,1.32-2.55,1.67.11-1.38.9-2.59,1.79-3.77ZM24.55,62.62s0-.03-.01-.05c.51.04,1.02.06,1.48-.04.17-.04.34-.09.51-.14-.02.14-.03.28-.05.42-.56.21-1.1.42-1.62.62-.12-.26-.22-.53-.31-.8ZM13.38,199.34c-1.44-.68-3.47-2.71-4.32-4.06-.4-.64-.5-1.07-.5-1.34-.02-.03-.04-.06-.05-.1.37-6.7,1.2-8.01,1.19-7.62,0,.39.69,2.06.5,2.84-.2.78-1.49,4.46-.78,4.78.58.21,1.4.41,1.98.16.99-.44,1.6-3.02,1.52-4.29-.08-1.27.17-3.45.56-5.38.39-1.93,0-4.2-.46-5.57-.46-1.36-2.35-3.63-2.5-5.64.98.07,1.95.11,2.87.11,1.09-11.63,6.07-32.94,9.19-45.35.35-.75.69-1.43.98-2.02,0,.05,0,.1,0,.15h0c.1-.25.19-.47.28-.7.52-1.02.88-1.65.88-1.65-.29,8.14-1.52,16.91-3.47,24.01-1.36,4.94-2.98,13.03-4.97,15.56.48.28,1.1.47,1.84.61-.05.23-.1.43-.15.65-.27.98-.51,2.01-.73,3.13-.53,2.26-.99,4.02-1.5,5.42-.17.47.1.9.71,1.3-.01.19-.02.4-.03.6-.39,2.92-.58,6.36-.48,10.63-.46,5.46-.49,10.38-.22,15.04-.66-.43-1.44-.81-2.34-1.24ZM89.96,202.99c.03-.3.06-.61.09-.91.61.37,1.33.63,1.26.76,0-.06-1.01.07-1.35.15ZM92.57,199.98c-.86.26-1.73.28-2.38.4.05-.59.09-1.17.14-1.76,0-.06.01-.11.02-.17.37-.7.71-1.44.96-2.11.64-1.74.47-5.23.95-4.92.48.32,1.11,3.81,1.59,4.76.47.95-1.27,3.81-1.27,3.81Z"/>
    </g>
  </g>
</svg>