<?xml version="1.0" encoding="UTF-8"?>
<svg id="Layer_2" data-name="Layer 2" xmlns="http://www.w3.org/2000/svg" viewBox="0 0 194.01 179.7">
  <g id="People">
    <path d="M194.01,179.7c.09-23.2-2.43-29.49-6.02-42.05-.6-2.12-1.41-3.93-5.95-6.65-1.66-.83-2.84-1.52-2.84-2.11v-.02c0-3.33-18.39-8.34-26.11-8.45-.19.99-1.17,1.87-1.43,2.68-3.75-1.68-11.47-3.21-12.7-7.68-.66-2.4-.8-7.38-.61-11.65,1.55,1.79,1.45,1.98,1.99,2.94.55.97.1,1.4,1.49,2.24,1.4.85,2.35,1.15,1.69,2.91-.67,1.76.96,2.49.96,2.49,0,0,2.61.79,2.55-.36-.06-1.15-.24-2.59,0-2.63.21-.04.98-.25,1.17-.09-.13-.43-.53-2.07-.74-3.65.28-.43.56-.96.85-1.39.04,0,.05,0,.08,0-.15.04,2.96.1,3.71.19,1.55.18,5.06-.36,5.06-.36v.91s0,1.91.36,2.36c.36.46-1.07,2-.43,2.64.64.64,3.54,1.73,3.54,1.73,0,0,.55-1.73.55-2.43s-.67-.78-1.85-1.41c-1.18-.64-1.13-2.84-1.22-4.03,0-.03-.05-.07-.05-.1.43-.41,1.03-.7,1.03-.94,0-.36-.37-.46-1.19-1.09-.82-.64-.1-1-.46-1.9-.36-.9-2.01.36-2.71,0,.59-.79.88-1.68.88-1.68,0,0-4.98.19-1.66-1.64,1.35.1.78.13,1.44.07,2.11.71,3.42,1.74,4.04.57.27-.52.31-.82.32-1.1.69-.13,1.15-.23,1.15-.23,0,0,.6-1.5,1.06-2.14.45.09.87.25,1.15.34.73.24.98.06,1.46-.39.49-.45.49-.69,1.22-.57.73.12.85.42,1.34-.03.49-.46,1.57.34.49-.45.39.21.55-.5,1.08-1.38.41-.25.65-.68.85-1.1.25-.5.45-.97.89-1.01.91-.09,1.73-1.18,2.91-1.36,1.18-.18,3-2.55,3-2.55,0,0-.41-.59-.72-1.03.04-.13.09-.28.14-.45.11-.17.19-.35.21-.52,0-.08,0-.15.01-.22.18-.64.37-1.39.5-2.07,2.52-1.27,3.9,1.06,1.58-2.16-1.25-1.74-1.49-2.6-1.71-3.13l1.87-3.46-.29-1.3c.07-.47.12-.94.14-1.41.05-.04.09-.08.15-.13.31-.27.49-.65.6-1.05.27-.07.49-.37.37-.64-.08-.18-.16-.36-.24-.54,0-.31-.04-.56-.08-.67-.1-.32-.57-1.12-.69-1.33-.02-.16-.04-.32-.06-.48.26-.22.54-.41.72-.56.45-.37.62-.83.69-1.38.06-.52-.14-.99-.46-1.36.17-.21.13.15.18-.29.06-.49.54-.61-.31-.73-.02,0-.03,0-.04,0-.1-.15-.19-.3-.29-.45.14-.12.25-.27.34-.46.05-.12.11-.24.16-.36.34-.42.68-.84,1.03-1.25.21-.09.41-.18.61-.27.14.08.29.13.44.17.12.17.37.25.6.13.04-.02.08-.05.12-.07.05,0,.1,0,.14-.01.09-.02.18-.04.27-.06.04.12.13.21.27.24.07.01.14.02.21.03-.02.09-.03.19-.05.28-.15.08-.3.17-.44.31-.24.23-.08.6.2.7.23.08.44.1.62.09.22.21.44.41.66.62-.3.45.43.85.74.4.61-.91.28-1.78-.38-2.13,0-.13-.02-.26-.06-.39.97-.31,1.63-1.11.99-2.33-.09-.17-.25-.3-.45-.4.08-.14.18-.27.26-.42.12-.23-.03-.59-.31-.61-.57-.04-1.08.03-1.55.19-.01-.01-.02-.03-.03-.04-.28-.26-.56-.51-.83-.77-.09-.11-.19-.21-.31-.3-.08-.08-.17-.16-.25-.24-.11-.12-.23-.24-.34-.36.03-.04.06-.08.09-.11.55-.18,1-.52,1.22-1.15.38-1.1,0-1.88-.7-2.4.79-1.76.61-3.85-.62-5.49-.12-.15-.29-.21-.46-.2-.01-.02-.02-.04-.03-.06.08-.11.17-.22.24-.34.51-.9.02-2.3-.87-2.9.02-.87-.11-1.95-.76-2.3-.07-.15-.14-.3-.25-.45-.13-.19-.41-.26-.61-.2-.04-.02-.1-.03-.15-.04-.14-.22-.33-.41-.57-.55.09-.16.19-.32.28-.46.15-.25.18-.5.13-.73.05-.08.11-.15.14-.25.37-1.09.08-1.95-.51-2.79.06-.53.02-1.07-.21-1.64-.18-.46-.58-.85-1.06-1.1-.07-.07-.14-.14-.22-.21-.07-.61-.31-1.17-.78-1.46-.4-.25-.82-.34-1.21-.32.02-.04.03-.08.05-.12.1-.25-.17-.53-.42-.52-.18,0-.34.03-.49.06-.01-.02-.03-.04-.05-.06.14-.55.11-1.09-.06-1.6.07-.5.12-1.01.13-1.52,0-.36-.35-.48-.61-.35.04-.16.08-.31.12-.47.08-.29-.16-.43-.39-.41-.06-.71-.24-1.42-.59-2.23-.3-.69-.65-1.33-1.12-1.92-.09-.12-.3-.24-.55-.36-.03-.22-.11-.44-.27-.62-.34-.4-1.34-.59-2.1-.86-.27-.21-.55-.41-.82-.62-.03-.03-.07-.04-.11-.07,0-.03-.02-.05-.02-.08-.02-.27-.36-.46-.58-.27-.01.01-.03.01-.04.02-.56-.21-1.16-.22-1.72-.08-.56-.37-1.09-.78-1.55-1.28-.98-1.07-2.33-.56-3.38.13-.41-.2-.5.18-.63.47-.02.03-.04.06-.05.09-.09.17-.22.27-.47.14-.93-.5-.82-.43-.87-1.17-.05-.74-1.21-1.21-1.21-1.21,0,0-.97-1.03-1.58-1.34-.61-.3-3.15-2.31-5.64-4.37-.78-.65-1.22-.68-1.45-.42-.02-.12-.06-.24-.13-.35.27-.64-.1-1.52-.95-1.32-.28.05-.57.09-.85.15-.09.02-.17.05-.24.09-.69.14-1.38.28-2.07.43-.13.03-.24.08-.33.16-.32-.08-.64-.16-.96-.23-.11-.03-.23-.04-.34-.05-.77-.21-1.48-.12-2.21-.37-.06-.02-.12-.02-.17-.04-.13-.19-.26-.4-.42-.64-2.31-3.34-10.19-4.25-15.48-2.69-2.5-.32-5.74-.48-9.1,0-.92.13-1.71.22-2.39.28-.58-.07-1.19-.13-1.83-.18-.23-.58-.62-1.07-1.21-1.34-.93-.42-1.85-.82-2.81-1.16-1.12-.39-2.15-.07-2.83.63-.12,0-.24.06-.36.12-.03-.08-.07-.16-.12-.24-.24-.34-.48-.68-.73-1.02-.18-.25-.56-.45-.88-.38-.64.16-1.3.65-1.76,1.17-.08.09-.14.19-.21.28-.08-.05-.18-.09-.29-.11-.66-.13-1.33-.31-2-.36-.39-.03-.76.3-.84.67-.05.03-.09.07-.14.1-.02-.02-.04-.7-.06-.71-.65-.31-1.46-.9-2.11-.9h0c-.11,0-.23,1.1-.34,1.13-2.74.81-4.73,1.6-8.31,2.3-2.51.49-4.57,1.69-5.64,2.25-.14-.12-.28-.18-.41-.32-.19-.2-.49-.12-.58.12-.73.2-1.45.38-2.18.58-.18-.14-.5-.04-.51.2-.6.37-1.19.73-1.79,1.1-.22-.1-.49.1-.44.34-.09.11-.19.23-.28.34l-.89.68c-.57-.61-1.28.1-1.2.67-.12.03-.25.05-.39.07-.1,0-.22.08-.25.18-.03.09-.06.19-.09.28-.03.01-.05.03-.08.04-.25-.07-.51-.13-.76-.21-.13-.04-.26.05-.33.16-.34.51-.75.64-1.23.37-.33-.17-.59.3-.33.53.08.35.12.64.12.89l-1.02.44s-.73-2.73-3.09,0c-2.37,2.73.18-1.09-3.46,2.91-3.64,4,.18,0-3.64,4-3.52,3.69-4.26,1.83-3.93,3.5h0c-.8.42-1.64,1.2-1.81,2.42-.17,1.22-1.46,1.73-2.09,1.91-.64.18-1.21,3.83-1.49,4.04-.28.21-.37,2.72-.94,2.72h0c-1.24,0-2.14-.21-2.31.71-.36,2-1.46,3.72-1.46,3.72l-.63,1.75c-.88-.39-1.98-.1-2.35.74-.34.77-.12,1.38.4,1.91-.05.16-.07.27-.06.44-.44.48-1.07.95-.88,1.51.47,1.83-1.76,2.12-2.3,3.21-.55,1.09.18,4.42-.73,5.67-.1.05-.17.16-.18.28-.77,1.46-1.03,4.82-1.24,5.32-.12.29.79-.04,1.54-.11-.13.22-.21.46-.28.73-.12.45.03.97.2,1.44-.17.79-.34,1.58-.51,2.38-.1.14-.17.28-.2.39-.06.25-.07.51-.05.78-.06.28-.12.56-.18.84-.03.12-.04.24-.05.36-.54,1.62-.63,1.87-.14,2.85.29.59.75,1.39,1.21,2.19-.03.06-.04.12-.07.19-.14.29.2.52.42.4.05.08.09.16.14.24.3.8.02,1.37-.45,1.83.2.33.34.74.45,1.2.25.02.51.02.76,0-.2.31-.43.53-.63.77.05.4.09.82.1,1.22.07.21.11.41.17.62.12.04.25.06.38.08.02.03.05.06.07.1-.1.16-.19.32-.29.47.06.33.12.66.16,1,.11-.16.23-.33.33-.5.16.2.33.43.1.94-.25.55.19,1.2.69,1.7-.1.26-.22.51-.38.76-.17.26.13.62.42.51.23-.08.45-.16.68-.25-.06.67.59,1.11,1.27,1.54.76,1.27,1.72,2.71,1.93,2.28.06-.12.11-.28.14-.45.17-.02.34-.04.51-.06.03.6.1,1.14.05,1.21-.1.13-.09.37.03.48.6.55,1.23.62,1.72.25.08.86.1,1.48.1,1.48,0,0,.91-2.37,0,1.46-.91,3.82.91,4.73.91,4.73l-.18,2.18c-1.82.73,1.82,2.91,1.82,2.91l.91,1.46s3.09,4.19,4,4.55l2.03,2.73s.39.09.39.24v2.67l-1.03.73-1.01.85c1.27,1.09,2,.85,2,.85,0,0,1.57-1.46,2.3-.97.73.48,1.33.61,1.58.24.03-.05.12-.1.23-.16.32.26.63.55.89.87.49-.04,1,.14,1.54.68,2,2,3.82,2.98,3.82,2.98l1.2,2.69c-13.25,5.14-17.46,5.39-18.57,7.9-1.92.69-5.25,1.85-10.43,4.68-.86.56-1.62.95-2.32,1.45-2.13,1.49-3.56,2.68-4.34,3.9-10.02,10.01-19.51,25.01-31.02,41.12h194.01ZM79.85,117.03c1.91-.82,10.17-5.03,11.72-7.22.49-.7.7-1.83.73-3.21-.03,1.38-.24,2.53-.73,3.22-1.55,2.18-9.81,6.41-11.72,7.23-1.26.54-3.19,1.16-4.77,1.75-.01,0-.02-.02-.04-.03,1.59-.59,3.53-1.2,4.81-1.74Z"/>
  </g>
</svg>