<?xml version="1.0" encoding="UTF-8"?><svg xmlns="http://www.w3.org/2000/svg" id="Layer_2" data-name="Layer 2" viewBox="0 0 1123.97 1935.97">
  <defs>
    <style>
      .cls-1 {
        fill: #2e2e48;
      }

      .cls-2 {
        fill: #714e50;
      }

      .cls-3 {
        fill: #f1ab88;
      }

      .cls-4 {
        fill: #808a8c;
      }

      .cls-5 {
        fill: #30231d;
      }

      .cls-6 {
        fill: #312d32;
      }

      .cls-7 {
        fill: #70624e;
      }

      .cls-8 {
        fill: #fff;
      }

      .cls-9 {
        fill: #65686d;
      }

      .cls-10 {
        fill: #412428;
      }

      .cls-11 {
        fill: #2f2f48;
      }

      .cls-12 {
        fill: #101228;
      }

      .cls-13 {
        fill: #404448;
      }

      .cls-14 {
        fill: #c77b65;
      }

      .cls-15 {
        fill: #a28d71;
      }

      .cls-16 {
        fill: #4d5155;
      }
    </style>
  </defs>
  <g id="Layer_1-2" data-name="Layer 1">
    <g>
      <path class="cls-15" d="M374,1217.52l53.87,168.6c5.77,18.06,10.3,34.7,14.6,51.86,9.49,37.83,7.85,60.35,22.39,99.83,4.17,11.33,8.92,22.53,10.95,34.64,12.11,72.36-22.51,133.96-3.5,150.57,2.93,2.56,5.34-.7,7.83-.97,5.21-.43,11.43-.9,16.18-4.07,13.9.87,45.55-37.08,56.82-49.35,14.36-15.65,28.11-30.71,46.26-42.12,46.71-29.38,93.94-15.78,158.14-29.25,6.55-1.37,13.02-1.65,18.84-1.79-.74,2.9.62,7.46-1.28,10.09-3.07,4.27-6.05,8.89-7.7,15.04-22.65,84.69-17.5,110.52-11.47,197.24,2.81,40.42,2.58,79.07-.72,118.13h-269.56l-6.55-61.02c-.81-7.52-2.66-53.68-8.18-52.87l-21.52-169.58c-5.99-47.24-10.88-92.72-17.72-139.63l-10.99-75.37c-71.04-65.89-71.86-123.44-84.18-213.12,12.5-2.2,24.86-5.35,37.46-6.87Z"/>
      <path class="cls-15" d="M373.43,1935.97h-197.01c-3.48-49.32-3.66-98.96.19-148.25,13.24-.64,37.14,16.31,44.45-4.95,3.56-10.36,3.15-21.11,4.33-32l9.64-88.83,21.44-214.97c45.96-3.46,92.25-1.07,136.29,12.23l-69.88,5.65-43.58,5.2,90.24,14.53c17.12,2.76,33.36,5.77,49.82,13.91l-141.3,15.79c29.35,12.49,111.85.78,143.34-8.13l-.95,69.76-87.26,34.64,84.62-12.53c-.81,18.32-2.69,35.17-6.22,52.42-40.1,35.78-82.82,64.65-127.24,93.61,45.32-15.76,86.68-34.95,132.01-57.1-1.76,23.39-4.19,46.86-12.03,69.38-4.97,14.28-68.72,44.44-86.01,53.89-39.06,21.34-76.53,45.71-106.38,80.52,45.58-27.19,88.29-52.76,135.81-73.63,18.41-8.08,34.36-17.93,52.31-27.73l-26.65,146.58Z"/>
      <path class="cls-11" d="M444.37,357.38c32.85,47.18,62.85,44.02,118.29,36.93,3.87-.5,7.04.33,9.63,1.65.77,6.29,2.24,12.35,5.42,18.3,2.49-7.39-1.36-12.65-2.97-18.32,1.38-2.08,6.1-5.44,8.44-2.6,1.53,1.85,3.42,6.51,3.28,8.74-.32,5.18,3.55,15.28.94,21.63-1.84,4.47-10.68,6.14-15.68,7.38-47.78,11.89-94.24,23.71-142.24,41.24,3.69,19.22,42.44,51.68,58.27,58.09,8.46,11.94,35.64,23.8,48.08,37-16.02,19.23-30.62,27.16-45.32,42.34-4.36.1-8.5,2.55-12.73,5.47-52.99,36.58-110.3,70.71-151.48,120.73-20.42,24.8-32.12,52.74-35.3,84.91-1.91,19.36-1.69,39.03,2.82,58.42l13.78,59.36,3.83-69.85c5.07-92.59,97.03-174.68,167.41-224.23,3.85-2.71,7.74-4.27,11.45-4.83l16.19,170.23c-.8-.27-2.01.69-1.98,2.16.57,25.36-1.42,50.07-5.23,75.27,6.98-.1,10.21-6.81,15.09-9.53,6.96-3.87,13.68-8.05,20.75-13.17,16.74-12.14,34.21-21.21,53.49-31.99l-30.76-238.42c-4.56-35.33-7.74-68.82-7.01-104.37.3-14.53,2.76-28.21,1.66-41.68,12.94-1.88,30.71-3.86,40.66-13.04,8.47-7.82,1.52-23.48-2.67-31.36,29.07.31,44.95,12.02,70.26,15.6,5.77,5.33,14.44,7.78,21.69,12.41l33.72,21.53c5.87,3.75,8.43,5.51,12.62,10.64,12.25,15,27.19,27.06,38.14,43.56,25.86,38.95,17.38,65.75,47.31,110.94,30.63,46.24,51.57,90.38,54.23,147.33.85,18.11,2.81,34.47,5.29,52.22,4.08,29.19.04,57.85-3.1,85.94-1.17,5.41-5.74,11.07-8.17,15.9-7.03-9.54-2.49-20.89-21.77-28.11-33.51-12.55-45.34-1.5-91.13-25.22-16.61-8.61-32.59-16.57-49.68-24.14-14.93-6.61-30.76-10.69-46.87-5.58-11.61,3.68,22.24,37.19,24.75,39.9,25.06,27.08,54.69,46.7,89.33,60.32,11.76,4.62,24.13,6.6,35.14,15.54-47.24,20.36-99.4,15.27-143.54-8.65-15.97-8.66-30.54-15.94-48.63-19.78-14.74-3.13-31.85-7.5-45.75-.05-9.78,17.12,44.76,43.05,57.43,48.79,16.68,7.55,32.15,15.93,49.41,22.65,12.53,4.87,24.49,11.34,33.36,22.01-32.8,23.65-75.72,34.02-111.85,47.23-24.32,8.89-46.83,18.77-72.54,25.85l-32.19-42.08c-2.56-3.35-5.61-5.85-8.9-6.92.08-11.32-62.44-80.63-65.7-81.01-1.06-.12-2.15.81-3.02,1.46l-41.12,10.21c-9.31.24-17.26-9.68-25.22-13.45-8.67-4.1-17.08-1.22-25.56-.27-4.7-.44-10.19-2.06-14.18.87-1.1-.46-2.51-.05-3.65-.38-.22-10.75-3.68-21.48-6.81-32.77-6.48-23.4-12.02-46.16-15.42-70.3-2.18-15.5-.83-29.55.97-43.87,2.39-19.07,8.53-36.62,12.88-56.67,14.85-68.52,35.78-134.21,58.95-200.14,1.63-4.63,3.67-7.74,2.97-11.82-.32-1.86.51-3.88.35-5.75,1.55-.16,4.17-2.53,4.91-4.49l12.49-32.9c2.03-5.36,6.59-10.33,8.1-16.67,2.19-9.22,7.59-16.34,11.26-24.8,5.81-13.42,11.35-26.29,19.12-38.88,6.25-10.14,10.71-20.79,13.81-32.02,5.67-6.58,14.33-33.75,20.17-30.6ZM701.15,743.97c25.22-17.54,83.8-13.81,113.16-7.84,3.87.79,8.93-.51,10.07-3.43,3.82-9.78-12.85-14.2-21.1-15.41-51.23-7.5-93.02,6.96-137.48,1.67-10.68-1.27-18.77-7-21.07-17.47-6.6-30.06,13.87-54.55,25.77-79.22,3.85-7.98,8.3-15.54,5.61-25.26-36.53,20.7-42.78,37-57.1,73.75-2.68-22.23,2.16-41.46,3.25-62.79,2.54-49.5,11.83-97.53,30.41-143.22,4.33-10.64,8.64-19.98,15.68-28.45-9.91,4.23-14.48,13.19-20.29,21.51-25.81,36.89-35.16,106.17-45.34,151.92-10.39-31.56-12.6-62.22-18.66-93.37-.55-2.83-2.05-5.56-4.64-5.17-1.58.23-2.72,2.53-3.05,4.95-6.22,46.26,6.98,99.36,19.34,144.25,11.5,41.75,18.02,121.27,11.2,164.98l21.52-15.81,32.47-9.35c3.47-1,50.57-41.67,49.55-52.88-11.94,7.22-54.36,44.27-68.29,37.64l58.98-41.01ZM825.91,662.17c-3.31-19.12-16.82-29.94-25.45-44.35-13.99-16.65-26.53-33.5-37.24-52.5-9.36-16.61-6.48-39.03-32.36-53.54-20.61-11.55-33.66-28.34-44.22-51.19-4.94,12.26-1.88,53.85,9.81,58.69,17.1,7.07,34.33,13.53,46.53,28.34,24.37,29.58,21.01,52.53,36.78,65.4,17.87,14.59,30.99,32.28,46.16,49.16ZM304.62,733.62c21.3-22.68,37.95-44.28,62.28-61.29,26.16-22.22,54.21-40.09,82.47-59.65,20.6-14.59,40.67-27.53,60.41-44.97l-64.62-44.24c-15.23-10.42-25.36-24.29-29.48-42.37-13.36,1.47,7.67,31.67,16.46,39.33,20.6,17.95,42.82,33.03,67.1,47.41-8.36,9.83-19.69,12.96-29.23,19.86l-84.74,61.25c-32,23.13-61.3,50.75-80.65,84.66ZM774.5,703.19c26.74,4.04,50.18,10.33,76.55,18.55-25.78-36.14-73.45-68.43-117.33-46.22-9.75,16.72,27.61,25.67,40.78,27.66ZM304.47,736.97c0-.55-.45-1-1-1s-1,.45-1,1,.45,1,1,1,1-.45,1-1ZM846.4,775.16c-6.77-11.07-14.92-17.96-27.35-20.24-15.03-2.76-29.73-7.24-46-5.29,10.7,14.7,85.26,94.33,93.88,92.13,1.02-.26,1.85-2.01,1.77-3.82-.99-23.24-10.11-42.85-22.3-62.78ZM762.94,795.34c4.02-.21,5.34-4.78,5.24-6.64-.74-14.11-33.8-26.35-59.93-13.11-12.59,6.38-24.22,13.22-34.29,24.32l88.98-4.57ZM832.9,850.68c-4.2-14.53-14.93-23.19-24.89-31.68-11.43-9.74-22.08-8.62-35.96-5.43-19.74,4.54-40.44-1.47-59.95-4.99-12.93-1.79-24.54-4.28-38.04-3.79,25.42,6.91,47.72,18.51,69.54,33.72,19.41,13.53,60.33,37.8,83.54,30.08,7.2-2.4,7.84-10.65,5.75-17.91Z"/>
      <path class="cls-2" d="M1116.3,1370.43c-15.8,4.01-30.2,12.09-45.75,19.45-23.99,11.36-46.96,22.98-70.14,35.68-32.01,17.54-22.24,34.66-63.55,32.03,2.47-5.89,8.22-5.59,9.86-11.78-13.9,2.93-25.57,1.47-37.04-5.18-15.56-9.02-29.48-18.38-43.44-30.54-71.95-62.62-133.63-135.66-180.99-218.6-13.99-24.5-24.11-48.42-31.54-75.9l26.16-14.83c24.08,62.81,78.02,154.03,124.1,201.6,19.33,19.96,46.7,29.73,73.56,17.75,47-20.97,93.86-43.73,136.22-74.01-40.06,14.76-127.62,73.69-166.82,63.35-38.56-10.17-63.94-62.71-85.71-94.54-20.66-30.2-37.85-60.71-54.27-93.52-9.29-18.58-16.31-37.17-26.69-53.92.14-.38.25-.76.33-1.15,3.38-.37,5.89,2.18,9.05,4.34l24.86,17.02c5.18,3.55,30.19,21.91,35.59,13.18,6.17-9.98-11.15-25.84-13.67-36.93,18.48,12.35,34.86,28.69,45.36,48.83,6.37,12.21,3.39,25.79,2.45,39.6,35.86-11.3,40.13-57.39,26.49-87.08-8.23-17.92-18.22-34.05-30.15-49.51-2.08-2.7-4.08-4.86-4.07-7.79,1.29-.79,2.91-1.24,4.09-2.1,14.34,12.22,110.91,43.43,117.29,19.16,4.65-17.72-39.61-61.28-51.75-72.71,8.07-8.15,11.46-22.66,16.38-32.45,2.43-4.83,7-10.49,8.17-15.9,9.21,18.95,16.44,11.22,33.75,24.25,17.38,13.08,28.95,30.41,42.34,47.21l46.21,57.97,55.97,70.48c18.29,23.03,52.6,64.26,32.99,95.22-6.74,10.63-18.1,15.27-29.16,21.89,3.65,11.53,10.14,21.85,16.87,32.25,18.57,28.71,38.1,56.17,51.58,87.68,4.64,10.86,3.65,22.96-4.93,29.49ZM851.96,1179.41c58.11-30.8,78.75-92.32,65.26-153.93-13.82,97.73-63.4,135.38-157.82,152.82,32.61,28,58.99,18.9,92.55,1.11ZM1018.16,1244.76c3.65-1.52,1.59-3.21-.5-2.82-.68.13-1.27.95-3.03,3.03-.61.72,1.15.79,3.53-.21ZM1102.12,1371.14c4.38-17.51,6.33-61.46-16.95-65.4-20.73-3.51-26.96,24.18-35.44,37.71-.73-16.69-4.96-95.65-24.87-97.97l-13.65,43.01c-5.4,17.03-16.04,31.4-26.38,45.91l-25.8,36.19c-3.62,5.08-1.98,12.33.78,17.69,9.28,18.1,9.63,36.4,5.31,56.36,43.08-34.62,88.26-53.77,137.02-73.51Z"/>
      <path class="cls-10" d="M680.25,1067.48c10.38,16.75,17.39,35.34,26.69,53.92,16.42,32.82,33.61,63.32,54.27,93.52,21.77,31.83,47.15,84.37,85.71,94.54,39.2,10.34,126.76-48.59,166.82-63.35-42.36,30.29-89.22,53.04-136.22,74.01-26.86,11.98-54.22,2.21-73.56-17.75-46.08-47.57-100.02-138.79-124.1-201.6l-26.16,14.83c7.43,27.48,17.55,51.4,31.54,75.9,47.36,82.94,109.04,155.98,180.99,218.6,13.97,12.16,27.89,21.52,43.44,30.54,11.47,6.65,23.14,8.11,37.04,5.18-1.64,6.2-7.39,5.9-9.86,11.78,41.32,2.63,31.55-14.49,63.55-32.03,23.18-12.71,46.15-24.32,70.14-35.68,15.55-7.36,29.95-15.44,45.75-19.45-2.47,16.35-47.41,58.98-61.43,70.28-51.61,41.58-107.99,75.78-170.2,99.41-8.2,3.11-15.41,8.44-22.6,10.55-25.36,7.43-51.33,11.5-77.41,15.4-13.94,2.09-29.85-2.58-42.22-8.29-6-7.58-8.32-18.93-11.34-28.47-8.02-25.34-17.12-48.36-26.92-73.15-26.64-67.39-50.77-133.73-73.1-202.89l-46.07-142.66c6.22-4.74,12.64-4.14,17.75-6.47,11.12,36.28,21.84,72.08,38.89,107.47,42.79,93.7,99.01,179.92,170.96,254.69-36.08-56.76-71.49-109.48-103.15-167.24-38-64.31-68.45-131.02-95.45-199.58,14.77-16.09,45.06-20.23,58.27-29.71,2.47-1.78,5.66-2.08,7.97-2.28Z"/>
      <path class="cls-11" d="M266.68,967.57c-3.68-.47-6.84-2.23-10.09-4-15.8-33.2-35.29-64.08-55.94-95.59l-42.13-64.26c9.05,40.68,25.89,76.75,34.31,115.28,20.83,8.86,39.17,21.05,53.74,38.46-12.84-1.16-23.74-7.65-35.95-5.03-21.35,4.57-38.48,16.96-53.76,32.12-35.28,35.02-52.77,84.34-44.88,133.84,1.66,10.4,8.55,21.5,17.32,25.93,15.56,7.85,30.98,1.78,45.28-4.22,2.16,1.43,3.11,3.96,3.93,6.35-2.85,1.16-2.98,3.81-3.95,7.67-28.27,112.97-54.15,225.03-76.26,339.56-13.68,70.85-28.12,142.02-22.22,212.22-11.2-5.34-17.28-18.73-15.33-32.05l15.32-104.55c15.51-105.86,36.41-209.01,63.72-312.33l28.18-106.6c-19.42,4.12-39.42,12.75-56.84-7.63-21.82-25.55-36.37-57.44-44.64-90.7-2.85-11.48-5.8-23.87-3.86-34.56l9.03-49.81c-2.19-6.02-25.64,28.89-32.95,30.3-1.95-2.78-5.12-3.38-5.62-8.78-.98-10.57-.94-21.13-2.4-31.06,1.67,5.46,17.61-26.05,15.33-29.25-9.61,4.54-12.95,20.42-17.43,19.46-1.6-4.14-3.43-7.53-3.79-12.19,2.42.41,5.32.15,7.49-2.27,19.24-21.42,40.96-38.42,66.85-50.91-12.8-2.88-22.94.07-34.39.98-15.61,4.63-30.21,14.94-35.79,30.71-1.16,3.29-.68,7.89-4.44,7.4-.15-16.44,12.36-33.64,12.98-44.34l1.49-25.45c1.96.43,3.88-.66,5.2-1.84,8.63-.53,16.47-6.75,25.81-8.48,17.56-3.26,34.43,1.72,50.74,8.35,7.7,3.13,16.48,3.73,20.86,11.53-30.47-2.31-52.15-14.81-80.58.7-2.45,1.34-2.94,4.61-2.75,6.74s2.92,2.64,5.77,3.18c16.05,3.07,58.33-5.4,85.56,9.84-20.18,6.11-39.61,4.67-58.83,14.66,19.5.31,54.78-8.06,71.8,6.6-9.76,3.56-18.48,2.8-26.49,7.95,10.89,1.1,40.62,8.76,44.06,3.06.63-1.04-.41-3.48-.96-5.33l-20.78-69.67c-7.49-25.1-14-50.24-25.43-73.9-23.46-48.56-50.42-91.79-60.3-143.83.85-3.44,4-6.3,4.22-9.85,31.78-36.42,63.77-72.17,99.46-107.96-10.57-10.7-23.23-15.55-36.25-20.17-4.68-1.66-9.92-1.62-12.01-5.92-.22-1.75-.24-3.51.02-5.26,3.78.21,6.57-2.92,11.47-3.85,20.95-3.97,44.75-12.93,63.16-22.49,5.55-.86,17.54-1.68,21.59,3.57,7.54,9.79,9.23,24.08,7.44,36.14l-8.17,55.17c-4.58,30.94-2,61.27-3.64,92.84-3.83,73.69,3.64,129.81,19.08,201.08l7.93,36.6c2.78,12.84,8.94,23.98,9.01,38.39-16.42-28.17-31.81-55.1-50.27-81.71l-40.81-65.17c-28.19-45.02-51.45-91.05-71.37-142.15l91.42-98.47c3.37-3.63,8.45-6.56,3.1-11.86l-56.3,60.46c-15.81,16.98-31.26,32.01-46.18,50.97l27.63,61.37c27.03,60.03,101.44,164.98,138.68,231,9.64,17.09,14.88,34.27,14.82,53.03ZM40.54,966.29c8.73-4.1,13.02-10.14,17.89-16.12,18.53-22.74,41.7-37.54,69.49-46.6-22.71-3.78-62.08,4.99-72.82,25.06-6.47,12.09-13.22,23.44-14.56,37.65Z"/>
      <path class="cls-12" d="M185.38,1157.75c1.36,2.55,1.7,5.1,5.07,5.66,1.08.28,3.02,1.31,4.02,1.9,3.23,1.93,7.11,2.16,10.2,4.36l1.3,162.33c.32,39.5-4.32,76.54-6.3,116.16-3.13,62.74-10.47,123.36-19.75,185.23-4.71,31.4-9.93,60.49-19.33,90.99,4.33,7.71,11.88,17.04,21.91,17.24,5.44-1.41,7.76-11.34,8.87-16.73,6.6-32.09,10.6-62.61,14.9-95.39l29.2-222.78,28.77-230.76c.61-4.92,1.43-9.07-1.52-11.95l.24-2.03c.08-.67-.58-1.62-.38-2.21.48-.51.83-1.7,1.43-2.04,1.94-1.08,3.03-3.64,4.21-5.23l12.15-6.37c-.84,28.04.39,56.31-3.18,84.19l-17.33,135.16-16.24,112.11-33.06,250.23c-1.8,13.59-1.72,28.54-8.96,39.33-4.54,6.77-18.65,3.11-24.82.94-16.89-5.93-89.73-44.34-100.69-62.19-5.9-70.2,8.54-141.37,22.22-212.22,22.11-114.53,47.99-226.59,76.26-339.56.96-3.86,1.1-6.51,3.95-7.67,1.44,4.2,4.84,7.5,6.87,11.3Z"/>
      <path class="cls-13" d="M542.31,243.75c-6.23,13.39-16.07,25.8-27.79,35.9-3.99,3.44-9.82,3.83-12.17,8.09-.05-1.77-2.38-3.66-1.75-5.71,14.2-6.07,22.23-37.01,18.28-53.24s-15.79-28.95-29.67-37.45c-61.38-37.56-134.54-48.59-205.49-42.15-35.42,3.22-68.19,13.33-97.96,32.15-27.62,17.46-52.9,53.9-29.07,84.61,9.66,12.45,22.46,22.14,36.31,27.7,1.94.78,3.6,2.8,6.08,2.39,3.2,3.18,3.98,7.8,5.7,11.87-24.97-7.72-57.29-23.44-66.64-49.52-5.62-15.68-10.8-30.46-10.5-48.5.27-16.35,1.96-33.17,12.9-46.23,13.68-16.34,31.02-28.21,51.03-37.17,72.44-32.43,152.87-37.34,229.61-17.83,50.23,12.78,62.67,21.22,103.25,53.04,20.55,16.11,29.25,40.63,21.59,65.97-1.62,5.34-3.95,11.37-3.7,16.07Z"/>
      <path class="cls-5" d="M215.48,312.02c2.43,15.59,8.61,31.43,17.2,45.31,9.93,16.04,24.34,26.73,37.89,38.18l-.06,2.71c-4.49-3.3-7.23-.02-11.2,2.7-17.39,11.92-45.69,29.38-56.59,45.38-18.41,9.55-42.21,18.52-63.16,22.49-4.9.93-7.69,4.06-11.47,3.85-3.24-.18-4.54,2.91-5.62,5.08-8.65,3.87-11.68,15.3-16.28,24.06-11.17,21.27-17.92,42.86-21.31,66.48-2.18,15.17-7.13,29.27-8,43.69-.21,3.56-3.36,6.42-4.22,9.85-4.41,17.75-3.26,36.15-6.02,54.16-.98.33-2.15.95-2.5,2.01-.17.51-.11,1.61-.11,2.12-2.16,1.42-3.04,4.05-4.05,7.09l-16,47.8c-2.35,7.02-2.72,14.08-3.54,20.64-1.38-1.09-3.2.07-3.97,1.45-1.13,2.01,1.34,3.95,2.14,5.29l-.31,29.41-3.71,7.22c-4.13-2.93-6.1-5.73-9.54-7.07-3.72,9.86-.96,18.25,0,29.89-8.98-2.7-9.11-11.7-11.68-19.71,1.95,6.07-12.44-23.04-10.73-15.92-4.76-23.11-2.79-47.32,3.38-71.09,7.22-27.83,14.59-54.04,19.14-82.61,6.38-40.1,17.01-78.06,32.46-115.36,9.56-23.07,23.4-41.45,42.71-57.52,29.92-24.91,59.4-49.25,86.15-77.46,18.88-19.91,27.66-43.64,24.49-69.72,1.51.08,3.02-.05,4.5-.39Z"/>
      <path class="cls-5" d="M500.59,282.02c-.63,2.06,1.7,3.94,1.75,5.71.59,20.15,43.82,5.67,77.15,49.01,10.95,14.24,20.97,28.26,31.11,43.11l19.37,4.14c-1.12,1.56.53,3.22,1.8,3.61s2.32-.41,3.26-.29l3.55.44.31,4.32c.53,7.44,21.38,19.74,21.88,27.37-25.31-3.58-41.19-15.29-70.26-15.6-1.28-.24-2.59-1.77-4.05-1.76.14-2.23-1.75-6.89-3.28-8.74-2.34-2.84-7.06.53-8.44,2.6-.73-.19-1.8.35-2.46.02-2.59-1.33-5.76-2.15-9.63-1.65-55.44,7.09-85.43,10.25-118.29-36.93-.71-1.03-.87-2.41-1.46-3.59-.55-1.11-.77-1.63-1.99-.39,8.4-12.98,13.05-29.56,15.94-44.7,7.55-3.1,16.91-6.05,18.92-16.1,4.73-23.7,11.8-27.1-8.13-45.38l-10.79,31.22c-.31-16.26-1.45-30.11-4.57-44.31-3.25-14.82-8.2-28.92-16.3-41.86,23.62,13.1,11.68.09,38.73,23.62,3.43,2.98,7.44,8.49,8.53,12.86l10.12,40.53c1.32,5.27,3.2,9.95,7.22,12.75Z"/>
      <path class="cls-9" d="M542.31,243.75c-.26-4.69,2.08-10.72,3.7-16.07,7.67-25.34-1.04-49.86-21.59-65.97-40.59-31.82-53.02-40.26-103.25-53.04-76.74-19.52-157.17-14.6-229.61,17.83-20,8.95-37.35,20.83-51.03,37.17-10.93,13.06-12.63,29.88-12.9,46.23-.3,18.04,4.88,32.82,10.5,48.5-1.88,1.05-2.38-.68-3.38-2.43-11.15-19.49-18.1-41.23-17.83-63.83.24-20.41,11.33-35.18,24.52-49.35,11.85-12.73,31.01-17.36,43.04-28.75,9.83-14.9,9.96-35.59,22.01-50.45C256.94,1.38,345.23-17.54,417.15,17.32c48.66,23.59,58.78,60.41,68.33,109.39,20.2,9.65,38.42,20.89,53.68,36.4,23.23,23.62,21.92,57.3,3.15,80.64ZM469.24,118.49c-6.3-19.31-13.64-36.07-22.19-52.46-9.73-18.66-25.21-29.2-43.96-37.22-53.47-22.85-113.4-19.21-161.76,14.4-19.75,13.73-33.32,42.64-41.03,66.4,82.7-31.23,185.59-24.79,268.94,8.87Z"/>
      <path class="cls-12" d="M862.07,1550.66c-12.27,27.3-58.93,48.53-86.97,54.9,1.89-2.63.53-7.19,1.28-10.09,5.4-8.71,9.52-19.14,8.28-29.41,26.07-3.9,52.05-7.97,77.41-15.4Z"/>
      <path class="cls-12" d="M24.8,936.14c-.37-4.76-.24-9.34-.28-14.09,3.76.49,3.28-4.11,4.44-7.4,5.58-15.77,20.18-26.08,35.79-30.71,11.45-.91,21.59-3.86,34.39-.98-25.89,12.49-47.61,29.49-66.85,50.91-2.17,2.42-5.07,2.68-7.49,2.27Z"/>
      <path class="cls-12" d="M62.63,1017.46c-4.92-3.94-10.66-7.98-16.81-10.9-4.9-2.33-4.99-5.59-7.11-8.6,7.31-1.41,30.76-36.33,32.95-30.3l-9.03,49.81Z"/>
      <path class="cls-14" d="M207.67,261.92l7.81,50.1c-1.47.34-2.99.47-4.5.39-1.89-1.74-4.05-3.13-6.2-4.51-1.72-4.07-2.49-8.69-5.7-11.87-4.41-12.17-1.09-25.63,8.59-34.1Z"/>
      <path class="cls-12" d="M30.69,958.12c-.4-2.7-1.15-7.32-2.1-9.79,4.48.96,7.82-14.92,17.43-19.46,2.27,3.19-13.66,34.7-15.33,29.25Z"/>
      <path class="cls-9" d="M635.04,387.31c-.94-.12-2.05.67-3.26.29-1.27-.39-2.92-2.05-1.8-3.61,1.27.27,2.83-.08,4.48,1.1.58.42,1.77,1.03.58,2.22Z"/>
      <path class="cls-1" d="M702.68,1571.61c-7.74.83-15.12,1.9-24.23,1.33-78.08-4.84-85.86,14.31-97.73,16.37-18.14,3.16-40.36,33.38-50.64,50.33l-49.96,82.4c-2.49.28-4.9,3.54-7.83.97-19-16.62,15.62-78.21,3.5-150.57-2.03-12.11-6.78-23.31-10.95-34.64-14.54-39.48-12.9-62-22.39-99.83,3.45-.69,1.36-4.6,1.14-7.66l-9.72-136.25c-3.4-47.7-1.97-94.07-2.28-141.9-.1-15.15,7.38-27.7,17.9-36.31,25.01,18.4,42.86,48.22,75.01,53.23,10.54,1.64,21.59-1.87,31.52-3.68,16.35-2.98,26.68,5.15,31.13,20.47l79.98,275.26,24.95,83.11c2.96,9.85,10.6,17.69,10.58,27.37Z"/>
      <path class="cls-12" d="M862.51,919.89c-4.92,9.79-8.31,24.29-16.38,32.45-19.98,20.18-42.7,36.93-65.54,53.55-1.18.86-2.8,1.31-4.09,2.1l-95.92,58.34c-.08.39-.19.77-.33,1.15-2.31.2-5.49.5-7.97,2.28-13.21,9.47-43.5,13.62-58.27,29.71-4.2-.41-7.74,3.06-11.25,4.66-5.11,2.33-11.53,1.73-17.75,6.47l46.07,142.66c22.34,69.16,46.46,135.5,73.1,202.89,9.8,24.79,18.89,47.81,26.92,73.15,3.02,9.55,5.34,20.89,11.34,28.47-11.05,9.17-25.82,12.35-39.76,13.85.02-9.68-7.62-17.52-10.58-27.37l-24.95-83.11-79.98-275.26c-4.45-15.32-14.79-23.46-31.13-20.47-9.93,1.81-20.98,5.33-31.52,3.68-32.15-5.02-50-34.84-75.01-53.23-10.52,8.61-17.99,21.16-17.9,36.31.31,47.82-1.12,94.2,2.28,141.9l9.72,136.25c.22,3.07,2.31,6.98-1.14,7.66-4.3-17.16-8.83-33.8-14.6-51.86l-53.87-168.6c-7.77-24.31-11.29-50.45-17.83-75.13,2.9-.1,6.77-2.58,9.62-1.49,2.44,1.76,2.29,6.53,5.89,7.74,9.72,3.26,21.21-1.23,26.31-10.67,24.84-46.04,54.41-57.72,81.1-96.33,3.29,1.07,6.34,3.57,8.9,6.92l32.19,42.08c25.71-7.08,48.22-16.96,72.54-25.85,36.13-13.2,79.05-23.57,111.85-47.23-8.87-10.66-20.83-17.14-33.36-22.01-17.27-6.72-32.73-15.1-49.41-22.65-12.67-5.74-67.21-31.67-57.43-48.79,13.9-7.45,31-3.08,45.75.05,18.09,3.84,32.66,11.13,48.63,19.78,44.14,23.92,96.3,29.02,143.54,8.65-11.01-8.94-23.39-10.91-35.14-15.54-34.64-13.62-64.27-33.24-89.33-60.32-2.5-2.71-36.36-36.22-24.75-39.9,16.11-5.11,31.94-1.03,46.87,5.58,17.09,7.56,33.06,15.53,49.68,24.14,45.79,23.72,57.61,12.67,91.13,25.22,19.28,7.22,14.74,18.58,21.77,28.11Z"/>
      <path class="cls-7" d="M784.66,1566.06c1.24,10.27-2.88,20.7-8.28,29.41-5.81.14-12.29.42-18.84,1.79-64.2,13.47-111.44-.13-158.14,29.25-18.15,11.42-31.9,26.48-46.26,42.12-11.26,12.27-42.92,50.22-56.82,49.35,52.98-35.31,38.06-91.36,84.41-128.66,11.86-2.07,19.64-21.21,97.73-16.37,9.1.56,16.49-.5,24.23-1.33,13.95-1.5,28.71-4.67,39.76-13.85,12.37,5.71,28.27,10.38,42.22,8.29Z"/>
      <path class="cls-16" d="M356.16,1142.38c6.55,24.68,10.06,50.82,17.83,75.13-12.6,1.51-24.96,4.67-37.46,6.87-1.99.35-4.32.39-5.86,1.83-15.22-.21-31.15,1.73-46.28,3.78-2.36.32-4.84-.15-7.21.32,3.58-27.89,2.34-56.15,3.18-84.19l.06-2.09c2.43-2.17,6.32-2.5,9.5-5.05,3.68-2.95,2.85-10.59-1.15-12.56-.33-.68-.16-1.67-.56-2.31,1.53.19,3.13-.35,3.78-1.42.97-1.57,1.01-3.15.93-4.6,3.79,1.51,8.2,1.43,12.86,2.75,7.19,9.99,18.32,13.69,30.02,9.35,4.58,8.8,12.09,12.49,20.35,12.2Z"/>
      <path class="cls-12" d="M580.73,1589.32c-46.35,37.29-31.43,93.34-84.41,128.66-4.75,3.17-10.98,3.64-16.18,4.07l49.96-82.4c10.27-16.94,32.5-47.16,50.64-50.33Z"/>
      <path class="cls-7" d="M336.54,1224.38c12.32,89.68,13.14,147.23,84.18,213.12l10.99,75.37c6.84,46.91,11.73,92.39,17.72,139.63l21.52,169.58c-6.73,14.81-5.69,31.08-6.33,47.91-.86,22.76-3.13,44.56-5.89,65.98h-85.29l26.65-146.58c-17.95,9.8-33.9,19.65-52.31,27.73-47.52,20.87-90.23,46.43-135.81,73.63,29.85-34.81,67.31-59.18,106.38-80.52,17.28-9.44,81.04-39.61,86.01-53.89,7.83-22.52,10.26-45.99,12.03-69.38-45.33,22.15-86.68,41.34-132.01,57.1,44.42-28.96,87.14-57.83,127.24-93.61,3.54-17.24,5.42-34.09,6.22-52.42l-84.62,12.53,87.26-34.64.95-69.76c-31.49,8.91-113.99,20.62-143.34,8.13l141.3-15.79c-16.46-8.15-32.7-11.16-49.82-13.91l-90.24-14.53,43.58-5.2,69.88-5.65c-44.04-13.3-90.34-15.69-136.29-12.23l-21.44,214.97-9.64,88.83c-1.18,10.89-.77,21.64-4.33,32-7.31,21.26-31.21,4.3-44.45,4.95-.97-6.52-.85-13.13.16-19.63,6.17,2.17,20.28,5.82,24.82-.94,7.24-10.79,7.16-25.74,8.96-39.33l33.06-250.23,16.24-112.11,17.33-135.16c2.36-.47,4.85,0,7.21-.32l-6.67,67.88c-2.54,25.88,17.17,32.97,6.99,48.34-6.89,10.41-17.94,1.74-17.71,30.07,17.68-4.87,28.76-17.19,36.16-33.62,16.68-37.09,25.3-76.57,27.51-116.45,1.54-1.44,3.87-1.48,5.86-1.83ZM350.27,1415.75c-10.47-7.49-21.58-9.17-33.08-12.39-17.88-5.01-35.17-9.27-53.17-13.12-2.15,9.94-3.17,18.38-3.11,27.95l89.37-2.43Z"/>
      <path class="cls-15" d="M330.68,1226.21c-2.22,39.88-10.83,79.36-27.51,116.45-7.39,16.44-18.47,28.75-36.16,33.62-.22-28.33,10.83-19.66,17.71-30.07,10.17-15.37-9.53-22.47-6.99-48.34l6.67-67.88c15.13-2.05,31.07-3.99,46.28-3.78Z"/>
      <path class="cls-15" d="M350.27,1415.75l-89.37,2.43c-.06-9.57.96-18.01,3.11-27.95,18.01,3.85,35.29,8.11,53.17,13.12,11.5,3.22,22.62,4.9,33.08,12.39Z"/>
      <path class="cls-2" d="M552.52,448.24c1.1,13.47-1.36,27.16-1.66,41.68-.74,35.55,2.45,69.04,7.01,104.37l30.76,238.42c-19.28,10.78-36.75,19.85-53.49,31.99-7.06,5.12-13.79,9.3-20.75,13.17-2.65-8.53-2.9-17.84-3.88-27.72l-4.01-40.18-16.19-170.23c-.93-9.75,2.7-20.15.22-29.98,14.71-15.18,29.31-23.11,45.32-42.34-12.44-13.2-39.62-25.05-48.08-37,.84-23.67,3.36-47.4,9.64-71.77,18.99-4.21,37-7.78,55.12-10.41Z"/>
      <path class="cls-3" d="M410.36,962.08l32.37,43.31c9.82,13.15,13.01,30.48,4.56,45.17-10.15,17.64-23.75,31.98-35.76,48.25-15.83,21.44-19.73,49.62-35.84,42.59-17.47-7.63,10.12-31.5,10.45-46.26l-24.42,33.99c-4.72,6.57-18.55,5.87-22.58-1.85-4.33-8.31,21.9-40.69,21.34-54.54-14.47,14.5-19.66,33.92-31.13,50.18-3.33,4.72-11.03,1.66-14.18-.31-4.07-2.55-10.77-8.2-7.92-13.68l27.08-52.21c-20.49,16.91-21.44,50.19-51.53,35.52.27-5.52.2-10.47,3.4-16.4,14.78-27.35,31.92-52.39,50.84-77.43-8.51-22.41-20.18-21.11-40.52-22.89-.83-5.99-2.47-13.88,4.11-16.46,1.14.33,2.55-.08,3.65.38,4.97,2.07,9.66-.37,14.18-.87,8.47-.95,16.89-3.83,25.56.27,7.96,3.77,15.91,13.69,25.22,13.45l41.12-10.21ZM362.47,1070.97c0-.55-.45-1-1-1s-1,.45-1,1,.45,1,1,1,1-.45,1-1ZM387.91,1093.45c.47-3.63,2.43-3.45,2.46-5.37-2.28.38-3.3,2.09-3.88,2.99-.68,1.05.54,3.73,1.42,2.37Z"/>
      <path class="cls-12" d="M701.15,743.97l-58.98,41.01c13.93,6.63,56.35-30.42,68.29-37.64,1.01,11.21-46.08,51.88-49.55,52.88l-32.47,9.35-21.52,15.81c6.82-43.72.3-123.23-11.2-164.98-12.36-44.89-25.56-97.98-19.34-144.25.33-2.43,1.46-4.72,3.05-4.95,2.59-.38,4.09,2.34,4.64,5.17,6.06,31.15,8.27,61.81,18.66,93.37,10.19-45.75,19.54-115.03,45.34-151.92,5.82-8.32,10.38-17.28,20.29-21.51-7.04,8.46-11.35,17.8-15.68,28.45-18.59,45.69-27.87,93.72-30.41,143.22-1.09,21.33-5.93,40.56-3.25,62.79,14.32-36.75,20.57-53.04,57.1-73.75,2.68,9.71-1.76,17.28-5.61,25.26-11.9,24.67-32.37,49.17-25.77,79.22,2.3,10.47,10.39,16.2,21.07,17.47,44.47,5.29,86.25-9.17,137.48-1.67,8.25,1.21,24.92,5.62,21.1,15.41-1.14,2.92-6.2,4.21-10.07,3.43-29.37-5.98-87.94-9.7-113.16,7.84Z"/>
      <path class="cls-4" d="M354.17,543.49c.7,4.08-1.35,7.19-2.97,11.82-23.17,65.93-44.1,131.62-58.95,200.14-4.35,20.06-10.49,37.6-12.88,56.67-8.4-5.5-22.74-35.5-28.34-38.21-1.18-11.8-4.52-23.96-4.42-35.84.46-53.71-.97-107.59,5.53-161.93,16.94,40.21,27.27,80.68,34.85,122.18,3.79-5.89.38-11.25.1-16.8-1.49-29.38-2.71-57.95-7.31-87.05-3.6-22.77-9.17-43.92-8.23-67.43,24.97,20.52,54.21,22.84,82.61,16.44Z"/>
      <path class="cls-12" d="M490.52,609.76c2.48,9.84-1.15,20.23-.22,29.98-3.71.55-7.6,2.12-11.45,4.83-70.38,49.54-162.33,131.63-167.41,224.23l-3.83,69.85-13.78-59.36c-4.5-19.4-4.73-39.07-2.82-58.42,3.18-32.17,14.88-60.11,35.3-84.91,41.18-50.02,98.49-84.15,151.48-120.73,4.22-2.92,8.37-5.36,12.73-5.47Z"/>
      <path class="cls-6" d="M444.37,357.38c-5.85-3.15-14.5,24.02-20.17,30.6-3.1,11.23-7.56,21.88-13.81,32.02-7.77,12.59-13.3,25.46-19.12,38.88-3.66,8.46-9.06,15.58-11.26,24.8-1.51,6.34-6.07,11.31-8.1,16.67-28.45,6.38-75.87,11.32-89.8-22.12-5.33-12.81-7.16-26.81-10.35-40.22,1.69-2.89-.7-9.71,4.76-10.19,22.05,29.47,50.87,22.51,80.09,13.4,28.47-8.88,51.23-31.46,61.63-59.39,5.25-10.59,16.33-18.64,22.68-28.44,1.22-1.24,1.43-.72,1.99.39.59,1.18.74,2.56,1.46,3.59Z"/>
      <path class="cls-16" d="M271.77,438.02c3.19,13.4,5.01,27.41,10.35,40.22-6.68,11.95-8.19,26.69-9.91,41.23,17.04,15.3,38.03,22.73,60.41,20.48l21.9-2.2c.16,1.88-.66,3.89-.35,5.75-28.4,6.39-57.64,4.08-82.61-16.44-.94,23.5,4.63,44.65,8.23,67.43,4.6,29.1,5.82,57.67,7.31,87.05.28,5.55,3.7,10.92-.1,16.8-7.58-41.5-17.91-81.97-34.85-122.18-6.5,54.34-5.07,108.22-5.53,161.93-1.34-.38-1.85-1.78-2.24-4.35-12.47-82.46-9.04-165.38,9.13-246.78,4.03-18.04,8.48-35.12,18.25-48.94Z"/>
      <path class="cls-14" d="M479.09,1041.64c-26.69,38.6-56.26,50.29-81.1,96.33-5.09,9.44-16.59,13.93-26.31,10.67-3.6-1.21-3.45-5.98-5.89-7.74-2.85-1.09-6.72,1.39-9.62,1.49-8.25.29-15.77-3.41-20.35-12.2-11.7,4.35-22.83.65-30.02-9.35-4.67-1.32-9.08-1.24-12.86-2.75-6-7.75-10.61-16.04-10.13-25.84,30.09,14.67,31.04-18.61,51.53-35.52l-27.08,52.21c-2.84,5.48,3.85,11.13,7.92,13.68,3.14,1.97,10.85,5.04,14.18.31,11.47-16.26,16.66-35.69,31.13-50.18.56,13.85-25.67,46.23-21.34,54.54,4.03,7.72,17.86,8.42,22.58,1.85l24.42-33.99c-.33,14.76-27.92,38.64-10.45,46.26,16.1,7.03,20.01-21.15,35.84-42.59,12.01-16.27,25.61-30.61,35.76-48.25,8.45-14.69,5.26-32.02-4.56-45.17l-32.37-43.31c.87-.64,1.96-1.58,3.02-1.46,3.26.38,65.78,69.68,65.7,81.01Z"/>
      <path class="cls-12" d="M832.9,850.68c2.1,7.26,1.45,15.52-5.75,17.91-23.21,7.72-64.13-16.54-83.54-30.08-21.82-15.21-44.13-26.81-69.54-33.72,13.5-.48,25.11,2.01,38.04,3.79,19.51,3.52,40.2,9.53,59.95,4.99,13.88-3.2,24.53-4.32,35.96,5.43,9.96,8.49,20.69,17.15,24.89,31.68Z"/>
      <path class="cls-12" d="M590.52,403.84c4.19,7.88,11.14,23.54,2.67,31.36-9.96,9.18-27.72,11.17-40.66,13.04-18.12,2.63-36.12,6.2-55.12,10.41-6.28,24.36-8.8,48.1-9.64,71.77-15.83-6.41-54.58-38.87-58.27-58.09,48-17.53,94.46-29.35,142.24-41.24,5-1.24,13.84-2.92,15.68-7.38,2.61-6.35-1.26-16.44-.94-21.63,1.46,0,2.77,1.52,4.05,1.76Z"/>
      <path class="cls-12" d="M846.4,775.16c12.19,19.93,21.31,39.54,22.3,62.78.08,1.8-.75,3.55-1.77,3.82-8.62,2.2-83.17-77.43-93.88-92.13,16.26-1.95,30.97,2.53,46,5.29,12.43,2.29,20.58,9.17,27.35,20.24Z"/>
      <path class="cls-4" d="M371.92,500.35l-12.49,32.9c-.74,1.96-3.36,4.33-4.91,4.49l-21.9,2.2c-22.39,2.25-43.37-5.18-60.41-20.48,1.72-14.54,3.24-29.28,9.91-41.23,13.93,33.44,61.35,28.5,89.8,22.12Z"/>
      <path class="cls-12" d="M825.91,662.17c-15.17-16.89-28.29-34.58-46.16-49.16-15.77-12.87-12.41-35.83-36.78-65.4-12.2-14.8-29.42-21.27-46.53-28.34-11.69-4.83-14.75-46.43-9.81-58.69,10.56,22.85,23.61,39.64,44.22,51.19,25.88,14.51,23,36.93,32.36,53.54,10.71,19.01,23.26,35.85,37.24,52.5,8.63,14.41,22.14,25.24,25.45,44.35Z"/>
      <path class="cls-12" d="M774.5,703.19c-13.17-1.99-50.53-10.94-40.78-27.66,43.88-22.22,91.55,10.08,117.33,46.22-26.37-8.23-49.81-14.51-76.55-18.55Z"/>
      <path class="cls-16" d="M279.38,812.13c-1.79,14.33-3.15,28.37-.97,43.87,3.4,24.13,8.94,46.89,15.42,70.3,3.12,11.28,6.59,22.01,6.81,32.77-6.58,2.58-4.94,10.47-4.11,16.46-2.34-.2-5.55-.4-7.87-.16l-14.93-72.93c-8.87-43.33-18.39-85.5-22.69-128.52,5.6,2.71,19.93,32.71,28.34,38.21Z"/>
      <path class="cls-12" d="M304.62,733.62c19.35-33.91,48.65-61.53,80.65-84.66l84.74-61.25c9.54-6.9,20.87-10.03,29.23-19.86-24.28-14.38-46.5-29.46-67.1-47.41-8.8-7.66-29.83-37.87-16.46-39.33,4.13,18.08,14.26,31.94,29.48,42.37l64.62,44.24c-19.74,17.44-39.81,30.38-60.41,44.97-28.26,19.56-56.31,37.43-82.47,59.65-24.32,17.01-40.98,38.61-62.28,61.29Z"/>
      <path class="cls-12" d="M762.94,795.34l-88.98,4.57c10.06-11.1,21.7-17.94,34.29-24.32,26.13-13.24,59.19-.99,59.93,13.11.1,1.86-1.22,6.43-5.24,6.64Z"/>
      <path class="cls-12" d="M514.38,877.88c-4.89,2.72-8.11,9.43-15.09,9.53,3.8-25.21,5.8-49.91,5.23-75.27-.03-1.47,1.18-2.43,1.98-2.16l4.01,40.18c.99,9.89,1.23,19.19,3.88,27.72Z"/>
      <path class="cls-12" d="M572.29,395.96c.65.33,1.73-.2,2.46-.02,1.6,5.67,5.46,10.93,2.97,18.32-3.18-5.96-4.66-12.02-5.42-18.3Z"/>
      <path class="cls-16" d="M318.47,958.57c-4.51.51-9.21,2.95-14.18.87,3.98-2.93,9.48-1.31,14.18-.87Z"/>
      <circle class="cls-12" cx="303.47" cy="736.97" r="1"/>
      <path class="cls-10" d="M1102.12,1371.14c-48.76,19.74-93.94,38.89-137.02,73.51,4.33-19.96,3.97-38.26-5.31-56.36-2.75-5.37-4.4-12.61-.78-17.69l25.8-36.19c10.35-14.51,20.98-28.88,26.38-45.91l13.65-43.01c19.91,2.31,24.14,81.27,24.87,97.97,8.49-13.53,14.72-41.22,35.44-37.71,23.28,3.94,21.33,47.89,16.95,65.4Z"/>
      <path class="cls-10" d="M680.58,1066.33l95.92-58.34c-.01,2.92,1.98,5.08,4.07,7.79,11.93,15.47,21.92,31.6,30.15,49.51,13.64,29.69,9.37,75.78-26.49,87.08.94-13.81,3.92-27.39-2.45-39.6-10.51-20.14-26.88-36.49-45.36-48.83,2.52,11.1,19.84,26.95,13.67,36.93-5.4,8.73-30.41-9.63-35.59-13.18l-24.86-17.02c-3.16-2.16-5.66-4.71-9.05-4.34Z"/>
      <path class="cls-10" d="M851.96,1179.41c-33.57,17.79-59.94,26.89-92.55-1.11,94.42-17.44,143.99-55.09,157.82-152.82,13.49,61.6-7.15,123.12-65.26,153.93Z"/>
      <path class="cls-10" d="M780.59,1005.89c22.84-16.62,45.56-33.36,65.54-53.55,12.14,11.43,56.4,54.99,51.75,72.71-6.37,24.27-102.95-6.94-117.29-19.16Z"/>
      <path class="cls-10" d="M1018.16,1244.76c-2.38.99-4.14.93-3.53.21,1.75-2.08,2.35-2.9,3.03-3.03,2.09-.38,4.15,1.3.5,2.82Z"/>
      <path class="cls-2" d="M614.02,1099.46c27,68.56,57.45,135.28,95.45,199.58,31.66,57.75,67.07,110.48,103.15,167.24-71.95-74.77-128.18-161-170.96-254.69-17.05-35.39-27.77-71.19-38.89-107.47,3.52-1.61,7.06-5.07,11.25-4.66Z"/>
      <path class="cls-12" d="M270.51,398.22c2.32,3.68,3.59,7.85,5.57,11.7.83,1.62-.09,4.1.5,5.82.24.7.16,1.5.27,2.23.51,3.28.58,6.64-.33,9.85-5.46.48-3.07,7.31-4.76,10.19-9.77,13.81-14.22,30.89-18.25,48.94-18.18,81.39-21.6,164.32-9.13,246.78.39,2.56.9,3.97,2.24,4.35-.1,11.88,3.24,24.04,4.42,35.84,4.3,43.02,13.82,85.19,22.69,128.52l14.93,72.93c-5.29.56-10.53,1.01-15.88.56-.59-.05-1.19-.13-1.78-.12.02-3.13-.55-7.75-4.32-8.23.06-18.76-5.18-35.94-14.82-53.03-37.23-66.02-111.65-170.97-138.68-231l-27.63-61.37c14.92-18.96,30.38-33.99,46.18-50.97l56.3-60.46c5.35,5.3.27,8.23-3.1,11.86l-91.42,98.47c19.92,51.09,43.18,97.13,71.37,142.15l40.81,65.17c18.45,26.61,33.85,53.53,50.27,81.71-.06-14.41-6.22-25.55-9.01-38.39l-7.93-36.6c-15.45-71.27-22.91-127.39-19.08-201.08,1.64-31.58-.95-61.9,3.64-92.84l8.17-55.17c1.79-12.06.1-26.35-7.44-36.14-4.04-5.25-16.03-4.43-21.59-3.57,10.9-16,39.2-33.46,56.59-45.38,3.97-2.72,6.71-6,11.2-2.7Z"/>
      <path class="cls-3" d="M256.24,968.18c4.12,3.4,8.69,7.75,14.76,7.63.59-.01,1.19.07,1.78.12,9.45,9.7-42.4,24.91-40.83,39.9l4.98,47.63c4.69,44.84,40.87,43.57,51.28,60.65.39.64.23,1.63.56,2.31-3.07,15.48-48.88-2.43-62.42-14.23-15.09-13.15-18.53-32.36-26.27-50.81-1.49,22.8,8.83,47.19,26.41,61.98,16.85,14.18,52.03,16.51,53.62,18.37.43.51.5,1.43.33,2.31l-.06,2.09-12.15,6.37c-1.24-.34-2.79.2-3.99-.27-13.68-5.35-32.18-4.06-44.74-13.01l-33.86-53.88c.1,4.78,1.8,9.92,4.02,13.8l23.89,41.91c2.03,3.56,7.48,5.28,11.29,6.15l37.9,8.71c-.15.72.33,2.23,1.28,1.83-.6.34-.95,1.53-1.43,2.04-20.01,3.34-41.01,2.57-60.87-5.05-10.35-18.48-18.75-36.33-30.94-52.83l25.42,59.91c-.71,1.1-1.29,2.27-1.72,3.5-.99-.59-2.94-1.62-4.02-1.9-.83-2.54-2.84-4.3-5.07-5.66-2.03-3.8-5.43-7.1-6.87-11.3-.82-2.39-1.77-4.92-3.93-6.35-.1-9.51-18.75-38-18.62-43.97.8-37.94-7.31-85.76,33.91-108.63,14.75-8.18,30.04-13.7,46.22-18.09,1.97-.53,2.59-2.2,2.31-3.35,5.53.63,12.49.17,17.84,2.12Z"/>
      <path class="cls-12" d="M44.2,850.41c-.81-2.73.61-5.61.45-8.27,14.03-11.28,29.65-18.79,47.44-25.33,6.49-2.38,6.25-14.8,3.88-20.64l-25.73-63.44-6.1-22.85-.11-29.79c0-.5-.06-1.6.11-2.12.7-.46,2.35-1.02,2.5-2.01,2.76-18.01,1.61-36.41,6.02-54.16,9.89,52.04,36.84,95.26,60.3,143.83,11.43,23.66,17.94,48.8,25.43,73.9l20.78,69.67c.55,1.85,1.59,4.29.96,5.33-3.44,5.7-33.17-1.95-44.06-3.06,8.01-5.15,16.73-4.39,26.49-7.95-17.03-14.66-52.3-6.28-71.8-6.6,19.21-9.99,38.65-8.55,58.83-14.66-27.23-15.25-69.51-6.78-85.56-9.84-2.84-.54-5.57-1.05-5.77-3.18s.3-5.4,2.75-6.74c28.43-15.52,50.12-3.01,80.58-.7-4.38-7.8-13.15-8.4-20.86-11.53-16.31-6.62-33.18-11.6-50.74-8.35-9.34,1.73-17.18,7.95-25.81,8.48Z"/>
      <path class="cls-12" d="M256.59,963.57l-.35,4.6c-5.35-1.94-12.31-1.48-17.84-2.12-11.79-1.35-23.62,1.72-35.99,3.9-22.78,4.01-39.72,19.08-46.83,41.34-6.72,21.03-13.77,68.73.39,84.82-.13,5.97,18.52,34.46,18.62,43.97-14.31,6-29.72,12.07-45.28,4.22-8.77-4.42-15.67-15.52-17.32-25.93-7.89-49.5,9.6-98.82,44.88-133.84,15.27-15.16,32.41-27.54,53.76-32.12,12.21-2.62,23.11,3.88,35.95,5.03-14.57-17.42-32.91-29.6-53.74-38.46-8.42-38.54-25.26-74.6-34.31-115.28l42.13,64.26c20.66,31.51,40.14,62.39,55.94,95.59Z"/>
      <path class="cls-12" d="M122.47,477.73l5.61.18c2.09,4.3,7.33,4.26,12.01,5.92,13.03,4.62,25.68,9.47,36.25,20.17-35.69,35.79-67.68,71.54-99.46,107.96.86-14.42,5.82-28.52,8-43.69,3.39-23.62,10.14-45.21,21.31-66.48,4.6-8.76,7.64-20.19,16.28-24.06Z"/>
      <path class="cls-12" d="M40.54,966.29c1.34-14.21,8.09-25.56,14.56-37.65,10.75-20.08,50.12-28.84,72.82-25.06-27.8,9.06-50.96,23.85-69.49,46.6-4.87,5.98-9.17,12.02-17.89,16.12Z"/>
      <path class="cls-6" d="M266.68,967.57c3.77.48,4.34,5.1,4.32,8.23-6.07.12-10.64-4.23-14.76-7.63l.35-4.6c3.25,1.77,6.41,3.53,10.09,4Z"/>
      <path class="cls-9" d="M128.09,472.64c-.25,1.74-.23,3.51-.02,5.26l-5.61-.18c1.08-2.17,2.38-5.26,5.62-5.08Z"/>
      <path class="cls-1" d="M262.71,1164c2.95,2.88,2.13,7.03,1.52,11.95l-28.77,230.76-29.2,222.78c-4.3,32.78-8.3,63.3-14.9,95.39-1.11,5.39-3.43,15.32-8.87,16.73-10.04-.19-17.59-9.53-21.91-17.24,9.41-30.5,14.62-59.58,19.33-90.99,9.28-61.88,16.61-122.5,19.75-185.23,1.98-39.62,6.61-76.66,6.3-116.16l-1.3-162.33c11.15-2.83,18.97,7.57,20.05-1.71l3.59-.09c2.56-.07,20.18,1.33,18.16-1.9,1.29-.17,2.7-.05,4,0,2.22.09,4.48-.21,6-2h2l4.25.03Z"/>
      <path class="cls-14" d="M262.58,1159.76c-.2.59.46,1.54.38,2.21-1.72,0-3.82.16-4.49,2h-2c-2.17-.09-5.09-.43-6,2-1.3-.05-2.71-.17-4,0-6.11.79-13.22-2.1-18.16,1.9l-3.59.09c-9.86.57-19.7-1.75-28.53-6.16l-25.42-59.91c12.19,16.49,20.59,34.35,30.94,52.83,19.86,7.61,40.86,8.38,60.87,5.05Z"/>
      <path class="cls-15" d="M224.72,1167.96c-1.08,9.27-8.9-1.12-20.05,1.71-3.09-2.2-6.97-2.44-10.2-4.36.43-1.23,1.01-2.41,1.72-3.5,8.83,4.41,18.67,6.72,28.53,6.16Z"/>
      <path class="cls-15" d="M268.22,1152.49c-1.18,1.6-2.27,4.15-4.21,5.23-.94.41-1.42-1.1-1.28-1.83.26-1.3,1-2.47,1.5-3.68,1.2.47,2.75-.07,3.99.27Z"/>
      <path class="cls-15" d="M190.45,1163.4c-3.37-.56-3.71-3.11-5.07-5.66,2.23,1.36,4.24,3.12,5.07,5.66Z"/>
      <path class="cls-15" d="M262.96,1161.97l-.24,2.03-4.25-.03c.67-1.84,2.77-2.01,4.49-2Z"/>
      <path class="cls-6" d="M500.59,282.02c-4.02-2.81-5.9-7.48-7.22-12.75l-10.12-40.53c-1.09-4.36-5.1-9.87-8.53-12.86-27.05-23.53-15.11-10.53-38.73-23.62-53.02-29.39-154.03-33.42-209.49-.22l-9.73,5.82c-11.85,7.1-24.09,19.47-27.37,34-4.07,18.03,7.11,47.61,3.58,61.77-13.84-5.55-26.65-15.25-36.31-27.7-23.83-30.71,1.45-67.14,29.07-84.61,29.77-18.82,62.54-28.94,97.96-32.15,70.95-6.44,144.11,4.59,205.49,42.15,13.88,8.49,25.81,21.58,29.67,37.45s-4.08,47.17-18.28,53.24Z"/>
      <path class="cls-5" d="M216.78,197.86c-2.43,10.6-5.74,20.9-5.77,31.79-.03,10.52-4.99,21.69-3.34,32.27-9.68,8.48-13.01,21.94-8.59,34.1-2.48.41-4.14-1.61-6.08-2.39,3.53-14.17-7.66-43.74-3.58-61.77,3.28-14.54,15.52-26.91,27.37-34Z"/>
      <path class="cls-3" d="M366.46,188.05c-6.33,2.06-13.78,2.89-18.3,9.88,7.66,7.97,26.3-4.27,50.16-2.05-.5,2.37,2.59,2.85,2.31.22l3.69.21c-.08,1.87,1.67,2.74,3.79,3.71,25.46,11.71,26.75,17.33,44.18,34.11,3.11,14.21,4.25,28.06,4.57,44.31l10.79-31.22c19.93,18.28,12.86,21.68,8.13,45.38-2.01,10.05-11.36,13-18.92,16.1-2.89,15.14-7.54,31.72-15.94,44.7-6.35,9.8-17.43,17.84-22.68,28.44-3.04-.09-5.41,1.64-8.18,3.91-34.16,28.1-85.24,48.91-124.33,19.13-4.96-3.78-11.02-5.85-15.17-9.36-13.55-11.45-27.96-22.14-37.89-38.18-8.6-13.88-14.77-29.72-17.2-45.31l-7.81-50.1c-1.65-10.59,3.31-21.75,3.34-32.27,6.98-4.09,10.55-12.1,17.86-17.28,3.43-2.43,6.96-4.82,8.01-8.4,23.44-8.11,44.3,3.26,56.83-3.74-3.74-6.49-10.18-6.76-16.9-8.3-.47-3.16,2.48-3.6,5.55-4.28,26.53-5.95,52.62-7.91,79.37-2.8,2.41.46,4.02,1.54,4.73,3.2ZM388.53,227.69c3.23.88,6-.63,9.88-1.89,3.51-.86,7.75,2.92,12.25-.23-7.55-5.55-15.43-11.46-24.97-12.43-12.19-1.24-24.31,5.83-29.39,16.54,5.48-.94,6.55-6.43,12.16-8.53,2.2,4.36,3.86,8.3,7.27,8.81,4.57.68,8.44.22,12.79-2.26ZM248.65,231.37c3.87,1.21,7.89,1.49,13.51,2.17,4.27.52,8.45,1.08,14.51.16,3.2-.48,6.56-.16,11.33-.29,1.02-.03,2.22,1.2,3.45.6.85-.41,2.01-2.36.55-3.47-2.41-1.83-5.44-2.21-7.93-5.14-11.34-13.39-35.4-6.92-46.09,6.4,3.6,1.8,6.34-.04,10.66-.43ZM355.74,268.97c0-.7-.57-1.27-1.27-1.27s-1.27.57-1.27,1.27.57,1.27,1.27,1.27,1.27-.57,1.27-1.27ZM290.54,274.44c-4.7,1.32-6.26,7.08-6.54,10.81-.32,4.32,2.54,11.65,8.05,11.17,11.33-.98,20.92,9.37,30.04,10.01,9.89-.93,19.46-10.75,30.86-10.27,6.43.27,10.72-7.18,10.89-11.41.23-5.61-.76-12.28-7.45-13.21,1.03,5.42,5.52,13.36-.01,16.54-5.06,2.91-12.53-3.61-17.85-1.78-11.58,4-22,5.8-34.14,1.89-4.58-1.48-11.43,2.46-15.27-.62s.84-7.89,1.42-13.14ZM284.16,331.6c-1.12.14-2.01.28-2.67.56-.97.41-1.73,1.75-1.04,2.81.5.76,1.56,1.2,3.77,1.57,4.3,13.02,18.75,19.07,32.48,23.52-3.95,3.86-9.68,4.11-11.98,11.11,13.45-1.01,26.81-3,40.61.19,2.6.6,4.9.99,5.91-1.34.95-2.21.76-5.07-2.47-6.28-4.35-1.64-8.57-1.81-12.62-3.95,10.56-4,34.39-12.79,34.23-25.78,1.85-2.11,4.28-2.54,3.73-4.78-.45-1.87-4.22.13-5.26-1.29-9.58-13.15-28.05-12.85-44.26-12.61-15.54.23-31.35,1.95-40.44,16.28Z"/>
      <path class="cls-11" d="M64.15,677.98c.35-1.06,1.52-1.68,2.5-2.01-.15.99-1.8,1.55-2.5,2.01Z"/>
      <path class="cls-14" d="M436,192.26c8.1,12.94,13.05,27.04,16.3,41.86-17.43-16.78-18.72-22.39-44.18-34.11-2.12-.97-3.86-1.84-3.79-3.71l16.02,3.14c-14.83-15.85-33.96-17.87-53.89-11.39-.7-1.66-2.31-2.74-4.73-3.2-26.75-5.12-52.83-3.16-79.37,2.8-3.07.69-6.02,1.12-5.55,4.28-19.2-3.03-37.15-4.84-49.28,13.37,4.22.38,7.01-.53,9.34-1.33-1.05,3.58-4.58,5.97-8.01,8.4-7.31,5.18-10.88,13.19-17.86,17.28.03-10.89,3.34-21.19,5.77-31.79l9.73-5.82c55.46-33.2,156.47-29.17,209.49.22Z"/>
      <path class="cls-13" d="M469.24,118.49c-83.35-33.65-186.24-40.09-268.94-8.87,7.71-23.77,21.29-52.68,41.03-66.4,48.35-33.61,108.29-37.26,161.76-14.4,18.75,8.01,34.23,18.56,43.96,37.22,8.55,16.39,15.89,33.15,22.19,52.46Z"/>
      <path class="cls-11" d="M44.65,842.14c-.67-11.15-1.97-23.24.79-34.29,3.41-13.61,9.02-26.58,8.28-41.98-.45-9.28,4-17.8,4.96-26.51.33-3.02,2.73-32.91,5.46-29.47l6.1,22.85,25.73,63.44c2.37,5.84,2.6,18.26-3.88,20.64-17.79,6.54-33.41,14.05-47.44,25.33Z"/>
      <path class="cls-6" d="M288.66,975.37c2.32-.24,5.53-.05,7.87.16,20.34,1.78,32.01.48,40.52,22.89-18.92,25.03-36.06,50.07-50.84,77.43-3.21,5.93-3.13,10.88-3.4,16.4-.48,9.8,4.13,18.1,10.13,25.84.08,1.45.04,3.03-.93,4.6-.66,1.07-2.25,1.61-3.78,1.42-10.41-17.08-46.6-15.81-51.28-60.65l-4.98-47.63c-1.57-14.99,50.28-30.2,40.83-39.9,5.35.46,10.59,0,15.88-.56Z"/>
      <path class="cls-14" d="M288.78,1126.41c4,1.97,4.83,9.61,1.15,12.56-3.18,2.55-7.07,2.88-9.5,5.05.17-.88.11-1.8-.33-2.31-1.59-1.86-36.77-4.19-53.62-18.37-17.58-14.79-27.9-39.18-26.41-61.98,7.74,18.45,11.19,37.66,26.27,50.81,13.54,11.8,59.36,29.71,62.42,14.23Z"/>
      <path class="cls-14" d="M387.91,1093.45c-.87,1.36-2.09-1.32-1.42-2.37.58-.9,1.6-2.61,3.88-2.99-.03,1.92-1.99,1.74-2.46,5.37Z"/>
      <circle class="cls-14" cx="361.47" cy="1070.97" r="1"/>
      <path class="cls-14" d="M418.25,381.83c-10.4,27.93-33.16,50.51-61.63,59.39-29.71-.74-58.89-9.9-80.54-31.3-1.99-3.85-3.25-8.02-5.57-11.7l.06-2.71c4.15,3.51,10.21,5.58,15.17,9.36,39.09,29.78,90.17,8.97,124.33-19.13,2.77-2.28,5.14-4,8.18-3.91Z"/>
      <path class="cls-3" d="M356.62,441.22c-29.22,9.11-58.04,16.08-80.09-13.4.91-3.21.84-6.57.33-9.85,2.25.03,1.9-2.8-.27-2.23-.59-1.72.33-4.21-.5-5.82,21.64,21.39,50.82,30.56,80.54,31.3Z"/>
      <path class="cls-15" d="M276.86,417.97c-.11-.73-.03-1.53-.27-2.23,2.17-.58,2.52,2.26.27,2.23Z"/>
      <path class="cls-14" d="M238.4,966.06c.29,1.15-.34,2.81-2.31,3.35-16.18,4.39-31.47,9.91-46.22,18.09-41.22,22.87-33.11,70.69-33.91,108.63-14.15-16.09-7.1-63.79-.39-84.82,7.11-22.26,24.05-37.33,46.83-41.34,12.37-2.18,24.2-5.25,35.99-3.9Z"/>
      <path class="cls-14" d="M264.23,1152.22c-.49,1.21-1.24,2.38-1.5,3.68l-37.9-8.71c-3.81-.88-9.26-2.59-11.29-6.15l-23.89-41.91c-2.21-3.88-3.91-9.02-4.02-13.8l33.86,53.88c12.56,8.95,31.06,7.67,44.74,13.01Z"/>
      <path class="cls-15" d="M246.47,1165.97c2.01,3.23-15.6,1.83-18.16,1.9,4.94-4,12.05-1.1,18.16-1.9Z"/>
      <path class="cls-15" d="M256.47,1163.97c-1.52,1.79-3.78,2.09-6,2,.91-2.43,3.83-2.09,6-2Z"/>
      <path class="cls-14" d="M370.38,334.01c.16,12.99-23.67,21.78-34.23,25.78,4.06,2.13,8.27,2.31,12.62,3.95,3.23,1.21,3.42,4.08,2.47,6.28-1.01,2.33-3.31,1.94-5.91,1.34-13.81-3.19-27.17-1.2-40.61-.19,2.31-7,8.03-7.25,11.98-11.11-13.73-4.45-28.18-10.5-32.48-23.52l4.48-.6c24.48,10.63,53.23,11.02,75.76-3.64,1.68,1.33,3.84,1.52,5.91,1.7Z"/>
      <path class="cls-14" d="M290.54,274.44c-.58,5.25-5.29,10.05-1.42,13.14s10.69-.86,15.27.62c12.14,3.91,22.55,2.1,34.14-1.89,5.32-1.84,12.79,4.69,17.85,1.78,5.53-3.18,1.04-11.11.01-16.54,6.68.93,7.68,7.6,7.45,13.21-.18,4.23-4.46,11.68-10.89,11.41-11.4-.48-20.97,9.34-30.86,10.27-9.12-.64-18.7-10.99-30.04-10.01-5.5.48-8.37-6.85-8.05-11.17.28-3.72,1.84-9.49,6.54-10.81ZM347.74,291.87c-7.56-4.02-13.42-.62-17.61,3.78,6.44-.6,11.79-.39,17.61-3.78ZM310.43,293.13c-5.25-1.78-7.96-2.02-10.11.07,4.08,1.34,7.25,1.35,10.11-.07Z"/>
      <path class="cls-14" d="M368.86,327.93c-.92,1.32-2.75,2.76-4.51,2.36-18.15-4.17-37.92-7.92-56.66-3.12l-18.89,4.83c-1.45.37-3.13-.5-4.64-.39,9.09-14.34,24.89-16.06,40.44-16.28,16.21-.24,34.67-.54,44.26,12.61Z"/>
      <path class="cls-10" d="M276.82,191.93c6.72,1.54,13.16,1.81,16.9,8.3-12.53,7-33.39-4.37-56.83,3.74-2.33.81-5.12,1.71-9.34,1.33,12.13-18.21,30.08-16.4,49.28-13.37Z"/>
      <path class="cls-10" d="M398.41,225.8c-.99-3.3-3.58-6.04-7.62-6.99-1.45,3.13-1.64,6.06-2.26,8.89-4.35,2.49-8.22,2.94-12.79,2.26-3.41-.51-5.07-4.44-7.27-8.81-5.61,2.1-6.69,7.59-12.16,8.53,5.07-10.72,17.19-17.78,29.39-16.54,9.53.97,17.41,6.87,24.97,12.43-4.5,3.15-8.74-.63-12.25.23Z"/>
      <path class="cls-10" d="M284.07,225.4l-1.92.34c-2.54,2.09-3.98,5.09-5.49,7.96-6.07.92-10.24.36-14.51-.16-1.97-2.54-2.38-5.81-3.8-9.71-5.47-.42-8.96,3.18-9.71,7.54-4.32.39-7.06,2.24-10.66.43,10.69-13.32,34.74-19.79,46.09-6.4Z"/>
      <path class="cls-8" d="M262.16,233.54c-5.62-.69-9.65-.96-13.51-2.17.75-4.36,4.24-7.96,9.71-7.54,1.43,3.9,1.83,7.18,3.8,9.71Z"/>
      <path class="cls-8" d="M288.01,233.41c-4.77.13-8.13-.19-11.33.29,1.5-2.87,2.94-5.88,5.49-7.96,2.22,2.53,6.73,3.77,5.85,7.67Z"/>
      <path class="cls-8" d="M398.41,225.8c-3.88,1.26-6.65,2.78-9.88,1.89.62-2.82.81-5.75,2.26-8.89,4.04.95,6.62,3.69,7.62,6.99Z"/>
      <path class="cls-7" d="M288.01,233.41c.89-3.9-3.62-5.14-5.85-7.67l1.92-.34c2.49,2.94,5.52,3.31,7.93,5.14,1.47,1.11.3,3.06-.55,3.47-1.23.6-2.43-.63-3.45-.6Z"/>
      <circle class="cls-14" cx="354.47" cy="268.97" r="1.27"/>
      <path class="cls-14" d="M398.33,195.88l2.31.22c.28,2.63-2.82,2.16-2.31-.22Z"/>
      <path class="cls-10" d="M404.33,196.3l-3.69-.21-2.31-.22c-23.87-2.22-42.51,10.02-50.16,2.05,4.51-6.99,11.97-7.82,18.3-9.88,19.93-6.48,39.06-4.46,53.89,11.39l-16.02-3.14Z"/>
      <path class="cls-8" d="M364.35,330.29l.12,2.02c-22.53,14.66-51.28,14.26-75.76,3.64l.1-3.95,18.89-4.83c18.74-4.79,38.51-1.05,56.66,3.12Z"/>
      <path class="cls-2" d="M347.74,291.87c-5.82,3.39-11.17,3.18-17.61,3.78,4.19-4.4,10.05-7.8,17.61-3.78Z"/>
      <path class="cls-10" d="M310.43,293.13c-2.86,1.42-6.03,1.42-10.11.07,2.15-2.1,4.86-1.85,10.11-.07Z"/>
    </g>
  </g>
</svg>