<?xml version="1.0" encoding="UTF-8"?>
<svg id="Layer_2" data-name="Layer 2" xmlns="http://www.w3.org/2000/svg" xmlns:xlink="http://www.w3.org/1999/xlink" viewBox="0 0 73.12 69.59">
  <defs>
    <style>
      .cls-1 {
        fill: url(#linear-gradient);
      }

      .cls-2 {
        fill: #fff;
      }
    </style>
    <linearGradient id="linear-gradient" x1=".88" y1="70.47" x2="72.24" y2="-.88" gradientUnits="userSpaceOnUse">
      <stop offset="0" stop-color="#54005f"/>
      <stop offset=".33" stop-color="#370049"/>
      <stop offset="1" stop-color="#00001f"/>
    </linearGradient>
  </defs>
  <g id="Layer_2-2" data-name="Layer 2">
    <g>
      <rect class="cls-1" width="73.12" height="69.59"/>
      <g id="uuid-6bb88cf6-cd6e-41fc-a0ca-4952aaaf557e" data-name="Layer 2-2">
        <g>
          <path class="cls-2" d="M15.85,27.17c-2.11,0-4.02.85-5.39,2.22-1.38,1.38-2.23,3.29-2.23,5.39s.85,4.02,2.23,5.39c1.38,1.38,3.29,2.23,5.39,2.23s4.01-.85,5.39-2.22c1.38-1.38,2.23-3.29,2.23-5.39s-.85-4.02-2.23-5.39c-1.38-1.38-3.29-2.23-5.39-2.23ZM19.05,38c-.81.82-1.95,1.33-3.2,1.33s-2.38-.5-3.2-1.33-1.33-1.95-1.33-3.21.5-2.38,1.33-3.2c.81-.82,1.95-1.33,3.2-1.33s2.38.5,3.2,1.33,1.33,1.95,1.33,3.2-.5,2.39-1.33,3.21Z"/>
          <path class="cls-2" d="M15.85,13.52c-1.06,0-1.93.86-1.93,1.93,0,1.23,1.15,2.19,2.44,1.86.65-.17,1.18-.7,1.35-1.35.33-1.29-.63-2.44-1.86-2.44Z"/>
          <path class="cls-2" d="M15.85,46.52c-2.11,0-4.02.85-5.39,2.23-1.38,1.38-2.23,3.29-2.23,5.39s.85,4.02,2.23,5.39c1.38,1.38,3.29,2.23,5.39,2.23s4.02-.85,5.39-2.23c1.38-1.38,2.23-3.29,2.23-5.39s-.85-4.02-2.23-5.39-3.29-2.23-5.39-2.23ZM19.05,57.34c-.81.82-1.95,1.33-3.2,1.33s-2.39-.5-3.21-1.33-1.33-1.95-1.33-3.21.5-2.38,1.33-3.2c.81-.82,1.95-1.33,3.2-1.33s2.38.5,3.2,1.33,1.33,1.95,1.33,3.2c0,1.26-.5,2.39-1.33,3.21Z"/>
          <path class="cls-2" d="M15.85,7.83c-2.11,0-4.02.85-5.39,2.23-1.38,1.38-2.23,3.29-2.23,5.39s.85,4.01,2.23,5.39c1.38,1.38,3.29,2.23,5.39,2.23s4.02-.85,5.39-2.23,2.23-3.29,2.23-5.39-.85-4.02-2.23-5.39c-1.38-1.38-3.29-2.23-5.39-2.23ZM19.05,18.65c-.81.82-1.95,1.33-3.2,1.33s-2.39-.5-3.21-1.33c-.82-.81-1.33-1.95-1.33-3.2s.5-2.38,1.33-3.2c.81-.82,1.95-1.33,3.2-1.33s2.38.5,3.2,1.33,1.33,1.95,1.33,3.2-.5,2.38-1.33,3.2Z"/>
          <path class="cls-2" d="M33.79,21.19h25.31c3.2,0,5.8-2.6,5.8-5.8s-2.6-5.8-5.8-5.8h-25.31c-3.2,0-5.8,2.6-5.8,5.8s2.6,5.8,5.8,5.8Z"/>
          <path class="cls-2" d="M33.79,29.3h25.31c3.2,0,5.8,2.6,5.8,5.8h0c0,3.2-2.6,5.8-5.8,5.8h-25.31c-3.2,0-5.8-2.6-5.8-5.8h0c0-3.2,2.6-5.8,5.8-5.8Z"/>
          <path class="cls-2" d="M59.1,48.34h-25.31c-3.2,0-5.8,2.6-5.8,5.8s2.6,5.8,5.8,5.8h25.31c3.2,0,5.8-2.6,5.8-5.8s-2.6-5.8-5.8-5.8Z"/>
        </g>
      </g>
    </g>
  </g>
</svg>