<?xml version="1.0" encoding="UTF-8"?><svg xmlns="http://www.w3.org/2000/svg" id="Layer_2" data-name="Layer 2" viewBox="0 -6.784999999999968 1024.02 1024.02">
  <defs>
    <style>
      .cls-1 {
        fill: #fff;
      }
    </style>
  </defs>
  <g id="Layer_1-2" data-name="Layer 1">
    <path d="M646.87,1010.28l-111.45.02h-91.04s-107.01.03-107.01.03l-131.95-.02-97.94.15c-25.5.04-48.14-6.9-67.9-22.43C12.63,966.84-.03,935.85,0,901.87L.64,97.3C.68,44.44,45.87,0,98.6,0l827.69.1c51.6,0,97.64,45.16,97.65,97.21l.08,810.66c0,52.66-45.2,98.25-96.32,101.55l-88.36.69-104.92.12-87.56-.03Z"/>
    <path class="cls-1" d="M953.53,903.05c0,2.38-.22,4.75-.73,7.07-3.41,15.51-15.62,30.31-32.2,30.31l-817.87.23c-13.36-.56-24.35-8.58-28.93-20.34-1.47-3.78-2.1-7.84-2.1-11.9l.04-670.94c0-19.19,15.56-34.74,34.74-34.74l812.56.07c19.19,0,34.74,15.56,34.74,34.75l-.11,525.4-.15,140.08Z"/>
    <path class="cls-1" d="M362.51,159.08c-24.49-16.13-34.36-45.35-26.27-72.28,7.95-26.47,32.66-44.65,61.97-44.82,27.64-.16,51.6,17.72,60.08,41.44,9.66,27.03.85,55.94-20.19,72.49-21.65,17.04-51.36,19.13-75.59,3.16Z"/>
    <path class="cls-1" d="M207.57,75.26c14.67,27.37,7.51,58.8-14.03,78.28-21.24,19.22-53.46,21.75-77.69,6.02-24.12-15.65-35.73-45.85-26.14-74.06,8.43-24.79,30.11-40.77,54.41-43.09,25.56-2.44,50.66,9,63.44,32.84Z"/>
    <path class="cls-1" d="M635.8,168.97c-32.48-4.65-54.11-31.15-55.19-60.87-1.13-30.88,19.61-57.73,50.35-64.51,39.24-8.66,75.64,19.37,78.21,57.54,2.69,40.13-31.38,73.85-73.37,67.84Z"/>
    <path d="M727.27,828.78c-94.02,82.44-229.04,102.67-342.34,54.23-148.4-63.45-230.21-225.65-194.08-382.67,19.05-82.8,67.77-154.49,137.41-202.78,107.2-74.33,246.73-77.54,356.89-8.45,88.39,55.43,146.03,149.96,155.9,251.54,10.7,110.19-31.35,215.85-113.79,288.14Z"/>
    <path class="cls-1" d="M686.7,691.89c-35.88,54.15-94.5,88.59-156.84,93.31-67.87,5.13-131.37-21.82-174.89-72.36-68.48-79.52-68.73-194.33-2.21-273.8,66.1-78.98,182.17-98.23,270.2-43.4,101.51,63.22,130.07,196.14,63.74,296.26Z"/>
    <path d="M382.97,640.18c-33.56-69.77-8.61-151.4,56.24-191.02l3.29.73c.63.14,1.25-2.1,1.65-3.42,45.44-23.95,99.75-22.87,144.18,3.36,47.86,29.87,74.13,83.94,68.68,139.82-6.35,65.06-53.4,116.63-115.82,129.04-64.18,12.76-129.47-18.75-158.22-78.52Z"/>
  </g>
</svg>