<?xml version="1.0" encoding="UTF-8"?>
<svg id="Layer_2" data-name="Layer 2" xmlns="http://www.w3.org/2000/svg" viewBox="0 0 146.05 180.57">
  <defs>
    <style>
      .cls-1 {
        fill: #342522;
      }

      .cls-2 {
        fill: #6c2f35;
      }

      .cls-3 {
        fill: #7e363e;
      }

      .cls-4 {
        fill: #f3bb9a;
      }

      .cls-5 {
        fill: #e59f75;
      }

      .cls-6 {
        fill: #fff;
      }

      .cls-7 {
        stroke-linecap: round;
        stroke-width: 3.5px;
      }

      .cls-7, .cls-8 {
        stroke-linejoin: round;
      }

      .cls-7, .cls-8, .cls-9, .cls-10 {
        stroke: #342522;
      }

      .cls-7, .cls-10 {
        fill: none;
      }

      .cls-8, .cls-9 {
        fill: #523b39;
      }

      .cls-8, .cls-9, .cls-10 {
        stroke-width: 5px;
      }

      .cls-11 {
        fill: #8a685f;
      }

      .cls-9, .cls-10 {
        stroke-miterlimit: 10;
      }
    </style>
  </defs>
  <g id="Layer_1-2" data-name="Layer 1">
    <g>
      <path class="cls-4" d="M130.47,162.7c-8.6-4.42-18.61-9.6-27.18-14.33-5.28-2.92-9.31-5.73-9.31-13.01v-10.15l2.3-1.7c7.84-5.79,11-11.4,12.5-22.22l.55-3.93,3.88-.83c6.22-1.33,9.05-8.06,9.05-13.76,0-4.16-1.67-6.73-2.56-6.95l-5.25-1.27-15.43-3.93h-51.98l-15.43,3.93-5.25,1.27c-.89.22-2.56,2.79-2.56,6.95,0,5.69,2.83,12.43,9.05,13.76l3.88.83.55,3.93c1.51,10.82,4.66,16.43,12.5,22.22l2.3,1.7v10.15c0,7.28-4.03,10.09-9.31,13.01-8.57,4.72-18.58,9.91-27.18,14.33-6.78,3.58-10.33,7.91-10.58,12.87h136.05c-.24-4.96-3.8-9.29-10.58-12.87Z"/>
      <path class="cls-4" d="M130.47,162.7c-8.6-4.42-18.61-9.6-27.18-14.33-5.28-2.92-9.31-5.73-9.31-13.01v-10.15l2.3-1.7c7.84-5.79,11-11.4,12.5-22.22l.55-3.93,3.88-.83c6.22-1.33,9.05-8.06,9.05-13.76,0-4.16-1.67-6.73-2.56-6.95l-5.25-1.27-15.43-3.93h-51.98l-15.43,3.93-5.25,1.27c-.89.22-2.56,2.79-2.56,6.95,0,5.69,2.83,12.43,9.05,13.76l3.88.83.55,3.93c1.51,10.82,4.66,16.43,12.5,22.22l2.3,1.7v10.15c0,7.28-4.03,10.09-9.31,13.01-8.57,4.72-18.58,9.91-27.18,14.33-6.78,3.58-10.33,7.91-10.58,12.87h136.05c-.24-4.96-3.8-9.29-10.58-12.87Z"/>
      <path class="cls-5" d="M130.48,162.7c-8.6-4.42-18.61-9.6-27.18-14.33-3.93-2.17-7.17-4.29-8.57-8.23-5.48,3.43-13.3,6.49-17.9,7.31-2.51.45-5.06.45-7.57,0-4.6-.82-12.42-3.88-17.9-7.31-1.4,3.94-4.64,6.06-8.57,8.23-8.57,4.72-18.58,9.91-27.18,14.33-6.78,3.58-10.33,7.91-10.58,12.87h136.05c-.24-4.96-3.8-9.29-10.58-12.87Z"/>
      <path class="cls-1" d="M99.01,70.63l15.43,3.93,5.25,1.27c.89.22,2.56,2.79,2.56,6.95,0,5.69-2.83,12.43-9.05,13.76l-3.88.83-.55,3.93c-1.51,10.82-4.66,16.43-12.5,22.22l-2.3,1.7v10.15c0,7.28,4.03,10.09,9.31,13.01,8.57,4.72,18.58,9.91,27.18,14.33,6.78,3.58,10.33,7.91,10.58,12.87H5c.24-4.96,3.8-9.29,10.58-12.87,8.6-4.42,18.61-9.6,27.18-14.33,5.28-2.92,9.31-5.73,9.31-13.01v-10.15l-2.3-1.7c-7.84-5.79-11-11.4-12.5-22.22l-.55-3.93-3.88-.83c-6.22-1.33-9.05-8.06-9.05-13.76,0-4.16,1.67-6.73,2.56-6.95l5.25-1.27,15.43-3.93h51.98M99.01,65.63h-51.98c-.42,0-.83.05-1.24.15l-15.4,3.93-5.22,1.26c-3.76.91-6.39,5.76-6.39,11.81,0,7.64,4.07,16.73,13,18.65l.46.1.06.46c1.68,12.07,5.61,19,14.48,25.55l.27.2v7.63c0,4.23-1.6,5.79-6.73,8.63-8.53,4.7-18.46,9.84-27.05,14.25-.02,0-.04.02-.05.03C4.8,162.75.34,168.48,0,175.33c-.07,1.37.43,2.7,1.37,3.69s2.25,1.55,3.62,1.55h136.05c1.37,0,2.68-.56,3.62-1.55s1.44-2.33,1.37-3.69c-.34-6.84-4.79-12.58-13.23-17.04-.02,0-.03-.02-.05-.03-8.59-4.41-18.52-9.56-27.06-14.26-5.13-2.84-6.73-4.4-6.73-8.63v-7.63l.27-.2c8.88-6.56,12.8-13.48,14.48-25.55l.06-.46.46-.1c8.93-1.91,13-11.01,13-18.65,0-6.05-2.63-10.9-6.39-11.81l-5.21-1.26-15.4-3.93c-.4-.1-.82-.15-1.24-.15h0Z"/>
      <path class="cls-2" d="M130.48,162.7c-8.6-4.42-18.61-9.6-27.18-14.33-.73-.41-1.44-.81-2.12-1.23-6.72,7.43-16.83,12.16-28.14,12.16s-21.42-4.73-28.14-12.16c-.68.41-1.39.82-2.12,1.23-8.57,4.72-18.58,9.91-27.18,14.33-6.78,3.58-10.33,7.91-10.58,12.87h136.05c-.24-4.96-3.8-9.29-10.58-12.87Z"/>
      <path class="cls-1" d="M101.16,147.15c.68.41,1.39.82,2.12,1.23,8.57,4.72,18.58,9.91,27.18,14.33,6.78,3.58,10.33,7.91,10.58,12.87H5c.24-4.96,3.8-9.29,10.58-12.87,8.6-4.42,18.61-9.6,27.18-14.33.73-.41,1.44-.81,2.12-1.23,6.72,7.43,16.83,12.16,28.14,12.16s21.42-4.73,28.14-12.16M101.16,142.15c-1.38,0-2.73.57-3.71,1.65-6.04,6.68-14.95,10.51-24.43,10.51s-18.39-3.83-24.43-10.51c-.98-1.08-2.34-1.65-3.71-1.65-.89,0-1.79.24-2.6.73-.56.34-1.2.71-1.94,1.12-8.53,4.7-18.46,9.84-27.05,14.25-.02,0-.04.02-.05.03C4.8,162.75.34,168.48,0,175.33c-.07,1.37.43,2.7,1.37,3.69.94.99,2.25,1.55,3.62,1.55h136.05c1.37,0,2.68-.56,3.62-1.55.94-.99,1.44-2.33,1.37-3.69-.34-6.84-4.79-12.58-13.23-17.04-.02,0-.03-.02-.05-.03-8.59-4.41-18.52-9.55-27.06-14.26-.73-.4-1.37-.77-1.93-1.11-.81-.49-1.71-.73-2.6-.73h0Z"/>
      <path class="cls-9" d="M21.92,44.23l15.79,6.47-1.3,35.4-14.49-41.87Z"/>
      <path class="cls-3" d="M130.48,162.7c-7.56-3.88-16.21-8.36-24.01-12.59-8.28,9.63-20.19,15.67-33.43,15.67s-25.15-6.04-33.43-15.67c-7.8,4.23-16.45,8.71-24.01,12.59-6.78,3.58-10.33,7.91-10.58,12.87h136.05c-.24-4.96-3.8-9.29-10.58-12.87Z"/>
      <path class="cls-4" d="M113.25,63.9c-.17-12.9-2.55-18.61-7.27-22.35-4.39-3.48-9.63-7.25-17.09-7.25s-12.16,4.49-15.87,6.67c-3.63,2.14-8.95,3.71-16.44,3.71s-12.87-2.44-16.52-3.14c-5.58,2.24-7.09,9.45-7.27,22.35l-.24,9.73,1.31,23.95c1.21,12.35,4.05,20.6,14.87,28.57,5.44,4.07,15.09,8.02,20.45,8.97,2.55.45,5.14.45,7.69,0,5.36-.95,15.01-4.89,20.45-8.97,10.82-7.97,13.66-16.22,14.87-28.57l1.31-23.95-.24-9.73Z"/>
      <path class="cls-11" d="M98.22,111.51c-1.72-1.16.52-6.74-1.99-11.2-1.04-1.85-5.04-3.82-23.2-3.82s-22.67,1.96-23.71,3.81c-2.51,4.46-.13,10.06-1.85,11.21-2.22,1.5-6.46-7.11-13.01-13.96,1.2,12.08,4.02,20.18,14.63,28,5.36,4.01,14.87,7.9,20.15,8.84,2.51.45,5.06.45,7.57,0,5.28-.94,14.79-4.82,20.15-8.84,10.61-7.82,13.43-15.91,14.63-28-6.55,6.85-11.15,15.45-13.37,13.96ZM92.08,113.41c-1.08,4.12-3.95,7.24-7.89,8.82-1.04.42-2.48,1.18-3.55.68-1.66-.77-2.32-3.91-4.36-4.05-2.16-.15-4.12-.15-6.2-.04-.77.04-1.57.52-2.02,1.07l-1.94,2.37c-.44.54-1.15.96-1.9.8-5.09-1.07-8.95-4.73-10.27-9.76-.86-3.25-.98-6.62-.52-9.94.13-.93.74-1.69,1.63-1.87.97-.19,1.91-.39,2.96-.39h30.08c1.83,0,4.31.33,4.58,2.46.42,3.29.25,6.62-.6,9.85Z"/>
      <path class="cls-10" d="M113.25,63.9c-.17-12.9-2.55-18.61-7.27-22.35-4.39-3.48-9.63-7.25-17.09-7.25s-12.16,4.49-15.87,6.67c-3.63,2.14-8.95,3.71-16.44,3.71s-12.87-2.44-16.52-3.14c-5.58,2.24-7.09,9.45-7.27,22.35l-.24,9.73,1.31,23.95c1.21,12.35,4.05,20.6,14.87,28.57,5.44,4.07,15.09,8.02,20.45,8.97,2.55.45,5.14.45,7.69,0,5.36-.95,15.01-4.89,20.45-8.97,10.82-7.97,13.66-16.22,14.87-28.57l1.31-23.95-.24-9.73Z"/>
      <g>
        <path class="cls-6" d="M72.9,115.79c-6.5,0-12.41-2.72-15.44-7.1-.37-.54-.41-1.23-.11-1.81.3-.58.9-.94,1.55-.94h28.28c.68,0,1.3.4,1.59,1.02.29.62.19,1.35-.26,1.87-2.65,3.11-8.15,6.8-14.89,6.95-.23,0-.47,0-.71,0Z"/>
        <path class="cls-1" d="M87.17,107.69h0M87.17,107.69c-2.5,2.93-7.58,6.2-13.6,6.34-.23,0-.45,0-.67,0-6.47,0-11.53-2.77-14.01-6.35h28.28M87.18,104.19h-28.29c-1.3,0-2.5.72-3.1,1.88-.6,1.15-.52,2.55.22,3.62,3.4,4.92,9.72,7.86,16.88,7.86.26,0,.52,0,.78-.01,7.25-.17,13.18-4.12,16.1-7.49.56-.62.9-1.44.9-2.35,0-1.93-1.56-3.5-3.5-3.5h0ZM87.17,111.19h0,0Z"/>
      </g>
      <path class="cls-7" d="M65.3,94.02c2.24,2.56,4.74,3.93,7.9,3.93s5.31-1.54,7.56-3.93"/>
      <path class="cls-8" d="M40.07,21.2c-5.05-.89-7.3-.45-13.04,1.47,3.9-6.99,9.02-11.25,20.88-11.25,9.95,0,13.52.75,24.44,6.77-5.57-8.09-11.07-10.37-19.07-10.37,5.43-3.7,9.55-4.32,13.5-4.11,6.86.34,14.24,4.43,18.86,9.49,1.09-4.32-1.24-8.23-3.42-10.7,7.45,2.18,15.58,12.03,19.54,23.73.69-4.73-.54-8.52-.68-10.73,7.38,2.4,12.36,10.11,12.36,20.9,0,2.5.82,3.42,2.7,3.25-8.37-21.23,4.74-2.28,3.78,3.42-1.33-1.69-3.24,2.62-4.06,2.45,2.24,3.13,2.62,5.21.48,11.8l-2.15,10.28c-1.06-11.3-3.56-18.75-12.85-24.38-7.52-4.57-16.26-6.12-22.31-5.23-6.79,1.02-13.01,6.82-23.33,6.2-9.08-.55-14.58-3.78-25.57-6.34,3.83,4.35,4.55,5.96,2.64,8.56-1.43,2.14-1.6,2.41-3.15,1.79-6.72-2.7-10.55-4.91-10.48-9.45.14-8.65,8.78-14.42,20.93-17.55Z"/>
      <path class="cls-1" d="M52.9,75.5c-3.4-.1-4.43,3.23-4.43,5.59,0,3.06,1.03,4.61,3.43,4.82,3.57.34,5-2.33,5-5.26,0-2.6-1.5-5.09-4-5.15Z"/>
      <path class="cls-1" d="M93.09,74.72c-3.71.1-4.6,3.94-4.6,6.2,0,3.03,1.2,4.65,3.9,4.82,3.24.17,4.79-2.53,4.69-5.53-.11-2.7-1.48-5.56-3.99-5.49Z"/>
      <path class="cls-1" d="M41.4,70.42c-1.98.72-2.18-1.62-1.09-3.7,1.75-3.4,4.81-3.88,9.34-3.88,5.81,0,10.55.82,13.25,1.88,3,1.15,3.2,5.5-.3,5.88-2.5.3-7.58-1.68-14.2-1.41-3.1.14-4.88.51-7,1.23Z"/>
      <path class="cls-1" d="M84.09,64.72c-3.6.98-4.35,3.88-2.4,5.6s4.99-.17,11.61-.92c5.23-.59,8.13-.35,11.13.92,2.5,1.06,2.57-1.81.59-4.21-2.4-2.9-6.59-3.27-10.56-3-3.96.21-7.43.76-10.37,1.61Z"/>
    </g>
  </g>
</svg>