<?xml version="1.0" encoding="UTF-8"?><svg xmlns="http://www.w3.org/2000/svg" id="Layer_2" data-name="Layer 2" viewBox="0 0 1253.99 1230.81">
  <defs>
    <style>
      .cls-1 {
        fill: #fcfcfd;
      }

      .cls-2 {
        fill: #000001;
      }

      .cls-3 {
        fill: #0356ea;
      }

      .cls-4 {
        fill: #fc8101;
      }
    </style>
  </defs>
  <g id="Layer_1-2" data-name="Layer 1">
    <g>
      <path class="cls-3" d="M908.21,1216.4c-187.48,19.21-374.95,19.21-562.43,0-162.78-16.68-291.52-145.42-308.2-308.2-19.21-187.48-19.21-374.95,0-562.43C54.26,183,183,54.26,345.78,37.58c187.48-19.21,374.95-19.21,562.43,0,162.78,16.68,291.52,145.42,308.2,308.2,19.21,187.48,19.21,374.95,0,562.43-16.68,162.78-145.42,291.52-308.2,308.2Z"/>
      <path class="cls-2" d="M181,0c-1.02,1.18-2.32,1.39-3.93.25l3.93-.25Z"/>
      <path class="cls-2" d="M1076.99,0c-.89,1.07-2.49,1.7-3.95,0h3.95Z"/>
      <path class="cls-2" d="M.06,1076.79l-.06-3.8c1.1.83,1.65,2.58.06,3.8Z"/>
      <path class="cls-2" d="M0,179.94v-2.95c.24.21.65.59.79.96.17.44.3,1.25-.79,1.99Z"/>
      <path class="cls-2" d="M1253.99,180c-.66-.3-1.11-1.24-.05-1.79l.05,1.79Z"/>
      <path class="cls-2" d="M1253.99,1074.99c-.29-.19-.48-.58,0-.97v.97Z"/>
      <path class="cls-1" d="M811.2,463.14l-8.82,16.02c-28.72,60.33-51.32,130.44-58.15,197-108.69,33.63-207.57,75.85-303.6,135.55-5.42,3.37-10.56,6.01-17.05,6.37l159.01-227.23c13.25,3.67,26.84.68,37.24-7.86,9.77-8.03,15.62-20.78,14.64-34.09-1.25-17.04-13.01-30.41-28.13-34.98-16.36-4.94-33.37.65-43.49,14.1-10.7,14.24-11.05,33.06-.03,47.64l-158.82,229.1c-2.03-8.24-.03-15.59,1.19-23.56,5.9-26.82,10.15-53.13,14.07-80.55,10.98-76.8,15.86-153.77,13.86-231.21,51.98-27.52,99.65-60.59,142.71-99.56,15.07-13.64,28.43-27.8,40.51-43.65l9.92-13.01c18.14,7.58,34.01,16.21,50.46,25.96,37.38,22.15,72.56,46.68,106.23,74.1,13.57,11.05,25.84,22.23,37.4,35.38l-9.15,14.47Z"/>
      <path class="cls-4" d="M889.2,398.57c-1.79-5.05-5.73-8.35-9.7-12.12-15.2-14.46-30.55-27.78-46.94-41.12-48.87-39.79-100.77-74.97-156.31-104.64-6.15-3.52-11.61-5.71-17.81-7.43l14.25-23.42,47.52-73.42c14.81-15.24,38.3-21.74,58.36-12.58,55.36,25.28,106.34,58.63,151.89,98.75l24.2,23.69c13.23,15.2,15.16,37.04,6.37,54.95l-68.51,93.58c-1.13,1.54-1.41,3.06-3.34,3.75Z"/>
      <path class="cls-1" d="M871.43,1119.4c-29.94,8.6-61.02,8.62-90.59.86-19.85-5.2-37.22-14.69-52.58-28.06-39.82-34.64-51.89-89.43-39.22-140.03,10.23-40.86,39.07-73.22,78.12-88.71,20.46-8.12,41.59-11.02,63.79-10.39,25.44.72,49.35,6.7,71.22,19.47,31.94,18.65,53.74,49.31,60.9,85.71,4.66,23.68,4.38,47.49-2.04,70.78-12.08,43.8-45.36,77.66-89.59,90.36ZM829.88,1064.43c30.19-1.26,55.24-19.93,64.37-48.37,5.78-18.01,5.48-36.99-.94-54.71-9.22-25.44-30.85-42.23-57.72-45.39-21.33-2.51-42.53,2.43-58.76,16.81-31.11,27.55-33,80.42-3.67,110.93,14.82,15.42,35.07,21.63,56.72,20.72Z"/>
      <path class="cls-1" d="M521.75,1059.11c21.89,8.53,45.76,6.91,66.09-3.62,18.06-9.36,25.34-24.18,28.27-24.63,1.73-.27,2.86.41,4.2,1.71l38.53,37.37c1,.97,1.76,1.64,1.9,2.65.22,1.58-.47,2.44-1.59,3.82-20.14,24.7-47.77,41.21-79.49,46.75-25.72,4.49-51.78,3.7-76.83-3.54-41.51-11.99-73.63-43.31-86.82-84.42-9.43-29.39-9.01-60.71.05-90.1,12.41-40.28,42.94-70.89,82.79-84.19,22.47-7.5,45.29-9.24,69.07-6.98,35.97,3.43,68.52,20.08,91.06,48.15,1.12,1.39,3.14,3.87,1.28,5.7l-40.2,39.49c-1.18,1.16-1.7,1.98-3.14,2.05-3.92.2-11.87-17.39-32.52-26.63-39.79-17.81-86.88-3.13-102.21,39.85-13.18,36.95,1.65,81.8,39.57,96.58Z"/>
      <path class="cls-2" d="M889.2,398.57c2.24,6.32,2.05,14.23-2.16,20.19l-35.31,49.97c-4.63,6.55-15.43,7.55-21.83,4.09l-18.7-9.69,9.15-14.47c-11.56-13.15-23.83-24.33-37.4-35.38-33.67-27.42-68.85-51.95-106.23-74.1-16.45-9.75-32.33-18.38-50.46-25.96l-9.92,13.01-7.76-7.28c-5.82-5.73-10.7-16.16-5.46-23.87l36.29-53.42c4.91-5.89,11.94-8.04,19.05-8.42,6.19,1.72,11.66,3.91,17.81,7.43,55.54,29.67,107.44,64.85,156.31,104.64,16.39,13.35,31.74,26.67,46.94,41.12,3.97,3.77,7.91,7.07,9.7,12.12Z"/>
      <path class="cls-1" d="M364.76,1119.82h-62.63c-2.37.01-3.54-1.68-3.53-3.73l.45-49.63.77-203.18c.44-2.42,1.88-3.77,4.12-3.77h62.22c2.88.01,3.89,1.81,3.88,4.69l-1.32,250.78c-.01,2.74-.53,4.83-3.97,4.84Z"/>
    </g>
  </g>
</svg>