<?xml version="1.0" encoding="UTF-8"?><svg xmlns="http://www.w3.org/2000/svg" id="Layer_2" data-name="Layer 2" viewBox="0 0 1253.99 1248.95">
  <defs>
    <style>
      .cls-1 {
        fill: #fcfcfd;
      }

      .cls-2 {
        fill: #000001;
      }

      .cls-3 {
        fill: #0356ea;
      }

      .cls-4 {
        fill: #fc8101;
      }
    </style>
  </defs>
  <g id="Layer_1-2" data-name="Layer 1">
    <g>
      <path class="cls-3" d="M960.23,1234.52c-222.39,19.25-444.78,19.25-667.17,0-133.38-12.93-260.74-140.31-273.66-273.69-19.26-222.58-19.26-445.16,0-667.74C32.32,159.7,159.68,32.32,293.07,19.4,515.46.14,737.84.14,960.23,19.4c133.38,12.93,260.74,140.31,273.66,273.69,19.26,222.58,19.26,445.16,0,667.74-12.92,133.38-140.28,260.76-273.66,273.69Z" fill="#ffffff"/>
      <path class="cls-2" d="M181,0c-1.02,1.18-2.32,1.39-3.93.25l3.93-.25Z" fill="#ffffff"/>
      <path class="cls-2" d="M1076.99,0c-.89,1.07-2.49,1.7-3.95,0h3.95Z" fill="#ffffff"/>
      <path class="cls-2" d="M.06,1076.79l-.06-3.8c1.1.83,1.65,2.58.06,3.8Z" fill="#ffffff"/>
      <path class="cls-2" d="M0,179.94v-2.95c.24.21.65.59.79.96.17.44.3,1.25-.79,1.99Z" fill="#ffffff"/>
      <path class="cls-2" d="M1253.99,180c-.66-.3-1.11-1.24-.05-1.79l.05,1.79Z" fill="#ffffff"/>
      <path class="cls-2" d="M1253.99,1074.99c-.29-.19-.48-.58,0-.97v.97Z" fill="#ffffff"/>
      <path class="cls-1" d="M827.46,448.61l-9.62,17.47c-31.34,65.82-55.99,142.32-63.44,214.93-118.59,36.7-226.46,82.75-331.23,147.89-5.92,3.68-11.52,6.56-18.6,6.95l173.49-247.92c14.45,4,29.29.75,40.63-8.58,10.66-8.76,17.04-22.67,15.98-37.19-1.37-18.59-14.19-33.18-30.69-38.16-17.85-5.39-36.4.71-47.45,15.39-11.68,15.53-12.05,36.07-.03,51.98l-173.28,249.96c-2.21-8.99-.04-17.01,1.29-25.71,6.44-29.26,11.07-57.96,15.35-87.88,11.97-83.79,17.31-167.77,15.12-252.26,56.71-30.02,108.72-66.1,155.7-108.62,16.44-14.88,31.02-30.33,44.2-47.62l10.82-14.19c19.79,8.27,37.11,17.69,55.06,28.33,40.78,24.17,79.16,50.93,115.9,80.84,14.81,12.06,28.19,24.25,40.81,38.6l-9.98,15.78Z" fill="#ffffff"/>
      <path class="cls-4" d="M912.57,378.16c-1.95-5.51-6.25-9.11-10.58-13.23-16.58-15.77-33.33-30.3-51.21-44.87-53.32-43.42-109.94-81.8-170.54-114.16-6.71-3.84-12.67-6.23-19.43-8.11l15.55-25.55,51.85-80.1c16.16-16.62,41.79-23.72,63.67-13.72,60.4,27.59,116.02,63.97,165.72,107.74l26.4,25.85c14.44,16.58,16.54,40.41,6.95,59.96l-74.74,102.1c-1.23,1.68-1.54,3.34-3.64,4.09Z" fill="#ffffff"/>
      <path class="cls-1" d="M893.18,1164.61c-32.67,9.38-66.57,9.4-98.84.94-21.66-5.68-40.61-16.03-57.37-30.61-43.45-37.79-56.61-97.57-42.79-152.77,11.16-44.58,42.62-79.88,85.23-96.79,22.33-8.86,45.38-12.02,69.59-11.34,27.75.78,53.85,7.31,77.71,21.24,34.85,20.34,58.63,53.79,66.44,93.52,5.08,25.84,4.78,51.81-2.23,77.23-13.18,47.79-49.49,84.73-97.74,98.59ZM847.85,1104.63c32.94-1.38,60.27-21.74,70.23-52.77,6.31-19.65,5.98-40.35-1.02-59.69-10.05-27.75-33.66-46.08-62.97-49.52-23.27-2.73-46.4,2.65-64.11,18.34-33.94,30.06-36,87.74-4.01,121.03,16.17,16.83,38.27,23.6,61.89,22.61Z" fill="#ffffff"/>
      <path class="cls-1" d="M511.67,1098.83c23.89,9.31,49.93,7.54,72.1-3.94,19.71-10.21,27.64-26.38,30.84-26.88,1.89-.29,3.12.44,4.59,1.86l42.03,40.78c1.1,1.06,1.92,1.79,2.07,2.89.24,1.72-.51,2.67-1.73,4.16-21.97,26.95-52.11,44.96-86.73,51-28.07,4.9-56.49,4.04-83.83-3.86-45.28-13.08-80.33-47.25-94.73-92.11-10.29-32.07-9.83-66.24.05-98.3,13.54-43.94,46.85-77.35,90.33-91.85,24.51-8.18,49.41-10.08,75.36-7.61,39.24,3.74,74.76,21.91,99.35,52.53,1.22,1.52,3.43,4.22,1.4,6.22l-43.86,43.08c-1.29,1.26-1.85,2.16-3.43,2.24-4.27.22-12.95-18.97-35.48-29.06-43.42-19.43-94.79-3.42-111.51,43.47-14.38,40.31,1.8,89.25,43.17,105.37Z" fill="#ffffff"/>
      <path class="cls-2" d="M912.57,378.16c2.45,6.9,2.24,15.53-2.35,22.03l-38.53,54.52c-5.05,7.14-16.83,8.24-23.82,4.47l-20.4-10.57,9.98-15.78c-12.61-14.35-26-26.54-40.81-38.6-36.73-29.91-75.12-56.68-115.9-80.84-17.95-10.64-35.27-20.06-55.06-28.33l-10.82,14.19-8.46-7.94c-6.35-6.25-11.67-17.64-5.96-26.05l39.59-58.28c5.35-6.42,13.03-8.77,20.78-9.18,6.76,1.88,12.72,4.27,19.43,8.11,60.6,32.37,117.22,70.75,170.54,114.16,17.88,14.56,34.63,29.1,51.21,44.87,4.33,4.12,8.63,7.72,10.58,13.23Z" fill="#ffffff"/>
      <path class="cls-1" d="M340.39,1165.06h-68.33c-2.59.01-3.87-1.83-3.85-4.07l.5-54.14.84-221.68c.48-2.64,2.05-4.12,4.5-4.12h67.89c3.14.01,4.25,1.97,4.23,5.12l-1.44,273.61c-.02,2.99-.58,5.27-4.33,5.28Z" fill="#ffffff"/>
    </g>
  </g>
</svg>