<?xml version="1.0" encoding="UTF-8"?>
<svg id="Layer_2" data-name="Layer 2" xmlns="http://www.w3.org/2000/svg" viewBox="0 0 223.2 223.2">
  <defs>
    <style>
      .cls-1 {
        fill: #95979a;
      }
    </style>
  </defs>
  <g id="Layer_1-2" data-name="Layer 1">
    <g>
      <path class="cls-1" d="M161.9,220.3c-33.53,3.88-67.06,3.88-100.6,0-30.6-3.54-54.86-27.8-58.4-58.4-3.88-33.53-3.88-67.06,0-100.6C6.44,30.7,30.7,6.44,61.3,2.91c33.53-3.88,67.06-3.88,100.6,0,30.6,3.54,54.86,27.8,58.4,58.4,3.88,33.53,3.88,67.06,0,100.6-3.54,30.6-27.8,54.86-58.4,58.4Z"/>
      <path class="cls-1" d="M161.9,220.3c-33.53,3.88-67.06,3.88-100.6,0-30.6-3.54-54.86-27.8-58.4-58.4-3.88-33.53-3.88-67.06,0-100.6C6.44,30.7,30.7,6.44,61.3,2.91c33.53-3.88,67.06-3.88,100.6,0,30.6,3.54,54.86,27.8,58.4,58.4,3.88,33.53,3.88,67.06,0,100.6-3.54,30.6-27.8,54.86-58.4,58.4Z"/>
    </g>
  </g>
</svg>