<?xml version="1.0" encoding="UTF-8"?><svg xmlns="http://www.w3.org/2000/svg" id="Layer_2" data-name="Layer 2" viewBox="0 0 363.52 418.7">
  <g id="Layer_1-2" data-name="Layer 1">
    <g>
      <path d="M213.97,223.26l-14.52-44.59c-2.96-9.08-7.5-17.38-13.7-24.61-6.57-7.65-15.59-11.66-25.91-11.56-10.93.1-21.69,2.11-32.25,5.08l-36.5,10.28c-4.71,1.33-10.79,1.26-15.69,1.18-21.31-.33-40.65-9.2-54.93-25.12C-6.18,104.19-6.91,58.24,18.89,27.61,37.31,5.73,65.92-4.36,93.9,1.77c26.52,5.81,48.49,25.67,56.72,52.83,4.17,13.76,8.11,27.01,13.16,40.51,5.65,15.13,15.47,34.76,33.61,36.52,23.47,2.28,46.32-6.89,69.21-13.19,34.55-9.51,70.53,6.28,87.15,37.74,16.23,30.72,12.16,68-11.51,93.76-18.58,20.22-46.02,29.18-73.66,22.85-24.05-5.51-46.22-23.76-54.61-49.52Z" fill="#ffffff"/>
      <path d="M233.96,349.54c-4.6,46.76-49.76,77.41-94.21,67.19s-70.71-56.27-55.91-100.56c11.55-34.58,45.79-56.17,82.11-51.98,41.42,4.78,72.38,40.93,68.01,85.35Z" fill="#ffffff"/>
    </g>
  </g>
</svg>