<?xml version="1.0" encoding="UTF-8"?><svg xmlns="http://www.w3.org/2000/svg" xmlns:xlink="http://www.w3.org/1999/xlink" id="Layer_2" data-name="Layer 2" viewBox="0 0 427.62 427.62">
  <defs>
    <style>
      .cls-1 {
        fill: url(#linear-gradient-3);
      }

      .cls-2 {
        fill: url(#linear-gradient-2);
      }

      .cls-3 {
        fill: url(#linear-gradient);
      }
    </style>
    <linearGradient id="linear-gradient" x1="62.62" y1="365" x2="365" y2="62.62" gradientUnits="userSpaceOnUse">
      <stop offset="0" stop-color="#fff"/>
      <stop offset="1" stop-color="#e0e0e0"/>
    </linearGradient>
    <linearGradient id="linear-gradient-2" x1="95.41" y1="205.69" x2="316.64" y2="205.69" gradientUnits="userSpaceOnUse">
      <stop offset="0" stop-color="#0080c8"/>
      <stop offset=".49" stop-color="#833594"/>
      <stop offset="1" stop-color="#f2981f"/>
    </linearGradient>
    <linearGradient id="linear-gradient-3" y1="205.82" y2="205.82" xlink:href="#linear-gradient-2"/>
  </defs>
  <g id="Layer_1-2" data-name="Layer 1">
    <g>
      <rect class="cls-3" x="0" y="0" width="427.62" height="427.62" rx="213.81" ry="213.81" fill="#ffffff"/>
      <path class="cls-2" d="M254.89,287.98c0,4.12-1.39,7.07-4.16,8.86-2.78,1.79-6.31,2.68-10.6,2.68-7.7,0-12.62-3.49-14.77-10.47l-12.89-38.93h-76.52l-13.16,39.74c-2.15,6.44-6.8,9.67-13.96,9.67-8.95,0-13.42-3.58-13.42-10.74,0-1.97.45-4.3,1.34-6.98l55.84-157.07c1.25-3.58,3.49-6.62,6.71-9.13,3.22-2.5,8.5-3.76,15.84-3.76s12.62,1.25,15.84,3.76c3.22,2.51,5.55,5.55,6.98,9.13l55.84,156.53c.36.9.62,2.06.81,3.49.18,1.43.27,2.51.27,3.22ZM205.22,227.3l-31.14-92.09-30.88,92.09h62.02Z" fill="#ffffff"/>
      <path class="cls-1" d="M316.64,286.37c0,4.12-1.17,7.34-3.49,9.67-2.33,2.32-6.18,3.49-11.54,3.49s-9.22-1.17-11.54-3.49c-2.33-2.32-3.49-5.55-3.49-9.67V125.28c0-4.12,1.16-7.34,3.49-9.67s6.17-3.49,11.54-3.49,9.22,1.17,11.54,3.49c2.32,2.33,3.49,5.55,3.49,9.67v161.09Z" fill="#ffffff"/>
    </g>
  </g>
</svg>