<svg viewBox="0 0 512 512" width="512" height="512" version="1.1" xmlns="http://www.w3.org/2000/svg" desc="Created with imagetracer.js version 1.2.6" ><path fill="rgb(3,3,3)" stroke="rgb(3,3,3)" stroke-width="1" opacity="0.00392156862745098" d="M 0 0 L 0.5 0 L 242.5 0 L 243 0.5 L 242.5 1 L 235.5 1 L 234.5 2 L 229.5 2 L 228.5 3 L 225.5 3 L 224.5 4 L 221.5 4 L 220.5 5 L 218.5 5 L 217.5 6 L 214.5 6 L 213.5 7 L 211.5 7 L 210.5 8 L 209.5 8 L 208.5 9 L 206.5 9 L 205.5 10 L 204.5 10 L 203.5 11 L 201.5 11 L 200.5 12 L 199.5 12 L 198.5 13 L 197.5 13 L 196.5 14 L 195.5 14 L 194.5 15 L 193.5 15 L 192.5 16 L 191.5 16 L 190.5 17 L 189.5 17 L 188.5 18 L 187.5 18 L 185.5 20 L 184.5 20 L 183.5 21 L 182.5 21 L 180.5 23 L 179.5 23 L 177.5 25 L 176.5 25 L 173.5 28 L 172.5 28 L 169.5 31 L 168.5 31 L 151 48.5 L 151 49.5 L 146 54.5 L 146 55.5 L 144 57.5 L 144 58.5 L 142 60.5 L 142 61.5 L 140 63.5 L 140 64.5 L 138 66.5 L 138 67.5 L 137 68.5 L 137 69.5 L 136 70.5 L 136 71.5 L 135 72.5 L 135 73.5 L 133 75.5 L 133 77.5 L 132 78.5 L 132 79.5 L 131 80.5 L 131 81.5 L 130 82.5 L 130 83.5 L 129 84.5 L 129 86.5 L 128 87.5 L 128 89.5 L 127 90.5 L 127 91.5 L 126 92.5 L 126 94.5 L 125 95.5 L 125 98.5 L 124 99.5 L 124 101.5 L 123 102.5 L 123 106.5 L 122 107.5 L 122 110.5 L 121 111.5 L 121 117.5 L 120 118.5 L 120 126.5 L 119 127.5 L 119 160.5 L 120 161.5 L 120 181.5 L 116.5 185 L 110.5 185 L 109.5 186 L 104.5 186 L 103.5 187 L 101.5 187 L 100.5 188 L 98.5 188 L 97.5 189 L 96.5 189 L 95.5 190 L 94.5 190 L 93.5 191 L 92.5 191 L 90.5 193 L 89.5 193 L 86.5 196 L 85.5 196 L 80 201.5 L 80 202.5 L 77 205.5 L 77 206.5 L 76 207.5 L 76 208.5 L 74 210.5 L 74 211.5 L 73 212.5 L 73 214.5 L 72 215.5 L 72 217.5 L 71 218.5 L 71 220.5 L 70 221.5 L 70 242.5 L 69 243.5 L 69 253.5 L 70 254.5 L 70 273.5 L 69 274.5 L 69 286.5 L 70 287.5 L 70 346.5 L 69 347.5 L 69 360.5 L 70 361.5 L 70 388.5 L 69 389.5 L 69 391.5 L 70 392.5 L 70 421.5 L 69 422.5 L 69 425.5 L 70 426.5 L 70 450.5 L 69 451.5 L 69 460.5 L 70 461.5 L 70 474.5 L 71 475.5 L 71 478.5 L 72 479.5 L 72 482.5 L 73 483.5 L 73 484.5 L 74 485.5 L 74 486.5 L 76 488.5 L 76 489.5 L 77 490.5 L 77 491.5 L 81 495.5 L 81 496.5 L 85.5 501 L 86.5 501 L 89.5 504 L 90.5 504 L 92.5 506 L 93.5 506 L 94.5 507 L 95.5 507 L 96.5 508 L 98.5 508 L 99.5 509 L 100.5 509 L 101.5 510 L 104.5 510 L 105.5 511 L 109.5 511 L 110 511.5 L 109.5 512 L 0.5 512 L 0 512 L 0 511.5 L 0 0.5 L 0 0 Z " /><path fill="rgb(3,3,3)" stroke="rgb(3,3,3)" stroke-width="1" opacity="0.00392156862745098" d="M 270.5 0 L 511.5 0 L 512 0 L 512 0.5 L 512 511.5 L 512 512 L 511.5 512 L 402.5 512 L 402 511.5 L 402.5 511 L 406.5 511 L 407.5 510 L 410.5 510 L 411.5 509 L 412.5 509 L 413.5 508 L 415.5 508 L 417.5 506 L 418.5 506 L 419.5 505 L 420.5 505 L 422.5 503 L 423.5 503 L 434 492.5 L 434 491.5 L 435 490.5 L 435 489.5 L 437 487.5 L 437 486.5 L 438 485.5 L 438 484.5 L 439 483.5 L 439 481.5 L 440 480.5 L 440 478.5 L 441 477.5 L 441 474.5 L 442 473.5 L 442 467.5 L 443 466.5 L 443 232.5 L 442 231.5 L 442 223.5 L 441 222.5 L 441 219.5 L 440 218.5 L 440 217.5 L 439 216.5 L 439 214.5 L 438 213.5 L 438 212.5 L 437 211.5 L 437 210.5 L 436 209.5 L 436 208.5 L 434 206.5 L 434 205.5 L 432 203.5 L 432 202.5 L 425.5 196 L 424.5 196 L 421.5 193 L 420.5 193 L 418.5 191 L 417.5 191 L 416.5 190 L 415.5 190 L 414.5 189 L 413.5 189 L 412.5 188 L 410.5 188 L 409.5 187 L 407.5 187 L 406.5 186 L 402.5 186 L 401.5 185 L 395.5 185 L 393 182.5 L 393 181.5 L 392 180.5 L 392 120.5 L 391 119.5 L 391 113.5 L 390 112.5 L 390 108.5 L 389 107.5 L 389 104.5 L 388 103.5 L 388 100.5 L 387 99.5 L 387 97.5 L 386 96.5 L 386 93.5 L 385 92.5 L 385 91.5 L 384 90.5 L 384 88.5 L 383 87.5 L 383 85.5 L 382 84.5 L 382 83.5 L 381 82.5 L 381 81.5 L 380 80.5 L 380 78.5 L 379 77.5 L 379 76.5 L 378 75.5 L 378 74.5 L 377 73.5 L 377 72.5 L 376 71.5 L 376 70.5 L 374 68.5 L 374 67.5 L 373 66.5 L 373 65.5 L 371 63.5 L 371 62.5 L 370 61.5 L 370 60.5 L 368 58.5 L 368 57.5 L 365 54.5 L 365 53.5 L 361 49.5 L 361 48.5 L 356 43.5 L 356 42.5 L 347.5 34 L 346.5 34 L 341.5 29 L 340.5 29 L 337.5 26 L 336.5 26 L 333.5 23 L 332.5 23 L 331.5 22 L 330.5 22 L 328.5 20 L 327.5 20 L 325.5 18 L 324.5 18 L 323.5 17 L 322.5 17 L 321.5 16 L 320.5 16 L 318.5 14 L 317.5 14 L 316.5 13 L 315.5 13 L 314.5 12 L 313.5 12 L 312.5 11 L 310.5 11 L 309.5 10 L 308.5 10 L 307.5 9 L 305.5 9 L 304.5 8 L 303.5 8 L 302.5 7 L 299.5 7 L 298.5 6 L 296.5 6 L 295.5 5 L 293.5 5 L 292.5 4 L 288.5 4 L 287.5 3 L 284.5 3 L 283.5 2 L 279.5 2 L 278.5 1 L 270.5 1 Q 269.5 0.5 270.5 0 Z " /><path fill="rgb(3,3,3)" stroke="rgb(3,3,3)" stroke-width="1" opacity="0.00392156862745098" d="M 250.5 56 L 261.5 56 L 262.5 57 L 270.5 57 L 271.5 58 L 275.5 58 L 276.5 59 L 279.5 59 L 280.5 60 L 282.5 60 L 283.5 61 L 285.5 61 L 286.5 62 L 288.5 62 L 289.5 63 L 291.5 63 L 292.5 64 L 293.5 64 L 294.5 65 L 295.5 65 L 297.5 67 L 298.5 67 L 299.5 68 L 300.5 68 L 302.5 70 L 303.5 70 L 306.5 73 L 307.5 73 L 320 85.5 L 320 86.5 L 322 88.5 L 322 89.5 L 324 91.5 L 324 92.5 L 326 94.5 L 326 95.5 L 327 96.5 L 327 97.5 L 328 98.5 L 328 99.5 L 329 100.5 L 329 101.5 L 330 102.5 L 330 103.5 L 331 104.5 L 331 105.5 L 332 106.5 L 332 108.5 L 333 109.5 L 333 111.5 L 334 112.5 L 334 115.5 L 335 116.5 L 335 119.5 L 336 120.5 L 336 124.5 L 337 125.5 L 337 136.5 L 338 137.5 L 337 138.5 L 338 139.5 L 338 179.5 L 337 180.5 L 337 182.5 L 334.5 185 L 177.5 185 L 176.5 184 Q 175.25 184 175 184 Q 175 183.75 175 182.5 L 174 181.5 L 174 130.5 L 175 129.5 L 175 123.5 L 176 122.5 L 176 118.5 L 177 117.5 L 177 114.5 L 178 113.5 L 178 111.5 L 179 110.5 L 179 108.5 L 180 107.5 L 180 105.5 L 181 104.5 L 181 103.5 L 182 102.5 L 182 101.5 L 183 100.5 L 183 99.5 L 184 98.5 L 184 97.5 L 186 95.5 L 186 94.5 L 188 92.5 L 188 91.5 L 190 89.5 L 190 88.5 L 195 83.5 L 195 82.5 L 198.5 79 L 199.5 79 L 205.5 73 L 206.5 73 L 209.5 70 L 210.5 70 L 212.5 68 L 213.5 68 L 214.5 67 L 215.5 67 L 216.5 66 L 217.5 66 L 218.5 65 L 219.5 65 L 220.5 64 L 221.5 64 L 222.5 63 L 223.5 63 L 224.5 62 L 226.5 62 L 227.5 61 L 228.5 61 L 229.5 60 L 232.5 60 L 233.5 59 L 235.5 59 L 236.5 58 L 240.5 58 L 241.5 57 L 249.5 57 L 250.5 56 Z " /><path fill="rgb(3,3,3)" stroke="rgb(3,3,3)" stroke-width="1" opacity="0.00392156862745098" d="M 244.5 241 L 264.5 241 L 265.5 242 L 272.5 242 L 273.5 243 L 277.5 243 L 278.5 244 L 281.5 244 L 282.5 245 L 284.5 245 L 285.5 246 L 287.5 246 L 288.5 247 L 290.5 247 L 291.5 248 L 293.5 248 L 294.5 249 L 295.5 249 L 296.5 250 L 297.5 250 L 298.5 251 L 299.5 251 L 300.5 252 L 301.5 252 L 302.5 253 L 303.5 253 L 304.5 254 L 305.5 254 L 306.5 255 L 307.5 255 L 308.5 256 L 309.5 256 L 311.5 258 L 312.5 258 L 314.5 260 L 315.5 260 L 318.5 263 L 319.5 263 L 326.5 270 L 327.5 270 L 336 278.5 L 336 279.5 L 343.5 287 L 344.5 287 L 345.5 288 L 349.5 288 L 350.5 287 L 353.5 287 L 354 287 Q 354 287.25 354 288.5 L 355 289.5 L 355 291.5 L 354 292.5 L 354 299.5 L 353 300.5 L 353 305.5 L 352 306.5 L 352 313.5 L 351 314.5 L 351 319.5 L 350 320.5 L 350 326.5 L 349 327.5 L 349 331.5 L 348 332.5 Q 348 333.75 348 334 Q 347.75 334 346.5 334 L 345.5 335 L 344.5 334 L 342.5 334 L 340.5 332 L 339.5 332 L 338.5 331 L 337.5 331 L 336.5 330 L 335.5 330 L 334.5 329 L 333.5 329 L 332.5 328 L 331.5 328 L 330.5 327 L 329.5 327 L 328.5 326 L 327.5 326 L 326.5 325 L 325.5 325 L 324.5 324 L 322.5 324 L 321.5 323 L 320.5 323 L 318.5 321 L 317.5 321 L 316.5 320 L 315.5 320 L 314.5 319 L 313.5 319 L 312.5 318 L 311.5 318 L 310.5 317 L 309.5 317 L 308.5 316 L 307.5 316 L 306.5 315 L 305.5 315 L 304.5 314 L 303.5 314 L 302.5 313 Q 301.25 313 301 313 Q 301 312.75 301 311.5 L 300 310.5 L 303.5 307 L 304.5 307 L 305.5 306 L 306.5 306 L 307.5 305 L 308.5 305 L 313 300.5 L 313 295.5 L 312 294.5 L 312 293.5 L 304.5 286 L 303.5 286 L 300.5 283 L 299.5 283 L 297.5 281 L 296.5 281 L 295.5 280 L 294.5 280 L 292.5 278 L 291.5 278 L 290.5 277 L 288.5 277 L 287.5 276 L 286.5 276 L 285.5 275 L 284.5 275 L 283.5 274 L 281.5 274 L 280.5 273 L 278.5 273 L 277.5 272 L 274.5 272 L 273.5 271 L 270.5 271 L 269.5 270 L 263.5 270 L 262.5 269 L 252.5 269 L 251.5 270 L 244.5 270 L 243.5 271 L 239.5 271 L 238.5 272 L 235.5 272 L 234.5 273 L 232.5 273 L 231.5 274 L 229.5 274 L 228.5 275 L 227.5 275 L 226.5 276 L 224.5 276 L 223.5 277 L 222.5 277 L 220.5 279 L 219.5 279 L 218.5 280 L 217.5 280 L 216.5 281 L 215.5 281 L 213.5 283 L 212.5 283 L 209.5 286 L 208.5 286 L 195 299.5 L 195 300.5 L 192 303.5 L 192 304.5 L 190 306.5 L 190 307.5 L 189 308.5 L 189 309.5 L 187 311.5 L 187 312.5 L 186 313.5 L 186 314.5 L 185 315.5 L 185 317.5 L 184 318.5 L 184 319.5 L 183 320.5 L 183 321.5 L 182 322.5 L 182 324.5 L 181 325.5 L 181 328.5 L 180 329.5 L 180 332.5 L 179 333.5 L 179 337.5 L 178 338.5 L 178 360.5 L 179 361.5 L 179 365.5 L 180 366.5 L 180 369.5 L 181 370.5 L 181 373.5 L 182 374.5 L 182 375.5 L 183 376.5 L 183 378.5 L 184 379.5 L 184 380.5 L 185 381.5 L 185 383.5 L 187 385.5 L 187 386.5 L 188 387.5 L 188 388.5 L 190 390.5 L 190 391.5 L 192 393.5 L 192 394.5 L 194 396.5 L 194 397.5 L 206.5 410 L 207.5 410 L 210.5 413 L 211.5 413 L 213.5 415 L 214.5 415 L 216.5 417 L 217.5 417 L 218.5 418 L 219.5 418 L 220.5 419 L 221.5 419 L 222.5 420 L 223.5 420 L 224.5 421 L 226.5 421 L 227.5 422 L 228.5 422 L 229.5 423 L 232.5 423 L 233.5 424 L 235.5 424 L 236.5 425 L 240.5 425 L 241.5 426 L 247.5 426 L 248.5 427 L 262.5 427 L 263.5 426 L 269.5 426 L 270.5 425 L 274.5 425 L 275.5 424 L 277.5 424 L 278.5 423 L 280.5 423 L 281.5 422 L 283.5 422 L 284.5 421 L 286.5 421 L 287.5 420 L 288.5 420 L 289.5 419 L 290.5 419 L 291.5 418 L 292.5 418 L 293.5 417 L 294.5 417 L 296.5 415 L 297.5 415 L 299.5 413 L 300.5 413 L 302.5 411 L 303.5 411 L 308.5 406 L 309.5 406 L 315 400.5 L 315 399.5 L 319 395.5 L 319 394.5 L 322 391.5 L 322 390.5 L 323 389.5 L 323 388.5 L 325 386.5 L 325 385.5 L 326 384.5 L 326 383.5 L 327 382.5 L 327 381.5 L 328 380.5 L 328 379.5 L 329 378.5 Q 329 377.25 329 377 L 329.5 377 L 331.5 377 L 332.5 376 L 333.5 377 L 335.5 377 L 336.5 378 L 337.5 378 L 338.5 379 L 339.5 379 L 340.5 380 L 341.5 380 L 342.5 381 L 343.5 381 L 344.5 382 L 345.5 382 L 346.5 383 L 348.5 383 L 349.5 384 L 350.5 384 L 353 386.5 L 353 390.5 L 352 391.5 L 352 392.5 L 351 393.5 L 351 394.5 L 350 395.5 L 350 396.5 L 348 398.5 L 348 399.5 L 347 400.5 L 347 401.5 L 345 403.5 L 345 404.5 L 343 406.5 L 343 407.5 L 339 411.5 L 339 412.5 L 334 417.5 L 334 418.5 L 326.5 426 L 325.5 426 L 320.5 431 L 319.5 431 L 316.5 434 L 315.5 434 L 313.5 436 L 312.5 436 L 310.5 438 L 309.5 438 L 308.5 439 L 307.5 439 L 306.5 440 L 305.5 440 L 303.5 442 L 302.5 442 L 301.5 443 L 300.5 443 L 299.5 444 L 298.5 444 L 297.5 445 L 295.5 445 L 294.5 446 L 293.5 446 L 292.5 447 L 290.5 447 L 289.5 448 L 288.5 448 L 287.5 449 L 285.5 449 L 284.5 450 L 281.5 450 L 280.5 451 L 276.5 451 L 275.5 452 L 270.5 452 L 269.5 453 L 243.5 453 L 242.5 452 L 236.5 452 L 235.5 451 L 232.5 451 L 231.5 450 L 228.5 450 L 227.5 449 L 224.5 449 L 223.5 448 L 221.5 448 L 220.5 447 L 219.5 447 L 218.5 446 L 216.5 446 L 215.5 445 L 214.5 445 L 213.5 444 L 212.5 444 L 211.5 443 L 210.5 443 L 209.5 442 L 208.5 442 L 207.5 441 L 206.5 441 L 205.5 440 L 204.5 440 L 203.5 439 L 202.5 439 L 201.5 438 L 200.5 438 L 198.5 436 L 197.5 436 L 195.5 434 L 194.5 434 L 192.5 432 L 191.5 432 L 187.5 428 L 186.5 428 L 176 417.5 L 176 416.5 L 171 411.5 L 171 410.5 L 168 407.5 L 168 406.5 L 166 404.5 L 166 403.5 L 164 401.5 L 164 400.5 L 163 399.5 L 163 398.5 L 161 396.5 L 161 395.5 L 160 394.5 L 160 393.5 L 159 392.5 L 159 391.5 L 158 390.5 L 158 389.5 L 157 388.5 L 157 387.5 L 156 386.5 L 156 384.5 L 155 383.5 L 155 382.5 L 154 381.5 L 154 379.5 L 153 378.5 L 153 376.5 L 152 375.5 L 152 372.5 L 151 371.5 L 151 368.5 L 150 367.5 L 150 361.5 L 149 360.5 L 149 334.5 L 150 333.5 L 150 327.5 L 151 326.5 L 151 323.5 L 152 322.5 L 152 319.5 L 153 318.5 L 153 316.5 L 154 315.5 L 154 313.5 L 155 312.5 L 155 310.5 L 156 309.5 L 156 308.5 L 157 307.5 L 157 305.5 L 158 304.5 L 158 303.5 L 159 302.5 L 159 301.5 L 160 300.5 L 160 299.5 L 161 298.5 L 161 297.5 L 162 296.5 L 162 295.5 L 164 293.5 L 164 292.5 L 165 291.5 L 165 290.5 L 167 288.5 L 167 287.5 L 170 284.5 L 170 283.5 L 173 280.5 L 173 279.5 L 187.5 265 L 188.5 265 L 191.5 262 L 192.5 262 L 195.5 259 L 196.5 259 L 197.5 258 L 198.5 258 L 200.5 256 L 201.5 256 L 202.5 255 L 203.5 255 L 204.5 254 L 205.5 254 L 206.5 253 L 207.5 253 L 208.5 252 L 209.5 252 L 210.5 251 L 211.5 251 L 212.5 250 L 213.5 250 L 214.5 249 L 215.5 249 L 216.5 248 L 218.5 248 L 219.5 247 L 220.5 247 L 221.5 246 L 224.5 246 L 225.5 245 L 227.5 245 L 228.5 244 L 231.5 244 L 232.5 243 L 236.5 243 L 237.5 242 L 243.5 242 L 244.5 241 Z " /><path fill="rgb(199,199,199)" stroke="rgb(199,199,199)" stroke-width="1" opacity="0.7098039215686275" d="M 243.5 0 L 269.5 0 L 270.5 1 L 278.5 1 L 279.5 2 L 283.5 2 L 284.5 3 L 287.5 3 L 288.5 4 L 292.5 4 L 293.5 5 L 295.5 5 L 296.5 6 L 298.5 6 L 299.5 7 L 302.5 7 L 303.5 8 L 304.5 8 L 305.5 9 L 307.5 9 L 308.5 10 L 309.5 10 L 310.5 11 L 312.5 11 L 313.5 12 L 314.5 12 L 315.5 13 L 316.5 13 L 317.5 14 L 318.5 14 L 320.5 16 L 321.5 16 L 322.5 17 L 323.5 17 L 324.5 18 L 325.5 18 L 327.5 20 L 328.5 20 L 330.5 22 L 331.5 22 L 332.5 23 L 333.5 23 L 336.5 26 L 337.5 26 L 340.5 29 L 341.5 29 L 346.5 34 L 347.5 34 L 356 42.5 L 356 43.5 L 361 48.5 L 361 49.5 L 365 53.5 L 365 54.5 L 368 57.5 L 368 58.5 L 370 60.5 L 370 61.5 L 371 62.5 L 371 63.5 L 373 65.5 L 373 66.5 L 374 67.5 L 374 68.5 L 376 70.5 L 376 71.5 L 377 72.5 L 377 73.5 L 378 74.5 L 378 75.5 L 379 76.5 L 379 77.5 L 380 78.5 L 380 80.5 L 381 81.5 L 381 82.5 L 382 83.5 L 382 84.5 L 383 85.5 L 383 87.5 L 384 88.5 L 384 90.5 L 385 91.5 L 385 92.5 L 386 93.5 L 386 96.5 L 387 97.5 L 387 99.5 L 388 100.5 L 388 103.5 L 389 104.5 L 389 107.5 L 390 108.5 L 390 112.5 L 391 113.5 L 391 119.5 L 392 120.5 L 392 180.5 L 393 181.5 L 393 182.5 L 395.5 185 L 401.5 185 L 402.5 186 L 406.5 186 L 407.5 187 L 409.5 187 L 410.5 188 L 412.5 188 L 413.5 189 L 414.5 189 L 415.5 190 L 416.5 190 L 417.5 191 L 418.5 191 L 420.5 193 L 421.5 193 L 424.5 196 L 425.5 196 L 432 202.5 L 432 203.5 L 434 205.5 L 434 206.5 L 436 208.5 L 436 209.5 L 437 210.5 L 437 211.5 L 438 212.5 L 438 213.5 L 439 214.5 L 439 216.5 L 440 217.5 L 440 218.5 L 441 219.5 L 441 222.5 L 442 223.5 L 442 231.5 L 443 232.5 L 443 466.5 L 442 467.5 L 442 473.5 L 441 474.5 L 441 477.5 L 440 478.5 L 440 480.5 L 439 481.5 L 439 483.5 L 438 484.5 L 438 485.5 L 437 486.5 L 437 487.5 L 435 489.5 L 435 490.5 L 434 491.5 L 434 492.5 L 423.5 503 L 422.5 503 L 420.5 505 L 419.5 505 L 418.5 506 L 417.5 506 L 415.5 508 L 413.5 508 L 412.5 509 L 411.5 509 L 410.5 510 L 407.5 510 L 406.5 511 L 402.5 511 L 401.5 512 L 110.5 512 L 109.5 511 L 105.5 511 L 104.5 510 L 101.5 510 L 100.5 509 L 99.5 509 L 98.5 508 L 96.5 508 L 95.5 507 L 94.5 507 L 93.5 506 L 92.5 506 L 90.5 504 L 89.5 504 L 86.5 501 L 85.5 501 L 81 496.5 L 81 495.5 L 77 491.5 L 77 490.5 L 76 489.5 L 76 488.5 L 74 486.5 L 74 485.5 L 73 484.5 L 73 483.5 L 72 482.5 L 72 479.5 L 71 478.5 L 71 475.5 L 70 474.5 L 70 461.5 L 69 460.5 L 69 451.5 L 70 450.5 L 70 426.5 L 69 425.5 L 69 422.5 L 70 421.5 L 70 392.5 L 69 391.5 L 69 389.5 L 70 388.5 L 70 361.5 L 69 360.5 L 69 347.5 L 70 346.5 L 70 287.5 L 69 286.5 L 69 274.5 L 70 273.5 L 70 254.5 L 69 253.5 L 69 243.5 L 70 242.5 L 70 221.5 L 71 220.5 L 71 218.5 L 72 217.5 L 72 215.5 L 73 214.5 L 73 212.5 L 74 211.5 L 74 210.5 L 76 208.5 L 76 207.5 L 77 206.5 L 77 205.5 L 80 202.5 L 80 201.5 L 85.5 196 L 86.5 196 L 89.5 193 L 90.5 193 L 92.5 191 L 93.5 191 L 94.5 190 L 95.5 190 L 96.5 189 L 97.5 189 L 98.5 188 L 100.5 188 L 101.5 187 L 103.5 187 L 104.5 186 L 109.5 186 L 110.5 185 L 116.5 185 L 120 181.5 L 120 161.5 L 119 160.5 L 119 127.5 L 120 126.5 L 120 118.5 L 121 117.5 L 121 111.5 L 122 110.5 L 122 107.5 L 123 106.5 L 123 102.5 L 124 101.5 L 124 99.5 L 125 98.5 L 125 95.5 L 126 94.5 L 126 92.5 L 127 91.5 L 127 90.5 L 128 89.5 L 128 87.5 L 129 86.5 L 129 84.5 L 130 83.5 L 130 82.5 L 131 81.5 L 131 80.5 L 132 79.5 L 132 78.5 L 133 77.5 L 133 75.5 L 135 73.5 L 135 72.5 L 136 71.5 L 136 70.5 L 137 69.5 L 137 68.5 L 138 67.5 L 138 66.5 L 140 64.5 L 140 63.5 L 142 61.5 L 142 60.5 L 144 58.5 L 144 57.5 L 146 55.5 L 146 54.5 L 151 49.5 L 151 48.5 L 168.5 31 L 169.5 31 L 172.5 28 L 173.5 28 L 176.5 25 L 177.5 25 L 179.5 23 L 180.5 23 L 182.5 21 L 183.5 21 L 184.5 20 L 185.5 20 L 187.5 18 L 188.5 18 L 189.5 17 L 190.5 17 L 191.5 16 L 192.5 16 L 193.5 15 L 194.5 15 L 195.5 14 L 196.5 14 L 197.5 13 L 198.5 13 L 199.5 12 L 200.5 12 L 201.5 11 L 203.5 11 L 204.5 10 L 205.5 10 L 206.5 9 L 208.5 9 L 209.5 8 L 210.5 8 L 211.5 7 L 213.5 7 L 214.5 6 L 217.5 6 L 218.5 5 L 220.5 5 L 221.5 4 L 224.5 4 L 225.5 3 L 228.5 3 L 229.5 2 L 234.5 2 L 235.5 1 L 242.5 1 L 243.5 0 Z M 243 4 L 242 5 L 236 5 L 235 6 L 230 6 L 229 7 L 226 7 L 225 8 L 222 8 L 221 9 L 219 9 L 218 10 L 216 10 L 215 11 L 213 11 L 212 12 L 210 12 L 209 13 L 208 13 L 207 14 L 205 14 L 204 15 L 203 15 L 202 16 L 200 16 L 199 17 L 198 17 L 196 19 L 195 19 L 194 20 L 193 20 L 192 21 L 191 21 L 190 22 L 189 22 L 188 23 L 187 23 L 185 25 L 184 25 L 182 27 L 181 27 L 179 29 L 178 29 L 174 33 L 173 33 L 168 38 L 167 38 L 157 48 L 157 49 L 152 54 L 152 55 L 148 59 L 148 60 L 146 62 L 146 63 L 144 65 L 144 66 L 143 67 L 143 68 L 141 70 L 141 71 L 140 72 L 140 73 L 139 74 L 139 75 L 137 77 L 137 78 L 136 79 L 136 80 L 135 81 L 135 83 L 134 84 L 134 85 L 133 86 L 133 87 L 132 88 L 132 90 L 131 91 L 131 93 L 130 94 L 130 96 L 129 97 L 129 99 L 128 100 L 128 102 L 127 103 L 127 107 L 126 108 L 126 111 L 125 112 L 125 117 L 124 118 L 124 128 L 123 129 L 123 162 L 124 163 L 124 189 L 124 189 L 124 189 L 109 189 L 108 190 L 105 190 L 104 191 L 102 191 L 101 192 L 100 192 L 99 193 L 98 193 L 97 194 L 96 194 L 95 195 L 94 195 L 92 197 L 91 197 L 81 207 L 81 208 L 79 210 L 79 211 L 78 212 L 78 213 L 77 214 L 77 215 L 76 216 L 76 217 L 75 218 L 75 221 L 74 222 L 74 244 L 73 245 L 73 246 L 74 247 L 74 248 L 73 249 L 73 253 L 74 254 L 74 275 L 73 276 L 73 281 L 74 282 L 74 285 L 73 286 L 74 287 L 74 315 L 73 316 L 73 317 L 74 318 L 74 345 L 73 346 L 73 349 L 74 350 L 73 351 L 73 356 L 74 357 L 73 358 L 73 362 L 74 363 L 74 379 L 73 380 L 74 381 L 74 390 L 73 391 L 73 393 L 74 394 L 73 395 L 73 396 L 74 397 L 74 421 L 73 422 L 73 424 L 74 425 L 74 449 L 73 450 L 74 451 L 74 453 L 73 454 L 73 455 L 74 456 L 73 457 L 74 458 L 74 461 L 73 462 L 73 465 L 74 466 L 74 476 L 75 477 L 75 480 L 76 481 L 76 482 L 77 483 L 77 484 L 78 485 L 78 486 L 79 487 L 79 488 L 82 491 L 82 492 L 91 500 L 92 500 L 94 502 L 95 502 L 96 503 L 97 503 L 98 504 L 99 504 L 100 505 L 102 505 L 103 506 L 105 506 L 106 507 L 110 507 L 111 508 L 403 508 L 404 507 L 407 507 L 408 506 L 410 506 L 411 505 L 413 505 L 414 504 L 415 504 L 416 503 L 417 503 L 419 501 L 420 501 L 423 498 L 424 498 L 429 493 L 429 492 L 432 489 L 432 488 L 433 487 L 433 486 L 434 485 L 434 484 L 435 483 L 435 482 L 436 481 L 436 479 L 437 478 L 437 476 L 438 475 L 438 469 L 439 468 L 439 230 L 438 229 L 438 224 L 437 223 L 437 221 L 436 220 L 436 218 L 435 217 L 435 215 L 434 214 L 434 213 L 432 211 L 432 210 L 430 208 L 430 207 L 421 197 L 420 197 L 418 195 L 417 195 L 416 194 L 415 194 L 414 193 L 413 193 L 412 192 L 411 192 L 410 191 L 408 191 L 407 190 L 403 190 L 402 189 L 390 189 L 388 188 L 389 187 L 388 186 L 388 149 L 389 148 L 389 136 L 388 135 L 388 121 L 387 120 L 387 114 L 386 113 L 386 109 L 385 108 L 385 105 L 384 104 L 384 101 L 383 100 L 383 98 L 382 97 L 382 95 L 381 94 L 381 92 L 380 91 L 380 90 L 379 89 L 379 87 L 378 86 L 378 85 L 377 84 L 377 82 L 376 81 L 376 80 L 375 79 L 375 78 L 374 77 L 374 76 L 373 75 L 373 74 L 372 73 L 372 72 L 370 70 L 370 69 L 369 68 L 369 67 L 367 65 L 367 64 L 366 63 L 366 62 L 364 60 L 364 59 L 360 55 L 360 54 L 356 50 L 356 49 L 342 34 L 341 34 L 338 31 L 337 31 L 334 28 L 333 28 L 331 26 L 330 26 L 328 24 L 327 24 L 325 22 L 324 22 L 323 21 L 322 21 L 320 19 L 319 19 L 318 18 L 317 18 L 316 17 L 315 17 L 314 16 L 313 16 L 312 15 L 310 15 L 309 14 L 308 14 L 307 13 L 306 13 L 305 12 L 303 12 L 302 11 L 300 11 L 299 10 L 297 10 L 296 9 L 293 9 L 292 8 L 289 8 L 288 7 L 285 7 L 284 6 L 279 6 L 278 5 L 273 5 L 272 4 L 243 4 Z " /><path fill="rgb(199,199,199)" stroke="rgb(199,199,199)" stroke-width="1" opacity="0.7098039215686275" d="M 249.5 52 L 261.5 52 L 262.5 53 L 270.5 53 L 271.5 54 L 276.5 54 L 277.5 55 L 280.5 55 L 281.5 56 L 283.5 56 L 284.5 57 L 286.5 57 L 287.5 58 L 289.5 58 L 290.5 59 L 292.5 59 L 293.5 60 L 294.5 60 L 295.5 61 L 296.5 61 L 297.5 62 L 298.5 62 L 300.5 64 L 301.5 64 L 302.5 65 L 303.5 65 L 305.5 67 L 306.5 67 L 311.5 72 L 312.5 72 L 321 80.5 L 321 81.5 L 325 85.5 L 325 86.5 L 327 88.5 L 327 89.5 L 329 91.5 L 329 92.5 L 330 93.5 L 330 94.5 L 331 95.5 L 331 96.5 L 332 97.5 L 332 98.5 L 333 99.5 L 333 100.5 L 334 101.5 L 334 102.5 L 335 103.5 L 335 105.5 L 336 106.5 L 336 107.5 L 337 108.5 L 337 111.5 L 338 112.5 L 338 114.5 L 339 115.5 L 339 118.5 L 340 119.5 L 340 124.5 L 341 125.5 L 341 138.5 L 342 139.5 L 342 185.5 L 341 186.5 L 342 187.5 L 340.5 189 L 170.5 189 L 170 189 L 170 188.5 L 170 130.5 L 171 129.5 L 171 122.5 L 172 121.5 L 172 117.5 L 173 116.5 L 173 113.5 L 174 112.5 L 174 110.5 L 175 109.5 L 175 107.5 L 176 106.5 L 176 104.5 L 177 103.5 L 177 102.5 L 178 101.5 L 178 100.5 L 179 99.5 L 179 98.5 L 180 97.5 L 180 96.5 L 182 94.5 L 182 93.5 L 183 92.5 L 183 91.5 L 186 88.5 L 186 87.5 L 188 85.5 L 188 84.5 L 201.5 71 L 202.5 71 L 205.5 68 L 206.5 68 L 208.5 66 L 209.5 66 L 211.5 64 L 212.5 64 L 213.5 63 L 214.5 63 L 215.5 62 L 216.5 62 L 217.5 61 L 218.5 61 L 219.5 60 L 220.5 60 L 221.5 59 L 222.5 59 L 223.5 58 L 225.5 58 L 226.5 57 L 228.5 57 L 229.5 56 L 231.5 56 L 232.5 55 L 235.5 55 L 236.5 54 L 240.5 54 L 241.5 53 L 248.5 53 L 249.5 52 Z M 251 56 L 250 57 L 242 57 L 241 58 L 237 58 L 236 59 L 234 59 L 233 60 L 230 60 L 229 61 L 228 61 L 227 62 L 225 62 L 224 63 L 223 63 L 222 64 L 221 64 L 220 65 L 219 65 L 218 66 L 217 66 L 216 67 L 215 67 L 214 68 L 213 68 L 211 70 L 210 70 L 207 73 L 206 73 L 200 79 L 199 79 L 195 83 L 195 84 L 190 89 L 190 90 L 188 92 L 188 93 L 186 95 L 186 96 L 184 98 L 184 99 L 183 100 L 183 101 L 182 102 L 182 103 L 181 104 L 181 105 L 180 106 L 180 108 L 179 109 L 179 111 L 178 112 L 178 114 L 177 115 L 177 118 L 176 119 L 176 123 L 175 124 L 175 130 L 174 131 L 174 182 L 175 183 Q 175 184 175 184 Q 175 184 177 184 L 178 185 L 335 185 L 337 183 L 337 181 L 338 180 L 338 140 L 337 139 L 338 138 L 337 137 L 337 126 L 336 125 L 336 121 L 335 120 L 335 117 L 334 116 L 334 113 L 333 112 L 333 110 L 332 109 L 332 107 L 331 106 L 331 105 L 330 104 L 330 103 L 329 102 L 329 101 L 328 100 L 328 99 L 327 98 L 327 97 L 326 96 L 326 95 L 324 93 L 324 92 L 322 90 L 322 89 L 320 87 L 320 86 L 308 73 L 307 73 L 304 70 L 303 70 L 301 68 L 300 68 L 299 67 L 298 67 L 296 65 L 295 65 L 294 64 L 293 64 L 292 63 L 290 63 L 289 62 L 287 62 L 286 61 L 284 61 L 283 60 L 281 60 L 280 59 L 277 59 L 276 58 L 272 58 L 271 57 L 263 57 L 262 56 L 251 56 Z " /><path fill="rgb(199,199,199)" stroke="rgb(199,199,199)" stroke-width="1" opacity="0.7098039215686275" d="M 244.5 237 L 265.5 237 L 266.5 238 L 272.5 238 L 273.5 239 L 277.5 239 L 278.5 240 L 282.5 240 L 283.5 241 L 285.5 241 L 286.5 242 L 288.5 242 L 289.5 243 L 291.5 243 L 292.5 244 L 293.5 244 L 294.5 245 L 296.5 245 L 297.5 246 L 298.5 246 L 299.5 247 L 300.5 247 L 301.5 248 L 302.5 248 L 303.5 249 L 304.5 249 L 305.5 250 L 306.5 250 L 307.5 251 L 308.5 251 L 309.5 252 L 310.5 252 L 312.5 254 L 313.5 254 L 314.5 255 L 315.5 255 L 317.5 257 L 318.5 257 L 323.5 262 L 324.5 262 L 332.5 270 L 333.5 270 L 338 274.5 L 338 275.5 L 342 279.5 L 342 280.5 L 346.5 285 L 348.5 285 L 351.5 282 L 352.5 282 L 355.5 279 L 356.5 279 L 358.5 277 Q 359.75 277 360 277 L 360 277.5 L 360 284.5 L 359 285.5 L 359 291.5 L 358 292.5 L 358 298.5 L 357 299.5 L 357 305.5 L 356 306.5 L 356 312.5 L 355 313.5 L 355 320.5 L 354 321.5 L 354 326.5 L 353 327.5 L 353 334.5 L 352 335.5 L 352 339.5 L 350.5 341 L 348.5 341 L 347.5 340 L 346.5 340 L 345.5 339 L 344.5 339 L 343.5 338 L 342.5 338 L 341.5 337 L 340.5 337 L 339.5 336 L 338.5 336 L 337.5 335 L 336.5 335 L 335.5 334 L 334.5 334 L 333.5 333 L 332.5 333 L 331.5 332 L 330.5 332 L 329.5 331 L 328.5 331 L 327.5 330 L 326.5 330 L 325.5 329 L 324.5 329 L 323.5 328 L 322.5 328 L 321.5 327 L 320.5 327 L 319.5 326 L 318.5 326 L 317.5 325 L 316.5 325 L 315.5 324 L 314.5 324 L 313.5 323 L 312.5 323 L 311.5 322 L 310.5 322 L 309.5 321 L 308.5 321 L 307.5 320 L 306.5 320 L 305.5 319 L 304.5 319 L 303.5 318 L 302.5 318 L 301.5 317 L 300.5 317 L 299.5 316 L 298.5 316 L 297.5 315 L 296.5 315 L 295.5 314 L 294.5 314 L 293.5 313 L 292.5 313 L 291.5 312 Q 290.25 312 290 312 L 290 311.5 Q 290 310.25 290 310 Q 290.25 310 291.5 310 L 292.5 309 L 293.5 309 L 295.5 307 L 296.5 307 L 297.5 306 L 298.5 306 L 300.5 304 L 301.5 304 L 302.5 303 L 303.5 303 L 304.5 302 L 305.5 302 L 306.5 301 L 307.5 301 L 309.5 299 Q 310.75 299 311 299 Q 311 298.75 311 297.5 L 308.5 295 L 307.5 295 L 300.5 288 L 299.5 288 L 296.5 285 L 295.5 285 L 294.5 284 L 293.5 284 L 291.5 282 L 290.5 282 L 289.5 281 L 288.5 281 L 287.5 280 L 286.5 280 L 285.5 279 L 283.5 279 L 282.5 278 L 281.5 278 L 280.5 277 L 278.5 277 L 277.5 276 L 274.5 276 L 273.5 275 L 270.5 275 L 269.5 274 L 264.5 274 L 263.5 273 L 250.5 273 L 249.5 274 L 244.5 274 L 243.5 275 L 239.5 275 L 238.5 276 L 235.5 276 L 234.5 277 L 232.5 277 L 231.5 278 L 230.5 278 L 229.5 279 L 227.5 279 L 226.5 280 L 225.5 280 L 224.5 281 L 223.5 281 L 222.5 282 L 221.5 282 L 219.5 284 L 218.5 284 L 217.5 285 L 216.5 285 L 213.5 288 L 212.5 288 L 209.5 291 L 208.5 291 L 200 299.5 L 200 300.5 L 196 304.5 L 196 305.5 L 194 307.5 L 194 308.5 L 193 309.5 L 193 310.5 L 191 312.5 L 191 313.5 L 190 314.5 L 190 315.5 L 189 316.5 L 189 317.5 L 188 318.5 L 188 319.5 L 187 320.5 L 187 322.5 L 186 323.5 L 186 324.5 L 185 325.5 L 185 328.5 L 184 329.5 L 184 332.5 L 183 333.5 L 183 337.5 L 182 338.5 L 182 360.5 L 183 361.5 L 183 365.5 L 184 366.5 L 184 369.5 L 185 370.5 L 185 372.5 L 186 373.5 L 186 375.5 L 187 376.5 L 187 378.5 L 188 379.5 L 188 380.5 L 189 381.5 L 189 382.5 L 190 383.5 L 190 384.5 L 192 386.5 L 192 387.5 L 194 389.5 L 194 390.5 L 196 392.5 L 196 393.5 L 200 397.5 L 200 398.5 L 205.5 404 L 206.5 404 L 211.5 409 L 212.5 409 L 214.5 411 L 215.5 411 L 217.5 413 L 218.5 413 L 219.5 414 L 220.5 414 L 221.5 415 L 222.5 415 L 223.5 416 L 224.5 416 L 225.5 417 L 226.5 417 L 227.5 418 L 229.5 418 L 230.5 419 L 232.5 419 L 233.5 420 L 235.5 420 L 236.5 421 L 240.5 421 L 241.5 422 L 246.5 422 L 247.5 423 L 263.5 423 L 264.5 422 L 269.5 422 L 270.5 421 L 274.5 421 L 275.5 420 L 277.5 420 L 278.5 419 L 280.5 419 L 281.5 418 L 283.5 418 L 284.5 417 L 285.5 417 L 286.5 416 L 287.5 416 L 288.5 415 L 289.5 415 L 290.5 414 L 291.5 414 L 292.5 413 L 293.5 413 L 295.5 411 L 296.5 411 L 298.5 409 L 299.5 409 L 302.5 406 L 303.5 406 L 315 394.5 L 315 393.5 L 318 390.5 L 318 389.5 L 319 388.5 L 319 387.5 L 321 385.5 L 321 384.5 L 322 383.5 L 322 382.5 L 323 381.5 L 323 380.5 L 324 379.5 L 324 378.5 L 325 377.5 L 325 375.5 L 326 374.5 L 326 372.5 L 327 371.5 L 327 369.5 L 327.5 369 L 328.5 370 L 329.5 370 L 330.5 371 L 331.5 371 L 332.5 372 L 333.5 372 L 334.5 373 L 335.5 373 L 336.5 374 L 338.5 374 L 339.5 375 L 340.5 375 L 341.5 376 L 342.5 376 L 343.5 377 L 344.5 377 L 345.5 378 L 346.5 378 L 347.5 379 L 349.5 379 L 350.5 380 L 351.5 380 L 352.5 381 L 353.5 381 L 354.5 382 L 355.5 382 L 356.5 383 L 357.5 383 L 358.5 384 Q 359.75 384 360 384 Q 360 384.25 360 385.5 L 359 386.5 L 359 387.5 L 358 388.5 L 358 389.5 L 357 390.5 L 357 391.5 L 356 392.5 L 356 393.5 L 355 394.5 L 355 395.5 L 354 396.5 L 354 397.5 L 353 398.5 L 353 399.5 L 351 401.5 L 351 402.5 L 349 404.5 L 349 405.5 L 347 407.5 L 347 408.5 L 345 410.5 L 345 411.5 L 341 415.5 L 341 416.5 L 324.5 433 L 323.5 433 L 320.5 436 L 319.5 436 L 317.5 438 L 316.5 438 L 314.5 440 L 313.5 440 L 311.5 442 L 310.5 442 L 309.5 443 L 308.5 443 L 306.5 445 L 305.5 445 L 304.5 446 L 303.5 446 L 302.5 447 L 301.5 447 L 300.5 448 L 299.5 448 L 298.5 449 L 296.5 449 L 295.5 450 L 294.5 450 L 293.5 451 L 291.5 451 L 290.5 452 L 288.5 452 L 287.5 453 L 285.5 453 L 284.5 454 L 282.5 454 L 281.5 455 L 277.5 455 L 276.5 456 L 270.5 456 L 269.5 457 L 243.5 457 L 242.5 456 L 236.5 456 L 235.5 455 L 231.5 455 L 230.5 454 L 227.5 454 L 226.5 453 L 224.5 453 L 223.5 452 L 221.5 452 L 220.5 451 L 218.5 451 L 217.5 450 L 215.5 450 L 214.5 449 L 213.5 449 L 212.5 448 L 211.5 448 L 210.5 447 L 209.5 447 L 208.5 446 L 207.5 446 L 206.5 445 L 205.5 445 L 204.5 444 L 203.5 444 L 202.5 443 L 201.5 443 L 200.5 442 L 199.5 442 L 197.5 440 L 196.5 440 L 195.5 439 L 194.5 439 L 192.5 437 L 191.5 437 L 188.5 434 L 187.5 434 L 181.5 428 L 180.5 428 L 178 425.5 L 178 424.5 L 170 416.5 L 170 415.5 L 166 411.5 L 166 410.5 L 164 408.5 L 164 407.5 L 162 405.5 L 162 404.5 L 160 402.5 L 160 401.5 L 159 400.5 L 159 399.5 L 157 397.5 L 157 396.5 L 156 395.5 L 156 394.5 L 155 393.5 L 155 392.5 L 154 391.5 L 154 390.5 L 153 389.5 L 153 387.5 L 152 386.5 L 152 385.5 L 151 384.5 L 151 382.5 L 150 381.5 L 150 380.5 L 149 379.5 L 149 376.5 L 148 375.5 L 148 372.5 L 147 371.5 L 147 368.5 L 146 367.5 L 146 362.5 L 145 361.5 L 145 334.5 L 146 333.5 L 146 327.5 L 147 326.5 L 147 322.5 L 148 321.5 L 148 318.5 L 149 317.5 L 149 315.5 L 150 314.5 L 150 312.5 L 151 311.5 L 151 309.5 L 152 308.5 L 152 307.5 L 153 306.5 L 153 304.5 L 154 303.5 L 154 302.5 L 155 301.5 L 155 300.5 L 156 299.5 L 156 298.5 L 157 297.5 L 157 296.5 L 158 295.5 L 158 294.5 L 159 293.5 L 159 292.5 L 161 290.5 L 161 289.5 L 162 288.5 L 162 287.5 L 165 284.5 L 165 283.5 L 168 280.5 L 168 279.5 L 172 275.5 L 172 274.5 L 183.5 263 L 184.5 263 L 188.5 259 L 189.5 259 L 191.5 257 L 192.5 257 L 194.5 255 L 195.5 255 L 197.5 253 L 198.5 253 L 199.5 252 L 200.5 252 L 201.5 251 L 202.5 251 L 203.5 250 L 204.5 250 L 205.5 249 L 206.5 249 L 207.5 248 L 208.5 248 L 209.5 247 L 210.5 247 L 211.5 246 L 212.5 246 L 213.5 245 L 214.5 245 L 215.5 244 L 217.5 244 L 218.5 243 L 220.5 243 L 221.5 242 L 223.5 242 L 224.5 241 L 226.5 241 L 227.5 240 L 231.5 240 L 232.5 239 L 236.5 239 L 237.5 238 L 243.5 238 L 244.5 237 Z M 245 241 L 244 242 L 238 242 L 237 243 L 233 243 L 232 244 L 229 244 L 228 245 L 226 245 L 225 246 L 222 246 L 221 247 L 220 247 L 219 248 L 217 248 L 216 249 L 215 249 L 214 250 L 213 250 L 212 251 L 211 251 L 210 252 L 209 252 L 208 253 L 207 253 L 206 254 L 205 254 L 204 255 L 203 255 L 202 256 L 201 256 L 199 258 L 198 258 L 197 259 L 196 259 L 193 262 L 192 262 L 189 265 L 188 265 L 173 280 L 173 281 L 170 284 L 170 285 L 167 288 L 167 289 L 165 291 L 165 292 L 164 293 L 164 294 L 162 296 L 162 297 L 161 298 L 161 299 L 160 300 L 160 301 L 159 302 L 159 303 L 158 304 L 158 305 L 157 306 L 157 308 L 156 309 L 156 310 L 155 311 L 155 313 L 154 314 L 154 316 L 153 317 L 153 319 L 152 320 L 152 323 L 151 324 L 151 327 L 150 328 L 150 334 L 149 335 L 149 361 L 150 362 L 150 368 L 151 369 L 151 372 L 152 373 L 152 376 L 153 377 L 153 379 L 154 380 L 154 382 L 155 383 L 155 384 L 156 385 L 156 387 L 157 388 L 157 389 L 158 390 L 158 391 L 159 392 L 159 393 L 160 394 L 160 395 L 161 396 L 161 397 L 163 399 L 163 400 L 164 401 L 164 402 L 166 404 L 166 405 L 168 407 L 168 408 L 171 411 L 171 412 L 176 417 L 176 418 L 187 428 L 188 428 L 192 432 L 193 432 L 195 434 L 196 434 L 198 436 L 199 436 L 201 438 L 202 438 L 203 439 L 204 439 L 205 440 L 206 440 L 207 441 L 208 441 L 209 442 L 210 442 L 211 443 L 212 443 L 213 444 L 214 444 L 215 445 L 216 445 L 217 446 L 219 446 L 220 447 L 221 447 L 222 448 L 224 448 L 225 449 L 228 449 L 229 450 L 232 450 L 233 451 L 236 451 L 237 452 L 243 452 L 244 453 L 270 453 L 271 452 L 276 452 L 277 451 L 281 451 L 282 450 L 285 450 L 286 449 L 288 449 L 289 448 L 290 448 L 291 447 L 293 447 L 294 446 L 295 446 L 296 445 L 298 445 L 299 444 L 300 444 L 301 443 L 302 443 L 303 442 L 304 442 L 306 440 L 307 440 L 308 439 L 309 439 L 310 438 L 311 438 L 313 436 L 314 436 L 316 434 L 317 434 L 320 431 L 321 431 L 326 426 L 327 426 L 334 419 L 334 418 L 339 413 L 339 412 L 343 408 L 343 407 L 345 405 L 345 404 L 347 402 L 347 401 L 348 400 L 348 399 L 350 397 L 350 396 L 351 395 L 351 394 L 352 393 L 352 392 L 353 391 L 353 387 L 351 384 L 350 384 L 349 383 L 347 383 L 346 382 L 345 382 L 344 381 L 343 381 L 342 380 L 341 380 L 340 379 L 339 379 L 338 378 L 337 378 L 336 377 L 334 377 L 333 376 L 332 377 L 330 377 L 329 377 Q 329 377 329 379 L 328 380 L 328 381 L 327 382 L 327 383 L 326 384 L 326 385 L 325 386 L 325 387 L 323 389 L 323 390 L 322 391 L 322 392 L 319 395 L 319 396 L 315 400 L 315 401 L 310 406 L 309 406 L 304 411 L 303 411 L 301 413 L 300 413 L 298 415 L 297 415 L 295 417 L 294 417 L 293 418 L 292 418 L 291 419 L 290 419 L 289 420 L 288 420 L 287 421 L 285 421 L 284 422 L 282 422 L 281 423 L 279 423 L 278 424 L 276 424 L 275 425 L 271 425 L 270 426 L 264 426 L 263 427 L 249 427 L 248 426 L 242 426 L 241 425 L 237 425 L 236 424 L 234 424 L 233 423 L 230 423 L 229 422 L 228 422 L 227 421 L 225 421 L 224 420 L 223 420 L 222 419 L 221 419 L 220 418 L 219 418 L 218 417 L 217 417 L 215 415 L 214 415 L 212 413 L 211 413 L 208 410 L 207 410 L 194 398 L 194 397 L 192 395 L 192 394 L 190 392 L 190 391 L 188 389 L 188 388 L 187 387 L 187 386 L 185 384 L 185 382 L 184 381 L 184 380 L 183 379 L 183 377 L 182 376 L 182 375 L 181 374 L 181 371 L 180 370 L 180 367 L 179 366 L 179 362 L 178 361 L 178 339 L 179 338 L 179 334 L 180 333 L 180 330 L 181 329 L 181 326 L 182 325 L 182 323 L 183 322 L 183 321 L 184 320 L 184 319 L 185 318 L 185 316 L 186 315 L 186 314 L 187 313 L 187 312 L 189 310 L 189 309 L 190 308 L 190 307 L 192 305 L 192 304 L 195 301 L 195 300 L 209 286 L 210 286 L 213 283 L 214 283 L 216 281 L 217 281 L 218 280 L 219 280 L 220 279 L 221 279 L 223 277 L 224 277 L 225 276 L 227 276 L 228 275 L 229 275 L 230 274 L 232 274 L 233 273 L 235 273 L 236 272 L 239 272 L 240 271 L 244 271 L 245 270 L 252 270 L 253 269 L 263 269 L 264 270 L 270 270 L 271 271 L 274 271 L 275 272 L 278 272 L 279 273 L 281 273 L 282 274 L 284 274 L 285 275 L 286 275 L 287 276 L 288 276 L 289 277 L 291 277 L 292 278 L 293 278 L 295 280 L 296 280 L 297 281 L 298 281 L 300 283 L 301 283 L 304 286 L 305 286 L 312 294 L 312 295 L 313 296 L 313 301 L 309 305 L 308 305 L 307 306 L 306 306 L 305 307 L 304 307 L 300 311 L 301 312 Q 301 313 301 313 Q 301 313 303 313 L 304 314 L 305 314 L 306 315 L 307 315 L 308 316 L 309 316 L 310 317 L 311 317 L 312 318 L 313 318 L 314 319 L 315 319 L 316 320 L 317 320 L 318 321 L 319 321 L 321 323 L 322 323 L 323 324 L 325 324 L 326 325 L 327 325 L 328 326 L 329 326 L 330 327 L 331 327 L 332 328 L 333 328 L 334 329 L 335 329 L 336 330 L 337 330 L 338 331 L 339 331 L 340 332 L 341 332 L 343 334 L 345 334 L 346 335 L 347 334 Q 348 334 348 334 Q 348 334 348 333 L 349 332 L 349 328 L 350 327 L 350 321 L 351 320 L 351 315 L 352 314 L 352 307 L 353 306 L 353 301 L 354 300 L 354 293 L 355 292 L 355 290 L 354 289 Q 354 287 354 287 L 354 287 L 351 287 L 350 288 L 346 288 L 345 287 L 344 287 L 336 280 L 336 279 L 328 270 L 327 270 L 320 263 L 319 263 L 316 260 L 315 260 L 313 258 L 312 258 L 310 256 L 309 256 L 308 255 L 307 255 L 306 254 L 305 254 L 304 253 L 303 253 L 302 252 L 301 252 L 300 251 L 299 251 L 298 250 L 297 250 L 296 249 L 295 249 L 294 248 L 292 248 L 291 247 L 289 247 L 288 246 L 286 246 L 285 245 L 283 245 L 282 244 L 279 244 L 278 243 L 274 243 L 273 242 L 266 242 L 265 241 L 245 241 Z " /><path fill="rgb(21,21,21)" stroke="rgb(21,21,21)" stroke-width="1" opacity="0.996078431372549" d="M 242.5 4 L 271.5 4 L 272.5 5 L 277.5 5 L 278.5 6 L 283.5 6 L 284.5 7 L 287.5 7 L 288.5 8 L 291.5 8 L 292.5 9 L 295.5 9 L 296.5 10 L 298.5 10 L 299.5 11 L 301.5 11 L 302.5 12 L 304.5 12 L 305.5 13 L 306.5 13 L 307.5 14 L 308.5 14 L 309.5 15 L 311.5 15 L 312.5 16 L 313.5 16 L 314.5 17 L 315.5 17 L 316.5 18 L 317.5 18 L 318.5 19 L 319.5 19 L 321.5 21 L 322.5 21 L 323.5 22 L 324.5 22 L 326.5 24 L 327.5 24 L 329.5 26 L 330.5 26 L 332.5 28 L 333.5 28 L 336.5 31 L 337.5 31 L 340.5 34 L 341.5 34 L 356 48.5 L 356 49.5 L 360 53.5 L 360 54.5 L 364 58.5 L 364 59.5 L 366 61.5 L 366 62.5 L 367 63.5 L 367 64.5 L 369 66.5 L 369 67.5 L 370 68.5 L 370 69.5 L 372 71.5 L 372 72.5 L 373 73.5 L 373 74.5 L 374 75.5 L 374 76.5 L 375 77.5 L 375 78.5 L 376 79.5 L 376 80.5 L 377 81.5 L 377 83.5 L 378 84.5 L 378 85.5 L 379 86.5 L 379 88.5 L 380 89.5 L 380 90.5 L 381 91.5 L 381 93.5 L 382 94.5 L 382 96.5 L 383 97.5 L 383 99.5 L 384 100.5 L 384 103.5 L 385 104.5 L 385 107.5 L 386 108.5 L 386 112.5 L 387 113.5 L 387 119.5 L 388 120.5 L 388 134.5 L 389 135.5 L 389 147.5 L 388 148.5 L 388 185.5 L 389 186.5 L 388 187.5 L 389.5 189 L 401.5 189 L 402.5 190 L 406.5 190 L 407.5 191 L 409.5 191 L 410.5 192 L 411.5 192 L 412.5 193 L 413.5 193 L 414.5 194 L 415.5 194 L 416.5 195 L 417.5 195 L 419.5 197 L 420.5 197 L 430 206.5 L 430 207.5 L 432 209.5 L 432 210.5 L 434 212.5 L 434 213.5 L 435 214.5 L 435 216.5 L 436 217.5 L 436 219.5 L 437 220.5 L 437 222.5 L 438 223.5 L 438 228.5 L 439 229.5 L 439 467.5 L 438 468.5 L 438 474.5 L 437 475.5 L 437 477.5 L 436 478.5 L 436 480.5 L 435 481.5 L 435 482.5 L 434 483.5 L 434 484.5 L 433 485.5 L 433 486.5 L 432 487.5 L 432 488.5 L 429 491.5 L 429 492.5 L 423.5 498 L 422.5 498 L 419.5 501 L 418.5 501 L 416.5 503 L 415.5 503 L 414.5 504 L 413.5 504 L 412.5 505 L 410.5 505 L 409.5 506 L 407.5 506 L 406.5 507 L 403.5 507 L 402.5 508 L 110.5 508 L 109.5 507 L 105.5 507 L 104.5 506 L 102.5 506 L 101.5 505 L 99.5 505 L 98.5 504 L 97.5 504 L 96.5 503 L 95.5 503 L 94.5 502 L 93.5 502 L 91.5 500 L 90.5 500 L 82 491.5 L 82 490.5 L 79 487.5 L 79 486.5 L 78 485.5 L 78 484.5 L 77 483.5 L 77 482.5 L 76 481.5 L 76 480.5 L 75 479.5 L 75 476.5 L 74 475.5 L 74 465.5 L 73 464.5 L 73 461.5 L 74 460.5 L 74 457.5 L 73 456.5 L 74 455.5 L 73 454.5 L 73 453.5 L 74 452.5 L 74 450.5 L 73 449.5 L 74 448.5 L 74 424.5 L 73 423.5 L 73 421.5 L 74 420.5 L 74 396.5 L 73 395.5 L 73 394.5 L 74 393.5 L 73 392.5 L 73 390.5 L 74 389.5 L 74 380.5 L 73 379.5 L 74 378.5 L 74 362.5 L 73 361.5 L 73 357.5 L 74 356.5 L 73 355.5 L 73 350.5 L 74 349.5 L 73 348.5 L 73 345.5 L 74 344.5 L 74 317.5 L 73 316.5 L 73 315.5 L 74 314.5 L 74 286.5 L 73 285.5 L 74 284.5 L 74 281.5 L 73 280.5 L 73 275.5 L 74 274.5 L 74 253.5 L 73 252.5 L 73 248.5 L 74 247.5 L 74 246.5 L 73 245.5 L 73 244.5 L 74 243.5 L 74 221.5 L 75 220.5 L 75 217.5 L 76 216.5 L 76 215.5 L 77 214.5 L 77 213.5 L 78 212.5 L 78 211.5 L 79 210.5 L 79 209.5 L 81 207.5 L 81 206.5 L 90.5 197 L 91.5 197 L 93.5 195 L 94.5 195 L 95.5 194 L 96.5 194 L 97.5 193 L 98.5 193 L 99.5 192 L 100.5 192 L 101.5 191 L 103.5 191 L 104.5 190 L 107.5 190 L 108.5 189 L 123.5 189 L 124 189 L 124 188.5 L 124 162.5 L 123 161.5 L 123 128.5 L 124 127.5 L 124 117.5 L 125 116.5 L 125 111.5 L 126 110.5 L 126 107.5 L 127 106.5 L 127 102.5 L 128 101.5 L 128 99.5 L 129 98.5 L 129 96.5 L 130 95.5 L 130 93.5 L 131 92.5 L 131 90.5 L 132 89.5 L 132 87.5 L 133 86.5 L 133 85.5 L 134 84.5 L 134 83.5 L 135 82.5 L 135 80.5 L 136 79.5 L 136 78.5 L 137 77.5 L 137 76.5 L 139 74.5 L 139 73.5 L 140 72.5 L 140 71.5 L 141 70.5 L 141 69.5 L 143 67.5 L 143 66.5 L 144 65.5 L 144 64.5 L 146 62.5 L 146 61.5 L 148 59.5 L 148 58.5 L 152 54.5 L 152 53.5 L 157 48.5 L 157 47.5 L 166.5 38 L 167.5 38 L 172.5 33 L 173.5 33 L 177.5 29 L 178.5 29 L 180.5 27 L 181.5 27 L 183.5 25 L 184.5 25 L 186.5 23 L 187.5 23 L 188.5 22 L 189.5 22 L 190.5 21 L 191.5 21 L 192.5 20 L 193.5 20 L 194.5 19 L 195.5 19 L 197.5 17 L 198.5 17 L 199.5 16 L 201.5 16 L 202.5 15 L 203.5 15 L 204.5 14 L 206.5 14 L 207.5 13 L 208.5 13 L 209.5 12 L 211.5 12 L 212.5 11 L 214.5 11 L 215.5 10 L 217.5 10 L 218.5 9 L 220.5 9 L 221.5 8 L 224.5 8 L 225.5 7 L 228.5 7 L 229.5 6 L 234.5 6 L 235.5 5 L 241.5 5 L 242.5 4 Z M 250 52 L 249 53 L 242 53 L 241 54 L 237 54 L 236 55 L 233 55 L 232 56 L 230 56 L 229 57 L 227 57 L 226 58 L 224 58 L 223 59 L 222 59 L 221 60 L 220 60 L 219 61 L 218 61 L 217 62 L 216 62 L 215 63 L 214 63 L 213 64 L 212 64 L 210 66 L 209 66 L 207 68 L 206 68 L 203 71 L 202 71 L 188 85 L 188 86 L 186 88 L 186 89 L 183 92 L 183 93 L 182 94 L 182 95 L 180 97 L 180 98 L 179 99 L 179 100 L 178 101 L 178 102 L 177 103 L 177 104 L 176 105 L 176 107 L 175 108 L 175 110 L 174 111 L 174 113 L 173 114 L 173 117 L 172 118 L 172 122 L 171 123 L 171 130 L 170 131 L 170 189 L 170 189 L 171 189 L 341 189 L 342 188 L 341 187 L 342 186 L 342 140 L 341 139 L 341 126 L 340 125 L 340 120 L 339 119 L 339 116 L 338 115 L 338 113 L 337 112 L 337 109 L 336 108 L 336 107 L 335 106 L 335 104 L 334 103 L 334 102 L 333 101 L 333 100 L 332 99 L 332 98 L 331 97 L 331 96 L 330 95 L 330 94 L 329 93 L 329 92 L 327 90 L 327 89 L 325 87 L 325 86 L 321 82 L 321 81 L 313 72 L 312 72 L 307 67 L 306 67 L 304 65 L 303 65 L 302 64 L 301 64 L 299 62 L 298 62 L 297 61 L 296 61 L 295 60 L 294 60 L 293 59 L 291 59 L 290 58 L 288 58 L 287 57 L 285 57 L 284 56 L 282 56 L 281 55 L 278 55 L 277 54 L 272 54 L 271 53 L 263 53 L 262 52 L 250 52 Z M 245 237 L 244 238 L 238 238 L 237 239 L 233 239 L 232 240 L 228 240 L 227 241 L 225 241 L 224 242 L 222 242 L 221 243 L 219 243 L 218 244 L 216 244 L 215 245 L 214 245 L 213 246 L 212 246 L 211 247 L 210 247 L 209 248 L 208 248 L 207 249 L 206 249 L 205 250 L 204 250 L 203 251 L 202 251 L 201 252 L 200 252 L 199 253 L 198 253 L 196 255 L 195 255 L 193 257 L 192 257 L 190 259 L 189 259 L 185 263 L 184 263 L 172 275 L 172 276 L 168 280 L 168 281 L 165 284 L 165 285 L 162 288 L 162 289 L 161 290 L 161 291 L 159 293 L 159 294 L 158 295 L 158 296 L 157 297 L 157 298 L 156 299 L 156 300 L 155 301 L 155 302 L 154 303 L 154 304 L 153 305 L 153 307 L 152 308 L 152 309 L 151 310 L 151 312 L 150 313 L 150 315 L 149 316 L 149 318 L 148 319 L 148 322 L 147 323 L 147 327 L 146 328 L 146 334 L 145 335 L 145 362 L 146 363 L 146 368 L 147 369 L 147 372 L 148 373 L 148 376 L 149 377 L 149 380 L 150 381 L 150 382 L 151 383 L 151 385 L 152 386 L 152 387 L 153 388 L 153 390 L 154 391 L 154 392 L 155 393 L 155 394 L 156 395 L 156 396 L 157 397 L 157 398 L 159 400 L 159 401 L 160 402 L 160 403 L 162 405 L 162 406 L 164 408 L 164 409 L 166 411 L 166 412 L 170 416 L 170 417 L 178 425 L 178 426 L 181 428 L 182 428 L 188 434 L 189 434 L 192 437 L 193 437 L 195 439 L 196 439 L 197 440 L 198 440 L 200 442 L 201 442 L 202 443 L 203 443 L 204 444 L 205 444 L 206 445 L 207 445 L 208 446 L 209 446 L 210 447 L 211 447 L 212 448 L 213 448 L 214 449 L 215 449 L 216 450 L 218 450 L 219 451 L 221 451 L 222 452 L 224 452 L 225 453 L 227 453 L 228 454 L 231 454 L 232 455 L 236 455 L 237 456 L 243 456 L 244 457 L 270 457 L 271 456 L 277 456 L 278 455 L 282 455 L 283 454 L 285 454 L 286 453 L 288 453 L 289 452 L 291 452 L 292 451 L 294 451 L 295 450 L 296 450 L 297 449 L 299 449 L 300 448 L 301 448 L 302 447 L 303 447 L 304 446 L 305 446 L 306 445 L 307 445 L 309 443 L 310 443 L 311 442 L 312 442 L 314 440 L 315 440 L 317 438 L 318 438 L 320 436 L 321 436 L 324 433 L 325 433 L 341 417 L 341 416 L 345 412 L 345 411 L 347 409 L 347 408 L 349 406 L 349 405 L 351 403 L 351 402 L 353 400 L 353 399 L 354 398 L 354 397 L 355 396 L 355 395 L 356 394 L 356 393 L 357 392 L 357 391 L 358 390 L 358 389 L 359 388 L 359 387 L 360 386 Q 360 384 360 384 Q 360 384 359 384 L 358 383 L 357 383 L 356 382 L 355 382 L 354 381 L 353 381 L 352 380 L 351 380 L 350 379 L 348 379 L 347 378 L 346 378 L 345 377 L 344 377 L 343 376 L 342 376 L 341 375 L 340 375 L 339 374 L 337 374 L 336 373 L 335 373 L 334 372 L 333 372 L 332 371 L 331 371 L 330 370 L 329 370 L 328 369 L 327 370 L 327 372 L 326 373 L 326 375 L 325 376 L 325 378 L 324 379 L 324 380 L 323 381 L 323 382 L 322 383 L 322 384 L 321 385 L 321 386 L 319 388 L 319 389 L 318 390 L 318 391 L 315 394 L 315 395 L 304 406 L 303 406 L 300 409 L 299 409 L 297 411 L 296 411 L 294 413 L 293 413 L 292 414 L 291 414 L 290 415 L 289 415 L 288 416 L 287 416 L 286 417 L 285 417 L 284 418 L 282 418 L 281 419 L 279 419 L 278 420 L 276 420 L 275 421 L 271 421 L 270 422 L 265 422 L 264 423 L 248 423 L 247 422 L 242 422 L 241 421 L 237 421 L 236 420 L 234 420 L 233 419 L 231 419 L 230 418 L 228 418 L 227 417 L 226 417 L 225 416 L 224 416 L 223 415 L 222 415 L 221 414 L 220 414 L 219 413 L 218 413 L 216 411 L 215 411 L 213 409 L 212 409 L 207 404 L 206 404 L 200 399 L 200 398 L 196 394 L 196 393 L 194 391 L 194 390 L 192 388 L 192 387 L 190 385 L 190 384 L 189 383 L 189 382 L 188 381 L 188 380 L 187 379 L 187 377 L 186 376 L 186 374 L 185 373 L 185 371 L 184 370 L 184 367 L 183 366 L 183 362 L 182 361 L 182 339 L 183 338 L 183 334 L 184 333 L 184 330 L 185 329 L 185 326 L 186 325 L 186 324 L 187 323 L 187 321 L 188 320 L 188 319 L 189 318 L 189 317 L 190 316 L 190 315 L 191 314 L 191 313 L 193 311 L 193 310 L 194 309 L 194 308 L 196 306 L 196 305 L 200 301 L 200 300 L 209 291 L 210 291 L 213 288 L 214 288 L 217 285 L 218 285 L 219 284 L 220 284 L 222 282 L 223 282 L 224 281 L 225 281 L 226 280 L 227 280 L 228 279 L 230 279 L 231 278 L 232 278 L 233 277 L 235 277 L 236 276 L 239 276 L 240 275 L 244 275 L 245 274 L 250 274 L 251 273 L 264 273 L 265 274 L 270 274 L 271 275 L 274 275 L 275 276 L 278 276 L 279 277 L 281 277 L 282 278 L 283 278 L 284 279 L 286 279 L 287 280 L 288 280 L 289 281 L 290 281 L 291 282 L 292 282 L 294 284 L 295 284 L 296 285 L 297 285 L 300 288 L 301 288 L 308 295 L 309 295 L 311 298 Q 311 299 311 299 Q 311 299 310 299 L 308 301 L 307 301 L 306 302 L 305 302 L 304 303 L 303 303 L 302 304 L 301 304 L 299 306 L 298 306 L 297 307 L 296 307 L 294 309 L 293 309 L 292 310 Q 290 310 290 310 Q 290 310 290 312 L 290 312 Q 290 312 292 312 L 293 313 L 294 313 L 295 314 L 296 314 L 297 315 L 298 315 L 299 316 L 300 316 L 301 317 L 302 317 L 303 318 L 304 318 L 305 319 L 306 319 L 307 320 L 308 320 L 309 321 L 310 321 L 311 322 L 312 322 L 313 323 L 314 323 L 315 324 L 316 324 L 317 325 L 318 325 L 319 326 L 320 326 L 321 327 L 322 327 L 323 328 L 324 328 L 325 329 L 326 329 L 327 330 L 328 330 L 329 331 L 330 331 L 331 332 L 332 332 L 333 333 L 334 333 L 335 334 L 336 334 L 337 335 L 338 335 L 339 336 L 340 336 L 341 337 L 342 337 L 343 338 L 344 338 L 345 339 L 346 339 L 347 340 L 348 340 L 349 341 L 351 341 L 352 340 L 352 336 L 353 335 L 353 328 L 354 327 L 354 322 L 355 321 L 355 314 L 356 313 L 356 307 L 357 306 L 357 300 L 358 299 L 358 293 L 359 292 L 359 286 L 360 285 L 360 278 L 360 277 Q 360 277 359 277 L 357 279 L 356 279 L 353 282 L 352 282 L 349 285 L 347 285 L 342 281 L 342 280 L 338 276 L 338 275 L 334 270 L 333 270 L 325 262 L 324 262 L 319 257 L 318 257 L 316 255 L 315 255 L 314 254 L 313 254 L 311 252 L 310 252 L 309 251 L 308 251 L 307 250 L 306 250 L 305 249 L 304 249 L 303 248 L 302 248 L 301 247 L 300 247 L 299 246 L 298 246 L 297 245 L 295 245 L 294 244 L 293 244 L 292 243 L 290 243 L 289 242 L 287 242 L 286 241 L 284 241 L 283 240 L 279 240 L 278 239 L 274 239 L 273 238 L 267 238 L 266 237 L 245 237 Z " /></svg>