<?xml version="1.0" encoding="UTF-8"?>
<svg id="Layer_2" data-name="Layer 2" xmlns="http://www.w3.org/2000/svg" xmlns:xlink="http://www.w3.org/1999/xlink" viewBox="0 0 73.1 73.1">
  <defs>
    <style>
      .cls-1 {
        fill: url(#linear-gradient);
      }

      .cls-2 {
        fill: #fff;
      }
    </style>
    <linearGradient id="linear-gradient" x1="0" y1="2305.05" x2="73.1" y2="2231.95" gradientTransform="translate(0 -2231.95)" gradientUnits="userSpaceOnUse">
      <stop offset="0" stop-color="#ff853f"/>
      <stop offset="1" stop-color="#7f3800"/>
    </linearGradient>
  </defs>
  <g id="Layer_2-2" data-name="Layer 2">
    <g>
      <rect class="cls-1" width="73.1" height="73.1"/>
      <path class="cls-2" d="M65.1,21.1h-4.3v-5.3c0-.8-.6-1.4-1.4-1.6-4.6-.7-9.4-.3-13.7,1.3-3.1,1.2-5.8,3-7.9,5.5-2-2.7-4.8-4.6-7.9-5.7-4.4-1.7-9.5-1.9-13.7-1-.7.2-1.3.8-1.3,1.5v5.3h-4.5c-.9,0-1.6.7-1.6,1.6v36.4c0,.9.7,1.6,1.6,1.6h.5c4.4-1.3,8.8-2.1,13.1-2.1s8.5.7,12.7,2.6c.3.2.6.3.9.3s.6,0,.9-.3c4.2-1.9,8.5-2.6,12.7-2.6s8.7.9,13.1,2.1h.5c.9,0,1.6-.7,1.6-1.6V22.7c0-.9-.7-1.6-1.6-1.6h.3ZM47.6,35.2h0c.2,0,.3,0,.5.2s.2.3.2.5c0,.4-.2.7-.6.7l-1.5.2c-.4,0-.7-.2-.8-.6,0-.4.2-.7.6-.8.5,0,1-.1,1.5-.2h.1ZM43.6,30.3l.9-1.3h0c.2-.3.7-.4,1-.2.2,0,.2.2.3.5,0,.2,0,.4-.1.5l-.9,1.3c-.2.3-.7.4-1,.2s-.4-.7-.2-1ZM37.8,27c0-.4.3-.7.7-.7h0c.2,0,.3,0,.5.2s.2.3.2.5v1.5h0c0,.4-.3.7-.7.7h0c-.2,0-.3,0-.5-.2s-.2-.3-.2-.5v-1.5ZM35.3,30.7h0c.5-.2,1-.3,1.5-.4h1.6c.5,0,1,.2,1.5.3s1,.4,1.5.6h0c.6.3,1.1.8,1.6,1.3s.8,1.1,1.1,1.7c.1.4.2.7.3,1.1.2.8.2,1.7,0,2.6,0,.5-.2.9-.4,1.3-.4,1-1,1.9-1.7,2.7-.3.5-.6.9-.9,1.3-.2.3-.5.4-.8.4l-5.1.7c-.4,0-.8-.2-1-.6-.1-.4-.3-.7-.5-1.1-.2-.3-.3-.6-.5-.8-.2-.3-.5-.6-.8-1s-.5-.8-.7-1.3-.4-1-.5-1.5-.2-1-.2-1.5,0-1.1.2-1.6c.2-.6.4-1.1.6-1.6h0c.4-.7.8-1.2,1.3-1.7s1.1-.8,1.7-1.1l.2.2h0ZM30.5,28.3c.2,0,.4,0,.5.2l1.1,1c.3.2.3.7,0,1s-.3.2-.5.2-.4,0-.5-.2l-1.1-1h0c-.1-.1-.2-.3-.2-.5,0-.4.3-.7.7-.7ZM27.6,36.2c.1-.1.3-.2.5-.2h1.5c.4,0,.7.2.7.6s0,.4-.2.5c-.1.1-.3.2-.5.2h-1.5c-.4,0-.7-.2-.7-.6s0-.4.2-.5ZM24.3,55.4c-4,0-8.1.7-12.1,1.7V24.3h2.9v25.8c-.2,0-.2.2-.1.3,0,.9.8,1.5,1.7,1.4,3.9-.3,7.6,0,11.1,1.2,2.8.9,5.4,2.3,7.7,4.2-3.7-1.3-7.5-1.8-11.2-1.8h0ZM40.6,47.4h0c-.3.5-.6.8-1.1,1.1-.4.2-.9.4-1.3.4s-1,0-1.4-.2c-.3-.2-.6-.3-.8-.6l4.6-.7h0ZM35.4,47v-.2l-.3-.9v-.2l6-.9h0v1.5l-5.7.8h0v-.1ZM63.6,57.1c-4-1-8-1.7-12.1-1.7s-7,.4-10.5,1.5c2.6-1.7,5.1-3.1,7.8-4.1,3.3-1.2,6.6-1.6,10.1-1.1h.4c.9,0,1.6-.7,1.6-1.6v-25.9h2.7v32.8h0v.1Z"/>
    </g>
  </g>
</svg>