<?xml version="1.0" encoding="UTF-8"?>
<svg id="Layer_2" data-name="Layer 2" xmlns="http://www.w3.org/2000/svg" xmlns:xlink="http://www.w3.org/1999/xlink" viewBox="0 0 73.1 73.1">
  <defs>
    <style>
      .cls-1 {
        fill: url(#linear-gradient);
      }

      .cls-2 {
        fill: #fff;
      }
    </style>
    <linearGradient id="linear-gradient" x1="0" y1="2305.05" x2="73.1" y2="2231.95" gradientTransform="translate(0 -2231.95)" gradientUnits="userSpaceOnUse">
      <stop offset="0" stop-color="#54005f"/>
      <stop offset=".3" stop-color="#370049"/>
      <stop offset="1" stop-color="#00001f"/>
    </linearGradient>
  </defs>
  <g id="Layer_2-2" data-name="Layer 2">
    <g>
      <rect class="cls-1" width="73.1" height="73.1"/>
      <g id="uuid-f576eb1f-42df-48d6-af24-fbc879af1bd8" data-name="Layer 2-2">
        <g>
          <path class="cls-2" d="M15.8,28.9c-2.1,0-4,.9-5.4,2.2-1.4,1.4-2.2,3.3-2.2,5.4s.9,4,2.2,5.4c1.4,1.4,3.3,2.2,5.4,2.2s4-.9,5.4-2.2c1.4-1.4,2.2-3.3,2.2-5.4s-.9-4-2.2-5.4c-1.4-1.4-3.3-2.2-5.4-2.2ZM19,39.8c-.8.8-2,1.3-3.2,1.3s-2.4-.5-3.2-1.3-1.3-2-1.3-3.2.5-2.4,1.3-3.2,2-1.3,3.2-1.3,2.4.5,3.2,1.3,1.3,2,1.3,3.2-.5,2.4-1.3,3.2Z"/>
          <path class="cls-2" d="M15.8,15.3c-1.1,0-1.9.9-1.9,1.9s1.2,2.2,2.4,1.9c.7-.2,1.2-.7,1.3-1.3.3-1.3-.6-2.4-1.9-2.4h0l.1-.1Z"/>
          <path class="cls-2" d="M15.8,48.3c-2.1,0-4,.9-5.4,2.2-1.4,1.4-2.2,3.3-2.2,5.4s.9,4,2.2,5.4c1.4,1.4,3.3,2.2,5.4,2.2s4-.9,5.4-2.2c1.4-1.4,2.2-3.3,2.2-5.4s-.9-4-2.2-5.4-3.3-2.2-5.4-2.2ZM19,59.1c-.8.8-1.9,1.3-3.2,1.3s-2.4-.5-3.2-1.3-1.3-2-1.3-3.2.5-2.4,1.3-3.2,2-1.3,3.2-1.3,2.4.5,3.2,1.3,1.3,2,1.3,3.2-.5,2.4-1.3,3.2Z"/>
          <path class="cls-2" d="M15.8,9.6c-2.1,0-4,.9-5.4,2.2-1.4,1.4-2.2,3.3-2.2,5.4s.9,4,2.2,5.4c1.4,1.4,3.3,2.2,5.4,2.2s4-.9,5.4-2.2,2.2-3.3,2.2-5.4-.9-4-2.2-5.4c-1.4-1.4-3.3-2.2-5.4-2.2ZM19,20.4c-.8.8-1.9,1.3-3.2,1.3s-2.4-.5-3.2-1.3-1.3-2-1.3-3.2.5-2.4,1.3-3.2,2-1.3,3.2-1.3,2.4.5,3.2,1.3,1.3,2,1.3,3.2-.5,2.4-1.3,3.2Z"/>
          <path class="cls-2" d="M33.8,23h25.3c3.2,0,5.8-2.6,5.8-5.8s-2.6-5.8-5.8-5.8h-25.3c-3.2,0-5.8,2.6-5.8,5.8s2.6,5.8,5.8,5.8Z"/>
          <path class="cls-2" d="M33.8,31.1h25.3c3.2,0,5.8,2.6,5.8,5.8h0c0,3.2-2.6,5.8-5.8,5.8h-25.3c-3.2,0-5.8-2.6-5.8-5.8h0c0-3.2,2.6-5.8,5.8-5.8Z"/>
          <path class="cls-2" d="M59.1,50.1h-25.3c-3.2,0-5.8,2.6-5.8,5.8s2.6,5.8,5.8,5.8h25.3c3.2,0,5.8-2.6,5.8-5.8s-2.6-5.8-5.8-5.8Z"/>
        </g>
      </g>
    </g>
  </g>
</svg>