<?xml version="1.0" encoding="UTF-8"?>
<svg id="Layer_2" data-name="Layer 2" xmlns="http://www.w3.org/2000/svg" xmlns:xlink="http://www.w3.org/1999/xlink" viewBox="0 0 73.1 73.1">
  <defs>
    <style>
      .cls-1 {
        fill: #fff;
        fill-rule: evenodd;
      }

      .cls-2 {
        fill: url(#linear-gradient);
      }
    </style>
    <linearGradient id="linear-gradient" x1="0" y1="2305.05" x2="73.1" y2="2231.95" gradientTransform="translate(0 -2231.95)" gradientUnits="userSpaceOnUse">
      <stop offset="0" stop-color="#d08fd9"/>
      <stop offset="0" stop-color="#816aab"/>
      <stop offset="1" stop-color="#54097d"/>
    </linearGradient>
  </defs>
  <g id="Layer_2-2" data-name="Layer 2">
    <g>
      <rect class="cls-2" width="73.1" height="73.1"/>
      <path class="cls-1" d="M44.8,21.3c1.4.8,2.7,1.9,3.8,3.1s1.9,2.6,2.6,4.1h0c.3.9.6,1.7.8,2.6.5,2,.5,4.1.1,6.2-.2,1.1-.5,2.2-1,3.2h0c-.9,2.3-2.5,4.5-4,6.6-.8,1.1-1.5,2.1-2.2,3.2-.4.7-1.1,1-1.9,1l-12.2,1.8c-1,.2-2-.5-2.3-1.5-.3-.9-.7-1.7-1.1-2.6-.4-.7-.8-1.4-1.3-2-.6-.7-1.3-1.5-1.9-2.3-.7-1-1.3-2-1.8-3.1h0c-.5-1.1-.9-2.3-1.2-3.5s-.4-2.5-.4-3.7h0c0-1.3.2-2.6.5-3.9.4-1.4.9-2.7,1.5-3.9v-.2c.9-1.4,2-2.7,3.2-3.8,1.2-1.1,2.6-2,4.2-2.6h.1c1.1-.5,2.3-.8,3.5-1,1.3-.2,2.6-.2,3.9,0,1.3,0,2.5.4,3.7.8s2.4.9,3.5,1.5h-.1ZM43.1,59.9c-.7,1.2-1.6,2.1-2.8,2.8-1,.6-2.1.9-3.2,1-1.1,0-2.3-.1-3.3-.6-.7-.4-1.4-.8-1.9-1.4l11.2-1.7h0v-.1ZM44.2,53.7v2.4l-.2,1.1-13.5,2-.2-.5-.5-2.2v-.6l14.5-2.2h-.1ZM36.2,11c0-.9.8-1.7,1.7-1.7h.1c.4,0,.8.2,1.1.5s.5.7.5,1.2h0v3.6h0c0,1-.8,1.7-1.7,1.7h-.1c-.4,0-.8-.2-1.1-.5s-.5-.8-.5-1.2h0v-3.6h0ZM17.6,17.3c-.3-.3-.5-.7-.5-1.2,0-.9.7-1.7,1.6-1.8h0c.4,0,.9,0,1.2.4l2.7,2.5c.7.6.7,1.7,0,2.4-.3.3-.7.5-1.2.5s-.9,0-1.2-.4l-2.7-2.5h0l.1.1ZM13.1,36c-.9,0-1.7-.7-1.8-1.6h0c0-.4.1-.9.4-1.2.3-.3.7-.5,1.2-.5h3.7c.9-.2,1.7.6,1.8,1.5h0c0,.5-.2.9-.4,1.2-.3.3-.7.5-1.2.5h-3.7s0,0,0,0h0v.1ZM59.9,30.8h0c.4,0,.8,0,1.2.4.3.3.6.7.6,1.1h0c0,1-.6,1.7-1.5,1.8l-3.7.4c-.9,0-1.8-.6-1.9-1.5,0-.9.6-1.8,1.5-1.9,1.2,0,2.5-.3,3.7-.4h.1v.1ZM52.6,16c.5-.8,1.6-1,2.3-.5h0c.4.2.6.6.7,1.1,0,.4,0,.9-.3,1.3l-2.1,3.1c-.5.8-1.6,1-2.4.5-.8-.5-1-1.6-.5-2.4h0l2.1-3.1h.2ZM38.5,33.6h2.6c.4,0,.7.3.7.7h0s0,.3-.1.4l-6.2,10.6c-.2.3-.6.4-.9.2h0c-.2-.1-.4-.4-.3-.7l.9-6.5h-3.1c-.4,0-.7-.2-.7-.6h0v-.4l6.1-10.6c.2-.3.6-.4.9-.2.2,0,.4.4.3.7l-.3,6.5h.1v-.1Z"/>
    </g>
  </g>
</svg>