<?xml version="1.0" encoding="UTF-8"?>
<svg id="Layer_2" data-name="Layer 2" xmlns="http://www.w3.org/2000/svg" xmlns:xlink="http://www.w3.org/1999/xlink" viewBox="0 0 57.6 47.73">
  <defs>
    <style>
      .cls-1 {
        fill: url(#linear-gradient);
      }
    </style>
    <linearGradient id="linear-gradient" x1="5.04" y1="1166.5" x2="53.35" y2="1118.19" gradientTransform="translate(0 -1115.95)" gradientUnits="userSpaceOnUse">
      <stop offset="0" stop-color="#fff"/>
      <stop offset="1" stop-color="#bf8500"/>
    </linearGradient>
  </defs>
  <g id="Layer_2-2" data-name="Layer 2">
    <path class="cls-1" d="M56.3,7.33h-4.3V2.03c0-.8-.6-1.4-1.4-1.6-4.6-.7-9.4-.3-13.7,1.3-3.1,1.2-5.8,3-7.9,5.5-2-2.7-4.8-4.6-7.9-5.7C16.7-.17,11.6-.37,7.4.53c-.7.2-1.3.8-1.3,1.5v5.3H1.6c-.9,0-1.6.7-1.6,1.6v36.4c0,.9.7,1.6,1.6,1.6h.5c4.4-1.3,8.8-2.1,13.1-2.1s8.5.7,12.7,2.6c.3.2.6.3.9.3s.6,0,.9-.3c4.2-1.9,8.5-2.6,12.7-2.6s8.7.9,13.1,2.1h.5c.9,0,1.6-.7,1.6-1.6V8.93c0-.9-.7-1.6-1.6-1.6h.3,0ZM38.8,21.43h0c.2,0,.3,0,.5.2,0,.1.2.3.2.5,0,.4-.2.7-.6.7l-1.5.2c-.4,0-.7-.2-.8-.6,0-.4.2-.7.6-.8.5,0,1-.1,1.5-.2h.1ZM34.8,16.53l.9-1.3h0c.2-.3.7-.4,1-.2.2,0,.2.2.3.5v.5l-.9,1.3c-.2.3-.7.4-1,.2s-.4-.7-.2-1h-.1ZM29,13.23c0-.4.3-.7.7-.7h0c.2,0,.3,0,.5.2,0,.1.2.3.2.5v1.5h0c0,.4-.3.7-.7.7h0c-.2,0-.3,0-.5-.2,0-.1-.2-.3-.2-.5v-1.5ZM26.5,16.93h0c.5-.2,1-.3,1.5-.4h1.6c.5,0,1,.2,1.5.3s1,.4,1.5.6h0c.6.3,1.1.8,1.6,1.3s.8,1.1,1.1,1.7c0,.4.2.7.3,1.1.2.8.2,1.7,0,2.6,0,.5-.2.9-.4,1.3-.4,1-1,1.9-1.7,2.7-.3.5-.6.9-.9,1.3-.2.3-.5.4-.8.4l-5.1.7c-.4,0-.8-.2-1-.6,0-.4-.3-.7-.5-1.1-.2-.3-.3-.6-.5-.8-.2-.3-.5-.6-.8-1s-.5-.8-.7-1.3-.4-1-.5-1.5-.2-1-.2-1.5,0-1.1.2-1.6c.2-.6.4-1.1.6-1.6h0c.4-.7.8-1.2,1.3-1.7s1.1-.8,1.7-1.1l.2.2h0ZM21.7,14.53c.2,0,.4,0,.5.2l1.1,1c.3.2.3.7,0,1s-.3.2-.5.2-.4,0-.5-.2l-1.1-1h0c0-.1-.2-.3-.2-.5,0-.4.3-.7.7-.7ZM18.8,22.43c0-.1.3-.2.5-.2h1.5c.4,0,.7.2.7.6s0,.4-.2.5c0,.1-.3.2-.5.2h-1.5c-.4,0-.7-.2-.7-.6s0-.4.2-.5ZM15.5,41.63c-4,0-8.1.7-12.1,1.7V10.53h2.9v25.8c-.2,0-.2.2,0,.3,0,.9.8,1.5,1.7,1.4,3.9-.3,7.6,0,11.1,1.2,2.8.9,5.4,2.3,7.7,4.2-3.7-1.3-7.5-1.8-11.2-1.8h-.1ZM31.8,33.63h0c-.3.5-.6.8-1.1,1.1-.4.2-.9.4-1.3.4s-1,0-1.4-.2c-.3-.2-.6-.3-.8-.6l4.6-.7h0ZM26.6,33.23v-.2l-.3-.9v-.2l6-.9h0v1.5l-5.7.8h0v-.1ZM54.8,43.33c-4-1-8-1.7-12.1-1.7s-7,.4-10.5,1.5c2.6-1.7,5.1-3.1,7.8-4.1,3.3-1.2,6.6-1.6,10.1-1.1h.4c.9,0,1.6-.7,1.6-1.6V10.43h2.7v32.8h0v.1Z"/>
  </g>
</svg>