<?xml version="1.0" encoding="UTF-8"?>
<svg id="Layer_2" data-name="Layer 2" xmlns="http://www.w3.org/2000/svg" xmlns:xlink="http://www.w3.org/1999/xlink" viewBox="0 0 56.5 53.9">
  <defs>
    <style>
      .cls-1 {
        fill: url(#linear-gradient);
      }
    </style>
    <linearGradient id="linear-gradient" x1="2.68" y1="2284.13" x2="53.08" y2="2233.63" gradientTransform="translate(0 -2231.95)" gradientUnits="userSpaceOnUse">
      <stop offset="0" stop-color="#d08fd9"/>
      <stop offset="0" stop-color="#fff"/>
      <stop offset="1" stop-color="#66f"/>
    </linearGradient>
  </defs>
  <g id="Layer_2-2" data-name="Layer 2">
    <g id="uuid-793afc5c-569c-40c2-b019-28651eec46f5">
      <path class="cls-1" d="M7.6,19.3c-2.1,0-4,.9-5.4,2.2-1.4,1.4-2.2,3.3-2.2,5.4s.9,4,2.2,5.4c1.4,1.4,3.3,2.2,5.4,2.2s4-.9,5.4-2.2c1.4-1.4,2.2-3.3,2.2-5.4s-.9-4-2.2-5.4c-1.4-1.4-3.3-2.2-5.4-2.2ZM10.7,30.2c-.8.8-2,1.3-3.2,1.3s-2.4-.5-3.2-1.3-1.3-2-1.3-3.2.5-2.4,1.3-3.2,2-1.3,3.2-1.3,2.4.5,3.2,1.3,1.3,2,1.3,3.2-.5,2.4-1.3,3.2ZM7.6,5.7c-1.1,0-1.9.9-1.9,1.9s1.2,2.2,2.4,1.9c.7-.2,1.2-.7,1.3-1.3.3-1.3-.6-2.4-1.9-2.4h0l.1-.1ZM7.6,38.7c-2.1,0-4,.9-5.4,2.2-1.4,1.4-2.2,3.3-2.2,5.4s.9,4,2.2,5.4c1.4,1.4,3.3,2.2,5.4,2.2s4-.9,5.4-2.2c1.4-1.4,2.2-3.3,2.2-5.4s-.9-4-2.2-5.4-3.3-2.2-5.4-2.2ZM10.7,49.5c-.8.8-1.9,1.3-3.2,1.3s-2.4-.5-3.2-1.3-1.3-2-1.3-3.2.5-2.4,1.3-3.2,2-1.3,3.2-1.3,2.4.5,3.2,1.3,1.3,2,1.3,3.2-.5,2.4-1.3,3.2ZM7.6,0C5.5,0,3.6.9,2.2,2.2.8,3.6,0,5.5,0,7.6s.9,4,2.2,5.4c1.4,1.4,3.3,2.2,5.4,2.2s4-.9,5.4-2.2,2.2-3.3,2.2-5.4-.9-4-2.2-5.4C11.6.8,9.7,0,7.6,0ZM10.7,10.8c-.8.8-1.9,1.3-3.2,1.3s-2.4-.5-3.2-1.3c-.8-.8-1.3-2-1.3-3.2s.5-2.4,1.3-3.2,2-1.3,3.2-1.3,2.4.5,3.2,1.3,1.3,2,1.3,3.2-.5,2.4-1.3,3.2ZM25.4,13.4h25.3c3.2,0,5.8-2.6,5.8-5.8s-2.6-5.8-5.8-5.8h-25.3c-3.2,0-5.8,2.6-5.8,5.8s2.6,5.8,5.8,5.8ZM25.4,21.5h25.3c3.2,0,5.8,2.6,5.8,5.8h0c0,3.2-2.6,5.8-5.8,5.8h-25.3c-3.2,0-5.8-2.6-5.8-5.8h0c0-3.2,2.6-5.8,5.8-5.8ZM50.7,40.5h-25.3c-3.2,0-5.8,2.6-5.8,5.8s2.6,5.8,5.8,5.8h25.3c3.2,0,5.8-2.6,5.8-5.8s-2.6-5.8-5.8-5.8Z"/>
    </g>
  </g>
</svg>