<?xml version="1.0" encoding="UTF-8"?><svg xmlns="http://www.w3.org/2000/svg" id="Layer_2" data-name="Layer 2" viewBox="0 0 848.08 696.19">
  <g id="Layer_1-2" data-name="Layer 1">
    <g>
      <path d="M320.92,590.24c4.14,4.05,8.27,4.4,12.11.49l130.66-132.97c7.9-8.04,20.8-11.62,29.59-2.75l85.53,86.21,96.29,97.24.49-58.86,27.11,24.19.1,41.58c.07,28.58-21.65,50.88-50.45,50.83l-273.81-.46-331.5-.62c-28.28-2.83-48.85-26.53-46.92-54.84L0,54.6C0,27.42,19.95,1.06,48.91,1.01L650.35,0c28.48-.05,52.44,21.56,52.45,50.7l.08,405.48c0,.73-.35,2.31-.62,2.04l-1.24-1.27-25.53-24.81-.04-378.47c0-14.28-12.01-25.22-26.01-25.21l-181.96.16-414.67.11c-12.89.99-25.14,11.1-25.15,24.95l-.09,537.28,128.47-129.76c4.95-5,9.44-7.92,16.02-8.1,6.99-.19,11.72,2.98,16.97,8.12l131.88,129.03Z"/>
      <path d="M848.05,662.49c-.4,8.41-6.53,14.18-14.7,14.8-6.98.53-13.81-1.88-19.54-6.13l-60.37-44.7c-51.51-41.37-100-85.34-145.98-132.79l-51.51-55.84,47.32-47.04,70.38,61.53,41.33,41.85c38.31,38.79,73.38,79.79,106.99,122.68l19.05,25.17c4.43,5.86,7.4,12.56,7.02,20.47Z"/>
      <path d="M553.91,350.47l-39.89,39.65c-14.47,1.51-28.43-2.48-40.95-10.22-30-18.56-43.94-55.88-46.77-90.28l-1.48-17.95c-.33-4.02,2.99-8.09,6.21-9.27s8.38-.07,10.59,2.91c18.9,25.41,49.96,14.36,77.19,25.74,24.2,10.11,38.02,33.97,35.08,59.42Z"/>
      <path d="M197.71,164.2c-8.48,26.66-35.31,41.52-61.54,36.39-26.17-5.11-45.56-28.75-43.59-56.03,1.26-17.44,10.71-32.55,23.83-41.35,15.07-10.11,33.32-12.1,49.72-5.44,26.16,10.64,40.34,38.93,31.59,66.43Z"/>
      <polygon points="593.71 382.63 547.86 428.61 522.93 398.66 563.05 358.72 593.71 382.63"/>
      <path d="M540.99,154.16l-8.07-22.18c-1.53-4.19-5.73-8.29-9.88-9.92l-20.33-8,20.31-8.16c4.94-1.98,8.73-6.34,10.52-11.39l7.43-20.98,9.01,24.58c.91,2.48,4.34,6,6.86,7l22.49,8.96-21.5,8.73c-3.35,1.36-7.1,5.15-8.34,8.5l-8.49,22.87Z"/>
      <path d="M575.25,237.6c-3.29-5.56-3.34-13.57-8.58-18.24-4.39-3.92-11.23-4.93-16.56-7.55,5.89-2.81,12.82-3.49,17-7.79,4.61-4.73,5.2-12.18,8.15-18.02,2.71,6.01,3.78,12.73,7.44,17.41,4.06,5.19,11.8,5.24,17.11,8.52-5.52,2.7-12.04,3.97-16.2,7.68-4.72,4.21-5,11.53-8.36,17.99Z"/>
      <path d="M465,151.38c-4.53,4.55-4.94,11.56-7.94,17.47-3.05-5.59-3.33-13.18-8.18-17.68-4.39-4.07-11.12-5.02-16.41-7.66,5.82-3.03,12.37-3.66,16.35-7.74,4.56-4.67,5.45-11.55,8-18.17,2.42,5.65,3.69,11.89,6.94,16.8,3.73,5.66,11.59,5.67,17.7,9.09-5.3,2.78-12.24,3.67-16.45,7.89Z"/>
      <path d="M456.89,234.02c.29,6.29-3.14,10.49-8.82,10.45-12.18-.08-6.49-14.64-8.87-27.57-.79-4.26-2.28-7.43.59-10.77,2.21-2.57,6.11-4.24,9.78-3.13,2.94.89,6.12,4.65,6.29,8.39l1.04,22.62Z"/>
      <path d="M261.55,297.98c0,4.18-4.71,6.61-7.53,6.83-2.97.23-8.86-1.69-8.89-5.72l-.26-28.44c-.04-4.46,3.75-7.3,7.5-7.8s9.1,1.91,9.11,6.66l.07,28.47Z"/>
      <path d="M248,361.23c-2.04-2.99-3.09-8.13-3.11-11.65l-.11-18.16c-.03-5.53,4.51-9.06,9.23-8.7,11.89.92,5.64,14.22,8.41,28.87.86,4.55,1.09,8.38-2.36,11.1-3.27,2.58-8.89,3.18-12.06-1.46Z"/>
      <path d="M415.3,390.49l-19.72-.1c-5.06-.03-8.3-5.17-7.82-9.23.59-5.02,4.5-7.51,9.81-7.63l19.67-.44c5.12-.12,9.44-1.44,11.84,3.55,2.07,4.3.74,10.01-4.54,11.95-2.32.85-6.36,1.93-9.25,1.91Z"/>
      <path d="M292.05,195.39c-7.49-.45-13.62.45-19.48,4.08-3.78,2.34-8.45.08-10.66-2.84-2.86-3.78-1.35-8.57,2.25-11.49,7.72-6.27,16.71-7,26.42-6.77,5.64.13,10.41,1.69,10.99,7.72.44,4.63-3.23,9.68-9.52,9.31Z"/>
      <path d="M302.13,373.58c5.66.03,9.26,3.81,9.27,8.42.01,5.4-4.31,8.89-9.8,8.62l-23.86-1.18c-3.25-.16-6.58-3.24-7.45-5.48-1.32-3.44.03-7.78,1.8-9.62,3.43-2.6,7.08-2.86,10.83-.85l19.21.1Z"/>
      <path d="M411.99,195.26l-27.99-.21c-4.15-.03-6.69-6.09-6.36-8.98.48-4.22,4.09-7.67,8.9-7.65l24.04.1c4.78.02,8.28,3.23,8.77,7.72.37,3.36-2.38,9.05-7.36,9.02Z"/>
      <path d="M362.09,390.43h-25.5c-4.6,0-7.83-4.72-7.8-8.42.03-4.58,3.74-8.43,8.74-8.41l25,.07c4.68.01,7.82,4.35,7.86,8.32s-3.16,8.44-8.3,8.44Z"/>
      <path d="M351.97,195.38l-25.37-.03c-4.66,0-7.79-4.74-7.75-8.35.06-4.67,3.56-8.52,8.69-8.51l24.99.09c4.63.02,7.79,4.53,7.7,8.38s-3.09,8.43-8.26,8.42Z"/>
      <path d="M261.54,238.14c.01,4.13-4.64,6.67-7.73,6.94s-8.58-1.86-8.66-6l-.36-18.62c-.09-4.42,3.67-7.78,7.74-8.46,3.18-.53,8.94,2.2,8.95,6.42l.06,19.73Z"/>
    </g>
  </g>
</svg>