<?xml version="1.0" encoding="UTF-8"?><svg xmlns="http://www.w3.org/2000/svg" xmlns:xlink="http://www.w3.org/1999/xlink" id="Layer_2" data-name="Layer 2" viewBox="0 0 50.35 54.36">
  <defs>
    <style>
      .cls-1 {
        fill: url(#linear-gradient);
        fill-rule: evenodd;
      }
    </style>
    <linearGradient id="linear-gradient" x1="0" y1="27.18" x2="50.35" y2="27.18" gradientUnits="userSpaceOnUse">
      <stop offset="0" stop-color="#d08fd9"/>
      <stop offset="0" stop-color="#c386d6"/>
      <stop offset=".7" stop-color="#3726bd"/>
      <stop offset="1" stop-color="#0000b3"/>
    </linearGradient>
  </defs>
  <g id="Layer_2-2" data-name="Layer 2">
    <path class="cls-1" d="M33.47,11.95c1.42.84,2.7,1.89,3.8,3.13,1.08,1.21,1.94,2.6,2.56,4.1h0c.35.85.62,1.73.82,2.62.45,2.04.49,4.14.11,6.2-.21,1.11-.53,2.19-.96,3.23l-.05.11c-.89,2.21-2.47,4.35-3.98,6.47-.77,1.07-1.54,2.13-2.18,3.16-.41.65-1.15,1.02-1.92.96l-12.18,1.81c-1.04.15-2.03-.5-2.31-1.51-.3-.88-.68-1.74-1.12-2.57-.37-.71-.81-1.37-1.33-1.98-.63-.72-1.27-1.45-1.91-2.28-.71-.96-1.32-1.98-1.83-3.06h0c-.53-1.13-.95-2.32-1.24-3.54-.29-1.22-.43-2.47-.42-3.73h0c.01-1.3.19-2.6.52-3.86.35-1.35.86-2.66,1.51-3.9l.09-.16c.84-1.44,1.9-2.73,3.15-3.83,1.24-1.08,2.65-1.95,4.17-2.57l.13-.05c1.14-.45,2.33-.77,3.54-.94,1.28-.18,2.58-.21,3.87-.09,1.26.11,2.5.37,3.7.76,1.2.38,2.36.89,3.45,1.53ZM31.76,50.6c-.67,1.15-1.62,2.11-2.77,2.78-.97.57-2.06.9-3.18.97-1.13.07-2.25-.15-3.27-.64-.73-.36-1.39-.85-1.94-1.44l11.16-1.67ZM32.82,44.36v.98c.03.48.03.96,0,1.44l-.22,1.05-13.52,2.01-.23-.54-.53-2.16v-.63l14.47-2.16h.04ZM24.85,1.65c.03-.93.8-1.67,1.73-1.65h.12c.42.04.8.22,1.09.53.3.32.47.75.47,1.19h0s0,.06,0,.09l-.09,3.62h0s0,.08,0,.12c-.07.89-.82,1.57-1.71,1.56h-.12c-.41-.03-.8-.22-1.09-.52-.31-.32-.47-.75-.47-1.19h0s0-.06,0-.09l.09-3.64h-.02ZM6.2,8.01c-.33-.31-.52-.73-.54-1.18-.04-.94.68-1.73,1.62-1.77,0,0,.01,0,.02,0,.45-.02.89.14,1.22.44l2.72,2.54c.68.64.73,1.71.09,2.4-.31.33-.74.52-1.19.54-.45.02-.88-.14-1.21-.44l-2.72-2.52ZM1.77,26.69c-.94.03-1.74-.7-1.77-1.64,0,0,0,0,0,0-.02-.45.14-.89.44-1.22.31-.33.74-.52,1.19-.53l3.71-.12c.94-.04,1.73.68,1.77,1.62,0,0,0,.02,0,.02v.03h0v.06c0,.42-.16.82-.44,1.13-.32.33-.75.51-1.2.52h-.07l-3.66.12.04.02ZM48.5,21.43h.06c.42-.03.84.11,1.17.38.35.29.57.7.62,1.15h0v.05c.04.9-.63,1.68-1.52,1.77l-3.69.45c-.93.1-1.77-.58-1.86-1.51-.1-.93.58-1.77,1.52-1.86,1.23-.13,2.47-.27,3.7-.39v-.02ZM41.19,6.66c.51-.78,1.56-.99,2.34-.47,0,0,0,0,.01,0h0c.37.25.63.64.71,1.08.09.44,0,.9-.25,1.27l-2.07,3.1c-.53.78-1.59.98-2.36.45-.78-.53-.98-1.59-.45-2.36h0l2.07-3.1v.02ZM27.11,24.3h2.61c.38,0,.68.31.68.68h0c0,.14-.04.27-.12.38l-6.2,10.59c-.19.32-.61.43-.93.23,0,0,0,0,0,0-.25-.15-.38-.44-.32-.72l.92-6.5-3.1.05c-.37,0-.68-.29-.69-.66,0,0,0,0,0,0,0-.13.03-.25.09-.36l6.1-10.59c.19-.32.61-.43.93-.24.25.13.38.4.35.68l-.31,6.45h-.02Z"/>
  </g>
</svg>