<?xml version="1.0" encoding="UTF-8"?><svg xmlns="http://www.w3.org/2000/svg" xmlns:xlink="http://www.w3.org/1999/xlink" id="Layer_2" data-name="Layer 2" viewBox="0 0 57.66 47.56">
  <defs>
    <style>
      .cls-1 {
        fill: url(#linear-gradient);
      }
    </style>
    <linearGradient id="linear-gradient" x1="0" y1="23.78" x2="57.66" y2="23.78" gradientUnits="userSpaceOnUse">
      <stop offset="0" stop-color="#ff853f"/>
      <stop offset="1" stop-color="#7f3800"/>
    </linearGradient>
  </defs>
  <g id="Layer_2-2" data-name="Layer 2">
    <path class="cls-1" d="M56.08,7.32h-4.29V2.04c0-.77-.56-1.45-1.35-1.56-4.58-.67-9.44-.29-13.65,1.31-3.08,1.17-5.82,2.98-7.87,5.5-2.03-2.7-4.81-4.58-7.88-5.75C16.6-.15,11.54-.37,7.38.5c-.72.15-1.25.78-1.26,1.54l-.03,5.28H1.58c-.87,0-1.58.71-1.58,1.58v36.45c0,.87.71,1.58,1.57,1.58.18,0,.35-.03.51-.08,4.42-1.26,8.79-2.1,13.13-2.13,4.23-.03,8.47.71,12.71,2.59.27.17.58.27.9.26.32,0,.64-.09.9-.26,4.25-1.87,8.47-2.62,12.71-2.59,4.34.03,8.72.87,13.13,2.13.16.06.33.08.51.08.87,0,1.58-.71,1.58-1.58V8.9c0-.87-.71-1.58-1.58-1.58ZM38.53,21.35l.04.04c.17,0,.33.04.5.17.12.12.25.29.25.46,0,.42-.25.71-.62.75l-1.54.17c-.37,0-.75-.25-.79-.62,0-.37.25-.75.62-.79.5-.04,1.04-.12,1.54-.17ZM34.58,16.52l.87-1.29h.08c.21-.33.67-.42.96-.21.17.08.25.25.29.46,0,.17,0,.37-.12.54l-.87,1.29c-.21.33-.67.42-1,.21s-.42-.67-.21-1ZM28.71,13.14c0-.37.33-.71.71-.71h.04c.17,0,.33.08.46.21.12.12.21.29.21.5v1.54c0,.37-.33.67-.71.67h-.04c-.17,0-.33-.08-.46-.21-.12-.12-.21-.33-.21-.5v-1.5ZM26.21,16.89h.04c.46-.21.96-.33,1.46-.42.54-.08,1.08-.08,1.62,0,.54.04,1.04.17,1.54.33s1,.37,1.46.62h-.04c.58.33,1.12.79,1.58,1.29.46.5.79,1.08,1.08,1.71.12.37.25.71.33,1.08.21.83.21,1.71.04,2.58-.08.46-.21.92-.42,1.33-.37.96-1.04,1.87-1.67,2.75-.33.46-.62.87-.92,1.33-.17.29-.46.42-.79.42l-5.08.75c-.42.08-.83-.21-.96-.62-.12-.37-.29-.71-.46-1.08-.17-.29-.33-.58-.54-.83-.25-.29-.54-.62-.79-.96-.29-.42-.54-.83-.75-1.29-.21-.46-.37-.96-.5-1.46-.12-.5-.17-1.04-.17-1.54,0-.54.08-1.08.21-1.62.17-.58.37-1.12.62-1.62v-.08c.37-.58.83-1.12,1.33-1.58.5-.46,1.08-.83,1.75-1.08ZM21.42,14.52c.17,0,.37.04.5.17l1.12,1.04c.29.25.29.71,0,1-.12.12-.29.21-.5.21-.17,0-.37-.04-.5-.17l-1.09-1.01s0,0,0,0l-.04-.04.04.03c-.12-.12-.2-.29-.2-.49,0-.37.29-.71.67-.75ZM18.5,22.39c.12-.12.29-.21.5-.21h1.54c.37-.08.71.25.75.62,0,.21-.08.37-.17.5-.12.12-.29.21-.5.21h-1.54v.04c-.37,0-.71-.29-.75-.67,0-.17.04-.37.17-.5ZM15.22,41.56c-4.04.03-8.05.69-12.05,1.72V10.49h2.91l-.15,25.77c0,.09,0,.18,0,.27.08.87.84,1.52,1.71,1.45,3.86-.33,7.62.05,11.1,1.18,2.76.9,5.35,2.29,7.68,4.17-3.74-1.27-7.47-1.79-11.2-1.76ZM31.58,33.55h-.04c-.29.48-.65.84-1.13,1.12-.42.25-.87.37-1.33.42-.46,0-.96-.04-1.37-.25-.29-.17-.58-.33-.79-.58l4.63-.7s.03-.03.04-.05v.04ZM26.33,33.22l-.08-.21-.21-.92v-.25l6-.91h0s.04,0,.04,0h-.04v1l-.08.46-5.62.83ZM54.5,43.27c-4-1.03-8.01-1.69-12.05-1.72-3.49-.02-6.98.43-10.48,1.53,2.55-1.72,5.14-3.13,7.78-4.07,3.28-1.17,6.63-1.62,10.09-1.07.12.03.24.04.37.04.87,0,1.58-.71,1.58-1.58V10.49h2.71v32.79Z"/>
  </g>
</svg>