<?xml version="1.0" encoding="UTF-8"?>
<svg id="Layer_2" data-name="Layer 2" xmlns="http://www.w3.org/2000/svg" viewBox="0 0 54.5 189.71">
  <g id="People">
    <path d="M53.82,56.34v-.49s-3.38-10.91-3.94-12.18c0,0,.21-1.55-.35-3.1-.56-1.55-.56-1.97-1.13-2.53s-1.97-3.31-2.82-4.22c-.84-.91-7.39-5.21-8.73-5.98,0,0-1.2-.49-2.11-.28,0,0-3.73-1.62-4.86-3.1-1.13-1.48-1.62-3.52-1.48-3.8.14-.28,1.06-2.46,1.13-3.24.07-.77-.42-5.91-.35-6.33.07-.42-.91-3.1-1.06-4.29-.14-1.2-4.43-4.43-4.72-5.07-.28-.63-5.14-3.45-9.92-.14,0,0-3.94.77-5.35,3.38-1.41,2.6-2.74,3.8-3.38,4.15-.63.35-1.25-.01-1.48-.35,0,0,.56,1.97,2.18.84,0,0,.35,1.2-.07,1.34s.37-.02.77-.28c.41-.27.17.78.17,1.83s.18,2.53.04,3.59c-.14,1.06.42,1.55.35,2.18-.07.63-1.48,3.45-1.76,3.94-.28.49.28.92.84.99.56.07.84-.14,1.2,0,.35.14.49.56.63.99.14.42.77.42,1.2.49.42.07-.28.7-.28,1.13s.49.56.56,1.34c.07.77-.28,1.34.56,1.76.84.42,2.96-.28,3.94-.42.99-.14,2.25-.63,2.67-.21.42.42.56.91,1.13,1.41.56.49,1.69.7,2.11,1.27.42.56,1.13,2.39,1.27,2.89,0,0-1.97,2.81-4.15,6.83s-2.89,7.74-2.67,9.01c.21,1.27.49,2.96.56,4.22s.63,3.66.84,5.49c.21,1.83.56,5.49.07,9.22,0,0-2.25.7-3.59-.14-1.34-.84-2.18-1.06-2.46-1.27-.28-.21-.56-1.97-1.48-2.46-.92-.49-1.76-1.2-2.25-1.13-.49.07-1.62,0-2.11-.42-.49-.42-1.76.91-.63,2.04,0,0-.91.7-2.11,1.13,0,0-1.2.99-.7,2.11.49,1.13.42.99.35,1.62-.07.63.35,1.06,1.27,1.41,0,0,.07.35.7.91.63.56.77.21,1.34,1.06.56.84,1.83.91,2.6.7.77-.21,2.39-1.55,2.74-1.41.35.14,2.6,1.41,3.24,2.11,0,0-.91.56-1.41.63-.49.07-1.48.28-1.83.42s-1.97.07-2.32.21c-.35.14-.56,1.83,1.41,1.83s3.03-.7,3.66-.77c.63-.07.84.28.56.49-.28.21-2.04,1.55-3.1,2.18-1.06.63-3.31,1.83-4.15,2.11,0,0-.92,1.2.7,1.34,1.62.14,2.04-.42,2.25-.35s.42.77.99,1.06c.56.28,1.27-.07,1.55-.07s.07.63,1.2.77c1.13.14,1.69.21,2.32.56.63.35,1.27.35,1.27.35,0,0-.14,1.69-.21,2.6-.07.91-.84,2.82-.84,4.08s-.77,2.75-.84,3.52-.14,1.48.07,1.41c.21-.07-.07.99-.49,1.41-.42.42-.49,1.76-.84,2.74s-1.27,3.94-1.34,5c-.07,1.06-1.41,8.16-1.55,9.71-.14,1.55-.63,7.74-.91,9.22s-1.27,6.55-1.41,7.46c-.14.91-.14,1.97.28,3.03.42,1.06,1.69,3.1,2.25,4.43.56,1.34,1.62,7.25,2.18,9.29.56,2.04,3.87,11.19,5.07,13.94,1.2,2.74,1.9,5.98,1.97,6.55l-.28.49s.49,2.53.7,3.31c0,0-1.41.63-1.62,1.76,0,0-2.46,3.45-2.67,4.72,0,0-.35.77-.92,1.06-.56.28-2.53.99-2.67,1.69,0,0-3.24.56-4.36.56,0,0-1.34.21-1.55,2.11,0,0-.49,2.32,1.13,3.24,0,0,.63,1.06,7.67.56,7.04-.49,7.95-.7,7.95-.7l.35.35,3.94-.49s.35.77.7.84c.35.07,15.69.14,18.51.21,2.82.07,1.27-2.46,1.27-2.46,0,0-.84-5.7-1.34-6.9s-.99-1.13-.99-1.13c0,0-.7-2.67.56-5.7l-.28-.77s2.6-10.7,3.1-15.2c.49-4.5.77-11.54-.63-14.99-1.41-3.45-2.25-7.74-2.11-8.38,0,0,.07-4.08.35-7.53.28-3.45,2.25-18.23,2.11-19.28-.14-1.06.63-2.25.7-2.81.07-.56.91-8.52.91-9.57,0,0,1.69.35,2.11-.21.42-.56.28-2.6.07-5.28s-1.2-15.55-.7-16.89c0,0,2.53-.63,3.31-1.9.77-1.27,0-12.39-.35-14.36ZM38.09,172.1l-.56.19v1.49s-.56.19-.84.37.19.84.19.84c0,0-.74.37-1.02.37s-.74,2.79-1.12,2.98c-.37.19-1.12,1.58-1.58,1.95s-.47,1.4-1.12.84c-.65-.56-1.12-2.61-1.58-3.16-.47-.56-.93-1.49-1.12-1.12s-.56.74-.84.19-1.4-7.54-1.4-7.54l-.47-.09c-1.58-6.89-.84-12.01-.74-14.43.09-2.42-2.23-11.54-3.82-13.87-1.58-2.33-1.49-4.93-1.49-4.93,0,0,1.77.28,2.14-.19.34-.42,4.43-11.65,5.18-13.72.08-.21.12-.33.12-.33,1.49,3.44,3.07,12.75,3.07,12.75h.37c-.09.65,2.14,4.65,3.16,5.68,1.02,1.02,1.68,2.61,1.86,5.4s.09,11.63.93,15.91c.84,4.28.65,10.42.65,10.42Z"/>
  </g>
</svg>