<?xml version="1.0" encoding="UTF-8"?>
<svg id="Layer_2" data-name="Layer 2" xmlns="http://www.w3.org/2000/svg" viewBox="0 0 51.5 192.57">
  <g id="People">
    <path d="M4.38,25.68c-.41-.29-.36-1.28-.18-2.21.18-.92.48-2.09.36-2.33-.12-.24-.81-.3-1.16-.63s-.36-1.55-.6-2.21c-.24-.66-.86-3.04-1.07-3.19-.21-.15-.69-.92-.92-1.49-.24-.57-.3-.51-.45-.89-.15-.39.03-.51-.12-.84-.15-.33-.33-.75-.18-.95,0,0-.03.51.18.36.21-.15.24-.27.24-.45s-.36-.54-.18-.81c0,0,.21.81.51.36.3-.45.57-.66.78-1.61s.6-1.4.78-1.76c.18-.36.66-.54.69-1.37,0,0-.06.86.24.57.3-.3.75-1.28,1.28-1.82.54-.54.72-.92,1.31-1.25s.95-.81,1.4-1.25c.45-.45.95-.63,1.16-.72,0,0-.03.21.24.09.27-.12.12-.18.69-.42s1.22-.45,1.46-.45.75-.12.92-.15c.18-.03.57-.3.86-.27s1.19.21,1.52.24.63-.03.89.21c.27.24.51.36.81.51.3.15,3.1,1.97,3.4,2.24.3.27,3.85,4.03,4.23,4.47.39.45.27,1.1.48,1.61.21.51.21.57.51,1.07.3.51.39.33.45.95s.03,1.1.06,1.46c.03.36.27.89.39,1.22.12.33.39,1.37.45,1.79s.51,1.19.54,1.58-.21.45-.12.72c.09.27,2.68,3.25,3.28,3.58s2.03,1.37,2.8,1.13c.78-.24,1.88-.6,2.24-.51.36.09,4.38.98,5.19,1.19,0,0,6.23,1.91,7.52,5.25,1.04,1.73,1.79,2.56,2.18,3.61,0,0,.57,1.82.81,3.34.24,1.52.42,1.85.57,2.89.15,1.04.21,2.21.21,3.19s.27,3.46.42,5.31c.15,1.85.09,5.37-.03,7.25-.12,1.88-.18,4.95-.12,7.55.06,2.59.12,8.86.09,10.68-.03,1.82-.33,9.07-.3,10.92.03,1.85.24,3.04.09,4-.15.95-.36,2.33-.33,2.71,0,0-.27,1.19-.83,3.55-.57,2.36-1.91,6.53-2.18,7.66-.27,1.13-1.07,4.83-1.16,5.85-.09,1.01-1.52,6.8-2.27,10.29-.75,3.49-1.85,8.83-2.06,10.38-.21,1.55-1.13,6.08-1.13,7.22,0,0-.15,2.62.66,4.77s3.13,8.5,3.04,12.97c-.09,4.47-.81,8.05-.63,11.81.18,3.76.09,7.52.18,9.04.09,1.52.27,5.37.72,6.17.45.81.54,1.43.54,1.43h.72s.81.36.81,3.49.54,5.64.63,6.35c.09.72-.63,1.43-.63,1.43l-27.38-.27s-5.01-.54-5.91-2.77c-.89-2.24,1.34-3.31,2.51-3.31s5.55-.27,6.26-.81c.72-.54,3.31-1.43,3.58-1.7s-1.25-.98.18-1.79c1.43-.81,3.13-1.07,3.22-1.88.09-.81-.18-3.31.36-3.13s.54.63,1.07.89c.54.27.63.63,1.16.45.54-.18,1.43-.72,1.61-.98.18-.27.54-.18.54-.81s-.18-2.42.09-2.77l.27-.36s-.89-9.57-2.15-13.33c-1.25-3.76-2.95-15.93-4.56-18.16-1.61-2.24-4.56-5.55-5.73-7.07l-.54.18s-1.16-6.53-1.61-8.5c-.45-1.97-3.49-15.39-3.85-18.07s-1.79-7.25-1.79-8.68,0-3.22-.09-3.94c-.09-.72-.54-1.88-.72-2.33-.18-.45-.89-1.7-.45-1.97.45-.27,2.15-1.79,2.33-2.33.18-.54-.45-2.15.09-2.68.54-.54.36-.72.63-1.43.27-.72,1.34-13.51,1.7-15.84.36-2.33.54-5.82.54-7.52s-.36-5.1-.36-6.26.27-7.69.72-9.84c.45-2.15,1.25-10.47,2.06-11.27.81-.81.72-1.52.72-1.52,0,0-1.79-2.33-2.51-2.68,0,0-2.02-.99-2.65-1.26,0,0-3.52,1.53-4.73,1.68-1.21.15-1.93-.36-2.23-1.31-.3-.95,0-1.08-.7-1.17-.7-.08-.7-.21-.74-.57s-.06-.59-.06-.59c0,0-.72-.11-.85-.21-.13-.11.04-.91-.34-.98s-1.67.61-2.52,0Z"/>
  </g>
</svg>