<?xml version="1.0" encoding="UTF-8"?>
<svg id="Layer_2" data-name="Layer 2" xmlns="http://www.w3.org/2000/svg" viewBox="0 0 54.28 196.64">
  <g id="People">
    <path d="M54.13,41.77c-.27-.04-5.86,7.07-5.86,7.07l-4.16,6.76s-.89.54-1.16.76c0,0-.49-.4-.63-.36-.13.04-.54,1.07-.54,1.07,0,0-1.88,1.34-2.24,1.83,0,0-1.21.49-1.52.76-.31.27-3.49,3.76-3.58,3.89s-.63.09-.63.09c0,0-.67-5.32-.67-6.22s.72-2.59-.27-4.74c-.98-2.15-3-3.8-3.94-5.14-.94-1.34-4.07-6.58-4.47-7.65-.4-1.07-.76-3.18-1.43-4.07s-1.66-2.06-2.15-2.59-1.52-.89-1.43-1.21c.09-.31.81-2.68,1.12-2.91.31-.22,1.57-.36,1.92-.81,0,0,.22.31,1.21,0,.98-.31,1.66-.63,1.74-1.57s-.27-1.74.13-2.24c.4-.49.27-.81.22-1.03-.04-.22-.27-.54.09-.89s.4-.85.45-1.03c0,0-.08-.2.1-.26.18-.06.57-.05.85-.19s.65-.43.66-.87-.26-.99-.43-1.38-.23-1.59-.47-2.08-.45-1.12-.49-1.43-.04-.57-.03-.74c.01-.17.08-.25.08-.25,0,0,.65.01.76-.3,0,0-.46.3-.65.01s-.03-.27.09-.5.08-.93-.06-1.23c-.14-.3-.65-.69-.74-1.85-.09-1.16-.36-2.74-.59-3.22-.23-.48-.16-2.34-.97-3.15-.81-.81-7.02-4.69-11.2-4.04,0,0-3.82.94-5.31,2.37-.26.25-1.07.89-1.16,1.16,0,0-.22.09-.45.23-.23.14-1.65.14-3.07,2.21-1.42,2.07-1.11,5.25-.91,6.23.19.98.54,1.82.65,1.89.11.07-.07.56.65,1.89.72,1.33,1.3,2.02,1.86,2.02s-.04.46.07.67c.11.21.09.77.4,1.02.32.25.82,1.46,1.07,2.47.25,1.02.9,1.74,1.16,1.82s.47.21.47.21c0,0,.35,1.26.26,2.07s-.02,2-.47,2.12c-.46.12-.97.09-1.18.37-.21.28-.58.68-.75,1.21-.18.53-.37,1.44-.51,1.7s-.46.37-.6.54-.6,2.12-.89,2.82c0,0-2.1,4-3.22,7.85S-.14,50.67.04,55.32c.18,4.65,1.25,30.6,1.3,33.15,0,0-.27,10.96-.27,11.59,0,0,.45.4.72.58,0,0,.04,1.43.4,1.7.36.27,1.61.85,2.46,1.3.85.45,2.33.45,2.46.45s-.13,1.43.31,3.62,3.04,11.18,3.36,12.17c.31.98,1.57,8.63,1.79,9.57.22.94.49,2.86.49,3.18s-.22,1.34-.27,1.88c-.04.54-1.48,5.37-1.88,9.53,0,0-2.42,4.83-3.4,9.62-.98,4.79.27,16.87.27,21.47s-.04,10.2-.89,12.53c-.85,2.33-1.57,5.37-.76,6.49l.81,1.12s-.22.85.22.98c.45.13,22.59.4,26.21.4,0,0,1.39.04,2.28-.31l13.47.31s.04-.89-.09-.89-.81-.18-.81-.18c0,0,.58-.94.31-1.34s-.31-.45-1.34-.45-2.82-1.16-3.13-1.61c0,0,.31-.67-.89-.67,0,0-2.86-2.1-3.94-3.13-1.07-1.03-2.46-3.31-3.04-4.7-.58-1.39-2.01-9.26-1.88-13.06s1.83-8.28,1.88-11.68c.04-3.4-.27-9.98.85-11.5s1.79-3.98,1.74-5.73c-.04-1.74-.98-7.29-1.16-8.5,0,0-.27-2.42-.09-3.94.18-1.52.94-17.22,1.21-20.4s1.34-16.46-2.59-27.02l-1.39-3.62s.45-1.61-.09-2.46c-.54-.85-.72-1.12-.81-1.3-.09-.18-.58-.31-.4-.63.18-.31.49-1.16.58-1.66.09-.49.04-1.21.18-1.12.13.09.67.31,1.12.22.45-.09,1.07-1.39,1.3-1.61.22-.22,1.39-.63,1.39-.63,0,0,.98-.04,1.88-.27.89-.22.81-.45.98-.45h.98s.49-.58.67-.63c.18-.04.22-.13.45-.22s.22-.58.36-.54c.13.04,1.66-1.3,2.19-1.3s.81-.36.94-.54c.13-.18,1.16-1.07,1.21-1.74.04-.67-.13-1.39.04-1.92.18-.54.13-.49-.04-.67s-.72-.36-.72-.58.09-1.25.18-1.48.72-1.03.89-1.25.31-1.07-1.07-1.66l7.25-12.79s.18-1.21-.09-1.25ZM27.59,185.02c-.12,1.19-.89,4-1.07,4.71-.18.72.06,2.09.06,2.09,0,0-.54-.3-4.41-2.09-3.88-1.79-4.29-2.68-5.55-6.98-1.25-4.29,1.61-18.79,2.39-21.41.78-2.62.89-7.22,1.25-9.54.36-2.33,2.27-5.49,3.4-7.63,1.13-2.15,1.25-5.43,1.25-5.43.54-.36.66-1.49.66-1.49,0,0,.83,1.91,1.13,4.47.3,2.56-1.67,7.16-2.86,9.9s-.84,7.22-.48,10.08c.36,2.86,1.91,13.12,2.86,15.39.95,2.27,1.49,6.74,1.37,7.93Z"/>
  </g>
</svg>