<?xml version="1.0" encoding="UTF-8"?>
<svg id="Layer_2" data-name="Layer 2" xmlns="http://www.w3.org/2000/svg" viewBox="0 0 98.54 368.52">
  <g id="People">
    <path d="M93.26,128.27c2.35-4.04,5.49-21.99,5.26-31.74-.22-9.76-3.68-21.07-4.24-22.3-.56-1.23-3.69-6.91-6.27-8.14s-5.32-2.88-8.8-4.11-6.13-1.32-7.39-1.78c-.92-.34-1.39-.34-1.67-.14-5.34-1.9-8.38-2.58-10.1-4.18-.9-.92-3.07-3.39-2.96-4.65.95-1.72,5.12-7.59,5.71-10.68,1.12-.97,1.82-1.36,2.33-1.75-.42,3.65-1.97,7.36-.34,10.81-.21.67-.46,1.28-.79,1.79-1.16,1.8-1.36,2.4-1.32,2.58-.06.23-.1.46-.09.7,0,0,0,0,0,0,0,.03,0,.05,0,.07.02.22.08.45.18.67.15.13.32.25.48.37.04-.06.06-.15,0-.22-.18-.24-.28-.48-.32-.71.05,0,.09-.03.12-.09.02-.07.05-.13.07-.2.11.1.28.12.36-.05,1.29-2.48,4.33-3.03,6.27-4.84-.8.95-1.72,1.81-2.73,2.53-.12.08.03.25.15.17,2.63-1.9,4.54-4.58,5.49-7.68.86-2.82.85-6.35-.37-9.13-.14-3.85-1.19-6.35-1.8-7.37-.89-1.48.09-1.69-2.11-12.88-.02-.08-.04-.15-.06-.23-.19-1.01-.45-2-.79-2.97-1.14-5.69-5.84-10.11-11.68-10.82-.25-.06-.51-.12-.76-.17-3.15-1.08-6.19-1.45-8.15-.83-8.53,2.49-9.94,5.23-12.04,7.73-2.1,2.49-3.92,8.13-5.63,11.01-1.29,2.18-1.68,3.92-2.13,6.22-1.63,3.33-3.95,6.55-3.33,10.31-.02.42,0,.85.09,1.3.07.35.19.73.32,1.14,0,.01,0,.03,0,.04.01.03.03.07.04.1.1.27.21.56.33.85,2.05,5.03,5.12,9.58,9.3,13.07.02.02-.03-.08,0-.08,0-.03,0-.08,0-.13.07,2.54.12,4.17.12,4.17-.24,2.13.34,2.45-1.15,4.03-.55.59-1.31,1.18-2.04,1.69-.23-.28-.48-.45-.96-.56-.73-.17-4.84.59-8.42,1.65-3.59,1.07-7.14,1.95-9.8,4.03-4.21,3.28-4.27,5.74-6.4,10.45-2.13,4.71-3.7,16.09-4.71,24.17-1.01,8.07-.34,16.82,0,19.85.34,3.03,1.28,8.06,3.03,9.42,1.64,1.27,3.57,2.42,5.35,3.5-.35.37-.85,1.96-1.15,2.5-.34.62-.73,1.63,0,1.96.73.34,1.51.06,2.07-.39,0,0-.62,1.29-.9,1.88s-.39,1.54.67,1.6c1.07.06,2.3-.9,2.75-1.6.45-.7.78-1.82,1.23-1.71.45.11.67.28.9.9,0,2.69-2.04,8.36-1.92,12.06.11,3.7-3.06,13.99-3.06,19.26.15.2.37.39.63.56-.22,1.14-.65,3.4-1.04,6.01-.57,3.77-.27,8.92-.33,11.03-.06,2.11.51,7.35,1.13,10.66.63,3.31,2.9,15.26,3.41,19.48.51,4.23,1.67,23.74,2.05,29.17.38,5.42,2.55,17.25,2.56,20,0,2.76,1.23,18.61,1.11,22.67-.41,13.6.6,28.47.97,34.53.33,5.59-1.25,21.22-1.51,23.45-.02.16.09.3.25.32.56.06,1.88.2,3.55.26-1.56,3.72-3.35,6.99-3.74,10.12-.64,5.24-5.42,9.56,7.72,9.56s11.21-4.23,11.12-5.05c-.09-.83,1.1-.28,2.39-4.14.14-1.16-.24-6.1-.55-10.44,1.57-.19,2.89-.47,2.89-.47,0,0,.44-12.56,1.02-18.56.55-5.63,2.19-17.93,2.48-27.51.35-11.7-.15-25.18-.14-28.49,0-3.31-.19-5.88.37-9.28.55-3.4,1.07-8.64,1.62-14.71.54-6.07.45-14.98.89-17.65.44-2.67.77-4.5.62-5.7-.15-1.19-.03-2.11.27-3.12.3-1.01.28-3.4.28-3.4,0,0,1.37,5.12,1.76,7.05.4,1.93.71,4.27,1.39,5.91.41,1.01.75,2.21,1.08,6.25.33,4.04,2.55,17.83,3.59,25.73,1.03,7.9,3.11,35.57,3.25,40.07.14,4.5,1.27,12.81,1.04,17.5-.23,4.69.53,11.22.66,16.17.06,2.3.05,7.41.36,8.88,0,0,.71.41,2.3.65l.47,10.93s1.84.28,1.56,2.57c-.28,2.3-3.89,6.07,10.81,6.07s8.3-3.49,7.38-8.64c-.72-4.04-2.8-9.77-3.66-12.04,2.55-.29,4.39-1.01,4.39-1.01,0,0-.25-6.34-.67-10.29-.43-3.95-.15-13.14.3-16.36.46-3.22.44-20.77.81-27.02.37-6.25,1.23-17.8.91-22.12-.32-4.32-.13-12.53-.25-8.21-.04,1.59-.2-1.71-.28-7.11-.02-1.56-.18-5.3-.14-9.62.04-4.32-.02-8.36.28-12.32.3-3.95,2.66-22.66,3.02-28.45.35-5.79.67-10.15.45-11.99s.38-3.49.51-4.96c.13-1.47.16-2.48-.25-3.68-.42-1.19-.91-3.03-.97-3.95-.06-.92.43-2.39-.06-4.14-.49-1.75.32-1.65-.35-3.49-.29-.79-.51-1.49-.73-2.09.34-.1.34-.16.34-.48,0-.78.69-4.95.24-6.75-.45-1.79-1.25-5.9-1.47-10.5-.16-3.36-1.02-8.43-1.56-12.41l-.42-3.82c2.02-1.12,5.27-4.04,7.62-8.07ZM26.66,27.69c-.52,2.45-1.86,4.31-2.5,6.21.12-2.57,1.51-4.94,2.73-7.33-.07.36-.15.73-.23,1.12ZM31.63,34c-.04-.55-.01-1.13.07-1.72-.03.61-.05,1.18-.07,1.72ZM65.34,38.6s.01-.01.02-.02c.16,3.16.36,7.31-.39,10.37-1.32-3.25.06-6.86.37-10.35ZM64.9,52.26c.18-.25.36-.51.51-.77.46-.1.9-.23,1.31-.41.02.02.04.04.06.05-.65.36-1.3.72-1.89,1.14ZM71.48,46.06c.37-1.06.56-2.2.48-3.32.01-.43.03-.87.05-1.3.05-.03.07-.1.03-.15,0-.02,0-.04-.02-.06.08-1.51.23-3.02.4-4.53.24.85.45,1.71.54,2.62.19,1.78-.02,3.6-.51,5.32-.38,1.33-.97,2.58-1.73,3.73.32-.63.53-1.32.68-2,.02-.1.04-.21.06-.31ZM70.92,45.52c.16-.68.22-1.38.21-2.08.05-.11.1-.22.15-.34.04.46.04.92,0,1.37-.04.33-.09.65-.14.97-.1.45-.23.89-.41,1.31.11-.33.21-.67.28-1.03.02-.09-.02-.16-.08-.21ZM70.7,44.33c-.04.62-.13,1.24-.27,1.88-.51,1.89-1.74,3.42-3.4,4.32,1.57-1.34,2.6-3.12,3.05-5.1.22-.36.43-.73.62-1.09ZM69.61,46.18c-.7,1.92-2.03,3.61-3.74,4.74-.06.04-.08.09-.08.14-.03.01-.07.02-.1.03,1.26-1.36,2.72-3.08,3.92-4.91ZM65.81,8.58c-.53-.82-1.15-1.61-1.86-2.33-1.69-1.81-3.53-3.11-5.39-3.97,3.13,1.14,5.71,3.41,7.25,6.3ZM30.72,32.69c.05-.07.02-.15.07-.23-.04.11.05.23.01.35-.26.79-.48,1.59-.68,2.38-.09,0-.28-.02-.28-.02.35-.83.53-1.65.87-2.48ZM30.11,35.24c-.19.76-.38,1.53-.59,2.29.03-.85-1.12-1.49.59-2.29ZM31.86,41.04c-.87,1.69-1,3.02-.97,3.44.02.24-.65-.79-1.18-2.17-.31-1.39-.36-2.79-.26-4.24.45-1.59.89-3.18,1.26-4.78.03.34.14.62.29.84.17.24.4.39.61.47-.18,6.47.36,7.55,2.13,10.8,0,0,0,0,0,0,0,0,0,0,0,0-1.02-1.68-1.58-3.07-1.88-4.36ZM32.67,50.25c.69.34.99.35,1.2.51-.04-.52-.04-1.22-.05-2.14.02.98.05,1.9.07,2.73-.48-.41-.75-.67-1.21-1.1Z"/>
  </g>
</svg>