<?xml version="1.0" encoding="UTF-8"?>
<svg id="Layer_2" data-name="Layer 2" xmlns="http://www.w3.org/2000/svg" viewBox="0 0 42.79 160.74">
  <g id="People">
    <path d="M42.74,57.45c-.18-1.03.13-7.11-.04-8.54-.18-1.43-.98-9.8-1.03-10.65s.76-2.51.45-4.74c-.31-2.24-1.43-5.99-1.83-7.38s-1.74-5.82-1.97-7.29c-.22-1.48-1.92-5.59-2.73-8.77-.81-3.18-2.51-7.83-5.37-8.95C27.35,0,27.17.18,26.72.23c-.45.04-.67-.18-.94-.13-.27.04-.63.13-.63.13,0,0-.31-.36-.81-.18s-1.21.27-1.34.27-.72.13-.94.13-1.88.49-2.15.54c-.27.04-2.68.85-2.86,1.16-.18.31.11.78.39.82,0,0-2.54,2.72-2.97,5.88,0,0,.56,1.73-.19,2.54s-2.04,1.49-1.8,2.23c.25.74.99.8,1.11,1.05,0,0,.07.63-.23,1.14-.3.52.14.71.47.83.33.13.58.33.43.35-.15.03-.92.16-.58.72.34.55.68.59.59,1.02-.09.43-.53,1.27-.09,1.87.44.59.55,1,2.72.93,0,0-.48,1.32-.48,2.72s.29,2.58.61,3.06c0,0-1.42,1.59-2.29,2.04-.87.45-2.32,1.25-2.87,2.76-.55,1.51-.96,2.86-1.19,4.01,0,0-1.15,2.7-1.73,3.28l.31.36s-.94,1.61-1.16,1.88l.67-.58s-.81,2.24-1.25,3c0,0,.94-.85,1.16-1.16.22-.31-.49,1.57.63,4.25,1.12,2.68,1.21,3.8.89,5.01-.31,1.21-1.3,4.79-2.37,6.44-1.07,1.66-1.66,5.41-2.42,9.3-.76,3.89-2.01,6.26-2.59,7.92-.58,1.66-.4,2.86-.67,3.58s-1.21,2.46-2.06,4.12c-.27.81.04,2.28.18,3.09,0,0-.04,1.39.54,1.79.58.4,2.73,1.03,3.22,1.07.49.04.85-.36,1.43-.67.58-.31.89-.54,1.07-.63.18-.09.27-.72.27-.94s-1.57.4-1.7.45-.13-.89-.22-1.52c-.09-.63-.49-1.25-.4-1.92.09-.67,1.07-2.15,1.21-2.95.13-.81.04-2.68.31-3.44.27-.76,1.25-2.95,1.83-3.71s1.25-1.92,1.52-2.37c.27-.45.54-1.03.54-.76s-.31.54-.49,1.07c-.18.54-.27.45.04.67.31.22.31.49.04.81-.27.31-.27.89.22,1.48,0,0-.49.54-.31,1.03.18.49.13.63-.04.94-.18.31-.36.63-.22.94.13.31.09.31-.04.76-.13.45-.09,1.34-.36,1.74s-.54.4-.4.85c.13.45.27.4-.04.81-.31.4-.36.54-.4,1.07-.04.54-.18.81-.27,1.3s-.13.49-.22.94c-.09.45-.04.45-.22.94-.18.49-1.07,3.67-1.34,5.99,0,0-.81,9.44-.72,14.49.09,5.06.04,9.75.58,11.09.54,1.34,1.25,2.15,1.34,2.95.09.81-.18,1.52,0,2.42.18.89-.04,1.34.4,1.92.45.58,1.16,2.28,1.21,3,.04.72.36,1.16.58,1.7.22.54.18,1.03.36,1.57.18.54.22.67.58,1.48.36.81,1.3,2.59,1.39,3.49s-.04,2.15,0,2.82c.04.67-.09,2.06.49,2.77.58.72,1.74,1.83,1.61,2.91-.13,1.07-.22,1.88,0,2.42.22.54.89.94,1.21,1.52.31.58.45,1.03.04,1.25-.4.22-.89.09-.67,1.25.22,1.16.31,1.57.31,1.83s-.81,1.48-1.57,1.97-2.28,1.34-2.59,1.61c-.31.27-2.01,1.12-2.59,1.16-.58.04-1.21-.04-1.25.54-.04.58,0,1.07,0,1.07,0,0-1.52.18-1.57.36-.04.18.54.31,1.25.45.72.13,2.77.27,13.64.36,0,0,5.23-.18,5.95-.22.72-.04,1.21.13,1.3,0,.09-.13.13-1.07.27-1.16.13-.09,1.07-.81.89-1.97s-.45-2.64-.49-3.18-.04-.58.13-.72c.18-.13.63-.04.72-.36.09-.31.76-.27.94-.31.18-.04,1.07-.98.89-2.55,0,0,.09-.4-.13-.58-.22-.18-.36-.13-.27-.49.09-.36,1.61-7.34,1.97-8.72.36-1.39,1.3-6.98,1.66-8.05.36-1.07.89-7.07.67-9.08s.13-5.28-.04-6.08c-.18-.81-.85-2.73-.76-3.8.09-1.07.81-4.97,1.03-6.58.22-1.61-.27-4.7.22-6.4s1.21-3.27,1.52-5.06c.31-1.79-.04-4.38.18-4.7.22-.31.72-2.1.89-2.64.18-.54,1.57-2.19,1.52-3-.04-.81-.4-5.14-.45-5.77s-2.19-5.9-2.01-6.93c.18-1.03,3.36-5.91,4.12-8.05s1.74-4.29,1.88-4.56.45-1.3.27-2.33ZM22.8,127.07c.13.74.2,1.68,0,2.56s-.61,5.38-.81,5.72c-.2.34-.34-.27-.47-.87-.13-.61-.47-2.96-.74-4.17-.27-1.21-1.01-4.44-1.48-5.92-.47-1.48-1.01-4.24-1.35-4.91-.34-.67-1.21-1.21-1.41-1.55-.2-.34.54-.4,1.14-1.35.61-.94.4-1.35.34-2.02-.07-.67.07-1.41.4-2.22.34-.81.87-1.48,1.21-3.16.34-1.68.94-4.37.94-4.37,0,0,.54,1.21.61,2.09s-.2,2.09-.27,3.16.81,2.83.67,3.57c-.13.74-.34,2.09-.27,2.96.07.87,1.14,2.62,1.48,3.1s.07,1.82.07,2.49-.2,4.17-.07,4.91ZM37.07,58.11c-.16.47-.9,1.6-1.56,3.2s-1.45,3.52-1.45,3.52c0,0-.27-.59-.43-.94-.16-.35.16-.78.12-2.34-.04-1.56-1.41-3.99-1.72-4.38-.31-.39.12-.7.12-.7l.66-.16s-.16-.63-.27-.86c-.12-.23.16-.94.55-1.45.39-.51.63-.7.82-1.48.2-.78,1.52-3.48,1.52-3.48,0,0,.51,2.27,1.09,3.99.59,1.72.7,4.61.55,5.08Z"/>
  </g>
</svg>