<?xml version="1.0" encoding="UTF-8"?>
<svg id="Layer_2" data-name="Layer 2" xmlns="http://www.w3.org/2000/svg" viewBox="0 0 42.85 158.04">
  <g id="People">
    <path d="M41.8,83.43c-.03-.18-.09-1.07-.27-1.37-.18-.3-1.34-1.37-1.73-1.94-.39-.57-1.19-1.76-1.07-2.21.12-.45.18-.51.18-.84s-.18-2.21-.09-2.86c.09-.66.89-11.57.92-13.03s-.57-5.99-.33-7.25c.24-1.25,1.13-5.49,1.22-6.8.09-1.31.63-6.05.81-6.86.18-.81.33-2.18.51-2.77.18-.6.21-1.13.21-1.22l.36-.27s-.54-4.26-.86-5.4-.12-6.08-4.71-6.5c-4.59-.42-1.88-1.76-3.01-4.12s-1.46-9.51-2.09-10.59c-.63-1.07-2.77-5.88-5.31-7.49-2.53-1.61-2.12-1.73-3.25-1.52,0,0-.72-.6-2.03-.33,0,0-.86-.03-1.43.24,0,0-.27-.36-1.28.06-1.01.42-2.12.48-3.19,1.01-1.07.54-2,.69-2.27,1.01s-1.01.89-.3,1.19c0,0-1.25,1.97-1.58,4.38,0,0-.3,1.58-.39,2.06,0,0,.06.57.36,1.07,0,0,.3.45.27.66,0,0-.66.95-.84,1.28-.18.33.09.66.48.84,0,0,.27.12.27.42s-.15,1.1.24,1.73c.39.63.72.81.98,1.37.27.57.09.45.33.69s.24.69.21,1.04c-.03.36-.09.84-.09.84,0,0-1.04,2.53-1.1,3.7-.06,1.16-.09,1.46-.09,1.46,0,0-2.77-.06-4.38.51-1.61.57-2.06,1.55-3.07,3.61-1.01,2.06-2.92,5.04-3.46,5.58-.54.54-.3.51-.06.72s1.85,2.09,1.85,2.71-1.28,8.32-1.55,10.62c-.27,2.3-.69,3.67-.95,4.74-.27,1.07-.21,4.06-.15,5.31.06,1.25.63,2.68,1.01,4.26.39,1.58.3,1.7.24,2.09-.06.39-.03,1.43.21,1.97.24.54.33,1.13.24,1.94-.09.81-.3,3.28-.15,3.73.15.45.24.45.24.45,0,0-.54,2.48-.86,4.15-.33,1.67-.42,4.83-.39,7.28s.39,6.98.54,8.56c.15,1.58.42,4.71.48,5.67.06.95-.06,5.07-.09,7.43-.03,2.36.51,7.16.66,8.2.15,1.04.92,2.71.75,3.43-.18.72-.66,1.01-.66,1.61s.18,1.88.03,2.74c-.15.86.12,5.52.24,7.01.12,1.49.39,4.74.63,6.38.24,1.64,1.1,8.08,1.4,9.57s.45,3.58.54,3.55c.09-.03-.39.21-.36.78s.15,2.3,1.01,2.48,2.21.06,2.21.06c0,0-.06.39-.24.89-.18.51-.54,1.76-.6,2.27-.06.51-.27.95-.36,1.28-.09.33-.21.72.03.95.24.24.78.18.86.21.09.03,7.69-.18,7.69-.18,0,0,.33-.51.39-.81s.09-.78.09-1.13-.33-.78-.57-1.1c-.24-.33-.86-.39-.92-.92-.06-.54.03-1.7.03-1.7-.09-.69-.42-.78-.24-.86.18-.09.78-.45.86-.84.09-.39.06-2.74-.03-2.98-.09-.24-.78-.36-.75-.63.03-.27-.39-2.74-.45-3.25-.06-.51.36-1.43.36-1.97s.39-3.76.42-4.29c.03-.54-.81-4.83-.92-5.67-.12-.84-.36-4.74-.48-5.58-.12-.84-.03-2.36,0-2.8.03-.45,0-1.55-.09-2.18-.09-.63.09-.89.27-1.22.18-.33.27-2.03.24-2.59s-.27-.48-.06-.98c.21-.51.24-.36.36-1.07.12-.72.24-4.2.36-4.98.12-.78.27-5.61.45-6.14.18-.54,1.1-3.04,1.25-4.09.15-1.04.15-5.67.6-6.17.45-.51.54-.51.63-.54s-.06,2.27.3,3.4c.36,1.13.63,2.71.98,3.4.36.69.36,1.07.54,1.64.18.57.66,2.62.84,3.49.18.86.75,4.62.92,5.79.18,1.16.75,6.65,1.64,8.59,0,0-.42,1.97-.51,2.98-.09,1.01.48.75-.09,2.62s-.39,2.74-.42,3.76c-.03,1.01-.45,4.29-.39,5.64.06,1.34.39,5.7.6,7.22.21,1.52.48,4.12.63,4.65l-.36.15s-.36,2.77-.24,2.98c.12.21,1.07.3,1.07.3,0,0,.18.87.3,1.28,0,0,.06,1.55-.06,2.56-.12,1.01-.3,1.58.15,2.3l.45.72s-.54.21-1.16.21-.39.75-.36.89l1.73.18s3.07.09,4.26.12,5.58.03,5.58.03c0,0,.39-.27.36-.51-.03-.24.03-.51.09-.66.06-.15.15-.54-.78-1.19-.92-.66-1.34-.72-1.64-.78,0,0-1.43-.89-1.73-1.28-.3-.39-1.55-2.68-1.52-2.89.03-.21.66-.15.81.06.15.21.57.06.57-.12s-.15-.42.03-.48c.18-.06.42-.15.54-.27.12-.12.81-2.59.81-2.92s-.24-.39-.3-.72c-.06-.33-.83-1.43.15-2.54,0,0,.63-.95.81-2.03.18-1.07.72-4.77.48-6.05-.24-1.28-.3-3.61-.21-4.44.09-.83.21-3.79.21-4.71s.09-4.8.09-5.43-.6-1.88-.51-2.06c.09-.18.75-1.88.54-2.8s-.69-1.67-.51-2.09c.18-.42,1.25-2.45,1.22-3.01s-.54-2.3-.21-3.19c.33-.89.15-3.88.06-5.07-.09-1.19-.24-4-.12-4.89.12-.89.15-5.13.36-6.26.21-1.13.33-6.2.42-7.52.09-1.31.24-3.61.18-3.94-.06-.33-.27-.63-.33-.84-.06-.21.33-1.94.33-2.09s-2-4.53-1.73-5.19.95-2.06.86-2.74c-.09-.69-.3-.92-.36-1.16-.06-.24.12-.72.09-.92s-.54-.92-.57-1.31c-.03-.39,0-.89-.21-1.52-.21-.63-.21-1.13-.12-1.64.09-.51.33-.78.48-1.25.15-.48,0-1.76.03-2.3.03-.54-.12-1.28-.09-1.7.03-.42.09-.98.21-1.4s.39-1.07.51-1.46c.12-.39.27-.81.39-.86s.06,1.4,0,2.95c-.06,1.55.33,4.8.51,5.76.18.95.98,5.67,1.04,7.07.06,1.4.45,4.65.24,6.59-.21,1.94-.72,3.94-.45,5.19s.69,2.45.83,3.22c.15.78.3,1.37.45,1.7.15.33.42.78.45,1.07.03.3.3.57.69.45.39-.12.69-.48.57-.98-.12-.51-.51-1.7-.57-2.12-.06-.42-.45-.63-.15-.92s.54-.81,1.04-.84c.51-.03.72-.18.78.21s.12,1.94,0,2.42c-.12.48-.09.63-.15.89-.06.27-.33.54-.42.89-.09.36-.3.45-.57.72-.27.27-.54.3-.63.57-.09.27-.42.6-.18.75.24.15.86-.03,1.04-.09.18-.06.33.09.69,0,.36-.09.83-.18.95-.12.12.06.09.42.27.39.18-.03.72-.48,1.13-.54.42-.06.86-.18,1.04-.42.18-.24.75-1.52.98-1.91.24-.39-.98-3.16-1.01-3.34ZM7.92,48.84c-.04.35,0,.82,0,.97s-.35.47-.39.82c-.04.35-.08,1.87-.04,2.22.04.35.27.97.35,1.32s-.39.62-.58.7.12.35.23.62c.12.27-.23.55-.43,1.01-.19.47-.93,1.67-1.05,1.67s-.19-1.01-.08-1.79c.12-.78.04-2.57.43-3.51s1.33-5.4,1.4-5.49c.35-.43.19,1.09.16,1.44ZM40.45,87.17c-.09.12-.36.27-.58.39-.21.12-.58.73-.73.85-.15.12-.24-.09-.12-.24s1.15-1.79,1.15-1.79c-.03.18.36.67.27.79Z"/>
  </g>
</svg>