<?xml version="1.0" encoding="UTF-8"?>
<svg id="Layer_2" data-name="Layer 2" xmlns="http://www.w3.org/2000/svg" viewBox="0 0 189.55 224.72">
  <g id="People">
    <path d="M189.55,224.65l-189.55.07c.19-16.53,1.47-33.03,5.23-49.2,2.87-12.35,10.84-20.86,22.81-24.5,12-3.65,23.68-7.34,34.94-12.92,9.99-4.95,9.15-16.49,8.09-25.6-3.97-6.34-6.94-11.71-9.28-18.63l-5.16-2.05c-3.72-6.97-6.27-14.42-6.72-22.26l3.87-4.57c-1.68-11.73-4.8-21.98-.21-32.84l-2.02-1.14c2.26-4.28,5.79-8.14,9.78-11.65l-4.48-.18c3.57-3.01,7.1-4.36,11.8-5.68l-4.14-1.17c4.58-2.09,9.36-3.63,14.49-4.98l1.47-4.29,11.21,1.64-7.1-3.54c5.74-.68,10.99,1.54,16.84,3.51L97.73,0c6.76-.01,11.27,4.21,15.3,9.07l1.05-6.15,6.13,8.65,4.18-3.32.52,7.67,8.5.44-3.69,4.24,7.99,3.69-3.93,1.2c2.47,2.63,4.52,5.05,7.03,8.63l-4.66.18c2.29,5.53,3.83,11.48,2.94,17.46l-2.06,13.86c7.41,3.71-.37,19.69-2.95,25.77l-4.91,3.14c-9.51,23.89-10.3,8.64-9.82,29.24.15,6.53,2.53,11.89,8.61,14.72,10.55,4.92,21.75,8.52,33.07,11.73,12.16,3.45,20.19,11.71,23.02,24.04,3.72,16.19,5.2,32.36,5.49,50.4Z"/>
  </g>
</svg>