<?xml version="1.0" encoding="UTF-8"?>
<svg id="Layer_2" data-name="Layer 2" xmlns="http://www.w3.org/2000/svg" viewBox="0 0 54.64 163.31">
  <g id="People">
    <g>
      <path d="M3.29,31.61c.03.14.05.23.05.23,0-.06-.02-.14-.05-.23Z"/>
      <path d="M54.64,102.29s-3.52-8.23-3.7-10.26c-.18-2.03-.48-6.68-.89-8.35-.42-1.67-2.68-11.75-3.16-12.76-.48-1.01-2.39-6.38-2.86-7.87s-.89-3.4-1.19-4.23-1.07-2.15-1.07-2.15c0,0,3.76-1.49,4.71-2.98,0,0,2.56-3.28-.3-13.84,0,0,.54-.83.12-1.67-.42-.84-1.19-1.91-1.43-2.74-.24-.83-1.73-6.08-2.8-7.04-1.07-.95-2.92-1.19-2.92-1.19,0,0-1.31-.12-1.79-.36-.48-.24-1.07-.48-1.85-.54-.78-.06-1.13-.06-1.67-.12l-.29-.59s.25.02.42.02.85.31,1.14.33c.33.02-.69-.33-.09-.63.78-.39.86-2.46.93-2.46s.89.39.39,1.17c-.5.78.04.89.04.89-.41-.39.58-1.04.82-1.92.24-.89.56-1.99-.65-2.55-.14-.06-.27-.16-.4-.28.57.17.9.29.9.29,0,0-.18-.3-.96-.51-.07-.02-.14-.03-.2-.05-.2-.23-.38-.51-.55-.81.61-.04,1.1.27,1.1.27.01-.6-.86-1.41-1.77-2.05-.03-.23,0-.38.1-.38.78.03,1.79-.6,1.79-.6-2.27.15-1.37-.72-1.37-.72.52.19,1.22-.33,1.22-.33-.73.02-.78-.51-.78-.51-.52-.31.62-2.02.09-2.65-.52-.63-.82-1.69-.82-1.69-.24-.66-.54-1.01-1.25-1.25-.72-.24-.6-.12-1.13-1.07s-2.27-1.31-2.56-1.61c-.3-.3-.78-1.43-.89-1.73-.12-.3-.42-.54-.84-.95-.42-.42-.89-.6-1.37-.78s-.89-.42-1.31-.78c-.42-.36-.78-.89-1.07-.89s-.6-.24-1.13-.42c-.54-.18-1.49.06-2.15-.18-.66-.24-.95-.42-1.55-.6-.6-.18-.72-.3-1.37.06s-.78.48-1.43.54c-.66.06-.54-.36-1.31.06-.78.42-1.01.42-1.37.72s-1.01.54-1.37.84c-.36.3-.89.42-.95,1.01-.06.6-.24.78-.66,1.07-.42.3-.54-.3-1.13.42-.6.72-.78.95-1.25,1.49-.12.13-1.73.66-1.97,1.07-.24.42-.72.72-1.13,1.31s-1.67,2.09-1.97,2.39.3.48-.06,1.19l-.06.6s.36-1.13.66-1.67c.3-.54.78-1.01,1.01-1.07.24-.06-.89,1.01-.89,1.43s0,1.07-.36,1.37-.72.3-.78.78c-.06.48-1.19.78-1.37,1.37-.18.6-.48,1.67-.36,1.85,0,0,.6-2.27,1.37-2.39,0,0-.48.95-.42,1.25.06.3-.89,1.25-1.55,1.49-.66.24-.66,1.49-.66,1.91,0,0,.42-1.73,1.25-1.91l.36.48s-.95.3-.78.95c.18.66.36,1.25.42,1.73.06.48-.06.66-.3.89-.24.24-1.19,1.49-1.19,1.49,0,0,1.13-1.19,1.49-1.43.36-.24-.3.78,0,1.61.3.83.48.95-.36,1.67l-.84.72,1.61-.89s.18-.48.6-.3c.42.18-.42,1.07-.66,1.37s-1.55,1.01-1.55,1.01c0,0,2.09-1.13,2.15-.89.06.24-.48.3-.24.95s.06,1.07-.18,1.61c-.24.54-.48,1.19-.24,1.43,0,0,.42-1.61.78-1.79,0,0,.3.66.18,1.43-.12.78-.54.89-.12,1.25.31.27.56.67.66.96-.11-.52-.32-1.76.05-2.09.48-.42,1.55-.36,1.67-.06.12.3-.12.54-.42,1.07s-.54.95-.6,1.43c-.06.48-.78,1.85-.78,3.1s-.24,4.59.06,5.31c.3.72,1.67,4.18,2.21,5.37.54,1.19,1.31,2.51,1.31,2.51,0,0-1.13-.72-1.37-.3-.24.42-.06,1.07.42,1.43.48.36.36.6.66,1.01.3.42.78.89.95,1.07s2.03,1.49,2.21,1.67c.18.18.48.89.54,1.07.06.18-.83.06-1.31.36-.48.3-.48.72.18,1.01.66.3,1.01.66,1.01.66,0,0-.3.36-.24.89.06.54,0,1.13,0,1.73s-.18,1.37-.12,1.73c.06.36-.36.3-.42,1.13s-.12,1.43-.12,2.09-.3,1.25-.3,2.33-.72,3.64-.72,4.83-1.01,5.61-1.07,7.22-.6,5.73-.84,7.4c-.24,1.67-.42,6.92-.36,8.05.06,1.13.24,2.15.48,2.68.24.54.54,1.67.78,2.56.24.89,0,1.55.18,1.91.18.36.24.89.78.72.54-.18.72-.42,1.01-.36.3.06,1.19.24,1.37.24s2.03.12,2.51.24c0,0,.36.6.48.83s-.24.84-.24,1.49.54,1.67.78,2.09c.24.42.6,1.43.72,2.09.12.66-.54,1.25-.42,2.21,0,0-.06,1.13.54,2.03,0,0,.24,1.07-.18,2.39s-.6,2.21-.3,3.22c.3,1.01.06,1.19-.06,1.61-.12.42-.3.89-.24,1.13.06.24.24.48.06,1.37-.18.89-.66.83-.48,1.73.18.89.42,3.82.24,5.19-.18,1.37-.18,4.71-.3,7.4-.12,2.68.54,8.65,1.19,10.5.66,1.85,1.73,3.46,2.03,4.35s.72,1.79.95,2.8.48,2.09.83,2.45.84,1.07,1.01,1.43c.18.36.3,1.61.6,1.97s.78.3,1.19.3h.42s.42,2.15.54,2.33c.12.18,1.19.54,2.09.66.89.12,2.62.12,2.98.12s5.55-1.13,6.14-1.13,1.13.06,1.49-.06c.36-.12,1.37-1.13,1.55-1.55.18-.42,0-1.13-.3-1.73-.3-.6-2.68-3.7-2.68-4.24s.12-.89.3-1.31c.18-.42.12.24.18-.42s.36-.78.6-1.43,1.19-5.31,1.55-6.44c.36-1.13.6-3.1,1.07-3.76.48-.66,1.13-1.61,1.49-2.56.36-.95,1.61-4.18,2.03-4.71.42-.54.6-1.01,1.13-1.79.54-.78.48-1.37.95-1.97.48-.6.66-1.19,1.31-1.91.66-.72,1.25-3.1,1.61-3.58s.6-.66,1.07-1.19c.48-.54.72-1.13,1.01-1.97.3-.84.18-1.43.54-1.67.36-.24,2.15-2.03,2.56-3.04.42-1.01,1.49-3.58,1.43-4.71-.06-1.13-.6-5.43-.6-5.91s-.24-1.43-.3-2.15c-.06-.72-.3-1.67-.3-1.67,0,0,.78,0,1.07.06.3.06,2.27-.18,2.27-.18ZM37.76,113.98c-.3.48-.42.89-.72,1.19s-.66,0-.66.48-.06.54-.12.95c-.06.42-.06.3-.54.89-.48.6-.84.48-1.13,1.25s-2.56,4.12-2.86,4.59c-.3.48-.48.83-.66.95-.18.12-1.43.72-1.55,1.13-.12.42-1.85,5.07-2.21,5.73-.36.66-.3.06-.3.06,0,0-.3-1.67-.3-2.33s-.24-.6-.06-1.73c.18-1.13.24-1.37.06-1.85-.18-.48-.6-.36-.42-.89.18-.54.36-1.13.48-1.79.12-.66.12-1.67.06-2.15-.06-.48-.3-.95-.12-1.43.18-.48.36-1.31.42-1.67.06-.36.48-2.98.54-3.7.06-.72.18-1.91.3-2.62.12-.72-.06-1.31.24-2.33s-.12-7.16.54-8.05l3.46-.06s.84,1.67,1.91,2.8c0,0-.12,2.03,1.13,3.04,1.25,1.01,1.61.6,1.61,1.25s.3,2.45.36,2.92c.06.48.36,2.03.54,2.09s.89-.06.95.24-.66.54-.95,1.01Z"/>
    </g>
  </g>
</svg>