<?xml version="1.0" encoding="UTF-8"?>
<svg id="Layer_2" data-name="Layer 2" xmlns="http://www.w3.org/2000/svg" viewBox="0 0 41 155.94">
  <g id="People">
    <g>
      <path d="M6.63,42.39c-.21.15-.37.25-.37.25.11-.01.24-.11.37-.25Z"/>
      <path d="M40.78,32.78c-.51-2.48-2.03-4.5-1.86-6.36.17-1.86-1.24-2.48-1.24-4.34s-.56-3.38-1.35-5.29c-.79-1.91-1.91-5.63-1.97-6.7-.06-1.07-2.76-6.59-3.66-7.43s-2.53-2.53-3.72-1.91c0,0-.62-.96-1.18-.62-.56.34-.9-.22-1.24-.11s-1.01.51-1.01.51c0,0-.39-.45-1.63,0-1.24.45-5.29,1.46-5.69,1.97-.39.51-.06.79.34,1.01,0,0-2.87,2.25-2.42,5.46,0,0,.62,1.24-.28,2.2s-1.97,1.86-1.69,2.2c.28.34.9.62,1.18.84.28.23.34.62.06.96s.11.62.39.68c.28.06.84.68.17,1.24,0,0-.51.39.17.68,0,0,.68.39,0,1.35-.68.96.28,1.75,1.13,1.86.84.11,1.91.11,1.91.11,0,0-2.2,3.43-1.52,5.01,0,0,.28.73.17,1.01-.11.28-2.03.62-2.87,1.97-.84,1.35-1.52,4-2.2,5.24-.68,1.24-1.69,3.1-1.8,3.32-.11.23,0,.73,0,.73,0,0-.84,1.58-1.24,2.25-.29.5-.71,1.35-1.1,1.78.43-.31,1.11-.84,1.26-1.21,0,0-.34,3.21,0,4.28,0,0,.23-2.82.62-3.21,0,0,0,1.97.68,3.49.68,1.52.9,2.59.84,3.72-.06,1.13-.39,3.15-.9,4.17-.51,1.01-1.86,3.55-2.76,7.21-.9,3.66-1.35,6.81-2.31,8.9-.96,2.08-.96,4.05-1.35,5.18-.39,1.13-1.24,3.88-1.8,4.67s-1.01,1.41-.9,1.97c.11.56.11,1.75.39,2.53s-.11,1.13,1.01,1.63,2.36.79,2.87.73c.51-.06.79-.45,1.13-.73.22-.18.48-.53.69-.8-.4,1.69-.71,3.06-.75,3.39-.11.96-.68,8-.68,10.19s-.06,6.64.23,8.95-.23,5.86,0,6.87c.23,1.01,1.13,2.59,1.58,3.32.45.73.23,1.41.23,2.31,0,0,.06.62.39,1.75.34,1.13.56,1.69.84,2.31s.79,2.59,1.01,3.77c.23,1.18.45,1.46.9,2.31.45.84.84,1.58,1.01,2.31.17.73-.17,2.76-.11,3.6s.68,2.03,1.3,2.93c.62.9,1.01,1.13.9,2.48-.11,1.35.11,2.08.68,2.7.56.62,1.01.73.96,1.13-.06.39-.84.45-.9.79-.06.34.06,1.35.11,1.86.06.51.11,1.01.11,1.01,0,0-1.52,1.69-2.2,2.25-.68.56-1.24.84-1.52.96s-2.59,1.24-2.59,1.24c0,0-1.01-.28-1.24.17-.23.45-.39,1.01-.28,1.18.11.17-1.01.28-1.18.28s-.17.45.56.62c.73.17,3.83.28,7.26.34,3.43.06,13.51-.06,13.51-.06l.17-.9s1.01-1.24,1.01-1.8-.39-3.1-.56-3.38c-.17-.28.34-.96.68-1.01.34-.06.84,0,1.07,0s.96-1.69,1.01-2.2c0,0,.06-.79-.28-1.24-.34-.45-.56-.96-.39-1.13,0,0,.73-1.86,1.01-3.72.28-1.86,1.58-8.05,1.86-9.01.28-.96.84-4.11.84-5.35s.17-7.26.06-8.61c-.11-1.35-1.13-6.08-1.3-6.87s.73-2.25,1.01-4.67c.28-2.42.45-6.31.68-7.77.23-1.46,1.3-3.77,1.3-4.67s.17-4.39.28-4.73c.11-.34.45-2.65.84-3.27.39-.62,1.63-1.75,1.63-2.53s-.06-4.45-.39-5.18l.11-1.24s-2.53-7.09-2.48-7.54.73-4.45,1.07-6.25c.34-1.8.11-5.46.39-6.08s2.42-10.92,2.65-11.88c.23-.96,1.91-2.82,2.08-4,.17-1.18.68-5.57.17-8.05ZM8.58,72.7c.17.51-.06.68-.17,1.35s-.28,1.18-.11,1.58c.17.39,0,.28-.17.96-.1.41-1.04,4.21-1.79,7.39-.37.18-1.02.55-1.02.55,0,0-.39-.56-.34-.9s-.17-1.52-.17-2.03.39-1.58.51-2.03c.11-.45.62-2.98.73-3.88.11-.9,1.07-2.65,1.58-3.27s.9-1.41,1.07-1.41.28.34-.06.68c-.34.34-.23.51-.06,1.01ZM21.71,125.43c-.18.89-.63,5.1-.63,5.1,0,0-1.43-4.74-1.61-6.53s-1.16-3.85-1.34-4.83c-.18-.98-.54-2.15-.81-3.04s-.81-.45-.81-1.52.27-1.16.54-2.24.36-2.33.45-3.22c.09-.89.63-1.16.54-2.15-.09-.98,1.25-4.65,1.25-4.65,0,0,.72.89.27,1.79-.45.89.54,4.03.45,5.1-.09,1.07.36,1.07-.09,2.33-.45,1.25.27,2.68.54,3.49.27.81,1.07,1.97,1.07,2.77v3.49c0,1.16.36,3.22.18,4.12Z"/>
    </g>
  </g>
</svg>