<?xml version="1.0" encoding="UTF-8"?>
<svg id="Layer_2" data-name="Layer 2" xmlns="http://www.w3.org/2000/svg" viewBox="0 0 46.47 168.51">
  <g id="People">
    <path d="M10.25,4.74s-.95,1.81-1.08,2.91c-.13,1.11.09,2.41.35,2.94s.28.85.13,1.08c-.16.22-.92,1.14-.51,2.15s1.17,2.12,1.61,2.91c.44.79,1.17,1.8,1.52,2.15.35.35.93,1.08,1.04,1.32.15.34.94,2.35,2.86,2.59,1.15.14,1.46,1.03,1.46,1.03,0,0,.95,2.09.98,2.28s-1.8,1.36-1.8,1.36c0,0-.82.22-1.08.51s-.48.51-.48.51l-1.8.98s-.89.06-1.11.22c-.22.16-.89-.06-1.9.35s-2.15.95-2.15.95c0,0-.06-2.98.44-3.58.51-.6.82-1.39.73-2.25-.09-.85-.38-2.25-.22-2.91.16-.66.25-1.08.38-1.17.13-.1.16-.35.06-.41l-.1-.06,1.42-.48.09-.35-3.64-3.39-3.01.41s.13-.51.09-.7c-.03-.19.28-.48.28-.48,0,0-.06-.51-.51-.38-.44.13-1.3.92-1.93,1.27-.63.35-.82.63-1.04,1.17-.22.54-.73,1.43-.7,1.74.03.32.32,1.71.38,1.87.06.16.13.28.13.6s-.32.51.09,1.01c.41.51,1.46,1.52,1.87,2.15s.79,1.84.73,2.31c-.06.48-.54.79-.44,2,.09,1.2-.06,5.13-.57,7.12-.51,1.99-1.9,6.97-2.6,9.5s.19,5.29,1.49,6.65c1.3,1.36,2.66,2.66,4.31,2.66,0,0-.09.29.13.82.22.54.32,1.39.35,1.74.03.35.22.73.35.89.13.16-.06.89.03,1.14s-.03.92-.06,1.42c-.03.51-.22.22-.44.7-.22.48-.32.6-.35.89-.03.28-.7,1.3-.82,2.15-.13.86-.22,1.9-.63,2.41-.41.51-2.09,3.17-2.22,3.42s-.25.41-.25.41l-.85-.1s-.51,1.33.19,1.52c0,0-.44.89-.7,4.65-.25,3.77.51,7.25.89,11.02.38,3.77,2.06,10.77,2.31,11.91.25,1.14.92,9.59,1.9,12.57.98,2.98,1.04,3.01,1.04,3.32s.32,2.5.38,4.24c.06,1.74-.03,2.5.16,3.77.19,1.27.6,2.98,1.05,3.89.44.92.44,3.39.51,5.76.06,2.37.98,5.45,1.33,6.97.35,1.52,1.14,4.12,1.27,4.94.13.82-.16,1.93-.03,2.82s.67,5.13.95,5.83c.28.7.79,1.36,1.04,1.55.25.19-.06,1.08.03,1.58.09.51.09,1.33.13,1.46.03.13.06.38.06.38,0,0-3.51,3.2-5.03,3.93-1.52.73-2.75.95-3.13,1.14-.38.19-.92.41-1.08.66s-.1.57,0,.57.19.32.19.32c0,0,1.11,1.01,5.64.82,4.53-.19,5.03-.73,5.51-.7.47.03,1.33.09,1.33.09,0,0-.03.41.06.41s5.7-.03,5.7-.03c0,0-.09-.41,0-.38.09.03.98-.06,1.14-.38.16-.32.22-.92.03-1.23-.19-.32-.44-.32-.44-1.36,0,0-.13-2.66-.41-2.79l-.09-.47s.54.16.7-.32-.25-2.41-.41-3.2-.54-2.18-.48-2.79.47-2.82.44-3.58c-.03-.76-.47-2.47-.38-3.39.09-.92.03-5.67-.16-7.06-.19-1.39-.51-7.79-.51-8.93s-1.01-4.88-1.36-7.38c-.35-2.5-.41-6.14-.32-7.92.09-1.77-.38-6.43-.38-7.5s-.06-1.46-.13-2.6c-.06-1.14-.19-.89-.1-2.09.1-1.2-.25-2.12-.13-2.66s.25-1.01.32-1.46.16-.63.16-1.11-.13-.73-.06-1.33c.06-.6.32-1.33.32-1.33,0,0,2.06,5.29,2.79,7.47s2.18,5.6,2.47,6.3c.28.7.73,1.99.92,2.34.19.35.41,1.36.54,1.8.13.44.41,1.74.54,2.25s.28.6.32,1.04c.03.44-.92,3.1-1.08,3.99-.16.89.54,4.78.82,5.45.28.66.73,1.62.89,1.87.16.25-.03,3.93-.03,5.51s.06,5.32.25,6.3c.19.98.22,3.96.44,5.22.22,1.27.13,1.36.13,1.99s0,4.08-.06,5.45c-.06,1.36.06,4.27.48,5.35s.63,1.58.92,2.09.44.66.47,1.04c.03.38-.1,1.46-.1,1.87s.22,1.01.35,1.11.13,1.17,0,1.42-.41.95-.16,1.2.76.38.76.38l.09.51s5.19.19,5.41.22c.22.03,1.49.06,2.12.13s1.46.89,2.79.82c1.33-.06,2.79,0,3.32-.44.54-.44.38-.76.25-1.14s-1.27-1.14-1.8-1.84c-.54-.7-1.04-1.01-1.49-1.62-.44-.6-.76-1.23-.98-1.61s-.32-.19-.32-.57-.22-1.65-.29-2.15c-.06-.51,0-.6.25-.63.25-.03.82-.57.89-1.96.06-1.39.47-4.53.28-6.27-.19-1.74-.66-5.45-.66-7.16s.25-7.66.44-9.21c.19-1.55.25-6.55.03-9.34s-.41-4.91-.6-7.09c-.19-2.18-.38-7-.41-8.45-.03-1.46.06-4.37-.41-5.29-.48-.92-.92-1.17-.85-2.22s-.16-6.02-.38-7.35-.63-2.85-.54-3.61c.09-.76.09-2.37.13-3.13s.32-1.14.22-1.46c-.1-.32-.44-1.14-.7-1.58-.25-.44-.06-2.79.1-2.91s.44-.25.44-.66-.06-.6-.03-.92c.03-.32.32-.57,0-.79-.32-.22-.79.06-.98-.51-.19-.57-.32-3.01-.28-3.89.03-.89-.06-1.3.09-1.84s.89-5.57.47-7.44-.6-6.36-.28-8.8c.32-2.44,1.33-6.27,1.8-7.44.48-1.17.63-2.53.7-3.74.06-1.2.16-1.36.25-2.15s.19-1.49.22-2.06c.03-.57.44-1.33.54-1.74.09-.41.06-1.01.19-1.46.13-.44-.06-.73.22-.92.28-.19.51-.22.6-.57.1-.35-.41-.92-.44-2.18-.03-1.27.16-1.42.1-2.12-.06-.7-.41-1.61-.63-1.96s-.57-2.41-.89-3.01c-.32-.6-.63-.47-.7-1.55-.06-1.08-.06-3.77-2.22-4.91s-3.58-.06-4.12-.06-.22-.22-.66-.79c-.44-.57-1.8-2.28-1.8-2.69s.28-2.91-2.06-8.01c-2.34-5.1-3.32-6.84-7.73-8.39-4.4-1.55-4.62-.51-4.62-.51,0,0-1.71-.44-3.23.16s-4.81,3.58-4.78,3.93c0,0-.22.79.82.31Z"/>
  </g>
</svg>