<?xml version="1.0" encoding="UTF-8"?>
<svg id="Layer_2" data-name="Layer 2" xmlns="http://www.w3.org/2000/svg" viewBox="0 0 49.37 166.39">
  <g id="People">
    <path d="M48.2,52.72c-.69-2.24-2.92-14.05-3.43-16.19-.51-2.15-1.43-4.59-1.76-5.22s-2.77-2.33-2.77-2.33l-1.73-.36s-.54-.09-1.67-.36c-1.13-.27-3.07-1.19-2.95-1.22l-1.61-.89-.06.21-1.34-.66c-1.34-.66-1.97-2.21-2.39-3.52-.42-1.31-.57-3.67-.54-4.12.03-.45.45-.45.63-.66.18-.21.75-.72.98-1.52.24-.81.57-2.56.45-3.28-.12-.72.03-1.73.18-2.65.15-.92-.24-1.61-.45-1.91-.21-.3-.27-.57-.3-1.85-.03-1.28-1.31-4.86-4.71-5.67-3.4-.81-4.74-.81-7.84.81-3.1,1.61-3.49,4.86-3.4,5.55.09.69.12,2.03.12,2.68s.21,1.37.21,1.37c-.63,1.25-.44,2.28-.3,2.86.18.75,1.04,2.53,1.31,3.16.27.63.98,1.46,1.58,2.06s1.91,2.12,2.21,2.56c.3.45.27,2.59.18,3.55-.09.95-2.68,2.18-2.77,2.21-.09.03-.18-.21-.45-.12-.27.09-.48.69-.69.72-.21.03-.42.06-.63.33-.21.27-.48.03-.86.06-.39.03-.57.24-.84.51s-1.22.54-1.46.6c-.24.06-1.25.15-1.43.27-.18.12-.57.36-2.51,1.91-1.94,1.55-3.49,8.08-3.79,10.08s-1.55,8.92-2.06,10.95c-.51,2.03-1.7,4.23-1.19,7.84.51,3.61,2.33,3.82,2.68,3.79s.03-.36,3.52-1.49c3.49-1.13,3.88-2.21,3.94-2.3.06-.09.57-.09.66-.03.09.06.09.72.03.75-.83.41-.33,2.42-.33,2.42-2.21,2.92-5.28,15.15-5.55,17.54s-1.1,9.48-1.01,10.68-1.34,17.72-1.34,17.72c1.28,1.01,8.35,1.88,8.35,1.88,0,0,.06,2.83.81,5.79.73,2.89.21,7.25-.15,10.17-.36,2.92.81,9.96,1.13,11.48s2.8,12.05,3.07,13.21.3,3.58.27,4.26,0,2.12-.24,2.83c-.24.72-2.65,2.59-2.77,2.71-.12.12-.48.18-.98.27s-.54.81-1.07,1.07c-.54.27-1.04.66-1.04.66-.24.09-.12,1.37-.12,1.37,0,0-.3-.03-.57.03s-.06.92-.06.92c0,0,8.17-.03,8.68-.06s.36-.24.86-.33,2.59.12,2.83.06c.24-.06.12-.92.12-.92,0,0,.42,0,.42.12s.15.86.15.86c0,0,2.57-.06,2.68.12.12.18.42.3.42.3.36.09,8.59,0,8.86-.06s.33-.72.33-.72l-.63-.27s.15-.18.24-.75-.57-.83-1.04-1.04c-.48-.21-1.43-.72-1.52-.84-.29-.38-.6-.48-.72-.51-.12-.03-1.79-1.61-1.91-1.73-.12-.12-.27-.33-.33-.75-.06-.42-.18-2.39.06-4.56.24-2.18,1.46-5.79,1.91-7.25.45-1.46,2.36-7.52,3.04-10.41.69-2.89,1.94-8.05,1.28-10.35-.66-2.3-.89-5.16-.81-6.74s.72-3.82.72-5.19.39-2.74.39-2.74c3.58-.66,6.32-1.07,6.5-1.37.18-.3.06-3.61,0-4.98-.06-1.37-.51-6.68-.36-8.32.15-1.64-.42-7.34-.54-8.65s-.36-3.88-.48-4.65c-.12-.78-.12-2.62-.39-4.18s.03-2.06,0-2.68-1.85-6.17-2.18-7.58-.69-3.13-.92-3.73c-.24-.6-1.34-2.21-1.34-2.21,0,0,.03-.72.03-1.34s.24-.51.36-.78c.12-.27.15-.21.54-.42.39-.21.48-2,.48-2,0,0,.39.12,1.04.03.66-.09,1.55,1.1,2.24,1.61.69.51,4.62,1.13,5.31,1.64.69.51,1.52.72,2.27.33.75-.39,1.19-3.04,1.4-4.06.21-1.01-.45-4.18-1.13-6.41ZM10.64,52.18c-.27.17-2.55,1.46-2.63,1.44-.08-.02-.31.1-.44-.06-.13-.17.86-2.74,1.3-4.62.44-1.88,1.02-3.45,1.02-3.45.27.06.52,1.15.63,1.38.1.23.04.1.13.59.08.48.13,3.37.13,3.68s.15.88-.13,1.05ZM40.79,54.36c-.33-.65-.94-1.02-1.57-1.46-.63-.44-1.59-.04-1.74,0-.15.04.08-.42.1-.86.02-.44.25-.75.31-1.4.06-.65.31-1.53.4-2.07s.17-1.11.23-1.86c.06-.75.52-1.94.52-1.94.48-.1.94,3.2,1.51,4.73.56,1.53,1.53,4.96,1.53,4.96l-1.3-.08Z"/>
  </g>
</svg>