<?xml version="1.0" encoding="UTF-8"?>
<svg id="Layer_2" data-name="Layer 2" xmlns="http://www.w3.org/2000/svg" viewBox="0 0 61.1 177.06">
  <g id="People">
    <path d="M24.14,4.26s-2.12,2.27-2.55,4.71c0,0-.07,1.06-.42,1.56-.35.5-.42.71-.42.71,0,0-.99.28-1.38.99,0,0-.32.04-.25.25.07.21.04.35.07.5s-.07,2.44,1.45,2.48c0,0-.28.74.25,2.37.53,1.63,1.1,3.61,1.24,4.21.14.6.11,1.52.35,1.98s.81.78,1.7.71,1.06.28.92.39c-.14.11-1.38,1.06-1.88,1.63-.5.57-1.66,1.13-2.12,1.45-.46.32-5.24,2.16-6.62,2.48-1.38.32-4.96,1.59-6.02,3.26-1.06,1.66-2.8,5.77-3.15,7.33-.35,1.56-1.56,5.77-2.02,7.08-.46,1.31-.74,3.4-.99,4.57-.25,1.17-.32,3.89-.57,4.74-.25.85-.85,1.45-1.17,2.58-.32,1.13-.74,2.58-.5,3.5s1.03,4.11,1.24,4.53c.21.42.96,1.24,1.31,1.49.35.25,2.19.99,2.65,1.38.46.39,1.49.57,2.27.5.78-.07,1.49-.53,1.88-.78.39-.25,1.06-1.2,1.06-1.2,0,0-.42,3.93-.42,4.07s-.46.14-.5.25c-.04.11-1.42,6.97-1.63,8.57-.21,1.59-.5,8.32-.53,9.27s-.28,1.95-.35,2.97c-.07,1.03-.32,2.23-.04,2.51.28.28,2.12.92,2.58.92,0,0-.28,6.65-.25,9.66.04,3.01.21,7.61.81,9.2s.85,2.05.88,2.41c.04.35-.35,3.11-.46,4.18-.11,1.06.18,1.31.18,1.84s-.32,1.1-.35,1.77c-.04.67-.07.81-.07.81,0,0-1.1,2.02-1.56,4.07s-.67,4.14-.28,5.56c0,0,.21,1.06.35,1.27s-.85,2.05-1.31,4.18-.67,5.27-.71,5.7-.6,4.85-.81,6.02c-.21,1.17-.35,2.58-.6,3.68s-.35,2.12-.53,2.69c-.18.57.04,1.45.35,1.84.32.39.5.57.42.85s-.39,1.98-.42,3.01-.04,2.44,0,3.01l.04.57-.5.25s-.35-.14-.42-.04c-.07.11-1.66.92-1.66.92,0,0-.6.5-.57.67.04.18.14.5.04.53-.11.04-1.2.32-1.42.74-.21.42-.6,1.31-.42,1.73,0,0-.46.53-.14.81.32.28.14.53,4.92.53s9.66.04,9.66.04l.39-1.59s.67-1.2.71-1.45c.04-.25.32-1.06.32-1.49s-.53-.42.04-.85c.57-.42,1.52-2.65,1.84-4.14.32-1.49.67-3.5.64-4.32-.04-.81.35-5.56.5-6.97.14-1.42.78-3.86.74-5.03-.04-1.17-.04-4.18.18-4.81s.81-5.1.85-5.98c.04-.88.35-2.65.39-3.33.04-.67.39-2.87.42-3.26s0-2.8.14-3.43c.14-.64.46-1.66.57-2.05.11-.39,1.56-8.71,1.52-9.42s.32-4.32.81-5.27,1.03-2.55,1.42-4.53c.39-1.98.71-7.54.89-8.42,0,0,1.06-1.52,1.24-2.27.18-.74.28-1.2.53-1.17s.53.96.6,1.38c.07.42.18,2.41.11,2.83-.07.42-.32.96-.25,1.56.07.6.32,1.77.35,2.05.04.28-.21,1.66-.21,2.27s-.07,2.44,0,3.54c.07,1.1.25,6.55.21,7.86-.04,1.31-.18,5.73,0,6.69s.28,4.11.5,4.74c.21.64-.14,4.96-.04,5.8.11.85,0,1.45-.04,2.3s-.04,4.39.04,5.95c.07,1.56-.07,6.02.18,6.55.25.53-.04,1.27.14,1.88.18.6.28.25.11,1.03s-.71,3.19-.81,4.11c-.11.92-.57,1.03-.6,2.12-.04,1.1-.21,2.23.04,2.94s.53,3.04.74,4.28.07,2.19.42,2.62c.35.42,1.59.78,1.66.88.07.11-.04.99-.14,1.49-.11.5-.21.64-.04.78.18.14.21.39.25,1.13s.35,3.36.35,3.36h16.57v-1.1c0-.11.21-.96.07-1.27,0,0-.47-1.07-1.54-.94-1.07.13-3.22-1.66-3.71-2.19s-.76-1.03-.72-1.48c.04-.45-1.25-2.33-.81-2.77s1.21-1.34,1.61-1.88c.4-.54.85-4.25.76-4.88-.09-.63-3.18-3.89-2.95-4.97.22-1.07,1.03-3.76,1.03-4.79s-.31-2.82-.13-3.67c.18-.85.54-3.49.31-4.47-.22-.98-.63-1.88-.31-2.86.31-.98,1.48-2.95,1.39-4.12-.09-1.16-.81-3.58-.94-3.8-.13-.22-.58-1.07-.49-1.52.09-.45-.58-2.64-.18-3.67.4-1.03.63-1.97.58-3-.04-1.03-.09-2.01.27-3.22.36-1.21.58-2.42.58-3.22s.89-2.91,1.07-3.94c.18-1.03.81-6.53,1.07-7.78s.58-7.92.67-8.19l6.04.13s.09-3.67.04-4.92-.72-6.62-1.21-8.37c-.49-1.74-.81-3.71-.67-4.92.13-1.21.45-4.83.4-5.06-.04-.22-1.3-.63-1.3-.63,0,0-.45-1.57-.31-1.88.13-.31,1.48-.49,1.7-.45s1.83-.22,2.15-.45c.31-.22,2.73-.94,3.44-1.3s2.01-1.57,2.33-1.92c.31-.36.27-.81.63-1.43.36-.63.31-.81.54-1.21.22-.4.49-1.16.63-2.01.13-.85-.18-3.4-.22-3.94-.04-.54.18-.85-.09-1.52-.27-.67-.63-1.48-.72-2.55-.09-1.07-.4-2.24-.49-2.82-.09-.58-.22-1.12-.36-2.1-.13-.98-.18-1.48-.45-2.46-.27-.98-.36-2.19-.4-2.91-.04-.72-.81-4.79-1.03-5.82-.22-1.03-1.88-6.8-3.36-7.92-1.48-1.12-2.28-1.21-2.95-1.16-.67.04-4.61-1.88-5.28-2.1-.67-.22-2.01-.54-2.59-.76-.58-.22-.94-.36-1.16-.63-.22-.27-3.85-2.77-4.29-2.91-.45-.13-.89-.22-.89-.22,0,0-.22-2.06.13-2.46.36-.4.76-1.16,1.25-1.88.49-.72,1.88-4.03,2.15-5.23.27-1.21.76-4.97.27-6.31-.49-1.34-.4-3.67-1.66-3.98,0,0-1.07-.13-1.3,0,0,0,1.07-.85,1.57-.72,0,0-.4-.22-1.66.36,0,0,.58-.85,0-1.61,0,0,.22,1.48-.49,1.3-.72-.18-.81-1.21-2.28-1.7-1.48-.49-4.7-1.07-5.64-.85s-1.25.27-2.68.4-2.19.58-2.68.27c0,0,.58.72,1.16.49.58-.22-.85,1.03-1.7.89,0,0,.45.72,1.43.4,0,0-.54,1.07-1.57.85l1.06.9Z"/>
  </g>
</svg>