<?xml version="1.0" encoding="UTF-8"?>
<svg id="Layer_2" data-name="Layer 2" xmlns="http://www.w3.org/2000/svg" viewBox="0 0 36.03 178.01">
  <g id="People">
    <path d="M16.67,0c-1.02-.01-6.39.19-8.91,4.9,0,0-1.9,3.37-2.67,7.92,0,0-1.4,6.1-2.23,8.55-.84,2.45-1.97,6.8-1.85,8.83,0,0,.42,3.1-.18,5.13-.6,2.03-.6,1.85-.36,2.51s-.48,1.55-.48,2.74.12,2.21.89,2.92c.78.72,1.43,1.49,1.73,2.33s.06.95.72,1.61c.66.66.78.66,1.13,1.19.36.54.36,1.19.06,2.74-.3,1.55-.72,7.28-.66,9.42.06,2.15-.12,5.31.48,6.5,0,0-1.01,1.01-1.19,2.21s-.6,2.51-1.01,3.64c-.42,1.13-1.19,3.58-1.55,4.59-.36,1.01-.83,2.5-.42,4.89.42,2.39,2.56,9.01,4.06,10.74,0,0,.12.78.18,1.97.06,1.19.54,1.97,1.07,3.1s.42,3.94.89,6.2c.48,2.27.3,3.76-.18,4.77-.48,1.01-.84,3.94-.54,5.25.3,1.31.54,2.98.48,4.18s0,.72-.42,1.73c-.42,1.01-.72,2.56-.6,4.29.12,1.73-1.37,2.92-1.01,4.18.36,1.25-.3,1.49-.42,2.45s-.78,3.94-.89,5.73c-.12,1.79-1.13,5.73-1.25,8.11s-.42,10.74-.24,12.11c.18,1.37.42,2.03.72,2.62s.12.78-.06,1.13c-.18.36-1.19,2.62-1.31,3.58s-.42,1.73-.3,2.39c.12.66.78,1.85,1.07,3.34.3,1.49,1.01,6.5,1.01,6.5l.54.18s.24.78,1.19.83c.95.06,1.01-.18,1.01-.18,0,0-.18-7.75.83-7.28,1.01.48,3.22,2.8,3.94,3.52.72.72,1.25,2.15,1.79,2.56.54.42,1.49,1.01,3.16,1.19s8.83.54,10.38-.72c0,0,.3-.78-.12-.95,0,0,.18-.54-.66-1.19-.84-.66-4.59-1.43-5.19-2.27-.6-.84-2.09-3.46-2.21-4.35s-.89-1.85-.89-2.15-.12-4.29-.48-4.71c-.36-.42-1.37-1.31-.95-1.73.42-.42.78-.42.84-.95s-.24-7.04-.54-8.89,0-3.82.42-5.43c.42-1.61,1.07-7.93,1.13-9.6.06-1.67.12-2.15.24-2.51.12-.36-.18-1.73.12-2.62s.83-1.43.83-1.43c0,0,.66-2.68,1.01-3.22s1.79-2.39,1.61-3.52c-.18-1.13.06-3.46.06-4.65s.06-4.18.24-5.9c.18-1.73,1.55-8.89,1.73-10.5,0,0,.95-9.19.3-11.21,0,0,.48-2.56.72-3.46.24-.89.48-2.09.95-3.4.48-1.31.89-2.51,1.07-3.4s.3-1.49.3-1.91.18-.89.18-.89c0,0,.78-1.07.72-1.97s-.36-1.55-1.01-1.67c-.66-.12-.24-.42-.06-.95.18-.54-.12-2.45-.06-3.52.06-1.07.78-4.71.83-6.2.06-1.49-.24-1.49.12-1.85,0,0,.12-.54.6-.42.48.12,1.31.36,1.85.36s.6-.12.83.12c.24.24.18.89.72,1.31.54.42,1.37,1.43,1.91,1.55s2.09.18,2.27-.18c.18-.36.24-1.79.6-2.86.36-1.07.78-1.79.72-2.27-.06-.48-.72-2.45-.89-2.68-.18-.24-1.91-.84-2.09-.78-.18.06-.18-1.25-1.07-1.25s-1.97.6-2.15.72c-.18.12-1.55-.6-1.55-.6,0,0-1.19-.12-1.43-.06s-.48,0-.48-.18.54-2.33,1.43-3.58c.89-1.25,1.19-4.35-1.25-7.52-2.45-3.16-5.85-9.72-6.38-11.33,0,0,1.37,1.91,1.85,3.28,0,0-1.13-4-2.09-5.31,0,0-.3-1.79,0-1.13.3.66,2.33,2.27,2.74,2.68.42.42-2.62-3.82-2.62-5.19l.24-1.37s.78,2.33,3.22,2.51c0,0-3.34-1.67-2.62-2.45,0,0,1.25.72,2.33.6,1.07-.12,1.67-.54,1.85-1.37.18-.84.36-1.67.42-1.91.06-.24-.18-.95.12-1.91.3-.95,1.19-1.85.66-3.76,0,0-.24-1.13-.24-1.43s-.18-.66-.18-.84.6-.12.6-.12c0,0-.42-.18-.24-.66.18-.48-.24-.72-.12-1.19.12-.48-.42-1.07-.54-1.73s-.6-2.51-.6-2.8,1.01-1.25-.3-2.21C23.32,3.18,20.88.04,16.67,0Z"/>
  </g>
</svg>