<?xml version="1.0" encoding="UTF-8"?>
<svg id="Layer_2" data-name="Layer 2" xmlns="http://www.w3.org/2000/svg" viewBox="0 0 50.32 164.71">
  <g id="People">
    <path d="M49.45,54.34c-.54-1.66-1.88-8.28-2.01-9.17s-1.3-9.35-2.06-11.27c-.76-1.92-2.19-3.44-3.67-4.16l-1.48-.36s-.81-.36-.98-.36-.63-.27-.89-.36c-.27-.09-2.68-1.3-2.95-1.39-.27-.09-1.43-.67-1.52-.49-.09.18-2.64-1.12-2.82-1.74-.18-.63-1.3-3.71-1.57-5.28-.27-1.57-.27-2.86-.09-3.22.18-.36.94-1.74,1.21-2.51s.89-3.4.81-4.03c-.09-.63-.63-1.52-.89-1.57-.27-.04-.31-.27-.45-.54s-.58-2.19-.72-2.51c-.13-.31-.54-2.77-1.57-3.53S25.24.04,23.54.08c-1.7.04-3.36-.54-4.92.89-1.57,1.43-2.42,1.07-3.71,3.58,0,0-.98,1.03-.58,3.36,0,0,.18,3.13,1.03,5.01,0,0-.04.89.31,2.15.36,1.25.76,2.1,1.61,3.49s.72,1.43,1.34,2.15c.63.72,1.69,1.91,1.79,2.06.27.4.18,1.12.31,1.66s.36.63.09,1.07c-.27.45-2.91,2.42-2.91,2.42,0,0-.45.31-.63.45-.18.13-.54.09-.72.18-.18.09-.27.18-.49.31-.22.13-.13-.04-.54.13-.4.18-.49.09-.81.45-.31.36-1.07.54-1.39.54s-.76-.04-.76-.04c0,0,1.21-1.7,2.01-2.1s2.59-1.66,2.59-2.06-.49-.63-1.79-.09c-1.3.54-3.44,1.7-4.12,2.28-.67.58-.45.63-.67.58-.22-.04-.49-1.88-1.16-1.66,0,0-.36.13-.31,1.61,0,0-.63.81-2.01,2.28s-3.8,3.76-4.07,4.61c-.27.85-.81,1.48-.98,4.07-.18,2.59-.22,2.33-.22,2.33,0,0-.63.45-.63.76s0,1.34.13,1.43c0,0-.36,2.37-.72,3.58-.36,1.21-.98,3.94-.4,7.29.58,3.36.81,4.07,1.43,4.88s.85,1.48,1.48,1.61,2.55-.81,3.36-1.34c.81-.54,2.06-5.14,2.82-7.02.76-1.88,2.15-7.43,2.33-8.05,0,0,.58,2.01.58,3.98,0,0,0,.89.09,1.61.09.72-.18,1.61,0,2.01s-.67,5.55-.4,6.53c.27.98.58,1.66.72,1.83.13.18.04.31-.09.67-.13.36-.22,2.19-.31,2.59-.09.4-1.16,2.19-1.74,3.85-.58,1.66-1.92,5.95-2.19,7.29-.27,1.34-.63,3.76-.76,6.62-.13,2.86-.36,11.63-.31,14.58.04,2.95-.22,12.53-.18,12.97.04.45,3.04,1.25,7.38,1.61,0,0,1.57,6.08,1.92,8.05.36,1.97-.18,4.38-.27,7.56-.09,3.18.81,8.32,1.52,11.41.72,3.09,3.76,12.65,3.76,15.25,0,.13.09,3.31-.18,3.89s-4.29,3.4-4.29,3.4c0,0-.58-.36-.81.4,0,0-.67.58-1.66.85,0,0-.81.4-.76.89.04.49-.09.72-.09.72l-.76.18s-.27.67.13.76c.4.09,7.92.27,9.26-.09l.22-.09,3.13-.09s0,.09.45.13c.45.04,2.33.09,2.51.09s.31.31.89.31h8.32s.49-.63.54-.81c.04-.18-.54-.27-.54-.27,0,0,.09-1.03-.54-1.48-.63-.45-1.79-.98-1.79-.98,0,0-.31-.63-.94-.76,0,0-1.92-1.79-2.01-2.37-.09-.58-.18-5.23,0-5.91.18-.67,3.8-12.44,4.34-15.12s2.1-7.16,1.21-10.29c-.89-3.13-.94-8.19-.67-9.71s.4-5.37.58-5.46c.18-.09,6.22-.67,6.93-1.92,0,0-.45-8.23-.81-11.32s-.94-11.5-1.16-13.2c-.22-1.7-.54-5.14-.85-6.26s-.4-2.37-.58-3.22c-.18-.85-3.27-10.15-3.49-10.69s-.94-1.21-.98-1.43c-.04-.22.18-1.16.31-1.34.13-.18.63-.31.67-.49.04-.18,0-.81.13-1.25.13-.45.36-2.01.49-1.88s.67.81,1.21,1.03c.54.22,1.03.4,1.03.4,0,0,.36.85,1.03,1.43.67.58,3.85,1.3,5.06,2.01,0,0,.58.98,1.7.31,1.12-.67,1.39-2.64,1.66-3.53s-.27-4.21-.81-5.86ZM42.86,53.53c-.06.09-.6-.26-1.3-.36-.7-.11-1,.15-1.13.17-.13.02-.36-.11-.53-.4-.17-.3-.72-.55-.74-.68-.02-.13.08-.25.13-.7.04-.45.4-2.7.43-3.08.02-.38.15-1.06.23-1.49.09-.43.17-.13.28-.3.11-.17.04-.28.06-.51.02-.23.38-.91.38-.91.06-.04.21.45.32.87.11.42.72,3.36,1,4.27.28.91.94,3.04.87,3.12Z"/>
  </g>
</svg>