<?xml version="1.0" encoding="UTF-8"?>
<svg id="Layer_2" data-name="Layer 2" xmlns="http://www.w3.org/2000/svg" viewBox="0 0 127.82 410.36">
  <g id="People">
    <path d="M126.95,127.64c-.95-2.96-1.3-3.44-1.3-3.73s.06-2.49-.53-3.61c-.59-1.13-.65-1.9-1.72-3.02-.83-2.25-2.01-4.09-1.84-5.04-1.01-2.43-1.6-2.96-1.6-2.96,0,0-.24-2.13-.71-4.03-1.48-4.68-3.26-12.32-3.85-13.92-2.84-6.69-5.09-12.97-7.29-16.47-.53-1.72-1.3-2.9-1.9-4.09-.59-1.18-.89-1.72-3.32-2.84-10.78-3.73-23.64-8.47-23.64-8.47,0,0-1.24-1.6-4.62-3.2-2.55-1.6-3.84-3.16-5.18-3.75.03-.34.07-.7.11-1.08.6-4.98.95-8.8,1.04-9.85.34-.09,2.04-.24,2.89-.46,2.31-.62,3.67-4.55,3.67-4.55h0c0-.64-.32-1.47-.12-2.56.06-1.55,1.55-2.76,1.52-3.73,0-.12,1.61-.24,1.61-.36v-.06c0-.4-2.17.28-2.1-.05.27-1.16-2.06-2.16-2.06-2.16h-.06c-.06,0-.26-2.8-.67-3.8.18-.44,1.23-2.3-.02-7.1-.62-1.42-2.5-5.95-8.27-10.04C60.79.15,56.7,1.09,55.63.91c-1.07-.18-2.31-1.13-4.36-.87-2.04.27.28,1.57-.26,1.74-.53.18.62-1.45-2.39,1.83v.27c-7.51.09-6.99,1.33-9.12,3.73-1.15,2.67-1.94,5.42-1.94,5.42,0,0-3.01.98-2.83,8.8-2.22,2.93-1.52,6.13-.27,9.77.06.17,0,.32.11.47.45.64,1.22,1.13,2.07,1.72-.22,1.21.14,3.31.23,3.67.12.44,1.08,1.87,1.43,3.11.71-.36,1.06-1.06,1.15-.26.09.8,2.3,6.86,4.26,9.87h.37c-3.57,4.51-4.01,5.24-4.19,5.77-3.91,2.49-4.35,3.91-4.71,4.35-.36.44-1.24,1.73-1.24,1.73,0,0-4.27,1.71-10.22,3.93-11.11,4.89-12.26,5.7-13.15,6.5-.89.8-2.22,5.03-3.11,9.47-2.22,11.02-2.49,14.51-2.93,18.95-1.24,15.37-2.04,22.49-2.04,25.25C0,129.97-.27,129.71.18,134.24c-.36,5.6-.09,6.67.98,9.6,1.6,5.69,2.49,5.6,5.06,7.55,3.38,1.51,3.38,1.16,4.27,1.42s3.11.09,4.89.44c3.02,1.24,4.62.8,5.6.89.98.09,1.51.44,1.51.44l.36-1.08-.09-1.14h-.71s.07,2.56,0,2.97c-.06.41-1.78,6.26-2.08,7.68-.18,1.84-.83,4.58-1.48,6.59-.65,2.01-.89,3.77-1.13,4.42-.24.65-.47,1.94-.59,3.66-1.3,3.5-1.54,5.56-1.9,6.69-.36,1.13-1.07,4.29-1.36,5.18-.3.89-.36,1.08-.3,2.38.06,1.3-.18,4.39-.18,4.39,0,0-.65,5.87-1.07,6.82,3.08,1.6,4.86,1.9,4.86,1.9,0,0,.06.04.14.09-.04.37-.05.8-.04,1.29.06,1.76-.18.45-.5,3.71-.33,3.26-.33,3.44-.5,5.69-.18,2.25.12,1.01,0,5.04-.12,4.03-.95,3.02-.53,5.99.41,2.96.77,4.12,1.26,9.46.49,5.34,2.27,13.34,2.71,19.03.44,5.69,1.51,6.98,1.82,11.03.31,4.05,1.24,8.36,1.47,13.92.22,5.56-.4,6-.27,9.78.13,3.78-.22,3.96-.27,5.65-.04,1.69-.22,4.4-.76,7.38-.53,2.98-.89,2.53-.89,4.31s.18,1.56.4,3.47c.22,1.91.22,1.78.58,3.25.36,1.47.31,1.69.31,2.62s.22.67.53,2.18c.31,1.51.09,1.38,0,6-.09,4.62.71,20.36.67,25.39-.04,5.02.63,8.27,0,11.47-.62,3.2-.36,4.8-.05,6,.31,1.2,0,1.07.53,3.07s1.02,1.78.4,3.56c-.62,1.78-1.69,2.05-1.87,3.42-.18,1.38-.53,1.33-.31,2.71.22,1.38.13.93-.04,1.82-.18.89-.62,1.51.18,1.87.63.28.23.01.65-.14-.16.2-.34.42-.55.69-.53.68-.56.83-.83,1.45-.27.62.15.44-1.04,1.72-1.19,1.27-1.01.83-1.96,2.25-.95,1.42-1.36,2.05-2.55,3.2-1.19,1.16-3.26,2.82-5.01,4.3-1.75,1.48-2.05,2.05-2.96,2.55-.92.5-1.51.77-2.28,1.27-.77.5-1.9,1.66-1.96,3.17-.21.39-.15.3-.53.44-.39.15-.47.21-.56.59-.09.39-.24,1.33.36,1.78.59.44,3.53.95,5.75,1.3,2.22.36,6.34.15,9.49-.36,3.14-.5,10.7-2.16,12.48-3.41,1.78-1.24,2.22-2.52,2.52-3.08.3-.56.98-2.22,2.13-2.61l1.16-.39,2.52,1.3s3.26-.68,5.81-1.48c2.55-.8,3.44-1.01,3.5-2.1.06-1.1.06-5.75-.18-6.88-.12-.57-.28-1.04-.45-1.4.11.02.22.03.33,0,.58-.18.09-.53.49-1.87.4-1.33,1.16.09.98-3.56-.18-3.65-.62-3.47-.49-5.82.13-2.36.44-1.42.76-3.11.31-1.69.53-1.73.8-2.62.27-.89.8-3.02.84-13.96.04-10.94-1.07-12-.8-17.7.27-5.69.58-11.6.8-15.52.22-3.91.58-4.71-.22-6.71-.8-2-.71-2.67-.76-4.98-.04-2.31-.18-2.8.04-4.62.22-1.82-.4-7.34-.22-9.34.18-2,.67-1.87.93-3.38.27-1.51.5-3.65.5-3.65l.44-3.11s.49-7.87.8-11.07c.31-3.2-.04-5.47.44-7.6.49-2.13,1.33-2.31,1.24-3.78-.09-1.47,0-4.13,0-4.13,0,0,.04-5.25.84-7.51.8-2.27,1.11-2.05,1.56-4.4.44-2.36,1.6-7.87,2.05-10.32.44-2.45.58-3.47.53-4.36s-.04-1.6.49-.8c.53.8.53.49.62,2.27.09,1.78.09,2.8.53,4.71.44,1.91.84,1.82,1.16,3.42.31,1.6,1.65,8.36,2.62,10.72.98,2.36,3.47,11.03,4.85,14.89,1.38,3.87,1.6,4.49,2.22,7.47.62,2.98,1.78,6.67,2.53,9.56.76,2.89,1.56,8.18,1.78,9.43.22,1.24.44,2.22.8,3.78l.36,1.56s.18-.53,0,2.85c-.18,3.38-.44,4.8-.27,7.65.18,2.85-.04,6.14-.18,9.96-.13,3.82-.22,4.85-.04,9.51.18,4.67.02,5.82.57,14.36.54,8.54,1.08,12.27.85,16.05-.22,3.78-.44,5.34-.27,7.78.18,2.45-.13,2.67,1.2,4.58,1.33,1.91,1.69,1.78,1.29,3.78-.4,2-.67,1.2-.18,2.8.49,1.6,2.49,3.25,3.02,4.89.53,1.65.13,2.53,1.2,2.8.04.01.08.02.12.03-.09.22-.15.5-.15.91,0,1.1.12,5.99.15,6.43.03.44-.06,1.1.5,1.66.56.56,2.64,1.75,3.26,1.87.62.12,2.31-.09,2.43,0,.12.09.24.21,0,.62-.24.41-.89,1.19-.89,2.1s-.27,2.46.89,3.53c1.16,1.07,6.31,3.32,8.21,3.65,1.9.33,7.59.3,10.14,0,2.55-.3,3.02-.68,3.5-1.27.47-.59.33-1.3.36-2.13.03-.83-.59-3.97-.89-4.98-.3-1.01.18-1.75-.71-3.02-.89-1.27-3.23-3.62-4.15-5.13-.92-1.51-2.7-5.45-2.85-6.22-.08-.4-.1-.83-.15-1.24.12.18.16.34.15.5-.04.58.62.62.71-.93.09-1.56.53-1.69.67-2.98.13-1.29.53-.4,0-2.4-.53-2,.27-6-.89-8.45-1.16-2.45-2.05-1.29-1.29-4.71.76-3.42,1.73-4.58,1.6-7.51-.13-2.93-.36-11.78-.27-20.27.09-8.49.04-19.7-.18-22.63-.22-2.93.36-3.96-.58-6.31-.93-2.36-.93-3.47-1.07-5.42-.13-1.96-1.02-11.38-.98-15.83.04-4.45-.13-8.71.31-11.65.44-2.93,1.47-9.16,1.51-13.16.04-4-.18-10.98-.31-13.16-.13-2.18.4-7.6.04-10.89-.36-3.29-.62-7.16-.67-8.8-.04-1.65-.8-6.49-.84-9.03-.04-2.53-.58-4.36-.89-6.62-.31-2.27-.71-4.54-1.11-6.22-.4-1.69-.44-2.53-.58-3.65-.03-.21-.05-.54-.07-.95,2.53-.64,4.38-1.19,4.38-1.19l2.61-1.18.36-.71s.65.06.83-.36c-1.24-6.52-2.73-15.64-2.25-18.19-4.62-14.51-5.98-22.39-6.52-28.73l-.41-.06s-1.24-6.69-.47-9.24c14.28-.3,25.06,3.02,27.78-.24s2.43-8.71,1.24-17.48Z"/>
  </g>
</svg>