<?xml version="1.0" encoding="UTF-8"?>
<svg id="Layer_2" data-name="Layer 2" xmlns="http://www.w3.org/2000/svg" viewBox="0 0 100.6 178.16">
  <g id="People">
    <path d="M99.84,49.92c-.63-1.07-.72-3.58-.72-3.58.18.58,1.48,2.15,1.48,2.15-.4-.45-.4-1.25-.89-2.82-.49-1.57-.49-4.43-.76-5.46-.27-1.03-.31-1.3-1.03-2.77-.72-1.48-.89-2.86-.94-3.44-.04-.58-.4-1.74-.81-2.37-.4-.63-1.61-1.48-1.97-2.1s-.63-2.59-1.48-3.53c-.85-.94-1.52-1.97-2.42-3.76s-.45-1.88-1.25-2.46c-.81-.58-1.88-.58-2.86-3.58-.98-3-1.16-2.91-3.31-5.01-2.15-2.1-3.8-5.68-8.01-6.44s-3.4.72-4.92.67c-1.52-.04-5.01,2.64-6.4,4.25-1.39,1.61-1.57,5.5-1.74,6.31-.18.81-1.07,3.13-.89,4.97.18,1.83-.45,4.29-1.12,6.93-.67,2.64.67,4.03.27,5.5-.4,1.48-1.74,2.51-1.92,4.47-.18,1.97,1.12,2.73-.18,4.65-1.3,1.92-.56,3.63-.56,3.63,0,0-10.51.06-10.79.06s-.68,0-.68,0c-.34-.1-2.05-.07-2.05-.07,0,0,.14-.68-.24-.82-.38-.14-.92.51-1.37.38-.44-.14-2.74-.03-2.74-.03-.27-.1-1.23-.34-1.23-.34l-.03-.24c.03-.24.38-2.33,0-3.83-.38-1.51-2.43-3.76-2.91-4.52s-2.57-2.53-2.77-2.7c-.19-.16-.9-1.9-.98-2.1-.01-.05-.03-.12-.04-.19-.21-.92-1.64-2.81-1.64-2.81.1-.34.82-2.36.82-2.36,1.92-.34,3.29-.92,4.07-1.57.79-.65,1.54-3.05,2.02-4.14.48-1.1.72-3.46.62-3.94-.1-.48-.21-.96.14-1.13.34-.17.58-1.13.65-2.05s.14-1.54.41-2.12l.12-.26.04-.85s.27,0,.22-.22c-.04-.22-.04-.85-.04-.85l.45.45c-.18-.13-.45-.98-.4-1.12.04-.13.36-.04.72-.27.36-.22.18-.58.18-.94s-.13-1.25-.31-1.92-1.79-2.51-1.74-2.91c.04-.4-1.39-1.12-1.7-1.3-.31-.18-.76-.76-.81-.54-.04.22-.58.89-1.07.54-.49-.36.22-1.39.04-1.39s-.63.49-.81.58c-.18.09-.85.31-.85.31l-.58-.18-.49-.27s-.67.18-.81.13c-.13-.04-.58.09-.58.09,0,0-.54.13-.81.09-.27-.04-.45-.27-.45-.27-.22-.04-.4.18-.63.22-.22.04-.45.22-.63.31-.18.09-.36.18-.45.04s-1.39.09-1.61.13c-.22.04-1.66.67-2.06.89-.4.22-.67.31-.94.4-.27.09-.63.76-.63.76,0,0-.27.22-.45.36-.18.13-.4.49-.63.76-.22.27-.31.4-.45.49-.13.09-.31.67-.54.89-.22.22-.18.76-.49,1.12-.31.36-.27,1.48-.31,2.15-.04.67,0,3.27,0,3.27-.27,1.03.54,4.38.72,4.61s.31,1.43.36,2.28c.04.85-.18,1.43-.18,1.43.27-.31.54-.31.58-.09.04.22-.27,2.68-.49,2.82-.22.13-.89-.36-1.21-.58-.31-.22-.76.4-1.07.89-.31.49-.54,1.21-.76,1.34-.22.13-.76.67-1.34.76-.58.09-5.23.76-6.8,1.39-1.57.63-4.79,3.76-6.26,5.5-1.48,1.74-1.92,8.1-2.51,11.59-.58,3.49.22,4.52.22,4.92s.31,2.01.36,2.28c.04.27.31,5.06.81,7.25.49,2.19,1.48,3.8,2.28,3.94s2.59-.13,2.59-.13l.54,1.52s-.85.63-1.07.85c-.22.22-.58,1.88-.54,2.73.04.85.36,1.16.18,1.43-.18.27,0,.76-.09,1.16-.09.4-.76,1.21-.98,1.43-.22.22.04.27-.18.67-.22.4-.04,1.21-.22,1.7-.18.49-.04.89.04,1.43s-.18,1.83-.27,2.46-.72,2.59-.89,2.82c-.18.22-.13,1.03-.18,1.57-.04.54.04.72-.04,1.25-.09.54-.18.49-.13.81.04.31-.18,2.37-.18,2.68s-.09.72.04.89c.13.18-.09.54-.27.76-.18.22-.22.58-.22.98s.45,6.84.72,7.65,1.07,1.52,1.39,1.92c.31.4.13.45.36,1.12.22.67.72,3.44,1.07,4.92.36,1.48.58,8.01.98,8.86.4.85,1.12,3.18,1.03,3.76-.09.58-.67.85-.85,1.66-.18.81.13,2.95,0,3.67-.13.72-.85,1.03-1.12,1.3s.36,1.52.49,1.97c.13.45-1.74,2.91-1.92,3.31s-.31,1.83-.36,3.18c-.04,1.34-.89,7.02-1.16,9.22-.27,2.19-.58,8.45-.45,10.29.13,1.83.45,3.62.63,4.03.18.4.09.94-.04,1.3-.13.36-.31.81-.36,1.12-.04.31-.85.54-1.48.98s.58,2.24.81,2.73c.22.49,1.16.36,1.48.49.31.13-1.3.58-1.57.63-.27.04-.89.58-.89,1.83s1.03,1.34,1.03,1.34c0,0,0,.22-.27.67-.27.45.13,1.07.13,1.07-.09.18-1.48,6.04-1.48,6.04l-.09,1.34c-.09,1.34,3.58,1.52,3.58,1.52,7.2.85,17.13.58,18.65.49s1.66-1.21,1.66-1.21c0,0,7.61.58,11.85.22,4.25-.36,5.1-.98,5.1-1.66s-.54-.85-.63-1.03c-.09-.18-.72-.63-1.25-.94-.54-.31-2.51-.13-2.82-.58-.31-.45-1.39-.22-1.74-.27s-.98-.63-1.57-.85c-.58-.22-3.27-2.59-3.53-2.86s-2.01-1.21-2.28-1.39c-.27-.18-.31-.27-.45-.58-.13-.31-.63-.58-.94-.89s.36-.76.76-1.52-.13-1.12-.09-1.88c.04-.76,0-.58-.18-.85-.18-.27.18-.4.27-.76.09-.36-.45-.94-.54-1.3-.09-.36.31-.31.63-.98.31-.67.31-.94.27-1.25-.04-.31.22-.13.67-.81.45-.67.58-1.21.54-2.28-.04-1.07.13-2.64.4-4.07.27-1.43.27-4.74.27-7.07s-.36-1.52.36-2.73c.72-1.21,1.3-5.1,1.12-5.77s-.58-.72-.67-1.92c-.09-1.21-.13-1.66.98-2.33,1.12-.67.89-.63,1.03-1.57.13-.94,1.03-2.15,1.39-3.18s.98-2.64,1.21-5.06c.22-2.42.63-6.58,1.34-9.84.72-3.27,1.48-3.94,2.01-6.44s1.66-7.25,1.12-9.93-.85-3.8-.72-3.94,1.34-.94,1.16-1.39c-.18-.45-1.48-1.25-1.34-1.61.13-.36.09-1.43-.09-2.1-.18-.67-.76-.58-.54-1.21.22-.63.76-2.06.85-3.22.09-1.16-.31-2.33-.85-2.95s-.54-1.07-.54-1.07c.49-.58.67-1.57.4-3.13-.27-1.57.04-3.4.04-3.4,0,0,.45-.22,1.48-.72,1.03-.49,2.59-1.48,3.44-2.86.85-1.39,1.07-1.21,1.92-1.83.85-.63,1.43-1.83,1.43-1.83.36-.58.36-.67.94-.89.58-.22.4-.72.58-.81.18-.09,1.21-.67,1.34-.89.13-.22.04-.54,0-.67-.04-.13.22-.58.4-.85.18-.27.49-.49.76-.76s.04-1.16.04-1.16l1.57.09c.63,1.74,3.89,4.16,3.89,4.16-.04.22.04,5.37.04,5.37,3.27.36,5.82,1.52,5.82,1.52,0,0-.45,5.06-.54,6.13-.09,1.07-.4,7.69.04,8.9.45,1.21,2.24,1.52,2.24,1.52,0,0-1.57,4.79-1.88,6.13-.31,1.34-1.07,10.38-1.16,12.17-.09,1.79-.09,8.77,0,10.02.09,1.25-.31,5.82-.27,7.07.04,1.25,1.07,1.97,1.34,2.37.27.4.85,3,.85,3.58s-.27.54-.27.81.49.18.58.49c.09.31.45,11.27.76,13.15.31,1.88-.13,5.14,0,6.8.13,1.66,2.55,10.83,2.86,11.72.31.89-1.3,1.79-1.7,2.37-.4.58.36,3.76.27,3.98-.09.22-1.25,2.64-1.39,2.82-.13.18-.13.81-.22,1.03-.09.22-1.48.67-1.79.76-.31.09-.4.45-.54.49-.13.04-1.52-.36-1.79-.27-.27.09-.31,1.57-.31,1.57l-.13.72,1.39,3.94s1.57.4,3.44.31,4.52.22,5.55-.49.76-2.06,1.07-4.34c.31-2.28,2.95-5.14,3.98-5.28s1.25,4.29,1.25,4.29c0,0-.76.04-1.12-.09s-.76.13-1.16.67c-.4.54.22,1.07.22,1.07,0,0-.22.09-.31.31-.09.22,1.34,4.03,1.34,4.03,0,0,6.13.76,8.54.58,2.42-.18,2.46-.76,3-1.7.54-.94.67-2.24,1.16-3.67.49-1.43,2.01-2.95,3.67-3.94,1.66-.98,1.48-.67,1.92-.58.45.09-.31,9.26-.31,9.26l-.13.49,1.21.04.36-3.58c.36-3.58,1.43-5.91,1.74-6.49.31-.58.27-.94.45-1.03.18-.09,1.7-.36,1.7-.36,0,0,.09-.36-.18-2.06-.27-1.7-.54-13.06-.58-16.46-.04-3.4-.4-14.63-.36-16.19.04-1.57-.72-4.25-1.25-5.59-.54-1.34-.72-2.64-.76-2.77s-.36-.89-.45-1.34c-.09-.45.13-.45.09-.89-.04-.45-.27-.76-.36-1.25-.09-.49.09-.4,0-.63-.09-.22-.04-1.43.04-1.7.09-.27,0-.27-.13-.45-.13-.18-.13-.45-.22-1.12-.09-.67-.31-2.64-.22-2.86s.27-.49.18-.81c-.09-.31-.13-.58-.13-1.03s.27-1.39.18-1.88-.13-1.3-.18-2.24c-.04-.94-.22-4.29-.09-5.01.13-.72-.09-1.66-.13-2.33-.04-.67,0-1.16,0-1.74s0-1.21-.09-1.52c-.09-.31-.04-2.55-.04-3.09s.18-.36.18-.63,0,0-.04-1.34c-.04-1.34.04-1.39.4-1.97.36-.58,1.21-2.1,1.52-3,.31-.89.4-2.59.4-2.59,0,0,.63-.36.89-.89s-.09-2.46-.27-3.67c-.18-1.21-1.57-7.07-2.15-8.77-.58-1.7-1.21-4.25-1.21-4.25,0,0,2.51-.22,3.13-.45.63-.22.76-.67,1.12-1.12.36-.45.36-1.21.54-2.01.18-.81.54-2.55.36-3.27s.49-3.67.54-5.95c.04-2.28.58-5.46.63-5.64.06-.24.4.73.66,1.54-.19-1.06-.04-2.12-.04-2.12,0,.49,1.3,2.91,1.3,2.91ZM15.52,142.73c.04.47-.09,1.72-.09,1.72,0,0-.13.43-.3,0-.17-.43.39-1.72.39-1.72ZM13.89,160.17c-.21-.17-.77-.26-1.03-.52-.26-.26.43-.56.69-.6,0,0,.21.21.39.26.17.04.17,1.03-.04.86ZM14.96,155.83c-.39.26-.47.21-.39.04.09-.17.26-1.2.21-1.68s-.34-.73-.3-1.07c.04-.34.09-.95.09-.95,0,0,1.12,1.59,1.37,1.93.26.34-.6,1.46-.99,1.72ZM41.12,58.15s-.3-.57-.55-.45c-.25.13-.54.38-.48.57.05.2.14.23.27.48s.38,1.04.52,1.23c.14.2.21.3.2.46-.02.16-.57.55-.77.75-.2.2-.48.34-.82.46-.34.13-.84.2-1.05.29s-.23.05-.46,0c-.23-.05-.3-.25-.39-.32s-.2-2.11-.21-2.25c-.02-.14.09-1.18.16-1.27.07-.09.32-.45.39-.77.07-.32.14-1.91.14-2.07s0-.25.05-.25,1.52-.05,1.68-.09c0,0-.34.36-.16.68.18.32,1.2,1.48,1.3,1.59s.25.36.25.52-.05.43-.05.43ZM39.58,50.72c.07,0,2.02-.14,1.97-.09s-.18.29-.29.32c-.11.04-1.64.04-1.64.04l-.04-.27ZM42.42,55.24c-.02.32-.07.23-.13.32-.05.09-.29.43-.36.48-.07.05-.14.04-.27,0-.13-.04-1.11-1.27-1.11-1.27,0,0,.52-.05.68-.2.16-.14.2-.18.27-.36.07-.18.3-.46.41-.7.11-.23.25-.36.27-.48.02-.13.02-.27.04-.39.02-.13.34-.5.34-.5,0,0-.13,2.77-.14,3.09ZM42.85,48.45c-.11.02-3.2.07-3.2.07l-.04-.45c.18-.05,3.38-.21,3.38-.21,0,0,.04.38.04.45s-.07.13-.18.14ZM83.05,151.76c-.12.84-.24,1.19-.48,2.51-.24,1.31,0,1.79-.12,2.62-.12.84-.48,2.15-.6,2.98-.12.84-.36,2.27-.72,2.98-.36.72,0,2.51,0,2.51-.84.72-2.62,4.06-2.62,4.06l-2.62.72c.12-1.19,1.07-4.29,1.43-5.01.36-.72.6-.6.6-1.55s-.12-1.91-.6-2.86c-.48-.95-.72-.48-.36-1.19.36-.72,1.55-1.55,1.31-2.51s-1.55-2.27-1.79-3.94c-.24-1.67-.95-7.63-1.31-11.69-.36-4.06-.48-10.62-.84-11.69-.36-1.07-.24-2.62-.36-3.46-.12-.84-.72-1.55-.6-2.15.12-.6.12-.95-.24-1.91s0-1.07.48-2.15c.48-1.07,0,0-.36-.95s.36-.6.6-1.19.48-.48.6-1.19c.12-.72.12-1.55.12-1.91s.95-.48.84-.84c-.12-.36.83-2.03.83-2.03.48.36.95,3.58,1.31,4.29.36.72.72,3.7,2.03,4.77.33.27.36,1.19.6,2.27.24,1.07.6,1.31.95,1.67.36.36-.12,1.31-.12,1.31,0,0,.84.72.84,1.07s.36-.84.24.6c-.12,1.43.48,17.3.48,18.61s.6,4.41.48,5.25Z"/>
  </g>
</svg>