<?xml version="1.0" encoding="UTF-8"?>
<svg id="Layer_2" data-name="Layer 2" xmlns="http://www.w3.org/2000/svg" viewBox="0 0 188.77 219.86">
  <g id="People">
    <path d="M156.93,211.4l-2.39,8.41-120.49-.04-2.16-8.54-1.99,8.63-29.9-.24,6.13-46.39c1.29-9.72,7.19-17.75,16.12-21.6,17.18-7.41,46.87-6.31,49.41-26.57-5.59,5.49-12.51,8.91-19.93,7.01l5.75-6.17-13.06,1.89,6.58-6.85c-4.98.72-6.69,1.29-10.76.74l3.64-3.46c-4.06-4.78-10.11,1.62-9.21-2.14-.09.36,9.34-5.36,5.8-11.44-3.65-6.27-5.88-12.61-5.38-20.08-4.51,7.25-2.41,14.94,1.22,23.17-10.22-6.62-10.83-19.67-4.01-29.22,16.46-23.02,8.36-32.3,17.94-50.25C57.86,13.96,71.66,4.38,87.24.73c6.56-1.54,12.62-.76,18.11,3.3,9.19-1.44,17.1,2.12,24.28,7.39,9.94,7.29,16.65,17.6,17.23,30.36l.78,17.38c.95,21.18,22.33,20.07,12.69,39.63.54-7.41-1.38-13.9-7.92-16.94,6.13,15.94.95,18.25,4.21,34.32-2.49-1.23-3.96-3.08-6.35-6.65l-2.06,15.26-4.88-8.16.04,8.77c0,.97,2.11,3.24,2.77,4.03-5.21,2.25-9.54-.49-13.51-4.48.12,2.42,1.45,4.98,3.27,7.23-7.2,2.16-13.88-1.67-18.99-7.44-.56,18.91,32.91,20.08,48.62,26.37,8.66,3.46,15.02,10.99,16.8,20.41,3.02,15.94,4.67,31.49,6.43,48.17l-29.87.08-1.96-8.36Z"/>
  </g>
</svg>