<?xml version="1.0" encoding="UTF-8"?>
<svg id="Layer_2" data-name="Layer 2" xmlns="http://www.w3.org/2000/svg" viewBox="0 0 82.56 186.38">
  <g id="People">
    <path d="M80.54,20.78c-1.72.05-28.01,2.36-28.01,2.36,0,0-.79.59-1.13,2.36l-.25,1.18s-2.41-.64-3.49-.98c-1.08-.34-2.36-1.28-3.29-1.18s-2.11-.1-2.56-.15-1.43-.15-1.87-.2c-.44-.05-.39-.49-1.08-.69-.69-.2-1.08-.39-1.57-.54-.49-.15-.79-.69-1.18-.74s-.79-.25-1.18-.29-1.03-.2-1.33-.1-.44-.34-.44-.34c0,0-.54-3.29-.25-4.42s.54-2.6.54-2.6c0,0,.34-.1.59-.79.25-.69-.2-4.47-.44-4.77s-.54-.29-.69-.1c-.15.2-.44.29-.49.15s-.59-2.46-.69-3.19-.79-4.32-4.03-4.96c-3.24-.64-3.78-1.28-6.93-.2-2.04.7-6.34,4.67-5.75,8.11.59,3.44,1.13,4.91,1.57,5.31,0,0-1.03,0-.98.64s.25,1.47.64,2.06c.39.59,1.03,1.52,1.52,1.92.49.39.74.54.88.44.15-.1.34-.25.34-.25,0,0,.54.44.88,1.57s.64,2.51.84,3.19c.2.69,0,.93,0,.93,0,0-1.77.98-1.97,2.01-.2,1.03-.15,1.03-.74,1.47-.59.44-1.87.39-1.92.59l-.05.2s-4.37,1.38-5.55,2.01-1.87,1.03-2.21,1.33-.79.44-1.03.88-.84.69-.98,1.13-.69.39-.79.93-.79,1.23-.98,2.01-.59.98-.59,1.62,0,.49-.05,1.23c-.05.74-.44,1.33-.54,2.46-.1,1.13-.2,1.87-.25,2.65-.05.79-.15,1.03-.2,1.28s-.84,1.38-.54,1.92.05.29,0,.93c-.05.64-.39,1.23-.49,1.57s-.15.84-.15.84c0,0-.2.79-.79,2.41-.59,1.62-1.13,5.26-.88,8.11.25,2.85,1.23,5.99,2.01,6.58.79.59.98.64,2.21.25,1.23-.39,1.87-.64,2.36-.64s4.03-1.08,4.67-1.13c.64-.05,1.42-.25,1.57-.25s.2,3.59.34,5.8c.15,2.21-.2,6.73-.29,9.63-.1,2.9-.25,3.64-.2,5.11.05,1.47-.1,1.97-.15,3.1s-.29,1.38-.29,2.06.29.84.49,1.08.15,1.77.74,2.75.44.88.59,1.52.49,3.98.79,5.94c.29,1.97.39,3.93.69,5.4s.54,5.26,1.33,8.01c.79,2.75,1.38,5.06,2.01,6.93s1.03,2.95.98,4.37-.15,1.67.05,3.1c.2,1.42.05,1.92.39,2.46s.25.88.1,1.33c-.15.44-1.03,1.97-.98,2.75s.25,1.13.49,1.57,0,2.01.34,3.1.59,3.05.79,4.37c.2,1.33.49,3.39.98,4.86.49,1.47.74,3.59.79,5.36s-.44,1.77.25,3.69c.69,1.92.74,3.34,1.03,5.06.29,1.72,1.72,4.82,2.21,5.7s.25,1.23.59,1.33.84.29.84.54-.34,1.33-.29,1.62c.05.29-1.03,1.33-1.23,1.57-.2.25-.49.34-.84.64-.34.29-.88.29-1.18.59-.29.29-.54.34-.74.49-.2.15-.69.2-.88.39-.2.2-1.18,0-1.77.29-.59.29-1.28,1.13-1.28,1.13-.49.29-.88,1.13-.59,1.77.29.64.64,1.23,1.67,1.42,1.03.2,5.5,1.08,9.63.59,4.13-.49,3.39-.64,4.32-.49s3.73-.05,4.67-.1.93-.1,1.42-.25.54-.15.64-.39-1.18-4.52-1.18-4.81.2-.25.2-.64-.1-1.18,0-1.47.05-3.29-.34-4.03-1.57-3.34-1.87-4.57c-.29-1.23-.39-.79-.54-2.85-.15-2.06-.44-4.37-.59-5.06s-.59-3.49-.84-5.4-.34-.34-.39-3.1c-.05-2.75-.15-2.9-.25-4.47-.1-1.57-.05-4.77-.59-6.24-.54-1.47-.49-1.67-.74-2.51-.25-.84.2-.93.2-2.55s-.1-1.62-.29-2.8c-.2-1.18.29-4.86.25-6.53s-.05-1.72.05-3.05c.1-1.33.15-1.82.1-2.9-.05-1.08-.34-.64-.54-2.75s-.1-3.24-.05-4.03-.29-1.47.29-2.06c.59-.59.79-2.36.84-3.05s-.15-1.28.15-1.87c.29-.59.59-.69.74-.25.15.44,1.82,7.08,2.16,8.7s1.52,6.44,1.77,8.7c.25,2.26.29,2.9,1.03,4.91s.69,1.72.88,2.6-.25.88.05,1.62c.29.74.29.93.59,1.67.29.74.39,2.36.59,3.44.2,1.08.15.44.29,1.47.15,1.03-.25.98,0,2.01s.44,2.46.59,3,.15.88.29,1.57.15.88.49,2.11c.34,1.23.59,2.85.74,3.93.15,1.08.25.84.49,2.16.25,1.33.1,1.03.44,2.21.34,1.18.59,2.26.84,3.1.25.84.34,2.41.34,4.57s-.25,1.28.05,2.95c.29,1.67.54,1.57.74,2.65.2,1.08.39.98.49,2.26s-.1.44-.2,1.47c-.1,1.03-.44,2.41.3,3.44.74,1.03,1.08,2.06,1.33,2.51.25.44.98.88,1.23.88s.39-.15.64.25c.25.39.1,1.47.29,1.97.2.49,0,.15.05,1.03s-.15,1.18.1,1.77,0,.69.44.88,10.32.59,11.6.34c0,0,.88.15.84-2.51-.05-1.03-1.28-2.01-1.97-2.51,0,0-1.23-1.13-1.33-1.72s-.39-.74-.15-.98c.25-.25.25-.3.49-.74s1.33-1.97,1.33-2.85-1.72-3.54-2.21-4.08c-.49-.54.2-.49.34-1.52.15-1.03.25-8.35.05-10.17-.2-1.82-1.52-5.01-1.72-6.29-.2-1.28-.34-1.92-.34-3.73s.49-7.81-.25-9.38-.64-1.08-.93-2.7c-.29-1.62.2-1.18-.64-2.8s-1.28-3.29-1.72-4.08c-.44-.79-.88-1.33-.98-2.01-.1-.69.2-1.23.54-2.06.34-.84,1.28-6.24.93-8.01-.34-1.77-.34-1.57-.69-4.42-.34-2.85-.29-5.21-.25-6.24s.2-1.62-.25-3.34-.39-2.26-.84-3.68c-.44-1.42-.59-3.68-.44-4.91s.2-1.77.25-2.41-.15-1.62-.39-2.41-.74-1.33-.25-1.57c.49-.25,1.97-1.33,2.36-2.01.39-.69-.05-1.23,0-1.38.05-.15.34-.44.39-.74.05-.29-1.82-4.77-2.55-6.78s-2.31-7.62-2.85-9.29-1.18-4.27-1.42-6.24-.69-5.06-.49-5.01.64.34,1.03.54,1.18.74,1.33.79.2.59.25,1.03c.05.44,0,1.13.29,1.67.29.54,1.62,2.31,4.13,2.21,2.51-.1,3-.34,3.24-.74.25-.39.44-1.18,1.03-1.77.59-.59,1.77-1.67,1.77-2.85s-.2-2.11-.49-2.65c-.29-.54-1.23-1.18-.93-1.52.29-.34.88-1.03,1.18-1.18.29-.15.39-.49.74-.54.34-.05,13.71-4.96,13.71-4.96,0,0,.44-.93.69-2.16s5.16-24.08,5.16-24.08c0,0-.29-.79-2.01-.74ZM12.63,56.47s-.85-.08-1.01-.08,0-.14,0-.35.66-2.5.66-2.5c.48.66.35,2.93.35,2.93Z"/>
  </g>
</svg>