<?xml version="1.0" encoding="UTF-8"?>
<svg id="Layer_2" data-name="Layer 2" xmlns="http://www.w3.org/2000/svg" viewBox="0 0 180.4 175.12">
  <g id="People">
    <path d="M0,175.12h180.4c-2.58-10.77-5.28-21.3-7.89-30.33.56-4.84-.26-10.98-3.14-18.98-5.1-10.03-37.02-14.32-55.97-20.41-1.43-.6-2.98-1.13-4.59-1.62-.07-.03-.15-.06-.23-.09,0,0,.03.02.03.03-.25-.08-.49-.16-.75-.23-2.82-3.52-4.57-8.42-2.96-18.41,2.33-3.36,2.85-4.39,3.06-5.29,2.76-.29,2.32-3.21,3.16-6.96.52-2.33,1.76-3.04,2.86-6.52.57-.93,1.11-1.88,1.58-2.87.44-1.51.75-3.06.92-4.64.37-.6.76-1.23,1.17-1.87.1-.04.2-.1.3-.17,4.04-3.11,3.12-10.9,2.23-15.9-.89-4.95-3.84-6.08-5.12-10.87-.03-.75-.11-1.57-.24-2.43-.81-5.43-3.59-12.73-7.37-17.74-1.19-1.58-2.48-2.93-3.85-3.92C95.83.73,87.39-.4,79.68.59c-1.19-.05-2.38-.02-3.56.08-1.52-.29-3.08-.39-4.67-.28-2.72.19-5.87,1.36-8.55,3.19,1.33-1.1,2.83-2,4.48-2.68.55-.22.22-1.09-.33-.86-4.39,1.85-7.79,5.24-9.54,9.63-.25.27-.49.54-.73.82-5.7,1.59-8.41,5.07-11.17,10.19-.49.7-1.35,2.36-1.58,3.17-1.63,4.12-2.01,8.69-2,13.18-.86,1.48-1.52,3-.99,4.76.28.93.7,1.74,1.22,2.45,0,.04-.01.09-.02.13-3.62,5.48-3.89,12.76.45,17.68.49.56,1.3-.26.81-.82-1.23-1.39-.91-2.87-1.51-4.4,1.09,1.72,1.56,3.19,2.96,4.6.46,1.95,1.4,4.35,2,6.14,1.03,3.11,3.16,8.1,5.23,9.14,2.63,6.85,9,17.28,10.63,20.42.92,2.34-.24,3.94-.24,3.94l-3.44,1.62c-.61.25-1.17.5-1.71.76-.47.21-.91.42-1.3.64,0,0-.02.01-.03.02h0c-3.86,2.03-6.15,4.09-9.97,5.34-8.49,2.78-15.66,4.74-24.9,7.62-12.33,3.84-12.62,2.48-15.84,13.88-.4,1.43-.47,2.79-.28,4.12-3.22,10.1-4.48,24.91-5.09,40.04Z"/>
  </g>
</svg>