<?xml version="1.0" encoding="UTF-8"?>
<svg id="Layer_2" data-name="Layer 2" xmlns="http://www.w3.org/2000/svg" viewBox="0 0 40.84 190.5">
  <g id="People">
    <path d="M2.92,8.86s-.58,3.09-.99,3.91c-.41.82-.52,1.98,0,2.51.52.52.52.7.41,1.17-.12.47.06.82.06.82,0,0-.41.93-.87,1.69-.47.76-1.4,2.68-.58,2.97s1.57.23,1.57.23c0,0-.18,1.34,0,1.63s.52.58.7.64c.18.06-.12.29,0,.76.12.47.47,1.4.52,2.22s-.29,1.46.7,2.16c.99.7,3.27.93,3.5.93,0,0-2.22,2.57-2.33,2.86-.12.29.35,2.51.58,2.86.23.35.35.47.52.87.17.41.52,2.22.82,2.68.29.47.29.52.35.76s-.29,2.04-.23,2.86-1.05,4.72-1.05,4.72l-.76.47s-3.03,13.53-3.09,14.58c0,0-1.52,3.38-.76,6.59,0,0,.41,1.17.29,2.16s-.17,2.51-.17,3.56-.06,2.92-.47,3.44c-.41.52-.41,2.27.87,2.68l1.28.41s.47.99.52,1.22c.06.23-.58.23-.17,1.4.41,1.17,1.69,2.97,1.69,2.97,0,0,.35.47.12.76-.23.29-.23,1.46-.35,2.39s-.23,1.52-.52,2.33c-.29.82-.47,2.04-.64,2.51-.18.47-2.16,4.08-2.45,4.84-.29.76.17,1.46.29,1.98.12.52.47,4.14.64,4.26.17.12.82,1.22,1.63,1.63s2.04,1.57,3.38,1.57c0,0,.47,4.08,1.11,6.65.64,2.57,1.98,12.3,2.16,15.63.18,3.32,2.74,7.41,3.62,9.04.87,1.63,2.51,3.67,2.57,4.55.06.87-.7,10.26-.87,12.13-.17,1.87-.87,11.84-.64,13.7.23,1.87-.17,3.21.64,3.67l.82.47s-2.8,3.73-2.97,4.37l-.17.64.29.17s-3.67,4.2-7.35,4.96c-3.67.76-5.6.29-5.77.29s-.88,1.46-.52,2.22c0,0-.12.82.18.93.29.12,6.94,2.04,19.89.76l.82.29s7.35.18,8.75-.06,2.1-.23,2.51-.58c.41-.35.17-.23.17-.23,0,0,5.72.06,7.06-.58,0,0-.12-3.56-.23-3.97l.47-.76s-.52-8.98-.35-11.14c.18-2.16-1.46-2.8-1.34-4.72.12-1.92.35-15.63.06-19.13-.29-3.5-1.11-14.7-2.8-17.96-1.69-3.27-1.69-3.79-1.28-6.41.41-2.62.82-9.33,1.11-10.38s-.41-.64.52-2.33,1.69-7.23,1.81-7.7c.12-.47,2.51-6.94,2.68-11.14.18-4.2-1.17-8.75-2.1-10.79-.93-2.04-1.69-3.5-1.4-3.62.29-.12,1.34-.99,1.46-1.4.12-.41.58-9.8.52-11.43-.06-1.63.06-14.58-.47-18.14-.52-3.56-3.15-12.25-6.76-15.45s-7.17-6.24-7.52-6.76c-.35-.52-.93-2.1-.99-2.57-.06-.47-.76-1.63-.7-1.87.06-.23,2.1-4.08,2.16-4.72.06-.64,0-1.52.06-2.04.06-.52-.58-7-.82-7.81-.23-.82-1.28-2.45-1.4-2.8-.12-.35-3.09-3.85-6.59-3.85s-7.64.87-8.05,1.22c-.41.35-1.52.23-1.92.7-.41.47-.7.64-.99,1.05-.29.41-1.92.82-2.33,1.34s-.88,1.69-1.17,2.22c-.29.52-.76.87-1.17,1.52S-.05,9.56,0,10.15c.06.58.93,1.81.93,1.81.12-.18-.99-2.22-.12-2.86,0,0,.17,1.4.52,1.52,0,0,.49-2.79.76-1.98.06.18.35,1.28.35,1.28,0,0-.06-1.05.47-1.05Z"/>
  </g>
</svg>