<?xml version="1.0" encoding="UTF-8"?>
<svg id="Layer_2" data-name="Layer 2" xmlns="http://www.w3.org/2000/svg" viewBox="0 0 60.99 179.39">
  <g id="People">
    <path d="M25.28,4.38s-2.24,1.52-2.86,4.16c0,0-.13,1.88-.45,2.55l-.18.27s-1.21.13-1.07,1.03.13,2.42.54,2.59l.31.18s-.63.63-.31,1.74c.31,1.12.27,2.06.45,2.82.18.76.4,1.39.49,1.88s.04,1.97,1.12,2.55c1.07.58,1.25.54,1.25.54,0,0,.13,1.57.04,2.06s-1.12,1.07-2.15,2.15c-1.03,1.07-1.39,1.16-2.06,1.48-.67.31-4.83,2.24-6.13,2.64-1.3.4-3.76,1.48-4.16,1.74s-2.15,1.74-2.91,3.89c-.76,2.15-1.52,4.74-1.97,5.73-.45.98-1.16,3.94-1.52,5.1-.36,1.16-.89,2.19-.85,2.73.04.54-.67,3.71-.81,5.1-.13,1.39-.13,2.55-.31,3.31S.1,63.39,0,64.87c-.09,1.48.67,4.92,1.03,5.64.36.72,1.21,1.3,1.57,1.79.36.49.76.31,1.12.58.36.27,1.92.81,2.33,1.3s.67.85,1.16,1.07c.49.22,2.68.18,3.49.22l-.18.63-.67.31s-1.16,5.59-1.57,10.15c-.4,4.56-.81,13.38-.67,13.33.13-.04,2.33.18,2.33.18,0,0,.4,6.31.54,9.66.13,3.36.36,8.1,1.52,9.93,0,0,.54,1.07.54,3.27s.27,5.73.27,6.67-.18,1.43-.49,2.1c-.31.67-1.16,4.61-.98,6.22.18,1.61.98,3,.76,3.67-.22.67-.94,2.64-.89,4.12.04,1.48-.31,7.07-.36,7.69-.04.63-.67,3.94-.67,5.1s-.49,4.97-.63,5.41c-.13.45.54,1.7.89,2.19.36.49-.04,2.46-.09,3.58-.04,1.12.04,1.88,0,2.42-.04.54,0,.22-.04.54-.04.31-.31.4-.54.4s-1.88,1.25-2.33,1.74c-.45.49-.81.22-1.21.67-.4.45-1.03,1.34-.76,1.74.27.4-.27.85-.04,1.07s.31.27.89.27h13.69s.13-1.39.31-1.52c.18-.13.31-.36.4-.72.09-.36.27-1.52.27-1.79s.4-.49.58-.98,1.21-3.89,1.52-5.23c0,0,.4-1.88.27-4.92s.36-14.49.45-16.37c.09-1.88.76-14,.76-15.08s.81-3.36.94-4.97.18-11.45.36-12.21c.18-.76,1.12-3.36,1.16-6.53s-.04-6.8.4-7.29c.45-.49,1.07-1.39,1.07-1.39,0,0,.67,3.8.98,5.73.31,1.92,1.16,11.54,1.48,14,.31,2.46,1.57,11.32,1.66,12.26.09.94.04,1.74.31,3.09.27,1.34.04,5.91.31,7.74.27,1.83,1.25,11.18,1.21,12.12-.04.94-.81,5.99-.76,7.47.04,1.48.13,3.89.54,5.28s.54,4.25,1.07,4.79c.54.54,1.74.98,1.79,1.25.04.27-.18,1.48-.09,1.74.09.27.45.4.45.4,0,0,.49,2.86.45,3.67l16.82.31s.04-.85.04-1.16-.04-1.48-.31-1.7c-.27-.22-1.61-.31-3.27-1.48s-2.86-1.57-2.91-2.19c-.04-.63-.22-2.15-.4-2.37-.18-.22-1.16-.94-.81-1.43.36-.49,1.92-2.06,1.97-2.86.04-.81.27-3.4-.13-4.38-.4-.98-2.95-3.22-3.13-4.34-.18-1.12.49-2.33.31-3.98-.18-1.66-.04-4.16.04-5.32.09-1.16-1.25-6.58-.58-7.43.67-.85,1.07-1.34,1.07-2.64s-.31-3.98-1.57-5.41-.76-3.85-.81-4.83c-.04-.98.36-3.85.27-5.77-.09-1.92.72-5.14,1.21-6.53s1.07-6.58.98-8.54c-.09-1.97-.36-7.83-.13-8.14l.22-.31,5.37.31s-.04-2.68-.09-4.43c-.04-1.74-.89-6.08-1.12-7.92-.22-1.83-.45-10.07-.4-10.65.04-.58-.81-.94-.81-.94l-.27-3.31s6.71-1.03,7.87-1.74c1.16-.72,1.61-1.25,1.92-1.92.31-.67.31-1.03.81-1.48.49-.45,1.07-3.22.85-4.79s-1.07-4.74-1.12-5.55c-.04-.81-.31-2.37-.4-3s-1.34-4.21-1.3-6.04c.04-1.83-1.92-8.77-2.64-10.83s-1.74-4.21-2.37-4.79c-.63-.58-2.01-.76-2.73-.94-.72-.18-4.16-1.34-4.74-1.61-.58-.27-3.49-1.16-3.62-1.21-.13-.04-.54-.4-.54-.4,0,0-2.01-.49-2.77-1.52s-1.48-1.12-1.97-1.3c-.49-.18-.63-.45-.63-.45,0,0-.4-2.06.09-2.46s.67-.49.94-1.07c.27-.58.45-1.39.58-1.79s.72-.31,1.03-1.21c.31-.89,1.25-2.51,1.48-3.8s.31-4.88.04-5.95c-.27-1.07-.49-2.33-1.57-2.73,0,0,.49-.49.76-.18,0,0-.76-.67-1.21-.4,0,0,.31-1.57-.36-1.92,0,0,.09,1.88-.67,1.52s-1.03-1.74-1.88-2.37c-.85-.63-3.22-.4-4.03-.63-.81-.22-1.07-.76-2.06-.72-.98.04-1.97.22-2.37.49s-1.83-.09-1.83-.09c0,0-1.21-.31-1.43-.76,0,0,.63,1.16,1.52,1.25,0,0-.63,1.57-1.83,1.16,0,0,1.48.27,2.01.04,0,0-1.66,2.19-2.33,2.15,0,0,1.74.04,2.28-.22Z"/>
  </g>
</svg>