<?xml version="1.0" encoding="UTF-8"?>
<svg id="Layer_2" data-name="Layer 2" xmlns="http://www.w3.org/2000/svg" viewBox="0 0 45.45 162.58">
  <g id="People">
    <path d="M45.06,39.37c0-.06-.01-.12-.02-.17,0,0,.27-.63.09-1.39-.18-.76-.36-2.42-.4-3.27-.04-.85-.63-2.91-.81-4.07-.18-1.16-.45-2.33-.67-2.82-.22-.49-2.77-3.76-2.59-5.46.18-1.7-.09-2.55-1.25-4.43s-.58-3.04-.72-4.12c-.13-1.07-2.06-7.56-3.31-9.35-1.25-1.79-2.37-3.27-3.94-3.22,0,0-.45-.58-1.3-.72-.85-.13-.76.09-.76.09,0,0-.49-.4-.98-.31-.49.09-.27-.36-1.39,0-1.12.36-1.16-.09-2.1.09-.94.18-3.86.41-5.06,1.25,0,0-.05.5.42.72,0,0-3.08,1.89-3.63,5.82,0,0,.85,1.04,0,1.74-1.48,1.44-2.91,1.99-2.51,2.49,0,0,.46.58,1.3,1.06,0,0,.56.34.09,1.06,0,0-.28.39.11.59.39.2,1.21.42.11.82,0,0-.76.23-.46.86s.6.49.11,1.85.68,1.88,1.43,1.91c0,0,2.98-.26,2.89.18-.09.45-2.24,2.24-1.92,5.37,0,0-.09,1.25.49,1.97,0,0-1.66.94-3.4,1.57-1.74.63-1.97,2.42-2.51,4.25-.54,1.83-2.06,5.1-2.64,5.68l.31,1.21-.98,1.52s.67-.58.98-.58c0,0-.13,1.7-.22,3.4-.09,1.7.13,5.28.18,5.46.04.18.09-5.19.58-6.49,0,0,.45,2.37.31,3.76s-1.03,6.53-1.61,7.83c-.58,1.3-2.68,5.68-3.62,10.83-.94,5.14-1.39,6.26-2.28,8.45-.89,2.19-.49,4.25-1.21,5.55-.72,1.3-1.7,3.58-2.06,4.47s.13,2.06.31,3.36c.18,1.3,1.12,1.92,1.34,1.97.22.04,2.42.49,2.68.36s1.52-1.21,1.88-1.43c0,0,.94,8.14,1.39,12.75.45,4.61,3.22,14.99,3.13,16.91-.09,1.92-.27,2.73.67,5.06,0,0,.54.22.09,2.95-.45,2.73.45,2.68.49,3.62.04.94.94,1.88.98,3.27.04,1.39.18,4.07.49,6.17.31,2.1,1.66,7.61,2.19,9.62.54,2.01.45,2.1.49,2.28.04.18-.49.27-.58.58-.09.31-.31,1.66.4,3,0,0-.36.72-.89,1.21s-1.97,1.57-2.59,1.83-2.59.76-3.4,1.21c-.81.45-1.25.67-1.12,1.52,0,0-.85-.04-.76.58,0,0,1.39.63,2.55.58s9.22-.09,9.35-.04c.13.04,1.25.18,2.77.18s7.38.45,9.71.09c2.33-.36,2.1-.4,2.59-.36.49.04.49-.54.54-.72.04-.15-.27-.14-.37-.14.16-.02.88-.16,1.04-1.47.18-1.48-.4-4.92-.27-5.41s.36-1.39.58-1.57c.22-.18.85-.54.98-.72s-.4-3.44-.4-3.44c0,0-.31-.31-.54-.31s-.49-4.61-.49-5.99.49-2.64.13-5.91c-.36-3.27-2.51-14.76-3.44-16.33,0,0-.63-.63-.31-.98.31-.36.22-.94.09-1.3s-.54-.72-.67-1.21c-.13-.49.09-.58-.04-1.21s-.67-.89-.49-1.57c.18-.67.81-1.7.89-2.91.09-1.21-.49-2.68-.09-4.07.4-1.39,2.1-8.37,2.82-10.47.72-2.1,1.92-8.37,1.92-10.96,0,0,.72-1.07,1.25-3.13.54-2.06.31-1.88.58-2.24s.22-1.25.49-2.01,3.09-6.17,4.29-9.71c1.21-3.53,2.28-7.52,2.46-8.59.18-1.07.13-5.86.18-8.37.04-2.44-.13-9.65-.38-12ZM5.87,85.67s-.6-.54-.72-1.01c-.12-.48.32-.74.8-2.59.4-1.53.5-2.06,1.04-3.43.07-.2.44-1.13.49-1.23,0,0-.01,1.13-.12,1.41-.78,2.35-1.49,6.85-1.49,6.85ZM25.16,157.09l-.13-.27c-.13-.27-.18-.85-.13-.99.04-.13.31-.22.36-.54.04-.31-.09-2.82-.18-3.27-.09-.45-.22-.4-.27-.58s-.09-1.39-.04-2.19-.27-6.67-.4-7.84c-.13-1.16-.58-3.58-.58-3.58.13.45.9,1.66,1.07,2.15.18.49.09,2.78.31,4.34.22,1.57,1.21,4.75,1.16,5.02s-.09.22-.4.49c-.31.27-.09,2.33.09,3.18.18.85,1.3.67,1.25.98-.04.31-2.1,3.09-2.1,3.09ZM39.54,59.07c-.4.99-1.93,6.63-2.33,7.97-.4,1.34-1.66,4.66-1.66,4.3s0-.67-.09-.9.31-.36.36-.85-.63-1.3-.76-1.79c-.13-.49-.13-1.21-.18-2.06-.04-.85.31-2.19.22-3.05-.09-.85-.4-1.34-.31-1.52.09-.18.4-.36.76-1.48.36-1.12.04-2.42.45-3.49.4-1.07,2.19-4.75,2.19-4.75,0,0,.72,1.79.99,3.4s.76,3.22.36,4.21Z"/>
  </g>
</svg>