<?xml version="1.0" encoding="UTF-8"?>
<svg id="Layer_2" data-name="Layer 2" xmlns="http://www.w3.org/2000/svg" viewBox="0 0 34.84 178">
  <g id="People">
    <path d="M34.03,15s.9-.35.8-1.06c-.1-.7-1.34-1.44-1.44-2.3-.1-.86.1-.99.1-1.38s-.03-1.86-.13-2.75c-.1-.9-.06-3.2-1.02-4.19S27.79-.01,25.26.5c0,0-.96-.61-2.5-.48-1.54.13-6.05.77-8.29,4.74s-3.14,6.31-3.71,9.79-2.21,8.16-2.98,9.83-.74,3.59-1.18,4.32-2.37,5.76-2.69,7.62c-.32,1.86-.67,3.62.26,5.76.93,2.14,2.34,4.67,2.72,4.96.38.29.42.74.45.83.03.1.93,4.13.96,4.71.03.58-1.02,6.21-1.44,8.32s-1.02,3.23.38,4.45c0,0,.64.38.54.93s-.93,2.08-1.12,2.91c-.19.83-.29,1.22-.26,2.08.03.86-.26,1.54-.58,2.21-.32.67-.86,1.47-.77,2.88.1,1.41-.19,1.38-.58,1.98s-.35,1.31-.19,2.82c.16,1.5.77,4.64,1.54,6.08s1.54,3.97,1.82,4.77c.29.8.06,1.22.32,1.89.26.67.61,1.41,1.02,1.95.42.54.03.86.1,2.43s-.29,3.68.13,5.28c.42,1.6.42,2.95.19,3.39-.22.45-.83.86-.74,1.6.1.74.13,1.34.03,2.3-.1.96-1.02,3.94-1.02,5.22s-.22,1.92-.54,2.43-1.18,1.89-1.31,4.03c-.13,2.14-.22,2.94-.7,3.97-.48,1.02-1.25,5.09-1.47,6.5-.22,1.41-1.5,6.4-1.66,8.83-.16,2.43-.58,8.07-.32,9.83.26,1.76.7,3.36.7,4.96s.19,1.79.26,2.27c.06.48.29,1.18-.19,1.41-.48.22-1.31.64-1.5,1.31-.19.67-.9,3.75-.93,4.29-.03.54.32.99.83,3.42.51,2.43.67,4.67.9,6.02.22,1.34-.1,2.21.22,2.24.32.03,1.6.26,1.76-.35.16-.61-.29-6.56.35-6.98s.93-.42,1.12-.26c.19.16,4.16,2.94,4.61,3.59s1.41,3.36,2.4,3.87c.99.51,1.47.54,5.31.51s7.36-.29,7.55-.38c.19-.1.29-.61.16-.8-.13-.19-.64-.48-.7-.58-.06-.1.16-.99.13-1.18-.03-.19-1.98-.67-2.56-.86s-2.53-.96-2.78-1.06c-.26-.1-1.22-1.22-1.34-1.47s-2.63-5.12-2.91-5.41c0,0-.74-2.95-.7-3.46.03-.51.93-1.86.9-2.56-.03-.7-.83-1.12-.9-2.08-.06-.96.13-1.09.42-1.54.29-.45,1.09-2.34.9-2.98s-.58-3.01-.29-4c.29-.99,1.18-6.11,1.47-6.91s1.66-8.93,1.57-9.73c0,0,1.25-.99,1.38-1.98.13-.99.1-2.11.32-2.3.22-.19.8-.35,1.02-.77.22-.42.96-2.11.99-2.5.03-.38-.22-.38.16-.86s1.54-3.87,1.6-4.77c.06-.9.7-5.44.96-6.66.26-1.22,1.54-7.75,1.89-9.47.35-1.73,2.08-9.99,2.11-11.14.03-1.15,1.38-11.65,1.7-12.52.32-.86.67-1.54.74-1.73.06-.19-.29-4.83-.35-5.51-.06-.67-.13-1.25-.38-1.34-.26-.1-.64-.03-.8-.22-.16-.19-.42-.38-.38-.67.03-.29-.32-3.97-.45-4.19-.13-.22.35-.7.51-.8.16-.1,1.31-.13,1.76-.48.45-.35,2.05-.93,1.92-3.71-.13-2.78-.64-2.62-1.22-3.01,0,0-1.09-3.33-1.86-4.26-.77-.93-.83-1.79-.61-2.27.22-.48,1.79-2.62,1.95-4.1.16-1.47.22-3.17-1.12-5.67s-2.14-5.06-2.14-5.06c0,0-.1-.38.06-.26.16.13.99.8.99.8,0,0-.61-1.09-.96-1.47s-.42-.83-.42-.83l1.6,1.12s-1.44-1.44-1.54-1.7-.64-1.79-.64-1.79l1.63,1.76s-.54-2.27-.7-2.75c-.16-.48-.26-2.08-.26-2.43,0,0,1.06,3.14,2.24,4.03,0,0-1.15-5.99-.45-6.63,0,0-.19,4.07,1.25,5.35,0,0-.58-8.61.29-10.28,0,0-.29,5.31.67,7.78,0,0,0-7.49.45-7.84,0,0,.9-.16.67-1.18s0-1.34.22-1.6c.22-.26.38-1.41.19-1.66-.19-.26.13-.54.22-.74s-.19-.86-.06-1.06c.13-.19.35-.61.45-.61Z"/>
  </g>
</svg>