<?xml version="1.0" encoding="UTF-8"?>
<svg id="Layer_2" data-name="Layer 2" xmlns="http://www.w3.org/2000/svg" viewBox="0 0 187.63 218.95">
  <g id="People">
    <path d="M187.63,218.88l-165.27.07-22.36-.06c.89-14.93,1.93-29.77,4.45-44.35,2.26-13.03,10.95-21.25,23.2-24.93,13.09-3.93,34.64-10.78,40.65-24.33l-11.45-5.18-2.22.9c-.59.24-2.27-1.13-2.75-1.58-6.61-6.23-8.17-15.13-9.44-24.1-.3,6.05,1.05,12.33,1.95,18.53-11.18-13.91-1.03-63.58,3.41-79.61C53.09,15.24,67.86,2.83,87.09.34c6.13-.79,11.78-.27,17.35,2.6,20.64-3.16,32.58,13.83,36.97,32.13,3.59,14.96,6.01,29.75,7.68,45.2,1.02,9.39.42,18.93-2.33,27.51-2.24,6.97-6.48,11.4-13.2,14.47-6.17,2.82,1.32-4.32-13.38,2.96,7.72,13.89,28.39,19.29,41.98,23.88,11.55,3.74,19.48,12.47,21.5,24.58,2.46,14.72,3.31,29.07,3.97,45.21Z"/>
  </g>
</svg>