<?xml version="1.0" encoding="UTF-8"?>
<svg id="Layer_2" data-name="Layer 2" xmlns="http://www.w3.org/2000/svg" viewBox="0 0 72.83 167.49">
  <g id="People">
    <path d="M72.76,41.38c.14-.14.04-.34-.18-.68-.22-.34-.95-1.03-1.35-1.67-.4-.64-.42-2.62-.62-3.82-.2-1.19-.72-4.04-1.33-4.85-.62-.82-4.81-3.12-5.15-3.34-.34-.22-.7-.4-.85-.42-.16-.02-.6-.04-.78-.22-.18-.18-1.35-.91-1.59-1.05-.24-.14-.4.08-.72-.32-.32-.4-1.19-1.35-1.37-1.41-.18-.06-1.41.2-1.55.08-.14-.12-.82-1.83-.91-2.11-.1-.28.06-.62.48-.62s.89-.18,1.25-.66c.36-.48.5-1.31.97-1.55s2.39-2.27,2.84-2.68.5-.74.64-1.39.36-1.93.58-3.1c.22-1.17-.91-1.29-.91-1.29.52-.7.06-.99-.22-1.51s-.84-.64-.93-.72c-.1-.08.16-.18.2-.52.04-.34-.4-.93-.54-1.13-.14-.2-.48-.3-.56-.8s-.42-.8-.5-1.21c-.08-.42-.3-1.21-.46-1.53-.16-.32-.2-.26-.85-.7-.66-.44-2.15-1.19-5.11-1.93s-4.85.34-6.64,1.17c-1.79.83-1.69,1.57-1.69,1.57-.34.24-1.89,3.1-2.45,3.88-.56.78-.5,1.39-.46,1.93.04.54-.48.89-.89,1.17-.42.28-.68.62-.64.97v.1c-.04.27.95,1.07.95,1.07,0,0-.42.72-.48,1.73-.06,1.01.45,2.03.66,2.48.21.45.3.39.33,1.04s.57,1.34,1.37,1.97c.81.63,3.31,3.28,3.64,3.79.33.51-.15,3.46-.15,3.46-2.48.78-5.73,3.64-5.73,3.64-4.21.45-6.47,2.51-6.47,2.51l-3.85-1.4c-4.09-1.49-3.67-.81-3.67-.81l1.73,4.5c-.33-.09-5.7.6-6.53.75-.84.15-1.79.66-2.3.81-.51.15-3.76-.24-3.76-.42s-.24-1.1-1.64-3.07c-1.4-1.97-3.85-6.77-4.62-8.38-.78-1.61-2.06-5.61-2.09-6.5-.03-.89.57-1.52.69-2.12.12-.6.12-1.67-.06-2.51-.18-.83-.24-1.25-.15-2.15.09-.89.18-1.1-.33-1.37-.51-.27-1.16.48-1.37.84-.21.36.15,1.31.12,1.61s-.45.51-.63.42c-.18-.09-.86-.63-1.07-.92-.21-.3-.69-1.04-1.13-1.46-.45-.42-1.1-1.55-1.25-1.64-.15-.09-.09-.54-.21-1.1-.12-.57-.51-1.13-.42-2.06.09-.92-.57-1.01-.57-1.01l-.24-.63c-.45-.69-1.25-.03-1.25-.03.03.45.03,2.15.21,2.98.18.84.36,2.86.72,3.58.36.72.42,1.46.45,1.85s.57,1.16.86,1.67c.3.51.81,2.24,1.1,2.8.3.57.39,2.24.48,2.65.09.42,1.34,4.44,1.85,6.26.51,1.82,2.77,9.16,3.37,10.53s1.7,5.01,2.33,6.23,1.7.92,3.01,1.04,4.32,1.31,9.1,1.4c4.77.09,7.84-.75,7.84-.75,0,0-.27,5.79-.48,6.53-.21.75-.27,4.89-.42,6.41s-1.22,7.99-1.4,9.42c-.18,1.43-.86,6.11-1.25,7.07-.39.95-1.88,5.96-1.88,6.05s1.4,1.04,1.43,1.4-.12.75-.33,1.1c-.21.36.18.89.24,1.4.06.51-.24,1.16-.45,2.03s0,5.52.03,6.92c.03,1.4.51,6.53.66,7.22.15.69.03,3.28.15,4.41.12,1.13.21,4.12-.03,4.92-.24.81-1.01,2.68-.84,3.52.18.84,2.83,1.13,2.83,1.28s.15,2.06.18,2.48c.03.42.36,2.33.39,2.89s-.06,2.12.06,3.16c.12,1.04-.15,5.49-.24,7.34-.09,1.85.89,7.96,1.1,9.36.21,1.4,1.67,10.95,2.03,13.09s-.33,5.13-.57,5.79c-.24.66-4.35,2.83-4.65,3.13s-2.62,1.61-2.86,1.76c-.24.15-1.22.36-1.58.39s-.6.89-.72.98c-.12.09-1.13-.09-1.76-.12s-.54.6-.66.75c-.12.15-.42.3-.89.45-.48.15-.18.72-.18.72,0,0-1.16.06-1.49.06s-.21.66-.21.66c2.06.75,22.87.06,22.87.06l.21-.42-1.1-.27s1.13-.21,1.91-1.07c.78-.86-.12-4.03-.42-6.71s-.48-6.83-.21-9.19.33-7.58.51-10.2c.18-2.62.48-4.53.42-6.68s-.98-5.7-1.55-7.58.36-3.67.6-4.77-.21-3.7-.3-5.37c-.09-1.67.15-2.98-.09-4.12s1.34-3.91,2.09-6.59c.75-2.68.98-2.74.98-2.74.09.42.21,4.09.21,5.58s-.66,4.71-.66,4.71c.27.42,2.3,1.01,2.27,1.13-.03.12-.66,6.86-.78,8.23-.12,1.37,1.16,5.43,1.31,6.56.15,1.13-1.04,4.83-1.28,7.49-.24,2.65.36,9.93.48,12.56.12,2.62.3,7.75-.03,8.83-.33,1.07-.09,1.97-.33,3.07s.12,3.04.21,4.26c.09,1.22.78,2.98.78,2.98l-.06.12c-.06.12.18.72.18.72h12.2s.33-.06.33-.24.27-.36.21-.45c-.06-.09-.92-.09-.98-.27-.06-.18.12-.48.12-.48.09-.89-.57-1.01-1.01-1.19-.45-.18-2.09-1.22-2.09-1.22.09-.12-.21-.48-.69-.6-.48-.12-1.94-1.29-1.94-1.29-.16-.2-.18-.52-.18-.93s-.36-1.15-.42-2.37c-.06-1.21.22-4.27,1.07-7.02.85-2.74,2.01-5.75,2.27-7.14.26-1.39,1.09-4.65,1.41-6.04.32-1.39.7-5.59.66-7.1-.04-1.51-.38-2.82-.72-4.12-.34-1.29-.38-4.06-.48-5.11-.1-1.05.38-4.06.48-5.33.1-1.27.24-2.11.32-2.17.08-.06.97.12,1.77.12s1.69-.24,1.87-.54.32-1.11.34-2.54c.02-1.43.54-3.46.68-4.57.14-1.11.36-1.73.54-3.08.18-1.35.48-4.59.66-6.8.18-2.21-.04-4.93.06-6.84s0-4.08,0-4.08c.74-.14,3.18-.87,3.42-1.41.24-.54.04-1.67-.02-2.62-.06-.95-.5-2.23-.54-3.88-.04-1.65-.48-3.02-.66-6.18s.14-3.98.48-5.84c.34-1.87.62-3.42.62-3.42.32.2,3.42,1.65,3.62,1.73.2.08.52.26,1.05-.18.54-.44,1.37-.93,2.01-4.85.64-3.92-.16-9.13-.16-9.13-.32-1.63-.44-3.14-.42-3.62.02-.48.24-1.41.02-2.17-.22-.76-.85-1.51-.68-1.65.18-.14,1.67-1.37,1.81-1.51Z"/>
  </g>
</svg>