<?xml version="1.0" encoding="UTF-8"?>
<svg id="Layer_2" data-name="Layer 2" xmlns="http://www.w3.org/2000/svg" viewBox="0 0 113.82 384.27">
  <g id="People">
    <path d="M113.82,121.06s-.05,0-.07,0c-.64-.64-3.68-17.25-10.31-37.79-2.61-6.19-3.41-9.91-14.48-14.8,0,0-3.74-1.16-7.73-1.7-3.51-.47-5.52-1.43-6.39-1.4-.53.02-.84.12-1.01.2-1.13-.15-2.52-.35-4.08-.74-1.99-.5-3.4-1.28-3.54-3.26-.23-3.42-.37-7.69.25-9.37.57-1.53,1.24-3.34,1.78-6.43,0,0,0,0,0-.02.06-.35.64-.94,1.94-1.99s1.8-2.23,3.06-5.02c1.26-2.79.84-1.92,2.09-7.13,1.24-5.21.56-5.58,0-9.55-.56-3.97-1.24-4.71-2.67-8.25-1.43-3.54-3.91-6.08-6.39-8.37-2.48-2.3-6.2-4.03-7.75-4.34-1.55-.31-.87-.62-.87-.62-.37-.56-1.36-.5-2.36-.37-.99.12-1.8-.12-2.79,0-.99.12-1.3.31-1.86.62-.56.31-1.43.87-3.6,1.92-2.17,1.05-1.43,1.12-3.66,3.1-2.23,1.98-3.04,2.67-6.39,6.95-3.35,4.28-4.53,7.51-5.33,12.03-.81,4.53-.74,5.58-.5,7.94.25,2.36,0,2.67.5,4.9.5,2.23,1.18,2.85,1.55,4.9.37,2.05,1.98,2.92,3.29,4.47.72.86,2,2.49,2.75,3.47.03.05.06.09.09.14,0,0,0,0,0,.01.04.06.08.13.13.19,0,0,0,.02.02.02.02.02.03.03.04.05.74,1.01,1.54,1.71,1.69,2.19.25.81.97,8.8.5,10.54-.74,2.71-5.43,3.86-8.18,5.06-.08-.23-.17-.46-.22-.67,0-.02-.12-.03-.12-.05-.06.03-.18.06-.24.09-.67.31-1.29.59-1.77.81-2.82,1.3-3.92,1.3-5.44,2.17-1.52.87-3.49.37-8.99,3.47-4.15,2.34-8.35,7.01-9.9,17.15-.41,2.69-1.28,7.36-2.34,12.16l-1.28,7.1c-.17,2.92-2.82,14.45-3.22,17.75,1.23,1.03,2.95.91,4.34,1.62,0,.04,2.86.65,2.86.61h0s.09.03.26.08c0,.02,0,.04,0,.06.54,7.89.18,10.43.18,12.3,0,2.46-.4,3.06.12,7.56.52,4.51-.26,8.98,0,18.95.25,9.72,1.59,13.58,3.78,26.53.06.35.12.7.18,1.05.51,6.29.76,9.69.89,10.65.05.4-.09,2.17-.31,4.32-.3,3.04-.74,6.83-.97,8.52.7,2.6,2.04,4.51,3.12,6.15.03.03.06.06.08.09,1.04,1.07.75,1.01,1.06,1.07.24.05.93,1.04,1.74,2.11.14,1,.28,2.01.41,3.04,1.25,9.53,6.64,40.82,6.84,44.1.19,3.27,0,3.47.42,5.68.42,2.21.35,2.02-.42,5.3-.77,3.27-.19,5.3.39,10.98.58,5.68.48,17.81.58,28.02.05,4.81.37,8.78.72,11.85.14,4.88.25,8.76.29,10,.04,1.18.15,2.25.29,3.23.36,2.57.89,4.41.65,5.2-.01.04,0,.07,0,.09-.03.17-.18.68-.8,2.16-.96,2.31-4.91,6.45-6.55,8.57-1.64,2.12-6.16,4.72-9.05,7.41-2.89,2.7-1.73,5.1-1.73,5.1-.87,2.7,2.7,2.5,7.03,3.08,4.33.58,13.38-.1,15.5-1.06,2.12-.96,1.93-2.5,2.79-4.62.87-2.12,2.5-3.66,2.5-3.66l3.66,1.54s7.99-1.93,8.67-2.89c.67-.96.1-4.43-.58-5.1.96-5.58-1.86-7.38-1.57-8.15.24-.65,1.13-1.8.93-3.07h0s-.01-.04-.01-.04c-.04-.23-.1-.45-.22-.68-.26-1.2-.46-2.46-.6-3.76-.44-3.82-.42-7.95-.07-11.7.15-1.58.35-3.08.61-4.47.3-1.16.76-2.4,1.14-4.45h0c.47-2.54.81-6.33.56-12.77-.15-4.02-.23-7.22-.26-9.79,0-.45-1.3-19.94-1.3-19.94,0,0,1.81-16.62,3.86-28.87h0c.8-5.96,1.43-7.74.99-12.47-.31-3.3-.37-4.47-.24-5.81.05-.35.09-.74.14-1.16.14-.95.33-2.19.58-4.19.42-3.42.38-4.02.18-4.59.41-5.74.7-11.45.58-11.55.14.1.3.22.5.35,1.35.87.39.67.48,3.66.1,2.98-.19,5.1.48,12.52.67,7.41.58,13.29,1.36,19.55.79,6.26,1.52,15.21,2.2,19.16.03.17.06.32.09.49.08.06.11.23.09.49.51,2.62,1.13,4.75,1.32,6.55h0s0,.03,0,.05c.02.31.04.6.05.88.08,1.33.15,2.26.2,2.92.15,1.93.19,1.49.19,1.49,0,0-.02.27-.05.76-.2,2.86-.87,13.46-.85,23.83,0,2.84.06,5.66.19,8.3h0c.05,2.23.1,4.6.15,6.94,1.26,11.19.41,20.77,0,23.12,1.56,1.96,2.32.6,2.01,2.72s-1.09,6.1-1.09,6.1c0,0-.1,1.16-.77,3.08-.67,1.93.67,3.08.19,3.76-.48.67-.1,2.6-.1,4.14s8.09,3.37,8.09,3.37l2.6-1.93s3.95,1.54,4.72,2.31c.77.77-.39,2.7,4.81,5.58,5.2,2.89,21.28,1.06,23.01-.1,1.73-1.16.29-1.25,0-3.18-.29-1.93-1.35-3.37-3.18-4.33-1.83-.96-5.01-2.7-7.89-4.81-2.88-2.12-7.8-9.05-9.25-11.46-1.44-2.41-1.83-2.12-1.83-2.12,0,0-.67-.58-1.35-2.12-.17-.39-.16-.63-.02-.8.88-.69,1.39-1.73,1.69-2.78.3-1.06,1.3-9.36,1.6-15.96.29-6.64,1.73-29.08,1.73-31.77s.29-2.7,0-4.53.1-3.95.67-5.97c.58-2.02.58-3.08-.29-4.24-.87-1.16-.63-2.26-.63-2.26,0,0-.24.24-.34-1.11-.1-1.35.57-3.29.48-6.08-.1-2.79.79-9.05,2.04-16.66s3.74-23.23,3.85-32.75c.04-3.18.27-6.09.55-8.97,2.26-.48,4.14-3.26,6.7-8.03,0-.02.02-.03.03-.05-.01,0,0-.06.01-.14.1-.38.57-1.54,1.2-3.04,2.75-.17,5.36-3.18,6.27-4.92.44-2.54-.43-4.05-1.61-4.95,1.04.16,1.28-3.73,1.66-10.2-.23-2.52,2.01-15.09,3.08-20.9,1.07-5.8,2.74-14.35,1.74-20.07-.67-3.84-1.26-13.86-1.99-23.39,1.79-.28,3.31-1.19,4.12-1.76.43-.28.63-.47.63-.47Z"/>
  </g>
</svg>