<?xml version="1.0" encoding="UTF-8"?>
<svg id="Layer_2" data-name="Layer 2" xmlns="http://www.w3.org/2000/svg" viewBox="0 0 177.82 220.86">
  <g id="People">
    <path d="M153.66,155.27c12.9,4.41,20.74,13.66,21.63,27.13l2.53,38.24-177.82.21,2.63-39.47c.81-12.11,7.69-21.07,19.07-24.98,11.92-4.09,23.35-8.48,34.65-14.25,6.39-3.26,11.83-10.46,8.29-17.18-2.29-1.41-5.61-3.52-7.43-5.91-.21-.12-.67,3,0,3.75l2.75,3.05c-5.43-1.15-7.92-5.36-10.82-9.81l-1.55,5.31c-4.03-4.1-7.66-.92-9.75-3.5-1.1-1.36-1.18-4.88-1.17-6.87-.75.11-3.21.85-3.65.07s-.69-3.1-.41-3.93l.97-2.98c.24-.73-1.58-2.05-1.64-1.77l-4.66,2.38,1.63-2.46c.7-1.05-5.09-2.27-7.88-6.46-1.56-2.34-.23-6.48-.27-9.08-.08-5.43.91-9.56,5.66-12.78,1.33-.9,3.36-4.49,2.26-5.61-4.47-4.52-5.43-11.04-.13-15.25,17.76-14.07,3.93-23.49,27.09-39.71,4.72-3.3,8-9.12,13.84-11.19,11.51-4.07,23.72-2.55,33.76,4.4,28.42-1.5,20.22,13.43,39.59,25.16,13.87,8.4,1.58,19.49,9.68,23.2,14.99,6.88-1.73,18.15,4.41,26.83,1.18,1.67,6.19,1.75,7.69,1.25-4.09,3.21-8.15,3.09-12.11-.1-9.58,7.73,10.05,8.1,3.29,17.84-1.68,2.43-4.23,4.53-7.05,6.99l3.76,3.28c-3.03.97-7.53.47-10.84-.96-1.52-.66-5.33,2.78-4.53,4.34,1.29,2.53,3.47,4.25,5.64,6.47-2.99-.42-6.27-1.52-8.82-2.43-1.22,1.63-3.31,4.48-4.84,5.16-1.87.84-5.51-1.02-6.34-2.28l-5.23,4.77-.48-3.99-5.49,1.67c-1.01,8.14,2.66,14.58,9.94,18.37,10.06,5.24,20.73,9.19,32.09,13.07ZM156.72,67.52c3.01-4.5-.12-8.39-4.16-10.42-1.06-.53-3.38-1.74-3.44-.82-.54,7.82,2.5,1.49,7.6,11.24ZM29.08,99.24l-1.16-8.09-3.29.51c-.86.13-1.49,3.04-1.02,3.77.98,1.53,3.97,3.43,5.47,3.81ZM152.91,99.22c.06-1.62-3.56-3.8-5.22-4.25l-.63,10.93c2.47-.76,5.73-3.4,5.85-6.67ZM40.02,117.08c2.08,2.01,5.06-1.33,5.29-3.14.17-1.37-1.52-3.6-2.78-3.88-2.17,1.21-4.42,5.17-2.51,7.02Z"/>
  </g>
</svg>