<?xml version="1.0" encoding="UTF-8"?>
<svg id="Layer_2" data-name="Layer 2" xmlns="http://www.w3.org/2000/svg" viewBox="0 0 54.31 193.39">
  <g id="People">
    <path d="M54.25,49.58c-.04-.13-.25-.2-.25-.36s-.29-.94-.81-.92c-.51.02-.63.18-.63.18l-.31-.04s.22-1.03.09-1.21c-.13-.18-.63-.83-1.3-.69-.67.13-1.23.76-1.32.89-.09.13-.4-.36-.43-1.19s-.07-1.48-.74-1.52c-.67-.04-1.59-.09-2.06,1.1,0,0-.51-.65-1.05-.69l-11.7-6.84s-.69-.51-2.24-.04c-1.54.47-5.26,1.83-5.26,1.83,0,0-1.41-1.9-1.54-2.35-.13-.45-2.24-3.49-2.66-3.89s-.56-.49-.81-.74c-.25-.25-1.54-1.25-1.5-1.45.04-.2.92-1.61,1.45-1.77.54-.16,1.61-.07,2.46.09.85.16,1.68.6,2.37.2s1.1-1.43.92-2.39c0,0,0-.25.38-.22.38.02.92-.54.96-1.01s.34-.87.6-1.14.07-.98.13-1.05.38-.38.45-.38.51.13,1.03.02c.51-.11.87-.67.54-1.59s-.63-1.86-.63-2.35-.02-1.34.04-1.45c.07-.11.45-.09.47.02.02.11.16.31.43.22,0,0-.43-.04-.27-.49.16-.45.25-1.01.47-1.32.22-.31.47-.67.51-.83.04-.16-.2-1.03-.16-1.68.04-.65.38-2.33.29-3.09-.09-.76-.34-1.59-.22-1.74.11-.16.29-.36.36-.85.07-.49.38-2.73-2.55-4.79-2.93-2.06-5.26-3.65-5.68-3.82-.42-.18-4.27-.69-6.6.76,0,0-.31-1.1-1.01-.45-.69.65-.81.78-1.05.89-.25.11-.81-.16-1.16-.04-.36.11-.69.09-1.1.25-.4.16-1.03.25-1.36.67s-.4.22-.87.72c-.47.49-.6.29-1.01,1.12-.4.83-1.68,4-1.21,5.82,0,0,.13.25.11.98-.02.74-.4,2.17.25,3.24.65,1.07.07,1.83,1.45,1.99,0,0-.81,3.67.49,5.06,0,0,.58,1.03.22,1.88-.36.85-.49,2.91-1.34,3.53,0,0-1.34.36-1.79.67-.45.31-1.03,1.92-1.25,2.28s-1.07.94-1.52,2.42c-.45,1.48-1.16,2.46-1.57,3.04-.4.58-1.52,3.22-2.68,5.86C-.03,43.56-.03,46.92.01,49.82c.04,2.91.89,12.39,1.07,15.88.18,3.49,1.83,31.9,2.33,33.46l1.43,1.03s-.63,3.58-.18,5.01c.45,1.43,3.53,11.81,4.25,14.32.72,2.51,2.73,11.27,2.73,11.72s-.09,3.04-1.21,6.13c-1.12,3.09-.72,4.61-.89,5.14-.18.54-4.07,6.58-4.52,9.22-.45,2.64-.98,8.72-1.16,11.94-.18,3.22-1.03,14.72-1.07,15.7-.04.98-.89,4.74-1.39,5.86-.49,1.12-1.3,4.21-.54,5.55.76,1.34,1.12,1.25,1.12,1.25,0,0-.36.76.04,1.03.4.27,28.18.27,28.18.27l.09-.18s8.41.54,9.8,0c0,0,.45-.22.27-.54-.18-.31-1.3-.31-1.3-.31,0,0,.98-.72.49-1.52,0,0,0-.67-1.57-.31,0,0-2.64-.63-3.36-1.61,0,0-.27-.81-1.3-.58,0,0-3.4-2.15-4.47-2.91-1.07-.76-2.68-3.36-3.4-3.94-.72-.58-1.88-6.26-2.15-8.9-.27-2.64.27-11.32.49-13.38s.58-11.81,1.21-13.42c.63-1.61,2.95-2.37,3.04-5.95.09-3.58-.27-7.96-.27-7.96,0,0,.58-.36.81-.49.22-.13.18-.54.18-.54,0,0,6.22.72,6.58.54s.31-1.39.27-2.86c-.04-1.48.13-11.85.27-13.47.13-1.61,1.12-17.04.98-19.41-.13-2.37-.76-9.98-1.21-11.54-.45-1.57-1.43-4.12-1.61-5.37-.18-1.25-.58-4.47-.76-5.14-.18-.67-.31-.76-.31-1.43s.14-1.49.22-1.7c1.12.38,1.61.4,1.88.45.27.04,1.03-.54,1.92-1.48,0,0,3.2-1.3,4.79-2.42s3.91-3.02,4.12-3.22c0,0,.78-.09,1.19-.38s.54-1.3.56-1.48c.02-.18,1.16-1.41,1.68-1.77.51-.36,2.15-1.63,2.59-2.12.45-.49,1.43-2.33,1.57-2.82s.63-2.17.51-2.44c-.11-.27-.51-1.45-.47-1.57.04-.11.27-.2.36-.22.09-.02.38-.2.4-.4.02-.2,0-.83-.04-.96ZM15.96,186.01c-1.33-.66-4.38-2.92-4.38-7.03,0-4.11,1.86-12.2,1.86-12.2.4.4,2.39,9.42,3.32,13.66.93,4.25-.8,5.57-.8,5.57ZM45.61,55.81c.05.19-.1.38-1.09.9-1,.52-1.71.9-2.14,1.24-.43.33-.9.71-2.24,1.09-1.33.38-3.28.76-3.81.71s-.67.24-.9.29c-.24.05-.67-.62-.67-.9s.86-1,1.66-1.76c.81-.76,1.71-4.66,1.71-4.66,0,0,.62.05,1.05.33.43.29,1.05.1,1.05.1l5.42-1.43c-.05.67-.1,3.9-.05,4.09Z"/>
  </g>
</svg>