<?xml version="1.0" encoding="UTF-8"?>
<svg id="Layer_2" data-name="Layer 2" xmlns="http://www.w3.org/2000/svg" viewBox="0 0 64.42 191.71">
  <g id="People">
    <path d="M62.66,57.29c-.42-1.16-1.7-5.16-2.12-6.11s-.89-2.3-.86-2.45c.03-.15-.54-1.43-.6-1.64-.06-.21-3.49-5.79-4.18-6.62,0,0-.48-1.4-.89-2.21-.42-.81-5.67-8.35-6.35-8.98-.69-.63-2.51-1.07-2.86-1.49s-1.46-.86-2.09-.95-3.46-.48-4.09-.72c-.63-.24-2.45-.78-3.01-.78s-1.4.06-1.64.12c-.24.06-.6.03-.81-.12-.21-.15-.63.06-.92.12-.3.06-.57.21-.57.21,0,0-2.83-.51-3.88-1.58-1.04-1.07-2.48-3.01-2.48-3.58s-.03-2.21.06-2.92c.09-.72-.33-1.34-.06-1.79.27-.45.63-.72.54-1.46-.09-.75-.48-1.49-.51-2.06s.12-.89-.06-1.7c-.18-.81-1.13-2.03-1.16-2.62s-.33-1.31-.81-2-2.33-3.01-2.92-3.79c-.6-.78-.78-1.67-1.88-1.85-1.1-.18-1.55-.54-2.42-.18s-1.1.39-1.52.27c-.42-.12-2.5-.21-3.67.06s-2.09.39-2.83.92c-.75.54-.89.33-1.79,1.61-.89,1.28-.75,1.22-1.49,2.03-.75.81-.66.6-1.46,1.25s-1.44,1.17-1.55,1.19c0,0-1.22.51-1.79.3,0,0,1.19.89,2.51-.21,0,0,0,.98-.75,2.12,0,0,.69.03,1.13-.81,0,0-.03,1.07-1.01,1.76,0,0,.57.03.86-.24l.03.81s-.15,1.58-.03,2.53c.12.95-.03,1.67-.09,2.24-.06.57.6,1.22.81,1.55,0,0-.75,1.76-1.25,2.59-.51.83.36,1.55,1.37,1.52s.95-.24,1.01-.03c0,0,.06.81.42,1.31.36.51.6.45,1.07.6.48.15.06.39-.03.75-.09.36-.15.69.18.86.33.18.63.33.39,1.04-.24.72-.33,1.94.75,2.09,1.07.15,3.97-.09,5.07-.06,1.1.03,1.67.45,1.88.92.21.48,1.01.86,1.25,1.22.24.36.98,2.71,1.1,3.25.12.54.09.42-.24.75s-2.06,2.59-2.71,3.43c-.66.84-3.07,3.49-3.82,4.47-.75.98-2.18,1.85-2.12,5.43.06,3.58.72,2.86.95,7.13s.66,6.53.89,7.52.42,4.35.45,4.8c.03.45,1.7,1.19,1.97,1.28,0,0,.06,1.64-.54,2.98-.6,1.34-.36,3.34.12,5.16.48,1.82,2.03,6.83,2.03,6.83,0,0-.24.48-.06.86.18.39.33.69.21.78-.12.09-.92.24-1.07.81-.15.57.15.78.21,1.22.06.45-.03.57-.24.78-.21.21-.57.33-.63.78-.06.45.6,1.1.98,1.22s.81.21.81.21c0,0-.6,1.16-.89,1.97s-.33,1.58-.3,2.3c.03.72.12,1.28.27,1.61.15.33.95,1.46.95,1.46,0,0,.33,2.65.45,4.77.12,2.12.39,8.71.48,11.18.09,2.48,1.91,14.17,2.3,17,.39,2.83,1.13,7.25,1.13,7.25,0,0,6.5-.86,6.59-.86s.33,1.16.75,1.61c0,0-.03,2.09.75,3.31s1.25,1.88,1.37,3.82.72,7.25,1.22,9.39c.51,2.15,4.71,14.85,5.25,18.49l-.06.57s.18,2.48.3,3.1c0,0-.57.92-1.04,1.22-.48.3-.39.18-.39.18,0,0-.81-2.71-1.85-2.12s-.15,2.77.3,3.34c0,0-1.31,1.61-2.51,1.46-1.19-.15-1.73,1.88-.33,2.24,0,0-.45.18-1.46.57-1.01.39-2.27,1.16-2.62,1.4-.36.24-1.88.63-2.56.54-.69-.09-3.01-.33-3.58.48-.57.81-.6,1.04-.6,1.04,0,0-.51.63-.39,1.52.12.89,1.4,2.45,3.13,2.59s18.82,0,18.82,0c0,0,.21.27.36.24.15-.03,17.39-.12,17.39-.12,0,0-.06-2.92-.57-3.52,0,0-.21-4.41-.86-5.67-.66-1.25-.98-2.36-1.19-2.33s-.69.09-.84-.15c-.15-.24-.83-3.01-.89-4-.06-.98.18-2.48.15-2.77-.03-.3-.24-.6-.45-.69-.21-.09-.3-.33-.27-.45.03-.12.21-13.6-.24-17.6-.45-4-1.28-9.75-3.34-12.73-2.06-2.98-2.98-5.88-3.07-6.62-.09-.75-.09-2.65-.09-2.98l.21.09s0-1.49-.12-2.03c-.12-.54-.27-3.64-.21-3.88.06-.24.51-2.06.6-2.33.09-.27.12-3.16.18-4.59.06-1.43.95-5.55.95-6.26s.48-3.37.57-4.41c.09-1.04.42-3.64.45-4.12.03-.48.39-2.83.39-3.22s.39-2.3.48-2.83c.09-.54-.12-1.13.21-2s.33-.78.33-1.28-.45-.69-.24-1.01c.21-.33.42-.98.66-1.16.24-.18.57-.81.57-.92s-.21-2.77-.18-3.43-.06-1.97-.03-2.24.12-.86.3-1.01c.18-.15,3.91-5.4,4.68-6.5.78-1.1,3.88-6.74,4.35-7.75.48-1.01,2.89-6.56,3.4-7.19s1.49-2.09,1.46-3.43c-.03-1.34-1.34-2.12-1.76-3.28ZM45.09,171.94s-.18.36-.24.54c-.06.18.06,1.37,0,1.85-.06.48-.12.3-.24.6-.12.3.06.6,0,.95-.06.36-.54,2.68-.54,2.68,0,0-.12-.95-.3-1.19-.18-.24-.18-.83-.42-1.49-.24-.66-.3-2.62-.3-2.62l-.36-.24s-.18-.48-.78-3.64c-.6-3.16-.18-6.98-.18-6.98,3.52,5.37,3.34,9.54,3.34,9.54ZM53.21,61.29c-.24.6-2.39,6.26-2.8,7.93-.42,1.67-1.13,4.65-1.19,4.83-.06.18-.42,1.01-.78,1.07-.36.06-.24-.95-.54-2.03-.3-1.07.24-2.45.24-3.88s.36-3.34.3-4.59-.18-2.92,0-3.94c.18-1.01.54-4.77.54-4.77.24-.12.6.36,1.13,1.07.54.72,3.22,3.46,3.22,3.46,0,0,.12.24-.12.83Z"/>
  </g>
</svg>