<?xml version="1.0" encoding="UTF-8"?>
<svg id="Layer_2" data-name="Layer 2" xmlns="http://www.w3.org/2000/svg" viewBox="0 0 56.7 171.04">
  <g id="People">
    <path d="M33.39,2.88s2.07,1.36,2.57,2.93c.5,1.57.86,2.35.96,2.75.11.39.43.5.43.5l.14.25s1.39.32,1.57.61l.14.39s-.29.07-.25.18c.04.11.5,1.82-.21,2.35-.71.54-1.11.61-1.11.61,0,0,.53.71.29,1.53s-.39,1.82-.53,2.39c-.14.57-.32,1-.32,1.39s-.07,1.28-.07,1.57.36.86.07,1.39c-.29.53-.36.93-1.78.89-1.43-.04-1.78.32-2,.43s.32.5.36.61c.04.11.32,0,.93.53.61.54,2.71,1.43,4.14,1.89s6.1,1.96,7.71,2.28c1.61.32,3.07.57,3.64,1.89.57,1.32,1.68,4.46,2.1,5.64.43,1.18.64,2.57.86,3.71,0,0,.11.86.21,1.5s.46,2.03.78,3.17c.32,1.14.77,3.37.93,3.85.04.11.71,1.32.78,2.21.07.89.32,2.21.61,3.07.29.86.46,2.64.32,3.82-.14,1.18-.39,2.07-.68,2.39-.29.32-1.68,1.53-3.07,2.21-1.39.68-2.03,1-3.07.54-1.03-.46-3.21-2.1-3.6-2.21s-.82-.25-.82-.25c0,0,.71,1.18,1.03,2.53s1.32,5.78,1.32,5.78l1.11.32s.18,1.82.36,4.82c.18,3,.78,4.67,1.43,7.17.64,2.5.68,4.78,1,6.71s.61,3.1.61,3.53.07.78-.43.96c-.5.18-4.89.68-5.46,1.25,0,0-.18,1.28-.11,4.14s0,7.7-.36,9.56c-.36,1.86-.86,2.93-.96,3.35-.11.43-.29,1.36-.25,2.64.04,1.28.14,1.36-.14,2.39-.29,1.03-.07,1.18,0,2.64.07,1.46.04,2.07,0,3.1-.04,1.03-.64,1.03-.07,2.25.57,1.21,1.82,2.68,2.43,4.46.61,1.78.78,2.68.07,4.32-.71,1.64-1.18,1.46-.75,2.78.43,1.32.82,3.28.78,4.57-.04,1.28-.36,2.5-.21,3.5.14,1,.5,1.75.57,2.35.07.61-.46,2.82-.32,3.96s.64,1.96,1.18,2.6,1.89,1.32,1.89,3.75c0,2.43-.14,4.21-.71,4.64-.57.43-1.07,1.07-.82,1.39.25.32.89,1.43.96,2.03.07.61-.11.86.14,1.18.25.32,1.07-.18,1.32-.18s1.75.82,1.21,1.78c0,0-1.85-1.18-1.64-.61.21.57,1.53.96,2.25,1.5.71.53,1.71,1.14,2.07,1.28s.75-.11.75.43-.11,1.18-.11,1.32.29.71.04.78-15.48.18-15.48.18c0,0-.29-1.39-.29-1.71s-.32-1.75-.32-1.93-.39-.64-.32-1,.32-1.25.11-1.46c-.21-.21-1.89.07-2.32-1.11-.43-1.18-1.11-5.28-1.57-6.6s-.04-4.49-.14-6.14c-.11-1.64-.89-9.38-.93-11.13-.04-1.75-.07-11.49-.39-12.81-.32-1.32-.82-3.17-1.25-5.28-.43-2.1-1-8.92-1.25-10.81-.25-1.89-.61-5.67-.68-6.67-.07-1-.53-1.93-.64-2.78-.11-.86-.36-5.92-.75-6.53-.39-.61-.61-1.11-.61-1.11l-1.21.07s-.57.71-.43,1.89c.14,1.18.29,3.39.11,4.92-.18,1.53-.39,3.67-.86,5.03-.46,1.36-.36,3.14-.5,5.14-.14,2-.14,6.42-.43,8.53-.29,2.1-.89,5.42-.75,6.88.14,1.46-.29,2.85-.43,5.14s-.18,6.1-.25,7.85-.18,7.28-.32,9.6c-.14,2.32,0,6.1.18,8.06.18,1.96-.04,6.6-1.07,7.95s-.96,1.82-1.11,2.39c-.14.57-.5,1.57-.5,1.57,0,0-.25.11-.21.5.04.39-.11,1.46-.11,1.46H7.31s-.36-.5-.36-.96.25-1.75.61-2.07c.36-.32,1.28-.71,1.28-.71,0,0-.39-.29-.29-.36.11-.07.75-.61,1.36-1,.61-.39.96-.75,1.07-.68.11.07.32.18.39.07.07-.11-.11-.61-.07-.75.04-.14.07-4.74.43-5.71,0,0-1.25-.61-1.25-1.82s.54-5.24.68-7.31c.14-2.07-.29-8.81.18-10.1.46-1.28,1.43-4.49,1.07-5.71-.36-1.21-.82-1.18-.68-2.5.14-1.32,1.36-5.85,1.39-7.38.04-1.53.04-7.67-.04-8.17-.07-.5-1.53-3.39-1.71-5.35-.18-1.96-1.07-9.2-1.28-11.41-.21-2.21-.57-5.53-.57-5.53,0,0-5.1-1.36-5.89-2.53,0,0,1.03-5.03,1.36-7.38.32-2.35.57-5.74.93-6.78.36-1.03,1.93-5.53,2.07-6.49.14-.96.39-1.64.39-1.64,0,0,.32.11.32-.04s1.43-7.56,1.46-7.67-2.53,1.07-3.78.89c-1.25-.18-1.53.25-2.5-.64s-2.53-2.14-3.03-2.78c-.5-.64-.82-1.14-.86-1.61-.04-.46.64-4.6,1.21-5.49.57-.89,1.64-3.07,1.71-3.53.07-.46-.14-1.11-.36-1.68-.21-.57-.14-1.64.18-1.82.32-.18,1.46-.64,1.53-.86.07-.21-.89-1.07-.86-2.28.04-1.21,1.18-3.71,1.11-4.25-.07-.54-.25-1.21.18-1.86.43-.64.93-2.14,1.78-2.89s3.78-1.89,5.74-2.5c1.96-.61,5.03-1.53,5.24-1.68.21-.14,1.32-1,1.96-1.46.64-.46.96-.71,1.32-1.03.36-.32,1.36-1.25,1.5-1.32,0,0,.21-2.35-.18-3.25-.39-.89-1.36-1.61-2-2.6-.64-1-1.46-3.92-1.82-5.14-.36-1.21-.32-2.93-.43-3.75-.11-.82-.32-3.67,1.36-5.28,1.68-1.61,3.57-3.17,5.49-3.67C26.61.02,27.86-.05,28.97.02c1.11.07,1.53.29,1.89.21.36-.07,2.21.36,2.6,0,.39-.36,0,.11,0,.11,0,0-.82.43-1.28.39-.46-.04.14.64,1.11.64,0,0,.36-.04.75-.39,0,0-.39,1.03-1.36.89,0,0,.79.36.71,1Z"/>
  </g>
</svg>