<?xml version="1.0" encoding="UTF-8"?>
<svg id="Layer_2" data-name="Layer 2" xmlns="http://www.w3.org/2000/svg" viewBox="0 0 40.32 188.72">
  <g id="People">
    <path d="M5.08,4.02c-.17.08-1.08-.13-2.04,1.62,0,0-.62.58-.87,1-.25.42-.38.79-.67,1.08-.29.29-.46.42-.58.79s-.42.5-.58.92c-.17.42.08,1.75.29,2.25s.67,1.08.79,1.21c.12.12-1.46-2.17-.5-3.17,0,0,.5,1.17.83,1.25,0,0-.25-1.71.33-1.75.58-.04.37.75.37.75l.08,1s-.54,1.92-.67,2.5c-.13.58-.46,1.42-.25,1.92.21.5.71.67.67,1.04-.04.37-.33.79-.25,1.12.08.33-.21,1.33-.58,2.08-.38.75-1.12,1.75-.79,2.42.33.67.71.71,1.04.62.33-.08.75-.04.75-.04,0,0-.29,1.08-.29,1.37s.25.67.37.83c.13.17-.04.33.08.67.12.33.29.67.29,1.54s-.33,1.46.54,2.29c.87.83,2.71,1.37,3.83,1.46,0,0-2.08,3.04-2.67,3.33l.33,2.67h.33s.54.5.67.79c.13.29,0,1.08.42,2,.42.92-.08.96-.12,1.54-.04.58,0,2.71-.21,4.33-.21,1.62-.25,2.46-.29,2.83-.04.37-.04.62-.21.75-.17.12-.87.25-.87.54s-.79,5.62-.92,6.41c-.12.79-.29,3.62-.46,4.79s.17,2.92-.17,3.79c-.33.87-.54.79-.75,2.33s-.71,7.25-.75,7.83c-.04.58-.42.96-.37,2.08s-.08,1.37-.04,2.08-.21,1.46,0,2.12c.21.67.37,1.25.92,1.42.54.17,1.87-.08,2-.12s.38.79.42,1c.04.21-.42.67-.37,1.08.04.42.33,1.25.42,1.62.08.37-.33,1.67-.42,2.37-.08.71-.42,2.46-.54,3.42-.12.96-.42,1.87-.46,2.21-.04.33-.5,2.5-.58,2.79-.08.29-.71,2.08-.87,2.37s-1.08,2.25-1.17,2.58c-.08.33-.04,1.54.12,2.04.17.5.21,1.58.33,2.12.12.54.25,1.54.46,1.75s2.04,1.96,2.62,2.25,2.46,1.17,2.79,1.25c.33.08.58.25.58.25,0,0,1.08,6.37,1.29,7.5s1.5,11.54,1.75,13.04.75,5.08,2.5,7.66c1.75,2.58,3,4.17,3.08,4.58.08.42,0,3.17,0,3.79s-.5,6.33-.54,7.54c-.04,1.21-1.37,12.33-1.25,13.95.13,1.62.29,4.5,1.04,5,.75.5,1.04.21,1.04.33s-1.83,1.96-2.25,2.96c-.42,1-.54,1.54-.54,1.54,0,0-2.12,2.71-3.54,3.37-1.42.67-3.75,2.17-6.04,2.29-2.29.12-3.5-.08-3.5-.08,0,0-.5-.04-.5,1.25s.29,1.08.29,1.08c0,0-.29.5-.13.62s2.58.79,3.21.83c.62.04,12.31-.1,12.41,0,.1.1,1.46-.33,1.83-.21.38.12,1.75.21,1.75.21h9.91s2.08-.29,2.25-.37c.17-.08.08-.29.08-.29,0,0,7.58-.08,8.12-.29,0,0-.04-1.62-.04-2.21s-.46-2.12-.46-2.12c0,0,.33,0,.25-.71-.08-.71.04-11.33.13-12.37.08-1.04-.33-10.37-.71-13.37-.37-3-1.75-19.91-2.21-21.87-.46-1.96-2.71-7.87-2.71-9.16s.87-4.29,1.12-6.16c.25-1.87.25-4.62.25-5.08s-.29-.42-.04-.92c.25-.5,1.25-2.75,1.62-3.83.37-1.08.87-4.83,1.25-5.75s.54-1.33.92-2.25c.37-.92.96-5.29,1.12-7,.17-1.71.12-6.83-.37-8.41s-1.92-5.08-2.12-5.79c-.21-.71-.42-1.04-.29-1.29.12-.25.58-.5.79-.75s.92-.83.87-1.25c-.04-.42.13-8.58-.12-12.66-.25-4.08.42-10.87-.58-16.2-1-5.33-2.12-11.2-7.71-16.37-5.58-5.16-6.46-5.21-6.75-5.79-.29-.58-.58-.5-.58-.67s-.5-3.25-.92-3.5c0,0,1.25-2.33,1.46-2.87.21-.54.25-1.87.5-2.67.25-.79.25-1.5.37-1.96.12-.46,0-1.46.08-1.87.08-.42.29-1.29.13-2.04s-.29-1.37-.5-2-.17-1.83-.71-2.37-1.04-1.54-1.46-2.04-.5-.96-1-1.21c-.5-.25-.54-.46-.92-.58-.37-.12-.96-.29-1.46-.58-.5-.29-1.04-.67-1.33-.79-.29-.12-.92-.58-1.25-.67-.33-.08-2.5-.37-3.33-.46-.83-.08-1.58-.33-2.29.08s-1.12.33-1.67.58c-.54.25-1.17.5-1.33.71s-.33,0-.75.37c-.42.37-.79.37-1.04.83-.25.46-.33.25-.54.62-.21.37-.33.66-.33.66Z"/>
  </g>
</svg>