<?xml version="1.0" encoding="UTF-8"?>
<svg id="Layer_2" data-name="Layer 2" xmlns="http://www.w3.org/2000/svg" viewBox="0 0 107.75 361.66">
  <g id="People">
    <g>
      <path d="M106.17,213.06c-.8-3.4-1.59-8.81-3-16.33s-1.67-9.91-3.01-15.51c-1.34-5.6-2.8-13.07-5.99-21.48-3.15-8.31-6.97-17.21-7.42-18.4-.45-1.19-2.15-5.08-2.8-6.09-1.5-2.31-3.23-5.57-4.68-7.5-.56-.74-.43-2.48-.05-4.46,1.22,2.05,2.81,4.56,3.74,5.56,1.39,1.48,4.1,2.3,5.76,2.79,3.21.94,4.05-.22,5.28-1.31,1.23-1.09,2.4-2.92,2.84-4.56.44-1.65,1.01-4.64.36-8.37-.65-3.73-1.54-7.04-2.25-10.71-.71-3.67-1.51-10.88-1.79-14.86l-.14-5.06c.6-.5.92-.84.92-.89,0-.18-.62-2.57-1.6-6.52-.39-1.58-.99-3.73-1.63-5.91-.05-.85.03-1.9-.08-3.02-.17-1.83.25-1.34-.71-3.61-.96-2.27-2.42-2.7-2.42-2.7,0,0,1.77.32,3.59,1.67,1.82,1.36.54,1.59.04,3.73-.34,1.43.74,2.93,1.5,3.77-.51-.93-.64-2.53-.76-3.76-.17-1.65.44-2.38,1.07-3.84.62-1.46-2-2.09-4.49-3.64-2.49-1.54-1.49-5.14-.87-7.15.62-2.01-.23-2.69-1.44-3.31-1.22-.62-.54-.98-.53-2.26,0-1.28-.66-2.33-.64-4.95.02-2.63-1.44-3.19-3.63-5.39s-.34-3.68.16-6c.5-2.32-.48-1.9-2.11-3.92-1.64-2.03-.23-2.2-.83-4.16-.6-1.96-1.39-1.54-2.72-3.81-1.33-2.27-1.62-4.29-2.16-5.88-.54-1.59-.72-1.53-1.39-2.45-.67-.92-.85-1.29-1.39-2.45-.54-1.16-.84-2.2-1.94-2.82-1.1-.62-2.3-2.64-3.82-4-1.52-1.35-5.17-2.48-6.4-2.18-1.22.3-2.32.17-3.11-.45s-2.86-1.12-4.7-.7-2.26.66-4.4.82c-2.14.17-5.81,1.49-6.68,2.46-.86.97-1.1.48-2.45.87-1.35.39-1.48,1.3-2.65,3.07-1.17,1.76-2.09,1.51-4.73,4.37-2.65,2.85-.93,2.19-3.52,5.53-2.59,3.34-2.34,2.73-3.15,4.5-.81,1.77-.01,1.59-.94,3.9-.93,2.31-.32,1.65-.39,3.85-.08,2.2-1.85,2.74-4.19,4.8-2.34,2.06-2.34,2.24-3.83,5.84-1.49,3.59-.21,4.09-2.43,6.7-2.22,2.61-2.16,3.04-2.43,6.21s-1,3.84-3.96,7.3c-2.96,3.46-1.26,4.94-1.46,7.87-.2,2.93-1.47,1.27-2.65,4.01-1.18,2.74.47,2.39-.71,5.13-1.18,2.74.77,3.06,1.43,5.75.65,2.69-1.49,3.84-1.5,5.3-.01,1.47.42,1.35,1.63,2.88,1.21,1.54.54.8.54,2.08,0,1.28-.68,1.34-.94,3.11-.26,1.77,1.33,2.64,1.33,2.64-1.16-.5-.9-2.88.03-4.34.93-1.46.56-2.13,1.56-4.08.24-.46.43-.8.6-1.08-.48,3.08-1.13,7.23-1.71,10.9-1.09,6.9-1.72,10.49-2.25,16.42-.53,5.92-1.04,9.22-.08,12.16.96,2.94,2.41,5.33,5.03,5.47s3.3-.83,5.51-1.12c2.01-.26,5.55-1.23,8.9-2.12.57.13.95.14.95.14,0,0,4.23-.94,6.54-1.56-.23,1.37-.44,2.37-.45,2.77-.01,1.47-2.37,9.35-4.91,16.37-2.97,8.23-6.56,23.96-7.32,27.8-.76,3.84-2.98,18.12-3.29,23.43-.29,4.99-1.6,24.86-1.76,27.24-.07.07-.07.13-.01.19,0,.02,0,.05,0,.05,0,0,.02,0,.05,0,0,0,0,0,0,0,1.41.79,12.41.96,13.78.97,1.37,0,.87-.18,1.51-.26.45-.06,4.43.12,6.84.24.61,3.98,1.26,8.77,1.49,11.22.42,4.58.75,9.35.46,11.92-.29,2.56-1.56,15.47-1.41,19.97.15,4.49,2.32,18.07,4.63,25.51,2.3,7.44,5.68,17.36,6.39,19.74.71,2.39.78,5.78.49,7.33-.23,1.28-.76,2.12-.8,2.94,0,0,0,0,0,0-.62-.65-.81,1.19-1.18,2.28-.37,1.1-.53,3.98-.05,7.06.48,3.07,1.34,9.22,1.1,11.28-.24,2.06-.73,6.55.44,7.79,1.17,1.25,7.99,4.45,9.71,5.15,1.72.7,3.3.89,4.44.67,1.17-.23,2.37-1.17,2.97-2.96.58-1.73,1.41-4.07,1.29-6.11.12.22.2.35.2.35,0,0,7.1,1.7,9.28,1.62,2.18-.08,3.72-.29,3.24-2.73-.48-2.43-.55-5.41-1.18-6.7-.63-1.29-2.43-3.29-3.01-3.83-.76-2.04-3.42-9.37-4.44-12.99-1.06-3.76-1.96-5.14-1.49-7.62.47-2.47,7.72-27.53,9.49-34.29,1.77-6.77,3.35-16.93,3.09-23.53-.26-6.6-.91-9.81.14-13.84,1.05-4.02,4.42-17.1,5.16-20.3.3-1.32.56-2.57.76-3.59,3.01-.35,5.22-.74,5.77-.95,1.19-.45-.16-1.74-.16-1.74,0,0,2.73-.12,2.73.03v-.13c0,.13,2.67.11,4.56.11h-.06v.65s.44-.17.68-.17c4.95-.06,6.99-.77,8-1.04,1.01-.27.47-.86.47-.86,0,0,1.75-.1,2.11-.46.37-.36-.7-4.06-1.5-7.45ZM25.93,114.37c-.12.02-.25.05-.38.07,0,0-.87-.49-1.55-.37-.67.12-5.16,1.13-5.19,1.14-.25,0-.44,0-.56-.01-.85-.13-.23-1.72.09-4.43.32-2.71,1.58-7.71,2.15-10.28.08-.34.18-.7.31-1.07,1.61,1.42,2.54,3.08,3.05,4.36.57,2.61.95,6.59,2.83,10.42-.27.07-.53.13-.76.17ZM27.38,128.88s-.01,0-.02,0c.05-.02.1-.04.15-.07-.05.02-.09.04-.14.06Z"/>
      <path d="M93.31,73.96s-.3-.26-.67-.68c.17.32.39.56.67.68Z"/>
    </g>
  </g>
</svg>