<?xml version="1.0" encoding="UTF-8"?>
<svg id="Layer_2" data-name="Layer 2" xmlns="http://www.w3.org/2000/svg" viewBox="0 0 54.37 173.9">
  <g id="People">
    <path d="M54.36,47.18c-.05-.23-.42-.88-.28-1.21.14-.32.09-.93-.14-1.39s-1.67-.88-1.53-1.44,0-.88-.51-1.02-7.51-10.48-7.51-10.48c-.88-.97-2.32-3.06-2.46-3.15s-.79-.79-1.07-.97c-.28-.19-1.44-1.58-1.81-1.99s-.88-.79-1.07-1.44-.05-1.34.19-2.41-.23-2.69-.32-3.38c-.09-.7-.46-2.97-.97-4.31s-.97-3.34-1.39-5.01c-.42-1.67-.79-4.82-4.17-7.19C27.93-.58,24.83-.07,22.46.39s-4.31,3.43-5.47,5.1c-1.16,1.67-1.44,5.89-1.48,6.26-.05.37.09,2.27.32,4.17.23,1.9,1.25,4.08,1.25,4.08,0,0-.37,2.41-.6,3.25-.23.83-1.95,1.16-1.95,1.16.42-.69.33-1.67.19-2.78-.14-1.11-.37-1.39-.42-1.53-.05-.14.23-1.72.23-1.95s.37-.46.37-.46l.32.19s.37.05.32-.19c-.05-.23-1.16-1.67-1.16-1.67l.05-.37.56-1.44s-.19-2.74-.28-4.03c-.09-1.3-.19-.93-.28-1.11-.09-.19-.6.28-.88.37s-2.04,1.21-2.32,1.34-1.34,1.11-2.09,2.13c-.74,1.02-.51,4.31-.51,4.31,0,1.16.28,2.74.7,3.76s.6,3.25.14,4.68c-.46,1.44-1.99.88-1.99.88-2.69-.65-4.87.05-6.26,1.21-1.39,1.16-1.44,9.69-.93,12.61.51,2.92-.6,6.72.93,9.51,1.53,2.78,4.5,3.89,4.5,3.89,0,0,.19,1.67.19,2.92s.09,1.25.09,2.64-.65,3.15-.93,3.99c-.28.83-.51,2.32-.79,3.43-.28,1.11-.79,3.76-.97,5.1s-.09,2.64-.32,3.99c-.23,1.34-.88,5.33-1.02,5.61-.14.28-.65.88-.79,1.16s.46,1.02.46,1.02c0,0-.93,3.34-.97,7.7-.05,4.36.51,9.78,1.39,14.61.88,4.82,1.25,7,1.95,11.22.7,4.22.88,8.53,1.02,10.57s0,5.43.23,7.33.37,1.9.56,4.13c.19,2.23,1.44,6.26,1.99,7.65.56,1.39.19.56.32,1.9s.46,3.38,1.02,4.54.23.6.32,1.3c.09.7.14,3.01.88,5.61.74,2.6.97,2.74,1.25,3.11s.46.46.28.74-.46,1.58-.6,1.85c-.14.28.23.6.09.93-.14.32-4.68,3.01-4.82,2.97s-.37.14-.74.28c-.37.14-3.62,1.85-3.62,1.85,0,0-.09.42.19.93s5.98.56,7.42.51c1.44-.05,3.76-.74,4.22-.88.46-.14.83.6.83.6,0,0,4.82-.19,4.87.14.05.32,1.39.7,1.39.7,0,0,8.07-.09,8.11-.28s.32-.32.56-.7c.23-.37-.14-1.21-.51-1.72-.37-.51-1.07-1.02-1.07-1.02,0,0,.23-.14.46-.32.23-.19.23-1.34.23-1.76s-.14-1.85-.14-1.85l.56-.37c.56-.37,1.07-1.25,1.3-2.04.23-.79.88-2.04.74-3.62-.14-1.58.09-2.09.09-2.09.93-.6,1.16-4.45,1.53-5.8s.19-3.48.46-5.1,1.11-5.52,1.48-6.91c.37-1.39.56-5.38.51-6.45-.05-1.07.09-1.48.09-2.83s0-3.85.32-4.59.51-2.27.74-3.15c.23-.88.23-3.2.6-4.31.37-1.11.79-2.27.7-4.03-.09-1.76.51-2.5.7-4.96.19-2.46.23-2.6.23-2.6.97-2.69,2.78-13.12,3.06-15.58.28-2.46.37-5.43.05-6.86-.32-1.44-.32-2.69-.28-3.01.05-.32.6-.7,1.21-1.25.6-.56-.23-1.16-.74-1.34-.51-.19-.46-.32-.51-.7-.05-.37-.46-.83-.88-1.16s-.09-.79-.46-1.76-.79-1.44-1.07-2.13c-.28-.7-.28-1.39-.14-2.78.14-1.39-.28-3.01-.46-3.76-.19-.74-1.48-3.29-1.48-3.29l.05-.23c.05-.23.56-1.44,1.07-2.64.51-1.21.7-2.87,1.67-3.48.97-.6,6.77-1.72,9.04-2.87,2.27-1.16,3.71-3.2,4.4-3.66s.6-1.62.51-1.95.19-.46.23-.74c.05-.28.32-.79.28-1.02ZM22.88,128.32c-.28,1.29-.46,1.19-.55,2.29-.09,1.1.46,2.39.46,3.12s-.55,4.22-.64,6.42c-.09,2.2-.73,7.25-1.01,7.53-.28.28-.37-4.5-.55-5.6-.18-1.1-.55-4.13-1.1-5.78-.55-1.65-1.1-6.98-1.38-7.53-.28-.55-.37-1.1-.37-1.84s.28-1.38.28-2.94.09-7.71.55-10.92c.46-3.21,1.93-13.4,1.93-13.4,0,0,1.1,4.68,1.28,5.42s.37,2.57.28,3.58c-.09,1.01-.09,2.75-.09,3.21s.09,2.66.28,4.59c.18,1.93.92,10.55.64,11.84ZM44.09,49.1c-.05.38,0,.38-.41.61s-3.6,2.17-3.7,2.19c-.1.03-1.05.43-1.05.43,0,0-.43-1.2-.38-2.25.05-1.05-.03-1.35,0-1.99.03-.64.36-.94.31-1.2s1.3,2.42,1.74,2.83c.43.41-.51-1.48-.46-1.94,0,0,1.76,1.99,1.91,2.04.15.05-1.38-2.27-1.76-3.22-.38-.94-.61-1.33-.59-1.81.03-.48-.08-.74.1-1.05.18-.31.38-.1.41.05.02.11,1.79,3.42,2.17,3.55.38.13.74.15.77.43.03.28-.13.46.2.56.33.1.61.03.61.26s.18.1.13.49Z"/>
  </g>
</svg>