<?xml version="1.0" encoding="UTF-8"?>
<svg id="Layer_2" data-name="Layer 2" xmlns="http://www.w3.org/2000/svg" viewBox="0 0 69.1 181.15">
  <g id="People">
    <path d="M68.74,178.82c-.12-.36,0,.48,0-1.61s-.12-4.12-.54-5.25c-.42-1.13-1.43-2.62-1.85-3.7-.42-1.07-.66-2.62-.42-4.23.24-1.61-.3-1.37-.3-1.37l-.24-.18s.06-7.46.42-11.69c.36-4.23-.42-13.3-1.67-16.34s-4.41-9.01-4.59-9.36c-.18-.36-.3-3.04-.3-3.04,0,0,.24-.6.36-2.09.12-1.49.42-6.14.42-8.23s-.06-3.52.42-5.25c.48-1.73.6-3.16.72-5.31.12-2.15,1.25-3.82,1.31-5.13.06-1.31.24-4.18.3-7.46.06-3.28.36-4.41.72-5.25.36-.83,1.61-.54,1.61-1.25s-1.31-6.92-2.5-13.96c-1.19-7.04-2.15-11.63-2.15-11.81l1.01-.6c1.01-.6,3.88-.54,4.71-1.19.83-.66,1.19-1.07,1.19-1.85s-.18-2.21-.42-4.89-1.55-6.56-1.79-7.28-.24-1.79-.3-2.27c-.06-.48.06-.54-.66-1.19-.72-.66-.72-1.55-.72-1.55,0,0-.66-1.01-1.01-1.43-.36-.42-.95-1.79-1.49-2.8-.54-1.01-1.19-2.8-3.46-5.91s-5.55-5.65-5.55-5.65c-.37-.11-.69-.16-1.98-.76-1.29-.6-9.04-.37-10.12-.25s-2.46.87-3.2.97c-.74.09-1.86.02-3.79-.12-1.93-.14-5.59-3.33-5.59-3.33,0,0-.25-.18-.21-.37.05-.18-.07-.37-.18-.71s-.8-1.7-1.2-2.35-.09-.48-.25-1.29c-.16-.8-1.31-2.53-1.77-4.09s-1.15-1.31-2.21-2.32c-1.06-1.01-3.2-2.69-5.31-4.23s-4.35-.57-4.81-.28c-.46.3-.71.32-1.93.51s-1.13.32-1.75.76c-.62.44-1.29,1.03-2.35,1.63-1.06.6-1.61,3.17-2.6,4.35-.99,1.17-.41,2.12-.51,2.37-.09.25-.23.02-.71.14-.48.12.14-.83.14-.83,0,0-.14-.18-.78.6-.64.78.02,1.43.02,1.43-.3.67.44,1.61.44,1.61l-.46.07c-1.15.14-.85,1.13-.85,1.13.21-.46.44-.64.48-.71.44-.67,1.89.61,2.55,1.08.11.79.66,1.71,1.02,1.99.36.27.63,1.64.82,2.28.19.64.72.79,1.05.91.33.13.89.47,1.01.61s.09.57.09.57c.3-.05.5-.43.5-.43,0,0,.08,0,.1.57.02.57-.08,1.57.35,2.22s1.34.44,1.67.59c.33.15,1.31,1.3,1.31,1.3.24.3.66.12.72.36s.6.84,1.19,1.07c.6.24,1.43,1.91,2.21,2.09.78.18,3.52-1.85,4.24-2.09s.89.42.89.42c1.01.48,3.4,3.4,3.22,3.52-.18.12-.42.95-.48,1.31s-.54.78-1.13,1.43-.66,2.21-.89,3.34c-.24,1.13-3.28,4.06-4.35,6.2-1.07,2.15-.24,6.86-.24,6.86.18.84,1.07,8.05,1.07,8.05l-.42.24c-.42.24,0,.95-.06,1.13s.3.54.3.54c0,0-.12,1.25-.18.95-.06-.3-1.07-1.49-1.07-1.73s.54-2.03.18-2.8c-.36-.78-.95-1.85-2.39-3.28-1.43-1.43-.78-2.39-2.21-2.45-1.43-.06-1.07,1.61-1.07,1.61l-.36.24c-.36.24-2.45.48-2.8.66-.36.18-.6,1.67-.84,2.15-.24.48.3.89,0,1.37s-.42,1.37-.3,1.91c.12.54.78.72.78,1.25s.72,1.37.72,1.37c.18.6,1.19,1.67,1.61,1.67s2.27,1.01,3.04,1.31c.78.3,1.43,1.49,2.39,3.88.95,2.39.95,4,4.71,6.98,3.76,2.98,5.31,2.98,5.73,2.92s1.79-1.55,1.85-1.25c.06.3-1.19,3.16-1.25,3.7s-.06,1.67-.24,2.45c-.18.78.24,6.26.24,6.26,0,0,.48.48.54.72.06.24.48,7.22.78,10.38.3,3.16,1.19,13.36,1.73,15.87.54,2.51,1.91,10.92,1.91,10.92l6.92-.78.06.3s.24.89.48,1.31c.24.42,0,1.19.3,2.27.3,1.07,1.31,2.56,1.73,3.46.42.89.18,3.58.3,5.91.12,2.33,1.61,7.52,2.51,10.2s4.23,13.96,4.23,13.96c0,0-.24.42-.36.6-.12.18.95,2.57.84,2.74s-1.07,1.13-1.19,1.31c-.12.18-.48.48-.89-.89-.42-1.37-1.31-.95-1.49.42-.18,1.37.83,1.97.42,2.51-.42.54-1.49.72-2.03.95-.54.24-1.37,1.07-.89,1.55.48.48,0,1.01-.54,1.25-.54.24-1.43.72-2.15,1.07-.72.36.06.48-.66.83-.72.36-3.34.3-4.59.48-1.25.18-1.49,1.07-1.97,2.56s1.67,2.33,1.67,2.33h34.89s.72-.12.78-.48-.24-1.49-.36-1.85ZM58.55,161.55l-.18.76c-.09.22-.22,1.61-.18,1.88.04.27-.4.63-.36.76.04.13.22.45.27.72.04.27-.45,1.61-.67,2.42-.22.81-.31,1.16-.31,1.52s-.27.67-.27.67c0,0-.22-1.61-.4-2.24-.18-.63-.4-3-.54-3.67-.13-.67-.22-1.16-.31-1.3s-.4-.4-.4-.4l-.45-3.4c-.13-1.07-.89-2.42-.76-5.5.4-1.79.58-4.47.58-4.47,0,0,2.15,5.37,2.77,7.52s1.39,3.98,1.21,4.74Z"/>
  </g>
</svg>