<svg viewBox="0 0 128 128" width="128" height="128" version="1.1" xmlns="http://www.w3.org/2000/svg" desc="Created with imagetracer.js version 1.2.6" ><path fill="rgb(255,219,215)" stroke="rgb(254,126,114)" stroke-width="1" opacity="0.984313725490196" d="M 35.5 25 L 40 25.5 L 32 30 L 23.5 46 Q 20.5 46.5 20 44.5 L 20 37.5 Q 22.33333 31.33333 27.5 28 L 35.5 25 Z " /><path fill="rgb(237,63,52)" stroke="rgb(237,63,52)" stroke-width="1" opacity="0.9725490196078431" d="M 35.5 18 L 44.5 18 Q 45.25 19.75 48.5 19 Q 56.58333 21.91667 61 28.5 L 63.5 33 L 69.5 26 Q 76.59069 18.59069 91.5 19 L 100.5 22 L 110 30.5 L 114 39.5 L 114 53.5 L 112 60.5 L 104 74.5 L 89.5 90 L 79.5 98 L 64.5 108 L 62.5 108 Q 44.39775 96.60225 30 81.5 Q 21.28571 72.21429 16 59.5 L 14 53.5 L 14 38.5 Q 16.75 28.25 24.5 23 L 35.5 18 Z M 36 25 L 28 28 Q 22 31 20 38 L 20 45 Q 21 47 24 46 L 32 30 L 40 26 L 36 25 Z " /><path fill="rgb(255,255,255)" stroke="rgb(0,0,0)" stroke-width="1" opacity="0" d="M 0 0 L 128 0 L 128 128 L 0 128 L 0 0 Z M 36 18 L 26 22 Q 17 28 14 39 L 14 54 L 17 63 L 30 82 Q 44 97 63 108 L 65 108 L 80 98 L 90 90 L 104 75 L 112 61 L 114 54 L 114 40 L 110 31 L 101 22 L 92 19 Q 77 19 70 26 L 64 33 L 61 29 Q 57 22 49 19 Q 45 20 45 18 L 36 18 Z " /></svg>