<svg xmlns="http://www.w3.org/2000/svg" shape-rendering="geometricPrecision" text-rendering="geometricPrecision" image-rendering="optimizeQuality" fill-rule="evenodd" clip-rule="evenodd" viewBox="0 0 401 511.68"><path fill="#3A2A23" fill-rule="nonzero" d="M307.7 246.7c8.16 5.36 14.89 12.75 18.38 21.85h-.02l.19.56c1.11 3.84-1.1 7.86-4.94 8.97-19.67 5.69-39.53 15.46-58.83 27.31-19.48 11.95-38.39 26.04-56.04 40.21a7.25 7.25 0 01-9.19-.11c-19.8-16.68-39.58-31.18-59.05-42.6-19.18-11.26-38.06-19.49-56.36-23.85-.31-.07-.61-.17-.91-.28-3.75-1.43-5.63-5.62-4.2-9.36 3.49-9.11 10.29-16.74 18.53-22.32 8.74-5.91 19.19-9.58 29.02-10.29 5.23-.38 10.24-.15 14.98.06 7.4.33 14.01.63 18.48-2.02l.02-.01.03-.02h.01l.01-.01.02-.01.03-.02c.36-.22.7-.45 1.03-.71 1.5-1.18 2.86-2.94 4.04-5.3l.03-.07.03-.05.01-.02.03-.06.02-.05.02-.02.03-.07.01-.03.02-.04.03-.07.01-.01.02-.06.04-.06v-.01l.03-.06.03-.06V228l.03-.08.02-.04.02-.02.03-.07.01-.04.02-.04.03-.07.01-.02.02-.05.03-.07h.01l.03-.07.02-.06.01-.02.03-.07.02-.05.01-.02.03-.07.01-.04.02-.04.03-.07.01-.02.02-.05.03-.08.03-.07.03-.07v-.01l.03-.07.02-.05.01-.03.03-.07.02-.04.01-.04.03-.07.01-.03.02-.05.03-.08.03-.07.02-.07.01-.01.03-.08.02-.05v-.03l.03-.07.02-.04.01-.04.03-.08.01-.03.02-.05.03-.08v-.01l.02-.07.03-.07.03-.09.02-.06.01-.02.02-.08.02-.04.01-.04.03-.08.01-.03.02-.05.02-.08.01-.01.02-.07.03-.08.02-.08.02-.07.01-.02.03-.08.01-.05.01-.03.03-.09.01-.03.01-.05.03-.08v-.02l.02-.07c-10.17-5.95-19.06-14.6-25.5-25.91-2.81-4.92-5.21-10.37-7.14-16.4-9.18-1.17-16.97-6.77-21.75-14.22-2.6-4.04-4.34-8.68-4.95-13.49-.62-4.95-.06-10.04 1.98-14.82.28-.64.58-1.28.91-1.91-.21-.49-.37-1.01-.47-1.55-4.99-26.71-2.58-49.14 5.19-66.86 5.48-12.53 13.63-22.69 23.73-30.35 10.04-7.62 21.95-12.72 35.02-15.16 21.44-4 46.09-.91 70.8 9.84 2.59.98 4.49 3.39 4.68 6.33.1 1.54.16 3.05.2 4.54 17.31 3.79 31.08 11.75 39.84 25.57 9.49 14.96 12.7 36.43 7.6 66.5-.08.47-.2.91-.35 1.34.28.53.54 1.07.78 1.61 2.15 4.76 2.78 9.81 2.17 14.69-.59 4.72-2.36 9.33-5.04 13.41-4.84 7.37-12.76 13-22.11 14.37-1.65 5.37-3.72 10.32-6.17 14.88-6.4 11.9-15.37 20.96-25.68 27.18l-.6.36.03.08v.02l.02.07.03.08.03.09.02.07v.01l.03.08.02.06.01.03.02.08.02.05.01.03.03.08.01.04.01.05.03.08.01.02.02.06.03.08v.01l.02.07.03.08.03.09.02.06.01.02.03.08.01.05.02.03.02.08.02.04.01.04.03.07.01.03.02.05.03.08v.02l.03.06.03.08.02.08.03.06v.01l.03.08.03.06v.02l.03.07.02.05.01.03.03.08.02.03.01.04.03.08.01.02.02.05.04.08v.01l.02.06.04.07v.01l.03.07.02.06.01.01.03.08.02.05.01.02.03.07.02.04.01.04.04.07.01.02.02.05.03.07.01.02.02.05.03.08h.01l.03.07.02.06.01.01.03.07.03.05v.02l.04.07.02.04.01.03.03.07.02.03.02.04.03.07.01.02.02.05.04.06v.01l.03.06.03.07c1.18 2.36 2.54 4.12 4.04 5.3l.02.01.02.01.02.02.01.01.02.01.02.02.01.01.02.01.02.02.01.01.04.02v.01c4.46 3.31 11.48 3 19.42 2.64 4.75-.21 9.75-.44 14.99-.06 9.66.7 19.96 4.04 28.63 9.6l.54.31z"/><path fill="#5AA586" d="M315.86 264.52c-8.08-12.08-23.7-19.47-37.84-20.5-10.52-.76-20.25 1.09-28.44-.14-.25.84-.67 1.66-1.25 2.39-5.29 6.7-12.41 12.2-20.7 15.96-7.91 3.59-16.91 5.62-26.42 5.62-9.48 0-18.45-2.02-26.34-5.58-8.28-3.74-15.39-9.2-20.68-15.84a7.7 7.7 0 01-.85-1.39c-.17-.36-.31-.74-.42-1.12-8.13 1.14-17.75-.65-28.13.1-13.75 1-28.9 8.61-37.16 20.3 42.79 14.31 80.07 37.23 114.42 66.28 34.19-28.91 71.28-51.75 113.81-66.08z"/><path fill="#F8CCA9" d="M242.66 241.79c-1.12-.56-2.2-1.23-3.23-2.04-3.35-2.63-6.08-6.77-7.99-12.49-9.19 4.18-19.16 6.33-29.15 6.46-10.58.13-21.19-2.02-30.94-6.43-1.91 5.71-4.63 9.84-7.98 12.46a18.12 18.12 0 01-3.5 2.17c8.98 11.27 24.14 18.67 41.34 18.67 17.26 0 32.48-7.46 41.45-18.8z"/><path fill="#3A2A23" fill-rule="nonzero" d="M59.74 285.84c2.66-2.09 5.02-4.36 7-6.87 2.56-3.26 4.43-6.97 5.38-11.28a7.257 7.257 0 018.63-5.56c.32.07.63.15.92.26 43.08 13.45 80.59 35.51 115.07 63.79h-.4c-3.24 0-6.32.73-9.08 2.02a7.315 7.315 0 00-3.57-2.14L59.74 285.84z"/><path fill="#FCFCFD" d="M67.81 288.46c5.58-5.2 9.69-11.41 11.41-19.24 40.45 12.58 75.54 32.65 108.34 58.84l-.3.14-.04-.04h-.01v-.01l-.09-.09-.04-.05-.05-.04-.02-.02-.03-.03-.04-.04-.03-.03-.02-.02-.05-.04-.04-.04-.01-.01-.04-.04-.05-.05h-.01l-.04-.04-.05-.04-.02-.02-.03-.02-.05-.05-.04-.02-.01-.02-.05-.04-.05-.03-.01-.01-.05-.04-.05-.04h-.01l-.04-.04-.06-.04-.02-.01-.03-.02-.05-.04-.04-.03-.02-.01-.05-.03-.05-.04h-.01l-.05-.04-.06-.03-.01-.01-.04-.03-.06-.03-.02-.01-.03-.02-.06-.04-.04-.02-.02-.01-.06-.03-.05-.03h-.01l-.05-.04-.06-.03h-.01l-.05-.03-.06-.03-.02-.01-.04-.01-.06-.03-.04-.02-.02-.01-.06-.03-.06-.03-.06-.02-.06-.03h-.01l-.05-.02-.06-.03-.03-.01-.04-.01-.06-.03-.04-.01-.02-.01-.06-.02-.06-.02h-.01l-.06-.03-.06-.02h-.02l-.05-.02-.06-.02-.03-.01-.03-.01-.07-.01-.05-.02h-.01l-.07-.02-.06-.02-115.88-37.6z"/><path fill="#3A2A23" fill-rule="nonzero" d="M337.37 278.97c1.87 2.38 4.09 4.55 6.58 6.54l-124.28 39.91a7.23 7.23 0 00-4.19 2.75c-2.5-1.16-5.25-1.86-8.14-1.97 34.49-28.29 72.01-50.36 115.09-63.81.3-.11.61-.19.92-.26 3.92-.85 7.79 1.64 8.63 5.56.95 4.31 2.83 8.02 5.39 11.28z"/><path fill="#FCFCFD" d="M336.52 287.9c-5.62-5.04-9.94-10.99-11.63-18.68-39.12 12.17-72.74 31.09-104.46 55.95l116.09-37.27z"/><path fill="#4A494C" d="M148.63 105.96c15.39 4.71 30 4.61 43.9-.02 33.43-11.12 49.83-31.08 47.55-66.08-71.64-31.37-141.73 5.18-125.06 94.42 3.27 1.6 6.79-1.3 10.69-3.58 6.4-3.74 8.63-.99 14.45-3.75 5.92-2.8 8.05-14.77 8.47-20.99zm122.96 14.67l-26.3-55.2c1.11-4.4 1.82-9.09 2.11-14.08 30.79 7.3 48.12 29.43 41.21 78.31-4.1-3.79-9.7-6.94-17.02-9.03z"/><path fill="#3A2A23" fill-rule="nonzero" d="M85.23 196.87v-36.72l-46.41 16.41v51.97c.52 1.78.8 3.64.8 5.58 0 10.91-8.9 19.81-19.81 19.81C8.88 253.92 0 245.03 0 234.11c0-10.93 8.9-19.81 19.81-19.81 4.02 0 7.75 1.2 10.88 3.26v-43.87a4.088 4.088 0 012.72-3.83l54.29-19.19a4.05 4.05 0 011.6-.33c2.24 0 4.07 1.82 4.07 4.07v53.44c.52 1.76.8 3.63.8 5.57 0 10.91-8.91 19.81-19.82 19.81-10.93 0-19.81-8.9-19.81-19.81 0-10.93 8.89-19.81 19.81-19.81a19.6 19.6 0 0110.88 3.26z"/><circle fill="#5DA586" cx="19.81" cy="234.11" r="13.42"/><circle fill="#E17665" cx="74.35" cy="213.42" r="13.42"/><path fill="#3A2A23" fill-rule="nonzero" d="M392.06 151.03V114.3l-46.4 16.42v51.96c.52 1.77.8 3.65.8 5.59 0 10.92-8.89 19.81-19.81 19.81-10.91 0-19.82-8.9-19.82-19.81 0-10.93 8.9-19.82 19.82-19.82 4.01 0 7.75 1.2 10.87 3.25v-43.85a4.088 4.088 0 012.72-3.83l54.29-19.2a4.067 4.067 0 015.67 3.74v53.45c.52 1.77.8 3.64.8 5.56 0 10.92-8.89 19.82-19.81 19.82-10.91 0-19.81-8.91-19.81-19.82 0-10.93 8.89-19.81 19.81-19.81 4.01 0 7.75 1.21 10.87 3.27z"/><circle fill="#5DA586" cx="326.65" cy="188.27" r="13.42"/><circle fill="#5DA586" cx="381.19" cy="167.57" r="13.42"/><path fill="#3A2A23" fill-rule="nonzero" d="M66.96 72.74a4.05 4.05 0 01.21 5.73 4.05 4.05 0 01-5.73.21l-19.2-17.82v46.71c.46 1.66.7 3.42.7 5.23 0 10.91-8.9 19.81-19.81 19.81-10.9 0-19.81-8.91-19.81-19.81 0-10.91 8.91-19.82 19.81-19.82 4.06 0 7.83 1.23 10.98 3.33V51.54c.01-.98.37-1.98 1.09-2.76a4.07 4.07 0 015.74-.21l26.02 24.17z"/><circle fill="#E17665" cx="23.13" cy="112.8" r="13.42"/><path fill="#3A2A23" fill-rule="nonzero" d="M378.73 25.25c1.64 1.53 1.74 4.1.21 5.74a4.061 4.061 0 01-5.74.2l-19.19-17.82v46.72c.46 1.66.7 3.41.7 5.22 0 10.9-8.91 19.81-19.81 19.81-10.91 0-19.81-8.9-19.81-19.81 0-10.93 8.9-19.81 19.81-19.81 4.05 0 7.83 1.23 10.98 3.33V4.06c.01-.99.36-1.98 1.09-2.77a4.061 4.061 0 015.74-.2l26.02 24.16z"/><circle fill="#5DA586" cx="334.9" cy="65.31" r="13.42"/><path fill="#6E2222" fill-rule="nonzero" d="M182.2 505.42c-.81.03-1.64-.07-2.46-.32L41.99 461.73a7.273 7.273 0 01-5.5-7.05V288.27c.01-.74.12-1.5.37-2.24 1.23-3.81 5.33-5.89 9.13-4.66l137.7 44.69c1.39.36 2.63 1.11 3.57 2.14 2.76-1.29 5.84-2.02 9.08-2.02h10.13c3.21 0 6.26.71 9.01 1.99a7.23 7.23 0 014.19-2.75l137.17-44.05c3.81-1.22 7.89.88 9.11 4.68.27.85.38 1.71.34 2.55l-.22 165.25c0 3.24-2.13 5.98-5.06 6.9v.02L223.5 504.21c-.62.19-1.24.3-1.87.33-2.79 2.56-6.3 4.44-10.16 5.63-3.24 1-6.69 1.5-10.07 1.5s-6.83-.5-10.06-1.5c-3.41-1.05-6.54-2.64-9.14-4.75z"/><path fill="#F8CBAA" d="M130.04 173.73c-12.96-3.68-21.31-19.42-15.76-32.02 4.88 1.34 8.72-.85 12.78-3.36-.38 11.01.29 20.83 1.81 29.6.35 1.98.74 3.91 1.17 5.78zm24.34-57.5l1.58-.99c5.13.98 10.19 1.46 15.18 1.45 8.09-.02 15.98-1.33 23.66-3.88 18.14-6.04 31.78-14.63 40.71-26.64 2.53-3.4 4.66-7.05 6.4-10.96l24.75 51.95c3.31 28.29-.22 49.75-8.81 65.73-11.93 22.19-33.74 33.32-55.65 33.59-22.09.28-44.29-10.48-56.58-32.05-8.02-14.07-12.49-32.95-11.18-58.79 2.5-.14 5.07-.36 8.82-2.13 4.32-2.05 7.23-6.17 9.15-10.93.81-2.03 1.46-4.2 1.97-6.35zm118.09 57.37c18.81-5.47 28.08-33.74 1.71-44.42 1.39 13.59 1.24 25.7-.28 36.45-.39 2.75-.87 5.4-1.43 7.97z"/><path fill="#3A2A23" d="M211.27 198.65c5.32-5.32 8.38-14.94 3.75-21.6-2.64-3.79-7.44-5.21-13.54-5.2-6.26.39-11.39 1.8-14.09 5.42-4.09 5.5-2.16 15.44 3.43 21.34 6.04 6.37 14.36 6.13 20.45.04z"/><path fill="#FC3737" d="M181.9 498.17V333.1L43.75 288.27v166.41l138.15 43.49zm39.42-.89V332.49l137.73-44.22-.22 165.58-137.51 43.43z"/><path fill="#3A2A23" fill-rule="nonzero" d="M353.56 338.95c21.97 0 39.8 17.85 39.8 39.81 0 21.97-17.82 39.8-39.8 39.8-10.99 0-20.94-4.46-28.15-11.66-7.2-7.2-11.65-17.16-11.65-28.14 0-21.95 17.86-39.81 39.8-39.81zm-303.96 0c10.99 0 20.94 4.46 28.15 11.66 7.2 7.2 11.65 17.15 11.65 28.15 0 10.98-4.45 20.94-11.65 28.14l-.46.41c-7.18 6.96-16.95 11.25-27.69 11.25-10.99 0-20.94-4.46-28.14-11.66-7.2-7.2-11.66-17.16-11.66-28.14 0-21.97 17.84-39.81 39.8-39.81z"/><path fill="#F8CDAA" d="M353.56 346.22c17.97 0 32.54 14.57 32.54 32.54s-14.57 32.53-32.54 32.53-32.54-14.56-32.54-32.53 14.57-32.54 32.54-32.54zm-303.96 0c17.97 0 32.54 14.57 32.54 32.54s-14.57 32.53-32.54 32.53-32.54-14.56-32.54-32.53 14.57-32.54 32.54-32.54z"/><path fill="#961919" fill-rule="nonzero" d="M130.33 351.67l-15.92 15.74c-1.74 2.11-.67 4.51 1.96 4.77l.12.01.01.01 3.88.28-16.33 16.22c-1.94 1.63-1.28 4.5.72 5.03l8.59.62-14.24 14.18-1.56 1.54c-1.19 1.15-.91 4.02 1.39 4.45l23.23 1.69 10.89.79 21.59 1.57c3.59.59 4.58-2.2 3.25-4.69l-12.34-17.18.44-.37 7.38.53c2.64.59 3.9-2.24 2.46-4.39l-13.3-18.52 4.35.31c2.72.27 3.61-2.19 2.08-4.67l-12.1-17.07c-2.55-3.56-3.41-3.95-6.55-.85z"/><path fill="#500E0E" fill-rule="nonzero" d="M122.35 416.22l-1.67 16.61 10.88.86 1.68-16.68z"/><path fill="#5DA887" d="M196.34 333.44h10.13c2.78 0 5.38.8 7.59 2.19v161.65c0 .73.11 1.46.34 2.19.12.4.28.78.47 1.14-7.1 4.92-18.94 5.06-26.31.42.1-.23.18-.46.26-.7.22-.72.33-1.44.34-2.16V335.38c2.11-1.23 4.57-1.94 7.18-1.94z"/></svg>