<?xml version="1.0" encoding="UTF-8"?>
<svg id="Layer_2" data-name="Layer 2" xmlns="http://www.w3.org/2000/svg" viewBox="0 0 156.05 200.81">
  <defs>
    <style>
      .cls-1, .cls-2 {
        fill: #342522;
      }

      .cls-3 {
        fill: #6c2f35;
      }

      .cls-4 {
        fill: #7e363e;
      }

      .cls-5 {
        fill: #f3bb9a;
      }

      .cls-6 {
        fill: #e59f75;
      }

      .cls-7 {
        fill: #fff;
      }

      .cls-8 {
        stroke-linecap: round;
        stroke-width: 3.5px;
      }

      .cls-8, .cls-9 {
        stroke-linejoin: round;
      }

      .cls-8, .cls-9, .cls-10 {
        stroke: #342522;
      }

      .cls-8, .cls-10 {
        fill: none;
      }

      .cls-2 {
        stroke: #fff;
        stroke-width: 10px;
      }

      .cls-2, .cls-10 {
        stroke-miterlimit: 10;
      }

      .cls-9 {
        fill: #523b39;
      }

      .cls-9, .cls-10 {
        stroke-width: 5px;
      }

      .cls-11 {
        fill: #8a685f;
      }
    </style>
  </defs>
  <g id="Layer_1-2" data-name="Layer 1">
    <g>
      <path class="cls-2" d="M137.81,173.52s-.04-.02-.05-.03c-8.59-4.41-18.52-9.56-27.06-14.26-5.13-2.84-6.73-4.4-6.73-8.63,0-.05,0-.1,0-.14,0,0-.18-5.79-.31-10.33,6.76-5.67,13.3-13.16,15.44-23.44l.15-.03c8.93-1.91,13-11.01,13-18.65,0-6.05-2.63-10.9-6.39-11.81l-2.43-.59,4.6-7.49c.11-.19.2-.39.27-.59,2.23-7.48,2.38-11.09.23-15.17.11-.14.21-.27.31-.4.15-.2.36-.49.57-.74.39.11.82.12,1.23.02.99-.24,1.73-1.05,1.89-2.05.52-3.36-1.45-8.34-2.67-11.02-.73-1.61-3.3-6.94-5.55-8.2-.18-.1-.36-.18-.54-.24-2.28-8.97-7.51-15.58-14.76-18.15-.79-.28-1.67-.15-2.34.36-.52.39-.86.97-.97,1.6-5.2-9.34-12.07-16.32-18.68-18.42-1.05-.34-2.2.06-2.82.97s-.57,2.13.12,2.98c1.03,1.27,2.42,3.29,3.17,5.7-5.71-4.8-12.7-7.9-19.02-8.24-4.43-.26-9.95.22-17.31,5.68-.87.64-1.22,1.77-.88,2.79.19.58.59,1.06,1.09,1.36-1.52-.07-3.16-.09-4.95-.09-16.25,0-22.33,7.49-26.48,15.58-.47.92-.33,2.02.35,2.79.31.35.7.6,1.13.73-7.03,4.71-10.81,10.82-10.92,17.91-.11,7.46,5.87,10.83,13.19,14.06,2.61,3.9,4.46,6.9,5.39,8.77.98,1.95,2.16,5.56,3.31,9.54l-2.21.53c-3.76.91-6.39,5.76-6.39,11.81,0,7.64,4.07,16.73,13,18.65l.14.03c2.11,10.24,8.56,17.45,15.98,23.46-.38,5.43-.84,10.27-.84,10.27,0,.06,0,.12,0,.18,0,4.23-1.6,5.79-6.73,8.63-8.53,4.7-18.46,9.84-27.05,14.25-.02,0-.04.02-.05.03-8.44,4.46-12.9,10.2-13.23,17.04-.07,1.37.43,2.7,1.37,3.69.94.99,2.25,1.55,3.62,1.55h136.05c1.37,0,2.68-.56,3.62-1.55.94-.99,1.44-2.33,1.37-3.69-.34-6.84-4.79-12.58-13.23-17.04Z"/>
      <path class="cls-5" d="M135.46,177.94c-8.6-4.42-18.61-9.6-27.18-14.33-5.28-2.92-9.31-5.73-9.31-13.01v-10.15l2.3-1.7c7.84-5.79,11-11.4,12.5-22.22l.55-3.93,3.88-.83c6.22-1.33,9.05-8.06,9.05-13.76,0-4.16-1.67-6.73-2.56-6.95l-5.25-1.27-15.43-3.93h-51.98l-15.43,3.93-5.25,1.27c-.89.22-2.56,2.79-2.56,6.95,0,5.69,2.83,12.43,9.05,13.76l3.88.83.55,3.93c1.51,10.82,4.66,16.43,12.5,22.22l2.3,1.7v10.15c0,7.28-4.03,10.09-9.31,13.01-8.57,4.72-18.58,9.91-27.18,14.33-6.78,3.58-10.33,7.91-10.58,12.87h136.05c-.24-4.96-3.8-9.29-10.58-12.87Z"/>
      <path class="cls-5" d="M135.46,177.94c-8.6-4.42-18.61-9.6-27.18-14.33-5.28-2.92-9.31-5.73-9.31-13.01v-10.15l2.3-1.7c7.84-5.79,11-11.4,12.5-22.22l.55-3.93,3.88-.83c6.22-1.33,9.05-8.06,9.05-13.76,0-4.16-1.67-6.73-2.56-6.95l-5.25-1.27-15.43-3.93h-51.98l-15.43,3.93-5.25,1.27c-.89.22-2.56,2.79-2.56,6.95,0,5.69,2.83,12.43,9.05,13.76l3.88.83.55,3.93c5.47,10.8,4.66,16.43,12.5,22.22l2.3,1.7v10.15c0,7.28-4.03,10.09-9.31,13.01-8.57,4.72-18.58,9.91-27.18,14.33-6.78,3.58-10.33,7.91-10.58,12.87h136.05c-.24-4.96-3.8-9.29-10.58-12.87Z"/>
      <path class="cls-6" d="M135.47,177.94c-8.6-4.42-18.61-9.6-27.18-14.33-3.93-2.17-7.17-4.29-8.57-8.23-5.48,3.43-13.3,6.49-17.9,7.31-2.51.45-5.06.45-7.57,0-4.6-.82-12.42-3.88-17.9-7.31-1.4,3.94-4.64,6.06-8.57,8.23-8.57,4.72-18.58,9.91-27.18,14.33-6.78,3.58-10.33,7.91-10.58,12.87h136.05c-.24-4.96-3.8-9.29-10.58-12.87Z"/>
      <path class="cls-1" d="M104,85.87l15.43,3.93,5.25,1.27c.89.22,2.56,2.79,2.56,6.95,0,5.69-2.83,12.43-9.05,13.76l-3.88.83-2.91,3.73c-1.51,10.82-3.86,9.65-11.7,15.44l-1.19,3.44.44,15.39c0,7.28,4.03,10.09,9.31,13.01,8.57,4.72,18.58,9.91,27.18,14.33,6.78,3.58,10.33,7.91,10.58,12.87H9.99c.24-4.96,3.8-9.29,10.58-12.87,8.6-4.42,18.61-9.6,27.18-14.33,5.28-2.92,9.31-5.73,9.31-13.01l.61-17.3-1.92-4.03c-7.84-5.79-11.99-1.92-13.49-12.74l-.55-3.93-3.88-.83c-6.22-1.33-9.05-8.06-9.05-13.76,0-4.16,1.67-6.73,2.56-6.95l5.25-1.27,15.43-3.93h51.98M104,80.87h-51.98c-.42,0-.83.05-1.24.15l-15.4,3.93-5.22,1.26c-3.76.91-6.39,5.76-6.39,11.81,0,7.64,4.07,16.73,13,18.65l.46.1.06.46c1.29,9.3,5.06,11.4,9.85,13.19,1.45.54,2.93,1.1,4.65,2.21l.82,1.73-.57,16.08c0,.06,0,.12,0,.18,0,4.23-1.6,5.79-6.73,8.63-8.53,4.7-18.46,9.84-27.05,14.25-.02,0-.04.02-.05.03-8.44,4.46-12.9,10.2-13.23,17.04-.07,1.37.43,2.7,1.37,3.69.94.99,2.25,1.55,3.62,1.55h136.05c1.37,0,2.68-.56,3.62-1.55.94-.99,1.44-2.33,1.37-3.69-.34-6.84-4.79-12.58-13.23-17.04-.02,0-.04-.02-.05-.03-8.59-4.41-18.52-9.56-27.06-14.26-5.13-2.84-6.73-4.4-6.73-8.63,0-.05,0-.1,0-.14l-.42-14.48.37-1.08c1.04-.73,1.98-1.33,2.84-1.88,5.49-3.54,8-5.96,9.4-14.65l.98-1.26,2.1-.45c8.93-1.91,13-11.01,13-18.65,0-6.05-2.63-10.9-6.39-11.81l-5.21-1.26-15.4-3.93c-.4-.1-.82-.15-1.24-.15h0Z"/>
      <path class="cls-3" d="M135.47,177.94c-8.6-4.42-18.61-9.6-27.18-14.33-.73-.41-1.44-.81-2.12-1.23-6.72,7.43-16.83,12.16-28.14,12.16s-21.42-4.73-28.14-12.16c-.68.41-1.39.82-2.12,1.23-8.57,4.72-18.58,9.91-27.18,14.33-6.78,3.58-10.33,7.91-10.58,12.87h136.05c-.24-4.96-3.8-9.29-10.58-12.87Z"/>
      <path class="cls-1" d="M106.15,162.39c.68.41,1.39.82,2.12,1.23,8.57,4.72,18.58,9.91,27.18,14.33,6.78,3.58,10.33,7.91,10.58,12.87H9.99c.24-4.96,3.8-9.29,10.58-12.87,8.6-4.42,18.61-9.6,27.18-14.33.73-.41,1.44-.81,2.12-1.23,6.72,7.43,16.83,12.16,28.14,12.16s21.42-4.73,28.14-12.16M106.15,157.39c-1.38,0-2.73.57-3.71,1.65-6.04,6.68-14.95,10.51-24.43,10.51s-18.39-3.83-24.43-10.51c-.98-1.08-2.34-1.65-3.71-1.65-.89,0-1.79.24-2.6.73-.56.34-1.2.71-1.94,1.12-8.53,4.7-18.46,9.84-27.05,14.25-.02,0-.04.02-.05.03-8.44,4.46-12.9,10.2-13.23,17.04-.07,1.37.43,2.7,1.37,3.69.94.99,2.25,1.55,3.62,1.55h136.05c1.37,0,2.68-.56,3.62-1.55.94-.99,1.44-2.33,1.37-3.69-.34-6.84-4.79-12.58-13.23-17.04-.02,0-.04-.02-.05-.03-8.59-4.41-18.52-9.55-27.06-14.26-.73-.41-1.37-.77-1.93-1.11-.81-.49-1.71-.73-2.6-.73h0Z"/>
      <path class="cls-9" d="M20.26,52.26l14.3,5.38,4.88,45.53s-4.98-21.83-8.13-28.14c-2.3-4.61-8.99-14.14-13.19-19.99-1.06-1.47.44-3.41,2.13-2.78Z"/>
      <path class="cls-4" d="M135.47,177.94c-7.56-3.88-16.21-8.36-24.01-12.59-8.28,9.63-20.19,15.67-33.43,15.67s-25.15-6.04-33.43-15.67c-7.8,4.23-16.45,8.71-24.01,12.59-6.78,3.58-10.33,7.91-10.58,12.87h136.05c-.24-4.96-3.8-9.29-10.58-12.87Z"/>
      <path class="cls-11" d="M103.21,126.75c-1.72-1.16.52-6.74-1.99-11.2-1.04-1.85-5.04-3.82-23.2-3.82s-22.67,1.96-23.71,3.81c-2.51,4.46-.13,10.06-1.85,11.21-2.22,1.5-6.46-7.11-13.01-13.96,1.2,12.08,4.02,20.18,14.63,28,5.36,4.01,14.87,7.9,20.15,8.84,2.51.45,5.06.45,7.57,0,5.28-.94,14.79-4.82,20.15-8.84,10.61-7.82,13.43-15.91,14.63-28-6.55,6.85-11.15,15.45-13.37,13.96ZM97.07,128.65c-1.08,4.12-3.95,7.24-7.89,8.82-1.04.42-2.48,1.18-3.55.68-1.66-.77-2.32-3.91-4.36-4.05-2.16-.15-4.12-.15-6.2-.04-.77.04-1.57.52-2.02,1.07l-1.94,2.37c-.44.54-1.15.96-1.9.8-5.09-1.07-8.95-4.73-10.27-9.76-.86-3.25-.98-6.62-.52-9.94.13-.93.74-1.69,1.63-1.87.97-.19,1.91-.39,2.96-.39h30.08c1.83,0,4.31.33,4.58,2.46.42,3.29.25,6.62-.6,9.85Z"/>
      <path class="cls-5" d="M118.25,79.14c-.17-12.9-2.55-33.02-7.27-36.75-4.39-3.48-9.63-7.25-17.09-7.25s-12.16,4.49-15.87,6.67c-3.63,2.14-8.95,3.71-16.44,3.71s-12.87-2.44-16.52-3.14c-5.58,2.24-7.09,23.85-7.27,36.75l-.24,9.73,1.31,23.95c1.21,12.35,8.94,20.6,19.76,28.57,5.44,4.07,10.21,8.02,15.56,8.97,2.55.45,5.14.45,7.69,0,5.36-.95,10.04-4.38,15.48-8.46,10.82-7.97,18.63-16.73,19.84-29.08l1.31-23.95-.24-9.73Z"/>
      <path class="cls-10" d="M118.25,79.14c-.17-12.9-2.55-35.5-7.27-39.24-4.39-3.48-9.63-7.25-17.09-7.25s-12.16,4.49-15.87,6.67c-3.63,2.14-8.95,3.71-16.44,3.71s-12.87-2.44-16.52-3.14c-5.58,2.24-7.09,26.34-7.27,39.24l-.24,9.73,1.31,23.95c1.21,12.35,8.94,20.6,19.76,28.57,5.44,4.07,10.21,8.02,15.56,8.97,2.55.45,5.14.45,7.69,0,5.36-.95,10.04-4.38,15.48-8.46,10.82-7.97,18.63-16.73,19.84-29.08l1.31-23.95-.24-9.73Z"/>
      <g>
        <path class="cls-7" d="M77.89,131.03c-6.5,0-12.41-2.72-15.45-7.1-.37-.54-.41-1.23-.11-1.81.3-.58.9-.94,1.55-.94h28.28c.68,0,1.3.4,1.59,1.02.29.62.19,1.35-.26,1.87-2.65,3.11-8.15,6.8-14.89,6.95-.23,0-.47,0-.71,0Z"/>
        <path class="cls-1" d="M92.16,122.93h0M92.16,122.93c-2.5,2.93-7.58,6.2-13.6,6.34-.23,0-.45,0-.67,0-6.47,0-11.53-2.77-14.01-6.35h28.28M92.17,119.43h-28.29c-1.3,0-2.5.72-3.1,1.88-.6,1.15-.52,2.55.22,3.62,3.4,4.92,9.72,7.86,16.89,7.86.26,0,.52,0,.78-.01,7.25-.17,13.18-4.12,16.1-7.49.56-.62.9-1.44.9-2.35,0-1.93-1.56-3.5-3.5-3.5h0ZM92.16,126.43h0,0Z"/>
      </g>
      <path class="cls-8" d="M70.29,109.26c2.24,2.56,4.74,3.93,7.9,3.93s5.31-1.54,7.56-3.93"/>
      <path class="cls-9" d="M37.3,31.15c-5.87-1.13-8.48-.57-15.15,1.86,4.53-8.84,10.48-14.23,24.25-14.23,11.56,0,15.7.95,28.39,8.56-6.47-10.23-12.86-13.11-22.15-13.11,6.31-4.68,11.09-5.46,15.68-5.2,7.97.43,16.54,5.6,21.91,12,1.27-5.46-1.44-10.41-3.97-13.53,8.65,2.76,18.1,15.21,22.69,30.01.8-5.98-.63-10.77-.79-13.57,8.57,3.03,14.36,12.78,14.36,26.43,0,3.16.95,4.32,3.14,4.11-9.72-26.84,5.5-2.88,4.39,4.33-1.54-2.14-3.76,3.31-4.71,3.1,2.6,3.96,3.04,6.59.56,14.92l-7.4,12.05c-1.23-14.29.77-22.76-10.02-29.88-8.73-5.78-18.89-7.74-25.91-6.61-7.89,1.29-15.11,8.62-27.1,7.84-10.55-.7-16.93-4.78-29.7-8.02,4.45,5.5,5.28,7.54,3.07,10.82-1.66,2.71-1.86,3.05-3.66,2.26-7.8-3.41-12.25-6.21-12.17-11.95.16-10.94,10.2-18.23,24.31-22.19Z"/>
      <path class="cls-1" d="M57.89,90.74c-3.4-.1-4.43,3.23-4.43,5.59,0,3.06,1.03,4.61,3.43,4.82,3.57.34,5-2.33,5-5.26,0-2.6-1.5-5.09-4-5.15Z"/>
      <path class="cls-1" d="M98.08,89.96c-3.71.1-4.6,3.94-4.6,6.2,0,3.03,1.2,4.65,3.9,4.82,3.24.17,4.79-2.53,4.69-5.53-.11-2.7-1.48-5.56-3.99-5.49Z"/>
      <path class="cls-1" d="M46.39,85.66c-1.98.72-2.18-1.62-1.09-3.7,1.75-3.4,4.81-3.88,9.34-3.88,5.81,0,10.55.82,13.25,1.88,3,1.15,3.2,5.5-.3,5.88-2.5.3-7.58-1.68-14.2-1.41-3.1.14-4.88.51-7,1.23Z"/>
      <path class="cls-1" d="M89.08,79.96c-3.6.98-4.35,3.88-2.4,5.6s4.99-.17,11.61-.92c5.23-.59,8.13-.35,11.13.92,2.5,1.06,2.57-1.81.59-4.21-2.4-2.9-6.59-3.27-10.56-3-3.96.21-7.43.76-10.37,1.61Z"/>
    </g>
  </g>
</svg>