<?xml version="1.0" encoding="UTF-8"?><svg xmlns="http://www.w3.org/2000/svg" xmlns:xlink="http://www.w3.org/1999/xlink" id="Layer_2" data-name="Layer 2" viewBox="0 0 73.12 69.59">
  <defs>
    <style>
      .cls-1 {
        fill: url(#radial-gradient);
      }
    </style>
    <radialGradient id="radial-gradient" cx="1.83" cy="-2.01" fx="1.83" fy="-2.01" r="206.01" gradientUnits="userSpaceOnUse">
      <stop offset="0" stop-color="#fbd437"/>
      <stop offset=".51" stop-color="#ed1c24"/>
      <stop offset="1" stop-color="#f58220"/>
    </radialGradient>
  </defs>
  <g id="Layer_2-2" data-name="Layer 2">
    <g>
      <path class="cls-1" d="M9.84,24.96c-2.72,0-5.18,1.1-6.96,2.87-1.78,1.78-2.88,4.24-2.88,6.96s1.1,5.18,2.88,6.96c1.78,1.78,4.24,2.88,6.96,2.88s5.17-1.1,6.96-2.87c1.78-1.78,2.88-4.24,2.88-6.96s-1.1-5.18-2.88-6.96c-1.78-1.78-4.24-2.88-6.96-2.88ZM13.97,38.93c-1.05,1.06-2.52,1.71-4.13,1.71s-3.07-.65-4.13-1.71-1.71-2.52-1.71-4.14.65-3.07,1.71-4.13c1.05-1.06,2.52-1.71,4.13-1.71s3.07.65,4.13,1.71c1.06,1.06,1.71,2.52,1.71,4.13s-.65,3.08-1.71,4.14Z"/>
      <path class="cls-1" d="M9.84,7.35c-1.37,0-2.49,1.11-2.49,2.49,0,1.59,1.49,2.83,3.15,2.4.84-.22,1.52-.9,1.74-1.74.43-1.66-.81-3.15-2.4-3.15Z"/>
      <path class="cls-1" d="M9.84,49.92c-2.72,0-5.18,1.1-6.96,2.88-1.78,1.78-2.88,4.24-2.88,6.96s1.1,5.18,2.88,6.96c1.78,1.78,4.24,2.88,6.96,2.88s5.18-1.1,6.96-2.88c1.78-1.78,2.88-4.24,2.88-6.96s-1.1-5.18-2.88-6.96-4.24-2.88-6.96-2.88ZM13.97,63.88c-1.05,1.06-2.51,1.71-4.13,1.71s-3.08-.65-4.14-1.71-1.71-2.52-1.71-4.14.65-3.07,1.71-4.13c1.05-1.06,2.52-1.71,4.13-1.71s3.07.65,4.13,1.71,1.71,2.52,1.72,4.13c0,1.62-.65,3.08-1.71,4.14Z"/>
      <path class="cls-1" d="M9.84,0c-2.72,0-5.18,1.1-6.96,2.88S0,7.12,0,9.84s1.1,5.17,2.88,6.96c1.78,1.78,4.24,2.88,6.96,2.88s5.18-1.1,6.96-2.88,2.88-4.24,2.88-6.96-1.1-5.18-2.88-6.96c-1.78-1.78-4.24-2.88-6.96-2.88ZM13.97,13.96c-1.05,1.06-2.51,1.71-4.13,1.71s-3.08-.65-4.14-1.71c-1.06-1.05-1.71-2.52-1.71-4.13s.65-3.07,1.71-4.13c1.05-1.06,2.52-1.71,4.13-1.71s3.07.65,4.13,1.71c1.06,1.06,1.72,2.52,1.72,4.13s-.65,3.07-1.71,4.13Z"/>
      <path class="cls-1" d="M32.99,17.24h32.65c4.13,0,7.48-3.35,7.48-7.48s-3.35-7.48-7.48-7.48h-32.65c-4.13,0-7.48,3.35-7.48,7.48s3.35,7.48,7.48,7.48Z"/>
      <rect class="cls-1" x="25.51" y="27.7" width="47.61" height="14.96" rx="7.48" ry="7.48"/>
      <path class="cls-1" d="M65.64,52.27h-32.65c-4.13,0-7.48,3.35-7.48,7.48s3.35,7.48,7.48,7.48h32.65c4.13,0,7.48-3.35,7.48-7.48s-3.35-7.48-7.48-7.48Z"/>
    </g>
  </g>
</svg>