<?xml version="1.0" encoding="UTF-8"?>
<svg id="Layer_2" xmlns="http://www.w3.org/2000/svg" xmlns:xlink="http://www.w3.org/1999/xlink" version="1.1" viewBox="0 0 73.1 73.1">
  <!-- Generator: Adobe Illustrator 30.3.0, SVG Export Plug-In . SVG Version: 2.1.3 Build 182)  -->
  <defs>
    <style>
      .st0, .st1 {
        fill: #fff;
      }

      .st0, .st2 {
        fill-rule: evenodd;
      }

      .st3 {
        fill: url(#linear-gradient2);
      }

      .st4 {
        fill: url(#linear-gradient1);
      }

      .st5 {
        fill: url(#linear-gradient);
      }

      .st2 {
        fill: url(#linear-gradient3);
      }
    </style>
    <linearGradient id="linear-gradient" x1="-93.1" y1="-91.6" x2="-20" y2="-18.5" gradientTransform="translate(0 -111.6) scale(1 -1)" gradientUnits="userSpaceOnUse">
      <stop offset="0" stop-color="#54005f"/>
      <stop offset=".3" stop-color="#370049"/>
      <stop offset="1" stop-color="#00001f"/>
    </linearGradient>
    <linearGradient id="linear-gradient1" x1="10.9" y1="-80.7" x2="61.4" y2="-30.2" gradientTransform="translate(0 -111.6) scale(1 -1)" gradientUnits="userSpaceOnUse">
      <stop offset="0" stop-color="#d08fd9"/>
      <stop offset="0" stop-color="#c386d6"/>
      <stop offset=".7" stop-color="#3726bd"/>
      <stop offset="1" stop-color="#0000b3"/>
    </linearGradient>
    <linearGradient id="linear-gradient2" x1="-93.1" y1="-184.7" x2="-20" y2="-111.6" xlink:href="#linear-gradient"/>
    <linearGradient id="linear-gradient3" x1="11.4" y1="36.5" x2="61.7" y2="36.5" gradientUnits="userSpaceOnUse">
      <stop offset="0" stop-color="#d08fd9"/>
      <stop offset="0" stop-color="#6d5499"/>
      <stop offset="1" stop-color="#ceceeb"/>
    </linearGradient>
  </defs>
  <g>
    <rect class="st5" x="-93.1" y="-93.1" width="73.1" height="73.1"/>
    <g id="Layer_2-2">
      <g>
        <path class="st1" d="M-77.3-64.2c-2.1,0-4,.9-5.4,2.2-1.4,1.4-2.2,3.3-2.2,5.4s.9,4,2.2,5.4c1.4,1.4,3.3,2.2,5.4,2.2s4-.9,5.4-2.2c1.4-1.4,2.2-3.3,2.2-5.4s-.9-4-2.2-5.4c-1.4-1.4-3.3-2.2-5.4-2.2ZM-74.1-53.3c-.8.8-2,1.3-3.2,1.3s-2.4-.5-3.2-1.3-1.3-2-1.3-3.2.5-2.4,1.3-3.2,2-1.3,3.2-1.3,2.4.5,3.2,1.3,1.3,2,1.3,3.2-.5,2.4-1.3,3.2Z"/>
        <path class="st1" d="M-77.3-77.8c-1.1,0-1.9.9-1.9,1.9s1.2,2.2,2.4,1.9c.7-.2,1.2-.7,1.3-1.3.3-1.3-.6-2.4-1.9-2.4h0Z"/>
        <path class="st1" d="M-77.3-44.8c-2.1,0-4,.9-5.4,2.2-1.4,1.4-2.2,3.3-2.2,5.4s.9,4,2.2,5.4c1.4,1.4,3.3,2.2,5.4,2.2s4-.9,5.4-2.2c1.4-1.4,2.2-3.3,2.2-5.4s-.9-4-2.2-5.4-3.3-2.2-5.4-2.2ZM-74.1-34c-.8.8-1.9,1.3-3.2,1.3s-2.4-.5-3.2-1.3-1.3-2-1.3-3.2.5-2.4,1.3-3.2,2-1.3,3.2-1.3,2.4.5,3.2,1.3,1.3,2,1.3,3.2-.5,2.4-1.3,3.2Z"/>
        <path class="st1" d="M-77.3-83.5c-2.1,0-4,.9-5.4,2.2-1.4,1.4-2.2,3.3-2.2,5.4s.9,4,2.2,5.4c1.4,1.4,3.3,2.2,5.4,2.2s4-.9,5.4-2.2,2.2-3.3,2.2-5.4-.9-4-2.2-5.4c-1.4-1.4-3.3-2.2-5.4-2.2ZM-74.1-72.7c-.8.8-1.9,1.3-3.2,1.3s-2.4-.5-3.2-1.3c-.8-.8-1.3-2-1.3-3.2s.5-2.4,1.3-3.2,2-1.3,3.2-1.3,2.4.5,3.2,1.3,1.3,2,1.3,3.2-.5,2.4-1.3,3.2Z"/>
        <path class="st1" d="M-59.3-70.1h25.3c3.2,0,5.8-2.6,5.8-5.8s-2.6-5.8-5.8-5.8h-25.3c-3.2,0-5.8,2.6-5.8,5.8s2.6,5.8,5.8,5.8Z"/>
        <path class="st1" d="M-59.3-62h25.3c3.2,0,5.8,2.6,5.8,5.8h0c0,3.2-2.6,5.8-5.8,5.8h-25.3c-3.2,0-5.8-2.6-5.8-5.8h0c0-3.2,2.6-5.8,5.8-5.8Z"/>
        <path class="st1" d="M-34-43h-25.3c-3.2,0-5.8,2.6-5.8,5.8s2.6,5.8,5.8,5.8h25.3c3.2,0,5.8-2.6,5.8-5.8s-2.6-5.8-5.8-5.8Z"/>
      </g>
    </g>
  </g>
  <path id="Layer_2-21" class="st4" d="M15.8-63.8c-2.1,0-4,.9-5.4,2.2-1.4,1.4-2.2,3.3-2.2,5.4s.9,4,2.2,5.4c1.4,1.4,3.3,2.2,5.4,2.2s4-.9,5.4-2.2c1.4-1.4,2.2-3.3,2.2-5.4s-.9-4-2.2-5.4c-1.4-1.4-3.3-2.2-5.4-2.2ZM19-52.9c-.8.8-2,1.3-3.2,1.3s-2.4-.5-3.2-1.3-1.3-2-1.3-3.2.5-2.4,1.3-3.2,2-1.3,3.2-1.3,2.4.5,3.2,1.3,1.3,2,1.3,3.2-.5,2.4-1.3,3.2ZM15.8-77.4c-1.1,0-1.9.9-1.9,1.9s1.2,2.2,2.4,1.9c.7-.2,1.2-.7,1.3-1.3.3-1.3-.6-2.4-1.9-2.4h0ZM15.8-44.4c-2.1,0-4,.9-5.4,2.2-1.4,1.4-2.2,3.3-2.2,5.4s.9,4,2.2,5.4c1.4,1.4,3.3,2.2,5.4,2.2s4-.9,5.4-2.2c1.4-1.4,2.2-3.3,2.2-5.4s-.9-4-2.2-5.4-3.3-2.2-5.4-2.2ZM19-33.6c-.8.8-1.9,1.3-3.2,1.3s-2.4-.5-3.2-1.3-1.3-2-1.3-3.2.5-2.4,1.3-3.2,2-1.3,3.2-1.3,2.4.5,3.2,1.3,1.3,2,1.3,3.2-.5,2.4-1.3,3.2ZM15.8-83.1c-2.1,0-4,.9-5.4,2.2-1.4,1.4-2.2,3.3-2.2,5.4s.9,4,2.2,5.4c1.4,1.4,3.3,2.2,5.4,2.2s4-.9,5.4-2.2,2.2-3.3,2.2-5.4-.9-4-2.2-5.4c-1.4-1.4-3.3-2.2-5.4-2.2ZM19-72.3c-.8.8-1.9,1.3-3.2,1.3s-2.4-.5-3.2-1.3c-.8-.8-1.3-2-1.3-3.2s.5-2.4,1.3-3.2,2-1.3,3.2-1.3,2.4.5,3.2,1.3,1.3,2,1.3,3.2-.5,2.4-1.3,3.2ZM33.7-69.7h25.3c3.2,0,5.8-2.6,5.8-5.8s-2.6-5.8-5.8-5.8h-25.3c-3.2,0-5.8,2.6-5.8,5.8s2.6,5.8,5.8,5.8ZM33.7-61.6h25.3c3.2,0,5.8,2.6,5.8,5.8h0c0,3.2-2.6,5.8-5.8,5.8h-25.3c-3.2,0-5.8-2.6-5.8-5.8h0c0-3.2,2.6-5.8,5.8-5.8ZM59-42.6h-25.3c-3.2,0-5.8,2.6-5.8,5.8s2.6,5.8,5.8,5.8h25.3c3.2,0,5.8-2.6,5.8-5.8s-2.6-5.8-5.8-5.8Z"/>
  <g>
    <rect class="st3" x="-93.1" width="73.1" height="73.1"/>
    <path class="st0" d="M-48.3,21.3c1.4.8,2.7,1.9,3.8,3.1,1.1,1.2,1.9,2.6,2.6,4.1h0c.3.9.6,1.7.8,2.6.5,2,.5,4.1.1,6.2-.2,1.1-.5,2.2-1,3.2h0c-.9,2.3-2.5,4.5-4,6.6-.8,1.1-1.5,2.1-2.2,3.2-.4.7-1.1,1-1.9,1l-12.2,1.8c-1,.2-2-.5-2.3-1.5-.3-.9-.7-1.7-1.1-2.6-.4-.7-.8-1.4-1.3-2-.6-.7-1.3-1.5-1.9-2.3-.7-1-1.3-2-1.8-3.1h0c-.5-1.1-.9-2.3-1.2-3.5-.3-1.2-.4-2.5-.4-3.7h0c0-1.3.2-2.6.5-3.9.4-1.4.9-2.7,1.5-3.9v-.2c.9-1.4,2-2.7,3.2-3.8,1.2-1.1,2.6-2,4.2-2.6h.1c1.1-.5,2.3-.8,3.5-1,1.3-.2,2.6-.2,3.9,0,1.3.1,2.5.4,3.7.8,1.2.4,2.4.9,3.5,1.5ZM-50,59.9c-.7,1.2-1.6,2.1-2.8,2.8-1,.6-2.1.9-3.2,1-1.1,0-2.3-.1-3.3-.6-.7-.4-1.4-.8-1.9-1.4l11.2-1.7ZM-48.9,53.7v1c0,.5,0,1,0,1.4l-.2,1.1-13.5,2-.2-.5-.5-2.2v-.6l14.5-2.2h0ZM-56.9,11c0-.9.8-1.7,1.7-1.7h.1c.4,0,.8.2,1.1.5.3.3.5.7.5,1.2h0s0,0,0,0v3.6h0s0,0,0,.1c0,.9-.8,1.6-1.7,1.6h-.1c-.4,0-.8-.2-1.1-.5-.3-.3-.5-.8-.5-1.2h0s0,0,0,0v-3.6c0,0,0,0,0,0ZM-75.5,17.3c-.3-.3-.5-.7-.5-1.2,0-.9.7-1.7,1.6-1.8,0,0,0,0,0,0,.4,0,.9.1,1.2.4l2.7,2.5c.7.6.7,1.7,0,2.4-.3.3-.7.5-1.2.5-.4,0-.9-.1-1.2-.4l-2.7-2.5ZM-80,36c-.9,0-1.7-.7-1.8-1.6,0,0,0,0,0,0,0-.4.1-.9.4-1.2.3-.3.7-.5,1.2-.5h3.7c.9-.2,1.7.6,1.8,1.5,0,0,0,0,0,0h0c0,.5-.2.9-.4,1.2-.3.3-.7.5-1.2.5h-3.7c0,.1,0,.1,0,.1ZM-33.2,30.8h0c.4,0,.8.1,1.2.4.3.3.6.7.6,1.1h0c0,1-.6,1.7-1.5,1.8l-3.7.4c-.9,0-1.8-.6-1.9-1.5,0-.9.6-1.8,1.5-1.9,1.2-.1,2.5-.3,3.7-.4h0ZM-40.5,16c.5-.8,1.6-1,2.3-.5,0,0,0,0,0,0h0c.4.2.6.6.7,1.1,0,.4,0,.9-.3,1.3l-2.1,3.1c-.5.8-1.6,1-2.4.5-.8-.5-1-1.6-.5-2.4h0l2.1-3.1h0ZM-54.6,33.6h2.6c.4,0,.7.3.7.7h0c0,.1,0,.3-.1.4l-6.2,10.6c-.2.3-.6.4-.9.2,0,0,0,0,0,0-.2-.1-.4-.4-.3-.7l.9-6.5h-3.1c-.4,0-.7-.2-.7-.6,0,0,0,0,0,0,0-.1,0-.3,0-.4l6.1-10.6c.2-.3.6-.4.9-.2.2.1.4.4.3.7l-.3,6.5h0Z"/>
  </g>
  <path class="st2" d="M44.8,21.3c1.4.8,2.7,1.9,3.8,3.1,1.1,1.2,1.9,2.6,2.6,4.1h0c.3.9.6,1.7.8,2.6.5,2,.5,4.1.1,6.2-.2,1.1-.5,2.2-1,3.2h0c-.9,2.3-2.5,4.5-4,6.6-.8,1.1-1.5,2.1-2.2,3.2-.4.7-1.1,1-1.9,1l-12.2,1.8c-1,.2-2-.5-2.3-1.5-.3-.9-.7-1.7-1.1-2.6-.4-.7-.8-1.4-1.3-2-.6-.7-1.3-1.5-1.9-2.3-.7-1-1.3-2-1.8-3.1h0c-.5-1.1-.9-2.3-1.2-3.5-.3-1.2-.4-2.5-.4-3.7h0c0-1.3.2-2.6.5-3.9.4-1.4.9-2.7,1.5-3.9v-.2c.9-1.4,2-2.7,3.2-3.8,1.2-1.1,2.6-2,4.2-2.6h.1c1.1-.5,2.3-.8,3.5-1,1.3-.2,2.6-.2,3.9,0,1.3.1,2.5.4,3.7.8,1.2.4,2.4.9,3.5,1.5ZM43.1,59.9c-.7,1.2-1.6,2.1-2.8,2.8-1,.6-2.1.9-3.2,1-1.1,0-2.3-.1-3.3-.6-.7-.4-1.4-.8-1.9-1.4l11.2-1.7ZM44.2,53.7v1c0,.5,0,1,0,1.4l-.2,1.1-13.5,2-.2-.5-.5-2.2v-.6l14.5-2.2h0ZM36.2,11c0-.9.8-1.7,1.7-1.7h.1c.4,0,.8.2,1.1.5.3.3.5.7.5,1.2h0s0,0,0,0v3.6h0s0,0,0,.1c0,.9-.8,1.6-1.7,1.6h-.1c-.4,0-.8-.2-1.1-.5-.3-.3-.5-.8-.5-1.2h0s0,0,0,0v-3.6c0,0,0,0,0,0ZM17.6,17.3c-.3-.3-.5-.7-.5-1.2,0-.9.7-1.7,1.6-1.8,0,0,0,0,0,0,.4,0,.9.1,1.2.4l2.7,2.5c.7.6.7,1.7,0,2.4-.3.3-.7.5-1.2.5-.4,0-.9-.1-1.2-.4l-2.7-2.5ZM13.1,36c-.9,0-1.7-.7-1.8-1.6,0,0,0,0,0,0,0-.4.1-.9.4-1.2.3-.3.7-.5,1.2-.5h3.7c.9-.2,1.7.6,1.8,1.5,0,0,0,0,0,0h0c0,.5-.2.9-.4,1.2-.3.3-.7.5-1.2.5h-3.7c0,.1,0,.1,0,.1ZM59.9,30.8h0c.4,0,.8.1,1.2.4.3.3.6.7.6,1.1h0c0,1-.6,1.7-1.5,1.8l-3.7.4c-.9,0-1.8-.6-1.9-1.5,0-.9.6-1.8,1.5-1.9,1.2-.1,2.5-.3,3.7-.4h0ZM52.6,16c.5-.8,1.6-1,2.3-.5,0,0,0,0,0,0h0c.4.2.6.6.7,1.1,0,.4,0,.9-.3,1.3l-2.1,3.1c-.5.8-1.6,1-2.4.5-.8-.5-1-1.6-.5-2.4h0l2.1-3.1h0ZM38.5,33.6h2.6c.4,0,.7.3.7.7h0c0,.1,0,.3-.1.4l-6.2,10.6c-.2.3-.6.4-.9.2,0,0,0,0,0,0-.2-.1-.4-.4-.3-.7l.9-6.5h-3.1c-.4,0-.7-.2-.7-.6,0,0,0,0,0,0,0-.1,0-.3,0-.4l6.1-10.6c.2-.3.6-.4.9-.2.2.1.4.4.3.7l-.3,6.5h0Z"/>
</svg>