<?xml version="1.0" encoding="UTF-8"?>
<svg id="Layer_2" xmlns="http://www.w3.org/2000/svg" xmlns:xlink="http://www.w3.org/1999/xlink" version="1.1" viewBox="0 0 73.1 73.1">
  <!-- Generator: Adobe Illustrator 30.3.0, SVG Export Plug-In . SVG Version: 2.1.3 Build 182)  -->
  <defs>
    <style>
      .st0 {
        fill: url(#linear-gradient1);
      }

      .st1 {
        fill: url(#linear-gradient);
      }

      .st2 {
        fill: #fff;
      }
    </style>
    <linearGradient id="linear-gradient" x1="0" y1="73.1" x2="73.1" y2="0" gradientUnits="userSpaceOnUse">
      <stop offset="0" stop-color="#54005f"/>
      <stop offset=".3" stop-color="#370049"/>
      <stop offset="1" stop-color="#00001f"/>
    </linearGradient>
    <linearGradient id="linear-gradient1" x1="105.4" y1="61.8" x2="155.9" y2="11.3" gradientUnits="userSpaceOnUse">
      <stop offset="0" stop-color="#d08fd9"/>
      <stop offset="0" stop-color="#c386d6"/>
      <stop offset=".7" stop-color="#3726bd"/>
      <stop offset="1" stop-color="#0000b3"/>
    </linearGradient>
  </defs>
  <g>
    <rect class="st1" x="0" width="73.1" height="73.1"/>
    <g id="Layer_2-2">
      <g>
        <path class="st2" d="M15.8,28.9c-2.1,0-4,.9-5.4,2.2-1.4,1.4-2.2,3.3-2.2,5.4s.9,4,2.2,5.4c1.4,1.4,3.3,2.2,5.4,2.2s4-.9,5.4-2.2c1.4-1.4,2.2-3.3,2.2-5.4s-.9-4-2.2-5.4c-1.4-1.4-3.3-2.2-5.4-2.2ZM19,39.8c-.8.8-2,1.3-3.2,1.3s-2.4-.5-3.2-1.3-1.3-2-1.3-3.2.5-2.4,1.3-3.2c.8-.8,2-1.3,3.2-1.3s2.4.5,3.2,1.3,1.3,2,1.3,3.2-.5,2.4-1.3,3.2Z"/>
        <path class="st2" d="M15.8,15.3c-1.1,0-1.9.9-1.9,1.9s1.2,2.2,2.4,1.9c.7-.2,1.2-.7,1.3-1.3.3-1.3-.6-2.4-1.9-2.4Z"/>
        <path class="st2" d="M15.8,48.3c-2.1,0-4,.9-5.4,2.2-1.4,1.4-2.2,3.3-2.2,5.4s.9,4,2.2,5.4c1.4,1.4,3.3,2.2,5.4,2.2s4-.9,5.4-2.2c1.4-1.4,2.2-3.3,2.2-5.4s-.9-4-2.2-5.4-3.3-2.2-5.4-2.2ZM19,59.1c-.8.8-1.9,1.3-3.2,1.3s-2.4-.5-3.2-1.3-1.3-2-1.3-3.2.5-2.4,1.3-3.2c.8-.8,2-1.3,3.2-1.3s2.4.5,3.2,1.3,1.3,2,1.3,3.2c0,1.3-.5,2.4-1.3,3.2Z"/>
        <path class="st2" d="M15.8,9.6c-2.1,0-4,.9-5.4,2.2-1.4,1.4-2.2,3.3-2.2,5.4s.9,4,2.2,5.4c1.4,1.4,3.3,2.2,5.4,2.2s4-.9,5.4-2.2,2.2-3.3,2.2-5.4-.9-4-2.2-5.4c-1.4-1.4-3.3-2.2-5.4-2.2ZM19,20.4c-.8.8-1.9,1.3-3.2,1.3s-2.4-.5-3.2-1.3c-.8-.8-1.3-2-1.3-3.2s.5-2.4,1.3-3.2c.8-.8,2-1.3,3.2-1.3s2.4.5,3.2,1.3,1.3,2,1.3,3.2-.5,2.4-1.3,3.2Z"/>
        <path class="st2" d="M33.8,23h25.3c3.2,0,5.8-2.6,5.8-5.8s-2.6-5.8-5.8-5.8h-25.3c-3.2,0-5.8,2.6-5.8,5.8s2.6,5.8,5.8,5.8Z"/>
        <path class="st2" d="M33.8,31.1h25.3c3.2,0,5.8,2.6,5.8,5.8h0c0,3.2-2.6,5.8-5.8,5.8h-25.3c-3.2,0-5.8-2.6-5.8-5.8h0c0-3.2,2.6-5.8,5.8-5.8Z"/>
        <path class="st2" d="M59.1,50.1h-25.3c-3.2,0-5.8,2.6-5.8,5.8s2.6,5.8,5.8,5.8h25.3c3.2,0,5.8-2.6,5.8-5.8s-2.6-5.8-5.8-5.8Z"/>
      </g>
    </g>
  </g>
  <path id="Layer_2-21" data-name="Layer_2-2" class="st0" d="M110.3,28.9c-2.1,0-4,.9-5.4,2.2-1.4,1.4-2.2,3.3-2.2,5.4s.9,4,2.2,5.4c1.4,1.4,3.3,2.2,5.4,2.2s4-.9,5.4-2.2c1.4-1.4,2.2-3.3,2.2-5.4s-.9-4-2.2-5.4c-1.4-1.4-3.3-2.2-5.4-2.2ZM113.5,39.8c-.8.8-2,1.3-3.2,1.3s-2.4-.5-3.2-1.3-1.3-2-1.3-3.2.5-2.4,1.3-3.2c.8-.8,2-1.3,3.2-1.3s2.4.5,3.2,1.3,1.3,2,1.3,3.2-.5,2.4-1.3,3.2ZM110.3,15.3c-1.1,0-1.9.9-1.9,1.9s1.2,2.2,2.4,1.9c.7-.2,1.2-.7,1.3-1.3.3-1.3-.6-2.4-1.9-2.4ZM110.3,48.3c-2.1,0-4,.9-5.4,2.2-1.4,1.4-2.2,3.3-2.2,5.4s.9,4,2.2,5.4c1.4,1.4,3.3,2.2,5.4,2.2s4-.9,5.4-2.2c1.4-1.4,2.2-3.3,2.2-5.4s-.9-4-2.2-5.4-3.3-2.2-5.4-2.2ZM113.5,59.1c-.8.8-1.9,1.3-3.2,1.3s-2.4-.5-3.2-1.3-1.3-2-1.3-3.2.5-2.4,1.3-3.2c.8-.8,2-1.3,3.2-1.3s2.4.5,3.2,1.3,1.3,2,1.3,3.2c0,1.3-.5,2.4-1.3,3.2ZM110.3,9.6c-2.1,0-4,.9-5.4,2.2-1.4,1.4-2.2,3.3-2.2,5.4s.9,4,2.2,5.4c1.4,1.4,3.3,2.2,5.4,2.2s4-.9,5.4-2.2,2.2-3.3,2.2-5.4-.9-4-2.2-5.4c-1.4-1.4-3.3-2.2-5.4-2.2ZM113.5,20.4c-.8.8-1.9,1.3-3.2,1.3s-2.4-.5-3.2-1.3c-.8-.8-1.3-2-1.3-3.2s.5-2.4,1.3-3.2c.8-.8,2-1.3,3.2-1.3s2.4.5,3.2,1.3,1.3,2,1.3,3.2-.5,2.4-1.3,3.2ZM128.2,23h25.3c3.2,0,5.8-2.6,5.8-5.8s-2.6-5.8-5.8-5.8h-25.3c-3.2,0-5.8,2.6-5.8,5.8s2.6,5.8,5.8,5.8ZM128.2,31.1h25.3c3.2,0,5.8,2.6,5.8,5.8h0c0,3.2-2.6,5.8-5.8,5.8h-25.3c-3.2,0-5.8-2.6-5.8-5.8h0c0-3.2,2.6-5.8,5.8-5.8ZM153.5,50.1h-25.3c-3.2,0-5.8,2.6-5.8,5.8s2.6,5.8,5.8,5.8h25.3c3.2,0,5.8-2.6,5.8-5.8s-2.6-5.8-5.8-5.8Z"/>
</svg>