<?xml version="1.0" encoding="UTF-8"?>
<svg xmlns="http://www.w3.org/2000/svg" xmlns:xlink="http://www.w3.org/1999/xlink" version="1.1" viewBox="0 0 73.1 73.1">
  <!-- Generator: Adobe Illustrator 30.3.0, SVG Export Plug-In . SVG Version: 2.1.3 Build 182)  -->
  <defs>
    <style>
      .st0 {
        fill: url(#linear-gradient10);
      }

      .st0, .st1, .st2 {
        fill-rule: evenodd;
      }

      .st1, .st3 {
        fill: #fff;
      }

      .st4 {
        fill: url(#linear-gradient2);
      }

      .st5 {
        fill: url(#linear-gradient1);
      }

      .st6 {
        fill: url(#linear-gradient9);
      }

      .st7 {
        fill: url(#linear-gradient3);
      }

      .st8 {
        fill: url(#linear-gradient8);
      }

      .st9 {
        fill: url(#linear-gradient7);
      }

      .st10 {
        fill: url(#linear-gradient5);
      }

      .st11 {
        fill: url(#linear-gradient4);
      }

      .st12 {
        fill: url(#linear-gradient11);
      }

      .st13 {
        fill: url(#linear-gradient);
      }

      .st2 {
        fill: url(#linear-gradient6);
      }
    </style>
    <linearGradient id="linear-gradient" x1="87.6" y1="2130.4" x2="160.7" y2="2057.3" gradientTransform="translate(0 -2232)" gradientUnits="userSpaceOnUse">
      <stop offset="0" stop-color="#54005f"/>
      <stop offset=".3" stop-color="#370049"/>
      <stop offset="1" stop-color="#00001f"/>
    </linearGradient>
    <linearGradient id="linear-gradient1" x1="87.7" y1="2223.5" x2="160.8" y2="2150.4" gradientTransform="translate(0 -2232)" gradientUnits="userSpaceOnUse">
      <stop offset="0" stop-color="#d08fd9"/>
      <stop offset="0" stop-color="#816aab"/>
      <stop offset="1" stop-color="#54097d"/>
    </linearGradient>
    <linearGradient id="linear-gradient2" x1="86.9" y1="2305.1" x2="160" y2="2232" gradientTransform="translate(0 -2232)" gradientUnits="userSpaceOnUse">
      <stop offset="0" stop-color="#ff853f"/>
      <stop offset="1" stop-color="#7f3800"/>
    </linearGradient>
    <linearGradient id="linear-gradient3" x1="-98.6" y1="2130.4" x2="-25.5" y2="2057.3" gradientTransform="translate(0 -2232)" gradientUnits="userSpaceOnUse">
      <stop offset="0" stop-color="#54005f"/>
      <stop offset=".3" stop-color="#370049"/>
      <stop offset="1" stop-color="#00001f"/>
    </linearGradient>
    <linearGradient id="linear-gradient4" x1="13.6" y1="2119.4" x2="64" y2="2068.9" gradientTransform="translate(0 -2232)" gradientUnits="userSpaceOnUse">
      <stop offset="0" stop-color="#583d5c"/>
      <stop offset="0" stop-color="#0f2e4a"/>
      <stop offset="1" stop-color="#1c54d6"/>
    </linearGradient>
    <linearGradient id="linear-gradient5" x1="-98.6" x2="-25.5" y2="2150.4" xlink:href="#linear-gradient1"/>
    <linearGradient id="linear-gradient6" x1="20" y1="-1358.9" x2="54.6" y2="-1324.3" gradientTransform="translate(0 -1390.8) scale(1 -1)" gradientUnits="userSpaceOnUse">
      <stop offset="0" stop-color="#583d5c"/>
      <stop offset="0" stop-color="#4d1b8c"/>
      <stop offset="1" stop-color="#8421ff"/>
    </linearGradient>
    <linearGradient id="linear-gradient7" x1="-98.6" y1="2305.1" x2="-25.5" y2="2232" gradientTransform="translate(0 -2232)" gradientUnits="userSpaceOnUse">
      <stop offset="0" stop-color="#ff853f"/>
      <stop offset="1" stop-color="#7f3800"/>
    </linearGradient>
    <linearGradient id="linear-gradient8" x1="8" y1="1153.6" x2="65.6" y2="1153.6" gradientTransform="translate(0 -1116)" gradientUnits="userSpaceOnUse">
      <stop offset="0" stop-color="#592e16"/>
      <stop offset="1" stop-color="#c45600"/>
    </linearGradient>
    <linearGradient id="linear-gradient9" x1="-181.8" y1="2119.4" x2="-131.4" y2="2068.9" gradientTransform="translate(0 -2232)" gradientUnits="userSpaceOnUse">
      <stop offset="0" stop-color="#d08fd9"/>
      <stop offset="0" stop-color="#fff"/>
      <stop offset="1" stop-color="#66f"/>
    </linearGradient>
    <linearGradient id="linear-gradient10" x1="-173.7" y1="-1358" x2="-139.1" y2="-1323.5" gradientTransform="translate(0 -1390.8) scale(1 -1)" gradientUnits="userSpaceOnUse">
      <stop offset="0" stop-color="#d08fd9"/>
      <stop offset="0" stop-color="#fff"/>
      <stop offset="1" stop-color="#ad8fff"/>
    </linearGradient>
    <linearGradient id="linear-gradient11" x1="-180.6" y1="1180.3" x2="-132.3" y2="1132" gradientTransform="translate(0 -1116)" gradientUnits="userSpaceOnUse">
      <stop offset="0" stop-color="#fff"/>
      <stop offset="1" stop-color="#bf8500"/>
    </linearGradient>
  </defs>
  <g id="Layer_3">
    <rect class="st13" x="87.6" y="-174.7" width="73.1" height="73.1"/>
    <rect class="st5" x="87.7" y="-81.6" width="73.1" height="73.1"/>
    <rect class="st4" x="86.9" width="73.1" height="73.1"/>
  </g>
  <g id="Layer_2">
    <g>
      <rect class="st7" x="-98.6" y="-174.7" width="73.1" height="73.1"/>
      <g id="Layer_2-2">
        <g>
          <path class="st3" d="M-82.8-145.8c-2.1,0-4,.9-5.4,2.2-1.4,1.4-2.2,3.3-2.2,5.4s.9,4,2.2,5.4c1.4,1.4,3.3,2.2,5.4,2.2s4-.9,5.4-2.2c1.4-1.4,2.2-3.3,2.2-5.4s-.9-4-2.2-5.4c-1.4-1.4-3.3-2.2-5.4-2.2ZM-79.6-134.9c-.8.8-2,1.3-3.2,1.3s-2.4-.5-3.2-1.3-1.3-2-1.3-3.2.5-2.4,1.3-3.2,2-1.3,3.2-1.3,2.4.5,3.2,1.3,1.3,2,1.3,3.2-.5,2.4-1.3,3.2Z"/>
          <path class="st3" d="M-82.8-159.4c-1.1,0-1.9.9-1.9,1.9s1.2,2.2,2.4,1.9c.7-.2,1.2-.7,1.3-1.3.3-1.3-.6-2.4-1.9-2.4h0Z"/>
          <path class="st3" d="M-82.8-126.4c-2.1,0-4,.9-5.4,2.2-1.4,1.4-2.2,3.3-2.2,5.4s.9,4,2.2,5.4c1.4,1.4,3.3,2.2,5.4,2.2s4-.9,5.4-2.2c1.4-1.4,2.2-3.3,2.2-5.4s-.9-4-2.2-5.4-3.3-2.2-5.4-2.2ZM-79.6-115.6c-.8.8-1.9,1.3-3.2,1.3s-2.4-.5-3.2-1.3-1.3-2-1.3-3.2.5-2.4,1.3-3.2,2-1.3,3.2-1.3,2.4.5,3.2,1.3,1.3,2,1.3,3.2-.5,2.4-1.3,3.2Z"/>
          <path class="st3" d="M-82.8-165.1c-2.1,0-4,.9-5.4,2.2-1.4,1.4-2.2,3.3-2.2,5.4s.9,4,2.2,5.4c1.4,1.4,3.3,2.2,5.4,2.2s4-.9,5.4-2.2,2.2-3.3,2.2-5.4-.9-4-2.2-5.4c-1.4-1.4-3.3-2.2-5.4-2.2ZM-79.6-154.3c-.8.8-1.9,1.3-3.2,1.3s-2.4-.5-3.2-1.3-1.3-2-1.3-3.2.5-2.4,1.3-3.2,2-1.3,3.2-1.3,2.4.5,3.2,1.3,1.3,2,1.3,3.2-.5,2.4-1.3,3.2Z"/>
          <path class="st3" d="M-64.8-151.7h25.3c3.2,0,5.8-2.6,5.8-5.8s-2.6-5.8-5.8-5.8h-25.3c-3.2,0-5.8,2.6-5.8,5.8s2.6,5.8,5.8,5.8Z"/>
          <path class="st3" d="M-64.8-143.6h25.3c3.2,0,5.8,2.6,5.8,5.8h0c0,3.2-2.6,5.8-5.8,5.8h-25.3c-3.2,0-5.8-2.6-5.8-5.8h0c0-3.2,2.6-5.8,5.8-5.8Z"/>
          <path class="st3" d="M-39.5-124.6h-25.3c-3.2,0-5.8,2.6-5.8,5.8s2.6,5.8,5.8,5.8h25.3c3.2,0,5.8-2.6,5.8-5.8s-2.6-5.8-5.8-5.8Z"/>
        </g>
      </g>
    </g>
    <g id="Layer_2-21">
      <g>
        <path class="st3" d="M103.4-145.8c-2.1,0-4,.9-5.4,2.2-1.4,1.4-2.2,3.3-2.2,5.4s.9,4,2.2,5.4c1.4,1.4,3.3,2.2,5.4,2.2s4-.9,5.4-2.2c1.4-1.4,2.2-3.3,2.2-5.4s-.9-4-2.2-5.4c-1.4-1.4-3.3-2.2-5.4-2.2ZM106.6-134.9c-.8.8-2,1.3-3.2,1.3s-2.4-.5-3.2-1.3-1.3-2-1.3-3.2.5-2.4,1.3-3.2,2-1.3,3.2-1.3,2.4.5,3.2,1.3,1.3,2,1.3,3.2-.5,2.4-1.3,3.2Z"/>
        <path class="st3" d="M103.4-159.4c-1.1,0-1.9.9-1.9,1.9s1.2,2.2,2.4,1.9c.7-.2,1.2-.7,1.3-1.3.3-1.3-.6-2.4-1.9-2.4h0Z"/>
        <path class="st3" d="M103.4-126.4c-2.1,0-4,.9-5.4,2.2-1.4,1.4-2.2,3.3-2.2,5.4s.9,4,2.2,5.4c1.4,1.4,3.3,2.2,5.4,2.2s4-.9,5.4-2.2c1.4-1.4,2.2-3.3,2.2-5.4s-.9-4-2.2-5.4-3.3-2.2-5.4-2.2ZM106.6-115.6c-.8.8-1.9,1.3-3.2,1.3s-2.4-.5-3.2-1.3-1.3-2-1.3-3.2.5-2.4,1.3-3.2,2-1.3,3.2-1.3,2.4.5,3.2,1.3,1.3,2,1.3,3.2-.5,2.4-1.3,3.2Z"/>
        <path class="st3" d="M103.4-165.1c-2.1,0-4,.9-5.4,2.2-1.4,1.4-2.2,3.3-2.2,5.4s.9,4,2.2,5.4c1.4,1.4,3.3,2.2,5.4,2.2s4-.9,5.4-2.2,2.2-3.3,2.2-5.4-.9-4-2.2-5.4c-1.4-1.4-3.3-2.2-5.4-2.2ZM106.6-154.3c-.8.8-1.9,1.3-3.2,1.3s-2.4-.5-3.2-1.3c-.8-.8-1.3-2-1.3-3.2s.5-2.4,1.3-3.2,2-1.3,3.2-1.3,2.4.5,3.2,1.3,1.3,2,1.3,3.2-.5,2.4-1.3,3.2Z"/>
        <path class="st3" d="M121.4-151.7h25.3c3.2,0,5.8-2.6,5.8-5.8s-2.6-5.8-5.8-5.8h-25.3c-3.2,0-5.8,2.6-5.8,5.8s2.6,5.8,5.8,5.8Z"/>
        <path class="st3" d="M121.4-143.6h25.3c3.2,0,5.8,2.6,5.8,5.8h0c0,3.2-2.6,5.8-5.8,5.8h-25.3c-3.2,0-5.8-2.6-5.8-5.8h0c0-3.2,2.6-5.8,5.8-5.8Z"/>
        <path class="st3" d="M146.7-124.6h-25.3c-3.2,0-5.8,2.6-5.8,5.8s2.6,5.8,5.8,5.8h25.3c3.2,0,5.8-2.6,5.8-5.8s-2.6-5.8-5.8-5.8Z"/>
      </g>
    </g>
    <g id="uuid-793afc5c-569c-40c2-b019-28651eec46f5">
      <path class="st11" d="M18.5-145.4c-2.1,0-4,.9-5.4,2.2-1.4,1.4-2.2,3.3-2.2,5.4s.9,4,2.2,5.4c1.4,1.4,3.3,2.2,5.4,2.2s4-.9,5.4-2.2c1.4-1.4,2.2-3.3,2.2-5.4s-.9-4-2.2-5.4c-1.4-1.4-3.3-2.2-5.4-2.2ZM21.6-134.5c-.8.8-2,1.3-3.2,1.3s-2.4-.5-3.2-1.3-1.3-2-1.3-3.2.5-2.4,1.3-3.2,2-1.3,3.2-1.3,2.4.5,3.2,1.3,1.3,2,1.3,3.2-.5,2.4-1.3,3.2ZM18.5-159c-1.1,0-1.9.9-1.9,1.9s1.2,2.2,2.4,1.9c.7-.2,1.2-.7,1.3-1.3.3-1.3-.6-2.4-1.9-2.4h0ZM18.5-126c-2.1,0-4,.9-5.4,2.2-1.4,1.4-2.2,3.3-2.2,5.4s.9,4,2.2,5.4c1.4,1.4,3.3,2.2,5.4,2.2s4-.9,5.4-2.2c1.4-1.4,2.2-3.3,2.2-5.4s-.9-4-2.2-5.4-3.3-2.2-5.4-2.2ZM21.6-115.2c-.8.8-1.9,1.3-3.2,1.3s-2.4-.5-3.2-1.3-1.3-2-1.3-3.2.5-2.4,1.3-3.2,2-1.3,3.2-1.3,2.4.5,3.2,1.3,1.3,2,1.3,3.2-.5,2.4-1.3,3.2ZM18.5-164.7c-2.1,0-4,.9-5.4,2.2-1.4,1.4-2.2,3.3-2.2,5.4s.9,4,2.2,5.4c1.4,1.4,3.3,2.2,5.4,2.2s4-.9,5.4-2.2,2.2-3.3,2.2-5.4-.9-4-2.2-5.4c-1.4-1.4-3.3-2.2-5.4-2.2ZM21.6-153.9c-.8.8-1.9,1.3-3.2,1.3s-2.4-.5-3.2-1.3c-.8-.8-1.3-2-1.3-3.2s.5-2.4,1.3-3.2,2-1.3,3.2-1.3,2.4.5,3.2,1.3,1.3,2,1.3,3.2-.5,2.4-1.3,3.2ZM36.3-151.3h25.3c3.2,0,5.8-2.6,5.8-5.8s-2.6-5.8-5.8-5.8h-25.3c-3.2,0-5.8,2.6-5.8,5.8s2.6,5.8,5.8,5.8ZM36.3-143.2h25.3c3.2,0,5.8,2.6,5.8,5.8h0c0,3.2-2.6,5.8-5.8,5.8h-25.3c-3.2,0-5.8-2.6-5.8-5.8h0c0-3.2,2.6-5.8,5.8-5.8ZM61.6-124.2h-25.3c-3.2,0-5.8,2.6-5.8,5.8s2.6,5.8,5.8,5.8h25.3c3.2,0,5.8-2.6,5.8-5.8s-2.6-5.8-5.8-5.8Z"/>
    </g>
    <g>
      <rect class="st10" x="-98.6" y="-81.6" width="73.1" height="73.1"/>
      <path class="st1" d="M-53.8-60.3c1.4.8,2.7,1.9,3.8,3.1s1.9,2.6,2.6,4.1h0c.3.9.6,1.7.8,2.6.5,2,.5,4.1.1,6.2-.2,1.1-.5,2.2-1,3.2h0c-.9,2.3-2.5,4.5-4,6.6-.8,1.1-1.5,2.1-2.2,3.2-.4.7-1.1,1-1.9,1l-12.2,1.8c-1,.2-2-.5-2.3-1.5-.3-.9-.7-1.7-1.1-2.6-.4-.7-.8-1.4-1.3-2-.6-.7-1.3-1.5-1.9-2.3-.7-1-1.3-2-1.8-3.1h0c-.5-1.1-.9-2.3-1.2-3.5s-.4-2.5-.4-3.7h0c0-1.3.2-2.6.5-3.9.4-1.4.9-2.7,1.5-3.9v-.2c.9-1.4,2-2.7,3.2-3.8,1.2-1.1,2.6-2,4.2-2.6h.1c1.1-.5,2.3-.8,3.5-1,1.3-.2,2.6-.2,3.9,0,1.3,0,2.5.4,3.7.8s2.4.9,3.5,1.5h-.1ZM-55.5-21.7c-.7,1.2-1.6,2.1-2.8,2.8-1,.6-2.1.9-3.2,1-1.1,0-2.3-.1-3.3-.6-.7-.4-1.4-.8-1.9-1.4l11.2-1.7h0ZM-54.4-27.9v2.4l-.2,1.1-13.5,2-.2-.5-.5-2.2v-.6l14.5-2.2h-.1ZM-62.4-70.6c0-.9.8-1.7,1.7-1.7h.1c.4,0,.8.2,1.1.5s.5.7.5,1.2h0v3.6h0c0,1-.8,1.7-1.7,1.7h-.1c-.4,0-.8-.2-1.1-.5s-.5-.8-.5-1.2h0v-3.6h0ZM-81-64.3c-.3-.3-.5-.7-.5-1.2,0-.9.7-1.7,1.6-1.8h0c.4,0,.9,0,1.2.4l2.7,2.5c.7.6.7,1.7,0,2.4-.3.3-.7.5-1.2.5s-.9,0-1.2-.4l-2.7-2.5h0ZM-85.5-45.6c-.9,0-1.7-.7-1.8-1.6h0c0-.4.1-.9.4-1.2.3-.3.7-.5,1.2-.5h3.7c.9-.2,1.7.6,1.8,1.5h0c0,.5-.2.9-.4,1.2-.3.3-.7.5-1.2.5h-3.7s0,0,0,0h0ZM-38.7-50.8h0c.4,0,.8,0,1.2.4.3.3.6.7.6,1.1h0c0,1-.6,1.7-1.5,1.8l-3.7.4c-.9,0-1.8-.6-1.9-1.5,0-.9.6-1.8,1.5-1.9,1.2,0,2.5-.3,3.7-.4h.1ZM-46-65.6c.5-.8,1.6-1,2.3-.5h0c.4.2.6.6.7,1.1,0,.4,0,.9-.3,1.3l-2.1,3.1c-.5.8-1.6,1-2.4.5-.8-.5-1-1.6-.5-2.4h0l2.1-3.1h.2ZM-60.1-48h2.6c.4,0,.7.3.7.7h0s0,.3-.1.4l-6.2,10.6c-.2.3-.6.4-.9.2h0c-.2-.1-.4-.4-.3-.7l.9-6.5h-3.1c-.4,0-.7-.2-.7-.6h0v-.4l6.1-10.6c.2-.3.6-.4.9-.2.2,0,.4.4.3.7l-.3,6.5h.1Z"/>
    </g>
    <path class="st1" d="M132.4-60.3c1.4.8,2.7,1.9,3.8,3.1s1.9,2.6,2.6,4.1h0c.3.9.6,1.7.8,2.6.5,2,.5,4.1,0,6.2-.2,1.1-.5,2.2-1,3.2h0c-.9,2.3-2.5,4.5-4,6.6-.8,1.1-1.5,2.1-2.2,3.2-.4.7-1.1,1-1.9,1l-12.2,1.8c-1,.2-2-.5-2.3-1.5-.3-.9-.7-1.7-1.1-2.6-.4-.7-.8-1.4-1.3-2-.6-.7-1.3-1.5-1.9-2.3-.7-1-1.3-2-1.8-3.1h0c-.5-1.1-.9-2.3-1.2-3.5-.3-1.2-.4-2.5-.4-3.7h0c0-1.3.2-2.6.5-3.9.4-1.4.9-2.7,1.5-3.9v-.2c.9-1.4,2-2.7,3.2-3.8,1.2-1.1,2.6-2,4.2-2.6h.1c1.1-.5,2.3-.8,3.5-1,1.3-.2,2.6-.2,3.9,0,1.3,0,2.5.4,3.7.8s2.4.9,3.5,1.5h0ZM130.7-21.7c-.7,1.2-1.6,2.1-2.8,2.8-1,.6-2.1.9-3.2,1-1.1,0-2.3-.1-3.3-.6-.7-.4-1.4-.8-1.9-1.4l11.2-1.7h0ZM131.8-27.9v2.4l-.2,1.1-13.5,2-.2-.5-.5-2.2v-.6l14.5-2.2h0ZM123.8-70.6c0-.9.8-1.7,1.7-1.7h0c.4,0,.8.2,1.1.5s.5.7.5,1.2h0v3.6h0c0,1-.8,1.7-1.7,1.7h0c-.4,0-.8-.2-1.1-.5s-.5-.8-.5-1.2h0v-3.6h0ZM105.2-64.3c-.3-.3-.5-.7-.5-1.2,0-.9.7-1.7,1.6-1.8h0c.4,0,.9,0,1.2.4l2.7,2.5c.7.6.7,1.7,0,2.4-.3.3-.7.5-1.2.5s-.9,0-1.2-.4l-2.7-2.5h.1ZM100.7-45.6c-.9,0-1.7-.7-1.8-1.6h0c0-.4.1-.9.4-1.2.3-.3.7-.5,1.2-.5h3.7c.9-.2,1.7.6,1.8,1.5h0c0,.5-.2.9-.4,1.2-.3.3-.7.5-1.2.5h-3.7,0ZM147.5-50.8h0c.4,0,.8,0,1.2.4.3.3.6.7.6,1.1h0c0,1-.6,1.7-1.5,1.8l-3.7.4c-.9,0-1.8-.6-1.9-1.5,0-.9.6-1.8,1.5-1.9,1.2,0,2.5-.3,3.7-.4h.1ZM140.2-65.6c.5-.8,1.6-1,2.3-.5h0c.4.2.6.6.7,1.1,0,.4,0,.9-.3,1.3l-2.1,3.1c-.5.8-1.6,1-2.4.5-.8-.5-1-1.6-.5-2.4h0l2.1-3.1h.2ZM126.1-48h2.6c.4,0,.7.3.7.7h0v.4l-6.2,10.6c-.2.3-.6.4-.9.2h0c-.2-.1-.4-.4-.3-.7l.9-6.5h-3.1c-.4,0-.7-.2-.7-.6h0v-.4l6.1-10.6c.2-.3.6-.4.9-.2.2,0,.4.4.3.7l-.3,6.5h0Z"/>
    <path class="st2" d="M45.7-59.4c1.4.8,2.7,1.9,3.8,3.1s1.9,2.6,2.6,4.1h0c.3.9.6,1.7.8,2.6.5,2,.5,4.1,0,6.2-.2,1.1-.5,2.2-1,3.2h0c-.9,2.3-2.5,4.5-4,6.6-.8,1.1-1.5,2.1-2.2,3.2-.4.7-1.1,1-1.9,1l-12.2,1.8c-1,.2-2-.5-2.3-1.5-.3-.9-.7-1.7-1.1-2.6-.4-.7-.8-1.4-1.3-2-.6-.7-1.3-1.5-1.9-2.3-.7-1-1.3-2-1.8-3.1h0c-.5-1.1-.9-2.3-1.2-3.5-.3-1.2-.4-2.5-.4-3.7h0c0-1.3.2-2.6.5-3.9.4-1.4.9-2.7,1.5-3.9v-.2c.9-1.4,2-2.7,3.2-3.8,1.2-1.1,2.6-2,4.2-2.6h0c1.1-.5,2.3-.8,3.5-1,1.3-.2,2.6-.2,3.9,0,1.3,0,2.5.4,3.7.8s2.4.9,3.5,1.5h.1ZM44-20.8c-.7,1.2-1.6,2.1-2.8,2.8-1,.6-2.1.9-3.2,1-1.1,0-2.3-.1-3.3-.6-.7-.4-1.4-.8-1.9-1.4l11.2-1.7h0ZM45.1-27v2.4l-.2,1.1-13.5,2-.2-.5-.5-2.2v-.6l14.5-2.2h0ZM37.1-69.7c0-.9.8-1.7,1.7-1.7h0c.4,0,.8.2,1.1.5s.5.7.5,1.2h0v3.6h0c0,1-.8,1.7-1.7,1.7h0c-.4,0-.8-.2-1.1-.5s-.5-.8-.5-1.2h0v-3.6h0ZM18.5-63.4c-.3-.3-.5-.7-.5-1.2,0-.9.7-1.7,1.6-1.8h0c.4,0,.9,0,1.2.4l2.7,2.5c.7.6.7,1.7,0,2.4-.3.3-.7.5-1.2.5s-.9,0-1.2-.4l-2.7-2.5h0ZM14-44.7c-.9,0-1.7-.7-1.8-1.6h0c0-.4,0-.9.4-1.2.3-.3.7-.5,1.2-.5h3.7c.9-.2,1.7.6,1.8,1.5h0c0,.5-.2.9-.4,1.2-.3.3-.7.5-1.2.5h-3.7ZM60.8-49.9h0c.4,0,.8,0,1.2.4.3.3.6.7.6,1.1h0c0,1-.6,1.7-1.5,1.8l-3.7.4c-.9,0-1.8-.6-1.9-1.5,0-.9.6-1.8,1.5-1.9,1.2,0,2.5-.3,3.7-.4h.1ZM53.5-64.7c.5-.8,1.6-1,2.3-.5h0c.4.2.6.6.7,1.1,0,.4,0,.9-.3,1.3l-2.1,3.1c-.5.8-1.6,1-2.4.5-.8-.5-1-1.6-.5-2.4h0l2.1-3.1h.2ZM39.4-47.1h2.6c.4,0,.7.3.7.7h0v.4l-6.2,10.6c-.2.3-.6.4-.9.2h0c-.2-.1-.4-.4-.3-.7l.9-6.5h-3.1c-.4,0-.7-.2-.7-.6h0v-.4l6.1-10.6c.2-.3.6-.4.9-.2.2,0,.4.4.3.7l-.3,6.5h0Z"/>
    <g>
      <rect class="st9" x="-98.6" width="73.1" height="73.1"/>
      <path class="st3" d="M-33.5,21.1h-4.3v-5.3c0-.8-.6-1.4-1.4-1.6-4.6-.7-9.4-.3-13.7,1.3-3.1,1.2-5.8,3-7.9,5.5-2-2.7-4.8-4.6-7.9-5.7-4.4-1.7-9.5-1.9-13.7-1-.7.2-1.3.8-1.3,1.5v5.3h-4.5c-.9,0-1.6.7-1.6,1.6v36.4c0,.9.7,1.6,1.6,1.6h.5c4.4-1.3,8.8-2.1,13.1-2.1s8.5.7,12.7,2.6c.3.2.6.3.9.3s.6,0,.9-.3c4.2-1.9,8.5-2.6,12.7-2.6s8.7.9,13.1,2.1h.5c.9,0,1.6-.7,1.6-1.6V22.7c0-.9-.7-1.6-1.6-1.6h.3ZM-51,35.2h0c.2,0,.3,0,.5.2s.2.3.2.5c0,.4-.2.7-.6.7l-1.5.2c-.4,0-.7-.2-.8-.6,0-.4.2-.7.6-.8.5,0,1-.1,1.5-.2h.1ZM-55,30.3l.9-1.3h0c.2-.3.7-.4,1-.2.2,0,.2.2.3.5,0,.2,0,.4-.1.5l-.9,1.3c-.2.3-.7.4-1,.2s-.4-.7-.2-1ZM-60.8,27c0-.4.3-.7.7-.7h0c.2,0,.3,0,.5.2s.2.3.2.5v1.5h0c0,.4-.3.7-.7.7h0c-.2,0-.3,0-.5-.2s-.2-.3-.2-.5v-1.5ZM-63.3,30.7h0c.5-.2,1-.3,1.5-.4h1.6c.5,0,1,.2,1.5.3s1,.4,1.5.6h0c.6.3,1.1.8,1.6,1.3s.8,1.1,1.1,1.7c.1.4.2.7.3,1.1.2.8.2,1.7,0,2.6,0,.5-.2.9-.4,1.3-.4,1-1,1.9-1.7,2.7-.3.5-.6.9-.9,1.3-.2.3-.5.4-.8.4l-5.1.7c-.4,0-.8-.2-1-.6-.1-.4-.3-.7-.5-1.1-.2-.3-.3-.6-.5-.8-.2-.3-.5-.6-.8-1s-.5-.8-.7-1.3-.4-1-.5-1.5-.2-1-.2-1.5,0-1.1.2-1.6c.2-.6.4-1.1.6-1.6h0c.4-.7.8-1.2,1.3-1.7s1.1-.8,1.7-1.1l.2.2h0ZM-68.1,28.3c.2,0,.4,0,.5.2l1.1,1c.3.2.3.7,0,1s-.3.2-.5.2-.4,0-.5-.2l-1.1-1h0c-.1-.1-.2-.3-.2-.5,0-.4.3-.7.7-.7ZM-71,36.2c.1-.1.3-.2.5-.2h1.5c.4,0,.7.2.7.6s0,.4-.2.5c-.1.1-.3.2-.5.2h-1.5c-.4,0-.7-.2-.7-.6s0-.4.2-.5ZM-74.3,55.4c-4,0-8.1.7-12.1,1.7V24.3h2.9v25.8c-.2,0-.2.2-.1.3,0,.9.8,1.5,1.7,1.4,3.9-.3,7.6,0,11.1,1.2,2.8.9,5.4,2.3,7.7,4.2-3.7-1.3-7.5-1.8-11.2-1.8h0ZM-58,47.4h0c-.3.5-.6.8-1.1,1.1-.4.2-.9.4-1.3.4s-1,0-1.4-.2c-.3-.2-.6-.3-.8-.6l4.6-.7h0ZM-63.2,47v-.2l-.3-.9v-.2l6-.9h0v1.5l-5.7.8h0ZM-35,57.1c-4-1-8-1.7-12.1-1.7s-7,.4-10.5,1.5c2.6-1.7,5.1-3.1,7.8-4.1,3.3-1.2,6.6-1.6,10.1-1.1h.4c.9,0,1.6-.7,1.6-1.6v-25.9h2.7v32.8h0Z"/>
    </g>
    <path class="st3" d="M150,21.1h-4.3v-5.3c0-.8-.6-1.4-1.4-1.6-4.6-.7-9.4-.3-13.7,1.3-3.1,1.2-5.8,3-7.9,5.5-2-2.7-4.8-4.6-7.9-5.7-4.4-1.7-9.5-1.9-13.7-1-.7.2-1.3.8-1.3,1.5v5.3h-4.5c-.9,0-1.6.7-1.6,1.6v36.4c0,.9.7,1.6,1.6,1.6h.5c4.4-1.3,8.8-2.1,13.1-2.1s8.5.7,12.7,2.6c.3.2.6.3.9.3s.6,0,.9-.3c4.2-1.9,8.5-2.6,12.7-2.6s8.7.9,13.1,2.1h.5c.9,0,1.6-.7,1.6-1.6V22.7c0-.9-.7-1.6-1.6-1.6h.3,0ZM132.5,35.2h0c.2,0,.3,0,.5.2,0,.1.2.3.2.5,0,.4-.2.7-.6.7l-1.5.2c-.4,0-.7-.2-.8-.6,0-.4.2-.7.6-.8.5,0,1-.1,1.5-.2h0ZM128.5,30.3l.9-1.3h0c.2-.3.7-.4,1-.2.2,0,.2.2.3.5v.5l-.9,1.3c-.2.3-.7.4-1,.2s-.4-.7-.2-1h0ZM122.7,27c0-.4.3-.7.7-.7h0c.2,0,.3,0,.5.2,0,.1.2.3.2.5v1.5h0c0,.4-.3.7-.7.7h0c-.2,0-.3,0-.5-.2,0-.1-.2-.3-.2-.5v-1.5ZM120.2,30.7h0c.5-.2,1-.3,1.5-.4h1.6c.5,0,1,.2,1.5.3s1,.4,1.5.6h0c.6.3,1.1.8,1.6,1.3s.8,1.1,1.1,1.7c0,.4.2.7.3,1.1.2.8.2,1.7,0,2.6,0,.5-.2.9-.4,1.3-.4,1-1,1.9-1.7,2.7-.3.5-.6.9-.9,1.3-.2.3-.5.4-.8.4l-5.1.7c-.4,0-.8-.2-1-.6-.1-.4-.3-.7-.5-1.1-.2-.3-.3-.6-.5-.8-.2-.3-.5-.6-.8-1s-.5-.8-.7-1.3-.4-1-.5-1.5-.2-1-.2-1.5,0-1.1.2-1.6c.2-.6.4-1.1.6-1.6h0c.4-.7.8-1.2,1.3-1.7s1.1-.8,1.7-1.1l.2.2h0ZM115.4,28.3c.2,0,.4,0,.5.2l1.1,1c.3.2.3.7,0,1s-.3.2-.5.2-.4,0-.5-.2l-1.1-1h0c-.1-.1-.2-.3-.2-.5,0-.4.3-.7.7-.7ZM112.5,36.2c.1-.1.3-.2.5-.2h1.5c.4,0,.7.2.7.6s0,.4-.2.5c-.1.1-.3.2-.5.2h-1.5c-.4,0-.7-.2-.7-.6s0-.4.2-.5ZM109.2,55.4c-4,0-8.1.7-12.1,1.7V24.3h2.9v25.8c-.2,0-.2.2-.1.3,0,.9.8,1.5,1.7,1.4,3.9-.3,7.6,0,11.1,1.2,2.8.9,5.4,2.3,7.7,4.2-3.7-1.3-7.5-1.8-11.2-1.8h0ZM125.5,47.4h0c-.3.5-.6.8-1.1,1.1-.4.2-.9.4-1.3.4s-1,0-1.4-.2c-.3-.2-.6-.3-.8-.6l4.6-.7h0ZM120.3,47v-.2l-.3-.9v-.2l6-.9h0v1.5l-5.7.8h0ZM148.5,57.1c-4-1-8-1.7-12.1-1.7s-7,.4-10.5,1.5c2.6-1.7,5.1-3.1,7.8-4.1,3.3-1.2,6.6-1.6,10.1-1.1h.4c.9,0,1.6-.7,1.6-1.6v-25.9h2.7v32.8h0Z"/>
    <path class="st8" d="M64,21.1h-4.3v-5.3c0-.8-.6-1.4-1.4-1.6-4.6-.7-9.4-.3-13.7,1.3-3.1,1.2-5.8,3-7.9,5.5-2-2.7-4.8-4.6-7.9-5.7-4.4-1.7-9.5-1.9-13.7-1-.7.2-1.3.8-1.3,1.5v5.3h-4.5c-.9,0-1.6.7-1.6,1.6v36.4c0,.9.7,1.6,1.6,1.6h.5c4.4-1.3,8.8-2.1,13.1-2.1s8.5.7,12.7,2.6c.3.2.6.3.9.3s.6,0,.9-.3c4.2-1.9,8.5-2.6,12.7-2.6s8.7.9,13.1,2.1h.5c.9,0,1.6-.7,1.6-1.6V22.7c0-.9-.7-1.6-1.6-1.6h.3,0ZM46.5,35.2h0c.2,0,.3,0,.5.2,0,.1.2.3.2.5,0,.4-.2.7-.6.7l-1.5.2c-.4,0-.7-.2-.8-.6,0-.4.2-.7.6-.8.5,0,1-.1,1.5-.2h0ZM42.5,30.3l.9-1.3h0c.2-.3.7-.4,1-.2.2,0,.2.2.3.5v.5l-.9,1.3c-.2.3-.7.4-1,.2s-.4-.7-.2-1h0ZM36.7,27c0-.4.3-.7.7-.7h0c.2,0,.3,0,.5.2,0,.1.2.3.2.5v1.5h0c0,.4-.3.7-.7.7h0c-.2,0-.3,0-.5-.2,0-.1-.2-.3-.2-.5v-1.5ZM34.2,30.7h0c.5-.2,1-.3,1.5-.4h1.6c.5,0,1,.2,1.5.3s1,.4,1.5.6h0c.6.3,1.1.8,1.6,1.3s.8,1.1,1.1,1.7c0,.4.2.7.3,1.1.2.8.2,1.7,0,2.6,0,.5-.2.9-.4,1.3-.4,1-1,1.9-1.7,2.7-.3.5-.6.9-.9,1.3-.2.3-.5.4-.8.4l-5.1.7c-.4,0-.8-.2-1-.6,0-.4-.3-.7-.5-1.1-.2-.3-.3-.6-.5-.8-.2-.3-.5-.6-.8-1s-.5-.8-.7-1.3-.4-1-.5-1.5-.2-1-.2-1.5,0-1.1.2-1.6c.2-.6.4-1.1.6-1.6h0c.4-.7.8-1.2,1.3-1.7s1.1-.8,1.7-1.1l.2.2h0ZM29.4,28.3c.2,0,.4,0,.5.2l1.1,1c.3.2.3.7,0,1s-.3.2-.5.2-.4,0-.5-.2l-1.1-1h0c0-.1-.2-.3-.2-.5,0-.4.3-.7.7-.7ZM26.5,36.2c0-.1.3-.2.5-.2h1.5c.4,0,.7.2.7.6s0,.4-.2.5c0,.1-.3.2-.5.2h-1.5c-.4,0-.7-.2-.7-.6s0-.4.2-.5ZM23.2,55.4c-4,0-8.1.7-12.1,1.7V24.3h2.9v25.8c-.2,0-.2.2,0,.3,0,.9.8,1.5,1.7,1.4,3.9-.3,7.6,0,11.1,1.2,2.8.9,5.4,2.3,7.7,4.2-3.7-1.3-7.5-1.8-11.2-1.8h0ZM39.5,47.4h0c-.3.5-.6.8-1.1,1.1-.4.2-.9.4-1.3.4s-1,0-1.4-.2c-.3-.2-.6-.3-.8-.6l4.6-.7h0ZM34.3,47v-.2l-.3-.9v-.2l6-.9h0v1.5l-5.7.8h0ZM62.5,57.1c-4-1-8-1.7-12.1-1.7s-7,.4-10.5,1.5c2.6-1.7,5.1-3.1,7.8-4.1,3.3-1.2,6.6-1.6,10.1-1.1h.4c.9,0,1.6-.7,1.6-1.6v-25.9h2.7v32.8h0Z"/>
    <g id="uuid-793afc5c-569c-40c2-b019-28651eec46f51" data-name="uuid-793afc5c-569c-40c2-b019-28651eec46f5">
      <path class="st6" d="M-176.9-145.4c-2.1,0-4,.9-5.4,2.2-1.4,1.4-2.2,3.3-2.2,5.4s.9,4,2.2,5.4c1.4,1.4,3.3,2.2,5.4,2.2s4-.9,5.4-2.2c1.4-1.4,2.2-3.3,2.2-5.4s-.9-4-2.2-5.4c-1.4-1.4-3.3-2.2-5.4-2.2ZM-173.8-134.5c-.8.8-2,1.3-3.2,1.3s-2.4-.5-3.2-1.3-1.3-2-1.3-3.2.5-2.4,1.3-3.2,2-1.3,3.2-1.3,2.4.5,3.2,1.3,1.3,2,1.3,3.2-.5,2.4-1.3,3.2ZM-176.9-159c-1.1,0-1.9.9-1.9,1.9s1.2,2.2,2.4,1.9c.7-.2,1.2-.7,1.3-1.3.3-1.3-.6-2.4-1.9-2.4h0ZM-176.9-126c-2.1,0-4,.9-5.4,2.2-1.4,1.4-2.2,3.3-2.2,5.4s.9,4,2.2,5.4c1.4,1.4,3.3,2.2,5.4,2.2s4-.9,5.4-2.2c1.4-1.4,2.2-3.3,2.2-5.4s-.9-4-2.2-5.4-3.3-2.2-5.4-2.2ZM-173.8-115.2c-.8.8-1.9,1.3-3.2,1.3s-2.4-.5-3.2-1.3-1.3-2-1.3-3.2.5-2.4,1.3-3.2,2-1.3,3.2-1.3,2.4.5,3.2,1.3,1.3,2,1.3,3.2-.5,2.4-1.3,3.2ZM-176.9-164.7c-2.1,0-4,.9-5.4,2.2-1.4,1.4-2.2,3.3-2.2,5.4s.9,4,2.2,5.4c1.4,1.4,3.3,2.2,5.4,2.2s4-.9,5.4-2.2,2.2-3.3,2.2-5.4-.9-4-2.2-5.4c-1.4-1.4-3.3-2.2-5.4-2.2ZM-173.8-153.9c-.8.8-1.9,1.3-3.2,1.3s-2.4-.5-3.2-1.3c-.8-.8-1.3-2-1.3-3.2s.5-2.4,1.3-3.2,2-1.3,3.2-1.3,2.4.5,3.2,1.3,1.3,2,1.3,3.2-.5,2.4-1.3,3.2ZM-159.1-151.3h25.3c3.2,0,5.8-2.6,5.8-5.8s-2.6-5.8-5.8-5.8h-25.3c-3.2,0-5.8,2.6-5.8,5.8s2.6,5.8,5.8,5.8ZM-159.1-143.2h25.3c3.2,0,5.8,2.6,5.8,5.8h0c0,3.2-2.6,5.8-5.8,5.8h-25.3c-3.2,0-5.8-2.6-5.8-5.8h0c0-3.2,2.6-5.8,5.8-5.8ZM-133.8-124.2h-25.3c-3.2,0-5.8,2.6-5.8,5.8s2.6,5.8,5.8,5.8h25.3c3.2,0,5.8-2.6,5.8-5.8s-2.6-5.8-5.8-5.8Z"/>
    </g>
    <path class="st0" d="M-148-60.3c1.4.8,2.7,1.9,3.8,3.1s1.9,2.6,2.6,4.1h0c.3.9.6,1.7.8,2.6.5,2,.5,4.1,0,6.2-.2,1.1-.5,2.2-1,3.2h0c-.9,2.3-2.5,4.5-4,6.6-.8,1.1-1.5,2.1-2.2,3.2-.4.7-1.1,1-1.9,1l-12.2,1.8c-1,.2-2-.5-2.3-1.5-.3-.9-.7-1.7-1.1-2.6-.4-.7-.8-1.4-1.3-2-.6-.7-1.3-1.5-1.9-2.3-.7-1-1.3-2-1.8-3.1h0c-.5-1.1-.9-2.3-1.2-3.5-.3-1.2-.4-2.5-.4-3.7h0c0-1.3.2-2.6.5-3.9.4-1.4.9-2.7,1.5-3.9v-.2c.9-1.4,2-2.7,3.2-3.8,1.2-1.1,2.6-2,4.2-2.6h0c1.1-.5,2.3-.8,3.5-1,1.3-.2,2.6-.2,3.9,0,1.3,0,2.5.4,3.7.8s2.4.9,3.5,1.5h.1ZM-149.7-21.7c-.7,1.2-1.6,2.1-2.8,2.8-1,.6-2.1.9-3.2,1-1.1,0-2.3-.1-3.3-.6-.7-.4-1.4-.8-1.9-1.4l11.2-1.7h0ZM-148.6-27.9v2.4l-.2,1.1-13.5,2-.2-.5-.5-2.2v-.6l14.5-2.2h0ZM-156.6-70.6c0-.9.8-1.7,1.7-1.7h0c.4,0,.8.2,1.1.5s.5.7.5,1.2h0v3.6h0c0,1-.8,1.7-1.7,1.7h0c-.4,0-.8-.2-1.1-.5s-.5-.8-.5-1.2h0v-3.6h0ZM-175.2-64.3c-.3-.3-.5-.7-.5-1.2,0-.9.7-1.7,1.6-1.8h0c.4,0,.9,0,1.2.4l2.7,2.5c.7.6.7,1.7,0,2.4-.3.3-.7.5-1.2.5s-.9,0-1.2-.4l-2.7-2.5h0ZM-179.7-45.6c-.9,0-1.7-.7-1.8-1.6h0c0-.4,0-.9.4-1.2.3-.3.7-.5,1.2-.5h3.7c.9-.2,1.7.6,1.8,1.5h0c0,.5-.2.9-.4,1.2-.3.3-.7.5-1.2.5h-3.7ZM-132.9-50.8h0c.4,0,.8,0,1.2.4.3.3.6.7.6,1.1h0c0,1-.6,1.7-1.5,1.8l-3.7.4c-.9,0-1.8-.6-1.9-1.5,0-.9.6-1.8,1.5-1.9,1.2,0,2.5-.3,3.7-.4h.1ZM-140.2-65.6c.5-.8,1.6-1,2.3-.5h0c.4.2.6.6.7,1.1,0,.4,0,.9-.3,1.3l-2.1,3.1c-.5.8-1.6,1-2.4.5-.8-.5-1-1.6-.5-2.4h0l2.1-3.1h.2ZM-154.3-48h2.6c.4,0,.7.3.7.7h0v.4l-6.2,10.6c-.2.3-.6.4-.9.2h0c-.2-.1-.4-.4-.3-.7l.9-6.5h-3.1c-.4,0-.7-.2-.7-.6h0v-.4l6.1-10.6c.2-.3.6-.4.9-.2.2,0,.4.4.3.7l-.3,6.5h0Z"/>
    <path class="st12" d="M-129.4,21.1h-4.3v-5.3c0-.8-.6-1.4-1.4-1.6-4.6-.7-9.4-.3-13.7,1.3-3.1,1.2-5.8,3-7.9,5.5-2-2.7-4.8-4.6-7.9-5.7-4.4-1.7-9.5-1.9-13.7-1-.7.2-1.3.8-1.3,1.5v5.3h-4.5c-.9,0-1.6.7-1.6,1.6v36.4c0,.9.7,1.6,1.6,1.6h.5c4.4-1.3,8.8-2.1,13.1-2.1s8.5.7,12.7,2.6c.3.2.6.3.9.3s.6,0,.9-.3c4.2-1.9,8.5-2.6,12.7-2.6s8.7.9,13.1,2.1h.5c.9,0,1.6-.7,1.6-1.6V22.7c0-.9-.7-1.6-1.6-1.6h.3,0ZM-146.9,35.2h0c.2,0,.3,0,.5.2,0,.1.2.3.2.5,0,.4-.2.7-.6.7l-1.5.2c-.4,0-.7-.2-.8-.6,0-.4.2-.7.6-.8.5,0,1-.1,1.5-.2h0ZM-150.9,30.3l.9-1.3h0c.2-.3.7-.4,1-.2.2,0,.2.2.3.5v.5l-.9,1.3c-.2.3-.7.4-1,.2s-.4-.7-.2-1h0ZM-156.7,27c0-.4.3-.7.7-.7h0c.2,0,.3,0,.5.2,0,.1.2.3.2.5v1.5h0c0,.4-.3.7-.7.7h0c-.2,0-.3,0-.5-.2,0-.1-.2-.3-.2-.5v-1.5ZM-159.2,30.7h0c.5-.2,1-.3,1.5-.4h1.6c.5,0,1,.2,1.5.3s1,.4,1.5.6h0c.6.3,1.1.8,1.6,1.3s.8,1.1,1.1,1.7c0,.4.2.7.3,1.1.2.8.2,1.7,0,2.6,0,.5-.2.9-.4,1.3-.4,1-1,1.9-1.7,2.7-.3.5-.6.9-.9,1.3-.2.3-.5.4-.8.4l-5.1.7c-.4,0-.8-.2-1-.6,0-.4-.3-.7-.5-1.1-.2-.3-.3-.6-.5-.8-.2-.3-.5-.6-.8-1s-.5-.8-.7-1.3-.4-1-.5-1.5-.2-1-.2-1.5,0-1.1.2-1.6c.2-.6.4-1.1.6-1.6h0c.4-.7.8-1.2,1.3-1.7s1.1-.8,1.7-1.1l.2.2h0ZM-164,28.3c.2,0,.4,0,.5.2l1.1,1c.3.2.3.7,0,1s-.3.2-.5.2-.4,0-.5-.2l-1.1-1h0c0-.1-.2-.3-.2-.5,0-.4.3-.7.7-.7ZM-166.9,36.2c0-.1.3-.2.5-.2h1.5c.4,0,.7.2.7.6s0,.4-.2.5c0,.1-.3.2-.5.2h-1.5c-.4,0-.7-.2-.7-.6s0-.4.2-.5ZM-170.2,55.4c-4,0-8.1.7-12.1,1.7V24.3h2.9v25.8c-.2,0-.2.2,0,.3,0,.9.8,1.5,1.7,1.4,3.9-.3,7.6,0,11.1,1.2,2.8.9,5.4,2.3,7.7,4.2-3.7-1.3-7.5-1.8-11.2-1.8h0ZM-153.9,47.4h0c-.3.5-.6.8-1.1,1.1-.4.2-.9.4-1.3.4s-1,0-1.4-.2c-.3-.2-.6-.3-.8-.6l4.6-.7h0ZM-159.1,47v-.2l-.3-.9v-.2l6-.9h0v1.5l-5.7.8h0ZM-130.9,57.1c-4-1-8-1.7-12.1-1.7s-7,.4-10.5,1.5c2.6-1.7,5.1-3.1,7.8-4.1,3.3-1.2,6.6-1.6,10.1-1.1h.4c.9,0,1.6-.7,1.6-1.6v-25.9h2.7v32.8h0Z"/>
  </g>
</svg>