<?xml version="1.0" encoding="UTF-8"?>
<svg id="Layer_2" xmlns="http://www.w3.org/2000/svg" xmlns:xlink="http://www.w3.org/1999/xlink" version="1.1" viewBox="0 0 73.1 73.1">
  <!-- Generator: Adobe Illustrator 30.3.0, SVG Export Plug-In . SVG Version: 2.1.3 Build 182)  -->
  <defs>
    <style>
      .st0, .st1 {
        fill: #fff;
      }

      .st0, .st2 {
        fill-rule: evenodd;
      }

      .st3 {
        fill: url(#linear-gradient2);
      }

      .st4 {
        fill: url(#linear-gradient1);
      }

      .st5 {
        fill: url(#linear-gradient3);
      }

      .st6 {
        fill: url(#linear-gradient4);
      }

      .st7 {
        fill: url(#linear-gradient);
      }

      .st2 {
        fill: url(#linear-gradient5);
      }
    </style>
    <linearGradient id="linear-gradient" x1="-186.2" y1="1.5" x2="-113.1" y2="74.6" gradientTransform="translate(0 74.6) scale(1 -1)" gradientUnits="userSpaceOnUse">
      <stop offset="0" stop-color="#54005f"/>
      <stop offset=".3" stop-color="#370049"/>
      <stop offset="1" stop-color="#00001f"/>
    </linearGradient>
    <linearGradient id="linear-gradient1" x1="0" x2="73.1" xlink:href="#linear-gradient"/>
    <linearGradient id="linear-gradient2" x1="-82.2" y1="12.4" x2="-31.7" y2="62.9" gradientTransform="translate(0 74.6) scale(1 -1)" gradientUnits="userSpaceOnUse">
      <stop offset="0" stop-color="#d08fd9"/>
      <stop offset="0" stop-color="#c386d6"/>
      <stop offset=".7" stop-color="#3726bd"/>
      <stop offset="1" stop-color="#0000b3"/>
    </linearGradient>
    <linearGradient id="linear-gradient3" x1="-186.2" y1="-91.6" x2="-113.1" y2="-18.5" xlink:href="#linear-gradient"/>
    <linearGradient id="linear-gradient4" x1="0" y1="-91.6" x2="73.1" y2="-18.5" xlink:href="#linear-gradient"/>
    <linearGradient id="linear-gradient5" x1="-81.7" y1="129.6" x2="-31.4" y2="129.6" gradientUnits="userSpaceOnUse">
      <stop offset="0" stop-color="#d08fd9"/>
      <stop offset="0" stop-color="#6d5499"/>
      <stop offset="1" stop-color="#ceceeb"/>
    </linearGradient>
  </defs>
  <g>
    <rect class="st7" x="-186.2" y="0" width="73.1" height="73.1"/>
    <g id="Layer_2-2">
      <g>
        <path class="st1" d="M-170.4,28.9c-2.1,0-4,.9-5.4,2.2-1.4,1.4-2.2,3.3-2.2,5.4s.9,4,2.2,5.4c1.4,1.4,3.3,2.2,5.4,2.2s4-.9,5.4-2.2c1.4-1.4,2.2-3.3,2.2-5.4s-.9-4-2.2-5.4c-1.4-1.4-3.3-2.2-5.4-2.2ZM-167.2,39.8c-.8.8-2,1.3-3.2,1.3s-2.4-.5-3.2-1.3-1.3-2-1.3-3.2.5-2.4,1.3-3.2,2-1.3,3.2-1.3,2.4.5,3.2,1.3,1.3,2,1.3,3.2-.5,2.4-1.3,3.2Z"/>
        <path class="st1" d="M-170.4,15.3c-1.1,0-1.9.9-1.9,1.9s1.2,2.2,2.4,1.9c.7-.2,1.2-.7,1.3-1.3.3-1.3-.6-2.4-1.9-2.4h0Z"/>
        <path class="st1" d="M-170.4,48.3c-2.1,0-4,.9-5.4,2.2-1.4,1.4-2.2,3.3-2.2,5.4s.9,4,2.2,5.4c1.4,1.4,3.3,2.2,5.4,2.2s4-.9,5.4-2.2c1.4-1.4,2.2-3.3,2.2-5.4s-.9-4-2.2-5.4-3.3-2.2-5.4-2.2ZM-167.2,59.1c-.8.8-1.9,1.3-3.2,1.3s-2.4-.5-3.2-1.3-1.3-2-1.3-3.2.5-2.4,1.3-3.2,2-1.3,3.2-1.3,2.4.5,3.2,1.3,1.3,2,1.3,3.2-.5,2.4-1.3,3.2Z"/>
        <path class="st1" d="M-170.4,9.6c-2.1,0-4,.9-5.4,2.2-1.4,1.4-2.2,3.3-2.2,5.4s.9,4,2.2,5.4c1.4,1.4,3.3,2.2,5.4,2.2s4-.9,5.4-2.2,2.2-3.3,2.2-5.4-.9-4-2.2-5.4c-1.4-1.4-3.3-2.2-5.4-2.2ZM-167.2,20.4c-.8.8-1.9,1.3-3.2,1.3s-2.4-.5-3.2-1.3c-.8-.8-1.3-2-1.3-3.2s.5-2.4,1.3-3.2,2-1.3,3.2-1.3,2.4.5,3.2,1.3,1.3,2,1.3,3.2-.5,2.4-1.3,3.2Z"/>
        <path class="st1" d="M-152.4,23h25.3c3.2,0,5.8-2.6,5.8-5.8s-2.6-5.8-5.8-5.8h-25.3c-3.2,0-5.8,2.6-5.8,5.8s2.6,5.8,5.8,5.8Z"/>
        <path class="st1" d="M-152.4,31.1h25.3c3.2,0,5.8,2.6,5.8,5.8h0c0,3.2-2.6,5.8-5.8,5.8h-25.3c-3.2,0-5.8-2.6-5.8-5.8h0c0-3.2,2.6-5.8,5.8-5.8Z"/>
        <path class="st1" d="M-127.1,50.1h-25.3c-3.2,0-5.8,2.6-5.8,5.8s2.6,5.8,5.8,5.8h25.3c3.2,0,5.8-2.6,5.8-5.8s-2.6-5.8-5.8-5.8Z"/>
      </g>
    </g>
  </g>
  <rect class="st4" x="0" y="0" width="73.1" height="73.1"/>
  <g id="Layer_2-21" data-name="Layer_2-2">
    <g>
      <path class="st1" d="M15.8,28.9c-2.1,0-4,.9-5.4,2.2-1.4,1.4-2.2,3.3-2.2,5.4s.9,4,2.2,5.4c1.4,1.4,3.3,2.2,5.4,2.2s4-.9,5.4-2.2c1.4-1.4,2.2-3.3,2.2-5.4s-.9-4-2.2-5.4c-1.4-1.4-3.3-2.2-5.4-2.2ZM19,39.8c-.8.8-2,1.3-3.2,1.3s-2.4-.5-3.2-1.3-1.3-2-1.3-3.2.5-2.4,1.3-3.2,2-1.3,3.2-1.3,2.4.5,3.2,1.3,1.3,2,1.3,3.2-.5,2.4-1.3,3.2Z"/>
      <path class="st1" d="M15.8,15.3c-1.1,0-1.9.9-1.9,1.9s1.2,2.2,2.4,1.9c.7-.2,1.2-.7,1.3-1.3.3-1.3-.6-2.4-1.9-2.4h0Z"/>
      <path class="st1" d="M15.8,48.3c-2.1,0-4,.9-5.4,2.2-1.4,1.4-2.2,3.3-2.2,5.4s.9,4,2.2,5.4c1.4,1.4,3.3,2.2,5.4,2.2s4-.9,5.4-2.2c1.4-1.4,2.2-3.3,2.2-5.4s-.9-4-2.2-5.4-3.3-2.2-5.4-2.2ZM19,59.1c-.8.8-1.9,1.3-3.2,1.3s-2.4-.5-3.2-1.3-1.3-2-1.3-3.2.5-2.4,1.3-3.2,2-1.3,3.2-1.3,2.4.5,3.2,1.3,1.3,2,1.3,3.2-.5,2.4-1.3,3.2Z"/>
      <path class="st1" d="M15.8,9.6c-2.1,0-4,.9-5.4,2.2-1.4,1.4-2.2,3.3-2.2,5.4s.9,4,2.2,5.4c1.4,1.4,3.3,2.2,5.4,2.2s4-.9,5.4-2.2,2.2-3.3,2.2-5.4-.9-4-2.2-5.4c-1.4-1.4-3.3-2.2-5.4-2.2ZM19,20.4c-.8.8-1.9,1.3-3.2,1.3s-2.4-.5-3.2-1.3c-.8-.8-1.3-2-1.3-3.2s.5-2.4,1.3-3.2,2-1.3,3.2-1.3,2.4.5,3.2,1.3,1.3,2,1.3,3.2-.5,2.4-1.3,3.2Z"/>
      <path class="st1" d="M33.8,23h25.3c3.2,0,5.8-2.6,5.8-5.8s-2.6-5.8-5.8-5.8h-25.3c-3.2,0-5.8,2.6-5.8,5.8s2.6,5.8,5.8,5.8Z"/>
      <path class="st1" d="M33.8,31.1h25.3c3.2,0,5.8,2.6,5.8,5.8h0c0,3.2-2.6,5.8-5.8,5.8h-25.3c-3.2,0-5.8-2.6-5.8-5.8h0c0-3.2,2.6-5.8,5.8-5.8Z"/>
      <path class="st1" d="M59.1,50.1h-25.3c-3.2,0-5.8,2.6-5.8,5.8s2.6,5.8,5.8,5.8h25.3c3.2,0,5.8-2.6,5.8-5.8s-2.6-5.8-5.8-5.8Z"/>
    </g>
  </g>
  <g id="uuid-793afc5c-569c-40c2-b019-28651eec46f5" data-name="Layer_2-21">
    <path class="st3" d="M-77.2,29.3c-2.1,0-4,.9-5.4,2.2-1.4,1.4-2.2,3.3-2.2,5.4s.9,4,2.2,5.4c1.4,1.4,3.3,2.2,5.4,2.2s4-.9,5.4-2.2c1.4-1.4,2.2-3.3,2.2-5.4s-.9-4-2.2-5.4c-1.4-1.4-3.3-2.2-5.4-2.2ZM-74.1,40.2c-.8.8-2,1.3-3.2,1.3s-2.4-.5-3.2-1.3-1.3-2-1.3-3.2.5-2.4,1.3-3.2,2-1.3,3.2-1.3,2.4.5,3.2,1.3,1.3,2,1.3,3.2-.5,2.4-1.3,3.2ZM-77.2,15.7c-1.1,0-1.9.9-1.9,1.9s1.2,2.2,2.4,1.9c.7-.2,1.2-.7,1.3-1.3.3-1.3-.6-2.4-1.9-2.4h0ZM-77.2,48.7c-2.1,0-4,.9-5.4,2.2-1.4,1.4-2.2,3.3-2.2,5.4s.9,4,2.2,5.4c1.4,1.4,3.3,2.2,5.4,2.2s4-.9,5.4-2.2c1.4-1.4,2.2-3.3,2.2-5.4s-.9-4-2.2-5.4-3.3-2.2-5.4-2.2ZM-74.1,59.5c-.8.8-1.9,1.3-3.2,1.3s-2.4-.5-3.2-1.3-1.3-2-1.3-3.2.5-2.4,1.3-3.2,2-1.3,3.2-1.3,2.4.5,3.2,1.3,1.3,2,1.3,3.2-.5,2.4-1.3,3.2ZM-77.2,10c-2.1,0-4,.9-5.4,2.2-1.4,1.4-2.2,3.3-2.2,5.4s.9,4,2.2,5.4c1.4,1.4,3.3,2.2,5.4,2.2s4-.9,5.4-2.2,2.2-3.3,2.2-5.4-.9-4-2.2-5.4c-1.4-1.4-3.3-2.2-5.4-2.2ZM-74.1,20.8c-.8.8-1.9,1.3-3.2,1.3s-2.4-.5-3.2-1.3c-.8-.8-1.3-2-1.3-3.2s.5-2.4,1.3-3.2,2-1.3,3.2-1.3,2.4.5,3.2,1.3,1.3,2,1.3,3.2-.5,2.4-1.3,3.2ZM-59.4,23.4h25.3c3.2,0,5.8-2.6,5.8-5.8s-2.6-5.8-5.8-5.8h-25.3c-3.2,0-5.8,2.6-5.8,5.8s2.6,5.8,5.8,5.8ZM-59.4,31.5h25.3c3.2,0,5.8,2.6,5.8,5.8h0c0,3.2-2.6,5.8-5.8,5.8h-25.3c-3.2,0-5.8-2.6-5.8-5.8h0c0-3.2,2.6-5.8,5.8-5.8ZM-34.1,50.5h-25.3c-3.2,0-5.8,2.6-5.8,5.8s2.6,5.8,5.8,5.8h25.3c3.2,0,5.8-2.6,5.8-5.8s-2.6-5.8-5.8-5.8Z"/>
  </g>
  <g>
    <rect class="st5" x="-186.2" y="93.1" width="73.1" height="73.1"/>
    <path class="st0" d="M-141.4,114.4c1.4.8,2.7,1.9,3.8,3.1,1.1,1.2,1.9,2.6,2.6,4.1h0c.3.9.6,1.7.8,2.6.5,2,.5,4.1.1,6.2-.2,1.1-.5,2.2-1,3.2h0c-.9,2.3-2.5,4.5-4,6.6-.8,1.1-1.5,2.1-2.2,3.2-.4.7-1.1,1-1.9,1l-12.2,1.8c-1,.2-2-.5-2.3-1.5-.3-.9-.7-1.7-1.1-2.6-.4-.7-.8-1.4-1.3-2-.6-.7-1.3-1.5-1.9-2.3-.7-1-1.3-2-1.8-3.1h0c-.5-1.1-.9-2.3-1.2-3.5-.3-1.2-.4-2.5-.4-3.7h0c0-1.3.2-2.6.5-3.9.4-1.4.9-2.7,1.5-3.9v-.2c.9-1.4,2-2.7,3.2-3.8,1.2-1.1,2.6-2,4.2-2.6h.1c1.1-.5,2.3-.8,3.5-1,1.3-.2,2.6-.2,3.9,0,1.3.1,2.5.4,3.7.8,1.2.4,2.4.9,3.5,1.5ZM-143.1,153c-.7,1.2-1.6,2.1-2.8,2.8-1,.6-2.1.9-3.2,1-1.1,0-2.3-.1-3.3-.6-.7-.4-1.4-.8-1.9-1.4l11.2-1.7ZM-142,146.8v1c0,.5,0,1,0,1.4l-.2,1.1-13.5,2-.2-.5-.5-2.2v-.6l14.5-2.2h0ZM-150,104.1c0-.9.8-1.7,1.7-1.7h.1c.4,0,.8.2,1.1.5.3.3.5.7.5,1.2h0s0,0,0,0v3.6h0s0,0,0,.1c0,.9-.8,1.6-1.7,1.6h-.1c-.4,0-.8-.2-1.1-.5-.3-.3-.5-.8-.5-1.2h0s0,0,0,0v-3.6c0,0,0,0,0,0ZM-168.6,110.4c-.3-.3-.5-.7-.5-1.2,0-.9.7-1.7,1.6-1.8,0,0,0,0,0,0,.4,0,.9.1,1.2.4l2.7,2.5c.7.6.7,1.7,0,2.4-.3.3-.7.5-1.2.5-.4,0-.9-.1-1.2-.4l-2.7-2.5ZM-173.1,129.1c-.9,0-1.7-.7-1.8-1.6,0,0,0,0,0,0,0-.4.1-.9.4-1.2.3-.3.7-.5,1.2-.5h3.7c.9-.2,1.7.6,1.8,1.5,0,0,0,0,0,0h0c0,.5-.2.9-.4,1.2-.3.3-.7.5-1.2.5h-3.7c0,.1,0,.1,0,.1ZM-126.3,123.9h0c.4,0,.8.1,1.2.4.3.3.6.7.6,1.1h0c0,1-.6,1.7-1.5,1.8l-3.7.4c-.9,0-1.8-.6-1.9-1.5,0-.9.6-1.8,1.5-1.9,1.2-.1,2.5-.3,3.7-.4h0ZM-133.6,109.1c.5-.8,1.6-1,2.3-.5,0,0,0,0,0,0h0c.4.2.6.6.7,1.1,0,.4,0,.9-.3,1.3l-2.1,3.1c-.5.8-1.6,1-2.4.5-.8-.5-1-1.6-.5-2.4h0l2.1-3.1h0ZM-147.7,126.7h2.6c.4,0,.7.3.7.7h0c0,.1,0,.3-.1.4l-6.2,10.6c-.2.3-.6.4-.9.2,0,0,0,0,0,0-.2-.1-.4-.4-.3-.7l.9-6.5h-3.1c-.4,0-.7-.2-.7-.6,0,0,0,0,0,0,0-.1,0-.3,0-.4l6.1-10.6c.2-.3.6-.4.9-.2.2.1.4.4.3.7l-.3,6.5h0Z"/>
  </g>
  <rect class="st6" y="93.1" width="73.1" height="73.1"/>
  <path class="st0" d="M44.8,114.4c1.4.8,2.7,1.9,3.8,3.1,1.1,1.2,1.9,2.6,2.6,4.1h0c.3.9.6,1.7.8,2.6.5,2,.5,4.1.1,6.2-.2,1.1-.5,2.2-1,3.2h0c-.9,2.3-2.5,4.5-4,6.6-.8,1.1-1.5,2.1-2.2,3.2-.4.7-1.1,1-1.9,1l-12.2,1.8c-1,.2-2-.5-2.3-1.5-.3-.9-.7-1.7-1.1-2.6-.4-.7-.8-1.4-1.3-2-.6-.7-1.3-1.5-1.9-2.3-.7-1-1.3-2-1.8-3.1h0c-.5-1.1-.9-2.3-1.2-3.5-.3-1.2-.4-2.5-.4-3.7h0c0-1.3.2-2.6.5-3.9.4-1.4.9-2.7,1.5-3.9v-.2c.9-1.4,2-2.7,3.2-3.8,1.2-1.1,2.6-2,4.2-2.6h.1c1.1-.5,2.3-.8,3.5-1,1.3-.2,2.6-.2,3.9,0,1.3.1,2.5.4,3.7.8,1.2.4,2.4.9,3.5,1.5ZM43.1,153c-.7,1.2-1.6,2.1-2.8,2.8-1,.6-2.1.9-3.2,1-1.1,0-2.3-.1-3.3-.6-.7-.4-1.4-.8-1.9-1.4l11.2-1.7ZM44.2,146.8v1c0,.5,0,1,0,1.4l-.2,1.1-13.5,2-.2-.5-.5-2.2v-.6l14.5-2.2h0ZM36.2,104.1c0-.9.8-1.7,1.7-1.7h.1c.4,0,.8.2,1.1.5.3.3.5.7.5,1.2h0s0,0,0,0v3.6h0s0,0,0,.1c0,.9-.8,1.6-1.7,1.6h-.1c-.4,0-.8-.2-1.1-.5-.3-.3-.5-.8-.5-1.2h0s0,0,0,0v-3.6c0,0,0,0,0,0ZM17.6,110.4c-.3-.3-.5-.7-.5-1.2,0-.9.7-1.7,1.6-1.8,0,0,0,0,0,0,.4,0,.9.1,1.2.4l2.7,2.5c.7.6.7,1.7,0,2.4-.3.3-.7.5-1.2.5-.4,0-.9-.1-1.2-.4l-2.7-2.5ZM13.1,129.1c-.9,0-1.7-.7-1.8-1.6,0,0,0,0,0,0,0-.4.1-.9.4-1.2.3-.3.7-.5,1.2-.5h3.7c.9-.2,1.7.6,1.8,1.5,0,0,0,0,0,0h0c0,.5-.2.9-.4,1.2-.3.3-.7.5-1.2.5h-3.7c0,.1,0,.1,0,.1ZM59.9,123.9h0c.4,0,.8.1,1.2.4.3.3.6.7.6,1.1h0c0,1-.6,1.7-1.5,1.8l-3.7.4c-.9,0-1.8-.6-1.9-1.5,0-.9.6-1.8,1.5-1.9,1.2-.1,2.5-.3,3.7-.4h0ZM52.6,109.1c.5-.8,1.6-1,2.3-.5,0,0,0,0,0,0h0c.4.2.6.6.7,1.1,0,.4,0,.9-.3,1.3l-2.1,3.1c-.5.8-1.6,1-2.4.5-.8-.5-1-1.6-.5-2.4h0l2.1-3.1h0ZM38.5,126.7h2.6c.4,0,.7.3.7.7h0c0,.1,0,.3-.1.4l-6.2,10.6c-.2.3-.6.4-.9.2,0,0,0,0,0,0-.2-.1-.4-.4-.3-.7l.9-6.5h-3.1c-.4,0-.7-.2-.7-.6,0,0,0,0,0,0,0-.1,0-.3,0-.4l6.1-10.6c.2-.3.6-.4.9-.2.2.1.4.4.3.7l-.3,6.5h0Z"/>
  <path class="st2" d="M-48.3,114.4c1.4.8,2.7,1.9,3.8,3.1,1.1,1.2,1.9,2.6,2.6,4.1h0c.3.9.6,1.7.8,2.6.5,2,.5,4.1.1,6.2-.2,1.1-.5,2.2-1,3.2h0c-.9,2.3-2.5,4.5-4,6.6-.8,1.1-1.5,2.1-2.2,3.2-.4.7-1.1,1-1.9,1l-12.2,1.8c-1,.2-2-.5-2.3-1.5-.3-.9-.7-1.7-1.1-2.6-.4-.7-.8-1.4-1.3-2-.6-.7-1.3-1.5-1.9-2.3-.7-1-1.3-2-1.8-3.1h0c-.5-1.1-.9-2.3-1.2-3.5-.3-1.2-.4-2.5-.4-3.7h0c0-1.3.2-2.6.5-3.9.4-1.4.9-2.7,1.5-3.9v-.2c.9-1.4,2-2.7,3.2-3.8,1.2-1.1,2.6-2,4.2-2.6h.1c1.1-.5,2.3-.8,3.5-1,1.3-.2,2.6-.2,3.9,0,1.3.1,2.5.4,3.7.8,1.2.4,2.4.9,3.5,1.5ZM-50,153c-.7,1.2-1.6,2.1-2.8,2.8-1,.6-2.1.9-3.2,1-1.1,0-2.3-.1-3.3-.6-.7-.4-1.4-.8-1.9-1.4l11.2-1.7ZM-48.9,146.8v1c0,.5,0,1,0,1.4l-.2,1.1-13.5,2-.2-.5-.5-2.2v-.6l14.5-2.2h0ZM-56.9,104.1c0-.9.8-1.7,1.7-1.7h.1c.4,0,.8.2,1.1.5.3.3.5.7.5,1.2h0s0,0,0,0v3.6h0s0,0,0,.1c0,.9-.8,1.6-1.7,1.6h-.1c-.4,0-.8-.2-1.1-.5-.3-.3-.5-.8-.5-1.2h0s0,0,0,0v-3.6c0,0,0,0,0,0ZM-75.5,110.4c-.3-.3-.5-.7-.5-1.2,0-.9.7-1.7,1.6-1.8,0,0,0,0,0,0,.4,0,.9.1,1.2.4l2.7,2.5c.7.6.7,1.7,0,2.4-.3.3-.7.5-1.2.5-.4,0-.9-.1-1.2-.4l-2.7-2.5ZM-80,129.1c-.9,0-1.7-.7-1.8-1.6,0,0,0,0,0,0,0-.4.1-.9.4-1.2.3-.3.7-.5,1.2-.5h3.7c.9-.2,1.7.6,1.8,1.5,0,0,0,0,0,0h0c0,.5-.2.9-.4,1.2-.3.3-.7.5-1.2.5h-3.7c0,.1,0,.1,0,.1ZM-33.2,123.9h0c.4,0,.8.1,1.2.4.3.3.6.7.6,1.1h0c0,1-.6,1.7-1.5,1.8l-3.7.4c-.9,0-1.8-.6-1.9-1.5,0-.9.6-1.8,1.5-1.9,1.2-.1,2.5-.3,3.7-.4h0ZM-40.5,109.1c.5-.8,1.6-1,2.3-.5,0,0,0,0,0,0h0c.4.2.6.6.7,1.1,0,.4,0,.9-.3,1.3l-2.1,3.1c-.5.8-1.6,1-2.4.5-.8-.5-1-1.6-.5-2.4h0l2.1-3.1h0ZM-54.6,126.7h2.6c.4,0,.7.3.7.7h0c0,.1,0,.3-.1.4l-6.2,10.6c-.2.3-.6.4-.9.2,0,0,0,0,0,0-.2-.1-.4-.4-.3-.7l.9-6.5h-3.1c-.4,0-.7-.2-.7-.6,0,0,0,0,0,0,0-.1,0-.3,0-.4l6.1-10.6c.2-.3.6-.4.9-.2.2.1.4.4.3.7l-.3,6.5h0Z"/>
</svg>