<?xml version="1.0" encoding="UTF-8"?>
<svg id="Layer_2" data-name="Layer 2" xmlns="http://www.w3.org/2000/svg" viewBox="0 0 469 511.61">
  <g id="Layer_1-2" data-name="Layer 1" image-rendering="optimizeQuality" shape-rendering="geometricPrecision" text-rendering="geometricPrecision">
    <path d="M447.61,475.75l-8.84-10.17-41.99,41.98-.03-.04c-4.7,4.7-12.31,4.77-17.09.12l-42.78-41.6-41.9,40.26c-4.58,4.73-12.12,4.97-17.01.47l-44.47-41.08-40.37,41.56c-.24.27-.48.51-.72.78-4.77,4.78-12.5,4.78-17.24,0l-42.34-42.34-43.65,41.59c-4.77,4.54-12.34,4.46-17-.23l-41.52-41.95-8.64,9.94c-2.2,3.01-5.8,4.94-9.82,4.94-6.75,0-12.2-5.49-12.2-12.2V12.19C0,5.44,5.45,0,12.2,0h444.6c6.75,0,12.2,5.44,12.2,12.19v455.59h-.04c0,3.4-1.42,6.79-4.22,9.19-5.05,4.43-12.75,3.88-17.13-1.22h0ZM92.32,344.1h221.82c1.39,0,2.53,1.18,2.53,2.55v16.46c0,1.36-1.17,2.53-2.53,2.53H92.32c-1.37,0-2.54-1.14-2.54-2.53v-16.46c0-1.4,1.14-2.55,2.54-2.55ZM173.46,115.13h-24.27v77.81h-33.46v-77.81h-24.27v-26.78h82v26.78ZM201.98,192.94h-31.2l27.11-104.59h51.71l27.11,104.59h-31.19l-3.85-16.57h-35.84l-3.85,16.57h0ZM220.37,120.48l-8.51,29.29h23.62l-8.34-29.29h-6.77ZM316.46,88.35l11.55,27.94h1.67l11.54-27.94h36.32l-23.26,50.54,23.26,54.05h-37.15l-12.55-30.12h-1.51l-12.38,30.12h-35.48l22.76-53.05-22.76-51.54s37.99,0,37.99,0ZM92.32,291.54h284.36c1.39,0,2.53,1.17,2.53,2.55v16.46c0,1.37-1.16,2.53-2.53,2.53H92.32c-1.38,0-2.54-1.14-2.54-2.53v-16.46c0-1.4,1.14-2.55,2.54-2.55ZM92.32,238.27h284.36c1.39,0,2.53,1.16,2.53,2.54v16.46c0,1.37-1.16,2.53-2.53,2.53H92.32c-1.38,0-2.54-1.14-2.54-2.53v-16.46c0-1.4,1.14-2.54,2.54-2.54ZM444.61,436.69V24.42H24.43v412.07c4.3-2.25,9.71-1.77,13.62,1.58.23.2.47.4.67.63l42.34,42.78,43.6-41.51c4.81-4.58,12.35-4.47,17.01.19l.04-.04,41.99,41.99,40.64-41.87c4.61-4.74,12.15-4.93,16.97-.48l44.79,41.36,42.46-40.72c4.77-4.58,12.35-4.5,17,.12l42.5,41.32,42.74-42.74c3.67-3.75,9.28-4.54,13.81-2.41h0Z"/>
  </g>
</svg>