<?xml version="1.0" encoding="UTF-8"?><svg xmlns="http://www.w3.org/2000/svg" id="Layer_2" data-name="Layer 2" viewBox="0 0 403.77 391.27">
  <g id="Layer_1-2" data-name="Layer 1">
    <g>
      <path d="M333.35,340.83H70.7c-4.38,0-7.39,7.28-7.39,11.64l-.05,38.8h-12.74s-.02-40.32-.02-40.32c.89-8.81,4.54-16.74,12.59-21.15l.09-166.64c0-12.68,11.09-24.32,24.01-24.32l229.03-.04c13.82,0,24.57,12,24.57,25.39v165.6c7.63,3.76,12.54,13.77,12.55,21.65l.04,39.82h-12.75s-.06-39.26-.06-39.26c0-3.76-3.09-11.17-7.2-11.17ZM261.67,176.65c10.45.04,18.46,9.76,19.93,19.77,3.77,25.67,2.67,49.36-.18,75.1-.32,2.93-.87,5.58-1.5,8.59,11.07,4.44,22.13,12.4,24.51,24.96l1.89,22.95,21.62-.02-.02-164.27c0-6.97-5.89-12.17-12.69-12.17l-227.1.02c-6.23,0-12.15,5.27-12.15,11.64l-.05,164.79h21.6s1.8-22.04,1.8-22.04c2.02-12.56,12.63-20.84,23.64-25.47-5.47-28.37-6.43-57.3-1.21-85.57.84-4.55,3.13-8.56,6.06-11.94,3.95-4.13,8.91-6.39,14.67-6.4l30.75-.03c16.48-15.15,40.89-15.09,57.38-.02l31.04.11ZM230.84,238.04c6.99-13.87,6.32-30.38-1.72-43.65-8.79-14.51-26.24-21.16-41.52-12.55-5.37,3.03-9.61,7.21-12.85,12.55-11.67,19.24-7.38,46.37,11.37,58.33,16.71,10.66,36.13,2.36,44.72-14.68ZM175.93,264.86c.19-1.3.26-3.3-.37-3.84-21.11-16.9-26-47.63-12.85-71.56-7.31-.05-14.32-.19-21.46.12-3.6.16-5.55,3.99-6.79,7.04-5.04,26.17-4.06,52.69.55,78.89.09.5.57,1.48.98,1.61s1.64.17,2.07.03l37.87-12.3ZM270.83,245.03c.89-16.17.33-31.82-2.05-47.78-1.06-3.22-3.02-7.36-6.78-7.61-6.9-.46-13.74-.21-20.84-.18,13.2,23.97,8.21,55-13.14,71.75-.15,1.1-.15,2.51-.03,3.66l37.38,12.15c.44.14,1.63.08,1.88-.24,1.65-2.09,3.32-27.05,3.58-31.75ZM258.56,328.03l.09-12.12,12.72.03.13,12.1,21.93-.03-1.82-21.47c-.25-2.97-2.81-5.83-4.99-7.76-6.52-5.74-14.58-8.76-23.37-8.98l-48.23-15.68-.19-5.91c-8.69,2.78-17.35,2.64-25.83.02l-.15,5.9-49.45,15.75c-8.86.38-16.77,3.93-23.13,9.85-1.67,2.13-3.87,4.48-4.1,7.27l-1.74,21.03h21.99s.07-12.11.07-12.11l12.77.05.05,12.06h113.24Z" fill="#ffffff"/>
      <path d="M166.47,32.33c-15.54-11.16-35.42-13.52-53.15-6.22-9.97,4.18-18.27,10.8-24.69,19.49l31.96,17.58-32.99,18.12-18.1,32.98-14.68-26.68c-13.16,4.87-21.47,17.51-22,31.63,0,5.01,1.02,9.56,2.52,14.76-14.68,6.43-23.55,20.61-22.43,36.64.94,13.42,7.15,26.45,20.26,31.29l6.6,2.44-4.15,11.86c-12.8-3.03-23.21-10.75-29.27-22.28-11.86-22.7-7.12-50.99,14.25-66.24-2.96-20.15,6.17-39.68,24.36-49.82l-26.5-14.78,32.91-18.04,18.06-32.93,12.08,21.72C104.57,7.29,141.74,1.14,171.35,20.12c36.17-30.82,87.87-25.43,118.24,10.67l6.98-12.37,13.68,24.86,11.07,5.98c44.85,1.27,75.6,44.07,66.42,87.48,11.11,14.6,17.06,32.43,15.88,50.85-.32,4.91-2,9.37-3.37,13.97l-5.05,14.73-12.13-3.93,4.97-14.78c1.12-3.81,2.69-7.59,2.87-11.66.73-16.98-5.56-33.3-17.25-45.9,11.07-35.2-10.8-73.39-48.39-77.73l-15.09,8.26-13.65,24.87-13.61-24.84-24.86-13.69,24.83-13.69c-6.28-8.74-14.01-15.72-23.21-21.04-29.5-16.81-64.19-10.31-87.2,14.52l-6.02-4.32ZM69.47,87.35c12.94-21.98,3.29-11.31,24.11-24.3-4.86-3.34-11.04-5.24-15.27-8.91-3.57-4.5-5.61-10.46-8.74-15.15-13.08,21.78-2.95,11.17-24.17,24.27,4.76,3.42,11.07,5.1,15.19,8.94,3.78,4.28,5.51,10.52,8.89,15.14ZM296.56,68.73l4.22-7.59,7.35-4.27c-9.8-6.1-5.44-1.27-11.53-11.59-6.61,10.43-1.06,5.03-11.56,11.59,9.49,6.01,5.68,1.45,11.52,11.86Z" fill="#ffffff"/>
      <path d="M157.77,126.88l-13.64-24.83-24.8-13.63,24.76-13.65,13.7-24.86,13.67,24.83,24.83,13.65-24.76,13.59-13.76,24.9ZM157.78,100.19c6.08-10.55,1.8-5.66,11.6-11.81-10.18-6.19-5.36-1.41-11.58-11.59-6.19,10.16-1.39,5.35-11.55,11.59,2.28,1.62,5.2,2.72,7.27,4.4,1.61,2.17,2.82,4.91,4.27,7.4Z" fill="#ffffff"/>
      <polygon points="227.19 53.33 218.07 44.27 227.14 35.25 236.18 44.25 227.19 53.33" fill="#ffffff"/>
      <polygon points="208.29 116.4 199.16 107.36 208.19 98.22 217.26 107.28 208.29 116.4" fill="#ffffff"/>
      <polygon points="38.04 179.46 28.87 170.43 37.93 161.36 47.05 170.43 38.04 179.46" fill="#ffffff"/>
      <polygon points="252.42 103.71 243.32 94.71 252.4 85.6 261.4 94.68 252.42 103.71" fill="#ffffff"/>
      <polygon points="340.78 122.63 331.57 113.67 340.65 104.62 349.75 113.61 340.78 122.63" fill="#ffffff"/>
    </g>
  </g>
</svg>