<?xml version="1.0" encoding="UTF-8"?><svg xmlns="http://www.w3.org/2000/svg" xmlns:xlink="http://www.w3.org/1999/xlink" id="Layer_2" data-name="Layer 2" viewBox="0 0 56.68 53.95">
  <defs>
    <style>
      .cls-1 {
        fill: url(#linear-gradient);
      }
    </style>
    <linearGradient id="linear-gradient" x1="2.72" y1="52.21" x2="53.22" y2="1.71" gradientUnits="userSpaceOnUse">
      <stop offset="0" stop-color="#d08fd9"/>
      <stop offset=".06" stop-color="#c386d6"/>
      <stop offset=".71" stop-color="#3726bd"/>
      <stop offset="1" stop-color="#0000b3"/>
    </linearGradient>
  </defs>
  <g id="Layer_2-2" data-name="Layer 2">
    <path id="uuid-b55e93c3-f212-46f2-a319-61be798cbc43" data-name="Layer 2-2" class="cls-1" d="M7.63,19.35c-2.11,0-4.02.85-5.39,2.22-1.38,1.38-2.23,3.29-2.23,5.39s.85,4.02,2.23,5.39c1.38,1.38,3.29,2.23,5.39,2.23s4.01-.85,5.39-2.22c1.38-1.38,2.23-3.29,2.23-5.39s-.85-4.02-2.23-5.39c-1.38-1.38-3.29-2.23-5.39-2.23ZM10.83,30.18c-.81.82-1.95,1.33-3.2,1.33s-2.38-.5-3.2-1.33-1.33-1.95-1.33-3.21.5-2.38,1.33-3.2c.81-.82,1.95-1.33,3.2-1.33s2.38.5,3.2,1.33,1.33,1.95,1.33,3.2-.5,2.39-1.33,3.21ZM7.63,5.7c-1.06,0-1.93.86-1.93,1.93,0,1.23,1.15,2.19,2.44,1.86.65-.17,1.18-.7,1.35-1.35.33-1.29-.63-2.44-1.86-2.44ZM7.63,38.69c-2.11,0-4.02.85-5.39,2.23-1.38,1.38-2.23,3.29-2.23,5.39s.85,4.02,2.23,5.39c1.38,1.38,3.29,2.23,5.39,2.23s4.02-.85,5.39-2.23c1.38-1.38,2.23-3.29,2.23-5.39s-.85-4.02-2.23-5.39-3.29-2.23-5.39-2.23ZM10.83,49.52c-.81.82-1.95,1.33-3.2,1.33s-2.39-.5-3.21-1.33-1.33-1.95-1.33-3.21.5-2.38,1.33-3.2c.81-.82,1.95-1.33,3.2-1.33s2.38.5,3.2,1.33,1.33,1.95,1.33,3.2c0,1.26-.5,2.39-1.33,3.21ZM7.63,0C5.52,0,3.61.85,2.23,2.23.85,3.61,0,5.52,0,7.63s.85,4.01,2.23,5.39c1.38,1.38,3.29,2.23,5.39,2.23s4.02-.85,5.39-2.23,2.23-3.29,2.23-5.39-.85-4.02-2.23-5.39C11.64.85,9.74,0,7.63,0ZM10.83,10.82c-.81.82-1.95,1.33-3.2,1.33s-2.39-.5-3.21-1.33c-.82-.81-1.33-1.95-1.33-3.2s.5-2.38,1.33-3.2c.81-.82,1.95-1.33,3.2-1.33s2.38.5,3.2,1.33,1.33,1.95,1.33,3.2-.5,2.38-1.33,3.2ZM25.57,13.36h25.31c3.2,0,5.8-2.6,5.8-5.8s-2.6-5.8-5.8-5.8h-25.31c-3.2,0-5.8,2.6-5.8,5.8s2.6,5.8,5.8,5.8ZM25.57,21.47h25.31c3.2,0,5.8,2.6,5.8,5.8h0c0,3.2-2.6,5.8-5.8,5.8h-25.31c-3.2,0-5.8-2.6-5.8-5.8h0c0-3.2,2.6-5.8,5.8-5.8ZM50.88,40.52h-25.31c-3.2,0-5.8,2.6-5.8,5.8s2.6,5.8,5.8,5.8h25.31c3.2,0,5.8-2.6,5.8-5.8s-2.6-5.8-5.8-5.8Z"/>
  </g>
</svg>