<?xml version="1.0" encoding="UTF-8"?>
<svg id="Layer_2" xmlns="http://www.w3.org/2000/svg" xmlns:xlink="http://www.w3.org/1999/xlink" version="1.1" viewBox="0 0 73.1 73.1">
  <!-- Generator: Adobe Illustrator 30.3.0, SVG Export Plug-In . SVG Version: 2.1.3 Build 182)  -->
  <defs>
    <style>
      .st0, .st1 {
        fill: #fff;
      }

      .st0, .st2 {
        fill-rule: evenodd;
      }

      .st3 {
        fill: url(#linear-gradient2);
      }

      .st4 {
        fill: url(#linear-gradient1);
      }

      .st5 {
        fill: url(#linear-gradient3);
      }

      .st6 {
        fill: url(#linear-gradient6);
      }

      .st7 {
        fill: url(#linear-gradient8);
      }

      .st8 {
        fill: url(#linear-gradient7);
      }

      .st9 {
        fill: url(#linear-gradient4);
      }

      .st10 {
        fill: url(#linear-gradient);
      }

      .st2 {
        fill: url(#linear-gradient5);
      }
    </style>
    <linearGradient id="linear-gradient" x1="-186.2" y1="1189.1" x2="-113.1" y2="1116" gradientTransform="translate(0 -1116)" gradientUnits="userSpaceOnUse">
      <stop offset="0" stop-color="#54005f"/>
      <stop offset=".3" stop-color="#370049"/>
      <stop offset="1" stop-color="#00001f"/>
    </linearGradient>
    <linearGradient id="linear-gradient1" x1="0" y1="1189.1" x2="73.1" y2="1116" gradientTransform="translate(0 -1116)" gradientUnits="userSpaceOnUse">
      <stop offset="0" stop-color="#54005f"/>
      <stop offset=".3" stop-color="#370049"/>
      <stop offset="1" stop-color="#00001f"/>
    </linearGradient>
    <linearGradient id="linear-gradient2" x1="-82.1" y1="1178.1" x2="-31.7" y2="1127.6" gradientTransform="translate(0 -1116)" gradientUnits="userSpaceOnUse">
      <stop offset="0" stop-color="#d08fd9"/>
      <stop offset="0" stop-color="#c386d6"/>
      <stop offset=".7" stop-color="#3726bd"/>
      <stop offset="1" stop-color="#0000b3"/>
    </linearGradient>
    <linearGradient id="linear-gradient3" x1="-186.2" y1="1282.2" x2="-113.1" y2="1209.1" gradientTransform="translate(0 -1116)" gradientUnits="userSpaceOnUse">
      <stop offset="0" stop-color="#54005f"/>
      <stop offset=".3" stop-color="#370049"/>
      <stop offset="1" stop-color="#00001f"/>
    </linearGradient>
    <linearGradient id="linear-gradient4" x1="0" y1="1282.2" x2="73.1" y2="1209.1" gradientTransform="translate(0 -1116)" gradientUnits="userSpaceOnUse">
      <stop offset="0" stop-color="#54005f"/>
      <stop offset=".3" stop-color="#370049"/>
      <stop offset="1" stop-color="#00001f"/>
    </linearGradient>
    <linearGradient id="linear-gradient5" x1="-81.7" y1="-55" x2="-31.4" y2="-55" gradientTransform="translate(0 74.6) scale(1 -1)" gradientUnits="userSpaceOnUse">
      <stop offset="0" stop-color="#d08fd9"/>
      <stop offset="0" stop-color="#6d5499"/>
      <stop offset="1" stop-color="#ceceeb"/>
    </linearGradient>
    <linearGradient id="linear-gradient6" x1="-186.2" y1="1363.8" x2="-113.1" y2="1290.7" gradientTransform="translate(0 -1116)" gradientUnits="userSpaceOnUse">
      <stop offset="0" stop-color="#ff853f"/>
      <stop offset="1" stop-color="#7f3800"/>
    </linearGradient>
    <linearGradient id="linear-gradient7" x1="-.7" x2="72.4" xlink:href="#linear-gradient6"/>
    <linearGradient id="linear-gradient8" x1="-85.7" y1="212.3" x2="-28.1" y2="212.3" gradientTransform="matrix(1,0,0,1,0,0)" xlink:href="#linear-gradient6"/>
  </defs>
  <g>
    <rect class="st10" x="-186.2" y="0" width="73.1" height="73.1"/>
    <g id="Layer_2-2">
      <g>
        <path class="st1" d="M-170.4,28.9c-2.1,0-4,.9-5.4,2.2-1.4,1.4-2.2,3.3-2.2,5.4s.9,4,2.2,5.4c1.4,1.4,3.3,2.2,5.4,2.2s4-.9,5.4-2.2c1.4-1.4,2.2-3.3,2.2-5.4s-.9-4-2.2-5.4c-1.4-1.4-3.3-2.2-5.4-2.2ZM-167.2,39.8c-.8.8-2,1.3-3.2,1.3s-2.4-.5-3.2-1.3-1.3-2-1.3-3.2.5-2.4,1.3-3.2,2-1.3,3.2-1.3,2.4.5,3.2,1.3,1.3,2,1.3,3.2-.5,2.4-1.3,3.2Z"/>
        <path class="st1" d="M-170.4,15.3c-1.1,0-1.9.9-1.9,1.9s1.2,2.2,2.4,1.9c.7-.2,1.2-.7,1.3-1.3.3-1.3-.6-2.4-1.9-2.4h0Z"/>
        <path class="st1" d="M-170.4,48.3c-2.1,0-4,.9-5.4,2.2-1.4,1.4-2.2,3.3-2.2,5.4s.9,4,2.2,5.4c1.4,1.4,3.3,2.2,5.4,2.2s4-.9,5.4-2.2c1.4-1.4,2.2-3.3,2.2-5.4s-.9-4-2.2-5.4-3.3-2.2-5.4-2.2ZM-167.2,59.1c-.8.8-1.9,1.3-3.2,1.3s-2.4-.5-3.2-1.3-1.3-2-1.3-3.2.5-2.4,1.3-3.2,2-1.3,3.2-1.3,2.4.5,3.2,1.3,1.3,2,1.3,3.2-.5,2.4-1.3,3.2Z"/>
        <path class="st1" d="M-170.4,9.6c-2.1,0-4,.9-5.4,2.2-1.4,1.4-2.2,3.3-2.2,5.4s.9,4,2.2,5.4c1.4,1.4,3.3,2.2,5.4,2.2s4-.9,5.4-2.2,2.2-3.3,2.2-5.4-.9-4-2.2-5.4c-1.4-1.4-3.3-2.2-5.4-2.2ZM-167.2,20.4c-.8.8-1.9,1.3-3.2,1.3s-2.4-.5-3.2-1.3-1.3-2-1.3-3.2.5-2.4,1.3-3.2,2-1.3,3.2-1.3,2.4.5,3.2,1.3,1.3,2,1.3,3.2-.5,2.4-1.3,3.2Z"/>
        <path class="st1" d="M-152.4,23h25.3c3.2,0,5.8-2.6,5.8-5.8s-2.6-5.8-5.8-5.8h-25.3c-3.2,0-5.8,2.6-5.8,5.8s2.6,5.8,5.8,5.8Z"/>
        <path class="st1" d="M-152.4,31.1h25.3c3.2,0,5.8,2.6,5.8,5.8h0c0,3.2-2.6,5.8-5.8,5.8h-25.3c-3.2,0-5.8-2.6-5.8-5.8h0c0-3.2,2.6-5.8,5.8-5.8Z"/>
        <path class="st1" d="M-127.1,50.1h-25.3c-3.2,0-5.8,2.6-5.8,5.8s2.6,5.8,5.8,5.8h25.3c3.2,0,5.8-2.6,5.8-5.8s-2.6-5.8-5.8-5.8Z"/>
      </g>
    </g>
  </g>
  <rect class="st4" y="0" width="73.1" height="73.1"/>
  <g id="Layer_2-21">
    <g>
      <path class="st1" d="M15.8,28.9c-2.1,0-4,.9-5.4,2.2-1.4,1.4-2.2,3.3-2.2,5.4s.9,4,2.2,5.4c1.4,1.4,3.3,2.2,5.4,2.2s4-.9,5.4-2.2c1.4-1.4,2.2-3.3,2.2-5.4s-.9-4-2.2-5.4c-1.4-1.4-3.3-2.2-5.4-2.2ZM19,39.8c-.8.8-2,1.3-3.2,1.3s-2.4-.5-3.2-1.3-1.3-2-1.3-3.2.5-2.4,1.3-3.2,2-1.3,3.2-1.3,2.4.5,3.2,1.3,1.3,2,1.3,3.2-.5,2.4-1.3,3.2Z"/>
      <path class="st1" d="M15.8,15.3c-1.1,0-1.9.9-1.9,1.9s1.2,2.2,2.4,1.9c.7-.2,1.2-.7,1.3-1.3.3-1.3-.6-2.4-1.9-2.4h0Z"/>
      <path class="st1" d="M15.8,48.3c-2.1,0-4,.9-5.4,2.2-1.4,1.4-2.2,3.3-2.2,5.4s.9,4,2.2,5.4c1.4,1.4,3.3,2.2,5.4,2.2s4-.9,5.4-2.2c1.4-1.4,2.2-3.3,2.2-5.4s-.9-4-2.2-5.4-3.3-2.2-5.4-2.2ZM19,59.1c-.8.8-1.9,1.3-3.2,1.3s-2.4-.5-3.2-1.3-1.3-2-1.3-3.2.5-2.4,1.3-3.2,2-1.3,3.2-1.3,2.4.5,3.2,1.3,1.3,2,1.3,3.2-.5,2.4-1.3,3.2Z"/>
      <path class="st1" d="M15.8,9.6c-2.1,0-4,.9-5.4,2.2-1.4,1.4-2.2,3.3-2.2,5.4s.9,4,2.2,5.4c1.4,1.4,3.3,2.2,5.4,2.2s4-.9,5.4-2.2,2.2-3.3,2.2-5.4-.9-4-2.2-5.4c-1.4-1.4-3.3-2.2-5.4-2.2ZM19,20.4c-.8.8-1.9,1.3-3.2,1.3s-2.4-.5-3.2-1.3c-.8-.8-1.3-2-1.3-3.2s.5-2.4,1.3-3.2,2-1.3,3.2-1.3,2.4.5,3.2,1.3,1.3,2,1.3,3.2-.5,2.4-1.3,3.2Z"/>
      <path class="st1" d="M33.8,23h25.3c3.2,0,5.8-2.6,5.8-5.8s-2.6-5.8-5.8-5.8h-25.3c-3.2,0-5.8,2.6-5.8,5.8s2.6,5.8,5.8,5.8Z"/>
      <path class="st1" d="M33.8,31.1h25.3c3.2,0,5.8,2.6,5.8,5.8h0c0,3.2-2.6,5.8-5.8,5.8h-25.3c-3.2,0-5.8-2.6-5.8-5.8h0c0-3.2,2.6-5.8,5.8-5.8Z"/>
      <path class="st1" d="M59.1,50.1h-25.3c-3.2,0-5.8,2.6-5.8,5.8s2.6,5.8,5.8,5.8h25.3c3.2,0,5.8-2.6,5.8-5.8s-2.6-5.8-5.8-5.8Z"/>
    </g>
  </g>
  <g id="uuid-793afc5c-569c-40c2-b019-28651eec46f5">
    <path class="st3" d="M-77.2,29.3c-2.1,0-4,.9-5.4,2.2-1.4,1.4-2.2,3.3-2.2,5.4s.9,4,2.2,5.4c1.4,1.4,3.3,2.2,5.4,2.2s4-.9,5.4-2.2c1.4-1.4,2.2-3.3,2.2-5.4s-.9-4-2.2-5.4c-1.4-1.4-3.3-2.2-5.4-2.2ZM-74.1,40.2c-.8.8-2,1.3-3.2,1.3s-2.4-.5-3.2-1.3-1.3-2-1.3-3.2.5-2.4,1.3-3.2,2-1.3,3.2-1.3,2.4.5,3.2,1.3,1.3,2,1.3,3.2-.5,2.4-1.3,3.2ZM-77.2,15.7c-1.1,0-1.9.9-1.9,1.9s1.2,2.2,2.4,1.9c.7-.2,1.2-.7,1.3-1.3.3-1.3-.6-2.4-1.9-2.4h0ZM-77.2,48.7c-2.1,0-4,.9-5.4,2.2-1.4,1.4-2.2,3.3-2.2,5.4s.9,4,2.2,5.4c1.4,1.4,3.3,2.2,5.4,2.2s4-.9,5.4-2.2c1.4-1.4,2.2-3.3,2.2-5.4s-.9-4-2.2-5.4-3.3-2.2-5.4-2.2ZM-74.1,59.5c-.8.8-1.9,1.3-3.2,1.3s-2.4-.5-3.2-1.3-1.3-2-1.3-3.2.5-2.4,1.3-3.2,2-1.3,3.2-1.3,2.4.5,3.2,1.3,1.3,2,1.3,3.2-.5,2.4-1.3,3.2ZM-77.2,10c-2.1,0-4,.9-5.4,2.2-1.4,1.4-2.2,3.3-2.2,5.4s.9,4,2.2,5.4c1.4,1.4,3.3,2.2,5.4,2.2s4-.9,5.4-2.2,2.2-3.3,2.2-5.4-.9-4-2.2-5.4c-1.4-1.4-3.3-2.2-5.4-2.2ZM-74.1,20.8c-.8.8-1.9,1.3-3.2,1.3s-2.4-.5-3.2-1.3c-.8-.8-1.3-2-1.3-3.2s.5-2.4,1.3-3.2,2-1.3,3.2-1.3,2.4.5,3.2,1.3,1.3,2,1.3,3.2-.5,2.4-1.3,3.2ZM-59.4,23.4h25.3c3.2,0,5.8-2.6,5.8-5.8s-2.6-5.8-5.8-5.8h-25.3c-3.2,0-5.8,2.6-5.8,5.8s2.6,5.8,5.8,5.8ZM-59.4,31.5h25.3c3.2,0,5.8,2.6,5.8,5.8h0c0,3.2-2.6,5.8-5.8,5.8h-25.3c-3.2,0-5.8-2.6-5.8-5.8h0c0-3.2,2.6-5.8,5.8-5.8ZM-34.1,50.5h-25.3c-3.2,0-5.8,2.6-5.8,5.8s2.6,5.8,5.8,5.8h25.3c3.2,0,5.8-2.6,5.8-5.8s-2.6-5.8-5.8-5.8Z"/>
  </g>
  <g>
    <rect class="st5" x="-186.2" y="93.1" width="73.1" height="73.1"/>
    <path class="st0" d="M-141.4,114.4c1.4.8,2.7,1.9,3.8,3.1s1.9,2.6,2.6,4.1h0c.3.9.6,1.7.8,2.6.5,2,.5,4.1.1,6.2-.2,1.1-.5,2.2-1,3.2h0c-.9,2.3-2.5,4.5-4,6.6-.8,1.1-1.5,2.1-2.2,3.2-.4.7-1.1,1-1.9,1l-12.2,1.8c-1,.2-2-.5-2.3-1.5-.3-.9-.7-1.7-1.1-2.6-.4-.7-.8-1.4-1.3-2-.6-.7-1.3-1.5-1.9-2.3-.7-1-1.3-2-1.8-3.1h0c-.5-1.1-.9-2.3-1.2-3.5s-.4-2.5-.4-3.7h0c0-1.3.2-2.6.5-3.9.4-1.4.9-2.7,1.5-3.9v-.2c.9-1.4,2-2.7,3.2-3.8,1.2-1.1,2.6-2,4.2-2.6h.1c1.1-.5,2.3-.8,3.5-1,1.3-.2,2.6-.2,3.9,0,1.3,0,2.5.4,3.7.8s2.4.9,3.5,1.5h-.1ZM-143.1,153c-.7,1.2-1.6,2.1-2.8,2.8-1,.6-2.1.9-3.2,1-1.1,0-2.3-.1-3.3-.6-.7-.4-1.4-.8-1.9-1.4l11.2-1.7h0ZM-142,146.8v2.4l-.2,1.1-13.5,2-.2-.5-.5-2.2v-.6l14.5-2.2h-.1ZM-150,104.1c0-.9.8-1.7,1.7-1.7h.1c.4,0,.8.2,1.1.5s.5.7.5,1.2h0v3.6h0c0,1-.8,1.7-1.7,1.7h-.1c-.4,0-.8-.2-1.1-.5s-.5-.8-.5-1.2h0v-3.6h0ZM-168.6,110.4c-.3-.3-.5-.7-.5-1.2,0-.9.7-1.7,1.6-1.8h0c.4,0,.9,0,1.2.4l2.7,2.5c.7.6.7,1.7,0,2.4-.3.3-.7.5-1.2.5s-.9,0-1.2-.4l-2.7-2.5h0ZM-173.1,129.1c-.9,0-1.7-.7-1.8-1.6h0c0-.4.1-.9.4-1.2.3-.3.7-.5,1.2-.5h3.7c.9-.2,1.7.6,1.8,1.5h0c0,.5-.2.9-.4,1.2-.3.3-.7.5-1.2.5h-3.7q0,.1,0,0ZM-126.3,123.9h0c.4,0,.8,0,1.2.4.3.3.6.7.6,1.1h0c0,1-.6,1.7-1.5,1.8l-3.7.4c-.9,0-1.8-.6-1.9-1.5,0-.9.6-1.8,1.5-1.9,1.2,0,2.5-.3,3.7-.4h.1ZM-133.6,109.1c.5-.8,1.6-1,2.3-.5h0c.4.2.6.6.7,1.1,0,.4,0,.9-.3,1.3l-2.1,3.1c-.5.8-1.6,1-2.4.5-.8-.5-1-1.6-.5-2.4h0l2.1-3.1h.2ZM-147.7,126.7h2.6c.4,0,.7.3.7.7h0c0,0,0,.3-.1.4l-6.2,10.6c-.2.3-.6.4-.9.2h0c-.2-.1-.4-.4-.3-.7l.9-6.5h-3.1c-.4,0-.7-.2-.7-.6h0v-.4l6.1-10.6c.2-.3.6-.4.9-.2.2,0,.4.4.3.7l-.3,6.5h.1Z"/>
  </g>
  <rect class="st9" y="93.1" width="73.1" height="73.1"/>
  <path class="st0" d="M44.8,114.4c1.4.8,2.7,1.9,3.8,3.1s1.9,2.6,2.6,4.1h0c.3.9.6,1.7.8,2.6.5,2,.5,4.1,0,6.2-.2,1.1-.5,2.2-1,3.2h0c-.9,2.3-2.5,4.5-4,6.6-.8,1.1-1.5,2.1-2.2,3.2-.4.7-1.1,1-1.9,1l-12.2,1.8c-1,.2-2-.5-2.3-1.5-.3-.9-.7-1.7-1.1-2.6-.4-.7-.8-1.4-1.3-2-.6-.7-1.3-1.5-1.9-2.3-.7-1-1.3-2-1.8-3.1h0c-.5-1.1-.9-2.3-1.2-3.5-.3-1.2-.4-2.5-.4-3.7h0c0-1.3.2-2.6.5-3.9.4-1.4.9-2.7,1.5-3.9v-.2c.9-1.4,2-2.7,3.2-3.8,1.2-1.1,2.6-2,4.2-2.6h.1c1.1-.5,2.3-.8,3.5-1,1.3-.2,2.6-.2,3.9,0,1.3,0,2.5.4,3.7.8s2.4.9,3.5,1.5h0ZM43.1,153c-.7,1.2-1.6,2.1-2.8,2.8-1,.6-2.1.9-3.2,1-1.1,0-2.3-.1-3.3-.6-.7-.4-1.4-.8-1.9-1.4l11.2-1.7h0ZM44.2,146.8v2.4l-.2,1.1-13.5,2-.2-.5-.5-2.2v-.6l14.5-2.2h0ZM36.2,104.1c0-.9.8-1.7,1.7-1.7h0c.4,0,.8.2,1.1.5s.5.7.5,1.2h0v3.6h0c0,1-.8,1.7-1.7,1.7h0c-.4,0-.8-.2-1.1-.5s-.5-.8-.5-1.2h0v-3.6h0ZM17.6,110.4c-.3-.3-.5-.7-.5-1.2,0-.9.7-1.7,1.6-1.8h0c.4,0,.9,0,1.2.4l2.7,2.5c.7.6.7,1.7,0,2.4-.3.3-.7.5-1.2.5s-.9,0-1.2-.4l-2.7-2.5h.1ZM13.1,129.1c-.9,0-1.7-.7-1.8-1.6h0c0-.4.1-.9.4-1.2.3-.3.7-.5,1.2-.5h3.7c.9-.2,1.7.6,1.8,1.5h0c0,.5-.2.9-.4,1.2-.3.3-.7.5-1.2.5h-3.7q0,.1,0,0ZM59.9,123.9h0c.4,0,.8,0,1.2.4.3.3.6.7.6,1.1h0c0,1-.6,1.7-1.5,1.8l-3.7.4c-.9,0-1.8-.6-1.9-1.5,0-.9.6-1.8,1.5-1.9,1.2,0,2.5-.3,3.7-.4h.1ZM52.6,109.1c.5-.8,1.6-1,2.3-.5h0c.4.2.6.6.7,1.1,0,.4,0,.9-.3,1.3l-2.1,3.1c-.5.8-1.6,1-2.4.5-.8-.5-1-1.6-.5-2.4h0l2.1-3.1h.2ZM38.5,126.7h2.6c.4,0,.7.3.7.7h0c0,0,0,.3,0,.4l-6.2,10.6c-.2.3-.6.4-.9.2h0c-.2-.1-.4-.4-.3-.7l.9-6.5h-3.1c-.4,0-.7-.2-.7-.6h0v-.4l6.1-10.6c.2-.3.6-.4.9-.2.2,0,.4.4.3.7l-.3,6.5h0Z"/>
  <path class="st2" d="M-48.3,114.4c1.4.8,2.7,1.9,3.8,3.1s1.9,2.6,2.6,4.1h0c.3.9.6,1.7.8,2.6.5,2,.5,4.1,0,6.2-.2,1.1-.5,2.2-1,3.2h0c-.9,2.3-2.5,4.5-4,6.6-.8,1.1-1.5,2.1-2.2,3.2-.4.7-1.1,1-1.9,1l-12.2,1.8c-1,.2-2-.5-2.3-1.5-.3-.9-.7-1.7-1.1-2.6-.4-.7-.8-1.4-1.3-2-.6-.7-1.3-1.5-1.9-2.3-.7-1-1.3-2-1.8-3.1h0c-.5-1.1-.9-2.3-1.2-3.5-.3-1.2-.4-2.5-.4-3.7h0c0-1.3.2-2.6.5-3.9.4-1.4.9-2.7,1.5-3.9v-.2c.9-1.4,2-2.7,3.2-3.8,1.2-1.1,2.6-2,4.2-2.6h0c1.1-.5,2.3-.8,3.5-1,1.3-.2,2.6-.2,3.9,0,1.3,0,2.5.4,3.7.8s2.4.9,3.5,1.5h0ZM-50,153c-.7,1.2-1.6,2.1-2.8,2.8-1,.6-2.1.9-3.2,1-1.1,0-2.3-.1-3.3-.6-.7-.4-1.4-.8-1.9-1.4l11.2-1.7h0ZM-48.9,146.8v2.4l-.2,1.1-13.5,2-.2-.5-.5-2.2v-.6l14.5-2.2h0ZM-56.9,104.1c0-.9.8-1.7,1.7-1.7h0c.4,0,.8.2,1.1.5s.5.7.5,1.2h0v3.6h0c0,1-.8,1.7-1.7,1.7h0c-.4,0-.8-.2-1.1-.5s-.5-.8-.5-1.2h0v-3.6h0ZM-75.5,110.4c-.3-.3-.5-.7-.5-1.2,0-.9.7-1.7,1.6-1.8h0c.4,0,.9,0,1.2.4l2.7,2.5c.7.6.7,1.7,0,2.4-.3.3-.7.5-1.2.5s-.9,0-1.2-.4l-2.7-2.5h0ZM-80,129.1c-.9,0-1.7-.7-1.8-1.6h0c0-.4,0-.9.4-1.2.3-.3.7-.5,1.2-.5h3.7c.9-.2,1.7.6,1.8,1.5h0c0,.5-.2.9-.4,1.2-.3.3-.7.5-1.2.5h-3.7q0,.1,0,0ZM-33.2,123.9h0c.4,0,.8,0,1.2.4.3.3.6.7.6,1.1h0c0,1-.6,1.7-1.5,1.8l-3.7.4c-.9,0-1.8-.6-1.9-1.5,0-.9.6-1.8,1.5-1.9,1.2,0,2.5-.3,3.7-.4h.1ZM-40.5,109.1c.5-.8,1.6-1,2.3-.5h0c.4.2.6.6.7,1.1,0,.4,0,.9-.3,1.3l-2.1,3.1c-.5.8-1.6,1-2.4.5-.8-.5-1-1.6-.5-2.4h0l2.1-3.1h.2ZM-54.6,126.7h2.6c.4,0,.7.3.7.7h0c0,0,0,.3,0,.4l-6.2,10.6c-.2.3-.6.4-.9.2h0c-.2-.1-.4-.4-.3-.7l.9-6.5h-3.1c-.4,0-.7-.2-.7-.6h0v-.4l6.1-10.6c.2-.3.6-.4.9-.2.2,0,.4.4.3.7l-.3,6.5h0Z"/>
  <path d="M167.6,209.4v-14.8c0,0-1.6,0-1.6,0v18.8c2.3-.6,4.6-1,6.9-1,2.1,0,4.3.3,6.4,1-1.3-1.1-2.8-1.9-4.4-2.4-2-.7-4.2-.9-6.4-.7-.5,0-.9-.3-1-.8,0,0,0-.1,0-.2h0ZM170.2,184.8c-.2,0-.4,0-.5-.2-.1-.1-.2-.3-.2-.5,0-.2,0-.4.2-.6.1-.1.3-.2.5-.2h1.7c.2,0,.4,0,.6.2.1.1.2.3.2.5h0s0,0,0,0h0c0,.2,0,.4-.2.5-.1.1-.3.2-.5.2h0s0,0,0,0h-1.7ZM180.6,173.3c0-.2,0-.4.2-.5.1-.1.3-.2.5-.2h0s0,0,0,0c.2,0,.4.1.5.2.1.1.2.3.2.5h0s0,0,0,0v1.7s0,0,0,0c0,0,0,0,0,0,0,.2-.1.4-.2.5-.1.1-.3.2-.5.2h0s0,0,0,0c-.2,0-.4-.1-.5-.2-.1-.1-.2-.3-.2-.5h0s0,0,0,0v-1.7h0ZM187.9,175.6c.1-.2.3-.3.5-.3.2,0,.4,0,.6.1h0c.2.1.3.3.3.5s0,.4-.1.6l-.9,1.4c-.1.2-.3.3-.5.3s-.4,0-.6-.1-.3-.3-.3-.5c0-.2,0-.4.1-.6l.9-1.4h0ZM191.2,182.4h0c.2,0,.4,0,.5.2.2.1.3.3.3.5h0c0,.2,0,.4-.2.6-.1.2-.3.3-.5.3l-1.7.2c-.2,0-.4,0-.6-.2-.2-.1-.3-.3-.3-.5,0-.2,0-.4.2-.6.1-.2.3-.3.5-.3.6,0,1.1-.1,1.7-.2h0ZM172.2,176.2c-.2-.1-.2-.3-.2-.5,0-.2,0-.4.2-.6.1-.2.3-.2.5-.2.2,0,.4,0,.6.2l1.2,1.2c.2.1.2.3.2.5,0,.2,0,.4-.2.6s-.3.2-.5.2c-.2,0-.4,0-.6-.2l-1.2-1.2h0ZM176.1,190.7c-.3-.3-.6-.7-.9-1.1-.3-.4-.6-.9-.8-1.4h0c-.2-.5-.4-1.1-.6-1.6-.1-.6-.2-1.1-.2-1.7,0-.6,0-1.2.2-1.8.2-.6.4-1.2.7-1.8h0c.4-.7.9-1.3,1.4-1.8.6-.5,1.2-.9,1.9-1.2h0c.5-.2,1.1-.4,1.6-.4.6,0,1.2,0,1.8,0,.6,0,1.1.2,1.7.3.6.2,1.1.4,1.6.7.6.4,1.2.9,1.7,1.4.5.5.9,1.2,1.2,1.8.2.4.3.8.4,1.2,0,.4.2.9.2,1.3,0,.5,0,1-.1,1.5,0,.5-.2,1-.4,1.5,0,0,0,0,0,.1l-2.9,4.5c-.1.2-.3.3-.4.3l-6,.9c-.3,0-.6-.2-.7-.5-.2-.4-.3-.9-.6-1.3-.2-.4-.4-.7-.7-1h0ZM176.2,188.9c.3.4.5.7.8,1,.3.4.6.8.8,1.2.2.3.3.7.5,1l5.2-.8,2.7-4.2c.2-.4.3-.8.3-1.2,0-.4.1-.8,0-1.2h0c0-.4,0-.7-.1-1.1,0-.3-.2-.7-.3-1-.2-.6-.5-1.1-.9-1.5-.4-.5-.9-.8-1.4-1.2-.4-.2-.9-.4-1.3-.6-.5-.1-.9-.2-1.4-.3-.5,0-1,0-1.5,0-.5,0-.9.2-1.3.3h0c-.6.2-1.1.6-1.5,1-.4.4-.8.8-1.2,1.4h0c-.3.5-.5,1-.6,1.5-.1.5-.2,1-.2,1.4,0,.5,0,.9.2,1.4s.3.9.5,1.4h0c.2.5.4.8.7,1.2h0ZM182.2,199.7c-.4.2-.9.4-1.3.4-.5,0-.9,0-1.3-.3-2.1-1-1.5-3.3-1.9-5.2l6.3-.9h0c-.4,2.1.5,4.7-1.8,6h0ZM192.1,193.9s0,0,0-.1,0,0,0-.1v-3c-.9,0-1.5,0-2.4,0,.2-.6.4-1.2.7-1.9,1,0,1.8,0,2.8.2.5,0,.8.5.8.9h0v3h2.5c.5,0,.9.4.9.9v20.9c0,.5-.4.9-.9.9s-.2,0-.3,0c-2.5-.7-5-1.2-7.5-1.2-2.4,0-4.9.4-7.3,1.5-.2,0-.3.2-.5.2-.2,0-.4,0-.5-.2-2.4-1.1-4.9-1.5-7.3-1.5-2.5,0-5,.5-7.5,1.2,0,0-.2,0-.3,0-.5,0-.9-.4-.9-.9v-20.9c0-.5.4-.9.9-.9h2.6v-3c0-.4.3-.8.7-.9h0c.9-.2,1.6-.3,2.6-.3.1.4.3.7.5,1.1.1.3.2.5.4.7-.9,0-1.5,0-2.3,0v18c2,0,4.1.2,6,.8,1.5.5,3,1.2,4.3,2.2h0v-8.9l1.8-.3v9.3c1.5-1,3.1-1.9,4.7-2.5,1.8-.7,3.7-1,5.7-.8v-14.6h0ZM182.5,213.3c2-.6,4-.9,6-.9,2.3,0,4.6.4,6.9,1v-18.8h-1.6v14.9c0,.5-.4.9-.9.9s-.1,0-.2,0c-2-.3-3.9,0-5.8.6-1.5.5-3,1.4-4.5,2.3h0Z"/>
  <g>
    <rect class="st6" x="-186.2" y="174.7" width="73.1" height="73.1"/>
    <path class="st1" d="M-123.1,195.8h-4.3v-5.3c0-.8-.6-1.4-1.4-1.6-4.6-.7-9.4-.3-13.7,1.3-3.1,1.2-5.8,3-7.9,5.5-2-2.7-4.8-4.6-7.9-5.7-4.4-1.7-9.5-1.9-13.7-1-.7.2-1.3.8-1.3,1.5v5.3h-4.5c-.9,0-1.6.7-1.6,1.6v36.4c0,.9.7,1.6,1.6,1.6.2,0,.4,0,.5,0,4.4-1.3,8.8-2.1,13.1-2.1,4.2,0,8.5.7,12.7,2.6.3.2.6.3.9.3.3,0,.6,0,.9-.3,4.2-1.9,8.5-2.6,12.7-2.6,4.3,0,8.7.9,13.1,2.1.2,0,.3,0,.5,0,.9,0,1.6-.7,1.6-1.6v-36.4c0-.9-.7-1.6-1.6-1.6ZM-140.6,209.9h0c.2,0,.3,0,.5.2.1.1.2.3.2.5,0,.4-.2.7-.6.7l-1.5.2c-.4,0-.7-.2-.8-.6,0-.4.2-.7.6-.8.5,0,1-.1,1.5-.2ZM-144.6,205l.9-1.3h0c.2-.3.7-.4,1-.2.2,0,.2.2.3.5,0,.2,0,.4-.1.5l-.9,1.3c-.2.3-.7.4-1,.2s-.4-.7-.2-1ZM-150.4,201.7c0-.4.3-.7.7-.7h0c.2,0,.3,0,.5.2.1.1.2.3.2.5v1.5h0c0,.4-.3.7-.7.7h0c-.2,0-.3,0-.5-.2-.1-.1-.2-.3-.2-.5v-1.5ZM-152.9,205.4h0c.5-.2,1-.3,1.5-.4.5,0,1.1,0,1.6,0,.5,0,1,.2,1.5.3s1,.4,1.5.6h0c.6.3,1.1.8,1.6,1.3.5.5.8,1.1,1.1,1.7.1.4.2.7.3,1.1.2.8.2,1.7,0,2.6,0,.5-.2.9-.4,1.3-.4,1-1,1.9-1.7,2.7-.3.5-.6.9-.9,1.3-.2.3-.5.4-.8.4l-5.1.7c-.4,0-.8-.2-1-.6-.1-.4-.3-.7-.5-1.1-.2-.3-.3-.6-.5-.8-.2-.3-.5-.6-.8-1-.3-.4-.5-.8-.7-1.3-.2-.5-.4-1-.5-1.5-.1-.5-.2-1-.2-1.5s0-1.1.2-1.6c.2-.6.4-1.1.6-1.6h0c.4-.7.8-1.2,1.3-1.7.5-.5,1.1-.8,1.7-1.1ZM-157.7,203c.2,0,.4,0,.5.2l1.1,1c.3.2.3.7,0,1s-.3.2-.5.2-.4,0-.5-.2l-1.1-1s0,0,0,0h0s0,0,0,0c-.1-.1-.2-.3-.2-.5,0-.4.3-.7.7-.7ZM-160.6,210.9c.1-.1.3-.2.5-.2h1.5c.4,0,.7.2.7.6,0,.2,0,.4-.2.5-.1.1-.3.2-.5.2h-1.5c-.4,0-.7-.2-.7-.6,0-.2,0-.4.2-.5ZM-163.9,230.1c-4,0-8.1.7-12.1,1.7v-32.8h2.9v25.8c-.2,0-.2.2-.1.3,0,.9.8,1.5,1.7,1.4,3.9-.3,7.6,0,11.1,1.2,2.8.9,5.4,2.3,7.7,4.2-3.7-1.3-7.5-1.8-11.2-1.8ZM-147.6,222.1h0c-.3.5-.6.8-1.1,1.1-.4.2-.9.4-1.3.4-.5,0-1,0-1.4-.2-.3-.2-.6-.3-.8-.6l4.6-.7s0,0,0,0h0ZM-152.8,221.7v-.2c0,0-.3-.9-.3-.9v-.2l6-.9h0s0,0,0,0h0v1.5c0,0-5.7.8-5.7.8ZM-124.6,231.8c-4-1-8-1.7-12.1-1.7-3.5,0-7,.4-10.5,1.5,2.6-1.7,5.1-3.1,7.8-4.1,3.3-1.2,6.6-1.6,10.1-1.1.1,0,.2,0,.4,0,.9,0,1.6-.7,1.6-1.6v-25.9h2.7v32.8Z"/>
  </g>
  <rect class="st8" x="-.7" y="174.7" width="73.1" height="73.1"/>
  <path class="st1" d="M62.4,195.8h-4.3v-5.3c0-.8-.6-1.4-1.4-1.6-4.6-.7-9.4-.3-13.7,1.3-3.1,1.2-5.8,3-7.9,5.5-2-2.7-4.8-4.6-7.9-5.7-4.4-1.7-9.5-1.9-13.7-1-.7.2-1.3.8-1.3,1.5v5.3h-4.5c-.9,0-1.6.7-1.6,1.6v36.4c0,.9.7,1.6,1.6,1.6.2,0,.4,0,.5,0,4.4-1.3,8.8-2.1,13.1-2.1,4.2,0,8.5.7,12.7,2.6.3.2.6.3.9.3.3,0,.6,0,.9-.3,4.2-1.9,8.5-2.6,12.7-2.6,4.3,0,8.7.9,13.1,2.1.2,0,.3,0,.5,0,.9,0,1.6-.7,1.6-1.6v-36.4c0-.9-.7-1.6-1.6-1.6ZM44.9,209.9h0c.2,0,.3,0,.5.2.1.1.2.3.2.5,0,.4-.2.7-.6.7l-1.5.2c-.4,0-.7-.2-.8-.6,0-.4.2-.7.6-.8.5,0,1-.1,1.5-.2ZM40.9,205l.9-1.3h0c.2-.3.7-.4,1-.2.2,0,.2.2.3.5,0,.2,0,.4-.1.5l-.9,1.3c-.2.3-.7.4-1,.2s-.4-.7-.2-1ZM35.1,201.7c0-.4.3-.7.7-.7h0c.2,0,.3,0,.5.2.1.1.2.3.2.5v1.5h0c0,.4-.3.7-.7.7h0c-.2,0-.3,0-.5-.2-.1-.1-.2-.3-.2-.5v-1.5ZM32.6,205.4h0c.5-.2,1-.3,1.5-.4.5,0,1.1,0,1.6,0,.5,0,1,.2,1.5.3s1,.4,1.5.6h0c.6.3,1.1.8,1.6,1.3.5.5.8,1.1,1.1,1.7.1.4.2.7.3,1.1.2.8.2,1.7,0,2.6,0,.5-.2.9-.4,1.3-.4,1-1,1.9-1.7,2.7-.3.5-.6.9-.9,1.3-.2.3-.5.4-.8.4l-5.1.7c-.4,0-.8-.2-1-.6-.1-.4-.3-.7-.5-1.1-.2-.3-.3-.6-.5-.8-.2-.3-.5-.6-.8-1-.3-.4-.5-.8-.7-1.3-.2-.5-.4-1-.5-1.5-.1-.5-.2-1-.2-1.5s0-1.1.2-1.6c.2-.6.4-1.1.6-1.6h0c.4-.7.8-1.2,1.3-1.7.5-.5,1.1-.8,1.7-1.1ZM27.8,203c.2,0,.4,0,.5.2l1.1,1c.3.2.3.7,0,1s-.3.2-.5.2-.4,0-.5-.2l-1.1-1s0,0,0,0h0s0,0,0,0c-.1-.1-.2-.3-.2-.5,0-.4.3-.7.7-.7ZM24.9,210.9c.1-.1.3-.2.5-.2h1.5c.4,0,.7.2.7.6,0,.2,0,.4-.2.5-.1.1-.3.2-.5.2h-1.5c-.4,0-.7-.2-.7-.6,0-.2,0-.4.2-.5ZM21.6,230.1c-4,0-8.1.7-12.1,1.7v-32.8h2.9v25.8c-.2,0-.2.2-.1.3,0,.9.8,1.5,1.7,1.4,3.9-.3,7.6,0,11.1,1.2,2.8.9,5.4,2.3,7.7,4.2-3.7-1.3-7.5-1.8-11.2-1.8ZM37.9,222.1h0c-.3.5-.6.8-1.1,1.1-.4.2-.9.4-1.3.4-.5,0-1,0-1.4-.2-.3-.2-.6-.3-.8-.6l4.6-.7s0,0,0,0h0ZM32.7,221.7v-.2c0,0-.3-.9-.3-.9v-.2l6-.9h0s0,0,0,0h0v1.5c0,0-5.7.8-5.7.8ZM60.9,231.8c-4-1-8-1.7-12.1-1.7-3.5,0-7,.4-10.5,1.5,2.6-1.7,5.1-3.1,7.8-4.1,3.3-1.2,6.6-1.6,10.1-1.1.1,0,.2,0,.4,0,.9,0,1.6-.7,1.6-1.6v-25.9h2.7v32.8Z"/>
  <path class="st7" d="M-29.7,195.8h-4.3v-5.3c0-.8-.6-1.4-1.4-1.6-4.6-.7-9.4-.3-13.7,1.3-3.1,1.2-5.8,3-7.9,5.5-2-2.7-4.8-4.6-7.9-5.7-4.4-1.7-9.5-1.9-13.7-1-.7.2-1.3.8-1.3,1.5v5.3h-4.5c-.9,0-1.6.7-1.6,1.6v36.4c0,.9.7,1.6,1.6,1.6.2,0,.4,0,.5,0,4.4-1.3,8.8-2.1,13.1-2.1,4.2,0,8.5.7,12.7,2.6.3.2.6.3.9.3.3,0,.6,0,.9-.3,4.2-1.9,8.5-2.6,12.7-2.6,4.3,0,8.7.9,13.1,2.1.2,0,.3,0,.5,0,.9,0,1.6-.7,1.6-1.6v-36.4c0-.9-.7-1.6-1.6-1.6ZM-47.2,209.9h0c.2,0,.3,0,.5.2.1.1.2.3.2.5,0,.4-.2.7-.6.7l-1.5.2c-.4,0-.7-.2-.8-.6,0-.4.2-.7.6-.8.5,0,1-.1,1.5-.2ZM-51.2,205l.9-1.3h0c.2-.3.7-.4,1-.2.2,0,.2.2.3.5,0,.2,0,.4-.1.5l-.9,1.3c-.2.3-.7.4-1,.2s-.4-.7-.2-1ZM-57,201.7c0-.4.3-.7.7-.7h0c.2,0,.3,0,.5.2.1.1.2.3.2.5v1.5h0c0,.4-.3.7-.7.7h0c-.2,0-.3,0-.5-.2-.1-.1-.2-.3-.2-.5v-1.5ZM-59.5,205.4h0c.5-.2,1-.3,1.5-.4.5,0,1.1,0,1.6,0,.5,0,1,.2,1.5.3s1,.4,1.5.6h0c.6.3,1.1.8,1.6,1.3.5.5.8,1.1,1.1,1.7.1.4.2.7.3,1.1.2.8.2,1.7,0,2.6,0,.5-.2.9-.4,1.3-.4,1-1,1.9-1.7,2.7-.3.5-.6.9-.9,1.3-.2.3-.5.4-.8.4l-5.1.7c-.4,0-.8-.2-1-.6-.1-.4-.3-.7-.5-1.1-.2-.3-.3-.6-.5-.8-.2-.3-.5-.6-.8-1-.3-.4-.5-.8-.7-1.3-.2-.5-.4-1-.5-1.5-.1-.5-.2-1-.2-1.5s0-1.1.2-1.6c.2-.6.4-1.1.6-1.6h0c.4-.7.8-1.2,1.3-1.7.5-.5,1.1-.8,1.7-1.1ZM-64.3,203c.2,0,.4,0,.5.2l1.1,1c.3.2.3.7,0,1s-.3.2-.5.2-.4,0-.5-.2l-1.1-1s0,0,0,0h0s0,0,0,0c-.1-.1-.2-.3-.2-.5,0-.4.3-.7.7-.7ZM-67.2,210.9c.1-.1.3-.2.5-.2h1.5c.4,0,.7.2.7.6,0,.2,0,.4-.2.5-.1.1-.3.2-.5.2h-1.5c-.4,0-.7-.2-.7-.6,0-.2,0-.4.2-.5ZM-70.5,230.1c-4,0-8.1.7-12.1,1.7v-32.8h2.9v25.8c-.2,0-.2.2-.1.3,0,.9.8,1.5,1.7,1.4,3.9-.3,7.6,0,11.1,1.2,2.8.9,5.4,2.3,7.7,4.2-3.7-1.3-7.5-1.8-11.2-1.8ZM-54.2,222.1h0c-.3.5-.6.8-1.1,1.1-.4.2-.9.4-1.3.4-.5,0-1,0-1.4-.2-.3-.2-.6-.3-.8-.6l4.6-.7s0,0,0,0h0ZM-59.4,221.7v-.2c0,0-.3-.9-.3-.9v-.2l6-.9h0s0,0,0,0h0v1.5c0,0-5.7.8-5.7.8ZM-31.2,231.8c-4-1-8-1.7-12.1-1.7-3.5,0-7,.4-10.5,1.5,2.6-1.7,5.1-3.1,7.8-4.1,3.3-1.2,6.6-1.6,10.1-1.1.1,0,.2,0,.4,0,.9,0,1.6-.7,1.6-1.6v-25.9h2.7v32.8Z"/>
</svg>