<svg viewBox="0 0 1024 1024" width="1024" height="1024" version="1.1" xmlns="http://www.w3.org/2000/svg" desc="Created with imagetracer.js version 1.2.6" ><path fill="rgb(0,0,0)" stroke="rgb(0,0,0)" stroke-width="1" opacity="0" d="M 0 0 L 1024 0 L 1024 1024 L 0 1024 L 0 0 Z M 510 199 L 499 201 L 490 205 L 294 313 L 253 337 Q 243 345 240 360 L 240 545 L 225 557 L 196 586 L 188 597 L 185 599 L 185 601 Q 174 613 167 629 L 162 643 L 160 653 L 161 672 Q 164 683 171 691 L 178 697 L 193 706 Q 208 713 229 714 L 231 716 L 232 715 L 242 715 L 245 716 L 284 714 L 285 713 L 297 712 L 320 706 L 288 701 L 262 694 L 242 685 L 231 677 Q 220 668 217 653 L 217 644 L 221 630 L 240 602 L 240 637 Q 242 646 247 652 L 254 658 L 276 671 L 396 737 L 485 788 L 497 794 L 505 796 L 521 796 L 539 788 L 772 658 Q 782 651 785 636 L 785 482 L 785 480 L 786 394 L 797 399 L 803 404 Q 805 403 804 406 L 806 407 L 804 408 L 807 408 L 812 416 Q 811 420 813 422 L 813 434 L 812 435 Q 810 439 815 438 L 816 438 L 813 440 L 820 440 L 812 456 L 795 476 Q 792 475 793 478 L 790 479 L 787 485 L 805 477 L 833 455 Q 850 439 863 419 L 869 407 L 872 395 L 872 383 L 866 369 Q 858 358 845 354 L 847 353 L 847 352 L 844 353 Q 830 347 811 346 L 811 344 L 809 345 L 786 344 L 783 343 L 540 208 L 523 200 L 510 199 Z M 815 344 L 815 345 L 818 345 L 815 344 Z M 787 396 L 786 398 L 788 399 L 787 396 Z M 809 412 L 809 417 L 810 417 L 809 412 Z M 794 472 L 794 473 L 796 473 L 794 472 Z " /><path fill="rgb(0,0,0)" stroke="rgb(0,0,0)" stroke-width="1" opacity="0" d="M 819.5 437 L 822 437.5 L 819.5 438 L 819.5 437 Z " /><path fill="rgb(252,254,254)" stroke="rgb(252,254,254)" stroke-width="1" opacity="0.996078431372549" d="M 462.5 301 L 561.5 301 L 562 302.5 L 693 630 L 601.5 630 L 600 628.5 L 580 575 L 447.5 575 L 446 576.5 L 427 630 L 340 629.5 L 391 489.5 L 403 460.5 L 443 350.5 L 462.5 301 Z M 512 394 L 468 510 L 468 513 L 470 512 L 473 513 L 555 513 L 557 513 L 555 505 L 512 394 Z " /><path fill="rgb(252,254,254)" stroke="rgb(252,254,254)" stroke-width="1" opacity="0.996078431372549" d="M 723.5 364 L 765.5 364 L 766.5 365 L 774.5 365 L 775.5 366 L 786.5 367 Q 800.5 370 811.5 376 L 825 387.5 L 831 401.5 L 831 415.5 Q 828.7 428.2 822.5 437 Q 821.2 434.8 816.5 436 L 813.5 437 L 814 435.5 Q 816 420 812 410.5 Q 807.8 400.2 799.5 394 L 789.5 388 L 769.5 382 L 756.5 381 L 755.5 380 L 718.5 380 L 717.5 381 L 706.5 381 L 705.5 382 L 689.5 383 L 688.5 384 L 671.5 386 L 671.5 385 L 722 378.5 L 712 377.5 L 714.5 376 L 716.5 377 L 723 376 Q 724.1 373.3 721.5 374 L 719 370.5 L 720.5 371 Q 723.8 372.1 723 369.5 L 720 367.5 L 727 366.5 L 715.5 366 L 714.5 367 L 705.5 367 L 704.5 368 L 683.5 370 L 653.5 376 L 653.5 375 L 682.5 369 L 688.5 369 L 703.5 366 L 711.5 366 L 712.5 365 L 722.5 365 L 723.5 364 Z M 732 365 L 732 366 L 744 366 L 732 365 Z " /><path fill="rgb(252,254,254)" stroke="rgb(252,254,254)" stroke-width="1" opacity="0.996078431372549" d="M 648.5 376 L 652 376.5 L 620.5 384 L 620.5 383 L 648.5 376 Z " /><path fill="rgb(252,254,254)" stroke="rgb(252,254,254)" stroke-width="1" opacity="0.996078431372549" d="M 616.5 384 L 619 384.5 L 616.5 385 L 616.5 384 Z " /><path fill="rgb(252,254,254)" stroke="rgb(252,254,254)" stroke-width="1" opacity="0.996078431372549" d="M 612.5 385 L 615 385.5 L 612.5 386 L 612.5 385 Z " /><path fill="rgb(252,254,254)" stroke="rgb(252,254,254)" stroke-width="1" opacity="0.996078431372549" d="M 608.5 386 L 611 386.5 L 608.5 387 L 608.5 386 Z " /><path fill="rgb(252,254,254)" stroke="rgb(252,254,254)" stroke-width="1" opacity="0.996078431372549" d="M 660.5 388 L 665 388.5 L 633.5 394 L 633.5 393 L 660.5 388 Z " /><path fill="rgb(252,254,254)" stroke="rgb(252,254,254)" stroke-width="1" opacity="0.996078431372549" d="M 628.5 394 L 632 394.5 L 628.5 395 L 628.5 394 Z " /><path fill="rgb(252,254,254)" stroke="rgb(252,254,254)" stroke-width="1" opacity="0.996078431372549" d="M 623.5 395 L 627 395.5 L 619.5 397 L 619.5 396 L 623.5 395 Z " /><path fill="rgb(252,254,254)" stroke="rgb(252,254,254)" stroke-width="1" opacity="0.996078431372549" d="M 614.5 397 L 618 397.5 L 614.5 398 L 614.5 397 Z " /><path fill="rgb(252,254,254)" stroke="rgb(252,254,254)" stroke-width="1" opacity="0.996078431372549" d="M 609.5 398 L 613 398.5 L 603.5 401 L 603.5 400 L 609.5 398 Z " /><path fill="rgb(252,254,254)" stroke="rgb(252,254,254)" stroke-width="1" opacity="0.996078431372549" d="M 800.5 403 L 803 403.5 Q 800.9 406.8 800.5 403 Z " /><path fill="rgb(252,254,254)" stroke="rgb(252,254,254)" stroke-width="1" opacity="0.996078431372549" d="M 806.5 407 L 808.5 410 L 806.5 407 Z " /><path fill="rgb(252,254,254)" stroke="rgb(252,254,254)" stroke-width="1" opacity="0.996078431372549" d="M 808.5 414 Q 811.1 413.2 810 416.5 L 809 416.5 L 808.5 414 Z " /><path fill="rgb(252,254,254)" stroke="rgb(252,254,254)" stroke-width="1" opacity="0.996078431372549" d="M 812.5 419 L 813 420.5 L 811 421.5 L 812.5 419 Z " /><path fill="rgb(252,254,254)" stroke="rgb(252,254,254)" stroke-width="1" opacity="0.996078431372549" d="M 815.5 438 L 816 440 L 814 439.5 L 815.5 438 Z " /><path fill="rgb(33,125,207)" stroke="rgb(33,125,207)" stroke-width="1" opacity="0.9607843137254902" d="M 783.5 343 L 785.5 345 L 806 345.5 L 784 346 L 783.5 343 Z " /><path fill="rgb(33,125,207)" stroke="rgb(33,125,207)" stroke-width="1" opacity="0.9607843137254902" d="M 760.5 345 L 765 345.5 L 760.5 346 L 760.5 345 Z " /><path fill="rgb(33,125,207)" stroke="rgb(33,125,207)" stroke-width="1" opacity="0.9607843137254902" d="M 747.5 346 L 750 346.5 L 747.5 347 L 747.5 346 Z " /><path fill="rgb(33,125,207)" stroke="rgb(33,125,207)" stroke-width="1" opacity="0.9607843137254902" d="M 807.5 346 L 813 346.5 L 807.5 347 L 807.5 346 Z " /><path fill="rgb(33,125,207)" stroke="rgb(33,125,207)" stroke-width="1" opacity="0.9607843137254902" d="M 815.5 347 Q 831.8 347.8 843 353.5 L 841.5 354 L 825.5 349 L 815.5 348 L 815.5 347 Z " /><path fill="rgb(33,125,207)" stroke="rgb(33,125,207)" stroke-width="1" opacity="0.9607843137254902" d="M 745.5 348 L 752 348.5 L 745.5 349 L 745.5 348 Z " /><path fill="rgb(33,125,207)" stroke="rgb(33,125,207)" stroke-width="1" opacity="0.9607843137254902" d="M 736.5 349 L 744 349.5 L 729.5 351 L 728 352.5 L 730.5 356 Q 731.7 353.8 733 356.5 L 731 356.5 L 730 360 L 734 360.5 L 725 361.5 L 761.5 362 L 762.5 363 L 771.5 363 L 772.5 364 L 789.5 366 L 799.5 369 L 814.5 376 L 825 385.5 Q 833.7 394.3 833 412.5 L 829 427.5 L 824.5 436 L 824 434.5 Q 831.8 423.8 832 405.5 L 828 391.5 L 816.5 379 Q 803 369.5 783.5 366 L 770.5 365 L 769.5 364 L 757.5 364 L 756.5 363 L 733.5 363 L 732.5 364 L 717.5 364 L 716.5 365 L 699.5 366 L 656.5 374 L 655 373.5 Q 655.9 376.5 651.5 375 L 648.5 376 L 646 375 Q 647.3 378.3 642.5 377 L 632.5 380 L 630 379 Q 631.1 381.7 628.5 381 L 626.5 380 L 623.5 382 L 622 381.5 Q 622.8 384.1 619.5 383 L 618 382.5 Q 618.8 385.1 615.5 384 L 614 383.5 Q 614.8 386.1 611.5 385 L 610 384.5 Q 610.8 386.8 608.5 386 Q 607 383.5 605.5 387 L 603.5 386 L 603 388 Q 599.2 387 598 389.5 L 601 396.5 L 600 396.5 L 597 389.5 L 598 387.5 L 596 387.5 L 597 384.5 L 595 381.5 L 597.5 380 L 599 380.5 Q 598.3 378.3 600.5 379 L 602 379.5 Q 601.3 377.3 603.5 378 L 605 378.5 Q 604.3 376.3 606.5 377 L 608 377.5 Q 607.3 375.3 609.5 376 L 611.5 377 L 611.5 375 L 615.5 374 L 618 375 Q 616.9 372.3 619.5 373 L 621 373.5 Q 620.3 371.3 622.5 372 L 625 373 Q 623.9 370.3 626.5 371 L 628 371.5 Q 627.3 369.3 629.5 370 L 631.5 371 L 631.5 369 L 635 370 Q 633.9 367.3 636.5 368 L 639 369 L 639.5 367 L 643.5 368 L 643.5 367 L 642 366.5 L 643.5 366 L 647.5 367 L 647.5 366 L 646 365.5 L 647.5 365 L 650.5 366 L 650.5 364 L 654.5 365 L 654.5 363 L 658.5 364 L 658.5 362 L 663.5 363 L 663.5 362 L 662 361.5 L 663.5 361 L 667.5 362 L 667.5 361 L 666 360.5 L 667.5 360 L 672.5 361 L 672.5 360 L 671 359.5 L 672.5 359 L 676.5 360 L 676.5 359 L 675 358.5 L 676.5 358 L 681.5 359 L 681.5 358 L 680 357.5 L 681.5 357 L 686.5 358 L 708.5 353 L 735.5 350 L 736.5 349 Z M 715 362 L 715 363 L 724 363 L 715 362 Z M 709 363 L 709 364 L 711 364 L 709 363 Z " /><path fill="rgb(33,125,207)" stroke="rgb(33,125,207)" stroke-width="1" opacity="0.9607843137254902" d="M 731.5 353 L 733.5 354 L 735 353.5 Q 733.8 356.3 732.5 354 L 731.5 353 Z " /><path fill="rgb(33,125,207)" stroke="rgb(33,125,207)" stroke-width="1" opacity="0.9607843137254902" d="M 844.5 354 Q 858 359 866 369.5 L 869 375.5 L 868 375.5 Q 864.8 366.8 857.5 362 L 844.5 355 L 844.5 354 Z " /><path fill="rgb(33,125,207)" stroke="rgb(33,125,207)" stroke-width="1" opacity="0.9607843137254902" d="M 726.5 380 L 750 380.5 L 726.5 381 L 726.5 380 Z " /><path fill="rgb(33,125,207)" stroke="rgb(33,125,207)" stroke-width="1" opacity="0.9607843137254902" d="M 711.5 381 L 724 381.5 L 687.5 385 L 687.5 384 L 702.5 383 L 711.5 381 Z " /><path fill="rgb(33,125,207)" stroke="rgb(33,125,207)" stroke-width="1" opacity="0.9607843137254902" d="M 752.5 381 L 761 381.5 L 752.5 382 L 752.5 381 Z " /><path fill="rgb(33,125,207)" stroke="rgb(33,125,207)" stroke-width="1" opacity="0.9607843137254902" d="M 762.5 382 L 767.5 382 L 780 385.5 L 777.5 386 Q 771.8 382.7 762.5 383 L 762.5 382 Z " /><path fill="rgb(33,125,207)" stroke="rgb(33,125,207)" stroke-width="1" opacity="0.9607843137254902" d="M 680.5 385 L 685 385.5 L 680.5 386 L 680.5 385 Z " /><path fill="rgb(33,125,207)" stroke="rgb(33,125,207)" stroke-width="1" opacity="0.9607843137254902" d="M 699.5 385 L 703 385.5 L 699.5 386 L 699.5 385 Z " /><path fill="rgb(33,125,207)" stroke="rgb(33,125,207)" stroke-width="1" opacity="0.9607843137254902" d="M 674.5 386 L 680 387.5 L 678.5 388 L 674.5 387 L 674.5 386 Z " /><path fill="rgb(33,125,207)" stroke="rgb(33,125,207)" stroke-width="1" opacity="0.9607843137254902" d="M 687.5 386 L 690 386.5 L 687.5 387 L 687.5 386 Z " /><path fill="rgb(33,125,207)" stroke="rgb(33,125,207)" stroke-width="1" opacity="0.9607843137254902" d="M 781.5 386 Q 796.4 389.6 805 399.5 L 812 411.5 L 813 416.5 L 812 416.5 L 809 407 L 807 406.5 L 807 404.5 L 798.5 395 Q 791.9 389.1 781.5 387 L 781.5 386 Z " /><path fill="rgb(33,125,207)" stroke="rgb(33,125,207)" stroke-width="1" opacity="0.9607843137254902" d="M 669.5 388 L 672 388.5 L 669.5 389 L 669.5 388 Z " /><path fill="rgb(33,125,207)" stroke="rgb(33,125,207)" stroke-width="1" opacity="0.9607843137254902" d="M 870.5 393 L 871 396.5 L 870 396.5 L 870.5 393 Z " /><path fill="rgb(33,125,207)" stroke="rgb(33,125,207)" stroke-width="1" opacity="0.9607843137254902" d="M 784.5 395 L 785 419.5 L 784 419.5 L 784.5 395 Z " /><path fill="rgb(33,125,207)" stroke="rgb(33,125,207)" stroke-width="1" opacity="0.9607843137254902" d="M 869.5 398 L 870 401.5 L 867.5 407 L 867 405.5 L 869.5 398 Z " /><path fill="rgb(33,125,207)" stroke="rgb(33,125,207)" stroke-width="1" opacity="0.9607843137254902" d="M 865.5 410 L 866 411.5 L 864 412.5 L 865.5 410 Z " /><path fill="rgb(33,125,207)" stroke="rgb(33,125,207)" stroke-width="1" opacity="0.9607843137254902" d="M 863.5 414 L 864 415.5 L 862 416.5 L 863.5 414 Z " /><path fill="rgb(33,125,207)" stroke="rgb(33,125,207)" stroke-width="1" opacity="0.9607843137254902" d="M 861.5 418 L 861 419.5 L 859.5 422 L 860 420.5 L 861.5 418 Z " /><path fill="rgb(33,125,207)" stroke="rgb(33,125,207)" stroke-width="1" opacity="0.9607843137254902" d="M 784.5 421 L 785 423.5 L 784 423.5 L 784.5 421 Z " /><path fill="rgb(33,125,207)" stroke="rgb(33,125,207)" stroke-width="1" opacity="0.9607843137254902" d="M 858.5 423 L 857 425.5 L 852.5 432 L 854 429.5 L 858.5 423 Z " /><path fill="rgb(33,125,207)" stroke="rgb(33,125,207)" stroke-width="1" opacity="0.9607843137254902" d="M 784.5 432 L 785 439.5 L 784 439.5 L 784.5 432 Z " /><path fill="rgb(33,125,207)" stroke="rgb(33,125,207)" stroke-width="1" opacity="0.9607843137254902" d="M 851.5 433 L 846.5 439 L 851.5 433 Z " /><path fill="rgb(33,125,207)" stroke="rgb(33,125,207)" stroke-width="1" opacity="0.9607843137254902" d="M 823.5 437 L 824 440 L 822 439.5 L 823.5 437 Z " /><path fill="rgb(33,125,207)" stroke="rgb(33,125,207)" stroke-width="1" opacity="0.9607843137254902" d="M 845.5 440 L 829.5 457 L 845.5 440 Z " /><path fill="rgb(33,125,207)" stroke="rgb(33,125,207)" stroke-width="1" opacity="0.9607843137254902" d="M 819.5 444 L 820 445.5 L 816.5 450 L 817 448.5 L 819.5 444 Z " /><path fill="rgb(33,125,207)" stroke="rgb(33,125,207)" stroke-width="1" opacity="0.9607843137254902" d="M 402.5 449 L 406 451.5 L 404 452 L 405 454.5 L 403 454.5 L 401 461.5 L 401 463.5 L 397 475.5 L 394.5 479 L 394 477.5 L 400 462.5 L 398.5 463 Q 357.9 480.9 322.5 504 L 291.5 525 L 249 559 Q 250.1 561.7 247.5 561 L 228 579.5 L 199.5 614 L 200 612.5 Q 211 594.5 226 580.5 L 225 578.5 L 227.5 575 L 229 575.5 L 229.5 574 L 231.5 574 L 233 573.5 L 230 570.5 L 231 569.5 Q 230.3 567.3 232.5 568 L 235.5 567 Q 238.8 568.1 238 565.5 L 238.5 564 L 237 563.5 Q 238.2 560.8 239.5 563 L 241 562.5 L 238.5 560 L 236.5 560 L 233 559.5 L 237 553.5 L 235.5 553 L 234 553.5 L 238.5 548 L 224 559 Q 225.1 561.7 222.5 561 L 212.5 571 L 211 571 Q 212.1 573.7 209.5 573 Q 191.4 591.4 177 613.5 L 168 629.5 L 162.5 647 L 162 643.5 L 167 629.5 L 181 605.5 Q 197.9 581.4 219.5 562 L 223 559.5 Q 222.3 557.3 224.5 558 L 239 545.5 L 238.5 544 L 240 546.5 L 240 550.5 L 241.5 553 L 246 552 L 244 548.5 L 246.5 547 L 249 548.5 Q 250.5 544.1 247.5 545 L 247.5 544 L 250 544 Q 248.9 546.7 251.5 546 L 251.5 544 L 253 543.5 L 253 541.5 L 254 538.5 L 252.5 538 L 250.5 542 L 250 539.5 L 274 521.5 L 273.5 520 L 275.5 521 L 277.5 517 L 277.5 519 L 283 515.5 L 282.5 514 L 284.5 515 L 285.5 512 L 287.5 513 L 288.5 510 L 290.5 511 L 291.5 508 L 293.5 509 L 294.5 506 L 296.5 507 L 296.5 505 L 298.5 506 L 299.5 503 L 301.5 504 L 302.5 501 L 304.5 502 L 304.5 500 L 306.5 501 L 307.5 498 L 309.5 499 L 309.5 497 L 311.5 498 L 312.5 495 L 314.5 496 L 314.5 494 L 316.5 494 L 318 493.5 L 317.5 492 L 319.5 493 L 319.5 491 L 321.5 492 L 322.5 489 L 324.5 490 L 324.5 488 L 326.5 489 L 326.5 487 L 328.5 488 L 329.5 485 L 331.5 486 L 331.5 484 L 333.5 485 L 333.5 483 L 335.5 484 L 339 481.5 L 338.5 480 L 340.5 481 L 340.5 479 L 342.5 480 L 342.5 478 L 344.5 479 L 344.5 477 L 346.5 477 L 348 476.5 L 347.5 475 L 349.5 476 L 349.5 474 L 351.5 475 L 351.5 473 L 353.5 474 L 353.5 472 L 355.5 473 L 355.5 471 L 357.5 472 L 357.5 470 L 359.5 471 L 359.5 469 L 361.5 470 L 361.5 468 L 363.5 469 L 363.5 467 L 365.5 468 L 365.5 466 L 367.5 467 L 367.5 465 L 369.5 466 L 369.5 464 L 371.5 465 L 371.5 463 L 373.5 464 L 373.5 462 L 375.5 463 L 376.5 461 L 378 461.5 L 378.5 460 L 380.5 461 L 380.5 459 L 382.5 460 L 382.5 458 L 384.5 459 L 384.5 457 L 386.5 458 L 386.5 456 L 389 457 L 389.5 455 L 391 455.5 L 391.5 454 L 393 454.5 L 393.5 453 L 395.5 454 L 395.5 452 L 397.5 453 L 397.5 451 L 399.5 452 L 402 451 L 402.5 449 Z M 254 540 Q 253 543 256 542 Q 257 539 254 540 Z M 241 553 L 240 557 L 238 558 L 240 558 Q 241 560 242 558 L 241 556 Q 243 554 241 553 Z M 244 553 L 243 555 Q 245 558 246 555 L 244 553 Z M 246 556 L 244 559 L 246 558 L 246 556 Z " /><path fill="rgb(33,125,207)" stroke="rgb(33,125,207)" stroke-width="1" opacity="0.9607843137254902" d="M 815.5 451 L 814.5 453 L 815.5 451 Z " /><path fill="rgb(33,125,207)" stroke="rgb(33,125,207)" stroke-width="1" opacity="0.9607843137254902" d="M 813.5 454 L 812.5 456 L 813.5 454 Z " /><path fill="rgb(33,125,207)" stroke="rgb(33,125,207)" stroke-width="1" opacity="0.9607843137254902" d="M 810.5 458 L 809 460.5 L 804.5 466 L 808 461.5 L 810.5 458 Z " /><path fill="rgb(33,125,207)" stroke="rgb(33,125,207)" stroke-width="1" opacity="0.9607843137254902" d="M 825.5 459 L 822.5 463 L 825.5 459 Z " /><path fill="rgb(33,125,207)" stroke="rgb(33,125,207)" stroke-width="1" opacity="0.9607843137254902" d="M 820.5 463 L 816.5 468 L 813.5 470 L 815.5 467 L 820.5 463 Z " /><path fill="rgb(33,125,207)" stroke="rgb(33,125,207)" stroke-width="1" opacity="0.9607843137254902" d="M 811.5 470 L 809.5 473 L 808 472.5 L 811.5 470 Z " /><path fill="rgb(33,125,207)" stroke="rgb(33,125,207)" stroke-width="1" opacity="0.9607843137254902" d="M 796.5 474 L 792 479.5 L 793.5 481 L 801.5 477 L 799.5 480 L 787 485 L 787 483.5 L 796.5 474 Z M 792 480 L 790 482 L 793 482 L 792 480 Z " /><path fill="rgb(33,125,207)" stroke="rgb(33,125,207)" stroke-width="1" opacity="0.9607843137254902" d="M 804.5 475 L 803.5 477 L 804.5 475 Z " /><path fill="rgb(33,125,207)" stroke="rgb(33,125,207)" stroke-width="1" opacity="0.9607843137254902" d="M 393.5 480 L 392.5 482 L 393.5 480 Z " /><path fill="rgb(33,125,207)" stroke="rgb(33,125,207)" stroke-width="1" opacity="0.9607843137254902" d="M 791.5 485 L 791 486.5 L 790.5 488 L 790 486.5 L 791.5 485 Z " /><path fill="rgb(33,125,207)" stroke="rgb(33,125,207)" stroke-width="1" opacity="0.9607843137254902" d="M 248.5 538 L 249 540.5 L 244 545.5 L 244.5 547 L 242 546.5 L 248 540.5 Q 245.7 539.3 248.5 538 Z " /><path fill="rgb(33,125,207)" stroke="rgb(33,125,207)" stroke-width="1" opacity="0.9607843137254902" d="M 243.5 542 L 241.5 545 L 243.5 542 Z " /><path fill="rgb(33,125,207)" stroke="rgb(33,125,207)" stroke-width="1" opacity="0.9607843137254902" d="M 292.5 549 L 291.5 551 L 292.5 549 Z " /><path fill="rgb(33,125,207)" stroke="rgb(33,125,207)" stroke-width="1" opacity="0.9607843137254902" d="M 286.5 554 L 285.5 556 L 286.5 554 Z " /><path fill="rgb(33,125,207)" stroke="rgb(33,125,207)" stroke-width="1" opacity="0.9607843137254902" d="M 230.5 556 L 229.5 560 Q 226 558 230.5 556 Z " /><path fill="rgb(33,125,207)" stroke="rgb(33,125,207)" stroke-width="1" opacity="0.9607843137254902" d="M 279.5 560 L 277.5 563 L 279.5 560 Z " /><path fill="rgb(33,125,207)" stroke="rgb(33,125,207)" stroke-width="1" opacity="0.9607843137254902" d="M 263.5 575 L 257.5 582 L 263.5 575 Z " /><path fill="rgb(33,125,207)" stroke="rgb(33,125,207)" stroke-width="1" opacity="0.9607843137254902" d="M 245.5 594 L 244.5 596 L 245.5 594 Z " /><path fill="rgb(33,125,207)" stroke="rgb(33,125,207)" stroke-width="1" opacity="0.9607843137254902" d="M 239.5 601 L 240.5 603 L 239 602.5 L 227 620 L 225 620.5 Q 227.5 622 224 623.5 L 218 638.5 L 217 652.5 L 221.5 665 L 223 664.5 L 222 666.5 L 224 666.5 L 223 668.5 L 230.5 678 L 231.5 677 L 235.5 681 L 251.5 690 L 271.5 697 L 287.5 701 L 320 705.5 L 296.5 712 L 284.5 713 L 283.5 714 L 244.5 716 L 243.5 715 L 222.5 714 L 203.5 710 L 186.5 703 L 175.5 695 L 174 695.5 L 174 693.5 Q 174.8 691.3 172.5 692 L 169 686 Q 166.3 687.1 167 684.5 L 161 670.5 L 161 664.5 L 162 664.5 Q 164.2 685.3 177.5 695 L 186.5 701 L 187 699.5 L 183 697 L 178 688.5 L 176 678.5 L 177 673.5 L 176 668 Q 178.7 669.1 178 666.5 L 177 664.5 L 178.5 660 L 180 660.5 L 179 658.5 L 181 657.5 L 180.5 656 L 182 655.5 L 181.5 654 L 183 653.5 L 182.5 652 L 184 651.5 L 183.5 650 L 185 649.5 Q 182.8 648.3 185.5 647 L 188 645.5 Q 185.3 643.8 189.5 642 L 192 640.5 L 191 639.5 L 196.5 634 Q 197.8 636.3 199 633.5 L 201.5 630 Q 202.8 632.3 204 629.5 L 205.5 627 L 207.5 627 L 209 626.5 L 208.5 625 L 210 625.5 L 210.5 624 L 212.5 624 L 214 623.5 L 213.5 622 L 215.5 623 L 215.5 621 L 217.5 622 L 218.5 620 L 220.5 621 L 220.5 619 L 222.5 620 L 222.5 618 Q 227.3 617.8 229 614.5 L 239.5 601 Z " /><path fill="rgb(33,125,207)" stroke="rgb(33,125,207)" stroke-width="1" opacity="0.9607843137254902" d="M 197.5 616 L 196.5 618 L 197.5 616 Z " /><path fill="rgb(33,125,207)" stroke="rgb(33,125,207)" stroke-width="1" opacity="0.9607843137254902" d="M 240.5 634 L 241 636.5 L 240 636.5 L 240.5 634 Z " /><path fill="rgb(33,125,207)" stroke="rgb(33,125,207)" stroke-width="1" opacity="0.9607843137254902" d="M 161.5 648 L 162 655.5 L 161 655.5 L 161.5 648 Z " /><path fill="rgb(33,125,207)" stroke="rgb(33,125,207)" stroke-width="1" opacity="0.9607843137254902" d="M 252.5 656 L 253.5 658 L 252.5 656 Z " /><path fill="rgb(26,58,114)" stroke="rgb(26,58,114)" stroke-width="1" opacity="0.9921568627450981" d="M 509.5 199 L 522.5 200 L 539.5 208 L 760.5 330 L 784 344.5 L 747.5 346 L 746.5 347 L 730.5 348 L 729.5 349 L 723.5 349 L 699.5 354 L 694.5 354 L 631.5 369 L 596.5 380 L 595 381.5 L 598 388.5 L 597 388.5 L 561.5 301 L 462.5 301 L 461 302.5 L 405.5 451 L 404.5 448 Q 313 487 240.5 545 L 240 361.5 L 241 358.5 Q 242.9 343.9 252.5 337 L 491.5 204 L 498.5 201 L 509.5 199 Z " /><path fill="rgb(26,58,114)" stroke="rgb(26,58,114)" stroke-width="1" opacity="0.9921568627450981" d="M 703.5 385 L 740.5 385 L 741.5 386 L 750.5 386 L 773.5 390 L 785 394.5 L 784 395.5 L 784 419.5 L 784 421.5 L 785 425.5 L 784 427.5 L 785 431.5 Q 782.3 433.3 784 439.5 L 785 440.5 L 785 635.5 Q 782.3 650.8 771.5 658 L 534.5 790 L 519.5 796 L 504.5 796 L 496.5 794 L 486.5 789 L 440.5 762 L 354.5 715 L 340.5 706 L 260.5 662 L 247 651.5 L 242 642.5 L 240 633.5 L 240 603.5 L 240 601.5 L 246 593.5 L 276.5 563 Q 328.7 515.2 394 480.5 L 394.5 479 L 395 480.5 L 340 630 L 426.5 630 L 427 628.5 L 447 575 L 578.5 575 L 580 576.5 L 600 630 L 694 629.5 L 602 401 L 656.5 390 L 671.5 389 L 680.5 387 L 689.5 387 L 690.5 386 L 702.5 386 L 703.5 385 Z " /><path fill="rgb(26,58,114)" stroke="rgb(26,58,114)" stroke-width="1" opacity="0.9921568627450981" d="M 511.5 395 L 557 512 L 468.5 512 L 468 510.5 L 511.5 395 Z " /><path fill="rgb(26,58,114)" stroke="rgb(26,58,114)" stroke-width="1" opacity="0.9921568627450981" d="M 404.5 452 L 405 453.5 L 401.5 462 L 401 460.5 L 404.5 452 Z " /><path fill="rgb(26,58,114)" stroke="rgb(26,58,114)" stroke-width="1" opacity="0.9921568627450981" d="M 221.5 619 L 223 619.5 L 219.5 621 L 219.5 620 L 221.5 619 Z " /><path fill="rgb(26,58,114)" stroke="rgb(26,58,114)" stroke-width="1" opacity="0.9921568627450981" d="M 225.5 620 L 224.5 622 L 225.5 620 Z " /><path fill="rgb(26,58,114)" stroke="rgb(26,58,114)" stroke-width="1" opacity="0.9921568627450981" d="M 214.5 622 L 216 622.5 L 211.5 625 L 212.5 623 L 214.5 622 Z " /><path fill="rgb(26,58,114)" stroke="rgb(26,58,114)" stroke-width="1" opacity="0.9921568627450981" d="M 209.5 625 L 208.5 627 L 205.5 629 L 207.5 626 L 209.5 625 Z " /><path fill="rgb(26,58,114)" stroke="rgb(26,58,114)" stroke-width="1" opacity="0.9921568627450981" d="M 203.5 629 L 201.5 632 L 203.5 629 Z " /><path fill="rgb(26,58,114)" stroke="rgb(26,58,114)" stroke-width="1" opacity="0.9921568627450981" d="M 198.5 633 L 190.5 642 L 198.5 633 Z " /><path fill="rgb(26,58,114)" stroke="rgb(26,58,114)" stroke-width="1" opacity="0.9921568627450981" d="M 188.5 644 L 186.5 647 L 188.5 644 Z " /><path fill="rgb(26,58,114)" stroke="rgb(26,58,114)" stroke-width="1" opacity="0.9921568627450981" d="M 185.5 648 L 184.5 650 L 185.5 648 Z " /><path fill="rgb(26,58,114)" stroke="rgb(26,58,114)" stroke-width="1" opacity="0.9921568627450981" d="M 176.5 673 L 177 677.5 L 176 677.5 L 176.5 673 Z " /><path fill="rgb(26,58,114)" stroke="rgb(26,58,114)" stroke-width="1" opacity="0.9921568627450981" d="M 229.5 676 L 231.5 679 L 229.5 676 Z " /><path fill="rgb(75,173,233)" stroke="rgb(75,173,233)" stroke-width="1" opacity="0.9764705882352941" d="M 784.5 343 L 785.5 344 L 798 344.5 L 785.5 345 L 784.5 343 Z " /><path fill="rgb(75,173,233)" stroke="rgb(75,173,233)" stroke-width="1" opacity="0.9764705882352941" d="M 809.5 344 L 811 344.5 L 807 346.5 L 812.5 347 L 818 345.5 L 814 344.5 L 817.5 344 Q 820.5 345.5 817.5 347 L 815 347.5 L 820.5 348 L 823.5 347 L 823.5 348 L 821 348.5 L 825.5 349 L 828.5 348 L 828.5 349 L 826 349.5 L 833.5 351 L 835.5 350 L 835.5 351 L 834 351.5 L 837.5 352 L 839 351.5 L 838.5 353 L 841.5 352 L 841.5 354 L 846.5 352 L 846.5 353 L 844 354.5 L 845.5 355 L 847 354.5 L 846.5 356 L 849 354.5 L 848.5 353 L 850 354.5 L 848.5 357 L 850.5 356 L 851.5 359 L 853.5 358 L 853.5 360 L 855.5 359 L 856.5 362 L 858.5 361 L 866 368.5 L 865 369.5 L 865.5 371 L 869 370.5 L 867 373.5 L 869 373.5 L 868 375.5 L 870 375.5 L 869 378.5 L 871 378.5 L 870 382.5 L 872 382.5 L 871.5 395 L 870.5 393 L 870 396.5 L 871 399.5 L 870 399.5 L 869.5 398 L 869 401.5 L 869.5 403 L 868 402.5 L 870 407.5 L 868 407.5 L 866.5 411 L 865 410.5 L 866 412.5 L 864.5 415 L 863 414.5 L 864 416.5 L 861.5 420 L 860 419.5 L 861 421.5 L 858 423.5 Q 860.3 424.8 857.5 426 L 856 425.5 L 857 427.5 L 854 428.5 L 853 430.5 L 854.5 433 L 852.5 433 L 849 435.5 L 850 436.5 L 846.5 440 L 842 443.5 L 843 444.5 Q 839.9 446.3 841.5 448 L 840.5 447 L 835 452.5 L 835.5 454 Q 834.3 451.7 833 454.5 L 833.5 456 Q 831.2 451.8 829 456.5 L 824.5 462 Q 823.3 459.8 822 462.5 L 823 464.5 Q 821.3 462.9 819.5 466 L 818.5 465 L 816.5 467 L 815 467.5 L 815.5 471 L 813 469.5 L 811.5 472 L 809.5 472 L 808 472.5 Q 810.3 473.7 807.5 475 L 806 474.5 L 804.5 477 L 803 476.5 Q 802.3 478.8 804.5 478 L 804.5 479 L 801.5 477 L 797 479.5 L 797.5 481 L 795.5 480 L 790.5 482 L 790.5 479 Q 792.3 481.8 794 477.5 L 793.5 476 Q 795.2 478.8 797 474.5 L 796 473.5 L 803.5 466 L 805 465.5 L 804 464.5 L 807.5 461 L 809 461.5 L 810 459.5 Q 807.3 457.7 811.5 456 L 813 455.5 Q 810.8 454.3 813.5 453 L 815 452.5 L 815 450.5 L 816.5 448 L 818 448.5 L 817 446.5 L 820 440 Q 814 442 816 436 L 822.5 437 L 826 434.5 L 827 430.5 L 826.5 429 L 828 429.5 L 827 427.5 L 829 427.5 L 828 424.5 L 830 424.5 L 829 421.5 L 831 421.5 L 833 412.5 L 833 403.5 L 831.5 399 L 830.5 401 L 830 399.5 L 831 395.5 L 828.5 391 L 827 391.5 L 828 389.5 L 825 388.5 L 825 386.5 L 818.5 379 L 816.5 380 Q 818.2 378 814.5 376 L 811.5 375 L 810 375.5 L 810.5 374 L 808.5 375 L 808.5 373 L 806.5 374 L 806.5 372 L 802.5 371 L 801 371.5 L 801.5 370 L 793.5 368 L 791.5 369 L 791.5 368 L 793 367.5 L 784.5 365 L 772.5 364 L 771.5 363 L 762.5 363 L 761.5 362 L 725 361.5 L 734 360.5 L 730 360 L 731 356.5 L 728 352.5 L 729.5 351 L 736 350.5 L 728.5 350 L 727.5 351 L 697.5 355 L 652.5 365 L 652.5 364 L 686.5 356 L 725.5 349 L 749.5 347 L 750.5 346 L 783.5 345 L 784.5 346 L 805.5 346 L 809.5 344 Z M 746 348 L 746 349 L 752 349 L 746 348 Z M 737 349 L 737 350 L 744 350 L 737 349 Z M 820 437 L 822 439 Q 823 436 820 437 Z M 824 437 L 822 440 L 824 440 L 824 437 Z " /><path fill="rgb(75,173,233)" stroke="rgb(75,173,233)" stroke-width="1" opacity="0.9764705882352941" d="M 714.5 362 L 724 362.5 L 714.5 363 L 714.5 362 Z " /><path fill="rgb(75,173,233)" stroke="rgb(75,173,233)" stroke-width="1" opacity="0.9764705882352941" d="M 708.5 363 L 711 363.5 L 708.5 364 L 708.5 363 Z " /><path fill="rgb(75,173,233)" stroke="rgb(75,173,233)" stroke-width="1" opacity="0.9764705882352941" d="M 733.5 363 L 757 363.5 L 733.5 364 L 733.5 363 Z " /><path fill="rgb(75,173,233)" stroke="rgb(75,173,233)" stroke-width="1" opacity="0.9764705882352941" d="M 717.5 364 L 723 364.5 L 717.5 365 L 717.5 364 Z " /><path fill="rgb(75,173,233)" stroke="rgb(75,173,233)" stroke-width="1" opacity="0.9764705882352941" d="M 766.5 364 L 770 364.5 L 766.5 365 L 766.5 364 Z " /><path fill="rgb(75,173,233)" stroke="rgb(75,173,233)" stroke-width="1" opacity="0.9764705882352941" d="M 648.5 365 L 651 365.5 L 640.5 368 L 640.5 367 L 648.5 365 Z " /><path fill="rgb(75,173,233)" stroke="rgb(75,173,233)" stroke-width="1" opacity="0.9764705882352941" d="M 708.5 365 L 712 365.5 L 708.5 366 L 708.5 365 Z " /><path fill="rgb(75,173,233)" stroke="rgb(75,173,233)" stroke-width="1" opacity="0.9764705882352941" d="M 731.5 365 L 744 365.5 L 731.5 366 L 731.5 365 Z " /><path fill="rgb(75,173,233)" stroke="rgb(75,173,233)" stroke-width="1" opacity="0.9764705882352941" d="M 775.5 365 L 778 365.5 L 775.5 366 L 775.5 365 Z " /><path fill="rgb(75,173,233)" stroke="rgb(75,173,233)" stroke-width="1" opacity="0.9764705882352941" d="M 699.5 366 L 703 366.5 L 699.5 367 L 699.5 366 Z " /><path fill="rgb(75,173,233)" stroke="rgb(75,173,233)" stroke-width="1" opacity="0.9764705882352941" d="M 715.5 366 L 727 366.5 L 720 367.5 L 723 369.5 L 724 372.5 L 723 372.5 Q 723.7 369.5 720 371 L 721.5 374 Q 724.1 373.3 723 376 L 715.5 377 L 713.5 377 L 712 377.5 L 722 378.5 L 689 382.5 L 694.5 384 L 702.5 384 L 702.5 383 L 698 382.5 L 702.5 382 L 703.5 383 L 711.5 383 L 712.5 382 L 724 381.5 L 718 380.5 L 725.5 380 L 726.5 381 L 749.5 381 Q 750.7 378.8 755.5 380 L 755.5 381 L 752 381.5 L 760.5 382 L 763.5 381 L 763.5 382 L 762 382.5 L 767.5 383 L 769.5 382 L 769.5 383 L 768 383.5 L 772.5 384 L 774.5 383 L 774.5 384 L 773 384.5 L 776.5 385 L 778 384.5 L 777.5 386 L 781.5 385 L 781.5 387 L 784.5 386 L 784.5 387 L 783 387.5 L 785.5 388 L 787 387.5 L 786.5 389 L 789.5 388 L 789.5 390 L 791.5 389 L 791.5 391 L 795.5 393 L 797 392.5 Q 794.8 393.8 797.5 395 L 799.5 394 Q 802.3 395.3 800 396.5 L 804.5 401 Q 805.8 398.8 807 401.5 L 807 403.5 L 807.5 405 L 809 404.5 L 807.5 407 L 809.5 406 L 809 407.5 L 809.5 409 L 811 408.5 L 809.5 411 L 806.5 407 L 805 407.5 L 806 406.5 L 802.5 403 Q 793.3 396.1 781 393 L 780.5 391 L 778.5 392 L 764.5 388 L 743.5 386 L 742.5 385 L 699.5 385 L 698.5 386 L 687.5 386 L 686.5 387 L 665.5 389 L 660.5 388 L 660.5 389 L 662 389.5 L 660.5 390 Q 659 387.5 653.5 389 L 653.5 390 L 655 390.5 L 653.5 391 L 648.5 390 L 648.5 391 L 650 391.5 L 648.5 392 L 643.5 391 L 643.5 393 Q 642.3 390.8 637.5 392 L 637.5 393 L 639 393.5 L 637.5 394 L 633.5 393 L 633.5 395 L 628.5 394 L 628.5 396 L 623.5 395 L 623.5 397 L 619.5 396 L 619.5 398 L 614.5 397 L 614.5 399 L 609.5 398 L 609.5 400 L 605.5 399 L 605.5 401 L 603.5 400 L 602 400.5 Q 603.1 397.2 600.5 398 L 601 396.5 L 600.5 395 L 599 395.5 L 600 392.5 L 598 392.5 L 599 390.5 Q 596.8 389.3 599.5 388 L 603 389 Q 601.9 386.3 604.5 387 L 606.5 388 L 606.5 386 L 610.5 387 L 610.5 385 L 614.5 386 L 614.5 384 L 618.5 385 L 618.5 383 L 622.5 384 L 622.5 382 L 626.5 383 L 626.5 382 L 625 381.5 L 626.5 381 L 630.5 382 L 630.5 380 L 634.5 381 L 634.5 379 L 639.5 380 L 639.5 379 L 638 378.5 L 639.5 378 L 643.5 379 L 643.5 378 L 642 377.5 L 643.5 377 L 647.5 378 L 647.5 377 L 646 376.5 L 647.5 376 L 651.5 377 L 651.5 375 L 656.5 376 L 656.5 375 L 655 374.5 L 656.5 374 L 661.5 375 L 661.5 374 L 660 373.5 L 661.5 373 L 666.5 374 L 666.5 373 L 664 372.5 L 666.5 372 L 671.5 373 L 671.5 372 L 669 371.5 L 671.5 371 L 676.5 372 L 676.5 371 L 674 370.5 L 676.5 370 Q 677.7 372.3 682.5 371 L 683.5 370 L 704.5 368 L 705.5 367 L 714.5 367 L 715.5 366 Z M 684 383 L 684 384 L 688 385 L 694 385 L 684 383 Z M 677 384 L 677 385 L 681 386 L 685 386 Q 683 383 677 384 Z M 672 385 L 672 386 L 675 387 L 678 387 Q 676 384 672 385 Z " /><path fill="rgb(75,173,233)" stroke="rgb(75,173,233)" stroke-width="1" opacity="0.9764705882352941" d="M 692.5 367 L 695 367.5 L 692.5 368 L 692.5 367 Z " /><path fill="rgb(75,173,233)" stroke="rgb(75,173,233)" stroke-width="1" opacity="0.9764705882352941" d="M 686.5 368 L 689 368.5 L 686.5 369 L 686.5 368 Z " /><path fill="rgb(75,173,233)" stroke="rgb(75,173,233)" stroke-width="1" opacity="0.9764705882352941" d="M 706.5 381 L 711 381.5 L 706.5 382 L 706.5 381 Z " /><path fill="rgb(75,173,233)" stroke="rgb(75,173,233)" stroke-width="1" opacity="0.9764705882352941" d="M 802.5 405 L 803.5 407 L 802.5 405 Z " /><path fill="rgb(75,173,233)" stroke="rgb(75,173,233)" stroke-width="1" opacity="0.9764705882352941" d="M 831.5 405 L 832 411.5 L 831 411.5 L 831.5 405 Z " /><path fill="rgb(75,173,233)" stroke="rgb(75,173,233)" stroke-width="1" opacity="0.9764705882352941" d="M 812.5 413 L 811.5 415 L 812.5 413 Z " /><path fill="rgb(75,173,233)" stroke="rgb(75,173,233)" stroke-width="1" opacity="0.9764705882352941" d="M 812 417 L 814 417.5 L 814 435.5 L 813.5 437 L 815 437.5 L 812 438 L 813 434.5 L 813 419.5 L 812 417 Z " /><path fill="rgb(75,173,233)" stroke="rgb(75,173,233)" stroke-width="1" opacity="0.9764705882352941" d="M 400.5 450 L 402 450.5 L 394.5 454 L 394.5 453 L 400.5 450 Z " /><path fill="rgb(75,173,233)" stroke="rgb(75,173,233)" stroke-width="1" opacity="0.9764705882352941" d="M 387.5 456 L 389 456.5 L 379.5 461 L 379.5 460 L 387.5 456 Z " /><path fill="rgb(75,173,233)" stroke="rgb(75,173,233)" stroke-width="1" opacity="0.9764705882352941" d="M 399.5 462 L 400 463.5 L 394 479.5 L 390.5 483 Q 355.4 500.4 325.5 523 Q 288.7 549.7 257 581.5 L 226.5 617 Q 204.5 624 191 639.5 Q 182.7 648.2 178 660.5 L 176 668.5 L 176 682.5 L 183 697 L 187 699.5 L 186.5 701 L 174.5 692 L 173 692.5 L 174 691.5 L 171 688.5 L 169.5 686 L 168 686.5 L 169 684.5 L 166.5 681 L 165 681.5 L 166 679.5 L 164 679.5 L 165 676.5 L 163.5 674 L 162 674.5 L 163 670.5 L 161.5 664 L 160.5 667 L 160 652.5 L 161 652.5 L 161.5 656 L 162 648.5 L 161 646.5 L 163 646.5 L 162 642.5 L 164 642.5 L 163 639.5 L 165 639.5 L 164 636.5 L 166 636.5 L 165 633.5 L 167 633.5 L 166 631.5 L 168 631.5 L 167 628.5 L 170 627.5 L 171 623.5 L 170.5 622 Q 171.8 624.3 173 621.5 L 172.5 620 L 171 620.5 L 174 619.5 L 173 617.5 L 176 616.5 L 175.5 615 L 174 615.5 L 177 614.5 L 176 612.5 L 179 611.5 L 178 609.5 Q 180 611.2 182 607.5 L 187 599.5 L 185.5 600 L 184 599.5 L 186.5 598 Q 187.8 600.3 189 597.5 L 188 595.5 L 193 592.5 L 192 590.5 Q 193.3 587.8 194.5 590 L 200 584.5 L 199.5 583 L 196 585.5 L 201 580.5 L 200.5 579 L 202.5 581 L 207 576.5 L 209.5 573 L 212.5 571 L 221 562.5 Q 218.3 560.8 222.5 559 L 222.5 561 L 225.5 559 L 237 548.5 L 236.5 547 L 238.5 548 L 240 545 Q 300 497.7 373.5 463 L 373.5 464 Q 308 494.5 254 536.5 L 256 537.5 L 253 539.5 L 252 542.5 L 252.5 544 L 251 544.5 L 251.5 546 Q 248.9 546.7 250 544 L 247.5 544 L 247.5 545 Q 250.5 544.1 249 548.5 L 250.5 551 L 247.5 548 L 245.5 548 L 244 548.5 L 246 552 L 243 552.5 L 246 554.5 L 246 556.5 L 244.5 559 L 244 557.5 Q 246.2 556.3 243.5 555 L 241 558.5 L 243 559.5 L 241.5 560 L 237.5 557 L 236.5 559 L 236 557.5 Q 237.3 554.8 238.5 557 Q 241.5 557.9 240 553.5 L 240 551.5 L 239.5 550 L 237.5 550 L 235 552.5 L 237.5 554 L 238.5 552 L 239 553.5 L 236 554.5 L 233 559.5 L 237.5 561 Q 239.2 558.2 241 562.5 L 239.5 563 Q 238.2 560.8 237 563.5 L 241 565.5 L 239.5 566 L 238 565.5 L 239 567.5 L 237.5 567 L 234.5 568 L 232.5 568 Q 230.3 567.3 231 569.5 Q 228.8 570.8 231.5 572 L 234.5 570 L 234.5 571 L 232 572.5 L 232.5 574 L 230.5 575 L 229 574.5 L 228.5 576 L 227 575.5 L 228.5 579 L 247.5 561 L 249 561 Q 247.9 558.3 250.5 559 Q 315.1 500.6 399.5 462 Z M 251 539 L 250 542 L 251 542 L 251 539 Z M 242 553 L 243 555 Q 244 552 242 553 Z M 227 577 L 225 579 L 226 581 L 218 590 L 228 581 L 227 577 Z M 218 590 L 212 597 L 218 592 L 218 590 Z M 212 597 L 208 602 L 212 599 L 212 597 Z M 207 603 L 205 606 L 207 605 L 207 603 Z M 204 607 L 202 610 L 204 609 L 204 607 Z " /><path fill="rgb(75,173,233)" stroke="rgb(75,173,233)" stroke-width="1" opacity="0.9764705882352941" d="M 472.5 512 L 555 512.5 L 472.5 513 L 472.5 512 Z " /><path fill="rgb(75,173,233)" stroke="rgb(75,173,233)" stroke-width="1" opacity="0.9764705882352941" d="M 254 540 Q 257 539 256 542 Q 253 543 254 540 Z " /><path fill="rgb(75,173,233)" stroke="rgb(75,173,233)" stroke-width="1" opacity="0.9764705882352941" d="M 183.5 602 L 182.5 604 L 183.5 602 Z " /><path fill="rgb(75,173,233)" stroke="rgb(75,173,233)" stroke-width="1" opacity="0.9764705882352941" d="M 173.5 694 L 172.5 696 L 173.5 694 Z " /><path fill="rgb(75,173,233)" stroke="rgb(75,173,233)" stroke-width="1" opacity="0.9764705882352941" d="M 229.5 714 L 230.5 716 L 229.5 714 Z " /></svg>