<?xml version="1.0" encoding="UTF-8"?>
<svg id="Layer_2" data-name="Layer 2" xmlns="http://www.w3.org/2000/svg" viewBox="0 0 618.15 669.16">
  <defs>
    <style>
      .cls-1 {
        fill: #d9bc83;
        opacity: .96;
        stroke: #d9bc83;
      }

      .cls-1, .cls-2, .cls-3, .cls-4, .cls-5 {
        isolation: isolate;
      }

      .cls-2 {
        fill: #180f00;
        stroke: #180f00;
      }

      .cls-2, .cls-5 {
        opacity: 1;
      }

      .cls-6 {
        fill: #7b10f6;
        stroke: #7b10f6;
      }

      .cls-3 {
        fill: #9e8d8a;
        opacity: .99;
        stroke: #9e8d8a;
      }

      .cls-4 {
        fill: #6e6053;
        opacity: .98;
        stroke: #6e6053;
      }

      .cls-7 {
        fill: #941b2a;
        stroke: #941b2a;
      }

      .cls-5 {
        fill: #fbebf4;
        stroke: #fbebf4;
      }

      .cls-8 {
        fill: #e163f8;
        stroke: #e163f8;
      }
    </style>
  </defs>
  <g id="Layer_1-2" data-name="Layer 1">
    <g>
      <path class="cls-3" d="M268.11,148.57l1,2-1-2Z"/>
      <path class="cls-3" d="M267.11,150.57l1.5,2.5-43,136,2-1,11-17,8-21,6.5-11.5-.5,1.5.5,1.5,2-4,.5,2.5-11,30-10,34-6.5,15.5-7.5-4.5,1-1-9.5-9.5-13.5-12.5,68.5-141.5Z"/>
      <path class="cls-3" d="M19.11,174.57l.5,128.5h-1l.5-128.5Z"/>
      <path class="cls-3" d="M359.61,180.57l6,3.5.5,1.5,1-2,.5,1.5-.5,1.5c1.53-.47,2.03.03,1.5,1.5l40,81,9,22-8.5,9.5-4.5,3.5-6.5,7.5-4.5,3.5.5,1.5-1.5-.5c.53,1.53.03,2.03-1.5,1.5l-3.5,1-1-4.5h1c-.47,1.53.03,2.03,1.5,1.5v-3l-1.5-.5,1-2-2-4v-2l-6-10-20-57,2,1,16,32,10.5,15.5.5-3.5-20-63-10-38.5Z"/>
      <path class="cls-3" d="M261.11,221.57l.5,1.5-5,13.5-3-.5,7.5-14.5Z"/>
      <path class="cls-3" d="M63.11,228.57l.5,2.5h-1l.5-2.5Z"/>
      <path class="cls-3" d="M65.11,230.57l.5,2.5h-1l.5-2.5Z"/>
      <path class="cls-3" d="M557.11,235.57l1.5.5-1,3-1,14-4.5,10.5-3-1-20.5,21.5,1.5.5,11-5,2,1v-2l3-1,.5,1.5-2,4-11.5,11.5-18.5,12.5,1,2.5c-2.53-1-3.53-.5-3,1.5h-1l-3-6,.5-1.5c-2-.6-2.5.57-1.5,3.5l-8,15-7.5,7.5c-4.47.87-7.13-.13-8-3l-13,11-17.5-35.5,35.5-27.5h2l6,4,4.5-3.5,4.5-5.5c15.13-13.2,32.13-24.53,51-34Z"/>
      <path class="cls-3" d="M560.11,236.57l4.5,1.5-1.5.5-3-1v-1Z"/>
      <path class="cls-3" d="M566.11,238.57l15.5,7.5-1.5.5-14-7v-1Z"/>
      <path class="cls-3" d="M54.11,253.57l-1,2,1-2Z"/>
      <path class="cls-3" d="M56.11,258.57l1,2-1-2Z"/>
      <path class="cls-3" d="M35.11,260.57l-1,2,1-2Z"/>
      <path class="cls-3" d="M36.11,262.57l1,2-1-2Z"/>
      <path class="cls-3" d="M99.11,263.57l1.5,2.5h-1l-.5-2.5Z"/>
      <path class="cls-3" d="M39.11,264.57l5,6-5-6Z"/>
      <path class="cls-3" d="M34.11,268.57l.5,45.5h-1l.5-45.5Z"/>
      <path class="cls-3" d="M52.11,268.57l-1,2,1-2Z"/>
      <path class="cls-3" d="M76.11,270.57l1,2-1-2Z"/>
      <path class="cls-3" d="M122.11,276.57l28,21,12.5,7.5-15.5,31.5-.5-1.5,1-3.5-3.5-1c-.87,1.53-2.87,1.87-6,1l-9-17-1.5,7-13-3c-.6-5.27-2.93-9.1-7-11.5l2-1-1-2.5-2-.5,2.5-.5,3,1,3.5-1v2h2c-.73,1.8-.23,2.47,1.5,2l10,5,5,1-4-5-5.5-4.5-8.5-10.5-7-2-1.5,2.5.5,1.5-3.5-7h5v-1.5l-3.5-4.5,3,1,13-6Z"/>
      <path class="cls-3" d="M72.11,277.57l5.5,1.5-1,2,2.5,3.5,6.5,4.5c-2.87,1.47-3.7,2.97-2.5,4.5l-8.5-10.5.5-1.5-2.5-1.5-.5-2.5Z"/>
      <path class="cls-3" d="M90.11,286.57v2l4.5-1-1.5,4-5.5-2.5,2.5-2.5Z"/>
      <path class="cls-3" d="M92.11,292.57l-1,2,1-2Z"/>
      <path class="cls-3" d="M109.11,295.57l1,2-1-2Z"/>
      <path class="cls-3" d="M111.11,298.57l1,2-1-2Z"/>
      <path class="cls-3" d="M190.11,299.57l-.5,1.5c1.53,2.13,1.87,5.47,1,10l-2,5-2,15.5-2,.5,1,2h-2l1,3-1.5,2.5-1.5-.5,1,3-9,21,3.5-2.5,3.5-2.5,14.5-16.5,3.5-2.5,15.5-16.5-.5,1.5c.53,1.53.03,2.03-1.5,1.5l.5,1.5-.5,1.5-1-2-4.5,4.5,1,1c-12.53,22.8-27.37,43.3-44.5,61.5l1-3c-3.13-.47-4.97.37-5.5,2.5l-2.5,4.5.5-1.5,5-17,3.5-4.5c1.73.47,2.23-.2,1.5-2l-7,5.5-12.5,15.5-2.5-.5,31-65.5,2-.5-.5-1.5,1.5.5-1-2h2l-1-2,2-1-.5-1.5,1.5-.5v-2l8.5-17.5Z"/>
      <path class="cls-3" d="M21.11,304.57l1,2-1-2Z"/>
      <path class="cls-3" d="M596.11,304.57l-2,3,2-3Z"/>
      <path class="cls-3" d="M584.11,306.57l.5,4.5h-1l.5-4.5Z"/>
      <path class="cls-3" d="M27.11,309.57l2,3-2-3Z"/>
      <path class="cls-3" d="M587.11,312.57l-1,2,1-2Z"/>
      <path class="cls-3" d="M402.11,321.57l3.5,3.5-1,1,1.5,3.5,1-2,37,39,.5-1.5-14-35h1l26.5,35.5,1.5-.5-1,2h2l13,28-15-14-4.5-5.5-.5,1.5,6,13,1,6-5.5-4.5-1.5.5.5,1.5c-13.13-14.2-25.13-29.53-36-46l-.5,1.5,5,7,17,37h-1l-2.5-5.5-4.5,1-2,3.5,4,3c.4,5.27,2.4,8.93,6,11l-1.5.5-7.5-3,1,4.5-1.5.5-26-12-.5,3.5,2,3v4l4,13-1.5-.5-16.5-7-.5,3-6-8-73-40-5-1-59,32-14,8-3.5,3.5-6.5,9.5.5-1.5c.53-1.73-.3-2.23-2.5-1.5l-17.5,8.5-1.5,4.5-.5-2.5,2-3,5-18-3-1,2-6.5-21.5,9c-1.8-.8-1.97-1.63-.5-2.5l-.5-1.5-7.5,4-3.5,6,.5-1.5,4-12,1-9c-2.33-1-2.67-2-1-3l13.5-28.5,1,2,16-29,.5,1.5-15,42,1.5.5,16.5-15.5-3,8-16,21,1.5.5,22-12,47-22-23,24-8.5,7.5,1.5.5,33-20,41-28c23.53,17.8,48.53,34.13,75,49l-4-5-28.5-26.5,1.5.5,68,32-.5-1.5-15-21-4-8,12.5,11.5,5,3,.5-3.5-10-25-7.5-24.5ZM193.61,361.57l-2,4,2-1v-3Z"/>
      <path class="cls-3" d="M520.11,347.57l-1,2,1-2Z"/>
      <path class="cls-3" d="M382.11,352.57l1,2-1-2Z"/>
      <path class="cls-3" d="M546.11,375.57l.5,2.5h-1l.5-2.5Z"/>
      <path class="cls-3" d="M545.11,389.57l.5,2.5h-1l.5-2.5Z"/>
      <path class="cls-3" d="M162.11,394.57l-3,4,3-4Z"/>
      <path class="cls-3" d="M617.11,395.57l.5,6.5h-1l.5-6.5Z"/>
      <path class="cls-3" d="M544.11,404.57l.5,2.5h-1l.5-2.5Z"/>
      <path class="cls-3" d="M183.11,406.57l1.5.5-2.5,1.5,1-2Z"/>
      <path class="cls-3" d="M369.11,406.57c6.4,1.6,11.57,4.43,15.5,8.5l20,46-7-6c-5.67-13-12.5-24.83-20.5-35.5l-.5,2.5,4,9h-1l-10.5-24.5Z"/>
      <path class="cls-3" d="M247.11,407.57l1.5.5-5.5,10.5-.5-1.5,2-5h-1l-2,5.5h-2v2c-1.8-.73-2.47-.23-2,1.5l-2,4.5c-1.8.73-2.47.23-2-1.5l-2.5-.5-1.5,1.5-4.5,9.5-.5-1.5,10.5-20.5,12-5Z"/>
      <path class="cls-3" d="M536.11,425.57l.5,4.5c-1.87,1.13-2.53,3.47-2,7l3,1-9.5,10.5.5-1.5,1-5-1-2,7.5-14.5Z"/>
      <path class="cls-3" d="M543.11,429.57l.5,5.5h-1l.5-5.5Z"/>
      <path class="cls-3" d="M381.11,432.57l4.5,9.5h-1l-4-8,.5-1.5Z"/>
      <path class="cls-3" d="M492.11,434.57l.5,2.5-2-1,1.5-1.5Z"/>
      <path class="cls-3" d="M513.11,441.57l1.5,5.5-2-1,.5-4.5Z"/>
      <path class="cls-3" d="M220.11,444.57l1,2,.5-2c1.8-.73,2.47-.23,2,1.5l-5.5,8.5-1.5-.5-1.5,3.5-.5-1.5,2.5-4.5,1,2,.5-2.5-1-2,2.5-4.5Z"/>
      <path class="cls-3" d="M564.11,444.57l-1,2,1-2Z"/>
      <path class="cls-3" d="M513.11,449.57l.5,2.5h-1l.5-2.5Z"/>
      <path class="cls-3" d="M510.11,450.57l1,2-1-2Z"/>
      <path class="cls-3" d="M543.11,450.57l-1,2,1-2Z"/>
      <path class="cls-3" d="M539.11,453.57l-2,3,2-3Z"/>
      <path class="cls-3" d="M534.11,458.57l-3,4,3-4Z"/>
      <path class="cls-3" d="M514.11,471.57c4.53-.87,7.7-.37,9.5,1.5l-2.5,3.5-21.5,4,1.5-3,13-6Z"/>
      <path class="cls-3" d="M495.11,480.57l2.5.5-2.5.5v-1Z"/>
      <path class="cls-3" d="M482.11,482.57l2.5.5-2.5.5v-1Z"/>
      <path class="cls-3" d="M501.11,483.57c3.53-.53,5.87.13,7,2h7c1.53-2.13,4.53-2.8,9-2v1l-9,4v-2c-6.87.67-11.53-.33-14-3Z"/>
      <path class="cls-3" d="M461.11,484.57l2.5.5-2.5.5v-1Z"/>
      <path class="cls-3" d="M450.11,486.57l5.5.5-5.5.5v-1Z"/>
      <path class="cls-3" d="M431.11,488.57l2.5.5-2.5.5v-1Z"/>
      <path class="cls-3" d="M511.11,488.57l2.5.5-2.5.5v-1Z"/>
      <path class="cls-3" d="M422.11,489.57l2.5.5-2.5.5v-1Z"/>
      <path class="cls-3" d="M617.11,489.57l.5,11.5-2,1,1-1,.5-11.5Z"/>
      <path class="cls-3" d="M500.11,490.57l2.5.5-2.5.5v-1Z"/>
      <path class="cls-3" d="M404.11,491.57l2.5.5-2.5.5v-1Z"/>
      <path class="cls-3" d="M481.11,493.57l2.5.5-2.5.5v-1Z"/>
      <path class="cls-3" d="M378.11,494.57l2.5.5-2.5.5v-1Z"/>
      <path class="cls-3" d="M472.11,494.57l3.5.5-3.5.5v-1Z"/>
      <path class="cls-3" d="M370.11,495.57l2.5.5-2.5.5v-1Z"/>
      <path class="cls-3" d="M465.11,495.57l8.5,1.5-15,2.5c.93-2.47-.57-3.13-4.5-2l-1,1h-9v-1l20-1,1-1Z"/>
      <path class="cls-3" d="M527.11,495.57l2.5.5-2.5.5v-1Z"/>
      <path class="cls-3" d="M362.11,496.57l2.5.5-2.5.5v-1Z"/>
      <path class="cls-3" d="M353.11,497.57l2.5.5-2.5.5v-1Z"/>
      <path class="cls-3" d="M436.11,497.57l5.5.5-5.5.5v-1Z"/>
      <path class="cls-3" d="M345.11,498.57l2.5.5-2.5.5v-1Z"/>
      <path class="cls-3" d="M419.11,498.57l7.5.5c-1.8,1.53-4.63,2.03-8.5,1.5l1-2Z"/>
      <path class="cls-3" d="M492.11,499.57l3.5.5-3.5.5v-1Z"/>
      <path class="cls-3" d="M410.11,500.57l6.5.5-6.5.5v-1Z"/>
      <path class="cls-3" d="M473.11,500.57l6.5.5-6.5.5v-1Z"/>
      <path class="cls-3" d="M370.11,501.57l4.5,2.5-4.5,2.5h-22v-1c8.47-.2,15.8-1.53,22-4Z"/>
      <path class="cls-3" d="M402.11,501.57l4.5.5-4.5.5v-1Z"/>
      <path class="cls-3" d="M394.11,502.57l3.5.5-3.5.5v-1Z"/>
      <path class="cls-3" d="M437.11,502.57l2.5.5-2.5.5v-1Z"/>
      <path class="cls-3" d="M508.11,502.57l7.5.5-15.5,7.5c-.47-2.47-2.47-3.47-6-3l-13,4-4,3-8,1v-1c2.93,1,4.1.5,3.5-1.5l.5-1.5c-5.53.93-9.7.43-12.5-1.5l4-1-11-1,12.5-.5,3.5,1.5-3,1,3.5.5,5.5-2.5-.5-1.5,18-1,15-3Z"/>
      <path class="cls-3" d="M385.11,503.57l3.5.5-3.5.5v-1Z"/>
      <path class="cls-3" d="M376.11,504.57l4.5.5-4.5.5v-1Z"/>
      <path class="cls-3" d="M284.11,505.57l2.5.5-3.5,1.5,1-2Z"/>
      <path class="cls-3" d="M413.11,505.57l7.5.5-3,1,2,1-2.5.5-4-2v-1Z"/>
      <path class="cls-3" d="M409.11,506.57l2.5.5-2.5.5v-1Z"/>
      <path class="cls-3" d="M424.11,508.57l16.5.5-16.5.5v-1Z"/>
      <path class="cls-3" d="M384.11,509.57l8.5.5-8.5.5v-1Z"/>
      <path class="cls-3" d="M446.61,512.57l6,.5-5.5,1.5-.5-2Z"/>
      <path class="cls-3" d="M453.11,515.57l2.5.5-2.5.5v-1Z"/>
      <path class="cls-3" d="M461.11,515.57l6.5.5-8.5,1.5v-1l2-1Z"/>
      <path class="cls-3" d="M453.11,533.57l1,2-1-2Z"/>
      <path class="cls-5" d="M308.11,19.57l290.5,155v128.5l-1.5,1.5-12,10-.5-65.5-1-2.5-18.5-9-9-2-37,23-18.5,16.5-1.5,2.5-2,1-5-4h-3l-35,27-11.5-26-7.5,2-43.5-92.5-33-66-2.5-2.5-16-6-27-13-6-1-42,18-6.5,4.5-76.5,158.5-6-2-13.5,29-16.5-10-24-18-10,5-5,1-3.5-4.5-4.5-16.5c-.6,12.07-4.27,21.07-11,27l-6.5-4.5c.73-2.2.23-3.03-1.5-2.5v-1c1.73.53,2.23-.3,1.5-2.5l-11-16v-4l1.5.5,4,1,1.5-2.5-9-12-4.5-18.5-1.5,1.5v5l-4,13c-3.8,3.87-6.47,8.87-8,15l1.5-.5,1.5.5v2l1,2-6.5,8.5-5-6-9.5-7-.5,55c-3.73-4.8-8.23-8.47-13.5-11v-129.5l1.5-.5L308.11,19.57ZM309.61,36.57L37.61,183.57l-3,1v28l13-4h9l9,3,10,7,10,12,8,3,6,5,1-4,4-1h2l3-2v3l6-1,3,1c.67-2,0-2.67-2-2h-2l-1-2,10-1,2-4h13l1,1h4l-1-1v-1l16,3h11l1-1,2,1,1-1h20l3-5-43-25v-1l24,6,24,9,7-14-22-18h-18l-1,1h-51l-1-1h-14l-4-1,12-6c3.33-.67,5.67-.33,7,1h3c2-3.33,5.67-5.33,11-6l6,2,1-2,11-7h5l8,4,1,3,6,5h10l1,1h4l-6-6-5-6,8,4,1,4,3,2,9,3,3,3,18,9,10-20-28-37,1-2,6,6,27,20,10-19-5-10h1c-.67,1.33,0,1.67,2,1l1-6,5,6,7-14,10-6-5-21,1-2,12,20,34-14,6-4,10,6,29,12,10-18h1l-4,21,10,5,6,13,4-3,4,3c.67,4-.33,7-3,9l10,21,4-1,26-21,4-3-28,37,10,21,39-21h1l-3,4-3,2-16,17-12,10,7,13,25-9,22-6h1l-11,8-25,13-6,5,6,8c3.33-1.33,8.33-1.67,15-1l1-1h11l7-2,12-1c.67-1.33,1.33-1,2,1l-6,2v1l5-2-1,2c.67,1.33,1.67,1.33,3,0,1.33,2,4,2.67,8,2l1,3,2-1,3,1,2-1h4l3,1,3,1,21-3h2l7-2,7-10,16-10,10-2,11,1,7,3v-28l-19-9-159-85-96-53ZM458.61,232.57l-1,2h4l-3-2ZM35.61,251.57l-1,8h1v-8Z"/>
      <path class="cls-5" d="M224.11,100.57l5.5,6.5c-1,2-2,2-3,0l-2.5-6.5Z"/>
      <path class="cls-5" d="M390.11,101.57l-.5,1.5-2.5,5.5-.5-3.5,3.5-3.5Z"/>
      <path class="cls-5" d="M308.11,117.57l34.5,15,23,49.5-1.5-.5-4.5-2,1,8.5,9,32,6,16,1,7,13,41-3-2-9-14c-4.07-12.27-9.57-23.1-16.5-32.5l-.5,2.5,21,59-1,5,7,17.5,40.5-20,31.5,66.5-3-2-25.5-34.5-.5,1.5,14,34-13-12-29.5-31.5-.5,1.5,2,2,4,16,8,22-.5,1.5,1.5.5-.5,1.5c1.73-.53,2.23.3,1.5,2.5l1,3.5-3.5-1-8.5-7.5-4.5-5.5-.5,2.5,20,29-1.5-.5-30-15-29-12-10-6-.5,1.5,35,32-2.5-1.5-21-12-46-32-8-4-45,31-30,18,5-6,28.5-26.5-1.5-.5-69,33,2.5-3.5,13-18,2-8-12,11-2.5,3.5c-1.73.53-2.23-.3-1.5-2.5l17-49.5-3,1.5-37.5,39.5-.5-1.5,13-30v-5l4-15v-10l-.5-1.5,38,19,7.5-17.5,9-31,17-49-2,1-14,28c-1.53,8.13-4.2,15.13-8,21l-10.5,15.5-.5-1.5,17-50,13-45,3-6v-4l10-30v-5l6-14.5,32.5-14ZM307.61,193.57l-15,35-42,85-18,40v1l76-37,75,37h2l-76-158c.67-2.67,0-3.67-2-3Z"/>
      <path class="cls-5" d="M456.11,144.57c5.4-.4,8.9,1.1,10.5,4.5v2.5h5.5l1.5,2.5-1.5-.5-3,1h-2c-6.33,1-11.33.67-15-1h-2l-4.5-.5,5-4,2.5-3.5,3-1ZM457.61,147.57l-1,1c-2.67-.67-3.67,0-3,2,2.67.67,4.33,0,5-2l-1-1Z"/>
      <path class="cls-5" d="M164.11,150.57l4.5,2.5-10.5.5-1-2c3.67,1,6,.67,7-1Z"/>
      <path class="cls-5" d="M481.11,176.57h5l9,6c1.53-2.13,4.53-2.8,9-2l4,3h7c1.53,2.13,4.53,2.8,9,2l8,4h3.5l-.5,2h-82v-1l13-5h4l11-9Z"/>
      <path class="cls-5" d="M555.11,329.57l.5,1.5-4,6-3,12-2,25-1,1v11l-1,1-1.5,28.5-1.5-9.5-1.5-1.5c-2,.6-2.5-.57-1.5-3.5l-1-1v-10l-1-1-.5-29.5-1.5,2.5v5l-2,7v8l-1,1-1,16-2,9-2,27.5-2-.5v-14l-1-1v-11l-1-1v-11l-1-1v-17.5c-2.33-.73-3,1.43-2,6.5l-3,12-3,24-1.5,2.5-6.5-11.5v-8l1-1v-8l1-1,4-33c3.93-8.4,9.43-15.23,16.5-20.5l27-11Z"/>
      <path class="cls-5" d="M544.11,435.57h8c5.93,1.4,10.77,3.9,14.5,7.5l-4.5,3.5c-4.47-.8-7.47-.13-9,2h-7l-16.5,14.5-5,9.5-8.5-2-24,11-19,2-1,1h-14.5c1.2-4.2,3.7-7.53,7.5-10,3-3.33,7.67-5,14-5l6.5,2,2-8.5,7.5-8.5c2.67-3.33,7.33-4.67,14-4l4.5,3c-.67-4.67.5-8,3.5-10l4.5,1,3,7,8-6.5,6.5-7.5,5-2Z"/>
      <path class="cls-5" d="M490.11,484.57h9c3.73,2.07,8.57,2.73,14.5,2,.93,2.67-.9,3.33-5.5,2l-11,3-21,2-8,2h-8l-1,1-33,1-1,1h-43l-39,8-11.5,1,1-5-4-.5,13.5-2.5h7l1-1h7l1-1h7l1-1h7l1-1,33-3,8-2h10l1-1h8l9-2,46-2,1-1Z"/>
      <path class="cls-5" d="M524.11,496.57l3.5.5-9.5,4.5-2-1-23,4-33.5,2c1-2.53.5-3.53-1.5-3v-1l29-1,1-1h10l1-1h8l17-3Z"/>
      <path class="cls-5" d="M322.11,509.57h19l22.5,4c-.8,2,.03,2.67,2.5,2l3-1v1l-2.5.5,15.5,7.5,32,11,11.5,6.5-13.5,7.5-11,1-11.5-7.5-4.5-6.5-6.5-4.5c1.13-3.2.3-4.37-2.5-3.5l-9-4-17-4-19-7-7-1-2-2Z"/>
      <path class="cls-5" d="M372.11,515.57l3.5.5-3.5.5v-1Z"/>
      <path class="cls-5" d="M377.11,516.57l9.5,1.5-4.5.5-5-1v-1Z"/>
      <path class="cls-5" d="M404.11,528.57c4.87-.2,8.37.97,10.5,3.5l-2.5.5-8-3v-1Z"/>
      <path class="cls-6" d="M308.11,37.57l256.5,137.5-4.5,2.5h-61l-3,2-11-4h-4l-11,9-5,1v-1l1.5-.5-2-1,.5-1.5-13-1c-3.33,3.33-8,5.33-14,6l-3-1-6-3-.5,2-5.5,2,7.5-8.5,5.5-6.5,4.5-3.5,4-6-1.5.5-23,13-3-1-4,2c-4.07-.47-6.9-.13-8.5,1l-1,4.5,1,2-2-1-5-10,2-1v-2l.5-1.5,1.5.5,1-4.5,2-.5-7-4,24-34-1.5-.5-32,27-10.5-19.5v-3c5.93-9.07,10.6-19.4,14-31h-1l-18.5,22.5-7-13-8.5-3,4-24.5-2,1-10,18.5-37-15-2.5-21-.5,14.5-2.5,6.5-37,15-13-21-.5,1.5,2,5,3,18-9,4.5-7.5,15-21-25-.5,1.5,10,20,5,7,2,7-9.5,17.5-34-26-.5,1.5,28,38-5.5,9.5h-12l-1-1h-2l-5-3-11-3-21-12,11,12,3.5,2.5c-.47,1.53.03,2.03,1.5,1.5v1l-5-2h-9l-9-9c-2.93-2.07-7.27-2.73-13-2l-8.5,5-1.5,3c-2.13-1.53-5.47-1.87-10-1l-7,5h-12l-12.5,6.5,6.5,1.5h15l1,1h37l1,1,2-1h2l3,1,2-1h2l2-1h18l5.5,4.5-2.5.5-5,3h-44l-1,1-36,1-11,2,2-3,7.5-2v-2h-5v-1.5l-3-1.5-.5-2-1.5.5c-.47-1.47.03-1.97,1.5-1.5v-1l-43.5-.5L308.11,37.57ZM457.61,143.57l-6,2-2,4-5,4,4,2-9,2v1c6.67,1.33,10.67,0,12-4l4,1,49-3-2-3,1-2-3-3-29-1-3,6,1,1c-2,.67-2.67.33-2-1-2-3.33-5.33-5.33-10-6ZM165.61,144.57l-4,2,5,2,1-2-2-2ZM162.61,149.57l-1,1c-4.67-.67-6.67,0-6,2l4,2h10v-1c-.67-3.33-3-4.67-7-4ZM410.61,158.57l-2,3,2-1v-2ZM405.61,162.57c0,2.67.67,3,2,1l-2-1Z"/>
      <path class="cls-6" d="M493.11,179.57l3.5,1.5-2.5.5-1-2Z"/>
      <path class="cls-6" d="M578.11,318.57l1.5.5-2.5,4.5-3.5,1v2.5l-5,6.5-7.5,2-1.5-2.5,6.5-8.5,12-6Z"/>
      <path class="cls-6" d="M33.11,321.57l.5,2.5h-1l.5-2.5Z"/>
      <path class="cls-6" d="M585.11,328.57l.5,7.5h-1l.5-7.5Z"/>
      <path class="cls-6" d="M31.11,332.57l1.5,2.5v15h-1l-.5-3.5-1,2-.5-3,2-.5-2-.5-2-8.5,3-1.5.5-2Z"/>
      <path class="cls-6" d="M75.11,336.57l3.5,1.5-1.5.5-2-2Z"/>
      <path class="cls-6" d="M585.11,341.57l.5,4.5h-1l.5-4.5Z"/>
      <path class="cls-6" d="M98.11,454.57l2.5.5-3.5,1.5,1-2Z"/>
      <path class="cls-6" d="M101.61,455.57l15.5,3,4,2h4l18,6,7,4,1.5-.5.5,1.5h6c1.27,2.4,3.93,3.4,8,3l9,6,1.5-.5.5,1.5,1.5-.5.5,1.5,1.5-.5.5,1.5h2l13,7h4.5c-.73,1.8-.23,2.47,1.5,2,21.47,11.87,40.63,26.03,57.5,42.5l-1.5-.5-20-9-42-24-60-27,4.5,5.5,5,6-2.5.5-16-10-7-7h-3.5l-.5-3-2.5,1.5c2.53,1.2,2.7,2.37.5,3.5l-8-3-3-3h-2.5l-1-4.5c2-.8,2.67-2.63,2-5.5ZM112.61,466.57l-2,2h2v-2Z"/>
      <path class="cls-6" d="M202.11,482.57c.87,2.47,2.7,3.47,5.5,3l1,2.5-2.5,1.5-4.5-3.5.5-3.5Z"/>
      <path class="cls-6" d="M217.11,496.57l32,8,53.5,20.5-14,2,6,5-1.5.5-12-6-25-9-33-18-6-2v-1Z"/>
      <path class="cls-6" d="M223.11,553.57l40,6,1,1h12c1-1.67,3.33-2,7-1l3,1,2-2h8l8-2,4,1c.67-2,2.67-2.67,6-2,1.2,1.87,3.87,2.2,8,1v-1l-1.5-.5,3.5-.5,4.5,1.5-.5,1.5c2.2-.73,3.03-.23,2.5,1.5h1l.5-1.5.5,2.5v2c-.6,2,.57,2.5,3.5,1.5l3.5-1.5-2-.5-.5-3-1,2-1.5-3.5,1.5.5c1.53.53,2.03.03,1.5-1.5l-.5-1.5,11-1,12.5,3.5c-7.33,1-13.5,3.17-18.5,6.5l-11,1-6,2h-15l-2.5,1-1,2.5,8.5,2.5,33.5,1.5-7.5,1.5-23,9-8.5,1-2-12-5.5-1-2,1-12-6-7-1-11-4v1l11.5,5.5-4.5,1.5h-18l-24-12-10-3-2-2Z"/>
      <path class="cls-6" d="M369.11,559.57l5.5,1-.5,2-5-2v-1Z"/>
      <path class="cls-6" d="M431.11,566.57l.5,2.5-2,1,1.5-3.5Z"/>
      <path class="cls-7" d="M598.11,308.57l.5,2.5v180l-1.5.5-128,70h-2l-3,1v-2l-3-1-25,13h-3c-1.67-.67-2.17-2.5-1.5-5.5l.5-2.5,2,1v-2l1.5.5.5-1.5,1.5.5.5-1.5,1.5.5,1.5-2.5,143.5-77v-83.5l-1-1,1-1v-50l1-1v-17l-1-1v-8l13.5-11.5Z"/>
      <path class="cls-7" d="M19.11,309.57h2l8.5,7.5.5,1.5c.87-1.53,1.7-1.37,2.5.5v2l1,4-1,1-.5,8.5-1-2-.5,2-3,1.5,6,33v113l1.5,1.5,137.5,74.5.5,1.5,1.5-.5-.5,1.5,2-1v2l2-1v2l2-1,1,3,1.5-.5-.5-1.5,1,3,2-1-1.5,2.5,2,2,2,3-.5,2.5-7-2-16-8,.5,1.5c-.47,1.53.03,2.03,1.5,1.5v1l-3,1v-2l-2,1v-2l-2,1-1-3-1.5.5.5,1.5-1-3-2,1v-2l-2,1-1-2h-2l-2.5-1.5-.5-1.5-1.5.5.5-1.5-2,1v-2l-2,1v-2l-2,1v-2l-2,1v-2l-2-1-1.5.5-.5-1.5h-2l-111.5-60v-180.5l-.5-1.5Z"/>
      <path class="cls-7" d="M68.61,309.57l6.5,1,12.5,11.5,3,4c-1,2-3.5,2.5-7.5,1.5l-3-1v1l2.5,1.5-1.5.5-5.5-4.5-7-9-1-4,1-2.5Z"/>
      <path class="cls-7" d="M579.11,319.57l.5,4.5-9,8-3,6-2.5,11.5-3-1c-2.93-1-4.1-.5-3.5,1.5l-2.5,5.5-.5-15.5c1.6-6.73,4.77-11.9,9.5-15.5l-3.5,4.5-2,5c.53,1.53,2.03,2.03,4.5,1.5.73-1.8,2.23-2.47,4.5-2l5-6.5v-2.5l5-2.5.5-2.5Z"/>
      <path class="cls-7" d="M568.11,322.57l-1,2,1-2Z"/>
      <path class="cls-7" d="M60.11,328.57l5,1,10,5,22.5,18.5,1,3.5-3.5,1-12-3-10-8-.5,1.5,1,2-1,1,4,4,11.5,12.5,8.5,7.5,7,11.5-8.5-2-15.5-13.5h2l-5.5-6.5h-2l-7.5-7.5-5.5-8.5-4-1-12,8-.5-2c-1.8.73-2.47.23-2-1.5l12.5-13.5c1.53.53,2.03.03,1.5-1.5l-1.5.5c-3.13.53-4.97-.3-5.5-2.5,2.4-3.27,5.9-5.43,10.5-6.5Z"/>
      <path class="cls-7" d="M106.11,330.57l17.5,19.5-1,5.5-4-.5,2-1-10-8-4-7-.5-8.5Z"/>
      <path class="cls-7" d="M584.11,330.57l.5,4.5h-1l.5-4.5Z"/>
      <path class="cls-7" d="M577.11,332.57l-.5,1.5v8l-2,8-4.5,5.5-1.5-5.5,2-10,6.5-7.5Z"/>
      <path class="cls-7" d="M519.11,337.57l3.5.5-19,14.5-6.5,8-3.5,2.5,1,2.5c-2.4,1.73-5.73,2.4-10,2v-2.5l8-8c1.87-5.8,5.03-10.3,9.5-13.5l17-6Z"/>
      <path class="cls-7" d="M113.61,359.57h1.5l9.5,9.5,4,8-2.5,5.5-4.5-2c.53-3.13-.63-5.13-3.5-6l-5.5-4.5-1-3,3,1-1-8.5Z"/>
      <path class="cls-7" d="M75.11,377.57l10.5,8.5,2,3-3-2c.53-1.47.03-1.97-1.5-1.5l-3.5-2.5-2.5-3.5-2-2Z"/>
      <path class="cls-7" d="M74.11,382.57l6.5,9.5-4-3-2-3-.5-3.5Z"/>
      <path class="cls-7" d="M563.11,385.57c2.4,1.4,3.57,3.73,3.5,7l-6,4.5-6.5,11.5-2,1-.5-5.5c2.33-7.67,6.17-13.83,11.5-18.5Z"/>
      <path class="cls-7" d="M576.11,441.57c2.27-.6,2.77.9,1.5,4.5l-12.5,15.5c-2.47.87-3.3.03-2.5-2.5,1.6-6.73,4.77-11.9,9.5-15.5l4-2Z"/>
      <path class="cls-7" d="M40.11,446.57l32,2,27.5,5.5-2,1,2.5.5,3-1v1c-2-.6-2.5.57-1.5,3.5l-2,4,1,2.5h2.5l3,3,8,3,1.5-1.5-1.5-2.5,2-1,.5,3h3.5l7,7,16,10h2l-4.5-5.5-6-7,1.5.5,60,27,42,24,20,9-3-4c-16.13-15.07-34.3-27.73-54.5-38,.87-2.47-.63-3.13-4.5-2l-3.5-2.5,1-2-3-10c.87-1.8,1.7-1.97,2.5-.5,1.53-.47,2.03.03,1.5,1.5l5,4c-.47-1.47.03-1.97,1.5-1.5l3.5,5,4,1.5c-.6,2,.57,2.5,3.5,1.5.87-1.53,2.87-1.87,6-1l-3.5,4.5-2,3,5,2-.5,1.5,6,2,33,18,38,15-2-3-3.5-2.5c6.2.2,11.37-.63,15.5-2.5l36.5,15.5-2.5.5-25-5v1l3.5,1.5c-1.8,1.53-4.63,2.03-8.5,1.5l-3,2-.5-2-3.5-1h-22l-19-5,2,3,11.5,8.5-5.5.5-1-1-12-1-16-5-19.5-17.5-2.5-3.5-3-1,.5,1.5,5,10-1.5-.5-47-27,5.5,6.5,7,12,2,8.5-6.5-4-23-20-21-15-.5,1.5c5.47,7.87,9.8,16.87,13,27l-29.5-28.5-14-10-.5,1.5c6.8,6.13,11.13,14.8,13,26l-2.5.5c-7.8-8.2-14.47-17.53-20-28l-.5,1.5,3,6-12.5-11.5-8-6,2.5,3.5c3.67,5,6,11.33,7,19l-5.5,3.5-18-26-.5,4.5c1.8,1.2,2.13,3.87,1,8v2l-.5,1.5-12.5-21c-2.47-.93-3.13.57-2,4.5l2,6v5l-3.5-2.5-6.5-4v-23.5l1-1-.5-1.5ZM202.61,482.57l-1,4,5,3,2-1-1-3c-2.67.67-4.33-.33-5-3Z"/>
      <path class="cls-7" d="M475.11,453.57l4.5,1c.73,1.8.23,2.47-1.5,2l-11,6-1.5-4,9.5-5Z"/>
      <path class="cls-7" d="M147.11,454.57l5,1,7.5,5.5,2.5,3.5c1.73.47,2.23-.2,1.5-2h3.5l3.5-1-1,5,6.5-1c2.2,1.2,2.03,2.37-.5,3.5l-1.5,2.5-6.5,3.5.5,1.5-2-2-12.5-3.5,2-.5-1-4.5-5-5-2.5-6.5Z"/>
      <path class="cls-7" d="M453.11,460.57c4.67-.47,8.17-.13,10.5,1,.93,2.47-.57,3.13-4.5,2-1.87,2.47-5.2,3.47-10,3l-7,5h-3v-1l14-10Z"/>
      <path class="cls-7" d="M112.11,466.57l.5,2-2-.5,1.5-1.5Z"/>
      <path class="cls-7" d="M220.11,496.57l2.5.5-2.5.5v-1Z"/>
      <path class="cls-7" d="M228.11,498.57l6.5,1.5-2.5.5-4-1v-1Z"/>
      <path class="cls-7" d="M236.11,500.57l2.5.5-2.5.5v-1Z"/>
      <path class="cls-7" d="M139.11,521.57l6.5,2,.5,2,1.5-.5-.5,2.5-7-4-1-2Z"/>
      <path class="cls-7" d="M298.11,522.57l3.5,1.5-1.5.5-2-2Z"/>
      <path class="cls-7" d="M165.11,531.57l9.5,4.5-5.5.5-2.5-1c1-2.47.5-3.47-1.5-3v-1Z"/>
      <path class="cls-7" d="M184.11,545.57l41.5,7.5-3,1,12.5,4.5,24,12h18l4.5-1.5-14-7,1.5-.5,12,5,7,1,13,6h2c3.6-1.27,5.1-.77,4.5,1.5l2,10.5,8.5-1,23-9,7.5-1.5-33.5-1.5-8.5-2.5,1-2.5,2.5-1h15l6-2,11-1c5.67-3.67,12.67-6,21-7l7.5,2.5-2,1,5.5,2.5.5-2-3-.5,2.5-.5,22.5,6.5-72.5,38.5-16,7v-1l6.5-2.5-2.5-.5-3,2-.5-2.5c.33-2.67-.5-4.17-2.5-4.5l-3.5,1c.87-2,.03-2.67-2.5-2v1l1.5.5-1,2,.5,2.5,3.5,1.5-1.5.5-5.5-3.5.5-1.5-2,1-5.5-3.5,1.5.5,2,1,3.5-1.5-3.5-2.5-1,2-.5-2-4.5,2-4.5-3.5-1-3.5,2-.5-5.5-1.5-1,2,2.5,1.5-1.5.5-86-45-9-5v-1ZM339.61,567.57v1h2l-2-1ZM331.61,568.57v1h4l-4-1ZM324.61,569.57v1h5l-5-1ZM294.61,596.57v1h2l-2-1ZM297.61,597.57v1h2l-2-1ZM306.61,599.57v1h4l-4-1Z"/>
      <path class="cls-7" d="M335.11,552.57l9.5.5-9.5.5v-1Z"/>
      <path class="cls-7" d="M227.11,553.57l4.5.5-4.5.5v-1Z"/>
      <path class="cls-7" d="M326.11,553.57l4.5.5-4.5.5v-1Z"/>
      <path class="cls-7" d="M349.11,553.57l2.5.5-2.5.5v-1Z"/>
      <path class="cls-7" d="M233.11,554.57l4.5.5-4.5.5v-1Z"/>
      <path class="cls-7" d="M317.11,554.57l3.5.5-3.5.5v-1Z"/>
      <path class="cls-7" d="M240.11,555.57l2.5.5-2.5.5v-1Z"/>
      <path class="cls-7" d="M306.11,555.57l3.5.5-3.5.5v-1Z"/>
      <path class="cls-7" d="M246.11,556.57l2.5.5-2.5.5v-1Z"/>
      <path class="cls-7" d="M300.11,556.57l2.5.5-2.5.5v-1Z"/>
      <path class="cls-7" d="M252.11,557.57l3.5.5-3.5.5v-1Z"/>
      <path class="cls-7" d="M294.11,557.57l2.5.5-2.5.5v-1Z"/>
      <path class="cls-7" d="M258.11,558.57l2.5.5-2.5.5v-1Z"/>
      <path class="cls-7" d="M285.11,558.57l2.5.5-2.5.5v-1Z"/>
      <path class="cls-7" d="M267.11,559.57l9.5.5-9.5.5v-1Z"/>
      <path class="cls-7" d="M459.11,564.57l1,2-1-2Z"/>
      <path class="cls-7" d="M187.11,565.57l-1,2,1-2Z"/>
      <path class="cls-7" d="M457.11,565.57c2,1,2,2,0,3v-3Z"/>
      <path class="cls-7" d="M189.11,566.57l5.5,3.5-1.5-.5c-2.67-.33-4-1.33-4-3Z"/>
      <path class="cls-7" d="M169.11,571.57l3.5,2.5-1.5-.5-2-2Z"/>
      <path class="cls-7" d="M447.11,572.57l-1,2,1-2Z"/>
      <path class="cls-7" d="M206.11,591.57l1,2-1-2Z"/>
      <path class="cls-7" d="M224.11,601.57l1,2-1-2Z"/>
      <path class="cls-4" d="M269.11,146.57l.5,2.5-1.5,2.5-1-2,1.5-.5c-1.47-.8-1.3-1.63.5-2.5Z"/>
      <path class="cls-4" d="M1.11,165.57l.5,23.5H.61l.5-23.5Z"/>
      <path class="cls-4" d="M617.11,165.57l.5,28.5h-1l.5-28.5Z"/>
      <path class="cls-4" d="M598.11,173.57l1.5,1.5v128l-2,1,1-1v-128l-.5-1.5Z"/>
      <path class="cls-4" d="M617.11,196.57l.5,198.5h-1l.5-198.5Z"/>
      <path class="cls-4" d="M558.11,236.57l7,2,18.5,9.5v56l-3.5.5-16.5,9-4-7.5-3-12-1.5-1.5-10.5,22.5-2,8-3.5,4.5c-6.73.73-11.23-.77-13.5-4.5-3.33-3.67-5.17-8.83-5.5-15.5-3,3-3.83,8.17-2.5,15.5l-2.5,3.5-3.5-14.5,1-2.5c2.47,1,3.47.5,3-1.5h-2l19.5-13.5,11.5-11.5,2-5-1.5.5-2.5.5.5,1.5-4-1-10,5,16.5-17.5,3.5-4.5,3,1,4.5-10.5,1-14,1-1-.5-1.5Z"/>
      <path class="cls-4" d="M221.11,243.57l.5,1.5-2,1,1.5-2.5Z"/>
      <path class="cls-4" d="M75.11,254.57l1,2-1-2Z"/>
      <path class="cls-4" d="M57.11,257.57l1,2-1-2Z"/>
      <path class="cls-4" d="M70.11,258.57l.5,2.5h-1l.5-2.5Z"/>
      <path class="cls-4" d="M35.11,261.57l2,3,11,9,1.5-.5-4,7.5,11.5-3-.5,1.5-2,5-14,17-1,4.5c5.93.73,10.27-.27,13-3l-1,5.5-14.5,16.5c-2,.33-2.5-1.83-1.5-6.5l-6-5,3.5,2.5,1.5-.5.5-53.5Z"/>
      <path class="cls-4" d="M99.11,264.57l1.5,3.5-2-1,.5-2.5Z"/>
      <path class="cls-4" d="M440.11,275.57l2.5,1.5-1.5-.5-1-1Z"/>
      <path class="cls-4" d="M72.11,276.57l3.5,1.5-1.5.5-2-2Z"/>
      <path class="cls-4" d="M75.11,283.57l1,2-1-2Z"/>
      <path class="cls-4" d="M107.11,283.57l2.5,3.5h-1l-1.5-3.5Z"/>
      <path class="cls-4" d="M92.11,284.57l-1,2,1-2Z"/>
      <path class="cls-4" d="M94.11,286.57l1.5,2.5h-1l-.5-2.5Z"/>
      <path class="cls-4" d="M78.11,287.57l1,2-1-2Z"/>
      <path class="cls-4" d="M84.11,288.57l9,3,1.5-.5-8,11.5,6,.5-5.5,8.5c-1.47.53-1.97.03-1.5-1.5l-6-5-6-8-1-5,2.5,1.5,6.5,1-1-2.5c1.33,1.13,2.67.47,4-2l-.5-1.5Z"/>
      <path class="cls-4" d="M104.11,288.57l2,3,3-1h3l6.5,4.5,10.5,12.5,5.5,4.5-2.5.5-9-5-5.5-1-2-4h-2.5l-3,1-3-1v1c1.53-.47,2.03.03,1.5,1.5l.5,1.5c-2.47.87-3.3.03-2.5-2.5l-2-3,1.5.5,6,1-2.5-3.5-5.5-10.5Z"/>
      <path class="cls-4" d="M418.11,289.57l.5,1.5-4,3,3.5-4.5Z"/>
      <path class="cls-4" d="M199.11,292.57l9,10-9-10Z"/>
      <path class="cls-4" d="M408.11,300.57l-3,4,3-4Z"/>
      <path class="cls-4" d="M188.11,302.57l-1,2,1-2Z"/>
      <path class="cls-4" d="M507.61,303.57l2,.5v2l2,4h-2l-2,8v2l-3,12-3.5,3.5-13,12-5-12c-.93,6.4-2.93,11.73-6,16l-7.5-14.5c1.2,1.07,2.37.57,3.5-1.5l11-9c.87,2.87,3.53,3.87,8,3l7.5-7.5,8-15v-3.5Z"/>
      <path class="cls-4" d="M212.11,304.57l9,10c-1.47.53-1.97.03-1.5-1.5h-2l1-1-6.5-7.5Z"/>
      <path class="cls-4" d="M23.11,306.57l2,3-2-3Z"/>
      <path class="cls-4" d="M108.11,307.57l4.5,4.5-.5,1.5c1.73-.53,2.23.3,1.5,2.5l1,2.5,13,3,1.5-7,9,17,7-1,2.5,1,1,4.5-13.5,26.5-13.5-19.5-3-8-14-17c.87-1.8,1.7-1.97,2.5-.5,3.13-.8,5.13-.47,6,1l.5-1.5-4-3c-.47-1.47.03-1.97,1.5-1.5l-3-5ZM133.61,339.57l-1,3h1v-3Z"/>
      <path class="cls-4" d="M593.11,307.57l-4,5,4-5Z"/>
      <path class="cls-4" d="M599.11,308.57l.5,80.5h-1l.5-80.5Z"/>
      <path class="cls-4" d="M19.11,310.57l.5,180.5h-1l.5-180.5Z"/>
      <path class="cls-4" d="M68.11,310.57l-.5,1.5-.5,1.5-.5-1.5,1.5-1.5Z"/>
      <path class="cls-4" d="M397.11,311.57v3l-1.5-.5c.53,1.53.03,2.03-1.5,1.5l-1.5.5,4.5-4.5Z"/>
      <path class="cls-4" d="M29.11,315.57l1,2-1-2Z"/>
      <path class="cls-4" d="M70.11,317.57l2,3-2-3Z"/>
      <path class="cls-4" d="M34.11,319.57l.5,4.5h-1l.5-4.5Z"/>
      <path class="cls-4" d="M584.11,320.57l.5,9.5h-1l.5-9.5Z"/>
      <path class="cls-4" d="M74.11,322.57l1,2-1-2Z"/>
      <path class="cls-4" d="M464.11,323.57l2,4,1.5-.5-1,2,3,6h-1l-5-10,.5-1.5Z"/>
      <path class="cls-4" d="M212.11,325.57l-.5,1.5-3,9-17.5,30.5-1.5-2.5,3-6c-1.47-.8-1.3-1.63.5-2.5l1.5-.5v-2l13-21-1-1,5.5-5.5Z"/>
      <path class="cls-4" d="M405.11,325.57l1.5,3.5h-1l-.5-3.5Z"/>
      <path class="cls-4" d="M577.11,325.57l-.5,1.5c-.47,1.73.2,2.23,2,1.5v4.5l-1.5,7.5-1.5-7.5,1-2-2,1-1.5,2.5-4.5,3.5-.5,1.5-.5-1.5c1.93-5.4,5.1-9.57,9.5-12.5Z"/>
      <path class="cls-4" d="M80.11,326.57l8.5,1.5-3,.5c.73,2.2-.27,2.87-3,2l-1.5-3-1-1Z"/>
      <path class="cls-4" d="M107.11,330.57l8,9-8-9Z"/>
      <path class="cls-4" d="M106.11,332.57l.5,5.5h-1l.5-5.5Z"/>
      <path class="cls-4" d="M50.11,333.57c-1.07,1.2-.57,2.37,1.5,3.5.6,2-.57,2.5-3.5,1.5l-2,1-2.5-1.5,6.5-4.5Z"/>
      <path class="cls-4" d="M184.11,333.57l.5,1.5-1.5,2.5-.5-1.5,1.5-2.5Z"/>
      <path class="cls-4" d="M204.11,333.57l-3,4,3-4Z"/>
      <path class="cls-4" d="M575.11,334.57l-4,5,4-5Z"/>
      <path class="cls-4" d="M584.11,335.57l.5,61.5h-1l.5-61.5Z"/>
      <path class="cls-4" d="M520.11,339.57l-2,3,2-3Z"/>
      <path class="cls-4" d="M527.11,340.57l-1,2,1-2Z"/>
      <path class="cls-4" d="M106.11,341.57l3,5,.5-1.5-.5-1.5,6,7,5.5,3.5-2.5,1.5-11.5-10.5-.5-3.5Z"/>
      <path class="cls-4" d="M118.11,342.57l2,3-2-3Z"/>
      <path class="cls-4" d="M195.11,342.57l-1,2,1-2Z"/>
      <path class="cls-4" d="M576.11,342.57l.5,2.5h-1l.5-2.5Z"/>
      <path class="cls-4" d="M50.11,343.57l-4,5,4-5Z"/>
      <path class="cls-4" d="M415.11,343.57l10.5,13.5-1,2c1.33-1.13,2.67-.47,4,2l-3-1,4,9h-1l-.5-1.5-1.5.5,1-2h-2l1-2h-2l1-2h-2l1-2-9.5-16.5Z"/>
      <path class="cls-4" d="M555.11,344.57l1,11,2.5-7,4.5,1,2.5-.5.5-2.5.5,2.5-1,1-2,18-8.5,15.5v-39Z"/>
      <path class="cls-4" d="M513.11,345.57l1.5.5-10,14-2,6v6c-2.47,5.53-3.8,12.2-4,20l-1.5,2.5c-3-2.67-4.17-7.17-3.5-13.5,1-6.33,3-11.67,6-16v-3h-1l-1,4-8.5,10.5-4.5-8.5,10-2.5-1-2.5,10-9c-.47-1.47.03-1.97,1.5-1.5l8-7Z"/>
      <path class="cls-4" d="M569.11,345.57l.5,3.5h-1l.5-3.5Z"/>
      <path class="cls-4" d="M121.11,346.57l3.5,3.5-1.5,1.5.5-1.5-2.5-3.5Z"/>
      <path class="cls-4" d="M575.11,346.57l.5,3.5-7.5,14.5-.5-2.5,1-1,.5-9.5,1,4c3-1.67,4.67-4.67,5-9Z"/>
      <path class="cls-4" d="M57.11,347.57l2.5.5-3.5,1.5,1-2Z"/>
      <path class="cls-4" d="M61.11,348.57l3.5,4.5-2-1-1.5-3.5Z"/>
      <path class="cls-4" d="M54.11,349.57l-1,2,1-2Z"/>
      <path class="cls-4" d="M74.11,349.57l-1,2,1-2Z"/>
      <path class="cls-4" d="M518.11,349.57l-1,2,1-2Z"/>
      <path class="cls-4" d="M42.11,352.57l2.5,1,.5,2,1.5-.5-9,4.5c.33-3.13,1.83-5.47,4.5-7Z"/>
      <path class="cls-4" d="M123.11,353.57l.5,1.5c-1.33,3-2.67,3.33-4,1l3-.5.5-2Z"/>
      <path class="cls-4" d="M65.11,354.57l1,2-1-2Z"/>
      <path class="cls-4" d="M77.11,355.57l1,2-1-2Z"/>
      <path class="cls-4" d="M92.11,356.57l2.5.5-2.5.5v-1Z"/>
      <path class="cls-4" d="M492.11,356.57l-1,2,1-2Z"/>
      <path class="cls-4" d="M190.11,359.57l-1,2,1-2Z"/>
      <path class="cls-4" d="M117.11,360.57l4,5-4-5Z"/>
      <path class="cls-4" d="M71.11,361.57l10.5,8.5-.5,1.5-10-10Z"/>
      <path class="cls-4" d="M159.11,361.57l.5,1.5-1.5,2.5-.5-1.5,1.5-2.5Z"/>
      <path class="cls-4" d="M188.11,362.57l-2,3,2-3Z"/>
      <path class="cls-4" d="M429.11,362.57l1,2-1-2Z"/>
      <path class="cls-4" d="M86.11,364.57l2,3-2-3Z"/>
      <path class="cls-4" d="M107.11,364.57l6,2,1.5-.5-.5,2.5-2.5-1.5,5.5,7.5,4.5,3.5c.53,1.53.03,2.03-1.5,1.5l-13.5-11.5-1-2,1.5-1.5ZM107.61,365.57l1,2c.67-2,.33-2.67-1-2Z"/>
      <path class="cls-4" d="M431.11,365.57l2,3-2-3Z"/>
      <path class="cls-4" d="M185.11,366.57l-2,3,2-3Z"/>
      <path class="cls-4" d="M312.11,367.57l1,2-1-2Z"/>
      <path class="cls-4" d="M547.11,367.57l.5,2.5h-1l.5-2.5Z"/>
      <path class="cls-4" d="M303.11,368.57l-1,2,1-2Z"/>
      <path class="cls-4" d="M462.11,369.57l2.5,5.5h-1l-1.5-5.5Z"/>
      <path class="cls-4" d="M568.11,369.57l.5,14.5h-1l.5-14.5Z"/>
      <path class="cls-4" d="M182.11,370.57l-1,2,1-2Z"/>
      <path class="cls-4" d="M187.11,370.57l.5,1.5-8,16,1,3-1,9-4,12,2-1,1-3.5,7.5-4,.5,1.5c-1.47.87-1.3,1.7.5,2.5,8.4-2.27,15.73-5.6,22-10l-.5,1.5-2,6,3,1-5,18,1.5-.5,5-1,14-7,2.5.5c-5.67,9.33-12.83,17.17-21.5,23.5l-22,19h-3.5l6-18.5,14-29-1.5-.5-44,36-3,1-1.5-2.5,36.5-74.5ZM183.61,406.57l-1,2,2-1-1-1ZM204.61,424.57l-2,3,1,2,1-2v-3Z"/>
      <path class="cls-4" d="M430.11,370.57l2.5,5.5h-1l-.5-1.5-1,2-1.5-3.5,1.5-2.5Z"/>
      <path class="cls-4" d="M435.11,370.57l2,3-2-3Z"/>
      <path class="cls-4" d="M577.11,370.57l.5,7.5-1.5,3.5-.5-2.5v-2l-.5-1.5c-1.8.87-1.97,1.7-.5,2.5l-.5,1.5-1-2-3.5.5v-2c-.47-2.47.03-3.97,1.5-4.5l1,2,1.5-.5.5,1.5,1.5-.5.5,1.5,1-5Z"/>
      <path class="cls-4" d="M127.11,372.57l1,2-1-2Z"/>
      <path class="cls-4" d="M165.11,372.57c1.73-.47,2.23.2,1.5,2l-4,2.5-6,16v3h1l3.5-5.5,4,1,3.5-2.5-7,6,1,1-5,5-31.5,35.5-1.5-.5-.5,1.5-.5-1.5,20.5-42.5c3.2.53,5.03-.3,5.5-2.5l15.5-18.5Z"/>
      <path class="cls-4" d="M69.61,374.57l3,1.5.5,1.5,1.5-.5.5,1.5,1.5-.5-.5,1.5,2-1c2.87,1.2,3.37,2.37,1.5,3.5l1.5,2.5,3.5,1,.5,2c.87-1.47,1.7-1.3,2.5.5l-.5,1.5,2.5,1.5,1,3.5c-5.93.87-10.27.2-13-2l-3.5-5-1.5-.5.5-1.5c-1.73.53-2.23-.3-1.5-2.5l-2-8.5ZM74.61,382.57v4c-.67,1.33,0,1.67,2,1l-2-5Z"/>
      <path class="cls-4" d="M179.11,374.57l-2,3,2-3Z"/>
      <path class="cls-4" d="M438.11,374.57l2,3-2-3Z"/>
      <path class="cls-4" d="M97.11,375.57l2,3-2-3Z"/>
      <path class="cls-4" d="M290.11,375.57l-1,2,1-2Z"/>
      <path class="cls-4" d="M454.11,375.57l18,19,1.5-.5-.5,1.5,2.5,1.5,18,39h-1l-.5-1.5-2,1-12.5-12.5-27-32,2.5,1.5,1-1,6,5,.5-2.5-7-17,.5-1.5Z"/>
      <path class="cls-4" d="M152.11,376.57l.5,1.5-2.5,4.5-.5-1.5,2.5-4.5Z"/>
      <path class="cls-4" d="M433.11,377.57l1.5,2.5h-1l-.5-2.5Z"/>
      <path class="cls-4" d="M176.11,378.57l-2,3,2-3Z"/>
      <path class="cls-4" d="M546.11,378.57l.5,2.5h-1l.5-2.5Z"/>
      <path class="cls-4" d="M89.11,379.57l1,2-1-2Z"/>
      <path class="cls-4" d="M442.11,379.57l2,3-2-3Z"/>
      <path class="cls-4" d="M43.11,380.57l-3,4,3-4Z"/>
      <path class="cls-4" d="M101.11,380.57l1,2-1-2Z"/>
      <path class="cls-4" d="M172.11,383.57l-3,4,3-4Z"/>
      <path class="cls-4" d="M446.11,384.57l3,4-3-4Z"/>
      <path class="cls-4" d="M272.11,385.57l-1,2-6,3,1-2,6-3Z"/>
      <path class="cls-4" d="M437.11,385.57l23.5,48.5,5,13.5-12.5-8-36.5-29,15,32.5,5,15c-.8,1.87-1.63,2.03-2.5.5-13.6-10.07-26.1-21.23-37.5-33.5l-8-12,2,1,.5,1.5.5-3,17.5,8,.5-2.5-6-21,1.5.5,26,11-.5-1.5c-1.13-3.2-.3-4.37,2.5-3.5l6,3-3.5-4.5-2-7-2.5-2.5-1.5-.5,2-3.5c2.53.67,4.2.17,5-1.5l.5-1.5Z"/>
      <path class="cls-4" d="M564.11,385.57l1,2-1-2Z"/>
      <path class="cls-4" d="M347.11,386.57l1,2-1-2Z"/>
      <path class="cls-4" d="M567.11,390.57l2,3,2,1,1.5-.5-.5,17.5-.5-3-3,1.5c.07,6.07-1.77,10.23-5.5,12.5h-2.5v-9.5l-1.5-.5-4.5,7.5,1,2-5.5,6.5-.5-10.5,1-1,.5-11.5,1,4,3.5-2.5,5-10,4.5-4.5c1.67.47,2.33-.2,2-2ZM551.61,423.57v2l2-1-2-1Z"/>
      <path class="cls-4" d="M63.11,391.57l1.5,2.5-2,3,1,1-2,4-.5,1.5-.5-11,2.5-1Z"/>
      <path class="cls-4" d="M358.11,392.57l1,2-1-2Z"/>
      <path class="cls-4" d="M545.11,392.57l.5,3.5h-1l.5-3.5Z"/>
      <path class="cls-4" d="M257.11,393.57l-1,2,1-2Z"/>
      <path class="cls-4" d="M250.11,397.57l-1,2-2,1,1-2,2-1Z"/>
      <path class="cls-4" d="M367.11,397.57l1,2-1-2Z"/>
      <path class="cls-4" d="M584.11,398.57l.5,83.5h-1l.5-83.5Z"/>
      <path class="cls-4" d="M243.11,401.57l-1,2-2,1,1-2,2-1Z"/>
      <path class="cls-4" d="M374.11,401.57l1,2-1-2Z"/>
      <path class="cls-4" d="M617.11,402.57l.5,42.5h-1l.5-42.5Z"/>
      <path class="cls-4" d="M238.11,404.57l-1,2-6,4,3-4,4-2Z"/>
      <path class="cls-4" d="M367.61,405.57l2,.5v2l-.5,1.5-1.5-4Z"/>
      <path class="cls-4" d="M381.11,405.57l7.5,5.5-3.5-2.5c-2.67-.33-4-1.33-4-3Z"/>
      <path class="cls-4" d="M247.11,406.57l2.5.5-6.5,2.5v-1l4-2Z"/>
      <path class="cls-4" d="M373.11,407.57l3.5,1.5-1.5.5-2-2Z"/>
      <path class="cls-4" d="M544.11,407.57l.5,7.5h-1l.5-7.5Z"/>
      <path class="cls-4" d="M248.11,408.57l-.5,1.5-.5,1.5-.5-1.5,1.5-1.5Z"/>
      <path class="cls-4" d="M378.11,409.57l6.5,4.5-2.5-1.5c-2.67-.33-4-1.33-4-3Z"/>
      <path class="cls-4" d="M237.11,410.57l1.5.5-4.5,2.5,1-2,2-1Z"/>
      <path class="cls-4" d="M230.11,411.57l-2,3,2-3Z"/>
      <path class="cls-4" d="M244.11,411.57l1.5,4.5-26,55-4.5,4.5h-2l-4.5-4.5,5.5-14.5,1.5.5-1-2h2l-1-3,1.5-2.5,2.5.5-1,3h1l4-8.5c-1.8-.73-2.47-.23-2,1.5l-3,1-.5,1.5-.5-1.5,6.5-13.5,1.5.5-1-3,1.5-2.5,1,2,4-7,2.5.5c-.47,1.73.2,2.23,2,1.5l2-6h2v-2c1.8.73,2.47.23,2-1.5l2.5-4.5Z"/>
      <path class="cls-4" d="M371.11,412.57l5,10,1-3c8,10.67,14.83,22.5,20.5,35.5l5.5,5.5,1-2,.5,1.5-.5,1.5c1.53-.47,2.03.03,1.5,1.5l3,9c-.67,2.33-2.83,3.17-6.5,2.5l-4.5-4.5-16-33,1-2h-2l1-2h-2l-1-3,1-3-1.5-2.5-1,2-6.5-12.5.5-1.5Z"/>
      <path class="cls-4" d="M599.11,412.57l.5,3.5h-1l.5-3.5Z"/>
      <path class="cls-4" d="M233.11,414.57l-.5,1.5-2.5,5.5-.5-1.5,3.5-5.5Z"/>
      <path class="cls-4" d="M390.11,426.57l2.5,5.5h-1l-1.5-5.5Z"/>
      <path class="cls-4" d="M394.11,435.57l1.5,3.5-2,1,1-2-.5-2.5Z"/>
      <path class="cls-4" d="M512.11,443.57l1.5,5.5-2-1,.5-4.5Z"/>
      <path class="cls-4" d="M52.11,446.57l4.5.5-4.5.5v-1Z"/>
      <path class="cls-4" d="M559.11,446.57l3.5.5-3.5.5v-1Z"/>
      <path class="cls-4" d="M577.11,446.57l.5,14.5-1,1v11.5l-12-.5,8-1-4.5-1.5-1.5.5.5-1.5-4-1-4,3,.5-1.5,2.5-9.5,3,1,12-15ZM575.61,450.57l-2,2h2v-2Z"/>
      <path class="cls-4" d="M617.11,446.57l.5,42.5h-1l.5-42.5Z"/>
      <path class="cls-4" d="M556.11,447.57l3,2,1.5-.5-4.5,6.5-4-2-.5,1.5v2l-.5,1.5-1-2-5,8-14,5-2.5-.5,1-3c-1.47-.8-1.3-1.63.5-2.5,1.2,1.8,2.37,1.3,3.5-1.5l2-3c-1.47-.8-1.3-1.63.5-2.5,1,1.67,2,1.33,3-1l1.5-.5c-1.47-.8-1.3-1.63.5-2.5h2l1.5-.5-.5-1.5,1.5.5,1.5-2.5,9,1v-2ZM547.61,449.57v1h6l-6-1Z"/>
      <path class="cls-4" d="M567.11,448.57l-1,2,1-2Z"/>
      <path class="cls-4" d="M480.11,454.57l1.5,3h-3.5l-6.5,3.5,2,.5c.73,1.8.23,2.47-1.5,2l-4,1-2-1-4,3-1-1-2.5,1.5c.53-1.47.03-1.97-1.5-1.5l-2.5,1.5.5,1.5-9,4h-5l-2,2h-2l-6,2,2-3,5-3,4,1,7-5h4l6-3h4.5c.87-2,.03-2.67-2.5-2v-1l4-1,2,3,12.5-6,.5-2Z"/>
      <path class="cls-4" d="M147.11,455.57l1,2-1-2Z"/>
      <path class="cls-4" d="M493.11,455.57l-2,3,2-3Z"/>
      <path class="cls-4" d="M468.11,456.57l-1,2,1-2Z"/>
      <path class="cls-4" d="M164.11,458.57l1.5,3.5-2,.5.5-4Z"/>
      <path class="cls-4" d="M446.11,464.57l-1,2,1-2Z"/>
      <path class="cls-4" d="M62.11,468.57l1,2-1-2Z"/>
      <path class="cls-4" d="M76.11,468.57l3.5,2.5-1.5-.5-2-2Z"/>
      <path class="cls-4" d="M441.11,468.57l-1,2,1-2Z"/>
      <path class="cls-4" d="M525.11,471.57l-1.5,2.5-1.5,2.5.5-1.5,2.5-3.5Z"/>
      <path class="cls-4" d="M41.11,472.57l2,3-2-3Z"/>
      <path class="cls-4" d="M84.11,474.57l11,11,1.5-.5-1.5,1.5-11-12Z"/>
      <path class="cls-4" d="M191.11,474.57l-1,2,1-2Z"/>
      <path class="cls-4" d="M464.11,474.57l-4,5,4-5Z"/>
      <path class="cls-4" d="M517.11,476.57l2.5.5-2.5.5v-1Z"/>
      <path class="cls-4" d="M68.11,477.57l1,2-1-2Z"/>
      <path class="cls-4" d="M513.11,477.57l2.5.5-2.5.5v-1Z"/>
      <path class="cls-4" d="M94.11,478.57l2.5,3.5-2,.5-.5-4Z"/>
      <path class="cls-4" d="M201.11,478.57l1,2-1-2Z"/>
      <path class="cls-4" d="M508.11,478.57l3.5.5-3.5.5v-1Z"/>
      <path class="cls-4" d="M104.11,479.57l2,3-2-3Z"/>
      <path class="cls-4" d="M503.11,479.57l2.5.5-2.5.5v-1Z"/>
      <path class="cls-4" d="M70.11,480.57l1,2-1-2Z"/>
      <path class="cls-4" d="M543.11,480.57l18.5.5-29.5,13.5-3,3v-2l-7,1-1-1h-8l-1,1h-9l-6.5,1.5,5,1-4.5.5c-1.13-1.8-3.8-2.13-8-1v1l2.5.5-18.5.5-1,1h-22v-1l3.5-.5-8.5-.5-8,2h-9l-4.5-1.5,3.5-1.5h14l2-1,1,1h9l5.5-1c-.93,2.67.9,3.33,5.5,2l9.5-2.5-6-1,34.5-4.5,5-2h6l11.5-5.5-17-1,17.5-.5c1,1.67,2,1.33,3-1h14l1-1Z"/>
      <path class="cls-4" d="M491.11,481.57l4.5.5-4.5.5v-1Z"/>
      <path class="cls-4" d="M111.11,482.57l1,2-1-2Z"/>
      <path class="cls-4" d="M485.11,482.57l2.5.5-2.5.5v-1Z"/>
      <path class="cls-4" d="M61.11,483.57l1,2-1-2Z"/>
      <path class="cls-4" d="M476.11,483.57c2.53-.47,4.03.03,4.5,1.5l-6.5.5v-1l2-1Z"/>
      <path class="cls-4" d="M489.11,483.57l11.5.5-11.5.5v-1Z"/>
      <path class="cls-4" d="M463.61,484.57c2.53-.67,4.2-.17,5,1.5l-5,.5v-2Z"/>
      <path class="cls-4" d="M73.11,485.57l1,2-1-2Z"/>
      <path class="cls-4" d="M446.11,486.57l3.5.5-3.5.5v-1Z"/>
      <path class="cls-4" d="M437.11,487.57l2.5.5-2.5.5v-1Z"/>
      <path class="cls-4" d="M75.11,488.57l1,2-1-2Z"/>
      <path class="cls-4" d="M86.11,489.57l2.5,10.5-1.5-.5c-4.33-1-7.5-3.17-9.5-6.5l2.5,1.5,1-1c2.67.33,4.17-.5,4.5-2.5l.5-1.5Z"/>
      <path class="cls-4" d="M419.11,489.57l2.5.5-2.5.5v-1Z"/>
      <path class="cls-4" d="M103.11,492.57l1,2-1-2Z"/>
      <path class="cls-4" d="M143.11,493.57l1,2-1-2Z"/>
      <path class="cls-4" d="M384.11,493.57l2.5.5-2.5.5v-1Z"/>
      <path class="cls-4" d="M375.11,494.57l2.5.5-2.5.5v-1Z"/>
      <path class="cls-4" d="M367.11,495.57l2.5.5-2.5.5v-1Z"/>
      <path class="cls-4" d="M359.11,496.57l2.5.5-2.5.5v-1Z"/>
      <path class="cls-4" d="M515.11,496.57l3.5.5-3.5.5v-1Z"/>
      <path class="cls-4" d="M350.11,497.57l2.5.5-2.5.5v-1Z"/>
      <path class="cls-4" d="M507.11,497.57l3.5.5-3.5.5v-1Z"/>
      <path class="cls-4" d="M342.11,498.57l2.5.5-2.5.5v-1Z"/>
      <path class="cls-4" d="M1.11,499.57l1.5,2.5-2-1,.5-1.5Z"/>
      <path class="cls-4" d="M170.11,499.57l7.5,4.5-2.5,1.5-5-6Z"/>
      <path class="cls-4" d="M335.11,499.57l2.5.5-2.5.5v-1Z"/>
      <path class="cls-4" d="M326.11,500.57l2.5.5-2.5.5v-1Z"/>
      <path class="cls-4" d="M417.11,500.57l5.5.5-5.5.5v-1Z"/>
      <path class="cls-4" d="M110.11,501.57l1,2-1-2Z"/>
      <path class="cls-4" d="M317.11,501.57l2.5.5-2.5.5v-1Z"/>
      <path class="cls-4" d="M407.11,501.57l4.5.5-4.5.5v-1Z"/>
      <path class="cls-4" d="M442.11,501.57l2.5.5-2.5.5v-1Z"/>
      <path class="cls-4" d="M308.11,502.57l3.5.5-3.5.5v-1Z"/>
      <path class="cls-4" d="M398.11,502.57l2.5.5-2.5.5v-1Z"/>
      <path class="cls-4" d="M434.11,502.57l2.5.5-2.5.5v-1Z"/>
      <path class="cls-4" d="M299.11,503.57l2.5.5-2.5.5v-1Z"/>
      <path class="cls-4" d="M389.11,503.57l3.5.5-3.5.5v-1Z"/>
      <path class="cls-4" d="M422.11,503.57l7.5.5c-3.67,1.67-8.5,2.17-14.5,1.5v-1c3.67,1,6,.67,7-1Z"/>
      <path class="cls-4" d="M290.11,504.57l2.5.5-2.5.5v-1Z"/>
      <path class="cls-4" d="M381.11,504.57l3.5.5-3.5.5v-1Z"/>
      <path class="cls-4" d="M135.11,505.57l10,11-10-11Z"/>
      <path class="cls-4" d="M371.11,505.57l5.5.5-5.5.5v-1Z"/>
      <path class="cls-4" d="M408.11,505.57h4l5,3c3.67-1,6-.67,7,1h16l1-1h23v1l-3.5.5,3,1c-4.6,1.87-10.27,2.37-17,1.5-.73,1.8-.23,2.47,1.5,2l13,3,16-3,4-3,16-4,3,3,1-1,3-1v1l-32,17-5,1-16-5h-4l-33-8-13-1-7-2h-11.5l.5-2,1,1h8v-1l-2.5-.5,18.5-3.5ZM409.61,506.57v1h2l-2-1Z"/>
      <path class="cls-4" d="M341.11,506.57l21.5.5-21.5.5v-1Z"/>
      <path class="cls-4" d="M177.11,507.57l1,2-1-2Z"/>
      <path class="cls-4" d="M467.11,507.57l8.5.5-8.5,2.5v-1l2.5-.5c-2.2.07-3.03-.43-2.5-1.5Z"/>
      <path class="cls-4" d="M338.11,508.57l2.5.5-2.5.5v-1Z"/>
      <path class="cls-4" d="M195.11,513.57l1,2-1-2Z"/>
      <path class="cls-4" d="M379.11,515.57l2.5.5-2.5.5v-1Z"/>
      <path class="cls-4" d="M172.11,516.57l1,2-1-2Z"/>
      <path class="cls-4" d="M200.11,516.57l1,2-1-2Z"/>
      <path class="cls-4" d="M385.11,516.57l2.5.5-2.5.5v-1Z"/>
      <path class="cls-4" d="M217.11,517.57l2,3-2-3Z"/>
      <path class="cls-4" d="M137.11,520.57c1.53-.47,2.03.03,1.5,1.5l.5,1.5-2-3Z"/>
      <path class="cls-4" d="M216.11,520.57l1.5,2.5-2-1,.5-1.5Z"/>
      <path class="cls-4" d="M210.11,522.57l1,2-1-2Z"/>
      <path class="cls-4" d="M221.11,522.57l8,9-3.5-1.5,1-1-5.5-6.5Z"/>
      <path class="cls-4" d="M145.61,523.57l17,6,.5,2,1.5-.5c-.47,1.53.03,2.03,1.5,1.5l1.5-.5-1,3.5,2,.5-1.5.5-12.5-4-.5-2c-1,1.67-2,1.33-3-1l-3.5-1-.5-4-1.5.5v-1.5Z"/>
      <path class="cls-4" d="M143.11,524.57l1,2-1-2Z"/>
      <path class="cls-4" d="M218.11,524.57l2.5,5-3-1.5,1-2-.5-1.5Z"/>
      <path class="cls-4" d="M188.11,531.57l6.5,5.5-2.5-1.5-4-4Z"/>
      <path class="cls-4" d="M258.11,531.57l3.5,2.5-1.5.5-2-3Z"/>
      <path class="cls-4" d="M232.11,532.57l3,4-3-4Z"/>
      <path class="cls-4" d="M172.11,533.57l1,2h-2l-1.5-.5,2.5-1.5Z"/>
      <path class="cls-4" d="M263.11,534.57l1.5.5-2.5,1.5,1-2Z"/>
      <path class="cls-4" d="M267.11,535.57l2.5.5-2.5.5v-1Z"/>
      <path class="cls-4" d="M313.11,535.57l27,5c1-1.67,2-1.33,3,1l1.5.5-1.5.5c-.8-1.47-1.63-1.3-2.5.5l-1.5,2.5c-3.6,1.27-5.1.77-4.5-1.5l-2.5-3.5-2-1c-4.47,3.87-11.47,5.2-21,4l-1-1-19-1-11-3h-5l-2.5-1.5,3.5-.5,5,2h22l3.5,1,.5,2,3-2c3.87.53,6.7.03,8.5-1.5l-3.5-1.5v-1Z"/>
      <path class="cls-4" d="M237.11,536.57l1,2-1-2Z"/>
      <path class="cls-4" d="M240.11,538.57l3,2,12,3,18,2,1.5-.5.5,1.5c1-1.67,2-1.33,3,1l10.5,5.5-21.5.5-1-1h-9l-5.5-1v-2.5l-7.5-7.5c-2.67-.33-4-1.33-4-3Z"/>
      <path class="cls-4" d="M376.11,540.57l.5,1.5-2,1,1.5-2.5Z"/>
      <path class="cls-4" d="M206.11,541.57l2.5.5-2.5.5v-1Z"/>
      <path class="cls-4" d="M339.11,567.57l2.5.5-2.5.5v-1Z"/>
      <path class="cls-4" d="M331.11,568.57l4.5.5-4.5.5v-1Z"/>
      <path class="cls-4" d="M324.11,569.57l5.5.5-5.5.5v-1Z"/>
      <path class="cls-4" d="M279.11,592.57l5.5,1.5-2,.5,3,5.5-2.5-1.5-3.5-1.5c1.53-.8,1.37-1.63-.5-2.5l-1.5-.5,1.5-1.5Z"/>
      <path class="cls-4" d="M294.11,596.57l5.5,1.5-2.5.5-3-1v-1Z"/>
      <path class="cls-4" d="M291.11,599.57c1.53-.47,2.03.03,1.5,1.5h1l.5-1.5,2.5.5-.5,1.5,1.5.5-4.5,2.5v-2l-2,1-2.5-1.5,2.5-2.5Z"/>
      <path class="cls-4" d="M306.11,599.57l4.5.5-4.5.5v-1Z"/>
      <path class="cls-4" d="M300.11,601.57h2.5c-.73,1.8-.23,2.47,1.5,2l2-1c1.2,2.07,2.37,2.57,3.5,1.5l-1,3,2.5,1.5,3-1,1,2-2-1v2l-2-1-1,3-6.5-2.5c1.53-.8,1.37-1.63-.5-2.5l-3,1v-2l-2-1-1.5.5-.5-1.5-1.5.5c.87-1.8,1.7-1.97,2.5-.5l3.5,1,1-2.5-1.5-1.5ZM308.61,610.57v1h2l-2-1Z"/>
      <path class="cls-4" d="M316.11,606.57l1,2-1-2Z"/>
      <path class="cls-2" d="M308.11.57l308.5,165.5v335l-1.5,1.5-225,121-55,31-17,8-9,6-44-25-17-8-70-39-130-69L1.61,501.07l-1-2V190.07l1-1v-23.5L273.11,20.57,308.11.57ZM308.61,18.57l-57,32L20.61,173.57l-2,2v129l17,14c-1.33,4-.67,6,2,6l14-16,1-6c-2.67,2.67-7,3.67-13,3l1-4,14-17,2-5,1-2-12,3,2-5c4.67-4,8-9,10-15,1.33-1.33,1.33-2.33,0-3l-4,2-2,1,8-14,5-18,2,14,10,16-7-2c-.67,4,0,7,2,9l9,13v1l-9-3v3l9,12,1,3-6-1-3-1,1,5,6,8,6,5c-.67,1.33,0,1.67,2,1l5-8-6-1,9-13-1-3-3,2h-2c5.33-4.67,8.67-11.67,10-21l3,10,6,10-1-1-4,3,6,10,3,3-6-1h-2l3,7,5,5-1-1c-2-.67-2.67,0-2,2l4,3v1c-1.33-1.33-3.33-1.67-6-1-1.33-1.33-2.33-1-3,1l14,17,3,8,14,19,41-86,7,1,14-32,5-8,57-118,19-10,24-9,7-4,47,21,3,5,51,106,7,12,16,37,8-1,36,75c2.67-4,4.67-9.33,6-16l3,11h3l12-11,3-3,3-12v-2l3-9,3,8,2,9,2-3c-1.33-7.33-.33-12.67,3-16,0,6.67,1.67,12,5,16,2,3.33,6.67,4.67,14,4l3-4,2-8,11-23,1,2,3,12,4,7,17-9h3l1,12,14-12,1-1v-128L308.61,18.57ZM308.61,116.57l-34,15-4,13-21,40-48,99-3,10,11,9,10,11-31-14v3l-7,12-58,122c-.67,1.33,0,1.67,2,1,24-24,45.67-50,65-78l3-2-43,88,2,2,3-1,44-36,1,1-14,29-6,18h4l22-19c10-7.33,18-16.67,24-28l14-10,64-35,77,42,11,17c11.33,12,24,23,38,33,.67,1.33,1.33,1.33,2,0l-5-15-15-33,37,29,12,8-5-13-36-76v-2c20.67,28.67,43.33,56,68,82l1-2-65-138-32,16,22-23-76-160-34-15ZM18.61,308.57v183l290,157,6-2,42-24,241-130,1-1v-74l1-1-1-4v-22l1-1v-81l-7,4-9,9v161l-274,148-99-52-177-96v-157l1-6-16-11ZM70.61,308.57l-4,4,7,11c2,3.33,5.33,5.67,10,7,2,.67,2.67,0,2-2l5-1-2-4-11-12-5-1-2-2ZM579.61,317.57l-13,6-8,9-4,13,1,38,8-15,3-24,2-6,5-4,1-2,2-1c-.67,3.33-2.67,6-6,8l-2,7,1,15,6-11,3-17c1.33-4,.67-5.67-2-5l3-4v-7ZM59.61,328.57l-12,7-2,2,1,2,6-2,3,1h-2v2l-15,16-1,3,8-3,12-8h3l10,14,20,19,9,5h5l-5-8-14-14-12-13v-2l1-2c4,6.67,11.67,10,23,10l1-3-21-19-9-5-9-2ZM553.61,329.57l-17,6-9,5c-8,5.33-13.67,12.67-17,22l-2,21-3,15v8l-1,1v5l11,18-4,14,1,8-3-3c-8,0-13.33,2-16,6-4.67,4-7.67,9-9,15l-2-1c-9.33-1.33-15.33.33-18,5l-8,9v2l7,1h-17l-1,1-26,2-8,2-36,3-17,3-23,2-1,1h-8l-1,1h-8l-1,1h-8l-1,1h-8l-1,1-17,2,93,34c1.33-.67,1.67,0,1,2l-7,4c-2.67-.67-3.67,0-3,2l19,5,21,4,4,2,44-23,1-3-34-10-14-2-19-5-12-1-11-3-29-4,41-2,1-1,23-2,1-1h10l1-1h10l1-1,5,1h9l8-2,8,1-4,1-15,1-1,1h-11l-15,3h-7l-11,3c-5.33-.67-7.67,0-7,2h12l7,2,13,1,33,8h4l16,5,5-1c17.33-10.67,36.33-20.33,57-29l3-3,29-13v-1h-18l-1,1h-14l-1,1-38,1-1,1h-9l16-2,5-2,11-1,11-3,8-13,14-12h1l-6,4-6,7v2c-.67,1.33-1.33,1.33-2,0l-3,5h3l14-5,5-8,1,2v-3l1-2,4,2,3-4-1-3-2,1h-2c1.33-2,4-2.67,8-2l5-4c-4-4.67-9.33-7.67-16-9-4-.67-6.67-.33-8,1l1-38,1-1v-14l1-1,2-27,4-17,4-6c.67-2-.33-2.67-3-2ZM105.61,330.57v8l4,8v2l10,7c1.33,2.67,2.67,2.67,4,0l-1-2,2-3-9-11-8-9h-2ZM519.61,337.57l-14,4-7,4c-3.33,8-8.33,15-15,21l6,10,8-10,1-4h1v3c-2.67,4-4.67,9.33-6,16-.67,6,.67,10.33,4,13l1-2c0-8,1.33-14.67,4-20v-6l2-6,10-15,8-7-3-1ZM113.61,359.57l1,5-1,2-6-2v1c1.33-.67,1.67,0,1,2l-1-1-1,2c.67,1.33,1.67,1.33,3,0,1.33.67,1.33,1.67,0,3,4.67,5.33,10.33,9,17,11l3-6-8-11c-2-3.33-4.67-5.33-8-6ZM568.61,361.57l-1,3h1v-3ZM568.61,369.57l-1,15h1v-15ZM577.61,370.57l-2,7,2,1v-8ZM571.61,371.57l-2,2c-.67,2,0,3.33,2,4l1-2,1,2,2-3h-1l-1-1-2,1v-3ZM69.61,374.57l2,9c-.67,2,0,2.67,2,2l-1,2h2l3,5c2.67,2,7,2.67,13,2l-3-6c-4.67-6.67-10.67-11.33-18-14ZM576.61,378.57l-1,3h1v-3ZM561.61,385.57l-9,15-2,6v11l-1,1,1,10,1-3c-.67-2,0-2.67,2-2l1,1-1-2h2l-1-2,5-8,1,1v9h3c3.33-2,5-6,5-12l3-2,1,3v-17h-1l-2-1-4-6-4-2ZM63.61,391.57l-3,1,1,11v-1l2-4-1-2,1-3v-2ZM367.61,405.57l14,33,16,32,5,4c3.33.67,5.33,0,6-2l-6-18-18-40-2-3-15-6ZM247.61,406.57l-12,5-11,20-15,35-1,5,5,4h2l4-4,30-64-2-1ZM577.61,440.57l-5,3-7,7-6,18,1,2,6-4-2,3,8,3-8,1h12v-11l1-1v-21ZM39.61,446.57v26l8,5,3,3-3-14c-.67-2,0-2.67,2-2l11,20,2,1v-13l-1-1,1-2,15,24c2,2.67,5.33,4.67,10,6l1,1c-1.33-10.67-4.33-19.67-9-27l-1-3,17,16h1l-1-2,1-2,13,20,6,4,1,1c-1.33-10.67-4.67-19-10-25l-2-4,15,11,15,17,12,10,1,1-12-28c16,10,31.33,21.67,46,35l4,4-2-10-8-13v-2l16,8,29,18-6-11,2-1,4,6,15,13,9,5,7,8v2l6,1h9l1,1h21c-10-5.33-19-11.33-27-18v-1l9,2,3,2h5l11,3,19,1,1,1c9.33,1.33,16.33,0,21-4l2,1,2,4c-.67,2,1,2.33,5,1l-1-1h2l2-3-17-9-68-26-26-8-17-3-2-1,3-4,3-4c-4-.67-6.33-.33-7,1-2.67.67-3.67.33-3-1l-4-2-3-6-3,2-5-6-4,2,3,10,2,2-27-13,6-3c2.67-1.33,4-3.67,4-7l-5,1h-3l1-5-4,1-2-4c0,3.33-.67,5.33-2,6l-2-2-9-8h-5c2,5.33,5,10,9,14v2l-22-8-38-10-29-5-27-1ZM474.61,453.57l-10,7c-4.67,1.33-7.33,1-8-1l-4,1-19,13-1,2,5-1h2l2-2h5l9-4-1-1,3-2c1.33-.67,1.67,0,1,2l3-2,1,1,4-3,2,1,4-1c1.33.67,1.67,0,1-2h-2l7-4c2.67.67,3.67.33,3-1-1.33-2.67-3.67-3.67-7-3ZM137.61,520.57l2,3,14,8,14,5h8l-25-12-13-4ZM190.61,533.57l1,2h1l-2-2ZM206.61,541.57v1h2l-2-1ZM184.61,545.57l3,3,121,64,88-46-51-14h-11l-10,2h-8l-1,1h-9l-23,4h-21l-24-5-17-2-26-6-11-1Z"/>
      <path class="cls-2" d="M308.11,194.57l75.5,158.5-1.5-.5-74-36-75,37,.5-1.5,65-135,9.5-22.5Z"/>
      <path class="cls-2" d="M133.11,339.57l1.5,3.5-2-1,.5-2.5Z"/>
      <path class="cls-2" d="M547.11,449.57l6.5.5-6.5.5v-1Z"/>
      <path class="cls-2" d="M576.11,449.57l-.5,1.5c.53,1.53.03,2.03-1.5,1.5l-2.5,1.5,4.5-4.5Z"/>
      <path class="cls-2" d="M468.11,484.57l5.5.5-5.5.5v-1Z"/>
      <path class="cls-2" d="M513.11,495.57l8.5.5-14.5,1.5-1,1-17,1v-1h7l17-3Z"/>
      <path class="cls-1" d="M360.11,179.57l4,2,1.5-.5-.5,1.5c1.73-.53,2.23.3,1.5,2.5l.5,1.5-3-4c-3.13-.53-4.47-1.53-4-3Z"/>
      <path class="cls-1" d="M263.11,218.57l-.5,1.5-.5,1.5-.5-1.5,1.5-1.5Z"/>
      <path class="cls-1" d="M260.11,222.57l1,2-1-2Z"/>
      <path class="cls-1" d="M259.11,224.57l1,2-1-2Z"/>
      <path class="cls-1" d="M64.11,226.57l-1,2,1-2Z"/>
      <path class="cls-1" d="M252.61,236.57h4v1.5h-2l1,3h-3l-1-2,1-2.5Z"/>
      <path class="cls-1" d="M584.11,248.57l.5,57.5h-1l.5-57.5Z"/>
      <path class="cls-1" d="M57.11,258.57l-.5,1.5-1,4.5-2-.5v-2c-.8-2.47.03-3.3,2.5-2.5l1-1Z"/>
      <path class="cls-1" d="M519.11,258.57l-1,2,1-2Z"/>
      <path class="cls-1" d="M36.11,261.57l2,3-2-3Z"/>
      <path class="cls-1" d="M34.11,262.57l.5,5.5h-1l.5-5.5Z"/>
      <path class="cls-1" d="M43.11,267.57l3,4-3-4Z"/>
      <path class="cls-1" d="M508.11,267.57l-1,2,1-2Z"/>
      <path class="cls-1" d="M235.11,275.57l-1,2,1-2Z"/>
      <path class="cls-1" d="M486.11,276.57l-1,2,1-2Z"/>
      <path class="cls-1" d="M389.11,281.57l.5,1.5-.5,2.5c-1.8-.8-1.97-1.63-.5-2.5l.5-1.5Z"/>
      <path class="cls-1" d="M477.11,283.57l-1,2,1-2Z"/>
      <path class="cls-1" d="M226.11,286.57c2,1,2,2,0,3v-3Z"/>
      <path class="cls-1" d="M381.11,294.57l6.5,10.5v2l1,4-.5,1.5,1.5.5-.5,2.5c-1.47-.47-1.97.03-1.5,1.5h-1l-6-15v-6l.5-1.5Z"/>
      <path class="cls-1" d="M191.11,300.57l-1,2,1-2Z"/>
      <path class="cls-1" d="M584.11,311.57l1.5,3.5-2,.5.5-4Z"/>
      <path class="cls-1" d="M179.11,322.57l.5,1.5-2.5,3.5.5-1.5,1.5-3.5Z"/>
      <path class="cls-1" d="M213.11,322.57l1,2-2.5-.5,1.5-1.5Z"/>
      <path class="cls-1" d="M406.11,325.57l5,6-5-6Z"/>
      <path class="cls-1" d="M198.11,338.57l-2,3,2-3Z"/>
      <path class="cls-1" d="M524.11,343.57l-3,4,3-4Z"/>
      <path class="cls-1" d="M192.11,344.57l-7,8,7-8Z"/>
      <path class="cls-1" d="M430.11,350.57l1,2-1-2Z"/>
      <path class="cls-1" d="M267.11,355.57l-3,4,3-4Z"/>
      <path class="cls-1" d="M351.11,356.57l1,2,1.5-.5c-1,2-2,2-3,0l.5-1.5Z"/>
      <path class="cls-1" d="M451.11,356.57l2,3-2-3Z"/>
      <path class="cls-1" d="M180.11,357.57l-2,3,2-3Z"/>
      <path class="cls-1" d="M402.11,358.57l4,5-4-5Z"/>
      <path class="cls-1" d="M213.11,359.57l-11,12,11-12Z"/>
      <path class="cls-1" d="M536.11,359.57l.5,29.5,1,1c-.53,6.2-.2,11.03,1,14.5l3,1.5,2,10v13c-1.47.87-1.8,2.87-1,6l.5,1.5-2-1-1,2-1.5-.5-4.5,5.5,2.5-3.5-2-2,2-11h-1l-7,15,1,3-1,3,4-2-8,6.5-3-7-4.5-1-2,3-1.5-7.5c1.8-2.2,2.47-5.53,2-10l-4-5,2-3,6-42.5,2,.5v17l1,1v11l1,1v11l1,1v14.5l2-.5v-9l1-1,1-17,1-1,1-16,2-9v-8l1-1,1-11,1.5-2.5Z"/>
      <path class="cls-1" d="M416.11,362.57l.5,2-2-.5,1.5-1.5Z"/>
      <path class="cls-1" d="M443.11,364.57l2,3-2-3Z"/>
      <path class="cls-1" d="M410.11,366.57l4,5-4-5Z"/>
      <path class="cls-1" d="M365.11,370.57l1,2-1-2Z"/>
      <path class="cls-1" d="M419.11,370.57l.5,3.5-1.5-.5-2.5-1.5,1.5.5c1.67.47,2.33-.2,2-2Z"/>
      <path class="cls-1" d="M197.11,372.57l1.5,2.5-2.5,1.5.5-1.5.5-2.5Z"/>
      <path class="cls-1" d="M241.11,380.57l-2,3,2-3Z"/>
      <path class="cls-1" d="M380.11,384.57l1,2-1-2Z"/>
      <path class="cls-1" d="M545.11,386.57l.5,2.5h-1l.5-2.5Z"/>
      <path class="cls-1" d="M544.11,399.57l.5,4.5h-1l.5-4.5Z"/>
      <path class="cls-1" d="M516.11,470.57l3.5.5-3.5.5v-1Z"/>
      <path class="cls-1" d="M500.11,477.57l1,2-1.5-.5c.6,2.27-.9,2.77-4.5,1.5l-2,1v-1l7-3Z"/>
      <path class="cls-1" d="M457.11,483.57l3.5,1.5-2.5.5-1-2Z"/>
      <path class="cls-1" d="M506.11,483.57l11.5.5-2.5,1.5-10,1-5.5-1.5,4.5-.5,3,1v-1l-1-1Z"/>
      <path class="cls-1" d="M483.11,484.57l6.5.5-6.5.5v-1Z"/>
      <path class="cls-1" d="M471.11,485.57l2.5.5-2.5.5v-1Z"/>
      <path class="cls-1" d="M456.11,486.57l3.5.5-3.5.5v-1Z"/>
      <path class="cls-1" d="M513.61,486.57l2,.5-2,1v-1.5Z"/>
      <path class="cls-1" d="M508.11,488.57l2.5.5-2.5.5v-1Z"/>
      <path class="cls-1" d="M491.11,491.57l2.5.5-2.5.5v-1Z"/>
      <path class="cls-1" d="M484.11,492.57l3.5.5-3.5.5v-1Z"/>
      <path class="cls-1" d="M476.11,493.57l4.5.5-4.5.5v-1Z"/>
      <path class="cls-1" d="M469.11,494.57l2.5.5-2.5.5v-1Z"/>
      <path class="cls-1" d="M460.11,495.57l4.5.5-4.5.5v-1Z"/>
      <path class="cls-1" d="M445.11,496.57l8.5.5-8.5.5v-1Z"/>
      <path class="cls-1" d="M521.11,496.57l2.5.5-2.5.5v-1Z"/>
      <path class="cls-1" d="M426.11,497.57l9.5.5-9.5.5v-1Z"/>
      <path class="cls-1" d="M513.11,497.57l2.5.5-2.5.5v-1Z"/>
      <path class="cls-1" d="M382.11,498.57l36.5.5-1.5,1.5-45,5v-1l2.5-.5-2.5-1.5-1.5.5.5-1.5-12,3h-5v-1l28-5Z"/>
      <path class="cls-1" d="M504.11,498.57l3.5.5-3.5.5v-1Z"/>
      <path class="cls-1" d="M496.11,499.57l2.5.5-2.5.5v-1Z"/>
      <path class="cls-1" d="M331.11,500.57l3.5.5-3.5.5v-1Z"/>
      <path class="cls-1" d="M480.11,500.57l7.5.5-7.5.5v-1Z"/>
      <path class="cls-1" d="M516.11,500.57c1.73-.47,2.23.2,1.5,2h-9.5l-1,1-32,3-1,1-54,1-2.5-1.5,13.5-3.5h8l8-2h22v1l-11.5.5,2,.5.5,3h13l1-1,19-1,23-4Z"/>
      <path class="cls-1" d="M322.11,501.57l10.5,1-1,5,5,1.5-15,1,57,17.5c-.67,2.53-.17,4.2,1.5,5l8.5,6.5,3.5,5.5,9,5h8l16.5-8.5-11.5-6.5-32-11-18.5-8c-.87-2.2.3-2.87,3.5-2v2l5-1v2l5-1v2l6-1v1l-1.5.5,4.5.5,3.5-1,.5,2,3-1,36,8,23,7,1.5,1.5-40.5,22.5-5,1-40.5-10c-.73-1.8-.23-2.47,1.5-2l7.5-4.5-1.5-2.5-26-8-21-9-44.5-15.5,3.5-1.5,26-2,9-2ZM404.61,528.57v1l8,3h2c-2-2.67-5.33-4-10-4Z"/>
      <path class="cls-1" d="M349.11,504.57l3.5.5-3.5.5v-1Z"/>
      <path class="cls-1" d="M344.11,505.57l3.5.5-3.5.5v-1Z"/>
      <path class="cls-1" d="M336.11,506.57l2.5.5-2.5.5v-1Z"/>
      <path class="cls-1" d="M461.11,511.57l12.5.5-1,2.5-16.5,2-8.5-2.5,13.5-2.5Z"/>
      <path class="cls-1" d="M359.11,512.57l2.5.5-2.5.5v-1Z"/>
      <path class="cls-8" d="M303.11,39.57l-1,2,1-2Z"/>
      <path class="cls-8" d="M309.11,64.57l2.5,20.5-2.5-1.5-2.5,1.5,2-6,.5-14.5Z"/>
      <path class="cls-8" d="M231.11,78.57l-1,2,1-2Z"/>
      <path class="cls-8" d="M256.11,79.57l1,2c-1.87.47-2.2-.2-1-2Z"/>
      <path class="cls-8" d="M360.11,80.57l.5,2.5-2-1,1.5-1.5Z"/>
      <path class="cls-8" d="M258.11,82.57l-.5,1.5-.5,1.5-.5-1.5,1.5-1.5Z"/>
      <path class="cls-8" d="M220.11,84.57l-1,2,1-2Z"/>
      <path class="cls-8" d="M259.11,84.57l1,2-1-2Z"/>
      <path class="cls-8" d="M359.11,85.57l.5,2.5h-1l.5-2.5Z"/>
      <path class="cls-8" d="M258.11,87.57l.5,2.5h-1l.5-2.5Z"/>
      <path class="cls-8" d="M261.11,87.57l2.5,3.5-2-1-.5-2.5Z"/>
      <path class="cls-8" d="M356.11,87.57l-.5,1.5-7.5,12.5-1.5-.5,2-.5,7.5-13Z"/>
      <path class="cls-8" d="M358.11,91.57l.5,2.5h-1l.5-2.5Z"/>
      <path class="cls-8" d="M418.11,95.57l1,2-1-2Z"/>
      <path class="cls-8" d="M260.11,96.57l.5,3.5h-1l.5-3.5Z"/>
      <path class="cls-8" d="M266.11,96.57l3,4,1.5.5-1.5.5-3-5Z"/>
      <path class="cls-8" d="M357.11,96.57l.5,4.5h-1l.5-4.5Z"/>
      <path class="cls-8" d="M223.11,98.57l1,2c-1.87.47-2.2-.2-1-2Z"/>
      <path class="cls-8" d="M342.11,98.57l3.5,1.5-1.5.5-2-2Z"/>
      <path class="cls-8" d="M391.11,98.57l.5,3-2,.5.5,1.5c-1.13-1.8-2.3-1.3-3.5,1.5l.5,3.5,1-2,.5,1.5-8.5,17.5-.5-3-3.5-2-4.5,1.5,19.5-23.5Z"/>
      <path class="cls-8" d="M192.11,99.57l-1,2,1-2Z"/>
      <path class="cls-8" d="M226.11,102.57l18,21,1.5-.5-1.5,1.5-4.5-4.5-.5-1.5-.5,6-2,.5.5,1.5c-1.8-.8-1.97-1.63-.5-2.5l-.5-1.5-1.5.5-8-15,3-1-3-2-.5,1.5-1.5-2.5,1.5-1.5Z"/>
      <path class="cls-8" d="M261.11,102.57l.5,1.5-2,1,1.5-2.5Z"/>
      <path class="cls-8" d="M361.11,106.57l5.5,3.5-1.5-.5c-2.67-.33-4-1.33-4-3Z"/>
      <path class="cls-8" d="M448.11,111.57l1,2-1-2Z"/>
      <path class="cls-8" d="M166.11,113.57l-1,2,1-2Z"/>
      <path class="cls-8" d="M151.11,121.57l-1,2,1-2Z"/>
      <path class="cls-8" d="M420.11,125.57l1.5.5-2,1c1.87,1.13,1.37,2.3-1.5,3.5l-2.5-.5,4.5-4.5Z"/>
      <path class="cls-8" d="M199.11,127.57l4,5-4-5Z"/>
      <path class="cls-8" d="M198.11,129.57l1,2-1-2Z"/>
      <path class="cls-8" d="M239.11,129.57l1.5,3.5h-1l-.5-3.5Z"/>
      <path class="cls-8" d="M413.11,131.57l-3,4-4,3,3-4,4-3Z"/>
      <path class="cls-8" d="M200.11,132.57l2,3-2-3Z"/>
      <path class="cls-8" d="M205.11,132.57l2,3-2-3Z"/>
      <path class="cls-8" d="M416.11,132.57l-1.5,2.5-2.5,3.5,1.5-2.5,2.5-3.5Z"/>
      <path class="cls-8" d="M209.11,135.57l2,3-2-3Z"/>
      <path class="cls-8" d="M493.11,135.57l1,2-1-2Z"/>
      <path class="cls-8" d="M203.11,136.57l1,2-1-2Z"/>
      <path class="cls-8" d="M121.11,137.57l-1,2,1-2Z"/>
      <path class="cls-8" d="M213.11,138.57l4,5-4-5Z"/>
      <path class="cls-8" d="M237.11,138.57l-1,2,1-2Z"/>
      <path class="cls-8" d="M404.11,138.57l-3,4-5,4,4-5,4-3Z"/>
      <path class="cls-8" d="M205.11,139.57l1,2-1-2Z"/>
      <path class="cls-8" d="M411.11,139.57l-1,2,1-2Z"/>
      <path class="cls-8" d="M502.11,140.57l5.5,3.5-1.5-.5c-2.67-.33-4-1.33-4-3Z"/>
      <path class="cls-8" d="M235.11,141.57l.5,1.5-2,1,1.5-2.5Z"/>
      <path class="cls-8" d="M112.11,142.57l-1,2-1.5-.5,2.5-1.5Z"/>
      <path class="cls-8" d="M207.11,142.57l1,2-1-2Z"/>
      <path class="cls-8" d="M409.11,142.57l-1.5,2.5-7.5,10.5,1.5-2.5,7.5-10.5Z"/>
      <path class="cls-8" d="M219.11,143.57l6.5,5.5-3.5-2.5-3-3Z"/>
      <path class="cls-8" d="M457.11,143.57l2.5.5-2.5.5v-1Z"/>
      <path class="cls-8" d="M471.11,143.57l29,1,3.5,2.5-1,2,2,3-13.5.5-1,1h-15l-1,1-2-3h-5.5v-2.5l-2.5-3.5,3.5,5,2-.5-1-3,2.5-3.5Z"/>
      <path class="cls-8" d="M165.11,144.57l2.5,1.5-1.5,2.5-4.5-2.5,3.5-1.5Z"/>
      <path class="cls-8" d="M453.11,144.57l2.5.5-5,3-1.5,2.5.5-1.5,1.5-3.5,2-1Z"/>
      <path class="cls-8" d="M106.11,145.57l-1,2,1-2Z"/>
      <path class="cls-8" d="M209.11,145.57l2,3-2-3Z"/>
      <path class="cls-8" d="M394.11,146.57l-4,5,4-5Z"/>
      <path class="cls-8" d="M457.11,147.57l1.5.5c-.8,2.2-2.47,3.03-5,2.5-.8-2,.03-2.67,2.5-2l1-1Z"/>
      <path class="cls-8" d="M515.11,147.57l9.5,5.5-1.5-.5-7-3-1-2Z"/>
      <path class="cls-8" d="M162.11,149.57c4.13-.47,6.63.7,7.5,3.5l-.5,1.5h-10v-1l9.5-.5-4.5-2.5-7.5,1.5.5,1.5-1.5-3,6.5-1Z"/>
      <path class="cls-8" d="M212.11,149.57l5.5,6.5-4-3-1.5-3.5Z"/>
      <path class="cls-8" d="M227.11,149.57l3,2,1.5-.5-2.5,1.5-2-3Z"/>
      <path class="cls-8" d="M386.11,149.57l1.5,2.5h-1l-.5-2.5Z"/>
      <path class="cls-8" d="M447.11,150.57l-1,3c3.6-1.27,5.1-.77,4.5,1.5-1.33,3.67-5.17,4.83-11.5,3.5v-1l9.5-2.5-4-2,2.5-2.5Z"/>
      <path class="cls-8" d="M91.11,153.57l-1,2-2,1,1-2,2-1Z"/>
      <path class="cls-8" d="M452.11,153.57l13.5,1.5-10.5.5-3-1v-1Z"/>
      <path class="cls-8" d="M470.11,153.57l2.5.5-2.5.5v-1Z"/>
      <path class="cls-8" d="M166.11,155.57l11,7c5.87,3.8,12.87,6.47,21,8l6,4h14l1.5-1.5,4-9-5.5-6.5,6.5,7.5-10.5,20.5-18-9-3-3-9-3-2.5-2.5-1.5-3.5-7-3,4,5,6.5,5.5-1.5-.5c-1.47.53-1.97.03-1.5-1.5l-14.5-14.5Z"/>
      <path class="cls-8" d="M399.11,156.57l-.5,1.5-1,2,6.5,3.5,4.5-2.5,2.5-3.5-.5,1.5-5.5,6.5-2.5-1-1.5,5-1.5-.5,1,2-3.5,1.5-4.5-8.5,6.5-7.5Z"/>
      <path class="cls-8" d="M532.11,156.57l1,2-1-2Z"/>
      <path class="cls-8" d="M80.11,159.57l-1,2-4,2,1-2,4-2Z"/>
      <path class="cls-8" d="M142.11,161.57l-1,2,1-2Z"/>
      <path class="cls-8" d="M159.11,161.57l1,2-1-2Z"/>
      <path class="cls-8" d="M444.11,161.57l.5,1.5-7.5,8.5-6.5,5.5-8,9,1.5.5,4.5-2,.5-2,2.5.5-.5,1.5,5,2h2c6-.67,10.67-2.67,14-6h9l4.5,1.5-.5,1.5,5,1,9-8,6-1v1h-4l-11,9h-3l-2-1v2l-12.5,4.5,83,.5c.87-2.2-.3-2.87-3.5-2l-8-4c-4.47.8-7.47.13-9-2h-7l-4-3c-3.13.87-5.13.53-6-1l-1,2-3-1v1l1.5.5-1.5.5-5.5-4.5,1.5-.5,6,2,3-2h61l5-3,18.5,9-.5,28-7-3-11-1-10,2-15.5,10-7.5,10-7,2h-2l-21,3-3-1-3-1h-4l-2,1-3-1-1.5.5-1.5-2.5c-3.8.47-6.47-.2-8-2-1,1.67-2,1.33-3-1l-8,3v-1l10.5-4.5c-.8-1.8-1.63-1.97-2.5-.5l-12,1-7,2h-11l-1,1c-6.33-1-11.33-.67-15,1l-5.5-8.5,5.5-4.5c13.13-5.53,24.97-12.37,35.5-20.5l-1.5-.5-7,3-17,4-21.5,8-7-13.5,12-10,15.5-16.5,3.5-2.5,2-3c-1.47-.87-1.3-1.7.5-2.5l2-1Z"/>
      <path class="cls-8" d="M439.11,164.57l-1,2,1-2Z"/>
      <path class="cls-8" d="M547.11,164.57l5.5,3.5-1.5-.5c-2.67-.33-4-1.33-4-3Z"/>
      <path class="cls-8" d="M163.11,165.57l5,5,9.5.5-9.5.5-5-6Z"/>
      <path class="cls-8" d="M126.11,166.57l3.5.5c-4.8.53-8.3,2.37-10.5,5.5h-3v-1h3l7-5Z"/>
      <path class="cls-8" d="M131.11,166.57l3.5.5-3.5.5v-1Z"/>
      <path class="cls-8" d="M137.11,166.57l-1,2,1-2Z"/>
      <path class="cls-8" d="M65.11,167.57l-1,2-2,1,1-2,2-1Z"/>
      <path class="cls-8" d="M432.11,168.57l-1,2-28.5,15-4-9.5h1l4.5,8.5.5-1.5-1-2,1-3.5c1.6-1.13,4.43-1.47,8.5-1l8-4v2l2.5-1.5-.5-1.5,2,1,7-4Z"/>
      <path class="cls-8" d="M556.11,169.57l7.5,4.5-1.5-.5c-3.73-.53-5.73-1.87-6-4Z"/>
      <path class="cls-8" d="M56.11,172.57l-1,2-5.5,2.5,44,1-2,.5.5,2,1.5-.5c-.47,1.53.03,2.03,1.5,1.5l1.5,3h5v2l-7.5,2-2.5,2.5,1.5.5,10-2,36-1,1-1h44l6.5-4.5-4.5-3.5h-18l-3,2-2-1-2,1-2-1h-2l-2,1-1-1-37.5-.5,69.5-1.5,22.5,17.5-7.5,14.5-24-9-24-6v1l43.5,24.5-3.5,5.5h-20l-1,1-2-1-1,1h-11l-16-3v1l2.5,1.5-1.5-.5-18-1-1.5,4-10,1,.5,2h2c2.2-.73,3.03-.23,2.5,1.5l-3.5-.5-5.5,1-.5-3-3,2h-2l-3.5,1-1.5,4-6-5-7.5-3.5-10.5-11.5-10-7-9-3h-9l-12.5,4v-28.5l2.5-.5,19-11Z"/>
      <path class="cls-8" d="M105.11,172.57l-1,2-3,1v-1l4-2Z"/>
      <path class="cls-8" d="M98.11,175.57l1.5.5-2,1,3.5,1.5,14.5.5-14.5.5-6.5-1.5,3.5-2.5Z"/>
      <path class="cls-8" d="M458.11,232.57l3.5,1.5-4,.5.5-2Z"/>
      <path class="cls-8" d="M35.11,251.57l.5,7.5h-1l.5-7.5Z"/>
      <path class="cls-8" d="M74.11,258.57l2.5.5-2.5.5v-1Z"/>
      <path class="cls-8" d="M53.11,261.57l1,2-1-2Z"/>
      <path class="cls-8" d="M76.61,279.57h3c-.67,2,0,2.67,2,2v2.5l5.5,3.5,1.5-.5-1,2.5-10-6.5-1-3.5Z"/>
      <path class="cls-8" d="M30.11,317.57l1,2-1-2Z"/>
      <path class="cls-8" d="M33.11,327.57l.5,40.5h-1c.87-5.53.2-9.53-2-12v-9h1l.5,3.5,1-23Z"/>
      <path class="cls-8" d="M585.11,336.57l.5,4.5h-1l.5-4.5Z"/>
      <path class="cls-8" d="M173.11,478.57l2.5,1.5-1.5.5-1-2Z"/>
      <path class="cls-8" d="M333.11,553.57l12.5.5-9,1,1,2.5c-2-.8-2.67.03-2,2.5h1l.5-1.5.5,3,2,.5-7,1.5-1-2.5,1-3h-1l-.5,1.5-.5-2-3-.5.5-1.5-3.5-.5,8.5-1.5Z"/>
      <path class="cls-8" d="M141.11,555.57l5.5,3.5-1.5-.5c-2.67-.33-4-1.33-4-3Z"/>
      <path class="cls-8" d="M315.11,555.57l7.5.5-7.5.5v-1Z"/>
      <path class="cls-8" d="M305.11,556.57l3.5.5-3.5.5v-1Z"/>
      <path class="cls-8" d="M173.11,558.57l3.5,2.5-1.5-.5-2-2Z"/>
      <path class="cls-8" d="M463.11,558.57v2l3.5,1.5-146.5,80.5-10,5h-3l-154.5-84.5,1.5-.5,12,6v-1c-1.47.53-1.97.03-1.5-1.5h-2l3.5-1.5,14,8,7,2,.5-2.5-2-2-2-3,.5-1.5-6.5-3.5,1.5-.5,130,70,126-68-1,2-4.5,2.5,3,5.5,4.5-1,26-14Z"/>
      <path class="cls-8" d="M284.11,559.57l2.5.5-2.5.5v-1Z"/>
    </g>
  </g>
</svg>