<?xml version="1.0" encoding="UTF-8"?>
<svg id="Layer_2" data-name="Layer 2" xmlns="http://www.w3.org/2000/svg" viewBox="0 0 863.89 745.58">
  <g id="Layer_1-2" data-name="Layer 1">
    <g>
      <path d="M699.99,227.3V94.8c0-19.8-22.19-41.94-40.97-46.03-187.57-3.44-375.76-.45-563.57-1.5-27.16,2.93-48.13,24.25-50.5,51.5l.16,551.91c3.6,24.82,23.44,43.86,48.34,46.66h235.01c6.85,2.5,4.89,10.68,7.05,16.94,7.88,22.91,32.61,32.28,54.74,23.78,31.19-11.98,60.54-29.82,92.32-40.68,54.57-3.35,113.93,4.16,167.95-.05,26.39-2.06,47.01-23.4,49.5-49.5l.16-139.83,44.8-46.21c2.71-1.03,0,1.88,0,2v194c0,39.96-47.43,83.94-86.62,86.38-191.42,1.88-383.33,1.86-574.76,0C38.72,737.51,3.75,698.84,0,653.79V87.81C3.67,43.56,39.63,8.28,82.76,1.58c192.96-2.23,386.6-1.92,579.6-.16,42.76,6.61,79.26,43.69,82.61,87.39,2.31,30.18-1.53,63.3-.19,93.78l-44.8,44.7Z"/>
      <path d="M530.64,639.95c-3.55,3.53-7.39,6.85-10.64,10.86-45.92,20.83-93.59,48.18-140.33,66.67-12.41,4.91-23.42,3.05-25.71-11.73,19.31-52.31,40.72-104.53,63.51-155.47l268.89-268.9,98.56,101.29c-57,59.33-115.95,116.76-173.95,175.11-26.92,27.09-53.21,55.19-80.32,82.18ZM486.98,632.29l-51.5-53.97-26.35,66.28,13.85,15.28,1.31.31,62.69-27.89Z"/>
      <path d="M70.22,415.06c-2.28-2.28-1.63-29.4-.11-34.14,21.08-22.95,40.45-47.56,61.36-70.64,11.18-12.35,20.05-26.03,38.91-23.87,16.69,1.91,29.07,24.77,40.1,35.88l114.51-133.49c9.96-8.62,23.76-10.31,34.93-2.95l182.99,201.07-27.37,28.42c-146.35,2.23-293.46.27-440.1.99l-5.22-1.28Z"/>
      <path d="M777.76,201.58c7.66-.84,14.34.21,21.48,2.96,14.6,5.63,55.27,47.29,60.92,62.08,4.57,11.96,5.01,24.04.86,36.22-3.83,11.23-40.52,48.85-51.02,56.98-1.17.9-2.2,1.97-3.7,2.34l-101.25-100.49,1.39-2.39c20.78-16.39,43.83-54.68,71.31-57.7Z"/>
      <path d="M594.7,77.49c3.74-1.11,7.89.55,9.37,4.22,2.7,6.74,3.56,21.45,5.41,29.59,6.52,28.79,16.24,55.56,43.49,70.51,5.14,2.82,21.85,7.83,23.9,11.09,6.88,10.91-16.68,16.34-23.56,20.22-27.21,15.36-36.83,42.41-43.84,71.16-1.46,6-3.6,25.62-7.51,28.48-12.43,9.07-13.83-22.48-15.47-29.48-6.6-28.18-16.34-55.08-42.84-70.16-6.94-3.95-27.14-8.2-20.09-19.75,2.6-4.26,15.23-7.69,20.43-10.56,26.77-14.75,35.62-45.42,41.69-73.31,1.41-6.49,3.07-25.75,6.28-29.72.71-.88,1.64-1.96,2.73-2.29Z"/>
      <path d="M162.77,111.58c53.05-6.36,91.29,46.29,64.74,93.74-23.38,41.77-83.39,41.69-107.94.9-22.34-37.11-.81-89.36,43.2-94.64Z"/>
      <path d="M265.1,464.18l140.33.17c14.04,3.96,12.57,25.22-1.92,26.97l-136.03-.03c-3.13.59-4.15,6.24-6.06,8.94-7.65,10.81-23.75,15.38-36.21,11.34-10.62-3.44-15.58-11.05-20.88-20.12l-112.75-.25c-14.53-2.06-15.55-22.6-2.03-26.86l113.78-.22c1.43-.49,4.65-7.66,6.25-9.75,15.21-19.98,48.95-14.91,55.52,9.8Z"/>
      <path d="M148.84,568.45l-58.89-.63c-13.84-5.1-12.91-23.68,1.51-26.55l56.91.09c7.99-22.53,39.02-27.21,54.63-9.59,2.22,2.5,5.12,9.08,7.47,9.53l135.03-.03c16.44,3.36,14.19,24.71-2.11,26.94l-133.75.25c-7.87,13.96-19.83,23.05-36.71,20.39-10.51-1.66-21.1-10.12-24.09-20.4Z"/>
      <path d="M205.88,647.41l-113.31-.2c-17.12-2.85-16.75-27.03.91-28.91l111.84.05c8.94-20.76,38.17-26.11,53.71-9.59,2.76,2.94,3.86,6.63,6.61,9.39l60.4.6c15.13,4.6,13.42,25.06-1.8,28.32l-57.63.37c-3.39,5.03-4.77,9.34-9.72,13.28-17.44,13.91-43.74,7.82-51.02-13.3Z"/>
      <path d="M535.71,164.02c-3.44,3.39-12.26,3.42-18.23,10.27-6.89,7.9-5.1,16.74-9.04,22.96-2.21,3.49-7.95,4.36-10.26.36-3.19-5.52-2.02-13.8-7.19-20.81-5.53-7.5-20.07-10.62-21.57-15.46-2.93-9.46,10.08-10.36,15.9-14.21,5.51-3.65,8.21-8.83,9.95-15.05,1.58-5.64.51-15.97,8.11-15.73,7.72.24,6.52,9.55,8.35,15.71,1.98,6.64,4.47,11.65,10.51,15.49,4.59,2.91,22.72,7.35,13.47,16.48Z"/>
    </g>
  </g>
</svg>