<?xml version="1.0" encoding="UTF-8"?>
<svg id="Layer_2" data-name="Layer 2" xmlns="http://www.w3.org/2000/svg" xmlns:xlink="http://www.w3.org/1999/xlink" viewBox="0 0 910.99 427.62">
  <defs>
    <style>
      .cls-1 {
        letter-spacing: 0em;
      }

      .cls-2 {
        font-family: XenoisSoftW01-Medium, XenoisSoftW01-Medium;
        font-size: 268.49px;
        font-weight: 500;
      }

      .cls-3 {
        fill: url(#linear-gradient-2);
      }

      .cls-4 {
        fill: url(#linear-gradient);
      }

      .cls-5 {
        letter-spacing: -.06em;
      }
    </style>
    <linearGradient id="linear-gradient" x1="183.47" y1="485.84" x2="727.52" y2="-58.22" gradientUnits="userSpaceOnUse">
      <stop offset="0" stop-color="#fff"/>
      <stop offset="1" stop-color="#e0e0e0"/>
    </linearGradient>
    <linearGradient id="linear-gradient-2" x1="351.4" y1="401.58" x2="562.89" y2="35.27" gradientUnits="userSpaceOnUse">
      <stop offset="0" stop-color="#000"/>
      <stop offset="1" stop-color="gray"/>
    </linearGradient>
  </defs>
  <g id="Layer_1-2" data-name="Layer 1">
    <g>
      <rect class="cls-4" x="0" y="0" width="910.99" height="427.62" rx="213.81" ry="213.81"/>
      <g>
        <text class="cls-2" transform="translate(137.21 297.11)"><tspan x="0" y="0">BE</tspan><tspan class="cls-5" x="326.48" y="0">T</tspan><tspan class="cls-1" x="460.99" y="0">A</tspan></text>
        <g>
          <path class="cls-3" d="M294,247.71c0,10.03-1.75,18.26-5.24,24.7-3.49,6.44-8.15,11.5-13.96,15.17-5.82,3.67-12.48,6.17-20,7.52s-15.4,2.01-23.63,2.01h-53.97c-5.91,0-10.11-1.25-12.62-3.76-2.51-2.5-3.76-6.08-3.76-10.74v-153.57c0-4.65,1.25-8.23,3.76-10.74s6.71-3.76,12.62-3.76h53.43c8.59,0,16.47.67,23.63,2.01,7.16,1.34,13.29,3.72,18.39,7.12,5.1,3.4,9.08,8.01,11.95,13.83,2.86,5.82,4.3,13.29,4.3,22.42,0,11.99-3.18,21.57-9.53,28.73-6.36,7.16-15.44,11.73-27.25,13.69,14.14,1.43,24.65,5.73,31.55,12.89,6.89,7.16,10.34,17.99,10.34,32.49ZM258.56,163.4c0-10.02-2.46-17.05-7.38-21.08-4.92-4.03-13.29-6.04-25.1-6.04h-35.17l-.27,56.65h37.59c5.91,0,10.83-.76,14.77-2.28,3.94-1.52,7.02-3.62,9.26-6.31,2.24-2.68,3.85-5.81,4.83-9.4.98-3.58,1.48-7.43,1.48-11.54ZM263.13,245.02c0-6.08-.81-11.14-2.42-15.17s-3.89-7.25-6.85-9.67c-2.95-2.42-6.54-4.07-10.74-4.97-4.21-.89-8.82-1.34-13.83-1.34h-38.66l.27,61.48h33.83c6.62,0,12.39-.45,17.32-1.34,4.92-.89,8.9-2.46,11.95-4.7,3.04-2.24,5.32-5.32,6.85-9.26,1.52-3.94,2.28-8.95,2.28-15.04Z"/>
          <path class="cls-3" d="M449.19,285.03c0,3.76-1.17,6.71-3.49,8.86-2.33,2.15-6.18,3.22-11.54,3.22h-83.77c-5.91,0-10.11-1.25-12.62-3.76-2.51-2.5-3.76-6.08-3.76-10.74v-153.57c0-4.65,1.25-8.23,3.76-10.74s6.71-3.76,12.62-3.76h80.55c5.37,0,9.22,1.03,11.54,3.09,2.32,2.06,3.49,4.97,3.49,8.73s-1.17,6.71-3.49,8.86c-2.33,2.15-6.18,3.22-11.54,3.22h-66.85v54.23h62.02c5.37,0,9.22.94,11.54,2.82,2.32,1.88,3.49,4.7,3.49,8.46s-1.17,6.62-3.49,8.59c-2.33,1.97-6.18,2.95-11.54,2.95h-62.02v57.72h70.08c5.37,0,9.22,1.03,11.54,3.09,2.32,2.06,3.49,4.97,3.49,8.73Z"/>
          <path class="cls-3" d="M606.79,127.16c0,3.76-1.17,6.85-3.49,9.26-2.33,2.42-6.17,3.62-11.54,3.62h-37.59v146.33c0,4.12-1.17,7.34-3.49,9.67-2.33,2.32-6.18,3.49-11.54,3.49s-9.22-1.17-11.54-3.49c-2.33-2.32-3.49-5.55-3.49-9.67v-146.33h-37.86c-5.37,0-9.22-1.21-11.54-3.62-2.33-2.42-3.49-5.5-3.49-9.26s1.16-6.8,3.49-9.13,6.18-3.49,11.54-3.49h105.52c5.37,0,9.22,1.17,11.54,3.49,2.32,2.33,3.49,5.37,3.49,9.13Z"/>
          <path class="cls-3" d="M765.73,287.98c0,4.12-1.39,7.07-4.16,8.86-2.78,1.79-6.31,2.68-10.6,2.68-7.7,0-12.62-3.49-14.77-10.47l-12.89-38.93h-76.52l-13.16,39.74c-2.15,6.44-6.8,9.67-13.96,9.67-8.95,0-13.42-3.58-13.42-10.74,0-1.97.45-4.3,1.34-6.98l55.84-157.06c1.25-3.58,3.49-6.62,6.71-9.13,3.22-2.5,8.5-3.76,15.84-3.76s12.62,1.25,15.84,3.76c3.22,2.51,5.55,5.55,6.98,9.13l55.84,156.53c.36.9.62,2.06.81,3.49.18,1.43.27,2.51.27,3.22ZM716.06,227.3l-31.14-92.09-30.88,92.09h62.02Z"/>
        </g>
      </g>
    </g>
  </g>
</svg>