<?xml version="1.0" encoding="UTF-8"?>
<svg id="Layer_1" xmlns="http://www.w3.org/2000/svg" version="1.1" viewBox="0 0 1024 1024">
  <!-- Generator: Adobe Illustrator 29.8.2, SVG Export Plug-In . SVG Version: 2.1.1 Build 3)  -->
  <defs>
    <style>
      .st0 {
        fill: #80bfff;
        opacity: .1;
        stroke: #000408;
      }

      .st0, .st1 {
        isolation: isolate;
      }

      .st1 {
        fill: #b7d4fe;
        opacity: 1;
        stroke: #5398fc;
      }
    </style>
  </defs>
  <path class="st0" d="M295.5,656l31,14,19,2,22-5,22-11,10.5,6.5,2,9-6.5,9.5c-13.6,12-33.6,17.7-60,17-21.3-2.7-37.8-10.2-49.5-22.5l-1-10,5.5-7.5,5-2Z"/>
  <path class="st1" d="M448.5,155c7.8-.5,13,1.7,15.5,6.5,3.2,3.4,4.2,9.1,3,17l-28.5,49.5c-4.6-14.4-6.1-31.9-4.5-52.5l8.5-17.5,6-3Z"/>
  <path class="st1" d="M345.5,223l9,1,16.5,14.5,9,16-2.5.5c-13.6-4.4-24.7-11.3-33.5-20.5l-2-8,3.5-3.5Z"/>
  <path class="st1" d="M432.5,306l3.5.5-3.5.5v-1Z"/>
  <path class="st1" d="M396.5,333c45.7-2.4,84.7,2,117,13,39.7,14,72.5,34.8,98.5,62.5l37,51,18,40,24,71c6.8,14.5,16,26.7,27.5,36.5,9.9,10.8,25.9,15.4,48,14,15.2-3.5,27-10.3,35.5-20.5,12.1-12.9,19.1-30.9,21-54l-5.5-8.5c-22.8-5.6-40.6-16.1-53.5-31.5-11.3-13.3-17.3-31.4-18-54.5,23.9,2,42.2,9.7,55,23l13,18.5,8,22,5.5,6.5,11,2,6.5-3c5.4-19.5,14.5-35.5,27.5-48,12.8-13.1,31.3-20.1,55.5-21-1.2,30-10.7,52-28.5,66l-19,12-24,7-6.5,5.5-6,67-15,53c-13.6,33.4-32.7,61.3-57.5,83.5-30.5,28.3-69.3,48-116.5,59l1-21.5c-3.1-35.9-15.3-62.7-36.5-80.5l-12-5-10.5,6.5-1,11c23.4,16.5,34.7,44.6,34,84.5-36.5-5.7-64.9-19.8-85-42.5l-17.5-23.5-10-2-8.5,6.5-2,7c7,17,17.1,30.9,30.5,41.5,15.8,13.9,35.3,24,58.5,30.5-37.5,7.2-79.3,10-125.5,8.5-62.6-1.4-117.9-10.1-166-26-40.1-14.2-73-35.7-98.5-64.5-21.4-24.2-36.4-54.4-45-90.5,15,13.2,37.5,19.2,67.5,18,26.5-4.5,46.6-15.4,60.5-32.5,14.3-14.7,22.5-35.5,24.5-62.5,10.9-4.1,24.6-5.4,41-4l21.5,5c1.7,32.1,12.2,55.8,31.5,71,15.9,16.7,40.9,24.4,75,23,28.1-4.5,49.3-16,63.5-34.5,12.8-14.3,20.2-33.8,22-58.5h26.5l8.5-6.5,1-11-5.5-6.5-34.5-2c-4.4-19.4-13.2-34.7-26.5-46-16.2-17.5-41.2-26.2-75-26-28.3,4.4-49.8,15.6-64.5,33.5-9.4,10.3-16.2,23.1-20.5,38.5-11.2-4.1-24.9-5.8-41-5l-27.5,5c-5-20.1-14.5-36.1-28.5-48-15.6-16.4-39.6-24.4-72-24l-29,8,1.5-2.5c13.9-32.7,33.4-59.9,58.5-81.5,37.3-36,89.6-57,157-63ZM296,656l-5,2-6,8,1,10c12,12,28.7,19.3,50,22,26,.7,46-5,60-17l6-9-2-9-10-7-22,11-22,5-19-2-31-14Z"/>
  <path class="st1" d="M211.5,498c28.1.2,47.9,8.7,59.5,25.5,11.2,11.1,16.6,28.1,16,51-3.2,21.2-11.7,37-25.5,47.5-11.1,11.2-28.1,16.6-51,16-21.7-3.7-37.8-12.8-48.5-27.5-10-11.3-14.7-28-14-50,2.8-18.4,9.4-32.5,20-42.5,10.1-10.8,24.6-17.5,43.5-20ZM220,548l-6,3-11,16c-1.3,9.3.3,16.3,5,21l14,8,15-3c6-4,9.7-10,11-18,.7-8.7-1-14.7-5-18-4-7.3-11.7-10.3-23-9Z"/>
  <path class="st1" d="M465.5,498c27.6.4,47.5,8.5,59.5,24.5,11.9,11.1,17.6,28.4,17,52-2.9,19.5-10.4,34.3-22.5,44.5-12,12.7-30.3,19-55,19-22.2-3.4-38.7-12.6-49.5-27.5-11.1-11.2-15.8-28.9-14-53,4.1-20.2,13.3-35.4,27.5-45.5,9.5-7.5,21.8-12.2,37-14ZM469,548l-9,4-10,17c0,9.3,2.3,16.3,7,21l13,6c8,.7,13.7-1,17-5l8-14c.7-9.3-1-16-5-20-3.3-6.7-10.3-9.7-21-9Z"/>
  <path class="st1" d="M205.5,770l30.5,24.5c-11.6,7.2-25.3,12-41,14.5.2-15.9,3.7-28.9,10.5-39Z"/>
</svg>