<svg xmlns="http://www.w3.org/2000/svg" shape-rendering="geometricPrecision" text-rendering="geometricPrecision" image-rendering="optimizeQuality" fill-rule="evenodd" clip-rule="evenodd" viewBox="0 0 512 510.87"><path d="M10.69 0h119.84c5.88 0 10.68 4.8 10.68 10.68v119.85c0 5.88-4.8 10.68-10.68 10.68H10.69c-5.88 0-10.69-4.8-10.69-10.68V10.68C0 4.8 4.81 0 10.69 0zm370.78 369.66h119.84c5.89 0 10.69 4.8 10.69 10.68v119.85c0 5.88-4.8 10.68-10.69 10.68H381.47c-5.88 0-10.68-4.8-10.68-10.68V380.34c0-5.88 4.8-10.68 10.68-10.68zm-185.39 0h119.84c5.89 0 10.69 4.8 10.69 10.68v119.85c0 5.88-4.8 10.68-10.69 10.68H196.08c-5.88 0-10.69-4.8-10.69-10.68V380.34c0-5.88 4.81-10.68 10.69-10.68zm-185.39 0h119.84c5.88 0 10.68 4.8 10.68 10.68v119.85c0 5.88-4.8 10.68-10.68 10.68H10.69c-5.88 0-10.69-4.8-10.69-10.68V380.34c0-5.88 4.81-10.68 10.69-10.68zm370.78-184.83h119.84c5.89 0 10.69 4.8 10.69 10.68v119.85c0 5.88-4.8 10.68-10.69 10.68H381.47c-5.88 0-10.68-4.8-10.68-10.68V195.51c0-5.88 4.8-10.68 10.68-10.68zm-185.39 0h119.84c5.89 0 10.69 4.8 10.69 10.68v119.85c0 5.88-4.8 10.68-10.69 10.68H196.08c-5.88 0-10.69-4.8-10.69-10.68V195.51c0-5.88 4.81-10.68 10.69-10.68zm-185.39 0h119.84c5.88 0 10.68 4.8 10.68 10.68v119.85c0 5.88-4.8 10.68-10.68 10.68H10.69c-5.88 0-10.69-4.8-10.69-10.68V195.51c0-5.88 4.81-10.68 10.69-10.68zM381.47 0h119.84C507.2 0 512 4.8 512 10.68v119.85c0 5.88-4.8 10.68-10.69 10.68H381.47c-5.88 0-10.68-4.8-10.68-10.68V10.68c0-5.88 4.8-10.68 10.68-10.68zM196.08 0h119.84c5.89 0 10.69 4.8 10.69 10.68v119.85c0 5.88-4.8 10.68-10.69 10.68H196.08c-5.88 0-10.69-4.8-10.69-10.68V10.68C185.39 4.8 190.2 0 196.08 0z" fill="#ffffff"/></svg>