<?xml version="1.0" encoding="UTF-8"?><svg xmlns="http://www.w3.org/2000/svg" id="Layer_1" version="1.1" viewBox="0 0 1190.6 1190.6">
  <!-- Generator: Adobe Illustrator 30.5.1, SVG Export Plug-In . SVG Version: 2.1.4 Build 3)  -->
  <defs>
    <style>
      .st0 {
        fill: #4a72b8;
      }

      .st1 {
        fill: #48bc93;
      }

      .st2 {
        fill: #1c345d;
      }

      .st3 {
        fill: #e6e7e8;
      }
    </style>
  </defs>
  <g>
    <path class="st3" d="M958.7,1162.1c-242.3,37.9-484.5,37.9-726.8,0-104.7-16.4-187.1-98.8-203.5-203.5-37.8-241.6-37.9-483.2-.3-724.8C44.7,127.7,127.7,44.7,233.8,28.1c241.6-37.6,483.2-37.5,724.8.3,104.7,16.4,187.1,98.8,203.5,203.5,37.9,242.3,37.9,484.5,0,726.8-16.4,104.7-98.8,187.1-203.5,203.5Z"/>
    <path class="st3" d="M958.7,1162.1c-242.3,37.9-484.5,37.9-726.8,0-104.7-16.4-187.1-98.8-203.5-203.5-37.9-242.3-37.9-484.5,0-726.8C44.8,127.2,127.2,44.8,231.9,28.4c242.3-37.9,484.5-37.9,726.8,0,104.7,16.4,187.1,98.8,203.5,203.5,37.9,242.3,37.9,484.5,0,726.8-16.4,104.7-98.8,187.1-203.5,203.5Z"/>
  </g>
  <g>
    <path class="st2" d="M178.9,614.6c-1-12.2-.9-25.1,0-37.3,1.6-49.4,12.3-98.1,31.4-143.7,53.3-127.3,160.8-218.2,296.3-247.1,28.9-6.2,57.4-9.6,86.7-9.8s13.9,5.7,14,11.9l.2,70.9c0,5-5.1,12-10.9,12-146.5,1.1-274.7,94.8-312.7,237.7-10.7,40.2-14.2,77-10.4,118.4l3.8,26.4c10.6,55.9,35.1,107.2,71.7,150.9,4.2,5.1,6.4,13.4,1.4,18.7l-46.6,50c-5,5.3-14,4.2-18.7-.9-50.5-55.3-84.6-123.1-98.8-196.7-4-20.6-7.2-40.5-7.2-61.3Z"/>
    <path class="st1" d="M931.2,574.1c-6.3,0-11.7-5.3-12.4-11.6-5.5-51.2-22.2-100.3-49.9-143.8-48.4-75.9-127.2-127.7-215.8-142.6-9.7-1.6-14.3-7.9-14-17.7l1.7-65.7c.2-8.3,9.6-11.5,16.9-10.4,49.2,7.5,96.6,21.8,140.6,45.3,58.5,31.2,108,76.9,144.7,131.9,39.6,59.3,63.1,127.3,69.5,198.2.5,5-.9,8.7-3.6,11.8s-7.4,4.6-12.8,4.6h-64.9Z"/>
    <path class="st0" d="M787.5,951c4.8,7.9-.9,17.4-9.2,19.9-58.1,28.7-121.7,43.8-186.8,42.9-95.6-1.2-188-38.4-261.2-98.6-5.8-4.8-8.1-13.9-2.9-19.6l41.9-45.9c6.2-6.8,14.4-8.4,21.9-2.4,74.9,59.6,169.3,89.7,264.6,71.1,28.9-5.6,55.8-15.2,82.3-27.5,7.2-3.3,14,1.4,17.6,7.4l31.6,52.7Z"/>
    <path class="st2" d="M454.2,597.6c-13.9-13.8-11.3-36.9,1.9-49.6,15.6-13.9,36.3-10.9,50.5,3.2l61.7,61.2,191-195c5.6-5.7,15.6-7.8,22.5-7.7,13.8.3,24.5,8.4,30.1,18.8,6.4,12.7,4.8,25.8-2.7,37.9l-219.4,223.6c-10.4,10.6-30.5,11.3-41.2.8l-94.3-93.3Z"/>
    <path class="st0" d="M813.9,932.5l-32.5-53.5c-4.5-7.4,1-14.6,6.9-19,76.7-57.7,124.2-145.9,131.2-241.7.4-6.1,6.9-11.2,12.7-11.2l67.8.3c10.7,0,13.4,9.6,12.8,18.2-9.2,125.6-73.8,239.9-177.2,311.8-7.4,5.2-16.4,3.7-21.6-4.9Z"/>
    <path class="st2" d="M608.8,379.4c0,7.1-6.4,11.5-11.9,11.3s-11.8-5.3-11.8-12.4v-54c.1-6.7,6.1-11.3,11.8-11.3s11.9,5.2,11.9,12.3v54.1Z"/>
    <path class="st2" d="M608.8,876.5c0,6.7-6.3,11.3-11.7,11.2-6.1-.2-11.8-5.2-11.8-11.7v-54c-.1-6.8,4.4-12.2,10.9-12.7s12.8,4.2,12.8,11.2v56.1Z"/>
    <path class="st2" d="M874.5,610.1l-53.1-.3c-6.3,0-10.2-6-10.4-11.2-.2-5.7,3.7-12.4,10.3-12.4h50.9c6.2-.2,10.5,5.4,11,10.4s-2.6,10.7-8.8,13.5Z"/>
    <path class="st2" d="M372.1,609.8l-52.2.3c-6-2.2-9.5-6.7-9.4-12.6s4-11.3,10.3-11.3h50.9c6.4-.1,10.7,5.9,10.8,11.5s-3.6,12.1-10.4,12.2Z"/>
    <path class="st0" d="M178.9,614.6c-.7-.7-1.1-1.4-1.1-2.4v-33.1c0-1.1.4-1.7,1.1-1.8v37.3Z"/>
  </g>
</svg>