<?xml version="1.0" encoding="UTF-8"?><svg xmlns="http://www.w3.org/2000/svg" id="Layer_2" data-name="Layer 2" viewBox="0 0 734.19 848.73">
  
  <!-- ============================================= -->
  <!-- 1. ADD THE CSS STYLE BLOCK HERE               -->
  <!-- ============================================= -->
  <style>
    /* 
      This is the default style for light mode.
      Since the SVG's default fill is black, we can explicitly set it here.
    */
    .icon-shapes {
      fill: black; /* Or any dark color you prefer, like #222222 */
    }

    /* 
      This media query will activate when the user is in dark mode,
      changing the fill color to white.
    */
    @media (prefers-color-scheme: dark) {
      .icon-shapes {
        fill: white; /* Or any light color, like #f0f0f0 */
      }
    }
  </style>

  <!-- ============================================= -->
  <!-- 2. ADD A CLASS TO THE GROUP WRAPPER           -->
  <!-- ============================================= -->
  <g id="Layer_1-2" data-name="Layer 1" class="icon-shapes">
    <g>
      <!-- No changes are needed for the paths themselves! -->
      <path d="M361.01.24c14.29-1.36,25.98,3.25,39.09,8.2l311.6,185.98c11.46,9.22,22.49,19.36,22.49,35.37v384.36c-1.7,19.13-9.6,25.86-23.87,36.3-95.59,69.98-217.52,122.68-315.69,191.14-16.25,7.57-24.88,9.54-42.33,3.83-104.19-65.76-222.8-122.62-323.87-192.22-11.14-7.67-20.12-11.86-25.16-25.75C-3.3,495.63,2.41,362.2.37,229.79c.75-26.27,29.42-38.21,48.89-50.63,76.04-48.52,159.14-96.99,237.48-142.06C305.56,26.27,340.99,2.14,361.01.24ZM367.9,64.82c-4.49.59-10.67,4.05-14.93,6.11-82.21,39.7-163.71,107.73-246.79,148.96l-6.19,7.63,269.26,160.41,265.21-160.63-8.4-9.72-249.04-151.39c-2.92-1.94-5.81-1.79-9.12-1.36ZM60.63,281.95v315.9c4.3,5.28,9.94,8.58,15.5,12.28,86.95,57.77,187.04,104.73,274.56,162.84,8.9,5.32,18.34,9.56,28.68,4.75l291.04-176.43c.2-13.93,3.04-29.22,3.6-42.68,3.29-78.09,5.1-182.13.02-259.41-.22-3.28-.49-19.32-5.85-17.22-85.65,51.23-169.59,106.41-256.53,155.43-25.03,14.11-34.35,28.07-63.27,13.87-94.01-46.14-185.56-118.39-279.14-167.51l-8.6-1.82Z" fill="#ffffff"/>
      <path d="M471.95,592.58c28.42-2.46,36.09,29.96,20.35,50.46-51.55,67.15-200.99,66.08-248.46-3.9-15.82-23.33-5.69-47.68,23.93-44.74,15.23,1.51,26.12,17.24,39.8,24.98,36.92,20.89,81.17,20.57,118.83,1.72,12.73-6.37,34.81-27.59,45.56-28.52Z" fill="#ffffff"/>
      <path d="M457.92,455.91c4.58-1.53,57.3-1.45,64.53-.5,10.36,1.36,11.9,8.05,12.73,17.36,1.27,14.3,1.81,49.05,0,62.71-1.19,8.97-6.59,11.69-15.1,12.67-9.88,1.14-51.14,1.35-59.18-1.1-6.09-1.85-8.45-5.54-9.26-11.57-1.24-9.18-.84-69.08,1.82-74.78.99-2.12,2.08-4,4.46-4.79Z" fill="#ffffff"/>
      <path d="M208.08,456.02c5.81-1.66,63.25-1.25,67.73.72,4.46,1.96,6.52,6.86,7.12,11.4,1.72,13.14,1.48,51.55-.08,64.96-1.19,10.24-4.88,13.86-15.04,15.04-11.89,1.38-41.43,1.39-53.32,0-8.64-1-13.92-3.78-15.1-12.67-1.68-12.63-1.66-54.68,0-67.35.66-5.03,3.43-10.61,8.71-12.12Z" fill="#ffffff"/>
    </g>
  </g>
</svg>