<?xml version="1.0" encoding="UTF-8"?>
<svg id="Layer_2" data-name="Layer 2" xmlns="http://www.w3.org/2000/svg" viewBox="0 0 272.53 359.19">
  <defs>
    <style>
      .cls-1 {
        fill: #fff;
      }
    </style>
  </defs>
  <g id="Layer_2-2" data-name="Layer 2">
    <g>
      <path class="cls-1" d="M48.68,39.53v19.09c0,9.75,10.37,20.77,19.9,22.02l135.99-.12c9.35-1.41,19.27-12.44,19.27-21.9v-19.09h33.31c.38,0,4.74,1.07,5.42,1.32,5.43,2,9.07,7.68,9.93,13.28l.03,288.97c-.05,8.93-7.03,16.22-16.09,16.09H14.59c-8.12-.62-14.31-7.3-14.59-15.35L.02,54.13c.86-5.59,4.5-11.28,9.93-13.28.68-.25,5.04-1.32,5.42-1.32h33.31ZM96.37,118.29c-1.6.36-3.21,2-4.63,2.86l-23.58,21.41-1.49-.06c-2.47-1.76-5.88-7.04-8.45-8.08-8.36-3.4-15.48,4.73-10.92,12.42,1.14,1.92,14.71,15.22,16.39,15.8,2.82.96,6.23.65,8.73-.93,8.24-7.95,17.45-15.05,25.68-22.97,1.81-1.74,6.8-6.18,7.79-7.93,3.79-6.72-2.18-14.16-9.51-12.51ZM138.3,132.52c-10.37,3.6-7.67,16.24,2.91,16.96,22.96-1.53,49.2,2.33,71.77.07,13.46-1.35,11.17-15.86,2.96-17.17l-77.63.13ZM97.88,192.4c-1.46.13-3.44,1.21-4.67,2.07l-25.44,23.2c-5.02-4.45-9.74-12.87-17.53-8.53-4.36,2.43-5.45,7.6-2.94,11.81.89,1.49,14.29,14.99,15.67,15.77,2.85,1.61,5.96,1.67,8.7-.16l33.78-30.59c4.56-5.66-.85-14.15-7.56-13.55ZM139.06,206.64c-9.31,2.49-9.99,14.62-.13,16.99l75.55.05c10.9-1.24,10.72-15.95-.07-17.15l-75.36.11ZM96.38,267.26c-1.28.26-2.84,1.29-3.91,2.08l-24.81,22.39c-1.41.25-7.27-7.25-9.46-8.33-7.53-3.73-15.04,3.92-11.05,11.8,1.1,2.18,12.12,13.42,14.31,14.88,5.29,3.53,8.89,2.25,13.43-1.44,10.58-8.6,20.72-19.75,30.99-28.89,3.53-7.1-1.55-14.13-9.5-12.49ZM137.54,281.47c-7.84,3.28-7.67,13.9.63,16.27l77.84.08c8.47-1.14,8.98-15.07-.08-16.45l-78.39.11Z"/>
      <path class="cls-1" d="M166.28,23.74c1.28,1.11,29.14-.52,34,.06,3.52.42,5.94,2.76,6.36,6.36.67,5.7.68,21.3,0,26.98-.63,5.28-3.73,6.7-8.6,7.12-39.89-2.67-84.21,3.44-123.57,0-3.7-.32-7.19-1.26-8.22-5.25s-.92-24.26-.37-28.86c.42-3.51,2.75-5.94,6.36-6.36,4.86-.57,32.71,1.05,34-.06,7.35-31.72,52.76-31.59,60.03,0Z"/>
    </g>
  </g>
</svg>