<?xml version="1.0" encoding="UTF-8"?><svg xmlns="http://www.w3.org/2000/svg" id="Layer_2" data-name="Layer 2" viewBox="-174.54000000000002 0 1007.98 1007.98">
  <defs>
    <style>
      .cls-1 {
        fill: #282d61;
      }

      .cls-2 {
        fill: #afb5c7;
      }

      .cls-3 {
        fill: #385684;
      }

      .cls-4 {
        fill: #67539b;
      }

      .cls-5 {
        fill: #e6e1da;
      }

      .cls-6 {
        fill: #f7deb5;
      }

      .cls-7 {
        fill: #2b3773;
      }

      .cls-8 {
        fill: #8f93a2;
      }

      .cls-9 {
        fill: #87a6d0;
      }

      .cls-10 {
        fill: #45578a;
      }

      .cls-11 {
        fill: #4e5f90;
      }

      .cls-12 {
        fill: #172445;
      }

      .cls-13 {
        fill: #a89c97;
      }

      .cls-14 {
        fill: #becee5;
      }

      .cls-15 {
        fill: #293f69;
      }

      .cls-16 {
        fill: #80a2ce;
      }

      .cls-17 {
        fill: #3e3b7f;
      }

      .cls-18 {
        fill: #344c78;
      }

      .cls-19 {
        fill: #7397c6;
      }

      .cls-20 {
        fill: #5e6d9a;
      }

      .cls-21 {
        fill: #6577a2;
      }

      .cls-22 {
        fill: #4f478f;
      }

      .cls-23 {
        fill: #354a95;
      }

      .cls-24 {
        fill: #7081aa;
      }

      .cls-25 {
        fill: #73729b;
      }

      .cls-26 {
        fill: #365281;
      }

      .cls-27 {
        fill: #24375f;
      }
    </style>
  </defs>
  <g id="Layer_1-2" data-name="Layer 1">
    <g>
      <path class="cls-12" d="M634.95,67.3l-9.68,1.82c-2.1.4-2.11,5.77-2.11,7.94l-.03,61.15-.04,177.94-.02,395.75.07,120.17.09,106.27c11.98,1.5,22.29,5.88,28.52,14.57,7.06,9.86,9.4,21.69,4.72,33.22-4.85,11.94-16.28,21.83-30.69,21.83l-566.82.02c-14.79,0-25.94-8.86-31.35-21.34-4.47-10.31-2.66-22.82,3.31-31.87,6.49-9.84,15.8-15.75,29.88-15.36l-.1-11.73.07-18.32.42-25.19v-7.16s-.16-600.9-.16-600.9l-.1-10.35.12-14.26-1.01-50.12-18.31-10.25-30.44,4.7c-2.51.39-7.6-2.39-9.21-4.14-8.01-8.7,8.57-24.99,23.82-35.35-.23-22.53,13.2-41.74,34.84-49.06v-38.64c-21.26.75-35.47-15.54-35.26-34.33C25.72,13.62,41.12-.01,62.69,0l566.08.29c17.7,0,28.21,17.82,29.61,31.28,1.67,16.12-9.87,33.19-23.43,35.74ZM39.63,34.23c.05,9.71,7.18,20.99,19.18,20.99l418.44.12,145.21.19c7.38,0,14.8-4.34,18.38-9.49,3.88-5.58,4.8-14.56,2.1-20.78-3.22-7.43-10.74-11.87-18.69-11.87h-92.91s-50.09.05-50.09.05l-62.95-.05H58.82c-11.86,0-19.24,10.44-19.18,20.83ZM97.06,109.33l-.1-40.44-22.77.08.29,36.14,22.59,4.22ZM134.07,110.73c.88-.15,3.19.26,4.04.5l2.77,1.1,5.38,4.27c6.39,5.07-8.96,22.82-23.56,32.93.53,13.01-5.64,24.86-10.76,35.53-3.38,27.63-1.28,57.26-1.46,85.81l-.08,11.93.62,30.29-.45,15.66v50.21s.01,243.86.01,243.86v50.55s-.03,5.44-.03,5.44l-.07,8.12-.09,13.88-.04,88.06.62,64.46-.28,27.16-.05,58.65,16.18-.24c.46-10.71,5.74-23.06,11.56-29.04,1.42-1.46,4.78-4.06,6.55-4.68,5.45-1.89,15.62-2.77,24.24-3.04-42.43-57.93-52.99-131.39-28.52-199.06,23-63.59,69.54-107.58,121.09-148.75,10.84-8.66,21.07-17.65,29.55-28.34,13.65-17.21,11.79-41.22-4.93-55.58l-52.51-45.07c-31.93-27.4-59.44-57.45-79.47-94.29-39.06-71.81-35.36-157.39,13.78-224.77-9.53-1.02-20.43-1.53-26.79-6.34-9.36-7.08-13.65-17.77-14.1-30.73l-16.68-.52.08,46.15,23.41-4.13ZM143.85,80.71c3.53,5.67,9.68,11.56,17.01,11.56l248.52-.21,112.61.16c12.44.02,22.41-11.42,21.15-23.75l-400.56.04c-.97,4.19-.55,9.25,1.28,12.2ZM550.22,92.11c-1.64,2.55-6.92,7.21-9.51,8.66-6.91,3.85-15.53,4.67-24.12,5.59,47.34,67.04,52.49,150.38,14.88,221.96-19.7,37.48-47.36,68.4-79.74,95.88l-52.91,44.91c-17.2,14.6-20.42,39.45-5.77,57.19,9.34,11.3,20.38,20.66,31.92,30.01,44.65,36.19,87.3,75.1,111.55,128.19,32.83,71.86,25.24,154.15-20.94,217.38l19.79,1.9c4.26.41,11.62,7.16,14.23,10.69,5.2,7.06,6.58,14.8,7.68,24.53l15.99.17.16-39.72.29-68-.27-147.89v-13.68s.14-54.44.14-54.44l-.02-233.63v-44.28s0-19.98,0-19.98l.1-157.66.23-14.07-.38-77.03-16.16.04c-1.12,8.39-3.26,17.28-7.12,23.27ZM587.17,111.92l-.06,58.37v6.3s.16,585.06.16,585.06v39.88s-.16,135.73-.16,135.73c1.7.78,6.38,2.2,8.39,2.12l14.26-.56v-171.24s-.15-621.69-.15-621.69l-.18-77.11-22.15.11-.1,43.01ZM144.38,742.2c-9.37,57.25,5.19,115.53,42.21,160.03l17.02.04,84.73-.04h109.62s32.23.03,32.23.03l49.16.03,18.52-.24c33.18-39.86,48.52-90.79,44.31-141.6-2.35-28.33-9.54-55.75-23.9-81.69-19.06-34.43-44.18-64.12-74.33-89.36l-45.85-38.38c-9.11-7.63-17.55-17.33-22.66-27.76-8.56-17.46-5.98-37.42,5.57-53.47,25.21-35.01,92.94-64.1,137.99-147.79,35.86-66.6,30.13-144.83-13.15-206.7-6.48-9.26-9.11-9.66-21.15-9.64l-36.55.04-244.87-.3-16.87-.09c-49.67,60.19-58.56,142.67-23.1,212.81,17.51,34.63,40.99,64.01,70.53,89.27l58.09,49.7c16.71,14.29,25.85,35.85,19.76,57.23-4.76,16.69-16.76,29.4-29.63,40.17l-39.31,32.88c-47.22,39.5-88.29,93.29-98.36,154.83ZM50.58,174.1c13.5-4.84,29.16-11.91,41.72-19.39l16.9-10.07c-3.36-7.58-6.29-12.72-11.71-17.87-4.47-4.24-11.8-7.65-18.12-8.32-15.58-1.65-27,5.03-34.93,15.9-11.33,15.54-4.45,43.54,6.15,39.74ZM133.27,123.57l-19.2,2.17,4.93,11.65,14.27-13.82ZM80.54,173.81l-25.55,11.59,12.66,3.7c17.65,5.16,38.4-7.97,41.44-29.93l-28.55,14.64ZM33.76,180.85l-5.67-12.23-14.92,14.76,20.59-2.52ZM84.22,201.55l-8.64,1.72c-2.47.49-1.37,7.33-1.36,10.5l.26,562.49.03,50.34.03,58.41.03,53.78,8.99.21,13.54-.33-.06-157.25-.21-582.4-12.6,2.52ZM144.04,925.75c-2.19,4.84-3.03,9.3-2.4,13.45l263.49.14h137.24c1.12-6.53.16-12.21-3.51-16.57-3.2-3.8-9.38-7.29-14.53-7.3l-115.13-.16-248.53-.02c-7.19,0-14.15,4.96-16.63,10.44ZM39.15,972.22c-.56,9.7,6.78,22.56,19.87,22.57l386.97.1c3.23,0,8.77-2.4,10.87-4.19l7.55,4.17h157.96c8.99,0,16.08-4.27,20.16-11.09s3.16-16.62-1.7-22.37c-3.79-4.49-9.73-8.61-16.47-8.61l-164.18.03-109.68.02-291.77.03c-11.75,0-19.05,10.05-19.58,19.34Z"/>
      <path class="cls-10" d="M448.14,105.71l4.2,11.25,3.91,6.97-32.06,8.83c-14.33,3.97-33.76,14.05-34,23.85l-4.52.48c-1.06.09-.97,2.52-1.16,3.59-2.17,12.04-24.67,20.55-41.62,27.67-3.96,1.66-9.07,8.49-12.96,13.15l-16.65-5.66c9.4-12.86,4.15-24.74-6.11-31.76-11.24-7.68-23.39-10.21-33.43-5-7.18,3.72,3.69,24.29-8.54,29.84-14.07-1.55-25.7-2.32-37.93-.87l-13.83-1.39,9.95,20.93c-5.99,5.21-14.35,10.52-21.67,13.32l3.17-23.87c3.26-24.6,26.57-44.82,12.23-56.03-4.78-3.74-14-2.94-17.55,3.14-8.71,14.94-15.94,30.42-18.28,46.65l-4.63,32.03c-7.15.18-13.66-1.24-20.4-3.81,1.58-37.08,15.41-71.82,38.03-102.17l8.96-11.43,244.87.3ZM339.87,141.61c-3.44-1.6-6.77-2.45-7.36-3.96l-3.01-7.7c-3.5,6.84-6.31,10.08-12.82,11.98,6.11.58,9.41,4.4,12.62,11.71,1.08-2.58,2.07-7.91,3.77-8.73l6.79-3.29ZM260.45,145.72c-1.22.25,1.56,3.83,2.69,3.41l3.21-1.2c.75-.28-.35-3.36-1.18-3.18l-4.71.98Z"/>
      <path class="cls-3" d="M531.36,13.4l1.04,10.7-40.32.19c-2.15.01-5.19,4.94-4.83,6.34l-5.23,1.12c-1.37.29-2.11,4.48-1.08,5.38l6.11,3.8-9.78,14.43-418.44-.12c-12,0-19.13-11.29-19.18-20.99,4.1-1.79,10.59-10.2,16.92-10.2l355.76.09,72.97.33-4.01-11.01,50.09-.05Z"/>
      <path class="cls-26" d="M465.26,964.23c2.66,8.98-2.46,21.41-8.41,26.48-2.09,1.78-7.63,4.19-10.87,4.19l-386.97-.1c-13.08,0-20.42-12.86-19.87-22.57,5.18-4.63,11.62-8.67,19.55-8.68l287.89-.2,115.84-.79c.04-2.16,2.51.3,2.82,1.68Z"/>
      <path class="cls-20" d="M542.18,760.45c-3.92-.01-8.77,3.16-12.24,6.75l-6.23-26.67-1.81-13.06c-.46-3.34-8.02-7.45-11.3-6.49l-27.15,8.11c-1.83-18.5-5.83-36.23-11.55-54.16l-12.51-28.41c-1.16-1.88-8.93-1.74-9.87-1.13-9.11,5.1-16.46.56-21.46-5.96l-29.36-15.11c-18.72-9.63-39.25-4.24-40.23-15.94-.94-11.22,17.06-18.25,18.12-31.62l.64-4.32c2.38-12.09-3.87-27.24-12.92-36.25l-.11-4.05,11.24-8.89c5.11,10.43,13.55,20.13,22.66,27.76l45.85,38.38c30.15,25.24,55.27,54.93,74.33,89.36,14.36,25.94,21.55,53.36,23.9,81.69Z"/>
      <path class="cls-9" d="M203.27,105.41l-8.96,11.43c-22.63,30.36-36.45,65.09-38.03,102.17-.87,20.25.84,40.77,6.64,60.1,4.3,14.33,8.66,29.29,17.12,41.72l26.4,38.82c12.92,18.99,31.03,34.31,48.82,48.67l14.62,11.8,18.43,15.21,21.35,20,5.59,6.61c3.86,6.58,9.14,17.28,11.15,24.53l1.73,4.98v3.57s-1.33,16.95-1.33,16.95c-.88,11.27-7.66,23.41-15.24,32.06-12.95,14.78-28.1,27.09-43.99,40.17-30.94,25.46-59.9,52.44-80.08,86.2-14.16,20.37-23.67,44.17-28.16,68.54l-1.35,5.23-13.6-1.96c10.07-61.53,51.15-115.33,98.36-154.83l39.31-32.88c12.87-10.77,24.87-23.48,29.63-40.17,6.1-21.38-3.05-42.93-19.76-57.23l-58.09-49.7c-29.53-25.26-53.02-54.65-70.53-89.27-35.46-70.14-26.57-152.62,23.1-212.81l16.87.09Z"/>
      <polygon class="cls-18" points="609.6 145.9 609.75 767.59 596.72 766.84 596.73 762.67 596.82 177.22 596.82 170.84 596.83 150.69 603.19 147.8 609.6 145.9"/>
      <polygon class="cls-18" points="97.03 781.43 89.03 776.41 83.63 772.83 83.83 215 84.22 201.55 96.82 199.03 97.03 781.43"/>
      <path class="cls-1" d="M224.65,865.04c6.18,1.04,9.98,5.48,11.78,12.56,2.5-6.26,5.62-10.37,10.19-12.14.48-.6,1.85-2.59,1.64-2.78l19.8,1.38c20.47-.71,37.9,4.92,53.19,17.02,11.1,8.79,21.8,4.18,32.57.08l20.4-7.75,3.7-1.37c-1.52,4.86-1.55,11.09,1.48,14.87,7.07,8.84,23.35-1.35,22.17,3.29l-1.26,4.96-2.34,7.08h-109.62s-84.73.04-84.73.04c-12.41-15.6-24.53-31.96-32.55-51.04l16.16,2.33c9.61,1.89,17.89,2.83,26.73,7.94,3.06,1.77,7.58,3.01,10.7,3.53Z"/>
      <path class="cls-27" d="M409.37,92.06l-3.72-11.08-261.8-.26c-1.84-2.95-2.25-8.01-1.28-12.2l400.56-.04c1.26,12.33-8.71,23.77-21.15,23.75l-112.61-.16Z"/>
      <polygon class="cls-16" points="596.82 177.22 596.73 762.67 587.27 761.65 587.11 176.59 596.82 177.22"/>
      <path class="cls-27" d="M456.85,990.71c5.95-5.07,11.07-17.49,8.41-26.48l169.14-.84,6.43-1.98c4.86,5.75,5.81,15.51,1.7,22.37s-11.18,11.1-20.16,11.1h-157.96s-7.55-4.17-7.55-4.17Z"/>
      <polygon class="cls-16" points="83.83 215 83.63 772.83 83.55 777.09 74.48 776.27 74.22 213.78 83.83 215"/>
      <path class="cls-25" d="M542.18,760.45c4.21,50.81-11.13,101.74-44.31,141.6l-18.52.24c22.57-24.34,38.57-53.38,45.39-85.52,3.28-15.47-25.3-30.71-44.57-37.83,1.65-16.48,4.9-33.53,3.29-49.86l27.15-8.11c3.29-.96,10.84,3.15,11.3,6.49l1.81,13.06,6.23,26.67c3.47-3.58,8.32-6.76,12.24-6.75Z"/>
      <path class="cls-27" d="M532.39,24.09l110.56,1.17c2.7,6.23,1.78,15.2-2.1,20.78-3.59,5.15-11,9.5-18.38,9.49l-145.21-.19,9.78-14.43.2-10.3c-.36-1.4,2.68-6.33,4.83-6.34l40.32-.19Z"/>
      <path class="cls-11" d="M519,322l-11.54-5.78,9.36-22.69c4.63-11.23-14.24-18.82-28.29-24.58l-8.33-3.42,3.64-24.84,16.2,2.9,26.29-6.67c4.06-15.42,1.63-28.21-.95-41.88-6.13-32.47-21.6-62.03-40.71-89.38,12.04-.01,14.68.39,21.15,9.64,43.28,61.87,49.01,140.1,13.15,206.7Z"/>
      <path class="cls-19" d="M418.32,13.4l-6.01,10.72-355.76-.09c-6.33,0-12.82,8.41-16.92,10.2-.05-10.39,7.32-20.83,19.18-20.83h359.5Z"/>
      <path class="cls-26" d="M410.32,925.31l-5.2,14.04-263.49-.14c-.63-4.15.21-8.61,2.4-13.45l14.49-.39,251.79-.05Z"/>
      <path class="cls-17" d="M524.74,816.77c-6.82,32.15-22.82,61.18-45.39,85.52l-49.16-.03,1.52-7.31c.88-4.8,15.33-2.07,15.28-23.78l9.98,1.6c2.26.36,5.24-3.98,6.1-5.86l3.54-1.04c.91-.27,1.94-3.53,1.03-3.8l-5.11-1.18c-.2-3.65.35-10.29,1.55-13.76l2.25-7.82c18.57-2.83,35.95-12.02,53.35-20.83l5.06-1.71Z"/>
      <path class="cls-10" d="M409.37,92.06l-248.52.21c-7.32,0-13.48-5.88-17.01-11.56l261.8.26,3.72,11.08Z"/>
      <path class="cls-16" d="M350.5,952.85l-3.91,10.49-287.89.2c-7.93,0-14.37,4.05-19.55,8.68.53-9.29,7.83-19.34,19.58-19.34l291.77-.03Z"/>
      <path class="cls-7" d="M478.01,778.15c-5.46,24.43-17.91,44.62-34.82,64.69l23.14-3.53-2.25,7.82c-1.2,3.46-1.75,10.11-1.55,13.76l.54,6.02c-.86,1.88-3.84,6.22-6.1,5.86l-9.98-1.6c.05,21.71-14.4,18.98-15.28,23.78l-1.52,7.31-32.23-.04,2.34-7.08,1.26-4.96c1.18-4.64-15.09,5.55-22.17-3.29-3.03-3.78-3-10.01-1.48-14.87l2-8.01c15.63-3.13,31.88,9.47,39.31,4.45,10.78-7.3,17.76-15.56,25.59-25.67-23.39,1.71-43.96.67-64.61-5.65-9.2-2.81-18.33-7.32-26.45-11.82,5.42-6.62,16.58-10.93,23.28-10.71l8.3,10.26,9.32-9.88-5.59-2.1c-1.11-.42-1.68-2.77-1.3-3.6,10.28-.38,19.31-7.37,30.03-10.91l18.59-6.13c.3,1.61-.59,6.46-2.43,7.14l-7.3,2.69c5.62.5,9.89,5.08,10.66,10.4l9.81-10.91-5.74-3.24c-1.57-.88-1.85-5.51-1.68-7.21l10.74-4.49c5.04-2.11,9.8-7.34,10.13-11.76l17.42,3.27Z"/>
      <path class="cls-20" d="M519,322c-45.05,83.69-112.78,112.78-137.99,147.79-4.73-2.22-7.98-5.47-8.84-9.37,6.09-8.74,13.75-16.48,22.25-23.52l16.58-13.74,30.55-25.62,26.65-26.18c16.17-15.88,27.95-35.17,39.26-55.14l11.54,5.78Z"/>
      <path class="cls-16" d="M409.2,915.33c.21,2.07,1.79,7.47,1.12,9.98l-251.79.05-14.49.39c2.48-5.49,9.45-10.44,16.63-10.44l248.53.02Z"/>
      <path class="cls-19" d="M157.98,744.16c-3.25,12.61-2.57,32.85-1.4,47.64l15.79,5.12-4.67,5.57c-2.54,2.58-8,8.98-7.57,12.54,1.38,11.52,6.41,25.44,10.94,36.21,8.02,19.07,20.14,35.44,32.55,51.04l-17.02-.04c-37.02-44.5-51.58-102.78-42.21-160.03l13.6,1.96Z"/>
      <polygon class="cls-15" points="609.75 767.59 609.76 938.83 595.5 939.39 596.52 803.08 596.72 766.84 609.75 767.59"/>
      <path class="cls-18" d="M484.69,105.66c19.11,27.35,34.57,56.9,40.71,89.38-21.95-2.37-6.68-27.99-33.05-32.22l-8.35-16.31-15.58-1.5-12.16-21.08-3.91-6.97-4.2-11.25,36.55-.04Z"/>
      <polygon class="cls-15" points="97.03 781.43 97.09 938.68 83.54 939.01 83.75 884.6 83.64 827.65 83.55 777.09 83.63 772.83 89.03 776.41 97.03 781.43"/>
      <path class="cls-27" d="M405.12,939.35l5.2-14.04,120.19-.05c2.15,0,7.49-1.19,8.34-2.48,3.67,4.36,4.63,10.04,3.51,16.58h-137.24Z"/>
      <path class="cls-15" d="M640.83,961.41l-6.43,1.98-169.14.84c-.31-1.38-2.78-3.84-2.82-1.68l-2.26-9.71,164.18-.03c6.74,0,12.68,4.12,16.47,8.61Z"/>
      <path class="cls-24" d="M97.49,126.78l-5.19,27.93c-12.56,7.48-28.21,14.54-41.72,19.39-3.51-9.73-5.64-19.36-1.42-28.88,7.89-17.77,25.91-15.53,30.2-26.76,6.32.67,13.66,4.08,18.12,8.32ZM54.81,141.66c-2.1,1.19-2.85,7.33-1.47,9.32s7.34,2.64,9,.88,2.07-6.8,1.09-9.01c-.82-1.84-6.75-2.25-8.61-1.19Z"/>
      <path class="cls-15" d="M609.6,145.9l-6.42,1.9-6.36,2.89.02-30.42c0-3.49-5.77-8.06-9.68-8.35l.1-43.01,22.15-.11.18,77.11Z"/>
      <path class="cls-10" d="M596.52,803.08l-1.02,136.31c-2.02.08-6.7-1.35-8.39-2.12l.17-135.73,9.24,1.55Z"/>
      <path class="cls-18" d="M642.96,25.26l-110.56-1.17-1.04-10.7h92.91c7.95,0,15.47,4.43,18.69,11.86Z"/>
      <path class="cls-15" d="M538.85,922.78c-.85,1.29-6.19,2.48-8.34,2.48l-120.19.05c.66-2.51-.91-7.91-1.12-9.98l115.13.16c5.15,0,11.32,3.49,14.53,7.3Z"/>
      <polygon class="cls-10" points="460.18 952.84 462.44 962.55 346.6 963.34 350.5 952.85 460.18 952.84"/>
      <path class="cls-21" d="M372.17,460.42c.86,3.9,4.11,7.16,8.84,9.37-11.56,16.05-14.13,36.01-5.57,53.47l-11.24,8.89c-1.1-1.33-3.27-3.79-3.75-5.37l-3.53-11.61c-3.91-12.85.05-27.88,4.08-40.42,3.91-3.76,6.7-8.67,7.89-13.82l3.29-.52Z"/>
      <polygon class="cls-15" points="97.06 109.33 74.48 105.11 74.19 68.96 96.97 68.89 97.06 109.33"/>
      <polygon class="cls-10" points="481.27 13.44 485.28 24.45 412.31 24.12 418.32 13.4 481.27 13.44"/>
      <path class="cls-9" d="M79.37,118.46c-4.29,11.23-22.31,9-30.2,26.76-4.23,9.52-2.1,19.14,1.42,28.88-10.6,3.8-17.48-24.2-6.15-39.74,7.93-10.87,19.35-17.55,34.93-15.9Z"/>
      <polygon class="cls-11" points="83.64 827.65 83.75 884.6 74.53 885.02 74.5 826.61 83.64 827.65"/>
      <path class="cls-11" d="M596.83,150.69v20.16s-9.72-.55-9.72-.55l.06-58.37c3.91.29,9.68,4.85,9.68,8.35l-.02,30.42Z"/>
      <polygon class="cls-26" points="83.75 884.6 83.54 939.01 74.56 938.8 74.53 885.02 83.75 884.6"/>
      <path class="cls-10" d="M67.65,189.1l4.56-6.32,8.33-8.97,28.55-14.64c-3.05,21.96-23.79,35.08-41.44,29.93Z"/>
      <polygon class="cls-24" points="83.55 777.09 83.64 827.65 74.5 826.61 74.48 776.27 83.55 777.09"/>
      <polygon class="cls-21" points="596.73 762.67 596.72 766.84 596.52 803.08 587.28 801.53 587.27 761.65 596.73 762.67"/>
      <path class="cls-11" d="M92.3,154.71l5.19-27.93c5.42,5.15,8.35,10.29,11.71,17.87l-16.9,10.07Z"/>
      <polygon class="cls-14" points="33.76 180.85 13.17 183.37 28.09 168.62 33.76 180.85"/>
      <polygon class="cls-24" points="67.65 189.1 54.99 185.41 80.54 173.81 72.21 182.79 67.65 189.1"/>
      <path class="cls-24" d="M84.22,201.55l-.39,13.45-9.61-1.22c0-3.17-1.1-10.01,1.36-10.5l8.64-1.72Z"/>
      <polygon class="cls-10" points="596.82 170.84 596.82 177.22 587.11 176.59 587.11 170.29 596.82 170.84"/>
      <path class="cls-11" d="M456.26,123.93l12.16,21.08,10.77,31.75-17.38-1.67c-5.36-11.44-16.42-21.7-29.24-19.58-25.35,4.19-28.89,27.51-41.97,39.04s-15.9,27.15-7.83,42.82c1.81,3.51,3.38,8.43,4.17,13.87l-22.85,3.63c.88-2.92,6.01-5.95,10.17-7.06-5.31-1.32-9.21-5.05-12.08-11.8l-4.25,7.68c-1.11,2.01-6.38,3.08-9.42,4.18,7.36.12,11.93,5.52,13.54,13.07l2.59,12.11c.45,2.1-.41,7.7-1.93,9.18-1.82,1.77-7.07,2.94-9.81,3.01l-5.38.13c-1.21.03-1.14,2.82-.74,4.55l-4.89,1.4-5.47-2.87-13.12-8.65c-13.44-8.86-27.56-17.19-42.91-22.42-24.72-8.42-51.26-9.11-75.83-.37l-1.48-.22-1.31-35.89c7.32-2.79,15.68-8.11,21.67-13.32l-9.95-20.93,13.83,1.39c12.22-1.45,23.86-.68,37.93.87,12.23-5.56,1.35-26.12,8.54-29.84,10.04-5.2,22.19-2.68,33.43,5,10.27,7.02,15.51,18.91,6.11,31.76l16.65,5.66c3.89-4.67,8.99-11.49,12.96-13.15,16.95-7.12,39.46-15.63,41.62-27.67l4.63.02c1.11-.02,1.02-2.82,1.05-4.1.24-9.81,19.67-19.88,34-23.85l32.06-8.83ZM285.32,170.28c-1.72,1.34-2.65,6.42-1.03,7.87s7.18,3.24,8.3,1.38,1.36-6.7.63-8.75c-.61-1.71-6.47-1.61-7.9-.49ZM241.57,216.56c.64-5.45,5.36-10.27,10.13-10.66-4.37-2.32-8.29-6.28-10.06-10.37l-8.49,10.3c3.66,2.16,7.18,6.94,8.42,10.73ZM306.78,224.91c-.34,1.16,1.13,4.63,2.34,4.6.81-.02,3.09-.93,2.95-1.72l-.81-4.39c-.15-.79-4.26.73-4.48,1.5Z"/>
      <path class="cls-2" d="M204.9,197.04l-3.17,23.87,1.31,35.89-21.74,9.92c-3.32-13.59-6.69-29.6-4.63-43.89l4.63-32.03,23.6,6.24Z"/>
      <path class="cls-14" d="M204.9,197.04l-23.6-6.24c2.34-16.23,9.57-31.71,18.28-46.65,3.54-6.08,12.77-6.88,17.55-3.14,14.33,11.21-8.97,31.43-12.23,56.03Z"/>
      <path class="cls-11" d="M176.68,222.82c-2.06,14.28,1.3,30.3,4.63,43.89l.22,2.4-18.61,10c-5.8-19.33-7.5-39.84-6.64-60.1,6.74,2.57,13.25,4,20.4,3.81Z"/>
      <path class="cls-5" d="M339.87,141.61l-6.79,3.29c-1.71.83-2.69,6.15-3.77,8.73-3.21-7.31-6.51-11.13-12.62-11.71,6.51-1.9,9.32-5.14,12.82-11.98l3.01,7.7c.59,1.51,3.92,2.36,7.36,3.96Z"/>
      <path class="cls-24" d="M260.45,145.72l4.71-.98c.83-.17,1.93,2.9,1.18,3.18l-3.21,1.2c-1.13.42-3.91-3.15-2.69-3.41Z"/>
      <path class="cls-19" d="M390.2,156.61c-.03,1.28.06,4.07-1.05,4.1l-4.63-.02c.19-1.07.09-3.5,1.16-3.59l4.52-.48Z"/>
      <path class="cls-18" d="M487.24,30.62l-.2,10.3-6.11-3.8c-1.03-.91-.29-5.09,1.08-5.38l5.23-1.12Z"/>
      <path class="cls-24" d="M471.9,674.93c5.72,17.92,9.72,35.66,11.55,54.16,1.61,16.33-1.63,33.37-3.29,49.86l-2.16-.8-17.42-3.27-.88-3.3c6.38-15.26-18.36-16.83-32.39-33.21l-11.3-13.2-17.65-24.38c-7.21-9.97-7.42-21.07-3.58-31.61.62-.25,2.79-1.06,2.85-2.04l.23-3.83c7.51,8.78,10.24,16.2,28.45,15.88l25.45-.44,20.13-3.81Z"/>
      <path class="cls-21" d="M471.9,674.93l-20.13,3.81-25.45.44c-18.22.31-20.94-7.1-28.45-15.88l.29-4.83.7-5.58c1.89-15.05-14.07-25.83-31.92-28.57-11.28-1.73-16.98-9.55-14.32-21.87,1.55-7.14,11.06-11.46,15.93-17.34l8.04-8.34c-1.06,13.37-19.05,20.39-18.12,31.62.98,11.7,21.51,6.31,40.23,15.94l29.36,15.11c5,6.52,12.35,11.06,21.46,5.96.94-.62,8.71-.75,9.87,1.13l12.51,28.41Z"/>
      <path class="cls-25" d="M360.45,526.78c.48,1.58,2.65,4.04,3.75,5.37l.11,4.05c-.82,8.79.88,16.37,6.68,24.07l6.24,12.18-.64,4.32-8.04,8.34c-4.87,5.88-14.38,10.2-15.93,17.34-2.66,12.31,3.04,20.13,14.32,21.87,17.85,2.75,33.81,13.53,31.92,28.57-16.98-34.1-41.48-10.32-50.23-26.3l-.03-1.81-.33-19.59c-.02-1-1.4-5.22-2.76-4.43l.81-11.83,7.87-4.13,6.97-6.18,2.11.52,1.11-6.4c.18-1.04-.75-3.56-1.4-4.44-3.15-4.26-9.92-11.61-14.98-13.36l-.12-14.37c7.66-1.75,4.96-9.71,12.56-13.77Z"/>
      <path class="cls-21" d="M377.23,572.45l-6.24-12.18c-5.81-7.7-7.5-15.29-6.68-24.07,9.05,9.02,15.3,24.16,12.92,36.25Z"/>
      <path class="cls-8" d="M334.63,537.46l-5.67,6.35c-1.12,1.47,4.5,5.13,5.25,5.21,1.35,12.76,4.63,28.52,1.39,41.26l-4.08.53c-.12-.94-.2-1.25-.78-1.4l-2.5-.52-4.32-6.75c-4.8,6.56-7.33,8.21-13.41,9.76,3.53,4.43,5.78,10.88,4.52,16.21,5.32-2.68,11.95-2.62,16.92.06l6.35,1.11-.07,12.1c-3.38,2.81-5.49,5.23-4.2,9.11,1.02,3.05,4.83,3.33,10.18,3.6l4.41-7.51c8.75,15.98,33.26-7.8,50.23,26.3l-.7,5.58c-2.48.96-3.82,6.61-3.36,10.7-3.84,10.53-3.63,21.64,3.58,31.61l17.65,24.38,11.3,13.2c14.03,16.38,38.76,17.95,32.39,33.21-13-2.16-26.75-6.47-37.19-14.34l-16.56-12.48c.9-4.8-.79-11.36-4.69-14.66-17.85-15.09-40.69-45.35-25.45-57.15,8.67-.21-1.34-9.54,11.43-20.89-9.13-1.39-13.75-4.72-18.33-13.61-4.11,9.28-6.26,11.93-16.1,12.66l4.43,7.56c1.57,2.68,1.44,9.01.48,12.65-7.83-2.19-16.58,1.53-24.08,6.76-5.38,3.75-14.47,5.73-18.57,11.29-8.71,11.8-18,21.68-28.52,31.86l-19.39,18.77c-4.01,3.88-5.32,9.73-4.66,15.35-3.21,2.95-9.05,7.93-13.96,9.55l-36.51,12.07c2.66-10.87,20.95-9.29,31.69-28.57,9.4-16.86,23.14-27.07,39.81-36.84,13.37-7.84,22.16-27.14,37.71-36.2l1.44-10.29c3.12.31,9.46-3.55,10.57-6.88,3.91-11.76-.54-20.63-6.37-29.78-2.64-4.15-5.77-11.5-9.9-13.61-6.2-3.16-10.76-6.5-12.28-11.76-3.09-10.72,8.34-28.92,27.53-30.09l-7.33-24.94c-3.66-12.44,10.32-25.87,1.88-36.05l1.33-16.95c6.23,12.5,6.97,28.64,6.49,42.45Z"/>
      <path class="cls-22" d="M438.59,356.9c-1.72.04-4.65,2.49-5.73,3.95l-13.68,18.55,22.38,18.15-30.55,25.62c-8.92-2.84-17.73-9.28-19.32-18.53l11.17-12.07c1.09-.22,7.87.82,8.52-1.17l2.61-7.98c.49-.5,3.18-2.79,2.35-3.46l-4.36-3.55c-3.33-2.71-10.32-.9-13.09,2.58l-10.67,13.41c-22.93-.61-42.29,11.4-56.9,9.43-8.66-1.17-17.88-4.93-26.15-1.62l-29.96,11.99c-2.4.96-5.15,5.23-5.33,7.95l-14.62-11.8c4.07-5.93,9.52-11.68,15.31-11.81l13.06-.29,2.59-9.92-4.61-3.17c4.57-.81,8.97-3.66,13.6-7.2l11.76-8.97c10.32.16,21.55.58,29.62-5.96l10.05,1.54.39,6.64c.2,1.37,3.87,1.34,4.79.31l2.79-3.34c9.69,1.76,23.13.24,33.88-1.98l22.33-4.6,27.34-8.68.42,6.01Z"/>
      <path class="cls-17" d="M271.66,332.87l18.92,8.7c1.27.53,4.08,3.98,5.02,2.82l3.47-4.37c.83,1.55,4.32,2.63,6.21,2.2l14.57-3.36,13.74,7.45,3,14.68c-8.07,6.53-19.3,6.12-29.62,5.96l-11.76,8.97c-4.63,3.54-9.03,6.39-13.6,7.2l-4.2-3.91-10.18,7.93,3.33,9.37c-5.79.13-11.24,5.88-15.31,11.81-17.79-14.36-35.9-29.68-48.82-48.67l8.15-7.31c2.4-2.65,10.09-4.45,13.36-3.02,2.75,1.2,6.59,3.18,9.07,2.43,2.91-.88,4.46-8.6,3.49-11.41l14.05-4.37,17.1-3.1Z"/>
      <path class="cls-1" d="M280.36,257.38c1.62,16.58-21.54,7-20.71,26.48l-4.87-9.4c-2.1,8.4-5.01,11.95-14,15.22,9.99,2.23,13.42,7.7,13.9,16.26-.99,3.18-3.87,5.35-9.28,10.17,3.13,1.58,8.69,3.72,12.76,4.79l15.11,3.85c-.95,1.78-1.66,5.97-1.61,8.11l-17.1,3.1-14.05,4.37c-2.5-.57-6.76-1.45-9.15-1.43-2.79.03-4.28,8.12-3.41,10.4-3.27-1.43-10.95.37-13.36,3.02l-8.15,7.31-26.4-38.82,9.98-6.28,6.98-3.93,10.51,17.33c2.71,4.46,10.37,6.22,14.74,4.08,4.88-2.38,7.69-9.92,4.48-15.51-11.04-19.23-18.8-38.71-22.19-59.51,24.57-8.74,51.12-8.05,75.83.37ZM225.7,269.85c-.34.65.22,6.02,1.1,5.18l3.06-2.92c.65-.62-.54-1.17-4.16-2.26Z"/>
      <path class="cls-20" d="M301.58,618.16l4.58,18.87-14.78,6.65c-3.7,1.66-12.75,2.96-17.08,2.42l-12.6-1.84c7.57-7.18,7.74-17.37,1.5-21.84-3.99-2.86-11.94-2.44-15.77,1.43-16.54,16.74-30.74,33.87-42.52,53.2l-7.97-2.85-9.44-3.82c20.19-33.76,49.15-60.74,80.08-86.2,15.9-13.08,31.05-25.39,43.99-40.17l3.85,11.31c5.39,14.49-10.46,16.94-19.36,38.99l5.52,23.85Z"/>
      <path class="cls-13" d="M350.07,452.64l-8.65-4.84-10.23,7.02,3.94,11.18,13.4-.59c1.64-.07,4.99,1.36,6.04,2.66l6.42,6.68c-4.03,12.54-7.99,27.57-4.08,40.42-5.07,7.55-9.09,17-9.02,25.38l.12,14.37c.03,3.69-.2,10.37.99,13.6l3.25,10.57c-3.18.17-5.71,6.66-5.93,9.82l-.81,11.83-1.54,22.41-5.74-1.77.07-12.1-6.35-1.11,3.65-17.91c3.24-12.74-.05-28.5-1.39-41.26,1.52.36,7.13-4.76,5.61-6.3l-5.19-5.26c.48-13.81-.26-29.96-6.49-42.45v-3.57s-1.73-4.98-1.73-4.98c-2.01-7.24-7.29-17.95-11.15-24.53l9.3-9.18c5.22-4.68,11.73-8.31,19.76-8.03,2.85.1,6.53,6.12,5.75,7.92ZM342.4,513.19c-1.11,1.48-1.91,5.51-2.1,8.12-.13,1.87,7.08,2.22,7.54.43l1.65-6.43c.37-1.43-6.2-3.3-7.09-2.12Z"/>
      <path class="cls-4" d="M413.99,383.41l-7.42-3.63c-5.48,2.26-6.29,7.54-3.71,12.78l-11.17,12.07-20.75-4.06-3.35,1.13c-22.79-2.52-25.64,26.64-47.87,14.89l1.08-7.79-3.65-3.97-4.26.17-2.42,2.16c-.9.8-2.28,2.74-2.84,3.66.07,2.26.66,7.94-1.32,8.92l-7.45,3.68c-5.41,2.67-9.61,6.43-10.53,11.92l-18.43-15.21c.17-2.72,2.92-6.98,5.33-7.95l29.96-11.99c8.27-3.31,17.5.45,26.15,1.62,14.6,1.97,33.96-10.04,56.9-9.43l10.67-13.41c2.77-3.48,9.76-5.28,13.09-2.58l4.36,3.55c.83.68-1.87,2.97-2.35,3.46Z"/>
      <path class="cls-25" d="M367.58,401.69c-2.09,7.63-5.41,11.75-16.56,11.04l5.52,7.82c.66,24.36-30.37,12.94-46.87,34.78l-21.35-20c.92-5.49,5.12-9.26,10.53-11.92l7.45-3.68c1.98-.97,1.39-6.66,1.32-8.92,3.07,4.31,7.09,6.2,12.09,5.77,22.23,11.75,25.08-17.41,47.87-14.89Z"/>
      <path class="cls-24" d="M181.05,738.7c-4.92,16.67-2.78,35.2-1.92,53.76l23.24-11.48,1.67,19.19.35,2.73-22.96,4.21-1.81-12.12-7.25,1.93-15.79-5.12c-1.17-14.79-1.85-35.03,1.4-47.64l1.35-5.23c7.33-1.64,14.47-1.79,21.72-.23Z"/>
      <path class="cls-25" d="M322.7,665.07c.11-.79-2.06-2.11-3.03-2.11,3.47-7.57,7.67-18.27,3.33-26.86-4.14-8.18-13.65-14.21-21.42-17.94l-5.52-23.85c8.9-22.05,24.76-24.5,19.36-38.99l-3.85-11.31c7.58-8.65,14.35-20.79,15.24-32.06,8.43,10.18-5.54,23.61-1.88,36.05l7.33,24.94c-19.19,1.17-30.62,19.38-27.53,30.09,1.52,5.26,6.08,8.59,12.28,11.76,4.13,2.11,7.25,9.46,9.9,13.61,5.83,9.15,10.28,18.01,6.37,29.78-1.11,3.33-7.45,7.19-10.57,6.88Z"/>
      <path class="cls-21" d="M204.9,677.06c-6.4,10.5-12.13,21.95-15.56,33.56l-8.29,28.08c-7.25-1.56-14.39-1.41-21.72.23,4.5-24.37,14-48.17,28.16-68.54l9.44,3.82,7.97,2.85Z"/>
      <path class="cls-8" d="M375.62,434.43l-12.02,12.52,5.28,13.98c-1.19,5.15-3.97,10.06-7.89,13.82l-6.42-6.68c-1.05-1.3-4.4-2.73-6.04-2.66l1.75-8.42c.25-.82.86-2.61.82-2.47-.04.13-.86-1.55-1.04-1.89.78-1.8-2.9-7.82-5.75-7.92-8.03-.27-14.53,3.35-19.76,8.03l-9.3,9.18-5.59-6.61c16.5-21.83,47.53-10.41,46.87-34.78,1.15,1.63,2.34,5.65,2.06,7.63l-.82,5.78c-.41,2.91,10.8-7.64,17.85.46Z"/>
      <path class="cls-12" d="M181.53,269.11l15.47,41.5-6.98,3.93-9.98,6.28c-8.46-12.43-12.81-27.39-17.12-41.72l18.61-10Z"/>
      <path class="cls-8" d="M328.14,491.44l-1.73-4.98,1.73,4.98Z"/>
      <path class="cls-7" d="M181.68,809.02c1.09,8.29,3.52,18.45,8.22,26.08,4.09,6.65,12.06,2.72,16.81,2.09,12.75-1.71,25.49.83,38.5,5.03,5.91,1.91,12.68,1.4,18.8,1.69,7.55.36,12.34.87,16.66-4.98l9.99,6.21,1.93-4.88c.27-.69,1.4-1.31,2.6-1.56-1.93,13.23,14.56,15.09,29.82,17.53l21.74,3.48,19.5-.88c2.07-.09,5.61-.17,6.2.89l2.23,3.99-4.29,1.67,3.81,8.03-20.4,7.75c-10.77,4.09-21.47,8.71-32.57-.08-15.28-12.1-32.72-17.73-53.19-17.02l-19.8-1.38c-1.99-.14-6.63.35-7.43-1.44l-3.97-8.93c-2.75,7.19-5.7,10.49-12.22,12.73-3.12-.52-7.64-1.76-10.7-3.53-8.84-5.11-17.12-6.05-26.73-7.94l-16.16-2.33c-4.53-10.77-9.56-24.68-10.94-36.21l21.56-6.01ZM200.71,845.15l.34,5.78c.05.78,3.25-.35,3.28-1.13l.12-3.91c.02-.78-3.78-1.49-3.73-.74Z"/>
      <polygon class="cls-14" points="379.92 864.02 377.92 872.03 374.22 873.41 370.41 865.38 374.69 863.7 379.92 864.02"/>
      <path class="cls-1" d="M524.74,816.77l-5.06,1.71c-17.4,8.81-34.79,18-53.35,20.83l-23.14,3.53c16.91-20.07,29.37-40.26,34.82-64.69l2.16.8c19.27,7.12,47.86,22.36,44.57,37.83ZM484.65,811.7l-1.13,4.81c-.28,1.19,5.2,2.39,5.31,1.18l.47-5.14c.08-.91-4.43-1.74-4.64-.85Z"/>
      <path class="cls-20" d="M432.55,155.5l2.37,5.25c-26.11,7.83-23.48,27.05-35.2,37.49-10.14,9.02-14.12,23.28-2.19,34.96,6.48,6.34,20.61,11.12,30.49,13.82,19.73,5.38,36.41-7.16,40.83-25.86,1.95-8.25,8.54-16.18,15.16-18.44l-.16,37.97-3.64,24.84-22.32-2.15c-7.53-.72-18.05,1.46-24.98,3.19l-22.65,5.68-23.92,8.5c-12.85,4.57-26.19,8.19-39.59,9.17-.4-1.73-.47-4.52.74-4.55l5.38-.13c2.74-.07,7.98-1.24,9.81-3.01,1.52-1.47,2.38-7.07,1.93-9.18l-2.59-12.11,2.04-6.08,22.85-3.63c-.79-5.44-2.36-10.35-4.17-13.87-8.08-15.67-4.59-31.86,7.83-42.82,13.08-11.54,16.61-34.85,41.97-39.04Z"/>
      <path class="cls-10" d="M525.4,195.04c2.58,13.67,5,26.46.95,41.88l-26.29,6.67-16.2-2.9.16-37.97-4.83-25.96-10.77-31.75,15.58,1.5,8.35,16.31c26.38,4.24,11.1,29.86,33.05,32.22ZM496.87,228.63c-.45,1.3.49,5.96,1.44,6.96s4.14-.34,4.35-1.7l.79-5.19c.21-1.36-6.13-1.37-6.57-.07Z"/>
      <path class="cls-1" d="M507.46,316.23c-11.3,19.97-23.09,39.25-39.26,55.14l-8.76-5.99-15.26-8.6-1.97-7.85,17.71-30.55,10.26-3.14c11.79-3.6,22.74-7.79,32.31-13.62l14.34-8.07-9.36,22.69ZM466.78,336.8c-1.4.24.8,6.27,2.09,5.77l4.08-1.58c1.27-.49.32-5.31-1.04-5.08l-5.14.88Z"/>
      <path class="cls-4" d="M480.21,265.53l8.33,3.42c14.05,5.76,32.92,13.36,28.29,24.58l-14.34,8.07-11.1-9.2c-4.03-7-6.87-11.51-12.59-17.17l-14.93,38.37c-8.8-2.05-13.4-7.45-18.81-13.36-.19-1.81.28-4.94,1.63-5.59l5.86-2.83-10.95-8.93c-6.08-2.5-9.88-9.37-8.69-16.32,6.93-1.74,17.45-3.92,24.98-3.19l22.32,2.15Z"/>
      <path class="cls-14" d="M463.07,866.91l-.54-6.02,5.11,1.18c.91.26-.12,3.53-1.03,3.8l-3.54,1.04Z"/>
      <path class="cls-17" d="M230.4,797.14c-.84,3.23,2.94,11.28,7.03,12.13l19.22,4.03,5.78,1.51c1.3,9.6,19.69,6.67,26.41,9.59l35.17,15.29c4.87,2.12,14.72,2.24,20.32,2.03l32.25-1.21c.92-.03,3.44-.11,3.55-.83l.07-2.53c20.65,6.31,41.22,7.36,64.61,5.65-7.83,10.11-14.81,18.37-25.59,25.67-7.43,5.03-23.67-7.57-39.31-4.45l-5.22-.32-2.23-3.99c-.59-1.06-4.13-.98-6.2-.89l-19.5.88-21.74-3.48c-15.27-2.44-31.75-4.3-29.82-17.53l-5.53-9.95-8.99,10.18c-4.32,5.86-9.11,5.34-16.66,4.98-6.12-.29-12.89.22-18.8-1.69-13.01-4.21-25.75-6.74-38.5-5.03.95-3.33,2.02-10.43,1.42-13.72l-3.74-20.56-.35-2.73,26.35-3.03Z"/>
      <path class="cls-17" d="M438.59,356.9l5.59-.13,15.26,8.6,8.76,5.99-26.65,26.18-22.38-18.15,13.68-18.55c1.08-1.46,4.01-3.91,5.73-3.95Z"/>
      <path class="cls-25" d="M391.68,404.63c1.59,9.25,10.4,15.69,19.32,18.53l-16.58,13.74c-8.5,7.04-16.16,14.77-22.25,23.52l-3.29.52-5.28-13.98,12.02-12.52,5.12-1.01c-3.7-8.55-.88-13.26,7.57-18.98l-13.26-4.74c-2.41-.86-3.51-6.63-4.13-9.13l20.75,4.06Z"/>
      <path class="cls-4" d="M181.43,807.11l.25,1.91-21.56,6.01c-.43-3.56,5.03-9.96,7.57-12.54l4.67-5.57,7.25-1.93,1.81,12.12Z"/>
      <path class="cls-14" d="M54.81,141.66c1.86-1.06,7.79-.65,8.61,1.19.99,2.21.57,7.25-1.09,9.01s-7.62,1.11-9-.88-.63-8.13,1.47-9.32Z"/>
      <path class="cls-8" d="M360.45,526.78c-7.59,4.06-4.89,12.02-12.56,13.77-.07-8.37,3.95-17.83,9.02-25.38l3.53,11.61Z"/>
      <path class="cls-23" d="M341.86,291.32c17.65,13.6,38.87,22.59,60.83,26.37l27.51,1.68,29.72-1-17.71,30.55-4.05,1.97-27.34,8.68-22.33,4.6c-10.75,2.22-24.18,3.73-33.88,1.98-2.09-1.49-5.66-3.25-7.97-3.61l-10.05-1.54-3-14.68-13.74-7.45.63-17.28c1.46-.12,5.24-2.08,4.92-3.57l-2.08-5.2,13.09-24.37,5.47,2.87ZM389.07,357.58c2.2-3.84,6.17-7.29,8.27-7.82-2.86-2.11-7.22-7.2-8.19-9.72l-8.16,9.25,8.08,8.29Z"/>
      <path class="cls-25" d="M461.79,175.09l17.38,1.67,4.83,25.96c-6.62,2.27-13.21,10.19-15.16,18.44-4.42,18.69-21.1,31.23-40.83,25.86-9.88-2.69-24.01-7.47-30.49-13.82-11.93-11.68-7.95-25.94,2.19-34.96,11.72-10.43,9.09-29.66,35.2-37.49,7.94,8.12,7.32,25.32-.29,35.48-8.75,11.7-20.97,16.24-38.12,12.08,8.23,17.63,30.81,24.08,48.2,15.78,18.04-8.61,25.48-31.07,17.08-49.01Z"/>
      <path class="cls-27" d="M323.28,279.79c-10.6,4.05-17.66,10.47-26.13,17.51l-16.54,13.74-7.34,13.72-15.11-3.85c-4.07-1.08-9.63-3.21-12.76-4.79,5.41-4.82,8.29-6.99,9.28-10.17,2.73-8.77,4.25-14.19,14.93-16.01-4.56-2.51-8.84-3.92-9.96-6.07-.83-19.49,22.33-9.9,20.71-26.48,15.35,5.23,29.48,13.55,42.91,22.42Z"/>
      <path class="cls-7" d="M336.39,288.45l-13.09,24.37-4.22,2.25c-1.48.79,1.36,4.82,1.39,6.51l-.63,17.28-14.57,3.36c-1.89.44-5.37-.65-6.21-2.2-.66-1.23-2.73-5.36-3.74-4.4l-4.75,5.94-18.92-8.7c-.05-2.14.65-6.33,1.61-8.11l7.34-13.72,16.54-13.74c8.48-7.04,15.53-13.47,26.13-17.51l13.12,8.65Z"/>
      <path class="cls-6" d="M461.79,175.09c8.41,17.94.96,40.4-17.08,49.01-17.39,8.3-39.97,1.85-48.2-15.78,17.15,4.16,29.37-.38,38.12-12.08,7.6-10.16,8.22-27.37.29-35.48l-2.37-5.25c12.82-2.12,23.88,8.14,29.24,19.58Z"/>
      <path class="cls-25" d="M196.99,310.61l-15.47-41.5-.22-2.4,21.74-9.92,1.48.22c3.4,20.8,11.15,40.28,22.19,59.51,3.21,5.59.4,13.12-4.48,15.51-4.37,2.13-12.03.38-14.74-4.08l-10.51-17.33Z"/>
      <path class="cls-1" d="M386.34,280.75l3.69,6.63c6.31,8.98,11,19.38,12.66,30.31-21.95-3.78-43.18-12.77-60.83-26.37l4.89-1.4c13.4-.98,26.74-4.6,39.59-9.17Z"/>
      <path class="cls-5" d="M364.08,254.86l-2.04,6.08c-1.61-7.55-6.19-12.95-13.54-13.07,3.04-1.1,8.31-2.17,9.42-4.18l4.25-7.68c2.87,6.75,6.77,10.47,12.08,11.8-4.16,1.11-9.29,4.14-10.17,7.06Z"/>
      <path class="cls-5" d="M241.57,216.56c-1.23-3.79-4.75-8.56-8.42-10.73l8.49-10.3c1.77,4.09,5.69,8.05,10.06,10.37-4.77.39-9.49,5.2-10.13,10.66Z"/>
      <path class="cls-6" d="M285.32,170.28c1.43-1.12,7.29-1.22,7.9.49.73,2.05.5,6.89-.63,8.75s-6.68.07-8.3-1.38-.69-6.52,1.03-7.87Z"/>
      <path class="cls-19" d="M306.78,224.91c.23-.77,4.34-2.3,4.48-1.5l.81,4.39c.15.79-2.14,1.7-2.95,1.72-1.21.03-2.68-3.44-2.34-4.6Z"/>
      <path class="cls-26" d="M459.72,771.57l.88,3.3c-.33,4.42-5.09,9.65-10.13,11.76l-10.74,4.49-3.32,1.14-18.59,6.13c-10.72,3.54-19.76,10.53-30.03,10.91-.97-.58-2.41-1.45-2.28-1.38-1.77,2.84-5.64,6.78-8.45,6.68-6.71-.22-17.86,4.09-23.28,10.71l-25.34-14.06c4.16-3.07,10.3-5.58,15.64-6.74l20.02-4.33c11.1-2.4,22.08-10.18,32.41-14.66,13.97-6.06,20.77-14.59,26.03-28.31,10.44,7.87,24.2,12.17,37.19,14.34Z"/>
      <path class="cls-25" d="M398.16,658.47l-.29,4.83-.23,3.83c-.06.98-2.23,1.79-2.85,2.04-.46-4.1.88-9.74,3.36-10.7Z"/>
      <path class="cls-6" d="M343.97,623.16l4.62,1.62.03,1.81-4.41,7.51c-5.35-.27-9.17-.55-10.18-3.6-1.29-3.88.83-6.3,4.2-9.11l5.74,1.77Z"/>
      <path class="cls-6" d="M362.99,568.28c.65.88,1.58,3.41,1.4,4.44l-1.11,6.4-2.11-.52-8.92.48-3.25-10.57,3.96.35,2.11-3.2,7.92,2.61Z"/>
      <path class="cls-8" d="M348.6,624.78l-4.62-1.62,1.54-22.41c1.36-.79,2.74,3.43,2.76,4.43l.33,19.59Z"/>
      <path class="cls-8" d="M362.99,568.28l-7.92-2.61-2.11,3.2-3.96-.35c-1.19-3.23-.96-9.91-.99-13.6,5.06,1.75,11.83,9.09,14.98,13.36Z"/>
      <path class="cls-8" d="M361.17,578.62l-6.97,6.18-7.87,4.13c.22-3.16,2.74-9.65,5.93-9.82l8.92-.48Z"/>
      <path class="cls-8" d="M363.28,579.13l1.11-6.4-1.11,6.4Z"/>
      <path class="cls-4" d="M404.33,744.56l-6.24,8.08c-7.48,9.68-16.01,17.15-27.02,22.96l-22.28,11.76c-5.93,3.13-19.48,1.08-26.08,1.71l-17.89,14.22c-9.62-3.26-21.29-6.11-32.42-6.11l-42-.03-26.35,3.03-1.67-19.19-.17-1.93,9.84-2.08,36.51-12.07c4.91-1.62,10.75-6.6,13.96-9.55l6.43-2.96c3.65,10.4,9.15,18.34,16.87,25.65l4.38.36c3.06.25,7.87-.13,10.84-.6l1.49-.52,2.63-.9c.95-.32,1.38-2.43,1.35-3.43l13.94-2.36c4.55-.83,6.79-1.49,11.68-3.88,7.39-3.61,21.22-3.45,27.69-7.86l18.53-12.61,1.13,4.55c.16.83,2.46,1.1,3.27.93s1.38-2.76.68-3.21l-3.56-2.28,8.66-13.97,15.8,12.29ZM252.79,778.05c-1.24.15-1.67,3.86-1.39,5.1s4.89,2.06,5.13.81l.94-4.81c.18-.94-3.22-1.28-4.68-1.1Z"/>
      <path class="cls-24" d="M319.67,662.96c.97,0,3.14,1.32,3.03,2.11l-1.44,10.29c-15.54,9.06-24.34,28.36-37.71,36.2-16.66,9.77-30.4,19.98-39.81,36.84-10.75,19.27-29.04,17.7-31.69,28.57l-9.84,2.08c-.1-19.79,3.03-39.22,8.38-58.29l15.01-30.35,5.17,3.92c20.36,2.86,38.11-4.24,51.33-20.22,9.44-8.22,27.46-11.16,37.57-11.15Z"/>
      <path class="cls-13" d="M375.82,672.95c-15.24,11.8,7.6,42.06,25.45,57.15,3.9,3.29,5.59,9.85,4.69,14.66l-1.64-.19-15.8-12.29-9.95-6.09-6.68-3.69c-4.04,5.82-8.7,15.27-15.12,18.38-13.98,6.77-30.57,6.94-44.24,5.29l-10.7-18.78-17.4,12.79-15.48,12.23-6.43,2.96c-.66-5.62.65-11.47,4.66-15.35l19.39-18.77c10.52-10.18,19.81-20.05,28.52-31.86,4.1-5.56,13.18-7.54,18.57-11.29,7.5-5.23,16.25-8.96,24.08-6.76,6.79,1.9,11.71-6.29,18.09,1.63ZM356.33,730.61l-1.35-14.82,11.54-13.88c-14.34-1.4-18.81-3.27-24.32-17.96l-7.13,13.06c-3,2.52-9.86,3.23-17.44,4.53l10.22,12.55-1.53,16.79,15.36-6.28,14.65,6.01Z"/>
      <path class="cls-22" d="M422.52,757.24c-5.27,13.72-12.06,22.25-26.03,28.31-10.33,4.48-21.3,12.26-32.41,14.66l-20.02,4.33c-5.34,1.16-11.48,3.67-15.64,6.74l-23.6-7.99,17.89-14.22c6.61-.63,20.15,1.42,26.08-1.71l22.28-11.76c11-5.81,19.53-13.28,27.02-22.96l6.24-8.08,1.64.19,16.56,12.48ZM399.12,773.92l.83,3.73c.21.92,3.37.24,3.3-.68l-.29-3.6c-.05-.63-3.98-.07-3.85.55ZM347.35,790l-1,1.87,1,1,1-1-1-1.87Z"/>
      <path class="cls-6" d="M375.82,672.95c-6.38-7.93-11.3.27-18.09-1.63.96-3.64,1.1-9.97-.48-12.65l-4.43-7.56c9.84-.72,11.99-3.38,16.1-12.66,4.58,8.89,9.2,12.23,18.33,13.61-12.77,11.35-2.76,20.68-11.43,20.89Z"/>
      <path class="cls-6" d="M328.25,588.9c.55.86,2.23,1.98,3.27,1.92l4.08-.53-3.65,17.91c-4.97-2.69-11.6-2.75-16.92-.06,1.25-5.33-.99-11.78-4.52-16.21,6.08-1.55,8.61-3.2,13.41-9.76l4.32,6.75Z"/>
      <path class="cls-6" d="M334.21,549.02c-.75-.08-6.37-3.74-5.25-5.21l5.67-6.35,5.19,5.26c1.52,1.54-4.08,6.66-5.61,6.3Z"/>
      <path class="cls-13" d="M331.52,590.81c-1.04.06-2.72-1.06-3.27-1.92l2.5.52c.58.15.66.46.78,1.4Z"/>
      <polygon class="cls-6" points="281.61 383.12 286.23 386.29 283.64 396.21 270.58 396.5 267.24 387.14 277.42 379.21 281.61 383.12"/>
      <path class="cls-6" d="M413.99,383.41l-2.61,7.98c-.65,1.99-7.43.95-8.52,1.17-2.58-5.25-1.77-10.53,3.71-12.78l7.42,3.63Z"/>
      <path class="cls-24" d="M240.51,340.33c.96,2.81-.59,10.53-3.49,11.41-2.48.75-6.32-1.23-9.07-2.43-.87-2.29.62-10.38,3.41-10.4,2.39-.02,6.65.86,9.15,1.43Z"/>
      <path class="cls-6" d="M259.65,283.86c1.12,2.16,5.4,3.56,9.96,6.07-10.68,1.82-12.2,7.24-14.93,16.01-.49-8.56-3.91-14.03-13.9-16.26,8.99-3.27,11.9-6.82,14-15.22l4.87,9.4Z"/>
      <path class="cls-2" d="M225.7,269.85c3.63,1.09,4.82,1.64,4.16,2.26l-3.06,2.92c-.88.83-1.44-4.53-1.1-5.18Z"/>
      <path class="cls-21" d="M319.67,662.96c-10.11,0-28.13,2.93-37.57,11.15-13.22,15.99-30.97,23.09-51.33,20.22l-5.17-3.92c8.42-17.03,22.4-33.16,36.1-46.15l12.6,1.84c4.33.54,13.38-.75,17.08-2.42l14.78-6.65-4.58-18.87c7.77,3.73,17.28,9.75,21.42,17.94,4.34,8.59.14,19.29-3.33,26.86Z"/>
      <path class="cls-14" d="M261.69,644.26c-13.7,12.99-27.68,29.12-36.1,46.15l-15.01,30.35-21.25-10.14c3.43-11.61,9.16-23.07,15.56-33.56,11.78-19.33,25.99-36.47,42.52-53.2,3.83-3.87,11.78-4.28,15.77-1.43,6.24,4.47,6.07,14.66-1.5,21.84Z"/>
      <path class="cls-6" d="M350.07,452.64c.18.34,1,2.02,1.04,1.89.04-.15-.57,1.65-.82,2.47l-1.75,8.42-13.4.59-3.94-11.18,10.23-7.02,8.65,4.84Z"/>
      <path class="cls-6" d="M342.4,513.19c.89-1.18,7.45.69,7.09,2.12l-1.65,6.43c-.46,1.79-7.67,1.44-7.54-.43.19-2.61.99-6.64,2.1-8.12Z"/>
      <path class="cls-6" d="M370.93,400.57c.63,2.5,1.73,8.27,4.13,9.13l13.26,4.74c-8.45,5.72-11.28,10.43-7.57,18.98l-5.12,1.01c-7.05-8.1-18.26,2.45-17.85-.46l.82-5.78c.28-1.98-.91-6.01-2.06-7.63l-5.52-7.82c11.15.7,14.47-3.41,16.56-11.04l3.35-1.13Z"/>
      <path class="cls-6" d="M317.14,404.82l3.65,3.97-1.08,7.79c-5,.43-9.02-1.46-12.09-5.77.57-.92,1.95-2.86,2.84-3.66l2.42-2.16,4.26-.17Z"/>
      <path class="cls-25" d="M320.79,408.79l-3.65-3.97,3.65,3.97Z"/>
      <path class="cls-25" d="M310.46,407.15l2.42-2.16-2.42,2.16Z"/>
      <path class="cls-2" d="M210.59,720.76c-5.34,19.07-8.48,38.5-8.38,58.29l.17,1.93-23.24,11.48c-.86-18.57-3-37.09,1.92-53.76l8.29-28.08,21.25,10.14Z"/>
      <path class="cls-21" d="M204.39,802.9l3.74,20.56c.6,3.29-.47,10.39-1.42,13.72-4.75.64-12.72,4.56-16.81-2.09-4.69-7.63-7.13-17.79-8.22-26.08l-.25-1.91,22.96-4.21Z"/>
      <path class="cls-21" d="M200.71,845.15c-.04-.75,3.76-.04,3.73.74l-.12,3.91c-.02.78-3.23,1.91-3.28,1.13l-.34-5.78Z"/>
      <path class="cls-9" d="M484.65,811.7c.21-.89,4.73-.06,4.64.85l-.47,5.14c-.11,1.2-5.59,0-5.31-1.18l1.13-4.81Z"/>
      <path class="cls-22" d="M432.91,266.57c-1.19,6.95,2.61,13.82,8.69,16.32.62,1.1.62,4.64-.71,5.35l-4.57,2.45,8.74,9.54c5.41,5.91,10.01,11.32,18.81,13.36l14.93-38.37c5.72,5.66,8.57,10.17,12.59,17.17l11.1,9.2c-9.57,5.83-20.52,10.02-32.31,13.62l-10.26,3.14-29.72,1-6.37-11.89c-7.21-11.15-13.17-22.37-13.57-35.22l22.65-5.68Z"/>
      <path class="cls-17" d="M410.26,272.25c.4,12.86,6.36,24.07,13.57,35.22l6.37,11.89-27.51-1.68c-1.66-10.92-6.35-21.33-12.66-30.31l-3.69-6.63,23.92-8.5Z"/>
      <path class="cls-9" d="M466.78,336.8l5.14-.88c1.36-.23,2.31,4.58,1.04,5.08l-4.08,1.58c-1.29.5-3.49-5.53-2.09-5.77Z"/>
      <path class="cls-23" d="M304.82,803.28l23.6,7.99,25.34,14.06c8.12,4.5,17.25,9.01,26.45,11.82l-.07,2.53c-.1.72-2.63.8-3.55.83l-32.25,1.21c-5.61.21-15.45.09-20.32-2.03l-35.17-15.29c-6.72-2.92-25.11,0-26.41-9.59l-.62-4.6c-.12-.89-3.18-1.15-3.64-.38l-1.52,3.47-19.22-4.03c-4.09-.86-7.87-8.9-7.03-12.13l42,.03c11.12,0,22.8,2.86,32.42,6.11Z"/>
      <path class="cls-9" d="M262.44,814.81l-5.78-1.51,1.52-3.47c.46-.77,3.52-.51,3.64.38l.62,4.6Z"/>
      <path class="cls-9" d="M323.31,312.81l2.08,5.2c.33,1.49-3.46,3.45-4.92,3.57-.03-1.7-2.87-5.72-1.39-6.51l4.22-2.25Z"/>
      <path class="cls-13" d="M352.96,568.88l2.11-3.2-2.11,3.2Z"/>
      <path class="cls-25" d="M388.53,732.27l-8.66,13.97h-1.52s-18.53,12.61-18.53,12.61c-6.47,4.4-20.3,4.25-27.69,7.86-4.9,2.39-7.13,3.05-11.68,3.88l-13.94,2.36-.92-6.69,2.81-2.62,10.85-8.07c16.57-1.11,36.67-1.65,48.13-15.31l11.21-14.09,9.95,6.09Z"/>
      <path class="cls-25" d="M284.15,760.58c-1.8,6.14,4.48,6.05,1.67,17.47-7.72-7.31-13.22-15.25-16.87-25.65l15.48-12.23,4.88,2.86-5.16,17.55Z"/>
      <path class="cls-6" d="M308.39,763.65l-2.81,2.62c-1.63,2.7-3.13,7.04-3.05,11.03l-1.49.52-7-2.74c-1.39-.31-3.19,2.09-3.84,3.33l-4.38-.36c2.81-11.42-3.47-11.33-1.67-17.47,1.43.58,5.87.14,6.91-1.47l3.65-5.62c4.37,4.11,8.21,7.08,13.68,10.16Z"/>
      <path class="cls-14" d="M252.79,778.05c1.46-.18,4.87.16,4.68,1.1l-.94,4.81c-.24,1.24-4.85.42-5.13-.81s.14-4.95,1.39-5.1Z"/>
      <path class="cls-2" d="M378.34,746.25h1.52s3.56,2.28,3.56,2.28c.69.44.13,3.04-.68,3.21s-3.11-.11-3.27-.93l-1.13-4.55Z"/>
      <path class="cls-8" d="M306.5,772.96c.03,1-.4,3.11-1.35,3.43l-2.63.9c-.08-3.99,1.42-8.33,3.05-11.03l.92,6.69Z"/>
      <path class="cls-8" d="M301.04,777.81c-2.97.46-7.78.85-10.84.6.65-1.24,2.45-3.65,3.84-3.33l7,2.74Z"/>
      <path class="cls-8" d="M378.58,726.18l-11.21,14.09c-11.47,13.67-31.56,14.2-48.13,15.31l-10.85,8.07c-5.47-3.08-9.31-6.05-13.68-10.16l-3.65,5.62c-1.04,1.6-5.48,2.04-6.91,1.47l5.16-17.55-4.88-2.86,17.4-12.79,10.7,18.78c13.68,1.65,30.26,1.48,44.24-5.29,6.42-3.11,11.08-12.56,15.12-18.38l6.68,3.69Z"/>
      <path class="cls-6" d="M356.33,730.61l-14.65-6.01-15.36,6.28,1.53-16.79-10.22-12.55c7.59-1.3,14.45-2.01,17.44-4.53l7.13-13.06c5.52,14.7,9.99,16.56,24.32,17.96l-11.54,13.88,1.35,14.82Z"/>
      <path class="cls-2" d="M399.12,773.92c-.14-.62,3.8-1.18,3.85-.55l.29,3.6c.07.92-3.09,1.6-3.3.68l-.83-3.73Z"/>
      <polygon class="cls-4" points="347.35 790 348.35 791.87 347.35 792.87 346.35 791.87 347.35 790"/>
    </g>
  </g>
</svg>