<?xml version="1.0" encoding="UTF-8"?><svg xmlns="http://www.w3.org/2000/svg" id="Layer_2" data-name="Layer 2" viewBox="0 0 461.67 456.86">
  <g id="Layer_1-2" data-name="Layer 1">
    <path d="M441.95,185.08c3.47-35.13-6.69-69.6-28.75-97.25-22.08-27.68-53.46-45.27-88.52-49.68C300.39,14.55,267.27,0,230.82,0s-69.64,14.58-93.93,38.22c-33.63,4.26-65.69,21.08-88.44,49.61-22.75,28.53-32.02,63.54-28.69,97.27C2.12,214.04-4.73,249.6,3.39,285.18c8.11,35.54,29.67,64.59,58.08,83.02,12.1,33.2,36.23,59.88,68.13,75.24,18.53,8.92,38.41,13.42,58.38,13.42,14.42,0,28.89-2.35,42.94-7.07,13.73,4.58,28.19,6.99,42.82,6.99,19.59,0,39.48-4.29,58.27-13.34,32.84-15.82,56.37-43.3,68.01-75.09,29.68-19.19,50.32-48.65,58.2-83.17,7.87-34.49,2.08-69.95-16.29-100.1ZM174.56,383.99c21.89-6.74,40.99-18.7,56.2-34.18,15.56,15.86,34.79,27.59,56.32,34.19-13.22,21.2-32.73,37.44-56.19,46.66-22.72-8.91-42.72-24.89-56.33-46.67ZM76.44,356.25c-7.41-24.08-6.87-49.46,1.46-73,18.92,12.92,40.18,20.39,61.77,22.64-2.7,22.05.12,44.4,8.38,65.34-4.44.51-8.86.76-13.25.76-20.84,0-40.91-5.65-58.36-15.74ZM96.4,144.89c1.7,22.84,9.11,44.12,20.82,62.4-18.92,11.64-34.63,27.78-45.86,47.29-18.18-18.1-29.3-41.12-32.95-65.22,13.74-20.14,33.75-36.05,57.99-44.47ZM153.94,55.12c21.47,0,43.05,5.9,62.14,17.95-16.52,15.29-28.75,34.19-35.88,55.22-20.43-7.34-42.82-9.84-65.47-6.41,2.82-25.5,13.88-48.55,30.45-66.43,2.91-.22,5.84-.34,8.76-.34ZM316.39,55.4c16.6,17.88,27.68,40.95,30.5,66.48-22.26-3.39-44.67-1.16-65.56,6.37-6.99-20.55-19-39.61-35.8-55.18,18.64-11.8,40-18.02,62.05-18.02,2.93,0,5.87.12,8.81.34ZM295.56,367.72c-20.43-5.65-38.61-16.55-53.02-31.63,8.47-11.29,15.16-23.88,19.77-37.29,9.72,3.46,19.9,5.83,30.4,7.02,3.74.42,7.47.68,11.19.8,2.78,20.64-.03,41.63-8.34,61.1ZM166.07,367.72c-8.32-19.49-11.13-40.5-8.33-61.17,14.11-.42,28.12-3.05,41.48-7.8,3.35,9.76,7.84,19.2,13.47,28.15,1.99,3.16,4.1,6.22,6.31,9.18-14.07,14.69-32.11,25.86-52.93,31.63ZM274.36,243.17c-1.69.68-3.39,1.32-5.12,1.92-.08-1.04-.17-2.08-.27-3.12.55-.91,1.09-1.82,1.62-2.74,1.29,1.28,2.54,2.59,3.76,3.93ZM298.33,283.42c.58,1.66,1.11,3.32,1.62,4.99-1.74-.12-3.48-.27-5.22-.47-9.59-1.08-18.87-3.3-27.7-6.57,1.14-5.7,1.91-11.51,2.29-17.39,5.64-1.69,11.13-3.73,16.44-6.11,5.15,7.88,9.38,16.43,12.57,25.54ZM175.86,257.88c5.29,2.37,10.76,4.41,16.39,6.09.37,5.84,1.13,11.63,2.26,17.36-10.57,3.91-21.63,6.26-32.81,7.02.5-1.65,1.03-3.29,1.6-4.93,3.19-9.11,7.42-17.67,12.57-25.54ZM191.03,239.26c.53.91,1.07,1.82,1.62,2.72-.1,1.04-.2,2.07-.28,3.11-1.72-.6-3.42-1.24-5.1-1.92,1.22-1.33,2.47-2.64,3.75-3.92ZM195.87,205.4c1.82.12,3.65.28,5.46.49-.38.99-.76,1.98-1.12,2.97-.89.57-1.77,1.16-2.65,1.75-.61-1.72-1.17-3.46-1.7-5.21ZM238.77,216.76c2.62,1.26,5.18,2.61,7.67,4.04.84,2.75,1.6,5.54,2.25,8.39.65,2.84,1.18,5.69,1.62,8.52-1.62,2.37-3.34,4.7-5.15,6.98-1.82,2.28-3.71,4.47-5.66,6.58-2.86.21-5.75.32-8.67.32s-5.81-.11-8.68-.32c-1.95-2.11-3.84-4.31-5.65-6.58-1.81-2.27-3.53-4.6-5.16-6.98.43-2.85.97-5.69,1.62-8.52.65-2.84,1.39-5.63,2.24-8.39,2.5-1.43,5.06-2.79,7.68-4.05,2.63-1.26,5.28-2.42,7.95-3.47,2.68,1.06,5.33,2.21,7.96,3.47ZM210.69,268.09c1.04.16,2.09.3,3.14.44.75.73,1.5,1.45,2.27,2.17-1.54.97-3.1,1.9-4.68,2.79-.28-1.79-.53-3.59-.72-5.39ZM247.78,268.53c1.04-.13,2.08-.28,3.11-.43-.2,1.82-.45,3.62-.74,5.42-1.58-.9-3.14-1.83-4.67-2.8.77-.72,1.53-1.45,2.29-2.19ZM261.41,208.86c-.36-.98-.73-1.94-1.1-2.91,1.79-.2,3.59-.37,5.38-.48-.51,1.72-1.07,3.42-1.66,5.12-.86-.59-1.74-1.16-2.62-1.73ZM269.58,187.26c-5.79.16-11.6.7-17.39,1.63-2.9-5.13-6.11-10.03-9.61-14.67,6.53-6.77,13.93-12.8,22.1-17.93,1.47-.92,2.96-1.8,4.45-2.65,1.75,11.1,1.91,22.43.44,33.63ZM233.79,193.18c-.99.31-1.98.62-2.96.95-1.01-.34-2.02-.67-3.04-.98.96-1.53,1.95-3.04,2.98-4.53,1.04,1.49,2.04,3.01,3.01,4.56ZM209.42,188.84c-5.78-.93-11.6-1.49-17.44-1.65-1.21-9.31-1.31-18.82-.23-28.39.19-1.72.43-3.43.7-5.13,9.75,5.54,18.69,12.46,26.51,20.56-3.49,4.65-6.68,9.53-9.54,14.61ZM173.92,187.9c-10.23,1.1-20.4,3.38-30.35,6.86-3.53,1.23-6.98,2.61-10.36,4.11-11.19-16.99-18.07-37.06-19.06-58.64,21.26-3.83,42.35-1.59,61.41,5.54-.71,3.63-1.28,7.3-1.7,11.01-1.18,10.48-1.14,20.9.07,31.12ZM149.51,211.75c9.09-3.18,18.39-5.19,27.73-6.08,1.46,5.65,3.3,11.2,5.49,16.62-4.32,3.92-8.36,8.11-12.12,12.55-9.64-5.83-18.38-13.01-25.95-21.27,1.6-.64,3.22-1.25,4.85-1.82ZM159.92,249.39c-5.54,8.7-10.12,18.1-13.61,28.08-1.23,3.53-2.31,7.08-3.24,10.66-20.26-1.84-40.24-8.98-57.73-21.66,10.05-18.66,24.73-33.96,42.63-44.65,9.13,10.77,19.91,20.09,31.95,27.57ZM227.93,317.32c-5.14-8.17-9.19-16.82-12.14-25.75,5.16-2.66,10.17-5.66,14.99-9.01,4.79,3.35,9.79,6.37,14.97,9.05-3.53,10.7-8.59,20.82-14.97,30.04-.98-1.42-1.94-2.86-2.86-4.33ZM315.32,277.47c-3.49-9.98-8.07-19.38-13.61-28.08,12.02-7.47,22.79-16.77,31.9-27.51,17.48,10.45,32.41,25.56,42.68,44.6-17.13,12.43-36.97,19.85-57.71,21.73-.94-3.6-2.02-7.18-3.26-10.73ZM291.02,234.85c-3.77-4.46-7.83-8.66-12.16-12.59,2.18-5.42,4-10.95,5.44-16.54,11.22,1.06,22.22,3.73,32.63,7.89-7.56,8.25-16.28,15.42-25.91,21.23ZM287.62,187.97c1.67-14.1,1.11-28.37-1.62-42.25,13.01-4.88,26.72-7.38,40.6-7.38,6.94,0,13.93.63,20.89,1.89-1,21.6-7.89,41.69-19.1,58.69-12.9-5.74-26.66-9.45-40.76-10.95ZM264.78,135.51c-3.28,1.71-6.51,3.55-9.67,5.54-8.95,5.62-17.09,12.18-24.35,19.51-9.97-10.08-21.46-18.51-33.99-25.02,6.44-19.83,18.09-37.55,34.05-51.5,16.25,14.23,27.66,32.12,33.96,51.47ZM321.97,305.97c22.07-2.29,43.2-10.02,61.76-22.72,8.34,23.58,8.87,48.99,1.43,73.11-21.85,12.62-46.74,17.76-71.58,14.88,8.25-20.92,11.07-43.24,8.39-65.27ZM390.28,254.59c-11.46-19.87-27.39-35.84-45.9-47.24,11.73-18.3,19.16-39.6,20.86-62.47,23.64,8.18,43.84,23.61,58.05,44.46-3.75,24.96-15.26,47.62-33.01,65.25ZM399.12,99.05c14.6,18.31,23.19,40.07,25.09,62.89-16.08-16.87-36.25-29.22-58.9-35.94-1.56-24.07-9.46-46.44-22.05-65.45,21.88,6.92,41.23,20.15,55.86,38.5ZM295.51,37.6c-23.17,2.07-45.36,10.13-64.69,23.63-19.76-13.77-42.13-21.53-64.8-23.55,18.56-12.42,40.85-19.68,64.81-19.68s46.16,7.23,64.69,19.6ZM62.51,99.05c14.94-18.73,34.51-31.63,55.79-38.4-12.55,18.99-20.43,41.32-21.99,65.35-23.08,6.86-43.1,19.51-58.82,35.98,1.86-22.25,10.08-44.2,25.02-62.94ZM20.94,281.17c-5.33-23.36-3.22-46.71,4.76-67.56,7.02,21.65,19.57,41.74,37.38,57.94-8.85,21.85-11.77,45.27-8.64,68.31-16.18-15.31-28.18-35.39-33.5-58.69ZM137.41,427.23c-21.14-10.18-38.34-26.09-49.96-45.88,14.91,5.62,30.92,8.65,47.34,8.65,7.07,0,14.21-.57,21.38-1.73,11.85,21.02,28.68,37.74,48.28,49.4-22.72,3.26-45.9-.27-67.04-10.45ZM324.22,427.23c-21.54,10.37-44.72,13.52-66.79,10.41,19.97-11.92,36.47-28.81,48.03-49.36,7.2,1.17,14.43,1.76,21.62,1.76,16.08,0,31.97-2.91,47.04-8.59-11.62,19.74-28.8,35.62-49.9,45.78ZM440.69,281.17c-5.22,22.88-16.91,43.19-33.62,58.92,3.1-22.59.51-46.17-8.53-68.54,17.49-15.88,30.3-35.76,37.47-57.93,8.19,21.39,9.89,44.72,4.68,67.55Z" fill="#ffffff"/>
  </g>
</svg>